<svg xmlns="http://www.w3.org/2000/svg" viewBox="0 0 54 116">
  <defs>
    <style>
      .academy-podcast {
        fill: #fff;
      }
    </style>
  </defs>
  <title>academy-podcast</title>
  <g id="Layer_2" data-name="Layer 2">
    <g id="Layer_1-2" data-name="Layer 1"><path
      class="academy-podcast"
      d="M45,111v-4H29.5V80.81A18,18,0,0,0,45,63V54h4V48.9A5,5,0,0,0,53,44V37a5,5,0,0,0-4-4.9V27H45V18A18,18,0,0,0,34.5,1.65h0a17.86,17.86,0,0,0-6-1.58h0C28,0,27.51,0,27,0s-1,0-1.5.08h0a17.86,17.86,0,0,0-6,1.58h0A18,18,0,0,0,9,18v9H5v5.1A5,5,0,0,0,1,37v7a5,5,0,0,0,4,4.9V54H9v9A18,18,0,0,0,24.5,80.81V107H9v4H0v5H54v-5ZM44,55H38.5a.5.5,0,0,1,0-1H44Zm8-18v7a4,4,0,0,1-3,3.87V33.13A4,4,0,0,1,52,37Zm-4-9V53H45V28ZM44,46H38.5a.5.5,0,0,1,0-1H44Zm0-9H38.5a.5.5,0,0,1,0-1H44Zm0-10H38.5a.5.5,0,0,1,0-1H44ZM36.5,3.92V10a.5.5,0,0,1-1,0V3.3l.27.17C36,3.61,36.26,3.76,36.5,3.92ZM26.5,1,27,1l.5,0v9a.5.5,0,0,1-1,0Zm-9,2.9c.24-.16.48-.31.73-.46l.27-.17V10a.5.5,0,0,1-1,0ZM10,26h5.5a.5.5,0,0,1,0,1H10ZM2,44V37a4,4,0,0,1,3-3.87V47.87A4,4,0,0,1,2,44Zm4,9V28H9V53Zm4-17h5.5a.5.5,0,0,1,0,1H10Zm0,9h5.5a.5.5,0,0,1,0,1H10Zm0,9h5.5a.5.5,0,0,1,0,1H10Zm0,9V56h5.5a1.5,1.5,0,0,0,0-3H10V47h5.5a1.5,1.5,0,0,0,0-3H10V38h5.5a1.5,1.5,0,0,0,0-3H10V28h5.5a1.5,1.5,0,0,0,0-3H10V18A17,17,0,0,1,16.5,4.66V10a1.5,1.5,0,0,0,3,0V2.77a16.84,16.84,0,0,1,6-1.69V10a1.5,1.5,0,0,0,3,0V1.08a16.84,16.84,0,0,1,6,1.69V10a1.5,1.5,0,0,0,3,0V4.66A17,17,0,0,1,44,18v7H38.5a1.5,1.5,0,0,0,0,3H44v7H38.5a1.5,1.5,0,0,0,0,3H44v6H38.5a1.5,1.5,0,0,0,0,3H44v6H38.5a1.5,1.5,0,0,0,0,3H44v7A17,17,0,0,1,29.22,79.84l-.8.09C28,80,27.48,80,27,80s-1,0-1.42-.07l-.8-.09A17,17,0,0,1,10,63ZM28.5,80.93V107h-3V80.93c.53,0,1,.07,1.5.07S28,81,28.5,80.93ZM10,108H44v3H10Zm43,7H1v-3H53Z"/><path class="academy-podcast" d="M27,47a6.5,6.5,0,1,1,6.5-6.5A6.51,6.51,0,0,1,27,47Zm0-12a5.5,5.5,0,1,0,5.5,5.5A5.51,5.51,0,0,0,27,35Z"/></g>
  </g>
</svg>
