<?xml version="1.0" encoding="UTF-8" standalone="no"?>
<!DOCTYPE svg PUBLIC "-//W3C//DTD SVG 1.1//EN" "http://www.w3.org/Graphics/SVG/1.1/DTD/svg11.dtd">
<svg width="100%" height="100%" viewBox="0 0 1655 272" version="1.1" xmlns="http://www.w3.org/2000/svg" xmlns:xlink="http://www.w3.org/1999/xlink" xml:space="preserve" xmlns:serif="http://www.serif.com/" style="fill-rule:evenodd;clip-rule:evenodd;stroke-linejoin:round;stroke-miterlimit:2;">
    <g>
        <g id="Layer_1-2">
            <path d="M135.7,202.5C98.8,202.5 68.9,172.6 68.9,135.7C68.9,98.8 98.8,68.9 135.7,68.9C153.8,68.9 171.2,76.3 183.7,89.3L180.9,92C156.8,67 117,66.3 92,90.4C67,114.5 66.3,154.3 90.4,179.3C102.3,191.6 118.6,198.5 135.7,198.5C153.2,198.5 170,191.2 181.9,178.3L184.8,180.9C172.1,194.7 154.3,202.4 135.7,202.5Z" style="fill:white;fill-rule:nonzero;"/>
            <path d="M67.4,137.5L5.3,110.3L89.1,89.1L110.1,9.3L162,9.3L182,88L241,63.3L242.5,66.9L179.4,93.4L158.9,13.3L113,13.3L92.2,92.3L17.2,111.3L68.9,133.9L67.4,137.5Z" style="fill:white;fill-rule:nonzero;"/>
            <path d="M67.4,137.5L8.8,111.8L28.6,62.5L87.1,87L61.6,25.6L135.7,66L204.9,28.3L206.8,31.7L135.7,70.5L69.4,34.2L94.3,94.2L30.7,67.6L13.8,109.7L69,133.8L67.4,137.5Z" style="fill:white;fill-rule:nonzero;"/>
            <path d="M161.9,262L110,262L89,182.3L5.3,161.1L67.4,133.9L69,137.5L17.3,160.1L92.3,179.1L113.1,258.2L159,258.2L179.5,178.1L242.6,204.6L241.1,208.2L182.1,183.5L161.9,262Z" style="fill:white;fill-rule:nonzero;"/>
            <path d="M61.6,245.8L87.1,184.3L28.6,208.8L8.8,159.5L67.4,133.9L69,137.5L13.8,161.6L30.7,203.7L94.3,177.1L69.4,237.1L135.7,201L206.8,239.8L204.9,243.2L135.7,205.5L61.6,245.8Z" style="fill:white;fill-rule:nonzero;"/>
            <circle cx="68.2" cy="135.7" r="11.3" style="fill:white;"/>
            <circle cx="90.7" cy="90.7" r="11.3" style="fill:white;"/>
            <circle cx="180.7" cy="180.7" r="11.3" style="fill:white;"/>
            <circle cx="90.7" cy="180.7" r="11.3" style="fill:white;"/>
            <circle cx="180.7" cy="90.7" r="11.3" style="fill:white;"/>
            <circle cx="135.7" cy="68.2" r="11.3" style="fill:white;"/>
            <circle cx="160.4" cy="11.3" r="11.3" style="fill:white;"/>
            <circle cx="111.5" cy="11.3" r="11.3" style="fill:white;"/>
            <circle cx="65.5" cy="29.9" r="11.3" style="fill:white;"/>
            <circle cx="29.6" cy="65.1" r="11.3" style="fill:white;"/>
            <circle cx="11.3" cy="110.8" r="11.3" style="fill:white;"/>
            <circle cx="11.3" cy="160.4" r="11.3" style="fill:white;"/>
            <circle cx="29.6" cy="205.8" r="11.3" style="fill:white;"/>
            <circle cx="65.5" cy="241.5" r="11.3" style="fill:white;"/>
            <circle cx="111.5" cy="260.1" r="11.3" style="fill:white;"/>
            <circle cx="160.4" cy="260.1" r="11.3" style="fill:white;"/>
            <circle cx="205.8" cy="241.5" r="11.3" style="fill:white;"/>
            <circle cx="241.8" cy="205.8" r="11.3" style="fill:white;"/>
            <circle cx="241.8" cy="65.1" r="11.3" style="fill:white;"/>
            <circle cx="205.8" cy="29.9" r="11.3" style="fill:white;"/>
            <circle cx="135.7" cy="203.2" r="11.3" style="fill:white;"/>
        </g>
    </g>
    <g>
        <path d="M331,64.6L402.3,64.6L402.3,75.8L343.4,75.8L343.4,121.9L391.5,121.9L391.5,133L343.4,133L343.4,180L405.5,180L405.5,191.2L331,191.2L331,64.6Z" style="fill:white;fill-rule:nonzero;"/>
        <path d="M431.9,100.6L444,100.6L444,114.1C444,118.1 443.6,121.3 443.6,121.3L444,121.3C447.2,113 458.8,98.4 480.2,98.4C502.5,98.4 510.4,111.2 510.4,133.5L510.4,191.1L498.2,191.1L498.2,136.7C498.2,122.5 496,109.9 478.6,109.9C463.1,109.9 449.8,120.5 445.7,135.5C444.6,139.3 444.3,143.4 444.3,147.7L444.3,191.1L432.1,191.1L432.1,100.6L431.9,100.6Z" style="fill:white;fill-rule:nonzero;"/>
        <path d="M575.2,98.4C597.2,98.4 604.7,115.5 604.7,115.5L605.1,115.5C605.1,115.5 604.7,112.4 604.7,108.7L604.7,64.6L617,64.6L617,191.1L605.1,191.1L605.1,181.6C605.1,177.6 605.5,175.1 605.5,175.1L605.1,175.1C605.1,175.1 597.7,193.3 574,193.3C549.7,193.3 534.6,173.9 534.6,145.8C534.5,117.2 551.4,98.4 575.2,98.4ZM575.7,182.3C590.8,182.3 605,171.5 605,145.8C605,127.4 595.6,109.4 576.2,109.4C560.2,109.4 547,122.9 547,145.8C547.1,168.1 558.8,182.3 575.7,182.3Z" style="fill:white;fill-rule:nonzero;"/>
        <path d="M648.3,100.6L660,100.6L660,109.4C660,113.4 659.6,116.4 659.6,116.4L660,116.4C660,116.4 667.4,98.4 691.3,98.4C715.6,98.4 730.7,117.8 730.7,145.9C730.7,174.5 713.6,193.2 690.2,193.2C668.4,193.2 660.5,175.9 660.5,175.9L660.1,175.9C660.1,175.9 660.5,179.1 660.5,183.8L660.5,227L648.3,227L648.3,100.6ZM689,182.5C705,182.5 718.2,169 718.2,146C718.2,123.9 706.5,109.6 689.6,109.6C674.5,109.6 660.3,120.4 660.3,146.1C660.2,164.3 670.2,182.5 689,182.5Z" style="fill:white;fill-rule:nonzero;"/>
        <path d="M797.3,98.4C823.8,98.4 845.2,118.6 845.2,145.4C845.2,172.8 823.8,193.3 797.3,193.3C770.8,193.3 749.4,172.8 749.4,145.4C749.4,118.6 770.9,98.4 797.3,98.4ZM797.3,182.3C816.7,182.3 832.6,166.5 832.6,145.4C832.6,124.9 816.8,109.6 797.3,109.6C777.9,109.6 762,124.9 762,145.4C762,166.5 777.9,182.3 797.3,182.3Z" style="fill:white;fill-rule:nonzero;"/>
        <path d="M869.5,64.6L882.3,64.6L882.3,79.9L869.5,79.9L869.5,64.6ZM869.9,100.6L882.1,100.6L882.1,191.1L869.9,191.1L869.9,100.6Z" style="fill:white;fill-rule:nonzero;"/>
        <path d="M913.4,100.6L925.5,100.6L925.5,114.1C925.5,118.1 925.1,121.3 925.1,121.3L925.5,121.3C928.7,113 940.3,98.4 961.7,98.4C984,98.4 991.9,111.2 991.9,133.5L991.9,191.1L979.7,191.1L979.7,136.7C979.7,122.5 977.5,109.9 960.1,109.9C944.6,109.9 931.3,120.5 927.2,135.5C926.1,139.3 925.8,143.4 925.8,147.7L925.8,191.1L913.6,191.1L913.6,100.6L913.4,100.6Z" style="fill:white;fill-rule:nonzero;"/>
        <path d="M1025.4,111.9L1013.5,111.9L1013.5,101.6L1025.6,101.6L1025.6,75.6L1037.7,75.6L1037.7,101.7L1060.4,101.7L1060.4,112L1037.7,112L1037.7,157C1037.7,178.2 1051.2,180.9 1058,180.9C1060.5,180.9 1062.1,180.5 1062.1,180.5L1062.1,191.5C1062.1,191.5 1060.1,191.9 1056.9,191.9C1046.5,191.9 1025.4,188.5 1025.4,158.2L1025.4,111.9Z" style="fill:white;fill-rule:nonzero;"/>
        <path d="M1137.9,64.6L1150.3,64.6L1150.3,122.2L1223.7,122.2L1223.7,64.6L1236.1,64.6L1236.1,191.1L1223.7,191.1L1223.7,133.3L1150.3,133.3L1150.3,191.1L1137.9,191.1L1137.9,64.6Z" style="fill:white;fill-rule:nonzero;"/>
        <path d="M1309.4,98.4C1334.4,98.4 1347.2,117.7 1347.2,140.2C1347.2,142.4 1346.8,146.5 1346.8,146.5L1277.3,146.5C1277.8,169.7 1293.7,182.3 1312.4,182.3C1329,182.3 1339.9,171.3 1339.9,171.3L1345.5,180.7C1345.5,180.7 1332.4,193.3 1312,193.3C1285,193.3 1264.7,173.9 1264.7,146C1264.8,116.3 1284.9,98.4 1309.4,98.4ZM1334.8,136.4C1334.1,117.5 1322.6,108.7 1309.1,108.7C1294,108.7 1280.8,118.2 1278,136.4L1334.8,136.4Z" style="fill:white;fill-rule:nonzero;"/>
        <path d="M1420.5,135.2L1425.5,135.2L1425.5,132.9C1425.5,115.4 1416,109.5 1403,109.5C1388.1,109.5 1377.4,118.1 1377.4,118.1L1371.6,108.7C1371.6,108.7 1383.5,98.4 1403.8,98.4C1425.6,98.4 1437.6,110.5 1437.6,133.1L1437.6,191.1L1425.9,191.1L1425.9,181.2C1425.9,176.7 1426.3,173.6 1426.3,173.6L1425.9,173.6C1425.9,173.6 1418.3,193.2 1395.7,193.2C1380.6,193.2 1364.9,184.4 1364.9,166.4C1365,135.9 1404.8,135.2 1420.5,135.2ZM1397.8,182.8C1415.1,182.8 1425.5,164.8 1425.5,149.1L1425.5,145.1L1420.3,145.1C1406.1,145.1 1377.6,145.6 1377.6,165.6C1377.6,174.2 1384.3,182.8 1397.8,182.8Z" style="fill:white;fill-rule:nonzero;"/>
        <path d="M1466.9,64.6L1479.1,64.6L1479.1,167C1479.1,178.9 1484.5,180.7 1489.2,180.7C1490.8,180.7 1492.3,180.5 1492.3,180.5L1492.3,191.5C1492.3,191.5 1490.1,191.9 1487.8,191.9C1480.2,191.9 1466.9,189.6 1466.9,169.8L1466.9,64.6Z" style="fill:white;fill-rule:nonzero;"/>
        <path d="M1517.5,111.9L1505.6,111.9L1505.6,101.6L1517.7,101.6L1517.7,75.6L1529.8,75.6L1529.8,101.7L1552.5,101.7L1552.5,112L1529.8,112L1529.8,157C1529.8,178.2 1543.3,180.9 1550.1,180.9C1552.6,180.9 1554.2,180.5 1554.2,180.5L1554.2,191.5C1554.2,191.5 1552.2,191.9 1549,191.9C1538.6,191.9 1517.5,188.5 1517.5,158.2L1517.5,111.9Z" style="fill:white;fill-rule:nonzero;"/>
        <path d="M1576.2,64.6L1588.4,64.6L1588.4,113.6C1588.4,117.7 1588,121 1588,121L1588.4,121C1591.8,112.4 1603.9,98.5 1624.4,98.5C1646.7,98.5 1654.6,111.3 1654.6,133.6L1654.6,191.2L1642.4,191.2L1642.4,136.8C1642.4,122.6 1640.2,110 1622.8,110C1607.3,110 1594,120.6 1589.9,135.7C1588.8,139.3 1588.5,143.4 1588.5,147.8L1588.5,191.2L1576.3,191.2L1576.2,64.6Z" style="fill:white;fill-rule:nonzero;"/>
    </g>
</svg>
