<svg xmlns="http://www.w3.org/2000/svg" xmlns:xlink="http://www.w3.org/1999/xlink" viewBox="0 0 402.45 67.15"><defs><style>.cls-1{fill:url(#linear-gradient);}.cls-2{fill:url(#linear-gradient-2);}.cls-3{fill:url(#linear-gradient-3);}.cls-4{fill:url(#linear-gradient-4);}.cls-5{fill:url(#linear-gradient-5);}.cls-6{fill:url(#linear-gradient-6);}.cls-7{fill:url(#linear-gradient-7);}.cls-8{fill:url(#linear-gradient-8);}.cls-9{fill:url(#linear-gradient-9);}.cls-10{fill:url(#linear-gradient-10);}.cls-11{fill:url(#linear-gradient-11);}.cls-12{fill:#414142;}</style><linearGradient id="linear-gradient" x1="5246.9" y1="3590.73" x2="5256" y2="3593.21" gradientTransform="matrix(0.71, 0.7, -0.7, 0.71, -1168.2, -6214.82)" gradientUnits="userSpaceOnUse"><stop offset="0.01" stop-color="#f7ed41"/><stop offset="0.06" stop-color="#f8de3c"/><stop offset="0.21" stop-color="#f3b23a"/><stop offset="0.37" stop-color="#f28f39"/><stop offset="0.53" stop-color="#f07339"/><stop offset="0.69" stop-color="#ee5e39"/><stop offset="0.84" stop-color="#ed543a"/><stop offset="1" stop-color="#ee503a"/></linearGradient><linearGradient id="linear-gradient-2" x1="3664.09" y1="-2891.41" x2="3668.45" y2="-2890.21" gradientTransform="matrix(-0.68, -0.73, 0.73, -0.68, 4614.8, 726.72)" xlink:href="#linear-gradient"/><linearGradient id="linear-gradient-3" x1="7760.41" y1="927.9" x2="7764.79" y2="929.09" gradientTransform="matrix(-0.68, 0.73, 0.73, 0.68, 4613.45, -6252.81)" xlink:href="#linear-gradient"/><linearGradient id="linear-gradient-4" x1="1261.51" y1="-291.48" x2="1265.88" y2="-290.29" gradientTransform="matrix(0.68, -0.73, -0.73, -0.68, -1008.69, 730.23)" xlink:href="#linear-gradient"/><linearGradient id="linear-gradient-5" x1="5359.24" y1="3526.94" x2="5363.61" y2="3528.13" gradientTransform="matrix(0.68, 0.73, -0.73, 0.68, -1008.69, -6252.81)" xlink:href="#linear-gradient"/><linearGradient id="linear-gradient-6" x1="26.58" y1="1018.93" x2="40.53" y2="1043.09" gradientTransform="translate(0 -998)" xlink:href="#linear-gradient"/><linearGradient id="linear-gradient-7" x1="19.83" y1="1007.22" x2="47.29" y2="1054.79" gradientTransform="translate(0 -998)" xlink:href="#linear-gradient"/><linearGradient id="linear-gradient-8" x1="29.82" y1="998.86" x2="37.23" y2="1011.72" gradientTransform="translate(0 -998)" xlink:href="#linear-gradient"/><linearGradient id="linear-gradient-9" x1="700.5" y1="-9775.74" x2="690.84" y2="-9770.16" gradientTransform="translate(9780.22 729.19) rotate(-90)" xlink:href="#linear-gradient"/><linearGradient id="linear-gradient-10" x1="11477.61" y1="-9104.35" x2="11470.19" y2="-9117.21" gradientTransform="translate(11507.41 -9051.03) rotate(180)" xlink:href="#linear-gradient"/><linearGradient id="linear-gradient-11" x1="10806.91" y1="1670.22" x2="10816.57" y2="1664.64" gradientTransform="translate(1727.19 -10778.23) rotate(90)" xlink:href="#linear-gradient"/></defs><title>evolve-vm-logo</title><g id="Layer_2" data-name="Layer 2"><g id="white-color-vm"><g id="white-color-vm-2" data-name="white-color-vm"><g id="Layer_1-2" data-name="Layer 1-2"><circle class="cls-1" cx="33.52" cy="33.05" r="4.77"/><circle class="cls-2" cx="2.33" cy="2.21" r="2.21"/><circle class="cls-3" cx="2.33" cy="64.94" r="2.21"/><circle class="cls-4" cx="64.71" cy="2.21" r="2.21"/><circle class="cls-5" cx="64.71" cy="64.94" r="2.21"/><path class="cls-6" d="M47.48,32.12a14.46,14.46,0,0,0-3.37-8.26,6.75,6.75,0,0,0-1.28-1.28,13.76,13.76,0,0,0-8.26-3.38H32.7a14.54,14.54,0,0,0-8.26,3.38,6.47,6.47,0,0,0-1.28,1.28,13.69,13.69,0,0,0-3.37,8.26V34A13.62,13.62,0,0,0,23,42.25a7.05,7.05,0,0,0,1.28,1.28,13.69,13.69,0,0,0,8.27,3.37h1.86a14.43,14.43,0,0,0,8.26-3.37A6.75,6.75,0,0,0,44,42.25,13.76,13.76,0,0,0,47.37,34v-.93A2.7,2.7,0,0,0,47.48,32.12Zm-14,13a12.11,12.11,0,1,1,12.1-12.11A12.1,12.1,0,0,1,33.52,45.16Z"/><path class="cls-7" d="M61,31.31h0A27.19,27.19,0,0,0,54.23,15a25.78,25.78,0,0,0-2.56-2.56A27.71,27.71,0,0,0,35.85,5.7h-.47c-.58,0-1.16-.11-1.75-.11a9.25,9.25,0,0,0-1.74.11h-.47A27.58,27.58,0,0,0,12.92,15a26.6,26.6,0,0,0-6.75,16.3h0c0,.58-.12,1.16-.12,1.74a8.59,8.59,0,0,0,.12,1.75l.11.93A27.56,27.56,0,0,0,13,51.21a27,27,0,0,0,2.57,2.56,27.72,27.72,0,0,0,15.94,6.75H32a18,18,0,0,0,3.6,0h.47a27,27,0,0,0,15.83-6.75,28.11,28.11,0,0,0,2.56-2.56,27.14,27.14,0,0,0,6.75-15.48c0-.35.11-.58.11-.93,0-.58.12-1.17.12-1.75S61,31.89,61,31.31ZM35.73,56.79a13.65,13.65,0,0,1-2.21.12,13.65,13.65,0,0,1-2.21-.12A23.9,23.9,0,0,1,9.78,35.73a20,20,0,0,1-.12-2.68,8.49,8.49,0,0,1,.12-1.74,23.91,23.91,0,0,1,21.64-22,13.71,13.71,0,0,1,2.21-.12,13,13,0,0,1,2.22.12,23.9,23.9,0,0,1,21.53,22c0,.58.11,1.16.11,1.74a21.84,21.84,0,0,1-.11,2.68A24.13,24.13,0,0,1,35.73,56.79Z"/><rect class="cls-8" x="31.31" width="4.42" height="14.55"/><rect class="cls-9" y="31.31" width="14.55" height="4.42"/><rect class="cls-10" x="31.31" y="52.49" width="4.42" height="14.55"/><rect class="cls-11" x="52.49" y="31.31" width="14.55" height="4.42"/></g><path class="cls-12" d="M97.41,9.43h26.77v4.19H102.07V31h18v4.19h-18V52.84h23.39V57h-28Z"/><path class="cls-12" d="M129.07,22.93H134l9.42,25C144,49.7,144.55,52,144.55,52h.11s.59-2.32,1.17-4.07l9.42-25H160L147,57h-5Z"/><path class="cls-12" d="M182.14,22.11c10,0,18,7.57,18,17.69a18,18,0,0,1-36.08,0C164.1,29.68,172.13,22.11,182.14,22.11Zm0,31.54c7.33,0,13.27-5.93,13.27-13.85a13.27,13.27,0,1,0-26.54,0C168.87,47.72,174.81,53.65,182.14,53.65Z"/><path class="cls-12" d="M208.44,9.43h4.66V48c0,4.42,2,5.12,3.84,5.12A6.56,6.56,0,0,0,218.1,53V57a14.53,14.53,0,0,1-1.74.11c-2.8,0-7.8-.93-7.8-8.38V9.43Z"/><path class="cls-12" d="M220.78,22.93h4.89l9.42,25c.59,1.75,1.17,4.07,1.17,4.07h.11S237,49.7,237.54,48l9.42-25h4.78L238.7,57h-5Z"/><path class="cls-12" d="M272.69,22.11c9.42,0,14.19,7.22,14.19,15.71,0,.82-.11,2.33-.11,2.33H260.58c.23,8.73,6.17,13.5,13.15,13.5a15.75,15.75,0,0,0,10.36-4.07l2.1,3.49a19.26,19.26,0,0,1-12.57,4.77c-10.13,0-17.81-7.33-17.81-17.8C255.93,28.86,263.49,22.11,272.69,22.11Zm9.65,14.32c-.23-7.1-4.65-10.48-9.65-10.48-5.71,0-10.6,3.61-11.76,10.48Z"/><path class="cls-12" d="M309.23,9.43h5l13.15,36.19c.94,2.45,1.87,6.17,1.87,6.17h.11s.93-3.72,1.87-6.17L344.38,9.43h5L331.81,57h-4.89Z"/><path class="cls-12" d="M359.27,9.43h4.89l12.46,27.93c1,2.44,2.32,5.82,2.32,5.82h.12s1.28-3.38,2.33-5.82L393.84,9.43h4.77L402.45,57H397.8l-2.68-33.4C394.89,21.07,395,17,395,17h-.11s-1.4,4.19-2.56,6.64L381.15,48.07h-4.42L365.56,23.63c-1.05-2.33-2.56-6.75-2.56-6.75h-.12s.12,4.19-.11,6.75l-2.68,33.28h-4.66Z"/></g></g></g></svg>