<?xml version="1.0" encoding="UTF-8" standalone="no"?>
<!DOCTYPE svg PUBLIC "-//W3C//DTD SVG 1.1//EN" "http://www.w3.org/Graphics/SVG/1.1/DTD/svg11.dtd">
<svg width="100%" height="100%" viewBox="0 0 403 68" version="1.1" xmlns="http://www.w3.org/2000/svg" xmlns:xlink="http://www.w3.org/1999/xlink" xml:space="preserve" xmlns:serif="http://www.serif.com/" style="fill-rule:evenodd;clip-rule:evenodd;stroke-linejoin:round;stroke-miterlimit:2;">
    <g>
        <g id="white-color-vm">
            <g id="white-color-vm-2">
                <path d="M90.4,9.4L117.2,9.4L117.2,13.6L95.1,13.6L95.1,31L113.1,31L113.1,35.2L95.1,35.2L95.1,52.9L118.5,52.9L118.5,57L90.5,57L90.4,9.4Z" style="fill:white;fill-rule:nonzero;"/>
                <path d="M122.1,22.9L127,22.9L136.4,47.9C137,49.7 137.5,52 137.5,52L137.6,52C137.6,52 138.2,49.7 138.8,47.9L148.2,22.9L153,22.9L140,57L135,57L122.1,22.9Z" style="fill:white;fill-rule:nonzero;"/>
                <path d="M175.1,22.1C185.1,22.1 193.1,29.7 193.1,39.8C193.1,49.8 185,57.8 175.1,57.8C165.1,57.8 157.1,49.7 157.1,39.8C157.1,29.7 165.1,22.1 175.1,22.1ZM175.1,53.7C182.4,53.7 188.4,47.8 188.4,39.9C188.4,32.6 182.5,26.6 175.1,26.6C167.7,26.6 161.8,32.5 161.8,39.9C161.9,47.7 167.8,53.7 175.1,53.7Z" style="fill:white;fill-rule:nonzero;"/>
                <path d="M201.4,9.4L206.1,9.4L206.1,48C206.1,52.4 208.1,53.1 209.9,53.1C210.3,53.1 210.7,53.1 211.1,53L211.1,57C210.5,57.1 209.9,57.1 209.4,57.1C206.6,57.1 201.6,56.2 201.6,48.7L201.6,9.4L201.4,9.4Z" style="fill:white;fill-rule:nonzero;"/>
                <path d="M213.8,22.9L218.7,22.9L228.1,47.9C228.7,49.7 229.3,52 229.3,52L229.4,52C229.4,52 230,49.7 230.6,48L240,23L244.8,23L231.8,57L226.8,57L213.8,22.9Z" style="fill:white;fill-rule:nonzero;"/>
                <path d="M265.7,22.1C275.1,22.1 279.9,29.3 279.9,37.8C279.9,38.6 279.8,40.1 279.8,40.1L253.6,40.1C253.8,48.8 259.8,53.6 266.7,53.6C270.5,53.5 274.2,52.1 277.1,49.5L279.2,53C275.7,56 271.3,57.7 266.6,57.8C256.5,57.8 248.8,50.5 248.8,40C248.9,28.9 256.5,22.1 265.7,22.1ZM275.3,36.4C275.1,29.3 270.7,25.9 265.7,25.9C260,25.9 255.1,29.5 253.9,36.4L275.3,36.4Z" style="fill:white;fill-rule:nonzero;"/>
                <path d="M302.2,9.4L307.2,9.4L320.3,45.6C321.2,48.1 322.2,51.8 322.2,51.8L322.3,51.8C322.3,51.8 323.2,48.1 324.2,45.6L337.4,9.4L342.4,9.4L324.8,57L319.9,57L302.2,9.4Z" style="fill:white;fill-rule:nonzero;"/>
                <path d="M352.3,9.4L357.2,9.4L369.7,37.3C370.7,39.7 372,43.1 372,43.1L372.1,43.1C372.1,43.1 373.4,39.7 374.4,37.3L386.9,9.4L391.7,9.4L395.5,57L390.8,57L388.1,23.6C387.9,21.1 388,17 388,17L387.9,17C387.9,17 386.5,21.2 385.3,23.6L374.1,48L369.7,48L358.5,23.6C357.5,21.3 355.9,16.8 355.9,16.8L355.8,16.8C355.8,16.8 355.9,21 355.7,23.6L353,56.9L348.3,56.9L352.3,9.4Z" style="fill:white;fill-rule:nonzero;"/>
                <g>
                    <path d="M37.3,46.4C44.4,46.4 50.2,40.6 50.2,33.5C50.2,26.4 44.4,20.6 37.3,20.6C30.2,20.6 24.4,26.4 24.4,33.5C24.4,40.6 30.2,46.4 37.3,46.4ZM37.2,22.5C43.3,22.5 48.2,27.4 48.2,33.5C48.2,39.6 43.3,44.5 37.2,44.5C31.1,44.5 26.2,39.6 26.2,33.5C26.2,27.4 31.1,22.5 37.2,22.5Z" style="fill:white;fill-rule:nonzero;"/>
                    <circle cx="37.4" cy="33.3" r="4.3" style="fill:white;"/>
                    <circle cx="8.9" cy="5.2" r="2" style="fill:white;"/>
                    <circle cx="8.9" cy="62.3" r="2" style="fill:white;"/>
                    <circle cx="65.8" cy="5.2" r="2" style="fill:white;"/>
                    <circle cx="65.8" cy="62.3" r="2" style="fill:white;"/>
                    <path d="M62.5,31.8C62.1,26.2 60,21 56.3,16.9C55.6,16.1 54.8,15.3 53.9,14.5C49.9,11 44.8,8.8 39.4,8.3L39,8.3C38.5,8.3 37.9,8.2 37.4,8.2C36.9,8.2 36.3,8.2 35.8,8.3L35.4,8.3C30,8.7 24.9,10.9 20.8,14.5C15.8,18.9 12.7,25.1 12.3,31.7C12.3,32.2 12.2,32.8 12.2,33.3C12.2,33.8 12.2,34.4 12.3,34.9L12.4,35.7C13,41 15.2,46 18.6,49.9C19.3,50.7 20.1,51.5 21,52.3C25.1,55.9 30.2,58 35.6,58.5L36,58.5C37.1,58.6 38.2,58.6 39.3,58.5L39.7,58.5C45.1,58.1 50.1,55.9 54.2,52.3C55,51.6 55.8,50.8 56.5,50C60,46 62.1,41 62.6,35.8C62.6,35.5 62.7,35.3 62.7,35C62.7,34.5 62.8,33.9 62.8,33.4C62.8,32.9 62.5,32.3 62.5,31.8ZM39.5,54.9C38.8,55 38.2,55 37.5,55C36.8,55 36.2,55 35.5,54.9C25.2,53.9 17.1,45.9 15.9,35.7C15.8,34.9 15.8,34.1 15.8,33.2C15.8,32.7 15.8,32.1 15.9,31.6C16.7,21 25.1,12.6 35.6,11.6C36.3,11.5 36.9,11.5 37.6,11.5C38.3,11.5 38.9,11.5 39.6,11.6C50.2,12.6 58.4,21.1 59.2,31.6C59.2,32.1 59.3,32.7 59.3,33.2C59.3,34 59.3,34.8 59.2,35.7C57.9,46 49.7,53.9 39.5,54.9Z" style="fill:white;fill-rule:nonzero;"/>
                    <rect x="35.4" y="3" width="4.1" height="13.1" style="fill:white;"/>
                    <rect x="7" y="31.8" width="13.1" height="4.1" style="fill:white;"/>
                    <rect x="35.4" y="51.1" width="4.1" height="13.1" style="fill:white;"/>
                    <rect x="54.7" y="31.8" width="13.1" height="4.1" style="fill:white;"/>
                </g>
            </g>
        </g>
    </g>
</svg>
