<svg xmlns="http://www.w3.org/2000/svg" viewBox="0 0 1719.43 270.03"><defs><style>.green-planet-logo-white-cls-1{fill:#fff;}</style></defs><title>green-planet-logo-white</title><g id="Layer_2" data-name="Layer 2"><g id="Layer_1-2" data-name="Layer 1"><path class="green-planet-logo-white-cls-1" d="M52.17,116.69,82.84,86A7.23,7.23,0,1,0,72.62,75.8L42,106.47a7.23,7.23,0,0,0,10.22,10.22Z"/><path class="green-planet-logo-white-cls-1" d="M72.62,116.69a7.23,7.23,0,0,0,10.22,0l46-46a7.23,7.23,0,0,0-10.22-10.22l-46,46A7.23,7.23,0,0,0,72.62,116.69Z"/><path class="green-planet-logo-white-cls-1" d="M88,70.69a7.23,7.23,0,0,0,10.22,0h0a7.23,7.23,0,1,0-10.22,0Z"/><path class="green-planet-logo-white-cls-1" d="M57.28,172.92a7.23,7.23,0,1,0-10.22,0h0a7.23,7.23,0,0,0,10.22,0Z"/><path class="green-planet-logo-white-cls-1" d="M52.17,147.36,67.51,132A7.23,7.23,0,0,0,57.28,121.8L42,137.14a7.23,7.23,0,0,0,10.22,10.22Z"/><path class="green-planet-logo-white-cls-1" d="M128.85,91.13h0a7.23,7.23,0,0,0,10.22,0L154.4,75.8a7.23,7.23,0,1,0-10.22-10.22L128.85,80.91A7.23,7.23,0,0,0,128.85,91.13Z"/><path class="green-planet-logo-white-cls-1" d="M123.73,96.24a7.23,7.23,0,0,0-10.22,0L62.4,147.36a7.23,7.23,0,1,0,10.22,10.22l51.11-51.11A7.23,7.23,0,0,0,123.73,96.24Z"/><path class="green-planet-logo-white-cls-1" d="M190.18,152.47h0a7.23,7.23,0,0,0-10.22,0l-30.67,30.67a7.23,7.23,0,0,0,0,10.22h0a7.23,7.23,0,0,0,10.22,0l30.67-30.67A7.23,7.23,0,0,0,190.18,152.47Z"/><path class="green-planet-logo-white-cls-1" d="M159.51,152.47h0a7.23,7.23,0,0,0-10.22,0l-46,46a7.23,7.23,0,1,0,10.22,10.22l46-46A7.23,7.23,0,0,0,159.51,152.47Z"/><circle class="green-planet-logo-white-cls-1" cx="139.07" cy="203.59" r="7.23" transform="translate(-103.23 157.97) rotate(-45)"/><path class="green-planet-logo-white-cls-1" d="M174.85,106.47a7.23,7.23,0,0,0,10.22,0h0a7.23,7.23,0,0,0,0-10.22h0a7.23,7.23,0,0,0-10.22,10.22Z"/><path class="green-planet-logo-white-cls-1" d="M180,121.8l-15.33,15.33a7.23,7.23,0,0,0,0,10.22h0a7.23,7.23,0,0,0,10.22,0L190.18,132A7.23,7.23,0,0,0,180,121.8Z"/><path class="green-planet-logo-white-cls-1" d="M103.29,178a7.23,7.23,0,0,0-10.22,0L77.73,193.36A7.23,7.23,0,0,0,88,203.59l15.33-15.33A7.23,7.23,0,0,0,103.29,178Z"/><path class="green-planet-logo-white-cls-1" d="M118.62,172.92l51.11-51.11a7.23,7.23,0,0,0,0-10.22h0a7.23,7.23,0,0,0-10.22,0L108.4,162.69a7.23,7.23,0,0,0,0,10.22h0A7.23,7.23,0,0,0,118.62,172.92Z"/><path class="green-planet-logo-white-cls-1" d="M93.06,157.58a7.23,7.23,0,0,0-10.22,0L57.28,183.14a7.23,7.23,0,0,0,0,10.22h0a7.23,7.23,0,0,0,10.22,0l25.56-25.56A7.23,7.23,0,0,0,93.06,157.58Z"/><path class="green-planet-logo-white-cls-1" d="M98.18,152.47h0a7.23,7.23,0,0,0,10.22,0L174.85,86A7.23,7.23,0,1,0,164.63,75.8L98.18,142.25A7.23,7.23,0,0,0,98.18,152.47Z"/><path class="green-planet-logo-white-cls-1" d="M222.66,189.73V80.3a11.84,11.84,0,1,0-11.42-19.24L127.39,15.32a11.84,11.84,0,1,0-22.65,0L20.89,61.06A11.84,11.84,0,1,0,9.47,80.3V189.73A11.84,11.84,0,1,0,20.89,209l83.85,45.74a11.84,11.84,0,1,0,22.65,0L211.24,209a11.84,11.84,0,1,0,11.42-19.24Zm-97.54,60.82a11.83,11.83,0,0,0-6.68-4V220.29a2.37,2.37,0,1,0-4.74,0v26.29a11.83,11.83,0,0,0-6.68,4L23.17,204.82a11.77,11.77,0,0,0-.27-7.7l18.64-11.86a2.37,2.37,0,0,0-2.54-4L20.35,193.12a11.82,11.82,0,0,0-6.14-3.38V80.3a11.81,11.81,0,0,0,6.14-3.38L39,88.78a2.37,2.37,0,1,0,2.54-4L22.9,72.92a11.77,11.77,0,0,0,.27-7.7L107,19.48a11.83,11.83,0,0,0,6.68,4V49.74a2.37,2.37,0,1,0,4.74,0V23.45a11.83,11.83,0,0,0,6.68-4L209,65.22a11.77,11.77,0,0,0,.27,7.7L190.59,84.78a2.37,2.37,0,0,0,2.54,4l18.64-11.86a11.81,11.81,0,0,0,6.14,3.38V189.73a11.81,11.81,0,0,0-6.14,3.38l-18.64-11.86a2.37,2.37,0,0,0-2.54,4l18.64,11.86a11.77,11.77,0,0,0-.27,7.7Z"/><path class="green-planet-logo-white-cls-1" d="M427,49.32c38.43,0,58.94,19.33,58.94,19.33l-8.72,12.26s-19.33-16.5-49.51-16.5c-40.08,0-67.19,30.88-67.19,70.25,0,40.78,28.05,71,65.77,71,32.3,0,52.1-24.28,52.1-24.28V153.29H450.05V138.67H493.9v79.21H478.82V205.39c0-3.54.24-7.07.24-7.07h-.47s-19.1,22.4-54,22.4c-45.26,0-81.1-36.54-81.1-85.81C343.5,87,379.33,49.32,427,49.32Z"/><path class="green-planet-logo-white-cls-1" d="M528.54,99.3h15.8v21c0,5.19-.47,9.43-.47,9.43h.47C550,111.8,563.2,98.12,581.82,98.12a32.1,32.1,0,0,1,6.37.71v15.79a40.72,40.72,0,0,0-5.89-.47c-16.74,0-29.23,13.2-34.42,30.65a78.22,78.22,0,0,0-3.3,23.1v50h-16Z"/><path class="green-planet-logo-white-cls-1" d="M661.26,96.47c32.77,0,49.51,25.22,49.51,54.69,0,2.83-.47,8.25-.47,8.25h-91c.71,30.41,21.45,46.91,46,46.91,21.69,0,36.07-14.38,36.07-14.38l7.31,12.26a68,68,0,0,1-43.85,16.5c-35.36,0-62-25.46-62-62C602.79,119.81,629.2,96.47,661.26,96.47Zm33.24,49.74c-.94-24.75-16-36.31-33.71-36.31-19.8,0-37,12.49-40.78,36.31Z"/><path class="green-planet-logo-white-cls-1" d="M791.62,96.47c32.77,0,49.51,25.22,49.51,54.69,0,2.83-.47,8.25-.47,8.25h-91c.71,30.41,21.45,46.91,46,46.91,21.69,0,36.07-14.38,36.07-14.38L839,204.21a68,68,0,0,1-43.85,16.5c-35.36,0-62-25.46-62-62C733.15,119.81,759.56,96.47,791.62,96.47Zm33.24,49.74c-.94-24.75-16-36.31-33.71-36.31-19.8,0-37,12.49-40.78,36.31Z"/><path class="green-planet-logo-white-cls-1" d="M871.76,99.3h15.8V117c0,5.19-.47,9.43-.47,9.43h.47c4.24-10.85,19.33-29.94,47.39-29.94,29.23,0,39.61,16.74,39.61,46v75.44h-16v-71.2c0-18.62-2.83-35.13-25.7-35.13-20.27,0-37.72,13.91-43.14,33.48a58.61,58.61,0,0,0-1.89,16v56.82h-16Z"/><path class="green-planet-logo-white-cls-1" d="M1079.67,52.15H1137c29.71,0,51.16,19.33,51.16,50,0,30.89-21.45,50.69-51.16,50.69h-41v65.07h-16.27Zm55.17,86c22.16,0,36.54-13.44,36.54-36.07,0-22.39-14.38-35.36-36.31-35.36h-39.13V138.2Z"/><path class="green-planet-logo-white-cls-1" d="M1214.74,52.15h16V186.29c0,15.56,7.08,17.91,13.2,17.91a36.76,36.76,0,0,0,4-.23v14.38a40.44,40.44,0,0,1-5.89.47c-9.9,0-27.35-3.07-27.35-29Z"/><path class="green-planet-logo-white-cls-1" d="M1337.08,144.57h6.6V141.5c0-22.87-12.49-30.65-29.47-30.65a57.74,57.74,0,0,0-33.48,11.32l-7.55-12.26s15.56-13.44,42.2-13.44c28.53,0,44.32,15.79,44.32,45.5v75.91h-15.32v-13a93.37,93.37,0,0,1,.47-9.9h-.47s-9.9,25.7-39.6,25.7c-19.8,0-40.31-11.55-40.31-35.13C1264.47,145.51,1316.57,144.57,1337.08,144.57ZM1307.38,207c22.63,0,36.31-23.57,36.31-44.08v-5.19h-6.84c-18.62,0-55.87.71-55.87,26.87C1281,195.72,1289.7,207,1307.38,207Z"/><path class="green-planet-logo-white-cls-1" d="M1396.72,99.3h15.79V117c0,5.19-.47,9.43-.47,9.43h.47c4.25-10.85,19.33-29.94,47.39-29.94,29.23,0,39.6,16.74,39.6,46v75.44h-16v-71.2c0-18.62-2.83-35.13-25.7-35.13-20.27,0-37.72,13.91-43.14,33.48a58.67,58.67,0,0,0-1.89,16v56.82h-16Z"/><path class="green-planet-logo-white-cls-1" d="M1586.72,96.47c32.77,0,49.51,25.22,49.51,54.69,0,2.83-.47,8.25-.47,8.25h-91c.71,30.41,21.45,46.91,46,46.91,21.69,0,36.07-14.38,36.07-14.38l7.31,12.26a68,68,0,0,1-43.85,16.5c-35.37,0-62-25.46-62-62C1528.25,119.81,1554.66,96.47,1586.72,96.47ZM1620,146.21c-.94-24.75-16-36.31-33.71-36.31-19.8,0-37,12.49-40.78,36.31Z"/><path class="green-planet-logo-white-cls-1" d="M1671.34,114.15h-15.56V100.71h15.79V66.53h15.79v34.18h29.71v13.44h-29.71v58.94c0,27.82,17.68,31.36,26.64,31.36a27.63,27.63,0,0,0,5.42-.47v14.38a42,42,0,0,1-6.84.47c-13.67,0-41.26-4.48-41.26-44.08Z"/></g></g></svg>