<?xml version="1.0" encoding="UTF-8"?>
<svg width="70px" height="64px" viewBox="0 0 70 64" version="1.1" xmlns="http://www.w3.org/2000/svg" xmlns:xlink="http://www.w3.org/1999/xlink">
    <title>Group</title>
    <defs>
        <path d="M69.5384615,21.0384615 C69.5384615,20.1211538 69.175,19.2413462 68.5259615,18.5894231 C67.8740385,17.9403846 66.9942308,17.5769231 66.0769231,17.5769231 L47.0384615,17.5769231 C46.1211538,17.5769231 45.2413462,17.9403846 44.5894231,18.5894231 C43.9403846,19.2413462 43.5769231,20.1211538 43.5769231,21.0384615 L43.5769231,60.2692308 C43.5769231,61.1865385 43.9403846,62.0663462 44.5894231,62.7182692 C45.2413462,63.3673077 46.1211538,63.7307692 47.0384615,63.7307692 L66.0769231,63.7307692 C66.9942308,63.7307692 67.8740385,63.3673077 68.5259615,62.7182692 C69.175,62.0663462 69.5384615,61.1865385 69.5384615,60.2692308 L69.5384615,21.0384615 L69.5384615,21.0384615 Z M37.8076923,63.7307692 L14.7307692,63.7307692 L22.2278846,55.0769231 L37.8076923,55.0769231 L37.8076923,63.7307692 Z M56.5576923,60.8461538 C54.9625,60.8461538 53.6730769,59.5538462 53.6730769,57.9615385 C53.6730769,56.3692308 54.9625,55.0769231 56.5576923,55.0769231 C58.15,55.0769231 59.4394231,56.3692308 59.4394231,57.9615385 C59.4394231,59.5538462 58.15,60.8461538 56.5576923,60.8461538 Z M66.6538462,52.1923077 L66.6538462,26.1615385 L46.4615385,26.1615385 L46.4615385,52.1923077 L66.6538462,52.1923077 Z M60.8846154,11.8076923 L55.1153846,11.8076923 L55.1153846,6.03846154 L6.07692308,6.03846154 L6.07692308,43.5384615 L37.8076923,43.5384615 L37.8076923,49.3076923 L0.307692308,49.3076923 L0.307692308,0.269230769 L60.8846154,0.269230769 L60.8846154,11.8076923 Z M59.4423077,23.3461538 C60.2384615,23.3461538 60.8846154,22.7 60.8846154,21.9038462 C60.8846154,21.1076923 60.2384615,20.4615385 59.4423077,20.4615385 L53.6730769,20.4615385 C52.8769231,20.4615385 52.2307692,21.1076923 52.2307692,21.9038462 C52.2307692,22.7 52.8769231,23.3461538 53.6730769,23.3461538 L59.4423077,23.3461538 Z" id="path-1"></path>
        <linearGradient x1="11.3657014%" y1="85.7988166%" x2="100%" y2="14.2011834%" id="linearGradient-3">
            <stop stop-color="#012748" offset="0%"></stop>
            <stop stop-color="#265696" offset="100%"></stop>
        </linearGradient>
    </defs>
    <g id="Page-1" stroke="none" stroke-width="1" fill="none" fill-rule="evenodd">
        <g id="Product-(Onesite-Cloud)-Page" transform="translate(-1241.000000, -1308.000000)">
            <g id="Group-10" transform="translate(200.000000, 1305.000000)">
                <g id="Group-11" transform="translate(951.000000, 3.000000)">
                    <g id="Group" transform="translate(90.000000, 0.000000)">
                        <mask id="mask-2" fill="white">
                            <use xlink:href="#path-1"></use>
                        </mask>
                        <use id="Shape" fill="#000000" xlink:href="#path-1"></use>
                        <rect id="Rectangle-Copy-8" fill="url(#linearGradient-3)" mask="url(#mask-2)" x="-17.0769231" y="-12" width="104" height="88"></rect>
                        <path d="M69.5384615,21.0384615 C69.5384615,20.1211538 69.175,19.2413462 68.5259615,18.5894231 C67.8740385,17.9403846 66.9942308,17.5769231 66.0769231,17.5769231 L47.0384615,17.5769231 C46.1211538,17.5769231 45.2413462,17.9403846 44.5894231,18.5894231 C43.9403846,19.2413462 43.5769231,20.1211538 43.5769231,21.0384615 L43.5769231,60.2692308 C43.5769231,61.1865385 43.9403846,62.0663462 44.5894231,62.7182692 C45.2413462,63.3673077 46.1211538,63.7307692 47.0384615,63.7307692 L66.0769231,63.7307692 C66.9942308,63.7307692 67.8740385,63.3673077 68.5259615,62.7182692 C69.175,62.0663462 69.5384615,61.1865385 69.5384615,60.2692308 L69.5384615,21.0384615 L69.5384615,21.0384615 Z" id="Path" fill="#84B4F1" mask="url(#mask-2)"></path>
                    </g>
                </g>
            </g>
        </g>
    </g>
</svg>