<?xml version="1.0" encoding="UTF-8"?>
<svg width="71" height="70" viewBox="0 0 71 70" xmlns="http://www.w3.org/2000/svg" xmlns:xlink="http://www.w3.org/1999/xlink">
  <defs>
    <linearGradient x1="11.3657014%" y1="85.7988166%" x2="100%" y2="14.2011834%" id="b">
      <stop stop-color="#012748" offset="0%"/>
      <stop stop-color="#265696" offset="100%"/>
    </linearGradient>
    <path d="M57.6923077 8.65384615C57.6923077 3.87403846 53.8153846 0 49.0384615 0c-4.776923 0-8.6538461 3.87403846-8.6538461 8.65384615 0 .9.1759615 1.74807695.4298077 2.56442305L28.6701923 20.325c1.3644231 1.3586538 2.5326923 2.9134615 3.4644231 4.6125l12.1067308-9.0807692c1.3759615.9115384 3.0230769 1.4509615 4.7971153 1.4509615 4.7769231 0 8.6538462-3.8740385 8.6538462-8.65384615zm-5.7692308 0c0 1.58942305-1.2923077 2.88461535-2.8846154 2.88461535-1.5923077 0-2.8846153-1.2951923-2.8846153-2.88461535 0-1.58942307 1.2923076-2.88461538 2.8846153-2.88461538s2.8846154 1.29519231 2.8846154 2.88461538zm8.6538462 34.79423075c4.7769231 0 8.6538461-3.8740384 8.6538461-8.6538461 0-4.7798077-3.876923-8.6538462-8.6538461-8.6538462-3.6951923 0-6.8278846 2.3278846-8.0682693 5.5903846H34.3846154c.1355769.9461539.2307692 1.9038462.2307692 2.8846154 0 .9807692-.0951923 1.9384616-.2307692 2.8846154h18.0115384c1.1423077 3.4471154 4.3528847 5.9480769 8.1807693 5.9480769zm-2.8846154-8.6538461c0-1.5894231 1.2923077-2.8846154 2.8846154-2.8846154 1.5923077 0 2.8846154 1.2951923 2.8846154 2.8846154 0 1.589423-1.2923077 2.8846154-2.8846154 2.8846154-1.5923077 0-2.8846154-1.2923077-2.8846154-2.8846154zM0 34.6153846c0 7.9644231 6.45576923 14.4230769 14.4230769 14.4230769 7.9673077 0 14.4230769-6.4586538 14.4230769-14.4230769s-6.4557692-14.4230769-14.4230769-14.4230769C6.45576923 20.1923077 0 26.6509615 0 34.6153846zm5.76923077 0c0-4.7711538 3.88269231-8.6538461 8.65384613-8.6538461 4.7711539 0 8.6538462 3.8826923 8.6538462 8.6538461 0 4.7711539-3.8826923 8.6538462-8.6538462 8.6538462-4.77115382 0-8.65384613-3.8826923-8.65384613-8.6538462zM28.6701923 48.9086538l12.1442308 9.1067308c-.2538462.8134616-.4298077 1.6615385-.4298077 2.5615385 0 4.7798077 3.8769231 8.6538461 8.6538461 8.6538461 4.7769231 0 8.6538462-3.8740384 8.6538462-8.6538461 0-4.7798077-3.8769231-8.6538462-8.6538462-8.6538462-1.7740384 0-3.4211538.5394231-4.7942307 1.4538462L32.1375 44.2961538c-.9346154 1.6990385-2.1028846 3.2509616-3.4673077 4.6125zm17.4836539 11.6682693c0-1.5894231 1.2923076-2.8846154 2.8846153-2.8846154s2.8846154 1.2951923 2.8846154 2.8846154c0 1.5894231-1.2923077 2.8846154-2.8846154 2.8846154-1.5923077 0-2.8846153-1.2951923-2.8846153-2.8846154z" id="a"/>
  </defs>
  <g transform="translate(.5)" fill="none" fill-rule="evenodd">
    <mask id="c" fill="#fff">
      <use xlink:href="#a"/>
    </mask>
    <use fill="#000" fill-rule="nonzero" xlink:href="#a"/>
    <path fill="url(#b)" mask="url(#c)" d="M-18-8H86v88H-18z"/>
    <path d="M60.5769231 43.4480769c4.7769231 0 8.6538461-3.8740384 8.6538461-8.6538461 0-4.7798077-3.876923-8.6538462-8.6538461-8.6538462-3.6951923 0-6.8278846 2.3278846-8.0682693 5.5903846H34.3846154c.1355769.9461539.2307692 1.9038462.2307692 2.8846154 0 .9807692-.0951923 1.9384616-.2307692 2.8846154h18.0115384c1.1423077 3.4471154 4.3528847 5.9480769 8.1807693 5.9480769z" fill="#84B4F1" fill-rule="nonzero" mask="url(#c)"/>
  </g>
</svg>
