<?xml version="1.0" encoding="UTF-8"?>
<svg width="72px" height="70px" viewBox="0 0 72 70" version="1.1" xmlns="http://www.w3.org/2000/svg" xmlns:xlink="http://www.w3.org/1999/xlink">
    <title>Group</title>
    <defs>
        <path d="M35.0064103,0.384615385 C15.8900641,0.384615385 0.391025641,15.8836538 0.391025641,35 C0.391025641,54.1163462 15.8900641,69.6153846 35.0064103,69.6153846 C54.1227564,69.6153846 69.6217949,54.1163462 69.6217949,35 C69.6217949,15.8836538 54.1227564,0.384615385 35.0064103,0.384615385 Z M51.5352564,58.6048077 C51.2294872,57.0875 50.8544872,55.5875 50.3871795,54.1192308 C52.9746795,51.7798077 52.8679487,47.7817308 50.1794872,45.8028846 C51.8583333,39.1163462 51.9391026,31.8153846 50.1737179,24.7798077 C50.7102564,24.4596154 51.1775641,24.0471154 51.5439103,23.5538462 C55.7727564,24.7423077 59.7102564,26.6288462 63.2323718,29.0663462 C63.6362179,30.9846154 63.8525641,32.9663462 63.8525641,35 C63.8525641,44.7557692 58.9717949,53.3807692 51.5352564,58.6048077 L51.5352564,58.6048077 Z M6.16025641,35 C6.16025641,32.5336538 6.50641026,30.1480769 7.09198718,27.8605769 C9.10833333,27.7336538 11.1102564,27.7451923 13.2852564,27.9528846 L13.400641,28.6048077 C10.7439103,30.8403846 8.3525641,33.3961538 6.22660256,36.3182692 L6.16025641,35 Z M15.3419872,31.5673077 C17.788141,33.4221154 21.350641,32.825 23.0208333,30.1538462 C31.3804487,33.2115385 38.4217949,39.0298077 43.0400641,46.4980769 C40.8304487,48.7336538 40.8592949,52.2615385 43.0948718,54.2721154 C41.1304487,57.8230769 38.6294872,61.0365385 35.7102564,63.8115385 C21.5698718,64.1490385 9.96794872,54.4019231 6.95352564,41.6086538 C9.18044872,37.8125 12.0160256,34.4144231 15.3419872,31.5673077 Z M23.6669872,26.0836538 C29.4102564,23.2740385 35.6525641,21.9528846 41.9092949,22.1115385 C42.7891026,23.8740385 44.5919872,25.2153846 46.7150641,25.475 L46.7323718,25.475 C48.3391026,31.6971154 48.4141026,38.375 46.8160256,44.8019231 L46.1727564,44.8682692 C41.1996795,36.7192308 33.3852564,30.0673077 23.7794872,26.6923077 L23.6669872,26.0836538 L23.6669872,26.0836538 Z M41.1535256,63.1711538 C43.1785256,60.8144231 44.9352564,58.2817308 46.3833333,55.5932692 L47.1621795,55.5701923 C47.6583333,57.1913462 48.050641,58.8557692 48.3391026,60.5576923 C46.0977564,61.7288462 43.6891026,62.6173077 41.1535256,63.1711538 L41.1535256,63.1711538 Z M61.6429487,23.9461538 C58.7323718,22.3307692 55.6544872,21.0557692 52.4439103,20.1644231 C52.1323718,17.2942308 49.4410256,14.9028846 46.3314103,14.9259615 C44.7391026,11.9865385 42.7775641,9.22884615 40.4929487,6.69326923 C50.0727564,8.54519231 57.9766026,15.1451923 61.6429487,23.9461538 Z M42.9737179,16.1346154 C42.2323718,16.7692308 41.6958333,17.6201923 41.4621795,18.6096154 C34.3775641,18.5230769 27.6794872,20.1269231 21.7083333,23.1240385 C19.2564103,21.2836538 15.7371795,21.9096154 14.075641,24.5173077 C11.975641,24.2980769 10.0977564,24.2519231 8.23717949,24.3096154 C12.4948718,13.6855769 22.8794872,6.15384615 35.0064103,6.15384615 L35.0092949,6.15384615 C38.1737179,9.02115385 40.8766026,12.3846154 42.9737179,16.1346154 L42.9737179,16.1346154 Z" id="path-1"></path>
        <linearGradient x1="11.3657014%" y1="85.7988166%" x2="100%" y2="14.2011834%" id="linearGradient-3">
            <stop stop-color="#012748" offset="0%"></stop>
            <stop stop-color="#265696" offset="100%"></stop>
        </linearGradient>
    </defs>
    <g id="Page-1" stroke="none" stroke-width="1" fill="none" fill-rule="evenodd">
        <g id="Product-(Onesite-Cloud)-Page" transform="translate(-965.000000, -1305.000000)">
            <g id="Group-10" transform="translate(200.000000, 1305.000000)">
                <g id="Group-12" transform="translate(677.333333, 0.000000)">
                    <g id="Group" transform="translate(88.500000, 0.000000)">
                        <mask id="mask-2" fill="white">
                            <use xlink:href="#path-1"></use>
                        </mask>
                        <use id="Shape" fill="#000000" fill-rule="nonzero" xlink:href="#path-1"></use>
                        <rect id="Rectangle-Copy-7" fill="url(#linearGradient-3)" mask="url(#mask-2)" x="-16.9935897" y="-9" width="104" height="88"></rect>
                        <path d="M35.0064103,6.06058928 C19.0246207,6.06058928 6.06699953,19.0182104 6.06699953,35 C6.06699953,50.9817896 19.0246207,63.9394107 35.0064103,63.9394107 C50.9881998,63.9394107 63.945821,50.9817896 63.945821,35 C63.945821,19.0182104 50.9881998,6.06058928 35.0064103,6.06058928 Z" id="Path" fill="#84B4F1" fill-rule="nonzero" mask="url(#mask-2)"></path>
                    </g>
                </g>
            </g>
        </g>
    </g>
</svg>