<svg xmlns="http://www.w3.org/2000/svg" viewBox="0 0 540 563.92"><defs><style>.cls-1{fill:#0860b8;}.cls-2{fill:none;stroke:#0860b8;stroke-linecap:round;stroke-linejoin:round;stroke-width:18px;}</style></defs><g id="Layer_2" data-name="Layer 2"><g id="Layer_1-2" data-name="Layer 1"><circle class="cls-1" cx="267.98" cy="279.94" r="62.7"/><circle class="cls-1" cx="267.98" cy="59.48" r="9.61"/><rect class="cls-2" x="264.69" y="91.34" width="6.57" height="66.74"/><circle class="cls-1" cx="137.6" cy="103.16" r="9.61"/><rect class="cls-2" x="172.65" y="122.56" width="6.57" height="66.74" transform="translate(-58.05 133.19) rotate(-36)"/><circle class="cls-1" cx="57.79" cy="215.13" r="9.61"/><rect class="cls-2" x="116.53" y="201.92" width="6.57" height="66.74" transform="translate(-140.98 276.54) rotate(-72)"/><circle class="cls-1" cx="59.04" cy="352.63" r="9.61"/><rect class="cls-2" x="117.78" y="299.1" width="6.57" height="66.74" transform="translate(-157.72 550.36) rotate(-108)"/><circle class="cls-1" cx="140.87" cy="463.14" r="9.61"/><circle class="cls-1" cx="120.34" cy="486.26" r="8.59"/><circle class="cls-1" cx="102.03" cy="503.99" r="3.6"/><circle class="cls-1" cx="269.01" cy="535.21" r="8.59"/><circle class="cls-1" cx="264.62" cy="560.32" r="3.6"/><circle class="cls-1" cx="418.06" cy="487.43" r="8.59"/><circle class="cls-1" cx="429.26" cy="510.32" r="3.6"/><circle class="cls-1" cx="510.55" cy="361.16" r="8.59"/><circle class="cls-1" cx="533.07" cy="373.1" r="3.6"/><circle class="cls-1" cx="511.16" cy="204.64" r="8.59"/><circle class="cls-1" cx="536.4" cy="201.06" r="3.6"/><circle class="cls-1" cx="419.66" cy="77.65" r="8.59"/><circle class="cls-1" cx="437.97" cy="59.93" r="3.6"/><circle class="cls-1" cx="270.99" cy="28.71" r="8.59"/><circle class="cls-1" cx="275.38" cy="3.6" r="3.6"/><circle class="cls-1" cx="121.94" cy="76.49" r="8.59"/><circle class="cls-1" cx="110.74" cy="53.6" r="3.6"/><circle class="cls-1" cx="29.45" cy="202.76" r="8.59"/><circle class="cls-1" cx="6.93" cy="190.82" r="3.6"/><circle class="cls-1" cx="28.84" cy="359.28" r="8.59"/><circle class="cls-1" cx="3.6" cy="362.86" r="3.6"/><rect class="cls-2" x="175.92" y="376.99" width="6.57" height="66.74" transform="translate(82.98 847.69) rotate(-144)"/><circle class="cls-1" cx="272.02" cy="504.44" r="9.61"/><rect class="cls-2" x="268.74" y="405.84" width="6.57" height="66.74" transform="translate(544.05 878.42) rotate(-180)"/><circle class="cls-1" cx="402.4" cy="460.76" r="9.61"/><rect class="cls-2" x="360.78" y="374.62" width="6.57" height="66.74" transform="translate(898.41 524.07) rotate(144)"/><circle class="cls-1" cx="482.21" cy="348.78" r="9.61"/><rect class="cls-2" x="416.89" y="295.26" width="6.57" height="66.74" transform="translate(862.57 30.57) rotate(108)"/><circle class="cls-1" cx="480.96" cy="211.29" r="9.61"/><rect class="cls-2" x="415.64" y="198.07" width="6.57" height="66.74" transform="translate(509.59 -238.5) rotate(72)"/><circle class="cls-1" cx="399.13" cy="100.78" r="9.61"/><rect class="cls-2" x="357.51" y="120.18" width="6.57" height="66.74" transform="translate(159.16 -182.74) rotate(36)"/><circle class="cls-2" cx="267.98" cy="279.94" r="116.29"/></g></g></svg>