<svg xmlns="http://www.w3.org/2000/svg" xmlns:xlink="http://www.w3.org/1999/xlink" viewBox="0 0 961.21 267.5"><defs><style>.cls-1{fill:url(#linear-gradient);}.cls-2{fill:url(#linear-gradient-2);}.cls-3{fill:url(#linear-gradient-3);}.cls-4{fill:url(#linear-gradient-4);}.cls-5{fill:url(#linear-gradient-5);}.cls-6{fill:url(#linear-gradient-6);}.cls-7{fill:url(#linear-gradient-7);}.cls-8{fill:url(#linear-gradient-8);}.cls-9{fill:url(#linear-gradient-9);}.cls-10{fill:url(#linear-gradient-10);}.cls-11{fill:url(#linear-gradient-11);}.cls-12{fill:url(#linear-gradient-12);}.cls-13{fill:url(#linear-gradient-13);}.cls-14{fill:url(#linear-gradient-14);}.cls-15{fill:url(#linear-gradient-15);}.cls-16{fill:url(#linear-gradient-16);}.cls-17{fill:url(#linear-gradient-17);}.cls-18{fill:url(#linear-gradient-18);}.cls-19{fill:url(#linear-gradient-19);}.cls-20{fill:url(#linear-gradient-20);}.cls-21{fill:url(#linear-gradient-21);}.cls-22{fill:url(#linear-gradient-22);}.cls-23{fill:url(#linear-gradient-23);}.cls-24{fill:url(#linear-gradient-24);}.cls-25{fill:url(#linear-gradient-25);}.cls-26{fill:url(#linear-gradient-26);}.cls-27{fill:url(#linear-gradient-27);}.cls-28{fill:url(#linear-gradient-28);}.cls-29{fill:url(#linear-gradient-29);}.cls-30{fill:url(#linear-gradient-30);}.cls-31{fill:url(#linear-gradient-31);}.cls-32{fill:url(#linear-gradient-32);}.cls-33{fill:url(#linear-gradient-33);}.cls-34{fill:url(#linear-gradient-34);}.cls-35{fill:url(#linear-gradient-35);}.cls-36{fill:url(#linear-gradient-36);}.cls-37{fill:url(#linear-gradient-37);}.cls-38{fill:#fff;}.cls-39{fill:#4ec9f5;}</style><linearGradient id="linear-gradient" x1="75.41" y1="42.09" x2="38.59" y2="78.91" gradientUnits="userSpaceOnUse"><stop offset="0" stop-color="#4fc9f5"/><stop offset="1" stop-color="#2262ae"/></linearGradient><linearGradient id="linear-gradient-2" x1="147.77" y1="0.62" x2="115.4" y2="32.99" xlink:href="#linear-gradient"/><linearGradient id="linear-gradient-3" x1="132.12" y1="45.14" x2="132.12" y2="226.16" xlink:href="#linear-gradient"/><linearGradient id="linear-gradient-4" x1="115.84" y1="-233.11" x2="115.84" y2="-52.09" gradientTransform="translate(-10.14 20.14) rotate(90)" xlink:href="#linear-gradient"/><linearGradient id="linear-gradient-5" x1="-3.38" y1="111.27" x2="-3.38" y2="292.23" gradientTransform="translate(135.68 -65.95)" xlink:href="#linear-gradient"/><linearGradient id="linear-gradient-6" x1="181.62" y1="-97.24" x2="181.62" y2="83.72" gradientTransform="translate(125.54 -45.81) rotate(90)" xlink:href="#linear-gradient"/><linearGradient id="linear-gradient-7" x1="7.49" y1="135.81" x2="46.22" y2="135.81" gradientUnits="userSpaceOnUse"><stop offset="0" stop-color="#2262ae"/><stop offset="1" stop-color="#4fc9f5"/></linearGradient><linearGradient id="linear-gradient-8" x1="70.91" y1="197.2" x2="43.09" y2="225.02" xlink:href="#linear-gradient"/><linearGradient id="linear-gradient-9" x1="148.34" y1="237.89" x2="118.03" y2="268.21" xlink:href="#linear-gradient"/><linearGradient id="linear-gradient-10" x1="226.02" y1="192.7" x2="189.2" y2="229.52" xlink:href="#linear-gradient"/><linearGradient id="linear-gradient-11" x1="263.75" y1="120.58" x2="233.29" y2="151.04" xlink:href="#linear-gradient"/><linearGradient id="linear-gradient-12" x1="221.52" y1="46.59" x2="193.7" y2="74.41" xlink:href="#linear-gradient"/><linearGradient id="linear-gradient-13" x1="241.7" y1="32.38" x2="30.78" y2="243.3" xlink:href="#linear-gradient"/><linearGradient id="linear-gradient-14" x1="170.45" y1="-31" x2="-37.79" y2="177.24" xlink:href="#linear-gradient"/><linearGradient id="linear-gradient-15" x1="234.98" y1="31.86" x2="26.74" y2="240.1" xlink:href="#linear-gradient"/><linearGradient id="linear-gradient-16" x1="233.3" y1="33.53" x2="25.06" y2="241.77" xlink:href="#linear-gradient"/><linearGradient id="linear-gradient-17" x1="297.83" y1="96.39" x2="89.59" y2="304.63" xlink:href="#linear-gradient"/><linearGradient id="linear-gradient-18" x1="279.31" y1="76.69" x2="71.07" y2="284.93" xlink:href="#linear-gradient"/><linearGradient id="linear-gradient-19" x1="189.64" y1="-11.3" x2="-18.6" y2="196.94" xlink:href="#linear-gradient"/><linearGradient id="linear-gradient-20" x1="278.14" y1="77.87" x2="69.9" y2="286.11" gradientTransform="translate(-92.52 356) rotate(-90)" xlink:href="#linear-gradient"/><linearGradient id="linear-gradient-21" x1="190.14" y1="-11.81" x2="-18.1" y2="196.43" gradientTransform="translate(85.15 178.34) rotate(-90)" xlink:href="#linear-gradient"/><linearGradient id="linear-gradient-22" x1="184.67" y1="-18.4" x2="-23.57" y2="189.84" gradientTransform="translate(146.83 166.27) rotate(-90)" xlink:href="#linear-gradient"/><linearGradient id="linear-gradient-23" x1="217.66" y1="14.31" x2="9.42" y2="222.55" gradientTransform="translate(173.64 231.97) rotate(-90)" xlink:href="#linear-gradient"/><linearGradient id="linear-gradient-24" x1="252.52" y1="49.17" x2="44.28" y2="257.41" gradientTransform="translate(173.64 301.7) rotate(-90)" xlink:href="#linear-gradient"/><linearGradient id="linear-gradient-25" x1="285.89" y1="82.85" x2="77.65" y2="291.09" gradientTransform="translate(142.8 368.74) rotate(-90)" xlink:href="#linear-gradient"/><linearGradient id="linear-gradient-26" x1="308.04" y1="105.62" x2="99.8" y2="313.86" gradientTransform="translate(97.88 413.66) rotate(-90)" xlink:href="#linear-gradient"/><linearGradient id="linear-gradient-27" x1="322.86" y1="120.97" x2="114.62" y2="329.21" gradientTransform="translate(31.51 443.83) rotate(-90)" xlink:href="#linear-gradient"/><linearGradient id="linear-gradient-28" x1="322.42" y1="121.41" x2="114.18" y2="329.65" gradientTransform="translate(-38.21 443.83) rotate(-90)" xlink:href="#linear-gradient"/><linearGradient id="linear-gradient-29" x1="309.15" y1="108.54" x2="100.91" y2="316.78" gradientTransform="translate(-100.57 417.68) rotate(-90)" xlink:href="#linear-gradient"/><linearGradient id="linear-gradient-30" x1="284.3" y1="84.44" x2="76.06" y2="292.68" gradientTransform="translate(-149.51 368.74) rotate(-90)" xlink:href="#linear-gradient"/><linearGradient id="linear-gradient-31" x1="250.62" y1="51.08" x2="42.38" y2="259.32" gradientTransform="translate(-180.35 301.7) rotate(-90)" xlink:href="#linear-gradient"/><linearGradient id="linear-gradient-32" x1="215.76" y1="16.21" x2="7.52" y2="224.45" gradientTransform="translate(-180.35 231.97) rotate(-90)" xlink:href="#linear-gradient"/><linearGradient id="linear-gradient-33" x1="185.01" y1="-15.39" x2="-23.23" y2="192.85" gradientTransform="translate(-152.86 169.62) rotate(-90)" xlink:href="#linear-gradient"/><linearGradient id="linear-gradient-34" x1="158.97" y1="-41.64" x2="-49.27" y2="166.6" gradientTransform="translate(-100.57 117.33) rotate(-90)" xlink:href="#linear-gradient"/><linearGradient id="linear-gradient-35" x1="145.42" y1="-55.58" x2="-62.82" y2="152.66" gradientTransform="translate(-38.21 89.84) rotate(-90)" xlink:href="#linear-gradient"/><linearGradient id="linear-gradient-36" x1="145.86" y1="-56.02" x2="-62.38" y2="152.21" gradientTransform="translate(31.51 89.84) rotate(-90)" xlink:href="#linear-gradient"/><linearGradient id="linear-gradient-37" x1="158.31" y1="-44.33" x2="-49.93" y2="163.91" gradientTransform="translate(97.21 113.97) rotate(-90)" xlink:href="#linear-gradient"/></defs><title>onesite-vmware-edition-web-white</title><g id="Layer_2" data-name="Layer 2"><g id="Layer_1-2" data-name="Layer 1"><polygon class="cls-1" points="70.91 74.41 26.09 66.41 26.7 62.98 66.61 70.11 59.48 30.2 62.91 29.59 70.91 74.41"/><polygon class="cls-2" points="132.31 49.9 104.55 10.01 107.41 8.02 132.29 43.78 155.79 9.54 158.66 11.51 132.31 49.9"/><rect class="cls-3" x="130.45" y="45.14" width="3.35" height="181.02"/><rect class="cls-4" x="41.95" y="134.31" width="181.02" height="3.35"/><rect class="cls-5" x="130.57" y="45.33" width="3.48" height="180.96" transform="translate(-57.28 133.33) rotate(-45)"/><rect class="cls-6" x="41.83" y="134.07" width="180.96" height="3.48" transform="translate(-57.28 133.33) rotate(-45)"/><polygon class="cls-7" points="9.59 163.52 7.49 160.75 40.45 135.81 7.49 110.87 9.59 108.09 46.22 135.81 9.59 163.52"/><polygon class="cls-8" points="62.91 242.03 59.48 241.41 66.61 201.51 26.7 208.63 26.09 205.21 70.91 197.2 62.91 242.03"/><polygon class="cls-9" points="157.25 260.63 132.42 227.81 111.38 260.52 108.45 258.63 132.19 221.74 160.02 258.52 157.25 260.63"/><polygon class="cls-10" points="201.71 242.03 193.7 197.2 238.52 205.21 237.91 208.63 198 201.51 205.13 241.41 201.71 242.03"/><polygon class="cls-11" points="255.13 159.66 218.06 135.81 255.13 111.95 257.01 114.88 224.49 135.81 257.01 156.74 255.13 159.66"/><polygon class="cls-12" points="193.7 74.41 201.71 29.59 205.13 30.2 198 70.11 237.91 62.98 238.52 66.41 193.7 74.41"/><rect class="cls-13" x="103.12" y="101.24" width="69.73" height="69.73" rx="34.86"/><rect class="cls-14" x="59.67" y="63.02" width="16.76" height="16.76" rx="8.38"/><rect class="cls-15" x="187.05" y="63.02" width="16.76" height="16.76" rx="8.38"/><rect class="cls-16" x="59.67" y="190.4" width="16.76" height="16.76" rx="8.38"/><rect class="cls-17" x="187.05" y="190.4" width="16.76" height="16.76" rx="8.38"/><rect class="cls-18" x="212.53" y="126.71" width="16.76" height="16.76" rx="8.38"/><rect class="cls-19" x="34.86" y="126.71" width="16.76" height="16.76" rx="8.38"/><rect class="cls-20" x="123.36" y="215.88" width="16.76" height="16.76" rx="8.38" transform="translate(356 92.52) rotate(90)"/><rect class="cls-21" x="123.36" y="38.21" width="16.76" height="16.76" rx="8.38" transform="translate(178.34 -85.15) rotate(90)"/><rect class="cls-22" x="148.17" y="1.34" width="16.76" height="16.76" rx="8.38" transform="translate(166.27 -146.83) rotate(90)"/><rect class="cls-23" x="194.43" y="20.78" width="16.76" height="16.76" rx="8.38" transform="translate(231.97 -173.64) rotate(90)"/><rect class="cls-24" x="229.29" y="55.65" width="16.76" height="16.76" rx="8.38" transform="translate(301.7 -173.64) rotate(90)"/><rect class="cls-25" x="247.39" y="104.59" width="16.76" height="16.76" rx="8.38" transform="translate(368.74 -142.8) rotate(90)"/><rect class="cls-26" x="247.39" y="149.51" width="16.76" height="16.76" rx="8.38" transform="translate(413.66 -97.88) rotate(90)"/><rect class="cls-27" x="229.29" y="197.78" width="16.76" height="16.76" rx="8.38" transform="translate(443.83 -31.51) rotate(90)"/><rect class="cls-28" x="194.43" y="232.64" width="16.76" height="16.76" rx="8.38" transform="translate(443.83 38.21) rotate(90)"/><rect class="cls-29" x="150.18" y="250.74" width="16.76" height="16.76" rx="8.38" transform="translate(417.68 100.57) rotate(90)"/><rect class="cls-30" x="101.24" y="250.74" width="16.76" height="16.76" rx="8.38" transform="translate(368.74 149.51) rotate(90)"/><rect class="cls-31" x="52.29" y="232.64" width="16.76" height="16.76" rx="8.38" transform="translate(301.7 180.35) rotate(90)"/><rect class="cls-32" x="17.43" y="197.78" width="16.76" height="16.76" rx="8.38" transform="translate(231.97 180.35) rotate(90)"/><rect class="cls-33" y="152.86" width="16.76" height="16.76" rx="8.38" transform="translate(169.62 152.86) rotate(90)"/><rect class="cls-34" y="100.57" width="16.76" height="16.76" rx="8.38" transform="translate(117.33 100.57) rotate(90)"/><rect class="cls-35" x="17.43" y="55.65" width="16.76" height="16.76" rx="8.38" transform="translate(89.84 38.21) rotate(90)"/><rect class="cls-36" x="52.29" y="20.78" width="16.76" height="16.76" rx="8.38" transform="translate(89.84 -31.51) rotate(90)"/><rect class="cls-37" x="97.21" width="16.76" height="16.76" rx="8.38" transform="translate(113.97 -97.21) rotate(90)"/><path class="cls-38" d="M384.29,18.17c36.24,0,65.2,28.59,65.2,65.38,0,37.51-29,67-65.2,67s-65.2-29.51-65.2-67C319.09,46.76,348.05,18.17,384.29,18.17Zm0,120.74c28.77,0,52.08-24,52.08-55.36,0-30.59-23.31-53.72-52.08-53.72-29,0-52.08,23.13-52.08,53.72C332.21,114.87,355.33,138.91,384.29,138.91Z"/><path class="cls-38" d="M474.22,57h12.4V70.36a72.72,72.72,0,0,1-.37,7.3h.37c3.27-8.39,14.92-23.17,36.58-23.17,22.57,0,30.58,12.95,30.58,35.58v58.38h-12.4v-55c0-14.39-2.19-27.14-19.9-27.14a34.88,34.88,0,0,0-33.4,25.86,45.08,45.08,0,0,0-1.46,12.39v43.89h-12.4Z"/><path class="cls-38" d="M621,54.35c25.32,0,38.25,19.49,38.25,42.25,0,2.19-.37,6.38-.37,6.38H588.62c.54,23.49,16.57,36.24,35.51,36.24,16.75,0,27.86-11.11,27.86-11.11l5.65,9.47a52.52,52.52,0,0,1-33.88,12.75c-27.31,0-47.89-19.67-47.89-47.9C575.87,72.38,596.26,54.35,621,54.35Zm25.68,38.81c-.73-19.12-12.38-28-26-28-15.3,0-28.59,9.65-31.51,28Z"/><path class="cls-38" d="M684.59,124.52s13.29,14,33.51,14c14,0,25.49-8.38,25.49-22.22,0-32.23-63.92-24-63.92-63.74,0-18.39,16.21-34.42,39.88-34.42,22.22,0,34.24,12.39,34.24,12.39L747.6,41.12s-11.29-10.93-28.05-10.93c-16.39,0-26.95,10.75-26.95,22,0,30.41,63.92,21.67,63.92,63.74,0,19.12-14.75,34.6-38.79,34.6-26.22,0-40.61-16.39-40.61-16.39Z"/><path class="cls-38" d="M780.61,20.31h12.91v15.5H780.61ZM781.12,57h12.4v91.46h-12.4Z"/><path class="cls-38" d="M826.59,68.36H814.71V58h11.88V31.68H839V58h22.74V68.36H839v45.53c0,21.49,13.68,24.22,20.61,24.22a21,21,0,0,0,4.19-.37v11.11a32.1,32.1,0,0,1-5.29.37c-10.57,0-31.91-3.46-31.91-34.06Z"/><path class="cls-38" d="M923,54.35c25.31,0,38.24,19.49,38.24,42.25,0,2.19-.36,6.38-.36,6.38h-70.3c.55,23.49,16.58,36.24,35.52,36.24,16.75,0,27.86-11.11,27.86-11.11l5.64,9.47a52.48,52.48,0,0,1-33.87,12.75c-27.32,0-47.89-19.67-47.89-47.9C877.81,72.38,898.2,54.35,923,54.35Zm25.68,38.81c-.73-19.12-12.39-28-26-28-15.3,0-28.6,9.65-31.51,28Z"/><path class="cls-39" d="M326.85,188.89h6.52l17.18,47.05c1.15,3.17,2.38,8,2.38,8h.18s1.23-4.85,2.38-8l17.18-47.05h6.52l-23,61.94h-6.34Z"/><path class="cls-39" d="M392,188.89h6.35l16.21,36.39c1.41,3.17,3,7.58,3,7.58h.18s1.67-4.41,3.08-7.58L437,188.89h6.26l4.93,61.94h-6.08l-3.43-43.35c-.27-3.34-.18-8.63-.18-8.63h-.17s-1.85,5.46-3.26,8.63l-14.54,31.81h-5.73l-14.53-31.81c-1.41-3.08-3.35-8.81-3.35-8.81h-.18s.09,5.47-.18,8.81l-3.43,43.35H387Z"/><path class="cls-39" d="M456.72,206.51h6.34l10.75,33c.71,2.12,1.32,4.76,1.32,4.76h.18s.62-2.64,1.32-4.76l10.93-32.86h5.9l10.92,32.86c.71,2.12,1.33,4.76,1.33,4.76h.17s.62-2.55,1.32-4.76l10.75-33h6.35l-15,44.32H502.8L492,219.29c-.79-2.2-1.41-4.76-1.41-4.76h-.17s-.62,2.56-1.33,4.76l-10.83,31.54H471.7Z"/><path class="cls-39" d="M556.54,223.43H559v-1.14c0-8.55-4.67-11.46-11-11.46a21.54,21.54,0,0,0-12.51,4.23l-2.82-4.58s5.81-5,15.77-5c10.66,0,16.56,5.9,16.56,17v28.37h-5.73V246a34.12,34.12,0,0,1,.18-3.7h-.18a16,16,0,0,1-14.8,9.6c-7.4,0-15.06-4.32-15.06-13.13C529.41,223.78,548.88,223.43,556.54,223.43Zm-11.1,23.35c8.46,0,13.57-8.81,13.57-16.48v-1.94h-2.55c-7,0-20.89.27-20.89,10C535.57,242.55,538.83,246.78,545.44,246.78Z"/><path class="cls-39" d="M578.83,206.51h5.91v7.85a35,35,0,0,1-.18,3.52h.18c2.11-6.7,7-11.81,14-11.81a11.68,11.68,0,0,1,2.38.27v5.9a15.56,15.56,0,0,0-2.2-.17c-6.25,0-10.92,4.93-12.86,11.45a29.25,29.25,0,0,0-1.24,8.63v18.68h-6Z"/><path class="cls-39" d="M628.44,205.46c12.24,0,18.5,9.42,18.5,20.44,0,1.06-.18,3.08-.18,3.08h-34c.27,11.37,8,17.53,17.18,17.53a20.59,20.59,0,0,0,13.48-5.37l2.73,4.58a25.38,25.38,0,0,1-16.38,6.17c-13.22,0-23.17-9.52-23.17-23.17C606.59,214.18,616.45,205.46,628.44,205.46Zm12.42,18.59c-.35-9.25-6-13.57-12.6-13.57-7.4,0-13.83,4.67-15.24,13.57Z"/><path class="cls-39" d="M683.85,188.89h34.89v5.47H689.93v22.55h23.53v5.46H689.93v23h30.4v5.46H683.85Z"/><path class="cls-39" d="M749.4,205.46c10.75,0,14.45,8.37,14.45,8.37H764a31.38,31.38,0,0,1-.18-3.35V188.89h6v61.94H764v-4.67a24.19,24.19,0,0,1,.18-3.17H764s-3.61,8.9-15.24,8.9c-11.9,0-19.3-9.52-19.3-23.26C729.49,214.62,737.77,205.46,749.4,205.46Zm.27,41c7.4,0,14.36-5.28,14.36-17.88,0-9-4.58-17.8-14.1-17.8-7.84,0-14.27,6.61-14.27,17.8C735.66,239.55,741.39,246.51,749.67,246.51Z"/><path class="cls-39" d="M784.12,188.89h6.25v7.49h-6.25Zm.17,17.62h6v44.32h-6Z"/><path class="cls-39" d="M806.41,212.07h-5.82v-5h5.91V194.27h5.9V207h11.1v5H812.4v22c0,10.4,6.61,11.72,10,11.72a10.06,10.06,0,0,0,2-.18V251a16.31,16.31,0,0,1-2.55.17c-5.11,0-15.42-1.67-15.42-16.47Z"/><path class="cls-39" d="M834.07,188.89h6.26v7.49h-6.26Zm.18,17.62h6v44.32h-6Z"/><path class="cls-39" d="M874.86,205.46c13,0,23.44,9.87,23.44,23a23.44,23.44,0,1,1-46.87,0C851.43,215.33,861.91,205.46,874.86,205.46Zm0,41c9.52,0,17.27-7.75,17.27-18.06a17.27,17.27,0,1,0-34.53,0C857.6,238.76,865.35,246.51,874.86,246.51Z"/><path class="cls-39" d="M909.49,206.51h5.9v6.61c0,1.94-.17,3.53-.17,3.53h.17a18.87,18.87,0,0,1,17.71-11.19c10.93,0,14.8,6.25,14.8,17.18v28.19h-6V224.22c0-7-1-13.12-9.6-13.12a16.82,16.82,0,0,0-16.12,12.51,21.82,21.82,0,0,0-.71,6v21.23h-6Z"/></g></g></svg>