<svg xmlns="http://www.w3.org/2000/svg" viewBox="0 0 798.88 225.54"><defs><style>.cls-1{fill:none;}.cls-2,.cls-3{fill:#fff;}.cls-3{fill-rule:evenodd;}</style></defs><g id="Layer_2" data-name="Layer 2"><g id="Layer_1-2" data-name="Layer 1"><g id="Artboard2"><rect class="cls-1" width="798.88" height="225.54"/><g id="Layer_1-2-2" data-name="Layer 1-2"><path class="cls-2" d="M58.69,62.84l-37.1-6.62.51-2.84,33,5.9-5.9-33,2.84-.5Z"/><path class="cls-2" d="M109.51,42.55l-23-33L88.9,7.89l20.6,29.59L129,9.14l2.37,1.63Z"/><rect class="cls-2" x="107.97" y="38.61" width="2.77" height="149.83"/><rect class="cls-2" x="34.72" y="112.42" width="149.83" height="2.77"/><rect class="cls-2" x="108.07" y="38.76" width="2.88" height="149.78" transform="translate(-48.29 110.73) rotate(-45)"/><rect class="cls-2" x="34.62" y="112.21" width="149.78" height="2.88" transform="translate(-48.29 110.73) rotate(-45)"/><path class="cls-2" d="M7.94,136.59,6.2,134.3l27.28-20.64L6.2,93l1.74-2.31,30.32,23Z"/><path class="cls-2" d="M52.07,201.58l-2.84-.52,5.9-33-33,5.89-.51-2.83,37.1-6.63Z"/><path class="cls-2" d="M130.16,217l-20.55-27.16L92.19,216.88l-2.43-1.56,19.65-30.54,23,30.45Z"/><path class="cls-2" d="M167,201.58l-6.63-37.11,37.1,6.63-.51,2.83-33-5.89,5.9,33Z"/><path class="cls-2" d="M211.17,133.4l-30.68-19.74,30.68-19.75,1.56,2.42-26.92,17.33L212.73,131Z"/><path class="cls-2" d="M160.33,62.84,167,25.74l2.83.5-5.9,33,33-5.9.51,2.84Z"/><path class="cls-3" d="M137.86,113.9A28.87,28.87,0,0,0,109,85h0A28.87,28.87,0,0,0,80.15,113.9h0A28.87,28.87,0,0,0,109,142.76h0a28.87,28.87,0,0,0,28.85-28.85Z"/><path class="cls-3" d="M63.26,60.35a6.94,6.94,0,1,0-6.93,6.93A6.94,6.94,0,0,0,63.26,60.35Z"/><path class="cls-3" d="M168.7,60.35a6.94,6.94,0,1,0-6.94,6.93A6.94,6.94,0,0,0,168.7,60.35Z"/><path class="cls-3" d="M63.26,165.78a6.94,6.94,0,1,0-6.93,6.94A6.94,6.94,0,0,0,63.26,165.78Z"/><path class="cls-3" d="M168.7,165.78a6.94,6.94,0,1,0-6.94,6.94A6.94,6.94,0,0,0,168.7,165.78Z"/><path class="cls-3" d="M189.79,113.06a6.94,6.94,0,1,0-6.94,6.94A6.94,6.94,0,0,0,189.79,113.06Z"/><path class="cls-3" d="M42.73,113.06A6.94,6.94,0,1,0,35.79,120,6.94,6.94,0,0,0,42.73,113.06Z"/><path class="cls-3" d="M109,193.81a6.94,6.94,0,1,0-6.93-6.94A6.94,6.94,0,0,0,109,193.81Z"/><path class="cls-3" d="M109.05,46.75a6.94,6.94,0,1,0-6.94-6.94A6.94,6.94,0,0,0,109.05,46.75Z"/><path class="cls-3" d="M129.58,16.23a6.94,6.94,0,1,0-6.94-6.94A6.94,6.94,0,0,0,129.58,16.23Z"/><path class="cls-3" d="M167.87,32.33a6.94,6.94,0,1,0-6.94-6.94A6.94,6.94,0,0,0,167.87,32.33Z"/><path class="cls-3" d="M196.72,61.18a6.94,6.94,0,1,0-6.93-6.93A6.94,6.94,0,0,0,196.72,61.18Z"/><path class="cls-3" d="M211.7,101.69a6.94,6.94,0,1,0-6.93-6.94A6.94,6.94,0,0,0,211.7,101.69Z"/><path class="cls-3" d="M211.7,138.87a6.94,6.94,0,1,0-6.93-6.94A6.94,6.94,0,0,0,211.7,138.87Z"/><path class="cls-3" d="M196.72,178.82a6.94,6.94,0,1,0-6.93-6.93A6.94,6.94,0,0,0,196.72,178.82Z"/><path class="cls-3" d="M167.87,207.68a6.94,6.94,0,1,0-6.94-6.94A6.94,6.94,0,0,0,167.87,207.68Z"/><path class="cls-3" d="M131.24,222.67a6.94,6.94,0,1,0-6.93-6.94A6.94,6.94,0,0,0,131.24,222.67Z"/><path class="cls-3" d="M90.73,222.67a6.94,6.94,0,1,0-6.93-6.94A6.94,6.94,0,0,0,90.73,222.67Z"/><path class="cls-3" d="M50.23,207.68a6.94,6.94,0,1,0-6.94-6.94A6.94,6.94,0,0,0,50.23,207.68Z"/><path class="cls-3" d="M21.36,178.82a6.94,6.94,0,1,0-6.93-6.93A6.94,6.94,0,0,0,21.36,178.82Z"/><path class="cls-3" d="M6.94,141.64A6.94,6.94,0,1,0,0,134.71,6.94,6.94,0,0,0,6.94,141.64Z"/><path class="cls-3" d="M6.94,98.36A6.94,6.94,0,1,0,0,91.43,6.94,6.94,0,0,0,6.94,98.36Z"/><path class="cls-3" d="M21.36,61.17a6.94,6.94,0,1,0-6.93-6.93A6.94,6.94,0,0,0,21.36,61.17Z"/><path class="cls-3" d="M50.23,32.32a6.94,6.94,0,1,0-6.94-6.94A6.94,6.94,0,0,0,50.23,32.32Z"/><path class="cls-3" d="M87.4,15.12a6.94,6.94,0,1,0-6.94-6.94A6.94,6.94,0,0,0,87.4,15.12Z"/><path class="cls-2" d="M318.08,16.29a53.56,53.56,0,0,1,54,54.11c0,31.05-24,55.46-54,55.46s-54-24.43-54-55.46A53.56,53.56,0,0,1,318.08,16.29Zm0,99.93c23.81,0,43.11-19.86,43.11-45.82,0-25.32-19.3-44.46-43.11-44.46-24,0-43.11,19.14-43.11,44.46C275,96.33,294.11,116.22,318.08,116.22Z"/><path class="cls-2" d="M392.52,48.43h10.26v11a58.23,58.23,0,0,1-.31,6.05h.31c2.71-7,12.35-19.18,30.28-19.18,18.68,0,25.31,10.72,25.31,29.45v48.32H448.1V78.6c0-11.91-1.81-22.47-16.47-22.47A28.93,28.93,0,0,0,404,77.54a37.26,37.26,0,0,0-1.21,10.25v36.33H392.52Z"/><path class="cls-2" d="M514,46.23c21,0,31.66,16.13,31.66,35,0,1.82-.31,5.28-.31,5.28H487.21c.44,19.45,13.71,30,29.39,30,13.86,0,23.06-9.2,23.06-9.2l4.67,7.84a43.51,43.51,0,0,1-28,10.56c-22.6,0-39.64-16.28-39.64-39.65C476.65,61.16,493.53,46.23,514,46.23Zm21.25,32.13c-.6-15.83-10.24-23.18-21.52-23.18-12.66,0-23.66,8-26.08,23.18Z"/><path class="cls-2" d="M566.64,104.31s11,11.59,27.74,11.59c11.59,0,21.1-6.94,21.1-18.39,0-26.68-52.91-19.87-52.91-52.76,0-15.22,13.42-28.49,33-28.49,18.39,0,28.34,10.26,28.34,10.26l-5.13,8.76s-9.34-9-23.21-9c-13.57,0-22.31,8.89-22.31,18.21,0,25.17,52.91,17.93,52.91,52.75,0,15.83-12.21,28.64-32.11,28.64-21.7,0-33.61-13.56-33.61-13.56Z"/><path class="cls-2" d="M646.12,18.06H656.8V30.89H646.12Zm.42,30.37H656.8v75.7H646.54Z"/><path class="cls-2" d="M684.18,57.83h-9.84V49.25h9.84V27.47h10.27V49.25h18.82v8.58H694.45V95.51c0,17.79,11.32,20,17.06,20a17.46,17.46,0,0,0,3.46-.3v9.19a26.61,26.61,0,0,1-4.37.31c-8.75,0-26.42-2.87-26.42-28.19Z"/><path class="cls-2" d="M764,46.23c20.95,0,31.66,16.13,31.66,35,0,1.82-.3,5.28-.3,5.28H737.14c.46,19.45,13.72,30,29.4,30,13.86,0,23.06-9.2,23.06-9.2l4.67,7.84a43.51,43.51,0,0,1-28,10.56c-22.61,0-39.63-16.28-39.63-39.65C726.57,61.16,743.45,46.23,764,46.23Zm21.26,32.13c-.6-15.83-10.25-23.18-21.52-23.18-12.66,0-23.67,8-26.08,23.18Z"/><rect class="cls-2" x="264.11" y="157.6" width="5.03" height="51.21"/><path class="cls-2" d="M282.54,208.81h4.95V191.25a18,18,0,0,1,.59-4.95A13.91,13.91,0,0,1,301.41,176c7.06,0,7.94,5.1,7.94,10.85v22h4.95V185.5c0-9-3.21-14.2-12.24-14.2a15.59,15.59,0,0,0-14.64,9.25h-.14s.14-1.32.14-2.92v-5.46h-4.88Z"/><path class="cls-2" d="M327.12,195.48c0,12.23,8.52,13.62,12.75,13.62A12.64,12.64,0,0,0,342,209v-4.44a8.35,8.35,0,0,1-1.68.15c-2.77,0-8.23-1.1-8.23-9.69V176.76h9.18v-4.15h-9.18V162.05h-4.88v10.56h-4.88v4.15h4.81Z"/><path class="cls-2" d="M349.63,195.48c0,9.54,3.64,14.2,12.23,14.2a15.66,15.66,0,0,0,14.35-9.25h.15a28.57,28.57,0,0,0-.15,2.91v5.47H381V172.17h-4.95v17.55c0,7.94-5.18,15.3-13.55,15.3-7.07,0-7.94-5.1-7.94-10.85v-22h-4.95Z"/><path class="cls-2" d="M393,208.81h5V191.25a18,18,0,0,1,.58-4.95A13.93,13.93,0,0,1,411.83,176c7.07,0,7.94,5.1,7.94,10.85v22h5V185.5c0-9-3.2-14.2-12.23-14.2a15.62,15.62,0,0,0-14.65,9.25h-.14s.14-1.32.14-2.92v-5.46H393Z"/><path class="cls-2" d="M433.61,190.52c0,11.29,8.23,19.16,19.15,19.16a21,21,0,0,0,13.55-5.1l-2.26-3.78a17,17,0,0,1-11.14,4.44c-7.57,0-14-5.1-14.2-14.5h28.11s.15-1.67.15-2.55c0-9.1-5.17-16.89-15.3-16.89C441.77,171.3,433.61,178.51,433.61,190.52Zm5.32-3.86c1.16-7.35,6.48-11.21,12.6-11.21,5.46,0,10.12,3.57,10.41,11.21Z"/><path class="cls-2" d="M497.49,208.81h30.15v-4.52H502.51v-19H522v-4.52H502.51V162.12h23.82V157.6H497.49Z"/><path class="cls-2" d="M535.22,190.45c0,11.36,6.12,19.23,15.95,19.23,9.61,0,12.6-7.36,12.6-7.36h.15a20,20,0,0,0-.15,2.63v3.86h4.81V157.6h-5v17.85a25.74,25.74,0,0,0,.15,2.77h-.15a12.91,12.91,0,0,0-11.94-6.92C542.06,171.3,535.22,178.87,535.22,190.45Zm5.1,0c0-9.25,5.31-14.71,11.8-14.71,7.86,0,11.65,7.28,11.65,14.71,0,10.42-5.75,14.79-11.87,14.79C545.05,205.24,540.32,199.48,540.32,190.45Z"/><path class="cls-2" d="M580.38,163.79h5.17V157.6h-5.17Zm.14,45h5V172.17h-5Z"/><path class="cls-2" d="M598.81,195.48c0,12.23,8.52,13.62,12.74,13.62a12.64,12.64,0,0,0,2.11-.15v-4.44a8.18,8.18,0,0,1-1.67.15c-2.77,0-8.23-1.1-8.23-9.69V176.76h9.18v-4.15h-9.18V162.05h-4.88v10.56H594v4.15h4.81Z"/><path class="cls-2" d="M621.68,163.79h5.17V157.6h-5.17Zm.14,45h5V172.17h-5Z"/><path class="cls-2" d="M636,190.31a19.38,19.38,0,0,0,38.75,0c0-10.86-8.67-19-19.38-19S636,179.45,636,190.31Zm5.09,0a14.28,14.28,0,1,1,28.56,0c0,8.52-6.41,14.93-14.28,14.93S641.12,198.83,641.12,190.31Z"/><path class="cls-2" d="M684,208.81h5V191.25a18.41,18.41,0,0,1,.58-4.95A13.93,13.93,0,0,1,702.89,176c7.07,0,7.94,5.1,7.94,10.85v22h4.95V185.5c0-9-3.2-14.2-12.23-14.2a15.59,15.59,0,0,0-14.64,9.25h-.15a28.91,28.91,0,0,0,.15-2.92v-5.46H684Z"/></g></g></g></g></svg>