<svg xmlns="http://www.w3.org/2000/svg" viewBox="0 0 640 640"><defs><style>.cls-1,.cls-2{fill:none;}.cls-1{stroke:#9cbfe3;}.cls-1,.cls-2,.cls-3,.cls-4{stroke-miterlimit:10;stroke-width:10px;}.cls-2,.cls-3{stroke:#0860b8;}.cls-3{fill:#cedff1;}.cls-4{fill:#ffe9d5;stroke:#ff902c;}.cls-5{fill:#0860b8;}</style></defs><title>p2p-icon</title><g id="Layer_2" data-name="Layer 2"><g id="Layer_1-2" data-name="Layer 1"><line class="cls-1" x1="104" y1="536" x2="536" y2="104"/><line class="cls-1" x1="104" y1="104" x2="536" y2="536"/><rect class="cls-2" x="116.35" y="116.35" width="407.29" height="407.29" transform="translate(320 -132.55) rotate(45)"/><rect class="cls-2" x="104" y="104" width="432" height="432" transform="translate(640 0) rotate(90)"/><circle class="cls-3" cx="320" cy="608" r="27"/><circle class="cls-3" cx="320" cy="32" r="27"/><circle class="cls-3" cx="32" cy="320" r="27"/><circle class="cls-3" cx="608" cy="320" r="27"/><circle class="cls-3" cx="536" cy="104" r="27"/><circle class="cls-3" cx="104" cy="104" r="27"/><circle class="cls-3" cx="536" cy="536" r="27"/><circle class="cls-3" cx="104" cy="536" r="27"/><rect class="cls-4" x="140" y="176" width="360" height="288"/><path class="cls-5" d="M257.79,292.62c4.18,0,8.79.57,12.61,4,4.1,3.6,4.68,8.35,4.68,11.66,0,6.05-2.31,9.44-4.11,11.31-3.81,3.89-8.85,4.25-12.24,4.25H252v16.85H240.87v-48ZM252,314.72h4c1.51,0,4.18-.07,6-1.8a6.66,6.66,0,0,0,1.8-4.75,6.33,6.33,0,0,0-1.8-4.68c-1.66-1.58-4-1.8-6.19-1.8H252Z"/><path class="cls-5" d="M329.65,340.65H292.93l14.4-15.7a111.6,111.6,0,0,0,7.85-9.79c1.08-1.73,2.88-4.83,2.88-8.14a6.75,6.75,0,0,0-1.87-4.75,6.52,6.52,0,0,0-4.4-1.37,5.66,5.66,0,0,0-4.39,1.73,9.78,9.78,0,0,0-2,5.9H294.3c.36-4.18,2-8.93,5-12,2.31-2.45,6.41-5,13.25-5,7,0,10.73,2.88,12.46,4.53a16.11,16.11,0,0,1,4.47,11.53,17.07,17.07,0,0,1-3.61,10.58,60.93,60.93,0,0,1-7.7,8.28l-5,4.83h16.56Z"/><path class="cls-5" d="M371,292.62c4.17,0,8.78.57,12.6,4,4.1,3.6,4.68,8.35,4.68,11.66,0,6.05-2.3,9.44-4.11,11.31-3.81,3.89-8.85,4.25-12.24,4.25h-6.77v16.85H354.06v-48Zm-5.84,22.1h4c1.51,0,4.17-.07,6-1.8a6.66,6.66,0,0,0,1.8-4.75,6.33,6.33,0,0,0-1.8-4.68c-1.65-1.58-4-1.8-6.19-1.8h-3.75Z"/></g></g></svg>