<svg xmlns="http://www.w3.org/2000/svg" xmlns:xlink="http://www.w3.org/1999/xlink" width="70px" height="76px" viewBox="0 0 70 76" version="1.1">
    <title>piggy bank</title>
    <defs>
        <path d="M18.5869565,27.8922303 C22.4529856,27.0650025 25.9486082,27.0650025 28.9212844,26.8701955 C30.7959977,26.7473409 32.6915629,27.6271108 34.4717366,26.7558482 C37.1236579,25.4579299 36.5705459,21.3669155 36.5705459,18.3171514 C36.5705459,8.38508921 28.5190187,0.333561991 18.5869565,0.333561991 C8.65489436,0.333561991 0.603367147,8.38508921 0.603367147,18.3171514 C0.603367147,25.0772006 4.33328376,30.9660811 9.84737034,34.0380463 C12.4347412,35.4795022 15.4939318,28.5540557 18.5869565,27.8922303 Z" id="path-1"/>
    </defs>
    <g id="Page-1" stroke="none" stroke-width="1" fill="none" fill-rule="evenodd">
        <g id="Artboard" transform="translate(-290.000000, -35.000000)">
            <g id="Group-4" transform="translate(279.000000, 27.000000)">
                <g id="piggy-bank" transform="translate(11.717391, 8.000000)">
                    <g id="pig" transform="translate(0.364165, 0.174203)">
                        <g id="Coin" transform="translate(5.008527, 0.000000)">
                            <mask id="mask-2" fill="white">
                                <use xlink:href="#path-1"/>
                            </mask>
                            <g id="Oval"/>
                            <g id="coin" mask="url(#mask-2)" fill-rule="nonzero">
                                <g transform="translate(18.604222, 17.955752) rotate(-30.000000) translate(-18.604222, -17.955752) translate(5.604222, 5.455752)" id="Path">
                                    <path d="M12.6463994,-1.82650803 C14.0859819,-1.82650803 15.5113274,-1.61137294 16.8934032,-1.19387086 C19.4126194,-0.409865388 21.6058931,1.0180164 23.3071142,2.89135527 C25.0101571,4.76670009 26.219988,7.08840216 26.754385,9.65206353 C26.9454343,10.6213767 27.0452698,11.5978416 27.0452573,12.5527757 C27.0596182,16.6135663 25.3424729,20.4736271 22.3363687,23.2051352 C19.3967766,25.8774916 15.6480058,27.1086549 11.9662803,26.936074 C8.28569922,26.7635468 4.67256429,25.1884146 2.00111279,22.2498179 C-0.67124366,19.3102258 -1.90240694,15.561455 -1.72982606,11.8797295 C-1.55729882,8.19914842 0.0178333629,4.58601349 2.95361975,1.91712165 C5.59710511,-0.495239297 9.06339661,-1.82650803 12.6463994,-1.82650803 Z" stroke="#0C355F" stroke-width="4" fill="none"/>
                                    <path d="M17.1731401,14.3133388 C16.6010795,12.2862544 14.7481004,10.893411 12.6463994,10.893411 C11.4276615,10.893411 10.4327734,9.91095906 10.4327734,8.69222116 C10.4452095,7.46104716 11.4276615,6.47859518 12.6463994,6.47859518 C13.8651373,6.47859518 14.8600254,7.47348327 14.8600254,8.69222116 C14.8600254,9.37620672 15.4196499,9.93583126 16.1036355,9.93583126 C16.787621,9.93583126 17.3472456,9.37620672 17.3472456,8.69222116 C17.3472456,6.59052009 15.9544022,4.73754104 13.9273178,4.1654804 L13.9273178,3.60585585 C13.9273178,2.9218703 13.3676932,2.36224575 12.6837077,2.36224575 C11.9997221,2.36224575 11.4400976,2.9218703 11.4400976,3.60585585 L11.4400976,4.1406082 C8.94044128,4.81215765 7.44810916,7.38643056 8.11965861,9.88608686 C8.66684706,11.9380435 10.5198261,13.3681951 12.6463994,13.3681951 C13.8651373,13.3681951 14.8600254,14.3506471 14.8600254,15.569385 C14.8600254,16.7881229 13.8775734,17.783011 12.6588355,17.783011 C11.4400976,17.783011 10.4452095,16.800559 10.4452095,15.5818211 C10.4452095,14.8978356 9.88558495,14.338211 9.2015994,14.338211 C8.51761384,14.338211 7.9579893,14.8978356 7.9579893,15.5818211 C7.9704254,17.7083944 9.38814091,19.5613734 11.4400976,20.120998 L11.4400976,21.2029388 C11.4400976,21.8869243 11.9997221,22.4465489 12.6837077,22.4465489 C13.3676932,22.4465489 13.9273178,21.8869243 13.9273178,21.2029388 L13.9273178,20.1085619 C16.4269741,19.3997041 17.8819979,16.8129951 17.1731401,14.3133388 Z" stroke="none" fill="#84B4F1"/>
                                </g>
                            </g>
                        </g>
                        <path d="M22.6536015,33.1315017 C25.6022441,32.5807771 28.3812079,32.3054148 30.9904928,32.3054148 C33.5997777,32.3054148 36.1993676,32.5807771 38.7892625,33.1315017 L38.7892625,37.0535201 C36.3562731,36.5027954 33.7556187,36.2274331 30.9872992,36.2274331 C28.2189797,36.2274331 25.4410805,36.5027954 22.6536015,37.0535201 L22.6536015,33.1315017 Z" id="Rectangle" fill="#84B4F1" fill-rule="nonzero"/>
                        <path d="M51.709628,17.4434283 L51.709628,20.7302104 C53.5324514,19.8651439 55.5375179,19.4044375 57.5926555,19.4044375 L57.5926555,19.4044375 L59.5536647,19.4044375 L59.5536647,34.454137 C60.1329468,35.2793297 60.6596738,36.1457036 61.1226027,37.0535201 L61.1226027,37.0535201 L67.3977014,37.0535201 L67.3977014,51.5764925 L57.3867495,61.8772815 C56.3008734,62.9964948 55.0983826,63.9946485 53.8013711,64.8537013 L53.8013711,64.8537013 L53.8013711,74.4434283 L42.5314514,74.4434283 L40.1575844,68.4296669 L31.6241876,68.4296669 L29.2503206,74.4434283 L17.9804009,74.4434283 L17.9804009,64.8531783 C15.2260981,63.0282632 12.9098848,60.5826233 11.2402816,57.7254329 C10.6736807,56.7557792 10.1880041,55.74416 9.78194448,54.7026026 L9.78194448,54.7026026 L8.30595824,54.7026026 C3.9807564,54.7026026 0.461921542,51.1837678 0.461921542,46.8585659 C0.461921542,42.5333641 3.9807564,39.0145292 8.30595824,39.0145292 L8.30595824,39.0145292 L9.78259815,39.0145292 C12.927011,30.9872036 20.7486922,25.287465 29.8770592,25.287465 L29.8770592,25.287465 L37.3435362,25.287465 C39.5949055,20.5437838 44.4166348,17.4434283 49.7486188,17.4434283 L49.7486188,17.4434283 L51.709628,17.4434283 Z M47.7874789,21.5639008 C44.4644835,22.2439788 41.661417,24.6213756 40.5018069,27.9020132 L40.5018069,27.9020132 L40.0396624,29.2094834 L29.8770592,29.2094834 C20.145355,29.2094834 12.2279766,37.1268618 12.2279766,46.8585659 C12.2279766,53.0826783 15.5648298,58.9141967 20.9362954,62.0774352 L20.9362954,62.0774352 L21.9022885,62.6462586 L21.9022885,70.52141 L26.5819101,70.52141 L28.955777,64.5076485 L42.8258642,64.5076485 L45.1997312,70.52141 L49.8793527,70.52141 L49.8793527,62.6469123 L50.8449537,62.0780889 C52.2113848,61.2732907 53.4655156,60.2865109 54.5729628,59.1450728 L54.5729628,59.1450728 L63.475683,49.984676 L63.475683,40.9756692 L58.5983917,40.9756692 L58.0846073,39.7998481 C56.2962977,35.7070912 53.0568413,32.4677655 48.9631692,30.6786714 L48.9631692,30.6786714 L47.7874789,30.164887 Z M8.66429998,42.9365476 L8.30595824,42.9365476 C6.14335732,42.9365476 4.38393989,44.695965 4.38393989,46.8585659 C4.38393989,49.0211669 6.14335732,50.7805843 8.30595824,50.7805843 L8.30595824,50.7805843 L8.66756833,50.7805843 C8.42989402,49.4922013 8.30595824,48.1796325 8.30595824,46.8585659 C8.30595824,45.5194581 8.42963255,44.2088503 8.66429998,42.9365476 L8.66429998,42.9365476 Z M51.709628,37.0535201 L51.709628,40.9755384 L47.7876096,40.9755384 L47.7876096,37.0535201 L51.709628,37.0535201 Z M55.6316463,23.5237334 C54.2133137,23.8125247 52.8743367,24.4136393 51.709628,25.2883802 L51.709628,25.2883802 L51.709628,27.6408068 C53.1175018,28.3589283 54.4290248,29.2255636 55.6316463,30.2166577 L55.6316463,30.2166577 Z" id="Combined-Shape" fill="#0C355F" fill-rule="nonzero"/>
                    </g>
                </g>
            </g>
        </g>
    </g>
</svg>