<svg xmlns="http://www.w3.org/2000/svg" xmlns:xlink="http://www.w3.org/1999/xlink" viewBox="0 0 230 199.4"><defs><style>.cls-1{fill:url(#linear-gradient);}.cls-2{fill:url(#linear-gradient-2);}.cls-3{fill:#84b4f1;}.cls-4{fill:none;stroke:#84b4f1;stroke-miterlimit:10;stroke-width:9px;}</style><linearGradient id="linear-gradient" y1="80.22" x2="230" y2="80.22" gradientUnits="userSpaceOnUse"><stop offset="0" stop-color="#012748"/><stop offset="1" stop-color="#265696"/></linearGradient><linearGradient id="linear-gradient-2" x1="41.5" y1="184.55" x2="192.5" y2="184.55" xlink:href="#linear-gradient"/></defs><g id="Layer_2" data-name="Layer 2"><g id="Layer_1-2" data-name="Layer 1"><path class="cls-1" d="M230,160.45H0V0H230Zm-215-15H215V15H15Z"/><polygon class="cls-2" points="180.42 169.7 53.58 169.7 41.5 199.4 192.5 199.4 180.42 169.7"/><rect class="cls-3" x="45.75" y="101.5" width="26" height="37.8"/><rect class="cls-3" x="84" y="97.9" width="26" height="41.4"/><rect class="cls-3" x="122.25" y="84.3" width="26" height="55"/><rect class="cls-3" x="160.5" y="55.5" width="26" height="83.8"/><polyline class="cls-4" points="47.5 93.7 86.87 54.33 111.26 78.72 153.68 36.3"/><polygon class="cls-3" points="168.22 19.77 164.86 32.3 161.5 44.84 152.32 35.66 143.14 26.48 155.68 23.13 168.22 19.77"/></g></g></svg>