<svg xmlns="http://www.w3.org/2000/svg" viewBox="0 0 780.12 181.61">
  <defs>
    <style>
      .cls-1{fill:#fff;}
    </style>
  </defs>
  <title>
    adaptiva-logo-white
  </title>
  <g id="Layer_2" data-name="Layer 2">
    <path class="cls-1" d="M246.2 139.53a82.63 82.63 0 0 1-1.11-13.84h-.37c-6.28 10.89-15.5 16.06-29.9 16.06-14.58 0-30.08-7.2-30.08-25.28 0-26 30.45-28.61 47.25-28.61h12.92v-5.18c0-14.77-10.34-20.67-24-20.67a38.5 38.5 0 0 0-26 9.6L188.43 64c8.12-7.75 21.41-12 32.48-12 20.67 0 34 9.23 34 30.82v20.86c0 16.61.37 26 1.66 35.81zm-1.29-42.82h-12.18c-18.46 0-36.91 4.61-36.91 19.19 0 10.52 10.15 15.87 19.38 15.87 23.62 0 29.72-15.14 29.72-29.35v-5.71zm100.22 42.82v-15h-.37c-6.83 11.81-21.41 17.16-34.14 17.16-26.21 0-44.85-18.82-44.85-44.85S284.4 52 310.61 52c12.74 0 27.32 5.35 34.14 17.16h.37V0h11.08v139.53zM310.61 62c-20.86 0-33.78 15.69-33.78 34.88s12.92 34.88 33.78 34.88c20.12 0 35.62-15.69 35.62-34.88S330.73 62 310.61 62zm116.46 77.52a82.54 82.54 0 0 1-1.07-13.83h-.37c-6.27 10.89-15.5 16.06-29.9 16.06-14.58 0-30.08-7.2-30.08-25.28 0-26 30.45-28.61 47.25-28.61h12.92v-5.18c0-14.77-10.34-20.67-24-20.67a38.5 38.5 0 0 0-26 9.6L369.3 64c8.12-7.75 21.41-12 32.48-12 20.67 0 34 9.23 34 30.82v20.86c0 16.61.37 26 1.66 35.81zm-1.29-42.82H413.6c-18.46 0-36.91 4.61-36.91 19.19 0 10.52 10.15 15.87 19.38 15.87 23.62 0 29.71-15.14 29.71-29.35v-5.7zm68.84 45c-12.74 0-27.32-5.35-34.15-17.16h-.37v57H449V54.26h11.07v14.95h.37C467.3 57.4 481.88 52 494.62 52c26.21 0 44.85 18.83 44.85 44.85s-18.64 44.85-44.85 44.85zm0-79.73C474.5 62 459 77.7 459 96.9s15.5 34.88 35.62 34.88c20.85 0 33.77-15.69 33.77-34.88S515.47 62 494.62 62zm84.9 69.77a32.89 32.89 0 0 0 12.55-3l.92 10c-4.06 1.48-10.15 3-14.4 3-15.87 0-22-9.78-22-22V64.23h-18.42v-10h18.46V29.71h11.07v24.55h24.36v10H567.7v55.55c0 7.57 4.43 12 11.81 12zm25.84-103a8.31 8.31 0 1 1 8.31-8.3 8.27 8.27 0 0 1-8.31 8.3zm5.54 110.74h-11.08V54.26h11.07v85.27zm51.86 0h-11.45l-34.88-85.22H629l28.42 73.27 27.68-73.27h11.26l-33.59 85.27zm94.87 0a82.55 82.55 0 0 1-1.11-13.84h-.37c-6.27 10.89-15.5 16.06-29.9 16.06-14.58 0-30.08-7.2-30.08-25.28 0-26 30.45-28.61 47.25-28.61h12.92v-5.13c0-14.77-10.34-20.67-24-20.67a38.51 38.51 0 0 0-26 9.6L699.85 64c8.12-7.75 21.41-12 32.48-12 20.67 0 34 9.23 34 30.82v20.86c0 16.61.37 26 1.66 35.81zm-1.29-42.82h-12.2c-18.46 0-36.91 4.61-36.91 19.19 0 10.52 10.15 15.87 19.38 15.87 23.62 0 29.71-15.14 29.71-29.35v-5.66zm14.53-42.22v6.13h-.62v-6.13H768v-.57h5.2v.57zm8.63 6.13v-5.9l-2.55 5.9h-.28l-2.59-5.9v5.9h-.62v-6.7h.94l2.44 5.62 2.44-5.62h.89v6.7zM139.68 4.5v40.97H97.91L139.68 4.5zM54.42 88.75h85.26V56.91H86.72l-32.3 31.84zM0 142.5h139.68v-42.31h-97L0 142.5z" id="Layer_1-2" data-name="Layer 1"/>
  </g>
</svg>
