<svg xmlns="http://www.w3.org/2000/svg" viewBox="0 0 780.17 288.36"><defs><style>.cls-1{fill:#404041;}.cls-2{fill:#0860b8;}</style></defs><title>adaptiva-logo-tagline</title><g id="Layer_2" data-name="Layer 2"><g id="Layer_1-2" data-name="Layer 1"><path class="cls-1" d="M246.2,139.53a82.63,82.63,0,0,1-1.11-13.84h-.37c-6.28,10.89-15.5,16.06-29.9,16.06-14.58,0-30.08-7.2-30.08-25.28,0-26,30.45-28.61,47.25-28.61h12.92V82.69c0-14.77-10.34-20.67-24-20.67a38.5,38.5,0,0,0-26,9.6l-6.46-7.57c8.12-7.75,21.41-12,32.48-12,20.67,0,34,9.23,34,30.82v20.85c0,16.61.37,26,1.66,35.81Zm-1.29-42.82H232.73c-18.46,0-36.91,4.61-36.91,19.19,0,10.52,10.15,15.87,19.38,15.87,23.62,0,29.72-15.14,29.72-29.35V96.7Zm100.22,42.82v-15h-.37c-6.83,11.81-21.41,17.16-34.14,17.16-26.21,0-44.85-18.82-44.85-44.85S284.41,52,310.62,52c12.74,0,27.32,5.35,34.14,17.16h.37V0H356.2V139.53ZM310.62,62c-20.86,0-33.78,15.69-33.78,34.88s12.92,34.93,33.77,34.93c20.12,0,35.62-15.69,35.62-34.88s-15.5-34.88-35.62-34.88Zm116.46,77.52A82.54,82.54,0,0,1,426,125.69h-.37c-6.27,10.89-15.5,16.06-29.9,16.06-14.58,0-30.08-7.2-30.08-25.28,0-26,30.45-28.61,47.25-28.61h12.92V82.69c0-14.77-10.34-20.67-24-20.67a38.5,38.5,0,0,0-26,9.6l-6.46-7.57c8.12-7.75,21.41-12,32.48-12,20.67,0,34,9.23,34,30.82v20.85c0,16.61.37,26,1.66,35.81Zm-1.29-42.82H413.6c-18.46,0-36.91,4.61-36.91,19.19,0,10.52,10.15,15.87,19.38,15.87,23.62,0,29.71-15.14,29.71-29.35V96.7Zm68.84,45c-12.74,0-27.32-5.35-34.15-17.16h-.37v57H449V54.26h11.07V69.21h.37C467.27,57.4,481.85,52,494.59,52c26.21,0,44.85,18.83,44.85,44.85s-18.64,44.85-44.85,44.85Zm0-79.73C474.51,62,459,77.67,459,96.86s15.49,35,35.61,35c20.85,0,33.77-15.69,33.77-34.88s-12.92-34.88-33.77-34.88Zm84.89,69.84a32.89,32.89,0,0,0,12.55-3l.92,10c-4.06,1.48-10.15,3-14.4,3-15.87,0-22-9.78-22-22V64.23H538.17v-10h18.46V29.71H567.7V54.26h24.36v10H567.7v55.56c0,7.57,4.43,12,11.81,12Zm25.84-103a8.31,8.31,0,1,1,8.31-8.31h0a8.27,8.27,0,0,1-8.24,8.3Zm5.54,110.74H599.82V54.26h11.07v85.3Zm51.86,0H651.31L616.43,54.29H629l28.42,73.27L685.1,54.29h11.26l-33.59,85.27Zm94.87,0a82.55,82.55,0,0,1-1.11-13.84h-.37c-6.27,10.89-15.5,16.06-29.9,16.06-14.58,0-30.08-7.2-30.08-25.28,0-26,30.45-28.61,47.25-28.61h12.92V82.72c0-14.77-10.34-20.67-24-20.67a38.51,38.51,0,0,0-26,9.6l-6.46-7.57c8.12-7.75,21.41-12,32.48-12,20.67,0,34,9.23,34,30.82v20.82c0,16.61.37,26,1.66,35.81Zm-1.29-42.82h-12.2c-18.46,0-36.91,4.61-36.91,19.19,0,10.52,10.15,15.87,19.38,15.87,23.62,0,29.71-15.14,29.71-29.35V96.73Zm14.53-42.3v6.13h-.62V54.44H768v-.57h5.2v.57Zm8.63,6.13v-5.9L777,60.57h-.28l-2.59-5.9v5.9h-.62v-6.7h.94l2.44,5.62,2.44-5.62h.89v6.7Z"/><path class="cls-2" d="M139.68,4.5v41H97.91ZM54.42,88.75h85.26V56.9h-53L54.42,88.75ZM0,142.5H139.68V100.19h-97Z"/><path class="cls-2" d="M4,269.46a18.5,18.5,0,0,0,9.36,2.64c5.34,0,8.46-2.82,8.46-6.9,0-3.78-2.16-5.94-7.62-8-6.6-2.34-10.68-5.76-10.68-11.46,0-6.3,5.22-11,13.08-11a18.37,18.37,0,0,1,8.94,2L24.1,241a16.11,16.11,0,0,0-7.68-1.92c-5.52,0-7.62,3.3-7.62,6.06,0,3.78,2.46,5.64,8,7.8,6.84,2.64,10.32,5.94,10.32,11.88,0,6.24-4.62,11.64-14.16,11.64-3.9,0-8.16-1.14-10.32-2.58Zm30.08-14.82c0-3-.06-5.46-.24-7.86h4.62l.24,4.68h.18A10,10,0,0,1,48,246.12a8.59,8.59,0,0,1,8.22,5.82h.12a12,12,0,0,1,3.24-3.78,9.91,9.91,0,0,1,6.42-2c3.84,0,9.54,2.52,9.54,12.6v17.06H70.38V259.38c0-5.58-2-8.94-6.3-8.94a6.84,6.84,0,0,0-6.24,4.8,8.7,8.7,0,0,0-.42,2.64v17.94H52.26v-17.4c0-4.62-2-8-6.06-8-3.3,0-5.7,2.64-6.54,5.28a7.29,7.29,0,0,0-.42,2.58v17.54H34.08Zm66.12,21.18-.42-3.66H99.6a10.82,10.82,0,0,1-8.88,4.32c-5.88,0-8.88-4.14-8.88-8.34,0-7,6.24-10.86,17.46-10.8v-.6c0-2.4-.66-6.72-6.6-6.72a14.47,14.47,0,0,0-7.56,2.16l-1.2-3.48a18,18,0,0,1,9.54-2.58c8.88,0,11,6.06,11,11.88v10.82a40.89,40.89,0,0,0,.48,7ZM99.42,261c-5.76-.12-12.3.9-12.3,6.54a4.67,4.67,0,0,0,5,5,7.23,7.23,0,0,0,7-4.86,5.52,5.52,0,0,0,.3-1.68ZM113,255.82c0-3.42-.06-6.36-.24-9.06h4.62l.18,5.7h.24c1.32-3.9,4.5-6.36,8-6.36a5.7,5.7,0,0,1,1.5.18v5a7.93,7.93,0,0,0-1.8-.18c-3.72,0-6.36,2.82-7.08,6.78a14.91,14.91,0,0,0-.24,2.46v15.48H113Zm27.46-17.38v8.38H148v4h-7.56v15.66c0,3.6,1,5.64,4,5.64a11.72,11.72,0,0,0,3.06-.36l.24,4a12.92,12.92,0,0,1-4.68.72,7.32,7.32,0,0,1-5.7-2.22c-1.5-1.56-2-4.14-2-7.56V250.82h-4.5v-4h4.5v-7Zm25.44,19.2v3.9H151.08v-3.9Zm5.46,12.78a13.84,13.84,0,0,0,7,2.1c3.84,0,5.64-1.92,5.64-4.32s-1.5-3.9-5.4-5.34c-5.22-1.86-7.68-4.74-7.68-8.22,0-4.68,3.78-8.52,10-8.52a14.5,14.5,0,0,1,7.14,1.8l-1.32,3.84a11.29,11.29,0,0,0-5.94-1.68c-3.12,0-4.86,1.8-4.86,4,0,2.4,1.74,3.48,5.52,4.92,5,1.92,7.62,4.44,7.62,8.76,0,5.1-4,8.7-10.86,8.7a16.56,16.56,0,0,1-8.16-2Zm45.18,4.32a19.45,19.45,0,0,1-8.34,1.68c-8.76,0-14.46-5.94-14.46-14.82s6.12-15.42,15.6-15.42a17.66,17.66,0,0,1,7.32,1.5l-1.2,4.08a12.23,12.23,0,0,0-6.12-1.38c-6.66,0-10.26,4.92-10.26,11,0,6.72,4.32,10.86,10.08,10.86a15,15,0,0,0,6.48-1.44Zm22.26,1.08-.42-3.66h-.18a10.82,10.82,0,0,1-8.88,4.32c-5.88,0-8.88-4.14-8.88-8.34,0-7,6.24-10.86,17.46-10.8v-.6c0-2.4-.66-6.72-6.6-6.72a14.47,14.47,0,0,0-7.56,2.16l-1.2-3.48a18,18,0,0,1,9.54-2.58c8.88,0,11,6.06,11,11.88v10.82a41,41,0,0,0,.48,7ZM238,261c-5.76-.12-12.3.9-12.3,6.54a4.67,4.67,0,0,0,5,5,7.22,7.22,0,0,0,7-4.86A5.49,5.49,0,0,0,238,266Zm13.64-27.78h5.28v42.6h-5.28Zm20,5.4a3.27,3.27,0,1,1-6.54,0h0a3.22,3.22,0,0,1,3.14-3.3h.16a3.13,3.13,0,0,1,3.24,3q0,.14,0,.29Zm-5.88,37.2v-29h5.28v29Zm14-21.18c0-3-.06-5.46-.24-7.86h4.68l.3,4.8h.12a10.68,10.68,0,0,1,9.6-5.46c4,0,10.26,2.4,10.26,12.36v17.34h-5.28V259.08c0-4.68-1.74-8.58-6.72-8.58a7.5,7.5,0,0,0-7.08,5.4,7.58,7.58,0,0,0-.36,2.46v17.46h-5.28Zm58.32-7.82c-.12,2.1-.24,4.44-.24,8v16.8c0,6.66-1.32,10.74-4.14,13.26s-6.9,3.48-10.56,3.48c-3.48,0-7.32-.84-9.66-2.4l1.32-4a16.38,16.38,0,0,0,8.52,2.28c5.4,0,9.36-2.82,9.36-10.14v-3.28h-.12a10.37,10.37,0,0,1-9.24,4.86c-7.2,0-12.36-6.12-12.36-14.16,0-9.84,6.42-15.42,13.08-15.42,5,0,7.8,2.64,9.06,5h.12l.24-4.38Zm-5.46,11.46a7.52,7.52,0,0,0-.3-2.4A7.6,7.6,0,0,0,325,250.3c-5,0-8.64,4.26-8.64,11,0,5.7,2.88,10.44,8.58,10.44a7.72,7.72,0,0,0,7.32-5.4,9.16,9.16,0,0,0,.42-2.82Zm27.24,17.54v-25h-4.08v-4h4.08v-1.38c0-4.08.9-7.8,3.36-10.14a10.1,10.1,0,0,1,7.08-2.7,12.25,12.25,0,0,1,4.5.84l-.72,4.08a7.9,7.9,0,0,0-3.36-.66c-4.5,0-5.64,4-5.64,8.4v1.56h7v4h-7v25Zm42.48-14.76c0,10.74-7.44,15.42-14.46,15.42-7.86,0-13.92-5.76-13.92-14.94,0-9.72,6.36-15.42,14.4-15.42C396.78,246.12,402.42,252.18,402.42,261.06Zm-23,.3c0,6.36,3.66,11.16,8.82,11.16s8.76-4.7,8.76-11.28c0-4.92-2.46-11.16-8.7-11.16s-8.92,5.74-8.92,11.28Zm29.66-5.54c0-3.42-.06-6.36-.24-9.06h4.62l.18,5.7h.24c1.32-3.9,4.5-6.36,8-6.36a5.71,5.71,0,0,1,1.5.18v5a7.93,7.93,0,0,0-1.8-.18c-3.72,0-6.36,2.82-7.08,6.78a14.85,14.85,0,0,0-.24,2.46v15.48H409Zm53.46,1H446.82V271.4h17.52v4.42H441.6V235.38h21.84v4.38H446.82v12.78h15.72Zm8.4-2.18c0-3-.06-5.46-.24-7.86h4.68l.3,4.8h.12a10.68,10.68,0,0,1,9.6-5.46c4,0,10.26,2.4,10.26,12.36v17.34h-5.28V259.08c0-4.68-1.74-8.58-6.72-8.58a7.5,7.5,0,0,0-7.08,5.4,7.58,7.58,0,0,0-.36,2.46v17.46h-5.28Zm39.42-16.2v8.38h7.56v4h-7.56v15.66c0,3.6,1,5.64,4,5.64a11.71,11.71,0,0,0,3.06-.36l.24,4a12.92,12.92,0,0,1-4.68.72,7.31,7.31,0,0,1-5.7-2.22c-1.5-1.56-2-4.14-2-7.56V250.82h-4.5v-4h4.5v-7Zm16.08,23.82c.12,7.14,4.68,10.08,10,10.08a19.1,19.1,0,0,0,8-1.5l.9,3.78a23.52,23.52,0,0,1-9.66,1.8c-8.94,0-14.28-5.88-14.28-14.64s5.16-15.66,13.6-15.66c9.48,0,12,8.34,12,13.68a19.81,19.81,0,0,1-.18,2.46Zm15.48-3.78c.06-3.36-1.38-8.58-7.32-8.58-5.34,0-7.68,4.92-8.1,8.58Zm11.64-2.66c0-3.42-.06-6.36-.24-9.06h4.62l.18,5.7h.24c1.32-3.9,4.5-6.36,8-6.36a5.7,5.7,0,0,1,1.5.18v5a7.91,7.91,0,0,0-1.8-.18c-3.72,0-6.36,2.82-7.08,6.78a14.85,14.85,0,0,0-.24,2.46v15.48h-5.22Zm19.85.44c0-3.72-.12-6.72-.24-9.48h4.74l.24,5h.12a11.42,11.42,0,0,1,10.32-5.64c7,0,12.3,5.94,12.3,14.76,0,10.44-6.36,15.6-13.2,15.6a10.18,10.18,0,0,1-8.94-4.56h-.12v15.78h-5.22Zm5.22,7.74a11.88,11.88,0,0,0,.24,2.16,8.15,8.15,0,0,0,7.92,6.18c5.58,0,8.82-4.56,8.82-11.22,0-5.82-3.06-10.8-8.64-10.8a8.42,8.42,0,0,0-8,6.54,8.53,8.53,0,0,0-.36,2.16Zm28.92-8.18c0-3.42-.06-6.36-.24-9.06h4.62l.18,5.7h.24c1.32-3.9,4.5-6.36,8-6.36a5.71,5.71,0,0,1,1.5.18v5a7.93,7.93,0,0,0-1.8-.18c-3.72,0-6.36,2.82-7.08,6.78a14.85,14.85,0,0,0-.24,2.46v15.48h-5.22Zm25.74-17.2a3.27,3.27,0,0,1-6.54,0,3.22,3.22,0,0,1,3.14-3.3H630a3.13,3.13,0,0,1,3.24,3Q633.3,238.48,633.29,238.62Zm-5.88,37.2v-29h5.28v29Zm13.32-5.4a13.84,13.84,0,0,0,7,2.1c3.84,0,5.64-1.92,5.64-4.32s-1.5-3.9-5.4-5.34c-5.22-1.86-7.68-4.74-7.68-8.22,0-4.68,3.78-8.52,10-8.52a14.49,14.49,0,0,1,7.14,1.8l-1.32,3.84a11.3,11.3,0,0,0-5.94-1.68c-3.12,0-4.86,1.8-4.86,4,0,2.4,1.74,3.48,5.52,4.92,5,1.92,7.62,4.44,7.62,8.76,0,5.1-4,8.7-10.86,8.7a16.56,16.56,0,0,1-8.16-2Zm27.42-8.16c.12,7.14,4.68,10.08,10,10.08a19.1,19.1,0,0,0,8-1.5l.9,3.78a23.52,23.52,0,0,1-9.66,1.8c-8.94,0-14.28-5.88-14.28-14.64s5.16-15.66,13.62-15.66c9.48,0,12,8.34,12,13.68a19.81,19.81,0,0,1-.18,2.46Zm15.48-3.78c.06-3.36-1.38-8.58-7.32-8.58-5.34,0-7.68,4.92-8.1,8.58Zm29.76-23.1v40.44h-5.22V235.38Zm16.8,4.44h-12.3v-4.44h29.94v4.44H735.47v36h-5.28Zm31-5v2.34h-4.52V249h-2.81v-11.8h-4.52v-2.34ZM776.48,249l-.52-8.32c0-1.09,0-2.44-.1-4h-.16c-.36,1.25-.78,2.91-1.2,4.21l-2.5,7.86h-3l-2.55-8.06c-.26-1.09-.68-2.76-1-4h-.16c0,1.3,0,2.65-.1,4l-.52,8.32H762l1-14.14h4.21l2.44,6.92c.31,1.09.57,2.13.94,3.59h0c.36-1.3.68-2.5,1-3.54l2.44-7h4.06l1.09,14.14Z"/></g></g></svg>