<?xml version="1.0" encoding="utf-8"?>
<!-- Generator: Adobe Illustrator 25.2.1, SVG Export Plug-In . SVG Version: 6.00 Build 0)  -->
<svg version="1.1" id="Layer_1" xmlns="http://www.w3.org/2000/svg" xmlns:xlink="http://www.w3.org/1999/xlink" x="0px" y="0px"
	 viewBox="0 0 355 363" style="enable-background:new 0 0 355 363;" xml:space="preserve">
<style type="text/css">
	.st0{fill:#04315B;stroke:#FFFFFF;stroke-width:10;stroke-miterlimit:10;}
	.st1{fill:#FFFFFF;}
	.st2{fill:#04315B;}
	.st3{fill:none;stroke:#FFFFFF;stroke-width:2;stroke-miterlimit:10;}
	.st4{fill:#0860B8;}
</style>
<circle class="st0" cx="177.2" cy="172.1" r="166"/>
<g>
	<polygon class="st1" points="247,74.5 247,115.4 205.3,115.4 	"/>
	<polygon class="st1" points="161.8,158.7 247,158.7 247,126.9 194.1,126.9 	"/>
	<polygon class="st1" points="107.4,212.5 247,212.5 247,170.1 150,170.1 	"/>
</g>
<g>
	<path class="st2" d="M339.4,360c-107.5-17-216.9-17-324.4,0c-4.1-25.7-8.2-51.5-12.2-77.2c115.6-18.3,233.3-18.3,348.8,0
		C347.5,308.5,343.5,334.2,339.4,360z"/>
	<path class="st3" d="M339.4,360c-107.5-17-216.9-17-324.4,0c-4.1-25.7-8.2-51.5-12.2-77.2c115.6-18.3,233.3-18.3,348.8,0
		C347.5,308.5,343.5,334.2,339.4,360z"/>
</g>
<g>
	<path class="st1" d="M334.7,353c-104.4-16.5-210.7-16.5-315,0c-3.4-21.7-6.9-43.4-10.3-65.2c111.2-17.6,224.5-17.6,335.7,0
		C341.6,309.6,338.1,331.3,334.7,353z"/>
</g>
<g>
	<g>
		<path class="st4" d="M72.6,323.2c-4.3,0.6-8.7,1.2-13,1.8c-0.8,2.6-1.5,5.2-2.3,7.7c-1.6,0.2-3.3,0.5-4.9,0.8
			c3.3-11.3,6.8-22.7,10.5-34c6.5,9.9,12.7,19.8,18.8,29.9c-1.7,0.2-3.3,0.4-5,0.6C75.3,327.8,74,325.5,72.6,323.2z M70.1,319.2
			c-2-3.2-3.9-6.4-5.9-9.5c-1.1,3.6-2.2,7.2-3.3,10.8C64,320.1,67.1,319.6,70.1,319.2z"/>
		<path class="st4" d="M113.6,297.6c0.1,1.8,0.3,3.6,0.4,5.4c-2.9-2-5.8-2.8-8.7-2.6c-3.2,0.3-5.8,1.6-7.8,4.1
			c-2,2.4-2.8,5.2-2.5,8.4c0.3,3.1,1.7,5.7,4,7.6c2.4,2,5.1,2.8,8.2,2.5c1.6-0.1,3-0.5,4-1.1c0.6-0.3,1.2-0.7,1.9-1.2
			c0.6-0.5,1.3-1.1,2-1.8c0.1,1.8,0.3,3.6,0.4,5.5c-2.5,1.7-5.2,2.6-8,2.9c-4.3,0.4-8.1-0.8-11.5-3.4c-3.4-2.7-5.3-6.2-5.8-10.4
			c-0.4-3.8,0.5-7.4,2.8-10.6c2.8-4,6.9-6.2,12-6.7C108,295.9,110.8,296.4,113.6,297.6z"/>
		<path class="st4" d="M147.1,317c-4.4,0.2-8.7,0.4-13.1,0.6c-1,2.5-2,5-3,7.5c-1.6,0.1-3.3,0.2-4.9,0.3c4.3-11,8.8-21.9,13.5-32.8
			c5.5,10.4,10.8,20.9,15.9,31.5c-1.7,0-3.3,0.1-5,0.2C149.4,321.8,148.2,319.4,147.1,317z M145,312.8c-1.7-3.4-3.3-6.7-5-10
			c-1.5,3.5-2.9,7-4.3,10.5C138.8,313,141.9,312.9,145,312.8z"/>
		<path class="st4" d="M167.3,323.8c-0.1-10.1-0.3-20.1-0.4-30.2c2.2,0,4.4,0,6.6-0.1c3.2,0,5.7,0.3,7.5,0.9c2,0.6,3.7,1.6,5.3,3
			c3.2,2.9,4.7,6.6,4.7,11.3c-0.1,4.6-1.8,8.4-5.1,11.2c-1.7,1.4-3.4,2.4-5.2,2.9c-1.7,0.6-4.1,0.8-7.1,0.8
			C171.5,323.7,169.4,323.7,167.3,323.8z M171.9,319.5c0.7,0,1.4,0,2.1,0c2.1,0,3.8-0.2,5.2-0.6c1.4-0.5,2.6-1.2,3.7-2.2
			c2.3-2,3.5-4.7,3.5-8c0-3.3-1.1-6-3.3-8.1c-2-1.8-5.1-2.8-9.1-2.8c-0.7,0-1.4,0-2.1,0C171.8,305.1,171.8,312.3,171.9,319.5z"/>
		<path class="st4" d="M222.7,299.1c-4.2-0.2-8.4-0.4-12.5-0.6c-0.1,2.4-0.2,4.8-0.3,7.2c4,0.2,8,0.4,12.1,0.6
			c-0.1,1.4-0.2,2.8-0.2,4.3c-4-0.2-8-0.4-12-0.6c-0.1,3.4-0.3,6.7-0.4,10.1c4.1,0.2,8.1,0.4,12.2,0.6c-0.1,1.4-0.2,2.8-0.2,4.3
			c-5.6-0.3-11.1-0.6-16.7-0.7c0.3-10,0.7-20.1,1-30.1c5.8,0.2,11.6,0.5,17.3,0.8C222.8,296.2,222.8,297.7,222.7,299.1z"/>
		<path class="st4" d="M234.2,325.7c2.9-10.6,5.9-21.2,8.9-31.8c3,8.1,5.9,16.2,8.6,24.3c4.3-7.4,8.8-14.9,13.3-22.2
			c0.8,11,1.6,21.9,2.3,32.9c-1.6-0.2-3.1-0.3-4.7-0.5c-0.3-6.1-0.7-12.3-1-18.4c-3.7,6.2-7.4,12.4-10.9,18.6
			c-2.3-6.8-4.6-13.5-7.1-20.3c-1.6,6-3.2,11.9-4.7,17.9C237.4,326,235.8,325.9,234.2,325.7z"/>
		<path class="st4" d="M289.7,318.5c-2.5-6.1-5.1-12.2-7.8-18.3c1.8,0.2,3.6,0.5,5.4,0.7c1.8,4.3,3.7,8.6,5.4,12.9
			c2.9-3.6,5.9-7.3,8.9-10.9c1.8,0.3,3.6,0.6,5.4,0.8c-4.3,5.1-8.5,10.2-12.7,15.4c-0.6,4.3-1.3,8.6-1.9,12.9
			c-1.5-0.2-3-0.4-4.5-0.6C288.5,327.1,289.1,322.8,289.7,318.5z"/>
	</g>
</g>
</svg>
