<svg xmlns="http://www.w3.org/2000/svg" xmlns:xlink="http://www.w3.org/1999/xlink" viewBox="0 0 1414.23 799.24"><defs><style>.chw10v-1{fill:url(#linear-gradient);}.chw10v-2{fill:url(#linear-gradient-2);}.chw10v-3{fill:url(#linear-gradient-3);}.chw10v-4{fill:url(#linear-gradient-4);}.chw10v-5{fill:url(#linear-gradient-5);}.chw10v-6{fill:url(#linear-gradient-6);}.chw10v-7{fill:url(#linear-gradient-7);}.chw10v-8{fill:url(#linear-gradient-8);}.chw10v-9{fill:url(#linear-gradient-11);}.chw10v-10{fill:url(#linear-gradient-12);}.chw10v-11{fill:url(#linear-gradient-13);}.chw10v-12{fill:url(#linear-gradient-14);}.chw10v-13{fill:url(#linear-gradient-15);}.chw10v-14{fill:url(#linear-gradient-16);}.chw10v-15{fill:url(#linear-gradient-17);}.chw10v-16{fill:url(#linear-gradient-18);}.chw10v-17{fill:url(#linear-gradient-19);}.chw10v-18{fill:url(#linear-gradient-20);}.chw10v-19{fill:url(#linear-gradient-21);}.chw10v-20{fill:url(#linear-gradient-22);}.chw10v-21{fill:url(#linear-gradient-23);}.chw10v-22{fill:url(#linear-gradient-24);}.chw10v-23{fill:url(#linear-gradient-25);}.chw10v-24{fill:#404041;}</style><linearGradient id="linear-gradient" x1="707.58" y1="70.84" x2="707.58" y2="208.06" gradientUnits="userSpaceOnUse"><stop offset="0" stop-color="#ed4e39"/><stop offset="1" stop-color="#ff902c"/></linearGradient><linearGradient id="linear-gradient-2" x1="795.54" y1="-.11" x2="575.91" y2="219.51" xlink:href="#linear-gradient"/><linearGradient id="linear-gradient-3" x1="769.83" y1="-25.3" x2="550.56" y2="193.97" xlink:href="#linear-gradient"/><linearGradient id="linear-gradient-4" x1="1429.86" y1="-417.55" x2="1210.24" y2="-197.93" gradientTransform="matrix(1 0 0 -1 0 495.39)" xlink:href="#linear-gradient"/><linearGradient id="linear-gradient-5" x1="1403.11" y1="-442.09" x2="1183.85" y2="-222.82" gradientTransform="matrix(1 0 0 -1 0 495.39)" xlink:href="#linear-gradient"/><linearGradient id="linear-gradient-6" x1="648.9" y1="-150.87" x2="648.9" y2="559.3" xlink:href="#linear-gradient"/><linearGradient id="linear-gradient-7" x1="671.9" y1="-150.87" x2="671.9" y2="559.3" xlink:href="#linear-gradient"/><linearGradient id="linear-gradient-8" x1="763.9" y1="-150.88" x2="763.9" y2="559.3" xlink:href="#linear-gradient"/><linearGradient id="linear-gradient-11" x1="717.9" y1="-150.87" x2="717.9" y2="559.3" xlink:href="#linear-gradient"/><linearGradient id="linear-gradient-12" x1="743.9" y1="-151.75" x2="743.9" y2="558.43" xlink:href="#linear-gradient"/><linearGradient id="linear-gradient-13" x1="692.9" y1="-151.75" x2="692.9" y2="558.43" xlink:href="#linear-gradient"/><linearGradient id="linear-gradient-14" x1="645.9" y1="-151.79" x2="645.9" y2="558.38" xlink:href="#linear-gradient"/><linearGradient id="linear-gradient-15" x1="608.9" y1="-151.73" x2="608.9" y2="558.45" xlink:href="#linear-gradient"/><linearGradient id="linear-gradient-16" x1="589.9" y1="-151.45" x2="589.9" y2="558.73" xlink:href="#linear-gradient"/><linearGradient id="linear-gradient-17" x1="589.9" y1="-151.12" x2="589.9" y2="559.06" xlink:href="#linear-gradient"/><linearGradient id="linear-gradient-18" x1="608.9" y1="-150.48" x2="608.9" y2="559.7" xlink:href="#linear-gradient"/><linearGradient id="linear-gradient-19" x1="645.9" y1="-149.96" x2="645.9" y2="560.22" xlink:href="#linear-gradient"/><linearGradient id="linear-gradient-20" x1="692.9" y1="-150" x2="692.9" y2="560.17" xlink:href="#linear-gradient"/><linearGradient id="linear-gradient-21" x1="743.9" y1="-150" x2="743.9" y2="560.17" xlink:href="#linear-gradient"/><linearGradient id="linear-gradient-22" x1="789.9" y1="-149.96" x2="789.9" y2="560.22" xlink:href="#linear-gradient"/><linearGradient id="linear-gradient-23" x1="826.9" y1="-150.48" x2="826.9" y2="559.7" xlink:href="#linear-gradient"/><linearGradient id="linear-gradient-24" x1="826.9" y1="-151.73" x2="826.9" y2="558.45" xlink:href="#linear-gradient"/><linearGradient id="linear-gradient-25" x1="789.9" y1="-151.79" x2="789.9" y2="558.38" xlink:href="#linear-gradient"/></defs><title>client-health-for-windows-10-logo-v</title><g id="Layer_2" data-name="Layer 2"><g id="Layer_1-2" data-name="Layer 1"><g id="Client_Health_for_Windows_10" data-name="Client Health for Windows 10"><path class="chw10v-1" d="M716.69 208.06A68.61 68.61 0 1 1 766.07 91.8l-2.88 2.78a64.62 64.62 0 1 0-46.5 109.49 64.86 64.86 0 0 0 47.47-20.77l2.93 2.71a68.83 68.83 0 0 1-50.4 22.05z"/><path class="chw10v-2" d="M646.42 141.13l-63.89-27.94 86.22-21.87 21.58-82.06h53.41l20.67 80.97 60.71-25.44 1.54 3.69-64.98 27.23-21.05-82.45h-47.22l-21.39 81.36-77.2 19.58 53.2 23.27-1.6 3.66z"/><path class="chw10v-3" d="M646.51 141.28l-60.22-26.34 20.3-50.66 60.14 25.2-26.19-63.17 76.15 41.48 71.09-38.77 1.91 3.5-73 39.82-68.13-37.11 25.58 61.68-65.35-27.38-17.36 43.3 56.68 24.79-1.6 3.66z"/><path class="chw10v-4" d="M743.74 269.26h-53.41l-21.58-82.07-86.22-21.86 63.89-27.95 1.6 3.67-53.2 23.27 77.2 19.58 21.39 81.36h47.22l21.05-82.45 64.98 27.22-1.54 3.69-60.71-25.43-20.67 80.97z"/><path class="chw10v-5" d="M640.54 252.59l26.19-63.17-60.14 25.2-20.3-50.66 60.22-26.34 1.6 3.66-56.68 24.79 17.36 43.3 65.35-27.38-25.58 61.68 68.13-37.11 73 39.82-1.91 3.5-71.09-38.77-76.15 41.48z"/><circle class="chw10v-6" cx="648.9" cy="139.5" r="11.5"/><circle class="chw10v-7" cx="671.9" cy="93.5" r="11.5"/><circle class="chw10v-8" cx="763.9" cy="185.5" r="11.5"/><circle class="chw10v-7" cx="671.9" cy="185.5" r="11.5"/><circle class="chw10v-8" cx="763.9" cy="93.5" r="11.5"/><circle class="chw10v-9" cx="717.9" cy="70.5" r="11.5"/><circle class="chw10v-10" cx="743.9" cy="11.5" r="11.5"/><circle class="chw10v-11" cx="692.9" cy="11.5" r="11.5"/><circle class="chw10v-12" cx="645.9" cy="30.5" r="11.5"/><circle class="chw10v-13" cx="608.9" cy="66.5" r="11.5"/><circle class="chw10v-14" cx="589.9" cy="113.5" r="11.5"/><circle class="chw10v-15" cx="589.9" cy="164.5" r="11.5"/><circle class="chw10v-16" cx="608.9" cy="211.5" r="11.5"/><circle class="chw10v-17" cx="645.9" cy="248.5" r="11.5"/><circle class="chw10v-18" cx="692.9" cy="267.5" r="11.5"/><circle class="chw10v-19" cx="743.9" cy="267.5" r="11.5"/><circle class="chw10v-20" cx="789.9" cy="248.5" r="11.5"/><circle class="chw10v-21" cx="826.9" cy="211.5" r="11.5"/><circle class="chw10v-22" cx="826.9" cy="66.5" r="11.5"/><circle class="chw10v-23" cx="789.9" cy="30.5" r="11.5"/><circle class="chw10v-9" cx="717.9" cy="208.5" r="11.5"/><path class="chw10v-24" d="M85.73 409c40.8 0 61.45 22.1 61.45 22.1l-9 12.39s-19.92-18.94-52-18.94c-40.08 0-68.73 31.08-68.73 71.4 0 40.8 28.65 74.07 69.21 74.07 34.49 0 55.38-22.83 55.38-22.83l9.71 11.9s-23.31 26.48-65.33 26.48C35.94 585.58 0 546 0 496.2 0 446.66 36.92 409 85.73 409zM182.23 412.26h16v138.19c0 16 7.39 18.45 13.8 18.45a39.34 39.34 0 0 0 4.2-.24v14.81a41 41 0 0 1-6 .49c-10.13 0-28-3.16-28-29.87zM243.23 411.26h17v21h-17zm0 49h17v122h-17zM351.39 457.41c33.76 0 51 26 51 56.35 0 2.91-.49 8.5-.49 8.5h-93.73c.72 31.33 22.1 48.33 47.35 48.33 22.35 0 37.16-14.82 37.16-14.82l7.53 12.63a70 70 0 0 1-45.17 17c-36.43 0-63.88-26.23-63.88-63.87 0-40.07 27.21-64.12 60.23-64.12zm34.25 51.85c-1-25.5-16.52-37.4-34.73-37.4-20.4 0-38.13 12.87-42 37.4zM434.23 460.26h16v18.31a96.9 96.9 0 0 1-.49 9.69h.49c4.38-11.15 20-30.77 49-30.77 30.24 0 41 17.2 41 47.24v77.53h-17v-73.35c0-19.18-2.92-36.18-26.53-36.18-20.92 0-38.93 14.32-44.53 34.48a60.32 60.32 0 0 0-1.94 16.52v58.53h-16zM582.23 476.26h-16v-14h17v-35h16v35h31v14h-31V537c0 28.66 18.19 32.3 27.41 32.3a28.76 28.76 0 0 0 5.59-.48v14.78a44 44 0 0 1-7.11.49c-14.22 0-42.89-4.62-42.89-45.42zM729.23 412.26h17v78h99v-78h17v171h-17v-79h-99v79h-17zM958.5 457.41c33.76 0 51 26 51 56.35 0 2.91-.49 8.5-.49 8.5h-93.74c.73 31.33 22.1 48.33 47.36 48.33 22.34 0 37.15-14.82 37.15-14.82l7.53 12.63a70 70 0 0 1-45.17 17c-36.43 0-63.87-26.23-63.87-63.87 0-40.07 27.2-64.12 60.23-64.12zm34.24 51.85c-1-25.5-16.51-37.4-34.73-37.4-20.4 0-38.13 12.87-42 37.4zM1105.22 507.26h7v-3.16c0-23.57-13.25-31.59-31.25-31.59a62.28 62.28 0 0 0-35.5 11.66l-8-12.63s16.51-13.85 44.76-13.85c30.25 0 47 16.28 47 46.9v78.67h-16v-13.61a99.18 99.18 0 0 1 .49-10.39h-.72s-10.5 26.48-42 26.48c-21 0-42.75-11.9-42.75-36.2-.02-41.31 55.22-42.28 76.97-42.28zm-30.4 63.74c23.32 0 37.41-24.28 37.41-45.41v-5.34h-7c-19.18 0-57.56.73-57.56 27.68-.05 11.43 8.94 23.07 27.15 23.07zM1166.23 412.26h16v138.19c0 16 7.4 18.45 13.81 18.45a39.27 39.27 0 0 0 4.19-.24v14.81a41 41 0 0 1-6 .49c-10.13 0-28-3.16-28-29.87zM1231.23 476.26h-15v-14h16v-35h16v35h31v14h-31V537c0 28.66 18.19 32.3 27.41 32.3a28.76 28.76 0 0 0 5.59-.48v14.78a44 44 0 0 1-7.11.49c-14.22 0-42.89-4.62-42.89-45.42zM1308.23 412.26h17v66c0 5.6-.49 10-.49 10h.49c4.59-11.7 20.79-30.45 48.37-30.45 30 0 40.63 17.29 40.63 47.5v77.95h-16v-73.35c0-19.18-2.92-36.18-26.53-36.18-20.92 0-38.93 14.32-44.53 34.73a57.37 57.37 0 0 0-1.94 16.27v58.53h-17zM328.23 749.26h-7v-6h7v-2.64c0-18.26 13.12-20.57 19.52-20.57a23.89 23.89 0 0 1 3.48.22V727a15.51 15.51 0 0 0-2.63-.21c-4.27 0-12.37 1.53-12.37 13.79v2.72h14v6h-15v48h-7zM385.64 741.23c16.17 0 29.26 12.32 29.26 28.71a29.26 29.26 0 0 1-58.52 0c0-16.39 13.09-28.71 29.26-28.71zm0 51.26c11.88 0 21.56-9.68 21.56-22.55a21.56 21.56 0 1 0-43.12 0c0 12.87 9.68 22.55 21.56 22.55zM429.23 742.26h7v9.66c0 2.38-.22 4.34-.22 4.34h.11c2.59-8.36 8.65-14.74 17.19-14.74a14.53 14.53 0 0 1 2.92.33v7.37a18.38 18.38 0 0 0-2.71-.22c-7.67 0-13.4 6.16-15.78 14.3a37.12 37.12 0 0 0-1.51 10.78v23.18h-7zM539.31 732.26s-1.19 6.5-2.49 11.37l-14.52 53.63h-9.43l-19.94-77H501l14.89 59.79c1 3.94 1.75 8.21 1.75 8.21h.22c.11 0 .66-4.27 1.75-8.21l16.21-59.79H543l16.21 59.79c1.1 3.94 1.64 8.21 1.75 8.21h.22s.82-4.26 1.82-8.21l15.44-59.79h8.06l-20.49 77h-9.43L542 743.63c-1.3-4.87-2.49-11.37-2.49-11.37zM599.23 720.26h8v9h-8zm1 22h7v55h-7zM625.23 742.26h7v8.57a43.33 43.33 0 0 1-.23 4.43h.23a23.76 23.76 0 0 1 22.09-14.08 18.93 18.93 0 0 1 18.91 19v38.07l-8-1V764c0-8.69-1.32-16.39-12-16.39a21 21 0 0 0-20.13 15.62 27.36 27.36 0 0 0-.88 7.48v26.51h-7zM712.17 741.93c13.27 0 17.84 10.33 17.84 10.33h-.56a42.14 42.14 0 0 1-.22-4.3v-27.7h8v77h-7v-5.09a31.58 31.58 0 0 1 .21-3.91h-.21s-4.46 11-18.82 11c-14.68 0-23.82-11.74-23.82-28.71 0-17.31 10.22-28.62 24.58-28.62zm-.27 50.56c9.24 0 17.93-6.6 17.93-22.33 0-11.22-5.72-22.22-17.6-22.22-9.79 0-17.83 8.25-17.83 22.22 0 13.64 7.16 22.33 17.5 22.33zM780.31 741.23c16.17 0 29.26 12.32 29.26 28.71a29.26 29.26 0 0 1-58.52 0c0-16.39 13.09-28.71 29.26-28.71zm0 51.26c11.88 0 21.56-9.68 21.56-22.55a21.56 21.56 0 1 0-43.12 0c0 12.87 9.68 22.55 21.56 22.55zM816.45 742.26h7.73l13.65 42c.9 2.68 1.68 6 1.68 6h.08s.77-3.31 1.65-6l13.65-41h7.38l13.64 41c.89 2.64 1.66 6 1.66 6h.07s.79-3.25 1.68-6l13.65-42h7.74l-18.59 55h-8.3l-13.44-39.1c-1-2.73-1.75-5.9-1.75-5.9h-.22s-.76 3.17-1.63 5.9l-13.44 39.1H835zM911.21 785.78a23.74 23.74 0 0 0 16.5 6.71c5.94 0 11.11-3 11.11-8.8 0-12.1-29.81-9.13-29.81-27.17 0-9.9 8.91-15.29 18.92-15.29 11.66 0 17.05 6 17.05 6l-3.41 5.77s-4.73-5.06-13.86-5.06c-5.61 0-11 2.42-11 8.58 0 12.21 29.81 8.91 29.81 27.17 0 9-7.81 15.51-18.92 15.51-13.42 0-20.46-8-20.46-8zM987.23 791.26h18v-56.92c0-2.09.1-4.08.1-4.08h-.21a17.77 17.77 0 0 1-3.6 4.39l-7.72 7.85-4.53-4.71 16.37-16.53h6.59v70h17v7h-42zM1039.91 759.16c0-22.22 6.6-39.93 26.73-39.93s26.62 17.71 26.62 39.93c0 22.44-6.49 40-26.62 40s-26.73-17.56-26.73-40zm45.43 0c0-18.37-4.07-32.78-18.7-32.78s-18.81 14.41-18.81 32.78 4.07 32.89 18.81 32.89 18.7-14.41 18.7-32.89z"/></g></g></g></svg>
