<svg xmlns="http://www.w3.org/2000/svg" viewBox="0 0 1743.5 271.36">
  <defs>
    <style>
      .client-health-logo-white-cls-1{fill:#fff;}
    </style>
  </defs>
  <title>
    client-health-white
  </title>
  <g id="Layer_2" data-name="Layer 2">
    <path class="client-health-logo-white-cls-1" d="M241.77 194.51a11.24 11.24 0 0 0-9.72 5.6l-40.38-16.92a11.25 11.25 0 1 0-20.08 4.1 63.23 63.23 0 0 1-26 10.5 11.25 11.25 0 0 0-19.73 0 62.53 62.53 0 0 1-26-10.52 11.24 11.24 0 0 0-15.7-15.7 62.53 62.53 0 0 1-10.52-26 11.25 11.25 0 0 0 0-19.73 62.53 62.53 0 0 1 10.52-26 11.24 11.24 0 0 0 15.7-15.7 62.53 62.53 0 0 1 26-10.52 11.25 11.25 0 0 0 19.74 0A62 62 0 0 1 171.61 84a11.26 11.26 0 1 0 20.06 4.13l40.64-17a11.34 11.34 0 1 0-1.5-3.58l-40.64 17a11.24 11.24 0 0 0-9.47-5.18h-.86l-7.44-29.12L197 36.91a11.32 11.32 0 1 0-1.86-3.41l-23.72 12.94-6.36-24.93a11.25 11.25 0 1 0-15.7-12.2h-26.74a11.25 11.25 0 1 0-15.77 12.16l-6.61 25.15-24.12-13.13a11.28 11.28 0 1 0-8.21 7.39l16.71 40.29a11.3 11.3 0 0 0-3.43 3.41l-40.64-17a11.25 11.25 0 1 0-16.89 7.07L13.58 99.78A11.26 11.26 0 1 0 20.63 117l36.59 16a10.9 10.9 0 0 0 0 5.32l-36.51 16a11.25 11.25 0 1 0-7.2 17.11l10 24.89a11.28 11.28 0 1 0 17.16 7.45l40.54-17a11.31 11.31 0 0 0 3.43 3.41l-16.73 40.3a11.28 11.28 0 1 0 8.21 7.39l24.11-13.13 6.61 25.15A11.25 11.25 0 1 0 122.62 262h26.74a11.25 11.25 0 1 0 15.7-12.2l6.37-24.93 23.73 12.94a11.26 11.26 0 1 0 1.86-3.41L172.41 221l7.44-29.12h.86a11.24 11.24 0 0 0 9.47-5.18l40.54 17a11.25 11.25 0 1 0 11.07-9.25zM125 206.8l-22.29 12.14-7.37-28A11.25 11.25 0 0 0 97 190a66.41 66.41 0 0 0 27.61 11.49 10.82 10.82 0 0 0 .46 5.28zm-43.7-32.4a11.22 11.22 0 0 0-.93 1.69L22.46 161.4c0-.33.05-.67.05-1a11.27 11.27 0 0 0-.29-2.5l36.55-16a11.12 11.12 0 0 0 11.07 4.89 66.41 66.41 0 0 0 11.48 27.62zm-13.18-50a11.24 11.24 0 0 0-9.38 5l-36.59-16a11.24 11.24 0 0 0 .33-2.66v-.84L80.4 95.27a11.22 11.22 0 0 0 .92 1.73 66.41 66.41 0 0 0-11.49 27.61 11.28 11.28 0 0 0-1.68-.19zM97 81.32a11.24 11.24 0 0 0-1.59-.88l7.37-28L125 64.55a10.83 10.83 0 0 0-.46 5.28A66.41 66.41 0 0 0 97 81.32zm79.13-.92a11.25 11.25 0 0 0-1.63.89 65.82 65.82 0 0 0-27.7-11.47 10.83 10.83 0 0 0-.46-5.28l22.55-12.3zM110.6 22.46h.94a11.25 11.25 0 0 0 11.08-9.31h26.74a11.25 11.25 0 0 0 11.08 9.31h.86l6.61 25.89-23.43 12.79a11.24 11.24 0 0 0-17.59 0l-23.14-12.6zM71.5 39.38a11.3 11.3 0 0 0 2.76-2.48l24.95 13.59-7.61 29h-.94a11.26 11.26 0 0 0-2.45.28zm-44.24 36.7a11.24 11.24 0 0 0 11.79-4.94l40.64 17a11.27 11.27 0 0 0-.29 2.49v.84l-57.88 14.72a11.28 11.28 0 0 0-4.34-4.95zm12 124a11.19 11.19 0 0 0-12.23-5.31L17.12 170a11.28 11.28 0 0 0 4.32-4.83l58 14.71v.84a11.27 11.27 0 0 0 .29 2.49zm35 34.35A11.31 11.31 0 0 0 71.5 232l16.71-40.29a11.27 11.27 0 0 0 2.45.28h.94l7.61 29zm87 14.44h-.86a11.25 11.25 0 0 0-11.08 9.31h-26.7a11.25 11.25 0 0 0-11.08-9.31h-.94l-6.86-26.07 23.14-12.6a11.24 11.24 0 0 0 17.59 0L167.9 223zm7.6-29.78l-22.55-12.3a10.84 10.84 0 0 0 .46-5.3 67.14 67.14 0 0 0 27.64-11.46 11.25 11.25 0 0 0 1.64.9zM450.12 49.75c39.71 0 59.81 21.51 59.81 21.51l-8.75 12.05s-19.38-18.44-50.59-18.44c-39 0-66.9 30.26-66.9 69.5 0 39.71 27.89 72.1 67.37 72.1 33.57 0 53.9-22.22 53.9-22.22l9.46 11.58s-22.69 25.77-63.59 25.77c-49.17 0-84.15-38.53-84.15-87-.01-48.21 35.92-84.85 83.44-84.85zm93.83 2.84H560V187.1c0 15.6 7.09 18 13.24 18a36.87 36.87 0 0 0 4-.23v14.42a40.53 40.53 0 0 1-5.91.47c-9.93 0-27.42-3.07-27.42-29.07zm59.05 0h16.78v20.09H603zm.47 47.28h16.07v118.9h-16.03zM708.7 97c32.86 0 49.64 25.29 49.64 54.84 0 2.84-.47 8.27-.47 8.27h-91.25c.71 30.49 21.51 47 46.1 47 21.75 0 36.17-14.42 36.17-14.42l7.33 12.29a68.14 68.14 0 0 1-44 16.55c-35.46 0-62.17-25.53-62.17-62.17.02-38.93 26.5-62.36 58.65-62.36zm33.3 49.91c-.95-24.82-16.07-36.4-33.8-36.4-19.86 0-37.11 12.53-40.9 36.4zm47.06-47.04h15.84v17.73c0 5.2-.47 9.45-.47 9.45h.47c4.25-10.87 19.38-30 47.51-30 29.31 0 39.71 16.78 39.71 46.1v75.64H876v-71.41c0-18.67-2.83-35.22-25.77-35.22-20.33 0-37.82 13.95-43.26 33.57a58.78 58.78 0 0 0-1.89 16.07v57h-16.02zm144.65 14.89h-15.6v-13.48h15.84V67h15.84v34.27h29.79v13.47h-29.79v59.1c0 27.89 17.73 31.44 26.71 31.44a27.7 27.7 0 0 0 5.44-.47v14.42a42.15 42.15 0 0 1-6.85.47c-13.71 0-41.37-4.49-41.37-44.2zm143-62.17H1093v75.64h96.44V52.59h16.31v166.18h-16.31v-75.88H1093v75.88h-16.31zM1299.61 97c32.86 0 49.64 25.29 49.64 54.84 0 2.84-.47 8.27-.47 8.27h-91.24c.71 30.49 21.51 47 46.1 47 21.75 0 36.17-14.42 36.17-14.42l7.33 12.29a68.14 68.14 0 0 1-44 16.55c-35.46 0-62.17-25.53-62.17-62.17.03-38.93 26.49-62.36 58.64-62.36zm33.33 49.88c-.95-24.82-16.07-36.4-33.8-36.4-19.86 0-37.11 12.53-40.9 36.4zm110.15-1.63h6.62v-3.07c0-22.93-12.53-30.73-29.55-30.73a57.9 57.9 0 0 0-33.57 11.35l-7.59-12.29S1394.63 97 1421.34 97c28.6 0 44.44 15.84 44.44 45.62v76.12h-15.37v-13a93.62 93.62 0 0 1 .47-9.93h-.47s-9.93 25.77-39.71 25.77c-19.86 0-40.42-11.58-40.42-35.22 0-40.16 52.24-41.11 72.81-41.11zm-29.79 62.65c22.69 0 36.4-23.64 36.4-44.2v-5.2h-6.85c-18.67 0-56 .71-56 26.95-.02 11.1 8.72 22.45 26.45 22.45zm88.4-155.31h16.07V187.1c0 15.6 7.09 18 13.24 18a36.86 36.86 0 0 0 4-.23v14.42a40.55 40.55 0 0 1-5.91.47c-9.93 0-27.42-3.07-27.42-29.07zm64.05 62.17h-15.6v-13.48H1566V67h15.84v34.27h29.79v13.47h-29.79v59.1c0 27.89 17.73 31.44 26.71 31.44a27.7 27.7 0 0 0 5.44-.47v14.42a42.15 42.15 0 0 1-6.85.47c-13.71 0-41.37-4.49-41.37-44.2zm74.69-62.17h16.07v64.3c0 5.44-.47 9.69-.47 9.69h.47C1661 115.23 1676.84 97 1703.79 97c29.31 0 39.71 16.78 39.71 46.1v75.64h-16.07v-71.36c0-18.67-2.83-35.22-25.77-35.22-20.33 0-37.82 13.95-43.26 33.8a56 56 0 0 0-1.89 15.84v57h-16.07z" id="Layer_1-2" data-name="Layer 1"/>
  </g>
</svg>
