<svg xmlns="http://www.w3.org/2000/svg" viewBox="0 0 1216.32 271.64"><defs><style>.chw10w-1{fill:#fff;}</style></defs><title>client-health-for-windows-10-logo-white</title><g id="Layer_2" data-name="Layer 2"><g id="Layer_1-2" data-name="Layer 1"><g id="Client_Health_for_Windows_10_H_White" data-name="Client Health for Windows 10 H White"><path class="chw10w-1" d="M244.09 194.89a11.26 11.26 0 0 0-11.8 5.43l-40.42-16.94a11.09 11.09 0 0 0-1.91-9.09 10.48 10.48 0 0 0-5.43-4.1 11.31 11.31 0 0 0-14.91 10.7 11.18 11.18 0 0 0 2.15 6.6A63.36 63.36 0 0 1 145.69 198a11.27 11.27 0 0 0-19.75 0 62.6 62.6 0 0 1-26.06-10.52 11.25 11.25 0 0 0-15.71-15.72 62.49 62.49 0 0 1-10.53-26.06 11.27 11.27 0 0 0 0-19.76 62.54 62.54 0 0 1 10.53-26.06 11.25 11.25 0 0 0 15.71-15.71 62.54 62.54 0 0 1 26.06-10.53 11.26 11.26 0 0 0 19.76 0 62.06 62.06 0 0 1 26.09 10.5 11.27 11.27 0 1 0 20.37 6.62 11.38 11.38 0 0 0-.29-2.49l40.68-17a11.35 11.35 0 1 0-.42-11.33 10.8 10.8 0 0 0-1.13 7.69l-40.67 17a11.28 11.28 0 0 0-9.48-5.18h-.86l-7.44-29.15L197.21 37a11.27 11.27 0 0 0 11.36 4 11.12 11.12 0 0 0 8.36-8.11 11.28 11.28 0 0 0-21.75-5.95 11.12 11.12 0 0 0 .17 6.68l-23.75 13-6.37-25a11.28 11.28 0 0 0 6.35-12.84 11.14 11.14 0 0 0-8.39-8.4 11.27 11.27 0 0 0-13.68 9h-26.77a11.27 11.27 0 0 0-13.68-9 11.13 11.13 0 0 0-8.38 8.39A11.28 11.28 0 0 0 107 21.5l-6.62 25.17L76.2 33.53a11.25 11.25 0 0 0-.07-7.42 11.13 11.13 0 0 0-8-7.16 11.25 11.25 0 0 0-7.77 20.94 10.88 10.88 0 0 0 7.61 1l16.74 40.37a11.16 11.16 0 0 0-3.43 3.41l-40.68-17a11.08 11.08 0 0 0-1.92-9.1 10.42 10.42 0 0 0-5.44-4.09 11.28 11.28 0 0 0-9.55 20.27l-10.1 25.14a11.3 11.3 0 0 0-6.1.4 11.12 11.12 0 0 0-7.19 8 11.27 11.27 0 0 0 20.35 8.88l36.63 16a10.89 10.89 0 0 0 0 5.32l-36.54 16a11.27 11.27 0 1 0-9.47 17.35 12 12 0 0 0 2.26-.22l10 24.91A11.26 11.26 0 1 0 40.88 206a12 12 0 0 0-.18-2l40.58-17a11.3 11.3 0 0 0 3.43 3.42L68 230.72a10.84 10.84 0 0 0-7.2.83 11.25 11.25 0 0 0 7.36 21.14 11.14 11.14 0 0 0 8-7.16 11.28 11.28 0 0 0 .06-7.41L100.33 225l6.67 25.15a11.27 11.27 0 0 0-6.32 12.85 11.13 11.13 0 0 0 8.38 8.38 11.27 11.27 0 0 0 13.68-9h26.77a11.27 11.27 0 0 0 13.68 9 11.13 11.13 0 0 0 8.39-8.4 11.28 11.28 0 0 0-6.35-12.84l6.37-25 23.75 13a11.12 11.12 0 0 0-.17 6.68 11.27 11.27 0 0 0 21.75-5.95 11.12 11.12 0 0 0-8.36-8.11 11.27 11.27 0 0 0-11.36 4l-24.62-13.43 7.41-29.22a8.27 8.27 0 0 0 .86 0 11.26 11.26 0 0 0 9.48-5.19L231 204a11 11 0 0 0-.19 2 11.27 11.27 0 1 0 13.33-11.09zm-118.94 12l-22.29 12.14-7.37-28a11.7 11.7 0 0 0 1.59-.88 66.45 66.45 0 0 0 27.62 11.48 10.61 10.61 0 0 0-.14 1.69 11.27 11.27 0 0 0 .59 3.61zm-43.69-32.4a10.67 10.67 0 0 0-.93 1.69l-57.94-14.7c0-.33.05-.67.05-1a10.89 10.89 0 0 0-.29-2.5L58.9 142a11.25 11.25 0 0 0 9.38 5 11.68 11.68 0 0 0 1.69-.14 66.42 66.42 0 0 0 11.49 27.67zm-13.18-50a11.26 11.26 0 0 0-9.38 5l-36.59-16a11.05 11.05 0 0 0 .33-2.65V110l57.89-14.61a10.57 10.57 0 0 0 .93 1.68A66.41 66.41 0 0 0 70 124.69a10.42 10.42 0 0 0-1.72-.14zm28.8-43.1a11.76 11.76 0 0 0-1.59-.89l7.37-28 22.29 12.15a11.21 11.21 0 0 0-.59 3.59 10.51 10.51 0 0 0 .14 1.76 66.33 66.33 0 0 0-27.62 11.45zm79.13-.92a11.19 11.19 0 0 0-1.63.89A65.69 65.69 0 0 0 146.93 70a11.66 11.66 0 0 0 .14-1.68 11.28 11.28 0 0 0-.6-3.6L169 52.37zm-65.48-57.88h.94a11.26 11.26 0 0 0 11.08-9.31h26.74a11.24 11.24 0 0 0 11.07 9.31h.86L168 48.48l-23.39 12.78a11.24 11.24 0 0 0-17.6 0l-23.13-12.6zm-39.1 16.92A11.12 11.12 0 0 0 74.39 37l25 13.6-7.66 28.97h-.94a11 11 0 0 0-2.45.28zM27.4 76.2a11.07 11.07 0 0 0 2.32.25 11.23 11.23 0 0 0 9.46-5.19l40.64 17a11.31 11.31 0 0 0-.28 2.49v.84l-57.89 14.72a11.27 11.27 0 0 0-4.34-5zm12 124a11.23 11.23 0 0 0-9.72-5.6 10.91 10.91 0 0 0-2.51.29l-9.91-24.79a11.2 11.2 0 0 0 4.31-4.83l58 14.71v.84a11.31 11.31 0 0 0 .28 2.49zm35 34.35a10.89 10.89 0 0 0-2.76-2.48l16.71-40.3a11 11 0 0 0 2.45.28c.32 0 .63 0 .94-.05l7.61 29zm87 14.47h-.86a11.24 11.24 0 0 0-11.07 9.31h-26.72a11.25 11.25 0 0 0-11.08-9.33c-.32 0-.63 0-.94.05L103.88 223 127 210.38a11.24 11.24 0 0 0 17.6 0l23.4 12.78zm7.6-29.82l-22.55-12.3a11.28 11.28 0 0 0 .6-3.6 10.64 10.64 0 0 0-.15-1.7 67.07 67.07 0 0 0 27.65-11.46 11.41 11.41 0 0 0 1.64.91zM418.09 14.32c20.16 0 30.36 10.92 30.36 10.92L444 31.36A39.66 39.66 0 0 0 418.33 22c-19.8 0-34 15.36-34 35.28 0 20.16 14.16 36.6 34.2 36.6a39.45 39.45 0 0 0 27.4-11.28l4.8 5.88s-11.52 13.08-32.28 13.08c-25 0-42.72-19.56-42.72-44.16S394 14.32 418.09 14.32zM465.37 15.32h8V83.6c0 7.92 3.7 9.12 6.9 9.12a19.67 19.67 0 0 0 2.1-.12v7.32a20.94 20.94 0 0 1-3 .24c-5.06 0-14-1.56-14-14.76zM495.37 16.32h9v10h-9zm1 24h8v60h-8zM549.37 38.28c16.68 0 25.2 12.84 25.2 27.84 0 1.44-.24 4.2-.24 4.2H528c.36 15.48 10.92 23.88 23.4 23.88a28.06 28.06 0 0 0 18.36-7.32l3.72 6.24a34.59 34.59 0 0 1-22.32 8.4c-18 0-31.56-13-31.56-31.56.01-19.8 13.45-31.68 29.77-31.68zm16.92 25c-.48-12.6-8.16-18.48-17.16-18.48-10.08 0-18.84 6.36-20.76 18.48zM590.37 40.32h8v8.16c0 2.66-.24 4.84-.24 4.84h.24A25.46 25.46 0 0 1 620.91 38a20.65 20.65 0 0 1 21.46 20.72v41.63h-8V64.08c0-9.48-1.44-17.88-13.08-17.88a22.94 22.94 0 0 0-22 17 29.84 29.84 0 0 0-1 8.16v28.92h-8zM663.37 47.32h-8v-7h8v-17h8v17h15v7h-14v30c0 14.16 8.82 16 13.29 16a13.51 13.51 0 0 0 2.71-.24v7.32a22.46 22.46 0 0 1-3.56.24c-7.1 0-21.44-2.28-21.44-22.44zM736.37 16.32h8v38h49v-38h8v84h-8v-39h-49v39h-8zM849.37 38.28c16.68 0 25.19 12.84 25.19 27.84 0 1.44-.24 4.2-.24 4.2H828c.36 15.48 10.92 23.88 23.4 23.88a28 28 0 0 0 18.35-7.32l3.72 6.24a34.58 34.58 0 0 1-22.31 8.4c-18 0-31.56-13-31.56-31.56.01-19.8 13.45-31.68 29.77-31.68zm16.91 25c-.47-12.6-8.15-18.48-17.15-18.48-10.08 0-18.84 6.36-20.76 18.48zM922.07 62.32h3.3v-1.58C925.37 49 919.13 45 910.66 45A28.33 28.33 0 0 0 894 50.78l-3.76-6.32s7.76-6.92 21.06-6.92c14.24 0 22.12 8.14 22.12 23.44v39.34h-8v-6.8a50.66 50.66 0 0 1 .24-5.2h.11s-4.94 13.24-19.76 13.24c-9.89 0-20.12-6-20.12-18.1-.05-20.65 25.95-21.14 36.18-21.14zM906.89 94.4c11.52 0 18.48-12 18.48-22.44v-2.64h-3.48c-9.48 0-28.44.36-28.44 13.68 0 5.64 4.44 11.4 13.44 11.4zM952.37 15.32h8V83.6c0 7.92 3.7 9.12 6.9 9.12a19.67 19.67 0 0 0 2.1-.12v7.32a20.94 20.94 0 0 1-3 .24c-5.06 0-14-1.56-14-14.76zM984.37 47.32h-8v-7h8v-17h8v17h15v7h-15v30c0 14.16 8.82 16 13.29 16a13.51 13.51 0 0 0 2.71-.24v7.32a20.73 20.73 0 0 1-3.41.24c-6.83 0-20.59-2.28-20.59-22.44zM1022.37 16.32h8v32.06c0 2.77-.24 4.94-.24 4.94h.24c2.23-5.69 10-14.75 23.23-15a20.43 20.43 0 0 1 20.77 20.5v41.55h-8V64.08c0-9.48-1.44-17.88-13.08-17.88a22.91 22.91 0 0 0-22 17.16 28.42 28.42 0 0 0-1 8v28.92h-8zM381.37 191.32h-7v-7h7v-2.88c0-19.92 14.27-22.44 21.22-22.44a25.73 25.73 0 0 1 3.78.24v7.68a16 16 0 0 0-2.8-.23c-4.56 0-13.2 1.63-13.2 14.71v2.92h15v7h-16v53h-8zM444.37 182.32c17.64 0 31.92 13.44 31.92 31.32a31.92 31.92 0 0 1-63.84 0c0-17.88 14.28-31.32 31.92-31.32zm0 55.92c13 0 23.52-10.56 23.52-24.6a23.52 23.52 0 1 0-47 0c-.04 14.04 10.52 24.6 23.48 24.6zM491.37 184.32h8v10.35c0 2.56-.23 4.65-.23 4.65h.11c2.85-9.12 9.51-16.08 18.91-16.08a16.09 16.09 0 0 1 3.21.36v8a20.38 20.38 0 0 0-3-.24c-8.44 0-14.74 6.72-17.36 15.6a40.12 40.12 0 0 0-1.66 11.76v25.56h-8zM612 172.32s-1.32 7.2-2.76 12.6l-16.08 59.4h-10l-21.75-84h8.89l16.21 65.07c1.07 4.28 1.91 8.93 1.91 8.93h.23c.12 0 .72-4.65 1.91-8.93l17.64-65.07h7.86l17.64 65.07c1.19 4.28 1.78 8.93 1.9 8.93h.24s.84-4.65 1.91-8.93l16.8-65.07h8.89l-22.35 84h-10L615 184.92c-1.44-5.4-2.76-12.6-2.76-12.6zM677.37 160.32h9v10h-9zm0 24h8v60h-8zM705.37 184.32h8v8.16c0 2.66-.24 4.84-.24 4.84h.24A25.46 25.46 0 0 1 735.91 182a20.66 20.66 0 0 1 21.46 20.72v41.63h-8v-36.27c0-9.48-1.44-17.88-13.08-17.88a22.94 22.94 0 0 0-22 17 29.84 29.84 0 0 0-1 8.16v28.92h-8zM799.31 181.84c14.74 0 19.82 11.48 19.82 11.48h.47a42.83 42.83 0 0 1-.23-4.43v-28.57h8v84h-8v-6.65a34.19 34.19 0 0 1 .24-4.35h-.24s-5 12.21-20.91 12.21c-16.31 0-26.46-13.05-26.46-31.91 0-19.21 11.36-31.78 27.31-31.78zm1 56.4c10.08 0 19.56-7.2 19.56-24.36 0-12.24-6.24-24.24-19.2-24.24-10.68 0-19.44 9-19.44 24.24-.03 14.88 7.77 24.36 19.05 24.36zM874.92 182.32c17.64 0 31.92 13.44 31.92 31.32a31.92 31.92 0 0 1-63.84 0c0-17.88 14.28-31.32 31.92-31.32zm0 55.92c13 0 23.52-10.56 23.52-24.6a23.52 23.52 0 1 0-47 0c-.04 14.04 10.56 24.6 23.48 24.6zM914.34 184.32H923l14.5 44.58c1 2.86 1.79 6.42 1.79 6.42h.41s.83-3.58 1.79-6.45l14.81-44.55h8l14.81 44.55c1 2.87 1.79 6.45 1.79 6.45h.42s.83-3.45 1.78-6.42l14.5-44.58h8.66l-20.28 60h-9.09l-14.63-42.58c-1.07-3-1.9-6.42-1.9-6.42h-.24s-.83 3.45-1.78 6.42l-14.63 42.58h-9.09zM1017.72 230.92a25.9 25.9 0 0 0 18 7.32c6.48 0 12.12-3.24 12.12-9.6 0-13.2-32.52-10-32.52-29.64 0-10.8 9.72-16.68 20.64-16.68 12.72 0 18.6 6.6 18.6 6.6l-3.72 6.24s-5.16-5.52-15.12-5.52c-6.12 0-12 2.64-12 9.36 0 13.32 32.52 9.72 32.52 29.64 0 9.84-8.52 16.92-20.64 16.92-14.64 0-22.32-8.76-22.32-8.76zM1100.37 237.32h19v-62.46c0-2.33.12-4.54.12-4.54h-.24s-.82 1.75-4.12 4.89l-8.82 8.72-5.18-5.24 18.71-18.37h7.53v77h19v7h-46zM1158.12 201.88c0-24.24 7.2-43.56 29.16-43.56s29 19.32 29 43.56c0 24.48-7.08 43.68-29 43.68s-29.16-19.2-29.16-43.68zm49.56 0c0-20-4.44-35.76-20.4-35.76s-20.52 15.72-20.52 35.76 4.44 35.88 20.52 35.88 20.4-15.76 20.4-35.88z"/></g></g></g></svg>
