<svg xmlns="http://www.w3.org/2000/svg" viewBox="0 0 1414.24 799.56">
  <defs>
    <style>
      .chw10vw-1 {
        fill: #fff;
      }
    </style>
  </defs>
  <title>client-health-for-windows-10-logo-v-white</title>
  <g id="Layer_2" data-name="Layer 2">
    <g id="Layer_1-2" data-name="Layer 1">
      <g id="Client_Health_for_Windows_10_White" data-name="Client Health for Windows 10 White"><path
        class="chw10vw-1"
        d="M828 200.29a11.56 11.56 0 0 0-12.12 5.57l-41.54-17.4a11.08 11.08 0 0 0-.81-7.33 11.53 11.53 0 0 0-22.06 4.76 11.43 11.43 0 0 0 2.21 6.78 65.1 65.1 0 0 1-26.8 10.8 11.58 11.58 0 0 0-20.3 0 64.17 64.17 0 0 1-26.78-10.82 11.56 11.56 0 0 0-16.15-16.15 64.38 64.38 0 0 1-10.82-26.78 11.58 11.58 0 0 0 0-20.3 64.38 64.38 0 0 1 10.82-26.78 11.56 11.56 0 0 0 16.12-16.14 64.23 64.23 0 0 1 26.78-10.82 11.58 11.58 0 0 0 20.31 0 63.78 63.78 0 0 1 26.81 10.78 11.58 11.58 0 1 0 20.93 6.81 12 12 0 0 0-.29-2.56l41.8-17.51a11.65 11.65 0 1 0-.43-11.65 11.11 11.11 0 0 0-1.12 8L772.76 87a11.55 11.55 0 0 0-9.76-5.31h-.88l-7.65-30L779.79 38a11.6 11.6 0 0 0 11.67 4.08 11.45 11.45 0 0 0 8.6-8.34 11.59 11.59 0 0 0-22.35-6.11 11.47 11.47 0 0 0 .17 6.86l-24.41 13.28-6.55-25.64a11.6 11.6 0 0 0 6.53-13.2A11.44 11.44 0 0 0 744.83.3a11.58 11.58 0 0 0-14.06 9.28h-27.51a11.58 11.58 0 0 0-14-9.28 11.43 11.43 0 0 0-8.62 8.61A11.58 11.58 0 0 0 687 22.09L680.23 48l-24.8-13.51A11.59 11.59 0 1 0 639.19 41a11.19 11.19 0 0 0 7.8 1l17.19 41.5a11.62 11.62 0 0 0-3.53 3.5l-41.8-17.5a11.08 11.08 0 0 0-.8-7.31A11.54 11.54 0 0 0 596 66.94a11.55 11.55 0 0 0 5.49 9.83l-10.38 25.88a11.69 11.69 0 0 0-6.26.41 11.4 11.4 0 0 0-7.39 8.19 11.58 11.58 0 0 0 20.91 9.13L636 136.84a11.82 11.82 0 0 0-.34 2.74 11.66 11.66 0 0 0 .34 2.73l-37.55 16.43a11.58 11.58 0 1 0-9.74 17.84 11.16 11.16 0 0 0 2.33-.24L601.29 202a11.59 11.59 0 1 0 17.71 7.62l41.7-17.48a11.73 11.73 0 0 0 3.53 3.52L647 237.11a11.24 11.24 0 0 0-7.82 1 11.56 11.56 0 0 0 8 21.52 11.57 11.57 0 0 0 8.27-15l24.8-13.51 6.75 25.95a11.58 11.58 0 0 0-6.45 13.17 11.43 11.43 0 0 0 8.62 8.62 11.58 11.58 0 0 0 14-9.28h27.51a11.58 11.58 0 0 0 14.06 9.28 11.44 11.44 0 0 0 8.62-8.63 11.6 11.6 0 0 0-6.53-13.2l6.55-25.64 24.41 13.31a11.59 11.59 0 1 0 1.91-3.51l-25.3-13.8 7.65-30h.88a11.55 11.55 0 0 0 9.74-5.33l41.7 17.48a11.58 11.58 0 1 0 13.63-9.25zm-122.26 12.55l-22.9 12.47-7.58-28.79a11.85 11.85 0 0 0 1.64-.91 68.3 68.3 0 0 0 28.37 11.8 12.36 12.36 0 0 0-.14 1.73 11.57 11.57 0 0 0 .61 3.7zm-44.89-33.29a12.69 12.69 0 0 0-1 1.73l-59.52-15.09v-1a12 12 0 0 0-.29-2.57l37.55-16.43a11.54 11.54 0 0 0 9.63 5.18 11.14 11.14 0 0 0 1.74-.15 68.25 68.25 0 0 0 11.89 28.33zm-13.54-51.35a11.53 11.53 0 0 0-9.63 5.17l-37.59-16.44a11.73 11.73 0 0 0 .33-2.73v-.87l59.51-15.09a11.6 11.6 0 0 0 1 1.73 68.3 68.3 0 0 0-11.8 28.37 12.5 12.5 0 0 0-1.82-.14zm29.59-44.28a10.9 10.9 0 0 0-1.64-.91l7.58-28.8 22.9 12.48a11.56 11.56 0 0 0-.61 3.69 12.5 12.5 0 0 0 .14 1.74 68.17 68.17 0 0 0-28.37 11.8zm81.3-1a11.69 11.69 0 0 0-1.67.92 67.68 67.68 0 0 0-28.42-11.74 10.79 10.79 0 0 0 .15-1.72 11.63 11.63 0 0 0-.62-3.7L750.81 54zM690.93 23.1h1a11.57 11.57 0 0 0 11.38-9.57h27.47a11.57 11.57 0 0 0 11.38 9.57h.88l6.79 26.6-24.1 13.13a11.55 11.55 0 0 0-18.08 0l-23.77-12.94zm-40.17 17.73a11.48 11.48 0 0 0 2.83-2.55l25.63 14L671.4 82h-1a11.58 11.58 0 0 0-2.52.29zm-45.45 37.7a11.54 11.54 0 0 0 12.11-5.07L659.17 91a11.35 11.35 0 0 0-.3 2.56v.86l-59.47 15.04a11.62 11.62 0 0 0-4.45-5.08zM617.68 206a11.49 11.49 0 0 0-12.57-5.46L594.89 175a11.57 11.57 0 0 0 4.43-5l59.6 15.12v.86a11.26 11.26 0 0 0 .3 2.55zm35.91 35.28a11.64 11.64 0 0 0-2.83-2.54l17.16-41.4a11.58 11.58 0 0 0 2.52.28c.32 0 .64 0 1-.05l7.82 29.75zM743 256.06a8.49 8.49 0 0 0-.88-.05 11.57 11.57 0 0 0-11.38 9.57h-27.47a11.57 11.57 0 0 0-11.38-9.58c-.32 0-.64 0-1 .05l-7-26.79 23.77-13a11.54 11.54 0 0 0 18.08 0l24.06 13.13zm7.81-30.58l-23.17-12.64a11.58 11.58 0 0 0 .62-3.7 11.14 11.14 0 0 0-.15-1.74 68.93 68.93 0 0 0 28.4-11.78 10.67 10.67 0 0 0 1.69.93zM85.73 409.32c40.8 0 61.45 22.11 61.45 22.11l-9 12.38s-19.92-18.94-52-18.94c-40.08 0-68.73 31.08-68.73 71.4 0 40.8 28.65 74.07 69.21 74.07 34.49 0 55.38-22.82 55.38-22.82l9.71 11.9s-23.31 26.47-65.33 26.47C35.94 585.89 0 546.3 0 496.51c0-49.51 36.92-87.19 85.73-87.19zM182.24 412.58h16v138.19c0 16 7.4 18.46 13.81 18.46a37.49 37.49 0 0 0 4.19-.25v14.82a41.59 41.59 0 0 1-6 .48c-10.13 0-28-3.15-28-29.87zM243.24 411.58h17v21h-17zm0 49h17v122h-17zM351.39 457.74c33.76 0 51 26 51 56.34 0 2.91-.49 8.5-.49 8.5h-93.73c.72 31.33 22.1 48.33 47.35 48.33 22.35 0 37.16-14.82 37.16-14.82l7.53 12.63a70 70 0 0 1-45.17 17c-36.43 0-63.88-26.23-63.88-63.87 0-40.07 27.21-64.11 60.23-64.11zm34.25 51.84c-1-25.5-16.52-37.4-34.73-37.4-20.4 0-38.13 12.87-42 37.4zM434.24 460.58h16v18.31c0 5.33-.48 9.69-.48 9.69h.48c4.39-11.15 20-30.77 49-30.77 30.24 0 41 17.2 41 47.24v77.53h-17v-73.35c0-19.18-2.91-36.18-26.52-36.18-20.92 0-38.93 14.33-44.53 34.48a60.37 60.37 0 0 0-1.95 16.52v58.53h-16zM582.24 476.58h-16v-14h17v-35h16v35h31v14h-31v60.71c0 28.66 18.2 32.31 27.42 32.31a28 28 0 0 0 5.58-.49v14.81a43.74 43.74 0 0 1-7.1.49c-14.22 0-42.9-4.61-42.9-45.41zM729.24 412.58h17v78h99v-78h17v171h-17v-79h-99v79h-17zM958.5 457.74c33.76 0 51 26 51 56.34 0 2.91-.49 8.5-.49 8.5h-93.74c.73 31.33 22.1 48.33 47.36 48.33 22.34 0 37.15-14.82 37.15-14.82l7.53 12.63a70 70 0 0 1-45.17 17c-36.43 0-63.87-26.23-63.87-63.87 0-40.07 27.2-64.11 60.23-64.11zm34.24 51.84c-1-25.5-16.51-37.4-34.73-37.4-20.4 0-38.13 12.87-42 37.4zM1105.24 507.58h7v-3.16c0-23.57-13.25-31.59-31.25-31.59a62.23 62.23 0 0 0-35.49 11.66l-8-12.63S1054 458 1082.24 458c30.25 0 47 16.28 47 46.9v78.67h-16V570a97.21 97.21 0 0 1 .5-10.39h-.74s-10.5 26.49-42 26.49c-21 0-42.76-11.91-42.76-36.21 0-41.34 55.25-42.31 77-42.31zm-30.4 63.76c23.32 0 37.4-24.29 37.4-45.42v-5.34h-7c-19.18 0-57.56.73-57.56 27.68-.04 11.42 8.95 23.08 27.16 23.08zM1166.24 412.58h16v138.19c0 16 7.4 18.46 13.81 18.46a37.49 37.49 0 0 0 4.19-.25v14.82a41.59 41.59 0 0 1-6 .48c-10.13 0-28-3.15-28-29.87zM1231.24 476.58h-15v-14h16v-35h16v35h31v14h-31v60.71c0 28.66 18.2 32.31 27.42 32.31a28 28 0 0 0 5.58-.49v14.81a43.74 43.74 0 0 1-7.1.49c-14.22 0-42.9-4.61-42.9-45.41zM1308.24 412.58h17v66c0 5.6-.48 10-.48 10h.48c4.6-11.7 20.8-30.45 48.37-30.45 30 0 40.63 17.29 40.63 47.5v78h-16v-73.4c0-19.18-2.91-36.18-26.52-36.18-20.93 0-38.93 14.33-44.53 34.73a57.41 57.41 0 0 0-2 16.27v58.53h-17zM328.24 749.58h-7v-6h7v-2.64c0-18.26 12.56-20.57 18.68-20.57a21.64 21.64 0 0 1 3.32.22v6.69a14.63 14.63 0 0 0-2.62-.22c-4.27 0-12.38 1.53-12.38 13.79v2.73h15v6h-15v48h-7zM385.64 741.54c16.17 0 29.26 12.32 29.26 28.71a29.26 29.26 0 1 1-58.52 0c0-16.39 13.09-28.71 29.26-28.71zm0 51.27c11.88 0 21.56-9.69 21.56-22.56a21.56 21.56 0 1 0-43.12 0c0 12.87 9.68 22.56 21.56 22.56zM429.24 742.58h7v9.66c0 2.39-.21 4.34-.21 4.34h.11c2.59-8.36 8.64-14.74 17.19-14.74a14.37 14.37 0 0 1 2.91.33v7.37a18.16 18.16 0 0 0-2.7-.22c-7.67 0-13.4 6.16-15.78 14.3a37.14 37.14 0 0 0-1.52 10.78v23.18h-7zM539.31 732.58s-1.19 6.5-2.49 11.37l-14.52 53.63h-9.43l-19.94-77H501l14.89 59.79c1 3.94 1.75 8.21 1.75 8.21h.22c.11 0 .66-4.27 1.75-8.21l16.21-59.79H543l16.21 59.79c1.1 3.94 1.64 8.21 1.75 8.21h.22s.77-4.27 1.75-8.21l15.44-59.79h8.06l-20.49 77h-9.43L542 744c-1.3-4.87-2.49-11.37-2.49-11.37zM599.24 720.58h8v9h-8zm1 22h7v55h-7zM625.24 742.58h7v8.57c0 2.44-.22 4.43-.22 4.43h.22a23.77 23.77 0 0 1 22.1-14.07 18.91 18.91 0 0 1 18.9 19v38.07l-8-1v-33.22c0-8.69-1.32-16.39-12-16.39a21 21 0 0 0-20.13 15.62 27.36 27.36 0 0 0-.88 7.48v26.51h-7zM712.19 742.25c13.27 0 17.84 10.33 17.84 10.33h-.56a40.33 40.33 0 0 1-.23-4.3v-27.7h8v77h-7v-5.08a30.24 30.24 0 0 1 .22-3.92h-.22s-4.46 11-18.81 11c-14.69 0-23.82-11.74-23.82-28.71 0-17.31 10.22-28.62 24.58-28.62zm-.29 50.56c9.24 0 17.93-6.61 17.93-22.33 0-11.23-5.72-22.23-17.6-22.23-9.79 0-17.83 8.25-17.83 22.23 0 13.63 7.16 22.33 17.5 22.33zM780.31 741.54c16.17 0 29.26 12.32 29.26 28.71a29.26 29.26 0 1 1-58.52 0c0-16.39 13.09-28.71 29.26-28.71zm0 51.27c11.88 0 21.56-9.69 21.56-22.56a21.56 21.56 0 1 0-43.12 0c0 12.87 9.68 22.56 21.56 22.56zM816.45 742.58h7.89l13.37 41.08c.88 2.63 1.64 5.92 1.64 5.92h.24s.77-3.3 1.65-5.94l13.65-41.06h7.38l13.64 41.06c.89 2.64 1.66 5.94 1.66 5.94h.23s.77-3.18 1.65-5.92l13.36-41.08h7.9l-18.59 55h-8.3l-13.44-39.1c-1-2.73-1.75-5.9-1.75-5.9h-.22s-.76 3.17-1.63 5.9l-13.44 39.1H835zM911.21 786.1a23.74 23.74 0 0 0 16.5 6.71c5.94 0 11.11-3 11.11-8.81 0-12.1-29.81-9.13-29.81-27.17 0-9.9 8.91-15.29 18.92-15.29 11.66 0 17.05 6.05 17.05 6.05l-3.41 5.73s-4.73-5.07-13.86-5.07c-5.61 0-11 2.42-11 8.58 0 12.21 29.81 8.91 29.81 27.17 0 9-7.81 15.52-18.92 15.52-13.42 0-20.46-8-20.46-8zM987.24 791.58h17v-56.92c0-2.09.11-4.08.11-4.08h-.21a17.89 17.89 0 0 1-3.6 4.4l-7.72 7.84-4.53-4.71 16.37-16.53h6.58v70h18v7h-42zM1039.91 759.47c0-22.22 6.6-39.93 26.73-39.93s26.62 17.71 26.62 39.93c0 22.44-6.49 40-26.62 40s-26.73-17.56-26.73-40zm45.43 0c0-18.36-4.07-32.78-18.7-32.78s-18.81 14.42-18.81 32.78 4.07 32.89 18.81 32.89 18.7-14.36 18.7-32.89z"/></g>
    </g>
  </g>
</svg>
