<svg xmlns="http://www.w3.org/2000/svg" viewBox="0 0 1414.55 585.52">
  <defs>
    <style>
      .client-health-logo-v-white-cls-1{fill:#fff;}
    </style>
  </defs>
  <title>
    client-health-v-white
  </title>
  <g id="Layer_2" data-name="Layer 2">
    <path class="client-health-logo-v-white-cls-1" d="M825.69 199.84a11.55 11.55 0 0 0-10 5.76l-41.49-17.38a11.56 11.56 0 1 0-20.63 4.21 65 65 0 0 1-26.76 10.79 11.56 11.56 0 0 0-20.27 0 64.24 64.24 0 0 1-26.75-10.81 11.55 11.55 0 0 0-16.13-16.13 64.25 64.25 0 0 1-10.81-26.75 11.56 11.56 0 0 0 0-20.27 64.25 64.25 0 0 1 10.81-26.75 11.55 11.55 0 0 0 16.13-16.13 64.24 64.24 0 0 1 26.75-10.81 11.56 11.56 0 0 0 20.28 0 63.7 63.7 0 0 1 26.77 10.77 11.57 11.57 0 1 0 20.61 4.24L816 73.09a11.66 11.66 0 1 0-1.54-3.68L772.67 86.9a11.55 11.55 0 0 0-9.73-5.32h-.88l-7.63-29.88 25.27-13.78a11.62 11.62 0 1 0-1.91-3.51l-24.38 13.3-6.54-25.61a11.56 11.56 0 1 0-16.13-12.53h-27.47a11.56 11.56 0 1 0-16.21 12.49l-6.79 25.84-24.77-13.49a11.59 11.59 0 1 0-8.43 7.59l17.17 41.4a11.6 11.6 0 0 0-3.52 3.51L619 69.41a11.56 11.56 0 1 0-17.36 7.26l-10.36 25.84a11.56 11.56 0 1 0 7.25 17.71l37.59 16.44a11.19 11.19 0 0 0 0 5.46l-37.51 16.4a11.55 11.55 0 1 0-7.4 17.58l10.25 25.57a11.59 11.59 0 1 0 17.63 7.66l41.65-17.45a11.61 11.61 0 0 0 3.52 3.51l-17.17 41.4a11.59 11.59 0 1 0 8.43 7.59l24.77-13.49 6.79 25.84a11.56 11.56 0 1 0 16.21 12.5h27.47a11.56 11.56 0 1 0 16.13-12.53l6.54-25.61 24.38 13.3a11.57 11.57 0 1 0 1.91-3.51l-25.27-13.78 7.64-29.92h.88a11.55 11.55 0 0 0 9.73-5.32l41.65 17.45a11.56 11.56 0 1 0 11.37-9.51zm-120 12.63l-22.9 12.48-7.57-28.8a11.56 11.56 0 0 0 1.64-.91A68.24 68.24 0 0 0 705.27 207a11.12 11.12 0 0 0 .47 5.43zm-44.89-33.28a11.55 11.55 0 0 0-1 1.73l-59.52-15.1c0-.34.05-.69.05-1a11.59 11.59 0 0 0-.3-2.57l37.55-16.43a11.42 11.42 0 0 0 11.37 5 68.23 68.23 0 0 0 11.9 28.37zm-13.54-51.35a11.55 11.55 0 0 0-9.63 5.17l-37.59-16.44a11.54 11.54 0 0 0 .34-2.73v-.86l59.52-15.09a11.54 11.54 0 0 0 1 1.73A68.23 68.23 0 0 0 649 128a11.58 11.58 0 0 0-1.69-.17zm29.64-44.29a11.57 11.57 0 0 0-1.64-.91l7.57-28.8 22.9 12.48a11.12 11.12 0 0 0-.47 5.43 68.23 68.23 0 0 0-28.36 11.8zm81.29-.95a11.54 11.54 0 0 0-1.67.92 67.63 67.63 0 0 0-28.41-11.79 11.13 11.13 0 0 0-.47-5.42l23.17-12.64zm-67.26-59.52h1a11.56 11.56 0 0 0 11.38-9.57h27.47a11.56 11.56 0 0 0 11.38 9.57h.88l6.79 26.6-24.1 13.13a11.55 11.55 0 0 0-18.08 0l-23.77-12.94zm-40.17 17.38a11.61 11.61 0 0 0 2.84-2.55l25.63 14-7.83 29.72h-1a11.57 11.57 0 0 0-2.52.28zm-45.45 37.7a11.55 11.55 0 0 0 12.11-5.07l41.75 17.49a11.58 11.58 0 0 0-.29 2.56V94l-59.48 15.1a11.6 11.6 0 0 0-4.46-5.08zm12.37 127.42a11.5 11.5 0 0 0-12.57-5.46l-10.22-25.5a11.59 11.59 0 0 0 4.44-5l59.59 15.11v.86a11.58 11.58 0 0 0 .29 2.56zm35.91 35.29a11.61 11.61 0 0 0-2.84-2.55l17.17-41.4a11.58 11.58 0 0 0 2.52.28h1l7.82 29.75zM743 255.71h-.88a11.56 11.56 0 0 0-11.38 9.57h-27.47a11.56 11.56 0 0 0-11.38-9.57h-1l-7-26.79L707.65 216a11.54 11.54 0 0 0 18.08 0l24.06 13.13zm7.81-30.59l-23.17-12.64a11.14 11.14 0 0 0 .47-5.45 69 69 0 0 0 28.4-11.77 11.55 11.55 0 0 0 1.69.93zM85.73 409c40.8 0 61.45 22.1 61.45 22.1l-9 12.38s-19.92-18.94-52-18.94c-40.07 0-68.73 31.09-68.73 71.4 0 40.8 28.66 74.07 69.22 74.07 34.49 0 55.37-22.83 55.37-22.83l9.71 11.9s-23.31 26.47-65.33 26.47C35.94 585.52 0 545.93 0 496.15 0 446.6 36.92 409 85.73 409zm96.4 2.87h16.51v138.19c0 16 7.29 18.46 13.6 18.46a37.88 37.88 0 0 0 4.13-.24v14.81a41.64 41.64 0 0 1-6.07.49c-10.2 0-28.17-3.16-28.17-29.87zm60.71 0h17.24v20.64h-17.24zm.49 48.57h16.51v122.17h-16.51zm108.06-2.91c33.76 0 51 26 51 56.34 0 2.91-.49 8.5-.49 8.5h-93.73c.73 31.33 22.1 48.33 47.36 48.33 22.34 0 37.16-14.82 37.16-14.82l7.53 12.63a70 70 0 0 1-45.17 17c-36.43 0-63.87-26.23-63.87-63.87-.02-40.06 27.19-64.11 60.21-64.11zm34.24 51.24c-1-25.5-16.51-37.4-34.73-37.4-20.4 0-38.13 12.87-42 37.4zM434 460.45h16.27v18.21c0 5.34-.49 9.71-.49 9.71h.49c4.37-11.17 19.91-30.84 48.82-30.84 30.12 0 40.8 17.24 40.8 47.36v77.72h-16.56v-73.35c0-19.19-2.91-36.19-26.47-36.19-20.88 0-38.86 14.33-44.44 34.49a60.39 60.39 0 0 0-1.94 16.51v58.53H434zm148.57 15.3h-16V461.9h16.27v-35.21h16.27v35.21h30.6v13.84h-30.6v60.71c0 28.66 18.21 32.3 27.44 32.3a28.46 28.46 0 0 0 5.59-.48v14.81a43.3 43.3 0 0 1-7 .49c-14.09 0-42.5-4.61-42.5-45.41zm146.92-63.88h16.76v77.72h99.09v-77.72h16.76v170.74h-16.76v-78h-99.09v78h-16.76zm229.01 45.66c33.76 0 51 26 51 56.34 0 2.91-.49 8.5-.49 8.5h-93.74c.73 31.33 22.1 48.33 47.36 48.33 22.34 0 37.16-14.82 37.16-14.82l7.53 12.63a70 70 0 0 1-45.17 17c-36.43 0-63.87-26.23-63.87-63.87-.01-40.06 27.19-64.11 60.22-64.11zm34.24 51.24c-1-25.5-16.51-37.4-34.73-37.4-20.4 0-38.13 12.87-42 37.4zm113.16-1.69h6.8v-3.16c0-23.56-12.87-31.57-30.36-31.57-20.16 0-34.49 11.66-34.49 11.66l-7.77-12.63s16-13.84 43.47-13.84c29.39 0 45.66 16.27 45.66 46.87v78.2h-15.79v-13.36a96.19 96.19 0 0 1 .49-10.2h-.49s-10.2 26.47-40.8 26.47c-20.4 0-41.53-11.9-41.53-36.19.01-41.33 53.68-42.25 74.81-42.25zm-30.6 64.36c23.31 0 37.4-24.29 37.4-45.41v-5.34h-7c-19.19 0-57.56.73-57.56 27.68-.04 11.41 8.95 23.06 27.16 23.06zm90.82-159.57h16.51v138.19c0 16 7.29 18.46 13.6 18.46a37.87 37.87 0 0 0 4.13-.24v14.81a41.67 41.67 0 0 1-6.07.49c-10.2 0-28.17-3.16-28.17-29.87zm65.81 63.88h-16V461.9h16.27v-35.21h16.27v35.21H1279v13.84h-30.6v60.71c0 28.66 18.21 32.3 27.44 32.3a28.46 28.46 0 0 0 5.59-.48v14.81a43.3 43.3 0 0 1-7 .49c-14.09 0-42.5-4.61-42.5-45.41zm76.73-63.88h16.51v66.06c0 5.59-.48 10-.48 10h.48c4.61-11.66 20.89-30.36 48.57-30.36 30.12 0 40.8 17.24 40.8 47.36v77.72H1398v-73.39c0-19.19-2.91-36.19-26.47-36.19-20.89 0-38.86 14.33-44.44 34.73a57.57 57.57 0 0 0-1.94 16.27v58.53h-16.51z" id="Layer_1-2" data-name="Layer 1"/>
  </g>
</svg>
