<?xml version="1.0" encoding="utf-8"?>
<!-- Generator: Adobe Illustrator 23.1.1, SVG Export Plug-In . SVG Version: 6.00 Build 0)  -->
<svg version="1.1" id="Layer_1" xmlns="http://www.w3.org/2000/svg" xmlns:xlink="http://www.w3.org/1999/xlink" x="0px" y="0px"
	 viewBox="0 0 1244.6 279" style="enable-background:new 0 0 1244.6 279;" xml:space="preserve">
<style type="text/css">
	.st0{fill:#404041;}
	.st1{fill:url(#SVGID_1_);}
	.st2{fill:url(#SVGID_2_);}
	.st3{fill:url(#SVGID_3_);}
	.st4{fill:url(#SVGID_4_);}
	.st5{fill:url(#SVGID_5_);}
	.st6{fill:url(#SVGID_6_);}
	.st7{fill:url(#SVGID_7_);}
	.st8{fill:url(#SVGID_8_);}
	.st9{fill:url(#SVGID_9_);}
	.st10{fill:url(#SVGID_10_);}
	.st11{fill:url(#SVGID_11_);}
	.st12{fill:url(#SVGID_12_);}
	.st13{fill:url(#SVGID_13_);}
	.st14{fill:url(#SVGID_14_);}
	.st15{fill:url(#SVGID_15_);}
	.st16{fill:url(#SVGID_16_);}
	.st17{fill:url(#SVGID_17_);}
	.st18{fill:url(#SVGID_18_);}
	.st19{fill:url(#SVGID_19_);}
	.st20{fill:url(#SVGID_20_);}
	.st21{fill:url(#SVGID_21_);}
	.st22{fill:url(#SVGID_22_);}
	.st23{fill:url(#SVGID_23_);}
	.st24{fill:url(#SVGID_24_);}
	.st25{fill:url(#SVGID_25_);}
	.st26{fill:url(#SVGID_26_);}
</style>
<title>client-health-for-windows-10</title>
<g>
	<g id="Layer_1-2">
		<g id="Client_Health_for_Windows_10_H">
			<path class="st0" d="M361.4,200.7h-8v-7h7v-2.9c0-19.9,14.3-22.4,21.2-22.4c1.3,0,2.5,0.1,3.8,0.2v7.9c-0.9-0.2-1.9-0.2-2.8-0.2
				c-4.5,0-13.2,1.6-13.2,14.7v2.7h15v7h-15v53h-8V200.7z M423.6,191.9c17.6,0,31.9,13.4,31.9,31.3c0,17.6-14.3,31.9-31.9,31.9
				c-17.6,0-31.9-14.3-31.9-31.9C391.7,205.3,406,191.9,423.6,191.9L423.6,191.9z M423.6,247.8c13,0,23.5-10.6,23.5-24.6
				c0.5-13-9.6-23.9-22.5-24.5s-23.9,9.6-24.5,22.5c0,0.6,0,1.3,0,1.9C400.1,237.2,410.7,247.8,423.6,247.8z M470.4,193.7h8V204
				c0,2.6-0.2,4.6-0.2,4.6h0.1c3-9.1,10-16.1,19.8-16.1c1.1,0,2.2,0.1,3.4,0.4v8c-1-0.2-2.1-0.2-3.1-0.2c-8.8,0-15.4,6.7-18.1,15.6
				c-1.2,3.8-1.8,7.8-1.7,11.8v25.6h-8V193.7z M591.3,181.7c0,0-1.3,7.2-2.8,12.6l-16.1,59.4h-9.9l-22-85h8.4l16.4,65.9
				c1.1,4.4,1.9,9.1,1.9,9.1h0.2c0.1,0,0.7-4.7,1.9-9.1l17.9-65.9h8l17.9,65.9c1.2,4.4,1.8,9.1,1.9,9.1h0.2c0,0,0.8-4.7,1.9-9.1
				l17-65.9h8.5l-22.6,85h-9.9l-16.1-59.4c-1.4-5.4-2.8-12.6-2.8-12.6H591.3z M656.4,169.7h9v10h-9V169.7z M657.4,193.7h8v60h-8
				V193.7z M684.4,193.7h8v8.1c0,2.7-0.2,4.9-0.2,4.9h0.2c2.2-5.6,10-15.3,24.4-15.4c11.4,0,20.6,9.3,20.6,20.7c0,0,0,0,0,0v41.7h-8
				v-36.2c0-9.5-1.4-17.9-13.1-17.9c-10.3,0.1-19.3,7-22,17c-0.7,2.7-1,5.4-1,8.2v28.9h-9L684.4,193.7z M779.3,191.2
				c14.8,0,19.8,11.5,19.8,11.5h-0.5c-0.2-1.5-0.2-3-0.2-4.4v-28.6h9v84h-8V247c0-1.5,0.1-2.9,0.2-4.4h-0.2c0,0-5,12.2-20.9,12.2
				c-16.3,0-26.5-13-26.5-31.9C752,203.8,763.4,191.2,779.3,191.2z M779.6,247.8c10.1,0,19.6-7.2,19.6-24.4
				c0-12.2-6.2-24.2-19.2-24.2c-10.7,0-19.4,9-19.4,24.2C760.5,238.3,768.3,247.8,779.6,247.8z M854.2,191.9
				c17.6,0,31.9,13.4,31.9,31.3c0,17.6-14.3,31.9-31.9,31.9c-17.6,0-31.9-14.3-31.9-31.9C822.3,205.3,836.6,191.9,854.2,191.9
				L854.2,191.9z M854.2,247.8c13,0,23.5-10.6,23.5-24.6c0.5-13-9.6-23.9-22.5-24.5c-13-0.5-23.9,9.6-24.5,22.5c0,0.6,0,1.3,0,1.9
				C830.7,237.2,841.2,247.8,854.2,247.8z M893.6,193.7h8.7l14.5,44.6c1,2.9,1.8,6.4,1.8,6.4h0.4c0,0,0.8-3.6,1.8-6.4l14.8-44.6h8
				l14.8,44.6c1,2.9,1.8,6.4,1.8,6.4h0.4c0,0,0.8-3.4,1.8-6.4l14.5-44.6h8.7l-20.3,60h-9.1l-14.6-42.6c-1.1-3-1.9-6.4-1.9-6.4h-0.2
				c0,0-0.8,3.4-1.8,6.4L923,253.7h-9.1L893.6,193.7z M997,240.5c4.8,4.7,11.3,7.3,18,7.3c6.5,0,12.1-3.2,12.1-9.6
				c0-13.2-32.5-10-32.5-29.6c0-10.8,9.7-16.7,20.6-16.7c12.7,0,18.6,6.6,18.6,6.6l-3.7,6.2c0,0-5.1-5.5-15.1-5.5
				c-6.1,0-12,2.6-12,9.4c0,13.3,32.5,9.7,32.5,29.6c0,9.8-8.5,16.9-20.6,16.9c-14.6,0-22.3-8.8-22.3-8.8L997,240.5z M1079.4,246.7
				h19v-62.5c0-2.3,0.1-4.5,0.1-4.5h-0.2c0,0-0.8,1.7-4.1,4.9l-8.8,8.7l-5.2-5.2l18.7-18.4h7.5v77h19v7h-46V246.7z M1137.4,211.4
				c0-24.2,7.2-43.6,29.2-43.6s29,19.3,29,43.6c0,24.5-7.1,43.7-29,43.7S1137.4,235.9,1137.4,211.4z M1187,211.4
				c0-20-4.4-35.8-20.4-35.8s-20.6,15.7-20.6,35.8s4.4,35.9,20.5,35.9S1187,231.6,1187,211.4L1187,211.4z"/>
		</g>
		<g id="Client_Health_Icon">
			
				<linearGradient id="SVGID_1_" gradientUnits="userSpaceOnUse" x1="130.6912" y1="210.08" x2="130.6912" y2="72.84" gradientTransform="matrix(1 0 0 -1 0 280)">
				<stop  offset="0" style="stop-color:#ED4E39"/>
				<stop  offset="1" style="stop-color:#FF902C"/>
			</linearGradient>
			<path class="st1" d="M139.8,207.2c-37.9,0-68.6-30.7-68.6-68.6s30.7-68.6,68.6-68.6c18.6,0,36.5,7.6,49.4,21l-2.9,2.8
				C161.5,68,120.6,67.3,94.9,92s-26.4,65.7-1.6,91.4c12.2,12.6,29,19.8,46.5,19.8c18,0,35.2-7.5,47.5-20.8l2.9,2.7
				C177.2,199.1,158.9,207.1,139.8,207.2L139.8,207.2z"/>
			
				<linearGradient id="SVGID_2_" gradientUnits="userSpaceOnUse" x1="218.6596" y1="280.2204" x2="-0.9704" y2="60.6005" gradientTransform="matrix(1 0 0 -1 0 280)">
				<stop  offset="0" style="stop-color:#ED4E39"/>
				<stop  offset="1" style="stop-color:#FF902C"/>
			</linearGradient>
			<path class="st2" d="M69.5,141L5.6,113.1l86.2-21.9l21.6-82.1h53.4l20.7,81l60.7-25.4l1.5,3.7l-65,27.2l-21.1-82.4h-47.2
				L95.1,94.5l-77.2,19.6l53.2,23.3L69.5,141z"/>
			
				<linearGradient id="SVGID_3_" gradientUnits="userSpaceOnUse" x1="192.9463" y1="306.2037" x2="-26.3238" y2="86.9438" gradientTransform="matrix(1 0 0 -1 0 280)">
				<stop  offset="0" style="stop-color:#ED4E39"/>
				<stop  offset="1" style="stop-color:#FF902C"/>
			</linearGradient>
			<path class="st3" d="M69.6,140.4L9.4,114l20.3-50.7l60.1,25.2L63.7,25.4l76.1,41.5l71.1-38.8l1.9,3.5l-73,39.8L71.7,34.3L97.3,96
				L31.9,68.6l-17.4,43.3l56.7,24.8L69.6,140.4z"/>
			
				<linearGradient id="SVGID_4_" gradientUnits="userSpaceOnUse" x1="852.98" y1="3972.6699" x2="633.35" y2="3753.04" gradientTransform="matrix(1 0 0 1 0 -3060.8301)">
				<stop  offset="0" style="stop-color:#ED4E39"/>
				<stop  offset="1" style="stop-color:#FF902C"/>
			</linearGradient>
			<path class="st4" d="M166.9,268.1h-53.4l-21.6-82.1L5.6,164.2l63.9-27.9l1.6,3.7l-53.2,23.3l77.2,19.6l21.4,81.4h47.2l21.1-82.5
				l65,27.2l-1.5,3.7l-60.7-25.4L166.9,268.1z"/>
			
				<linearGradient id="SVGID_5_" gradientUnits="userSpaceOnUse" x1="826.2456" y1="3997.3845" x2="606.9756" y2="3778.1245" gradientTransform="matrix(1 0 0 1 0 -3060.8301)">
				<stop  offset="0" style="stop-color:#ED4E39"/>
				<stop  offset="1" style="stop-color:#FF902C"/>
			</linearGradient>
			<path class="st5" d="M63.7,251.7l26.2-63.2l-60.1,25.2L9.4,163.1l60.2-26.4l1.6,3.7l-56.7,24.8l17.4,43.3l65.3-27.4l-25.6,61.7
				l68.1-37.1l73,39.8l-1.9,3.5l-71.1-38.8C139.8,210.2,63.7,251.7,63.7,251.7z"/>
			
				<linearGradient id="SVGID_6_" gradientUnits="userSpaceOnUse" x1="70.5" y1="430.88" x2="70.5" y2="-279.3" gradientTransform="matrix(1 0 0 -1 0 280)">
				<stop  offset="0" style="stop-color:#ED4E39"/>
				<stop  offset="1" style="stop-color:#FF902C"/>
			</linearGradient>
			<circle class="st6" cx="70.5" cy="139.5" r="11.5"/>
			
				<linearGradient id="SVGID_7_" gradientUnits="userSpaceOnUse" x1="93.5" y1="430.88" x2="93.5" y2="-279.3" gradientTransform="matrix(1 0 0 -1 0 280)">
				<stop  offset="0" style="stop-color:#ED4E39"/>
				<stop  offset="1" style="stop-color:#FF902C"/>
			</linearGradient>
			<circle class="st7" cx="93.5" cy="93.5" r="11.5"/>
			
				<linearGradient id="SVGID_8_" gradientUnits="userSpaceOnUse" x1="185.5" y1="430.88" x2="185.5" y2="-279.3" gradientTransform="matrix(1 0 0 -1 0 280)">
				<stop  offset="0" style="stop-color:#ED4E39"/>
				<stop  offset="1" style="stop-color:#FF902C"/>
			</linearGradient>
			<circle class="st8" cx="185.5" cy="185.5" r="11.5"/>
			
				<linearGradient id="SVGID_9_" gradientUnits="userSpaceOnUse" x1="93.5" y1="430.88" x2="93.5" y2="-279.3" gradientTransform="matrix(1 0 0 -1 0 280)">
				<stop  offset="0" style="stop-color:#ED4E39"/>
				<stop  offset="1" style="stop-color:#FF902C"/>
			</linearGradient>
			<circle class="st9" cx="93.5" cy="185.5" r="11.5"/>
			
				<linearGradient id="SVGID_10_" gradientUnits="userSpaceOnUse" x1="185.5" y1="430.88" x2="185.5" y2="-279.3" gradientTransform="matrix(1 0 0 -1 0 280)">
				<stop  offset="0" style="stop-color:#ED4E39"/>
				<stop  offset="1" style="stop-color:#FF902C"/>
			</linearGradient>
			<circle class="st10" cx="185.5" cy="93.5" r="11.5"/>
			
				<linearGradient id="SVGID_11_" gradientUnits="userSpaceOnUse" x1="139.5" y1="430.88" x2="139.5" y2="-279.3" gradientTransform="matrix(1 0 0 -1 0 280)">
				<stop  offset="0" style="stop-color:#ED4E39"/>
				<stop  offset="1" style="stop-color:#FF902C"/>
			</linearGradient>
			<circle class="st11" cx="139.5" cy="70.5" r="11.5"/>
			
				<linearGradient id="SVGID_12_" gradientUnits="userSpaceOnUse" x1="164.5" y1="431.75" x2="164.5" y2="-278.43" gradientTransform="matrix(1 0 0 -1 0 280)">
				<stop  offset="0" style="stop-color:#ED4E39"/>
				<stop  offset="1" style="stop-color:#FF902C"/>
			</linearGradient>
			<circle class="st12" cx="164.5" cy="11.5" r="11.5"/>
			
				<linearGradient id="SVGID_13_" gradientUnits="userSpaceOnUse" x1="114.5" y1="431.75" x2="114.5" y2="-278.43" gradientTransform="matrix(1 0 0 -1 0 280)">
				<stop  offset="0" style="stop-color:#ED4E39"/>
				<stop  offset="1" style="stop-color:#FF902C"/>
			</linearGradient>
			<circle class="st13" cx="114.5" cy="11.5" r="11.5"/>
			
				<linearGradient id="SVGID_14_" gradientUnits="userSpaceOnUse" x1="67.5" y1="431.79" x2="67.5" y2="-278.38" gradientTransform="matrix(1 0 0 -1 0 280)">
				<stop  offset="0" style="stop-color:#ED4E39"/>
				<stop  offset="1" style="stop-color:#FF902C"/>
			</linearGradient>
			<circle class="st14" cx="67.5" cy="30.5" r="11.5"/>
			
				<linearGradient id="SVGID_15_" gradientUnits="userSpaceOnUse" x1="30.5" y1="431.73" x2="30.5" y2="-278.45" gradientTransform="matrix(1 0 0 -1 0 280)">
				<stop  offset="0" style="stop-color:#ED4E39"/>
				<stop  offset="1" style="stop-color:#FF902C"/>
			</linearGradient>
			<circle class="st15" cx="30.5" cy="66.5" r="11.5"/>
			
				<linearGradient id="SVGID_16_" gradientUnits="userSpaceOnUse" x1="11.5" y1="431.45" x2="11.5" y2="-278.73" gradientTransform="matrix(1 0 0 -1 0 280)">
				<stop  offset="0" style="stop-color:#ED4E39"/>
				<stop  offset="1" style="stop-color:#FF902C"/>
			</linearGradient>
			<circle class="st16" cx="11.5" cy="113.5" r="11.5"/>
			
				<linearGradient id="SVGID_17_" gradientUnits="userSpaceOnUse" x1="11.5" y1="431.12" x2="11.5" y2="-279.06" gradientTransform="matrix(1 0 0 -1 0 280)">
				<stop  offset="0" style="stop-color:#ED4E39"/>
				<stop  offset="1" style="stop-color:#FF902C"/>
			</linearGradient>
			<circle class="st17" cx="11.5" cy="164.5" r="11.5"/>
			
				<linearGradient id="SVGID_18_" gradientUnits="userSpaceOnUse" x1="30.5" y1="430.48" x2="30.5" y2="-279.7" gradientTransform="matrix(1 0 0 -1 0 280)">
				<stop  offset="0" style="stop-color:#ED4E39"/>
				<stop  offset="1" style="stop-color:#FF902C"/>
			</linearGradient>
			<circle class="st18" cx="30.5" cy="211.5" r="11.5"/>
			
				<linearGradient id="SVGID_19_" gradientUnits="userSpaceOnUse" x1="67.5" y1="429.96" x2="67.5" y2="-280.22" gradientTransform="matrix(1 0 0 -1 0 280)">
				<stop  offset="0" style="stop-color:#ED4E39"/>
				<stop  offset="1" style="stop-color:#FF902C"/>
			</linearGradient>
			<circle class="st19" cx="67.5" cy="248.5" r="11.5"/>
			
				<linearGradient id="SVGID_20_" gradientUnits="userSpaceOnUse" x1="114.5" y1="430" x2="114.5" y2="-280.17" gradientTransform="matrix(1 0 0 -1 0 280)">
				<stop  offset="0" style="stop-color:#ED4E39"/>
				<stop  offset="1" style="stop-color:#FF902C"/>
			</linearGradient>
			<circle class="st20" cx="114.5" cy="267.5" r="11.5"/>
			
				<linearGradient id="SVGID_21_" gradientUnits="userSpaceOnUse" x1="164.5" y1="430" x2="164.5" y2="-280.17" gradientTransform="matrix(1 0 0 -1 0 280)">
				<stop  offset="0" style="stop-color:#ED4E39"/>
				<stop  offset="1" style="stop-color:#FF902C"/>
			</linearGradient>
			<circle class="st21" cx="164.5" cy="267.5" r="11.5"/>
			
				<linearGradient id="SVGID_22_" gradientUnits="userSpaceOnUse" x1="211.5" y1="429.96" x2="211.5" y2="-280.22" gradientTransform="matrix(1 0 0 -1 0 280)">
				<stop  offset="0" style="stop-color:#ED4E39"/>
				<stop  offset="1" style="stop-color:#FF902C"/>
			</linearGradient>
			<circle class="st22" cx="211.5" cy="248.5" r="11.5"/>
			
				<linearGradient id="SVGID_23_" gradientUnits="userSpaceOnUse" x1="248.5" y1="430.48" x2="248.5" y2="-279.7" gradientTransform="matrix(1 0 0 -1 0 280)">
				<stop  offset="0" style="stop-color:#ED4E39"/>
				<stop  offset="1" style="stop-color:#FF902C"/>
			</linearGradient>
			<circle class="st23" cx="248.5" cy="211.5" r="11.5"/>
			
				<linearGradient id="SVGID_24_" gradientUnits="userSpaceOnUse" x1="248.5" y1="431.73" x2="248.5" y2="-278.45" gradientTransform="matrix(1 0 0 -1 0 280)">
				<stop  offset="0" style="stop-color:#ED4E39"/>
				<stop  offset="1" style="stop-color:#FF902C"/>
			</linearGradient>
			<circle class="st24" cx="248.5" cy="66.5" r="11.5"/>
			
				<linearGradient id="SVGID_25_" gradientUnits="userSpaceOnUse" x1="211.5" y1="431.79" x2="211.5" y2="-278.38" gradientTransform="matrix(1 0 0 -1 0 280)">
				<stop  offset="0" style="stop-color:#ED4E39"/>
				<stop  offset="1" style="stop-color:#FF902C"/>
			</linearGradient>
			<circle class="st25" cx="211.5" cy="30.5" r="11.5"/>
			
				<linearGradient id="SVGID_26_" gradientUnits="userSpaceOnUse" x1="139.5" y1="430.88" x2="139.5" y2="-279.3" gradientTransform="matrix(1 0 0 -1 0 280)">
				<stop  offset="0" style="stop-color:#ED4E39"/>
				<stop  offset="1" style="stop-color:#FF902C"/>
			</linearGradient>
			<circle class="st26" cx="139.5" cy="208.5" r="11.5"/>
		</g>
	</g>
</g>
<g>
	<path class="st0" d="M354.4,31.5h47.5v7.4h-39.2v30.7h32v7.4h-32v31.3h41.4v7.4h-49.7V31.5z"/>
	<path class="st0" d="M421.7,55.5h8v9c0,2.6-0.2,4.8-0.2,4.8h0.2c2.2-5.5,9.8-15.2,24.1-15.2c14.9,0,20.2,8.5,20.2,23.4v38.4h-8.2
		V79.6c0-9.5-1.4-17.9-13.1-17.9c-10.3,0-19.2,7.1-22,17c-0.7,2.5-1,5.3-1,8.2v28.9h-8.2V55.5z"/>
	<path class="st0" d="M517.3,54c14.6,0,19.7,11.4,19.7,11.4h0.2c0,0-0.2-2-0.2-4.6V31.5h8.2v84.4h-7.9v-6.4c0-2.6,0.2-4.3,0.2-4.3
		h-0.2c0,0-4.9,12.1-20.8,12.1c-16.2,0-26.3-13-26.3-31.7C490.1,66.5,501.4,54,517.3,54z M517.6,109.9c10.1,0,19.6-7.2,19.6-24.4
		c0-12.2-6.2-24.2-19.2-24.2c-10.7,0-19.4,9-19.4,24.2C498.5,100.5,506.3,109.9,517.6,109.9z"/>
	<path class="st0" d="M566,55.5h7.8v5.9c0,2.6-0.2,4.7-0.2,4.7h0.2c0,0,4.9-12,20.9-12c16.2,0,26.3,13,26.3,31.7
		c0,19.1-11.4,31.6-27,31.6c-14.5,0-19.8-11.5-19.8-11.5h-0.2c0,0,0.2,2.2,0.2,5.3v28.8H566V55.5z M593.1,110.1
		c10.7,0,19.4-9,19.4-24.4c0-14.8-7.8-24.2-19.1-24.2c-10.1,0-19.6,7.2-19.6,24.4C573.9,97.9,580.6,110.1,593.1,110.1z"/>
	<path class="st0" d="M665.3,54c17.6,0,31.9,13.4,31.9,31.3c0,18.2-14.3,31.9-31.9,31.9c-17.6,0-31.9-13.7-31.9-31.9
		C633.4,67.5,647.7,54,665.3,54z M665.3,109.9c13,0,23.5-10.6,23.5-24.6c0-13.7-10.6-23.9-23.5-23.9c-13,0-23.5,10.2-23.5,23.9
		C641.8,99.4,652.4,109.9,665.3,109.9z"/>
	<path class="st0" d="M713.5,31.5h8.5v10.2h-8.5V31.5z M713.7,55.5h8.2v60.4h-8.2V55.5z"/>
	<path class="st0" d="M742.7,55.5h8v9c0,2.6-0.2,4.8-0.2,4.8h0.2c2.2-5.5,9.8-15.2,24.1-15.2c14.9,0,20.2,8.5,20.2,23.4v38.4h-8.2
		V79.6c0-9.5-1.4-17.9-13.1-17.9c-10.3,0-19.2,7.1-22,17c-0.7,2.5-1,5.3-1,8.2v28.9h-8.2V55.5z"/>
	<path class="st0" d="M817.4,63h-7.9v-6.8h8V38.8h8v17.4h15.1V63h-15.1v30c0,14.2,9,16,13.6,16c1.7,0,2.8-0.2,2.8-0.2v7.3
		c0,0-1.3,0.2-3.5,0.2c-7,0-21-2.3-21-22.4V63z"/>
	<path class="st0" d="M892.4,31.5h8.3v38.4h49V31.5h8.3v84.4h-8.3V77.3h-49v38.5h-8.3V31.5z"/>
	<path class="st0" d="M1006.7,54c16.7,0,25.2,12.8,25.2,27.8c0,1.4-0.2,4.2-0.2,4.2h-46.3c0.4,15.5,10.9,23.9,23.4,23.9
		c11,0,18.4-7.3,18.4-7.3l3.7,6.2c0,0-8.8,8.4-22.3,8.4c-18,0-31.6-13-31.6-31.6C977,65.9,990.4,54,1006.7,54z M1023.6,79.3
		c-0.5-12.6-8.2-18.5-17.2-18.5c-10.1,0-18.8,6.4-20.8,18.5H1023.6z"/>
	<path class="st0" d="M1080.8,78.5h3.4v-1.6c0-11.6-6.4-15.6-15-15.6c-10,0-17,5.8-17,5.8l-3.8-6.2c0,0,7.9-6.8,21.5-6.8
		c14.5,0,22.6,8,22.6,23.2v38.6h-7.8v-6.6c0-3,0.2-5,0.2-5h-0.2c0,0-5,13.1-20.2,13.1c-10.1,0-20.5-5.9-20.5-17.9
		C1043.8,79,1070.3,78.5,1080.8,78.5z M1065.6,110.3c11.5,0,18.5-12,18.5-22.4v-2.6h-3.5c-9.5,0-28.4,0.4-28.4,13.7
		C1052.2,104.5,1056.6,110.3,1065.6,110.3z"/>
	<path class="st0" d="M1111.7,31.5h8.2v68.3c0,7.9,3.6,9.1,6.7,9.1c1.1,0,2-0.1,2-0.1v7.3c0,0-1.4,0.2-3,0.2
		c-5,0-13.9-1.6-13.9-14.8V31.5z"/>
	<path class="st0" d="M1145.4,63h-7.9v-6.8h8V38.8h8v17.4h15.1V63h-15.1v30c0,14.2,9,16,13.6,16c1.7,0,2.8-0.2,2.8-0.2v7.3
		c0,0-1.3,0.2-3.5,0.2c-7,0-21-2.3-21-22.4V63z"/>
	<path class="st0" d="M1184.6,31.5h8.2v32.6c0,2.8-0.2,4.9-0.2,4.9h0.2c2.3-5.8,10.3-15,24-15c14.9,0,20.2,8.5,20.2,23.4v38.4h-8.2
		V79.6c0-9.5-1.4-17.9-13.1-17.9c-10.3,0-19.2,7.1-22,17.2c-0.7,2.4-1,5.2-1,8v28.9h-8.2V31.5z"/>
</g>
</svg>
