<?xml version="1.0" encoding="utf-8"?>
<!-- Generator: Adobe Illustrator 23.1.1, SVG Export Plug-In . SVG Version: 6.00 Build 0)  -->
<svg version="1.1" id="Layer_1" xmlns="http://www.w3.org/2000/svg" xmlns:xlink="http://www.w3.org/1999/xlink" x="0px" y="0px"
	 viewBox="0 0 1654.6 271.4" style="enable-background:new 0 0 1654.6 271.4;" xml:space="preserve">
<style type="text/css">
	.st0{fill:url(#SVGID_1_);}
	.st1{fill:url(#SVGID_2_);}
	.st2{fill:url(#SVGID_3_);}
	.st3{fill:url(#SVGID_4_);}
	.st4{fill:url(#SVGID_5_);}
	.st5{fill:url(#SVGID_6_);}
	.st6{fill:url(#SVGID_7_);}
	.st7{fill:url(#SVGID_8_);}
	.st8{fill:url(#SVGID_9_);}
	.st9{fill:url(#SVGID_10_);}
	.st10{fill:url(#SVGID_11_);}
	.st11{fill:url(#SVGID_12_);}
	.st12{fill:url(#SVGID_13_);}
	.st13{fill:url(#SVGID_14_);}
    
	.st14{fill:url(#SVGID_15_);}
	.st15{fill:url(#SVGID_16_);}
	.st16{fill:url(#SVGID_17_);}
	.st17{fill:url(#SVGID_18_);}
	.st18{fill:url(#SVGID_19_);}
	.st19{fill:url(#SVGID_20_);}
	.st20{fill:url(#SVGID_21_);}
	.st21{fill:url(#SVGID_22_);}
	.st22{fill:url(#SVGID_23_);}
	.st23{fill:url(#SVGID_24_);}
	.st24{fill:url(#SVGID_25_);}
	.st25{fill:url(#SVGID_26_);}
	.st26{fill:#404041;}
</style>
<title>client-health-logo</title>
<g>
	<g id="Layer_1-2">
		
			<linearGradient id="SVGID_1_" gradientUnits="userSpaceOnUse" x1="126.85" y1="2890.8999" x2="126.85" y2="3024.5" gradientTransform="matrix(1 0 0 1 0 -2822)">
			<stop  offset="0" style="stop-color:#ED4E39"/>
			<stop  offset="1" style="stop-color:#FF902C"/>
		</linearGradient>
		<path class="st0" d="M135.7,202.5c-36.9,0-66.8-29.9-66.8-66.8s29.9-66.8,66.8-66.8c18.1,0,35.5,7.4,48,20.4l-2.8,2.7
			C156.8,67,117,66.3,92,90.4s-25.7,63.9-1.6,88.9c11.9,12.3,28.2,19.2,45.3,19.2c17.5,0,34.3-7.3,46.2-20.2l2.9,2.6
			C172.1,194.7,154.3,202.4,135.7,202.5L135.7,202.5z"/>
		
			<linearGradient id="SVGID_2_" gradientUnits="userSpaceOnUse" x1="212.285" y1="2822.2151" x2="-1.135" y2="3035.635" gradientTransform="matrix(1 0 0 1 0 -2822)">
			<stop  offset="0" style="stop-color:#ED4E39"/>
			<stop  offset="1" style="stop-color:#FF902C"/>
		</linearGradient>
		<path class="st1" d="M67.4,137.5L5.3,110.3l83.8-21.2l21-79.8H162L182,88l59-24.7l1.5,3.6l-63.1,26.5l-20.5-80.1H113l-20.8,79
			l-75,19l51.7,22.6L67.4,137.5L67.4,137.5z"/>
		
			<linearGradient id="SVGID_3_" gradientUnits="userSpaceOnUse" x1="187.46" y1="2797.3899" x2="-25.96" y2="3010.8101" gradientTransform="matrix(1 0 0 1 0 -2822)">
			<stop  offset="0" style="stop-color:#ED4E39"/>
			<stop  offset="1" style="stop-color:#FF902C"/>
		</linearGradient>
		<path class="st2" d="M67.4,137.5L8.8,111.8l19.8-49.3L87.1,87L61.6,25.6L135.7,66l69.2-37.7l1.9,3.4l-71.1,38.8L69.4,34.2l24.9,60
			L30.7,67.6l-16.9,42.1L69,133.8L67.4,137.5L67.4,137.5z"/>
		
			<linearGradient id="SVGID_4_" gradientUnits="userSpaceOnUse" x1="828.6647" y1="-3741.3254" x2="615.2447" y2="-3527.9053" gradientTransform="matrix(1 0 0 -1 0 -2853.76)">
			<stop  offset="0" style="stop-color:#ED4E39"/>
			<stop  offset="1" style="stop-color:#FF902C"/>
		</linearGradient>
		<path class="st3" d="M161.9,262H110l-21-79.7L5.3,161.1l62.1-27.2l1.6,3.6l-51.7,22.6l75,19l20.8,79.1H159l20.5-80.1l63.1,26.5
			l-1.5,3.6l-59-24.7L161.9,262z"/>
		
			<linearGradient id="SVGID_5_" gradientUnits="userSpaceOnUse" x1="803.8151" y1="-3766.1748" x2="590.3951" y2="-3552.7549" gradientTransform="matrix(1 0 0 -1 0 -2853.76)">
			<stop  offset="0" style="stop-color:#ED4E39"/>
			<stop  offset="1" style="stop-color:#FF902C"/>
		</linearGradient>
		<path class="st4" d="M61.6,245.8l25.5-61.5l-58.5,24.5L8.8,159.5l58.6-25.6l1.6,3.6l-55.2,24.1l16.9,42.1l63.6-26.6l-24.9,60
			l66.3-36.1l71.1,38.8l-1.9,3.4l-69.2-37.7L61.6,245.8L61.6,245.8z"/>
		
			<linearGradient id="SVGID_6_" gradientUnits="userSpaceOnUse" x1="68.2" y1="2673.48" x2="68.2" y2="3368.55" gradientTransform="matrix(1 0 0 1 0 -2822)">
			<stop  offset="0" style="stop-color:#ED4E39"/>
			<stop  offset="1" style="stop-color:#FF902C"/>
		</linearGradient>
		<circle class="st5" cx="68.2" cy="135.7" r="11.3"/>
		
			<linearGradient id="SVGID_7_" gradientUnits="userSpaceOnUse" x1="90.7" y1="2673.48" x2="90.7" y2="3368.55" gradientTransform="matrix(1 0 0 1 0 -2822)">
			<stop  offset="0" style="stop-color:#ED4E39"/>
			<stop  offset="1" style="stop-color:#FF902C"/>
		</linearGradient>
		<circle class="st6" cx="90.7" cy="90.7" r="11.3"/>
		
			<linearGradient id="SVGID_8_" gradientUnits="userSpaceOnUse" x1="180.7" y1="2673.48" x2="180.7" y2="3368.55" gradientTransform="matrix(1 0 0 1 0 -2822)">
			<stop  offset="0" style="stop-color:#ED4E39"/>
			<stop  offset="1" style="stop-color:#FF902C"/>
		</linearGradient>
		<circle class="st7" cx="180.7" cy="180.7" r="11.3"/>
		
			<linearGradient id="SVGID_9_" gradientUnits="userSpaceOnUse" x1="90.7" y1="2673.48" x2="90.7" y2="3368.55" gradientTransform="matrix(1 0 0 1 0 -2822)">
			<stop  offset="0" style="stop-color:#ED4E39"/>
			<stop  offset="1" style="stop-color:#FF902C"/>
		</linearGradient>
		<circle class="st8" cx="90.7" cy="180.7" r="11.3"/>
		
			<linearGradient id="SVGID_10_" gradientUnits="userSpaceOnUse" x1="180.7" y1="2673.48" x2="180.7" y2="3368.55" gradientTransform="matrix(1 0 0 1 0 -2822)">
			<stop  offset="0" style="stop-color:#ED4E39"/>
			<stop  offset="1" style="stop-color:#FF902C"/>
		</linearGradient>
		<circle class="st9" cx="180.7" cy="90.7" r="11.3"/>
		
			<linearGradient id="SVGID_11_" gradientUnits="userSpaceOnUse" x1="135.7" y1="2673.48" x2="135.7" y2="3368.55" gradientTransform="matrix(1 0 0 1 0 -2822)">
			<stop  offset="0" style="stop-color:#ED4E39"/>
			<stop  offset="1" style="stop-color:#FF902C"/>
		</linearGradient>
		<circle class="st10" cx="135.7" cy="68.2" r="11.3"/>
		
			<linearGradient id="SVGID_12_" gradientUnits="userSpaceOnUse" x1="160.4" y1="2673.48" x2="160.4" y2="3368.55" gradientTransform="matrix(1 0 0 1 0 -2822)">
			<stop  offset="0" style="stop-color:#ED4E39"/>
			<stop  offset="1" style="stop-color:#FF902C"/>
		</linearGradient>
		<circle class="st11" cx="160.4" cy="11.3" r="11.3"/>
		
			<linearGradient id="SVGID_13_" gradientUnits="userSpaceOnUse" x1="111.5" y1="2673.48" x2="111.5" y2="3368.55" gradientTransform="matrix(1 0 0 1 0 -2822)">
			<stop  offset="0" style="stop-color:#ED4E39"/>
			<stop  offset="1" style="stop-color:#FF902C"/>
		</linearGradient>
		<circle class="st12" cx="111.5" cy="11.3" r="11.3"/>
		
			<linearGradient id="SVGID_14_" gradientUnits="userSpaceOnUse" x1="65.5" y1="2673.48" x2="65.5" y2="3368.55" gradientTransform="matrix(1 0 0 1 0 -2822)">
			<stop  offset="0" style="stop-color:#ED4E39"/>
			<stop  offset="1" style="stop-color:#FF902C"/>
		</linearGradient>
		<circle class="st13" cx="65.5" cy="29.9" r="11.3"/>
		
			<linearGradient id="SVGID_15_" gradientUnits="userSpaceOnUse" x1="29.6" y1="2673.48" x2="29.6" y2="3368.55" gradientTransform="matrix(1 0 0 1 0 -2822)">
			<stop  offset="0" style="stop-color:#ED4E39"/>
			<stop  offset="1" style="stop-color:#FF902C"/>
		</linearGradient>
		<circle class="st14" cx="29.6" cy="65.1" r="11.3"/>
		
			<linearGradient id="SVGID_16_" gradientUnits="userSpaceOnUse" x1="11.3" y1="2673.48" x2="11.3" y2="3368.55" gradientTransform="matrix(1 0 0 1 0 -2822)">
			<stop  offset="0" style="stop-color:#ED4E39"/>
			<stop  offset="1" style="stop-color:#FF902C"/>
		</linearGradient>
		<circle class="st15" cx="11.3" cy="110.8" r="11.3"/>
		
			<linearGradient id="SVGID_17_" gradientUnits="userSpaceOnUse" x1="11.3" y1="2673.48" x2="11.3" y2="3368.55" gradientTransform="matrix(1 0 0 1 0 -2822)">
			<stop  offset="0" style="stop-color:#ED4E39"/>
			<stop  offset="1" style="stop-color:#FF902C"/>
		</linearGradient>
		<circle class="st16" cx="11.3" cy="160.4" r="11.3"/>
		
			<linearGradient id="SVGID_18_" gradientUnits="userSpaceOnUse" x1="29.6" y1="2673.48" x2="29.6" y2="3368.55" gradientTransform="matrix(1 0 0 1 0 -2822)">
			<stop  offset="0" style="stop-color:#ED4E39"/>
			<stop  offset="1" style="stop-color:#FF902C"/>
		</linearGradient>
		<circle class="st17" cx="29.6" cy="205.8" r="11.3"/>
		
			<linearGradient id="SVGID_19_" gradientUnits="userSpaceOnUse" x1="65.5" y1="2673.48" x2="65.5" y2="3368.55" gradientTransform="matrix(1 0 0 1 0 -2822)">
			<stop  offset="0" style="stop-color:#ED4E39"/>
			<stop  offset="1" style="stop-color:#FF902C"/>
		</linearGradient>
		<circle class="st18" cx="65.5" cy="241.5" r="11.3"/>
		
			<linearGradient id="SVGID_20_" gradientUnits="userSpaceOnUse" x1="111.5" y1="2673.48" x2="111.5" y2="3368.55" gradientTransform="matrix(1 0 0 1 0 -2822)">
			<stop  offset="0" style="stop-color:#ED4E39"/>
			<stop  offset="1" style="stop-color:#FF902C"/>
		</linearGradient>
		<circle class="st19" cx="111.5" cy="260.1" r="11.3"/>
		
			<linearGradient id="SVGID_21_" gradientUnits="userSpaceOnUse" x1="160.4" y1="2673.48" x2="160.4" y2="3368.55" gradientTransform="matrix(1 0 0 1 0 -2822)">
			<stop  offset="0" style="stop-color:#ED4E39"/>
			<stop  offset="1" style="stop-color:#FF902C"/>
		</linearGradient>
		<circle class="st20" cx="160.4" cy="260.1" r="11.3"/>
		
			<linearGradient id="SVGID_22_" gradientUnits="userSpaceOnUse" x1="205.8" y1="2673.48" x2="205.8" y2="3368.55" gradientTransform="matrix(1 0 0 1 0 -2822)">
			<stop  offset="0" style="stop-color:#ED4E39"/>
			<stop  offset="1" style="stop-color:#FF902C"/>
		</linearGradient>
		<circle class="st21" cx="205.8" cy="241.5" r="11.3"/>
		
			<linearGradient id="SVGID_23_" gradientUnits="userSpaceOnUse" x1="241.8" y1="2673.48" x2="241.8" y2="3368.55" gradientTransform="matrix(1 0 0 1 0 -2822)">
			<stop  offset="0" style="stop-color:#ED4E39"/>
			<stop  offset="1" style="stop-color:#FF902C"/>
		</linearGradient>
		<circle class="st22" cx="241.8" cy="205.8" r="11.3"/>
		
			<linearGradient id="SVGID_24_" gradientUnits="userSpaceOnUse" x1="241.8" y1="2673.48" x2="241.8" y2="3368.55" gradientTransform="matrix(1 0 0 1 0 -2822)">
			<stop  offset="0" style="stop-color:#ED4E39"/>
			<stop  offset="1" style="stop-color:#FF902C"/>
		</linearGradient>
		<circle class="st23" cx="241.8" cy="65.1" r="11.3"/>
		
			<linearGradient id="SVGID_25_" gradientUnits="userSpaceOnUse" x1="205.8" y1="2673.48" x2="205.8" y2="3368.55" gradientTransform="matrix(1 0 0 1 0 -2822)">
			<stop  offset="0" style="stop-color:#ED4E39"/>
			<stop  offset="1" style="stop-color:#FF902C"/>
		</linearGradient>
		<circle class="st24" cx="205.8" cy="29.9" r="11.3"/>
		
			<linearGradient id="SVGID_26_" gradientUnits="userSpaceOnUse" x1="135.7" y1="2673.48" x2="135.7" y2="3368.55" gradientTransform="matrix(1 0 0 1 0 -2822)">
			<stop  offset="0" style="stop-color:#ED4E39"/>
			<stop  offset="1" style="stop-color:#FF902C"/>
		</linearGradient>
		<circle class="st25" cx="135.7" cy="203.2" r="11.3"/>
		<path class="st26" d="M383.7,134.4"/>
	</g>
</g>
<g>
	<path class="st26" d="M331,64.6h71.3v11.2h-58.9v46.1h48.1V133h-48.1v47h62.1v11.2H331V64.6z"/>
	<path class="st26" d="M431.9,100.6H444v13.5c0,4-0.4,7.2-0.4,7.2h0.4c3.2-8.3,14.8-22.9,36.2-22.9c22.3,0,30.2,12.8,30.2,35.1v57.6
		h-12.2v-54.4c0-14.2-2.2-26.8-19.6-26.8c-15.5,0-28.8,10.6-32.9,25.6c-1.1,3.8-1.4,7.9-1.4,12.2v43.4h-12.2v-90.5H431.9z"/>
	<path class="st26" d="M575.2,98.4c22,0,29.5,17.1,29.5,17.1h0.4c0,0-0.4-3.1-0.4-6.8V64.6H617v126.5h-11.9v-9.5
		c0-4,0.4-6.5,0.4-6.5h-0.4c0,0-7.4,18.2-31.1,18.2c-24.3,0-39.4-19.4-39.4-47.5C534.5,117.2,551.4,98.4,575.2,98.4z M575.7,182.3
		c15.1,0,29.3-10.8,29.3-36.5c0-18.4-9.4-36.4-28.8-36.4c-16,0-29.2,13.5-29.2,36.4C547.1,168.1,558.8,182.3,575.7,182.3z"/>
	<path class="st26" d="M648.3,100.6H660v8.8c0,4-0.4,7-0.4,7h0.4c0,0,7.4-18,31.3-18c24.3,0,39.4,19.4,39.4,47.5
		c0,28.6-17.1,47.3-40.5,47.3c-21.8,0-29.7-17.3-29.7-17.3h-0.4c0,0,0.4,3.2,0.4,7.9V227h-12.2V100.6z M689,182.5
		c16,0,29.2-13.5,29.2-36.5c0-22.1-11.7-36.4-28.6-36.4c-15.1,0-29.3,10.8-29.3,36.5C660.2,164.3,670.2,182.5,689,182.5z"/>
	<path class="st26" d="M797.3,98.4c26.5,0,47.9,20.2,47.9,47c0,27.4-21.4,47.9-47.9,47.9s-47.9-20.5-47.9-47.9
		C749.4,118.6,770.9,98.4,797.3,98.4z M797.3,182.3c19.4,0,35.3-15.8,35.3-36.9c0-20.5-15.8-35.8-35.3-35.8
		c-19.4,0-35.3,15.3-35.3,35.8C762,166.5,777.9,182.3,797.3,182.3z"/>
	<path class="st26" d="M869.5,64.6h12.8v15.3h-12.8V64.6z M869.9,100.6h12.2v90.5h-12.2V100.6z"/>
	<path class="st26" d="M913.4,100.6h12.1v13.5c0,4-0.4,7.2-0.4,7.2h0.4c3.2-8.3,14.8-22.9,36.2-22.9c22.3,0,30.2,12.8,30.2,35.1
		v57.6h-12.2v-54.4c0-14.2-2.2-26.8-19.6-26.8c-15.5,0-28.8,10.6-32.9,25.6c-1.1,3.8-1.4,7.9-1.4,12.2v43.4h-12.2v-90.5H913.4z"/>
	<path class="st26" d="M1025.4,111.9h-11.9v-10.3h12.1v-26h12.1v26.1h22.7V112h-22.7v45c0,21.2,13.5,23.9,20.3,23.9
		c2.5,0,4.1-0.4,4.1-0.4v11c0,0-2,0.4-5.2,0.4c-10.4,0-31.5-3.4-31.5-33.7V111.9z"/>
	<path class="st26" d="M1137.9,64.6h12.4v57.6h73.4V64.6h12.4v126.5h-12.4v-57.8h-73.4v57.8h-12.4V64.6z"/>
	<path class="st26" d="M1309.4,98.4c25,0,37.8,19.3,37.8,41.8c0,2.2-0.4,6.3-0.4,6.3h-69.5c0.5,23.2,16.4,35.8,35.1,35.8
		c16.6,0,27.5-11,27.5-11l5.6,9.4c0,0-13.1,12.6-33.5,12.6c-27,0-47.3-19.4-47.3-47.3C1264.8,116.3,1284.9,98.4,1309.4,98.4z
		 M1334.8,136.4c-0.7-18.9-12.2-27.7-25.7-27.7c-15.1,0-28.3,9.5-31.1,27.7H1334.8z"/>
	<path class="st26" d="M1420.5,135.2h5v-2.3c0-17.5-9.5-23.4-22.5-23.4c-14.9,0-25.6,8.6-25.6,8.6l-5.8-9.4c0,0,11.9-10.3,32.2-10.3
		c21.8,0,33.8,12.1,33.8,34.7v58h-11.7v-9.9c0-4.5,0.4-7.6,0.4-7.6h-0.4c0,0-7.6,19.6-30.2,19.6c-15.1,0-30.8-8.8-30.8-26.8
		C1365,135.9,1404.8,135.2,1420.5,135.2z M1397.8,182.8c17.3,0,27.7-18,27.7-33.7v-4h-5.2c-14.2,0-42.7,0.5-42.7,20.5
		C1377.6,174.2,1384.3,182.8,1397.8,182.8z"/>
	<path class="st26" d="M1466.9,64.6h12.2V167c0,11.9,5.4,13.7,10.1,13.7c1.6,0,3.1-0.2,3.1-0.2v11c0,0-2.2,0.4-4.5,0.4
		c-7.6,0-20.9-2.3-20.9-22.1L1466.9,64.6L1466.9,64.6z"/>
	<path class="st26" d="M1517.5,111.9h-11.9v-10.3h12.1v-26h12.1v26.1h22.7V112h-22.7v45c0,21.2,13.5,23.9,20.3,23.9
		c2.5,0,4.1-0.4,4.1-0.4v11c0,0-2,0.4-5.2,0.4c-10.4,0-31.5-3.4-31.5-33.7V111.9z"/>
	<path class="st26" d="M1576.2,64.6h12.2v49c0,4.1-0.4,7.4-0.4,7.4h0.4c3.4-8.6,15.5-22.5,36-22.5c22.3,0,30.2,12.8,30.2,35.1v57.6
		h-12.2v-54.4c0-14.2-2.2-26.8-19.6-26.8c-15.5,0-28.8,10.6-32.9,25.7c-1.1,3.6-1.4,7.7-1.4,12.1v43.4h-12.2L1576.2,64.6
		L1576.2,64.6z"/>
</g>
</svg>
