<?xml version="1.0" encoding="utf-8"?>
<!-- Generator: Adobe Illustrator 23.1.1, SVG Export Plug-In . SVG Version: 6.00 Build 0)  -->
<svg version="1.1" id="Layer_1" xmlns="http://www.w3.org/2000/svg" xmlns:xlink="http://www.w3.org/1999/xlink" x="0px" y="0px"
	 viewBox="0 0 1414.2 684.9" style="enable-background:new 0 0 1414.2 684.9;" xml:space="preserve">
<style type="text/css">
	.st0{fill:#FFFFFF;}
</style>
<title>client-health-for-windows-10-logo-v</title>
<g>
	<g id="Layer_1-2">
		<g id="Client_Health_for_Windows_10">
			<path class="st0" d="M716.7,208.1c-37.9,0-68.6-30.7-68.6-68.6s30.7-68.6,68.6-68.6c18.6,0,36.4,7.6,49.3,21l-2.9,2.8
				c-24.8-25.7-65.7-26.4-91.4-1.6c-25.7,24.8-26.4,65.7-1.6,91.4c12.2,12.6,29,19.8,46.5,19.8c18,0,35.2-7.6,47.5-20.8l2.9,2.7
				C754.1,200,735.8,208,716.7,208.1L716.7,208.1z"/>
			<path class="st0" d="M646.4,141.1l-63.9-27.9l86.2-21.9l21.6-82.1h53.4l20.7,81l60.7-25.4l1.5,3.7l-65,27.2l-21-82.4h-47.2
				L672,94.6l-77.2,19.6l53.2,23.3L646.4,141.1L646.4,141.1z"/>
			<path class="st0" d="M646.5,141.3l-60.2-26.3l20.3-50.7l60.1,25.2l-26.2-63.2l76.2,41.5L787.8,29l1.9,3.5l-73,39.8l-68.1-37.1
				l25.6,61.7l-65.3-27.4l-17.4,43.3l56.7,24.8L646.5,141.3L646.5,141.3z"/>
			<path class="st0" d="M743.7,269.3h-53.4l-21.6-82.1l-86.2-21.9l63.9-27.9l1.6,3.7l-53.2,23.3l77.2,19.6l21.4,81.4h47.2l21-82.4
				l65,27.2l-1.5,3.7l-60.7-25.4L743.7,269.3z"/>
			<path class="st0" d="M640.5,252.6l26.2-63.2l-60.1,25.2L586.3,164l60.2-26.3l1.6,3.7l-56.7,24.8l17.4,43.3l65.3-27.4l-25.6,61.7
				l68.1-37.1l73,39.8l-1.9,3.5l-71.1-38.8L640.5,252.6L640.5,252.6z"/>
			<circle class="st0" cx="648.9" cy="139.5" r="11.5"/>
			<circle class="st0" cx="671.9" cy="93.5" r="11.5"/>
			<circle class="st0" cx="763.9" cy="185.5" r="11.5"/>
			<circle class="st0" cx="671.9" cy="185.5" r="11.5"/>
			<circle class="st0" cx="763.9" cy="93.5" r="11.5"/>
			<circle class="st0" cx="717.9" cy="70.5" r="11.5"/>
			<circle class="st0" cx="743.9" cy="11.5" r="11.5"/>
			<circle class="st0" cx="692.9" cy="11.5" r="11.5"/>
			<circle class="st0" cx="645.9" cy="30.5" r="11.5"/>
			<circle class="st0" cx="608.9" cy="66.5" r="11.5"/>
			<circle class="st0" cx="589.9" cy="113.5" r="11.5"/>
			<circle class="st0" cx="589.9" cy="164.5" r="11.5"/>
			<circle class="st0" cx="608.9" cy="211.5" r="11.5"/>
			<circle class="st0" cx="645.9" cy="248.5" r="11.5"/>
			<circle class="st0" cx="692.9" cy="267.5" r="11.5"/>
			<circle class="st0" cx="743.9" cy="267.5" r="11.5"/>
			<circle class="st0" cx="789.9" cy="248.5" r="11.5"/>
			<circle class="st0" cx="826.9" cy="211.5" r="11.5"/>
			<circle class="st0" cx="826.9" cy="66.5" r="11.5"/>
			<circle class="st0" cx="789.9" cy="30.5" r="11.5"/>
			<circle class="st0" cx="717.9" cy="208.5" r="11.5"/>
			<path class="st0" d="M338.9,613.9h-7v-6h7v-2.6c0-18.3,13.1-20.6,19.5-20.6c1.2,0,2.3,0.1,3.5,0.2v6.7c-0.9-0.1-1.7-0.2-2.6-0.2
				c-4.3,0-12.4,1.5-12.4,13.8v2.7h14v6h-15v48h-7V613.9z M396.3,605.9c16.2,0,29.3,12.3,29.3,28.7c0,16.2-13.1,29.3-29.3,29.2
				c-16.1,0-29.2-13.1-29.2-29.2C367,618.2,380.1,605.9,396.3,605.9L396.3,605.9z M396.3,657.1c11.9,0,21.6-9.7,21.6-22.5
				c0-11.9-9.6-21.6-21.6-21.6c-11.9,0-21.6,9.6-21.6,21.6c0,0,0,0,0,0C374.7,647.4,384.4,657.1,396.3,657.1z M439.9,606.9h7v9.7
				c0,2.4-0.2,4.3-0.2,4.3h0.1c2.6-8.4,8.6-14.7,17.2-14.7c1,0,2,0.1,2.9,0.3v7.4c-0.9-0.1-1.8-0.2-2.7-0.2
				c-7.7,0-13.4,6.2-15.8,14.3c-1,3.5-1.5,7.1-1.5,10.8v23.2h-7V606.9z M550,596.9c0,0-1.2,6.5-2.5,11.4L533,661.9h-9.4l-19.9-77
				h8.1l14.9,59.8c1,3.9,1.8,8.2,1.8,8.2h0.2c0.1,0,0.7-4.3,1.8-8.2l16.2-59.8h7.2l16.2,59.8c1.1,3.9,1.6,8.2,1.8,8.2h0.2
				c0,0,0.8-4.3,1.8-8.2l15.4-59.8h8.1l-20.5,77h-9.4l-14.6-53.6c-1.3-4.9-2.5-11.4-2.5-11.4H550z M609.9,584.9h8v9h-8V584.9z
				 M610.9,606.9h7v55h-7V606.9z M635.9,606.9h7v8.6c0,1.5-0.1,3-0.2,4.4h0.2c3.9-8.7,12.6-14.2,22.1-14.1
				c10.5,0,18.9,8.5,18.9,18.9c0,0,0,0,0,0.1v38.1l-8-1v-33.2c0-8.7-1.3-16.4-12-16.4c-9.5,0.1-17.7,6.5-20.1,15.6
				c-0.6,2.4-0.9,5-0.9,7.5v26.5h-7L635.9,606.9z M722.8,606.6c13.3,0,17.8,10.3,17.8,10.3h-0.6c-0.1-1.4-0.2-2.9-0.2-4.3v-27.7h8
				v77h-7v-5.1c0-1.3,0.1-2.6,0.2-3.9h-0.2c0,0-4.5,11-18.8,11c-14.7,0-23.8-11.7-23.8-28.7C698.2,617.9,708.5,606.6,722.8,606.6
				L722.8,606.6z M722.6,657.1c9.2,0,17.9-6.6,17.9-22.3c0-11.2-5.7-22.2-17.6-22.2c-9.8,0-17.8,8.2-17.8,22.2
				C705.1,648.4,712.2,657.1,722.6,657.1z M791,605.9c16.2,0,29.3,12.3,29.3,28.7c0,16.2-13.1,29.3-29.3,29.3s-29.3-13.1-29.3-29.3
				C761.7,618.2,774.8,605.9,791,605.9z M791,657.1c11.9,0,21.6-9.7,21.6-22.5c0-11.9-9.6-21.6-21.6-21.6
				c-11.9,0-21.6,9.6-21.6,21.6c0,0,0,0,0,0C769.4,647.4,779.1,657.1,791,657.1z M827.1,606.9h7.7l13.7,42c0.9,2.7,1.7,6,1.7,6h0.1
				c0,0,0.8-3.3,1.7-6l13.7-41h7.4l13.6,41c0.9,2.6,1.7,6,1.7,6h0.1c0,0,0.8-3.2,1.7-6l13.7-42h7.7l-18.6,55h-8.3L871,622.8
				c-1-2.7-1.8-5.9-1.8-5.9h-0.2c0,0-0.8,3.2-1.6,5.9L854,661.9h-8.3L827.1,606.9z M921.9,650.4c4.4,4.3,10.3,6.7,16.5,6.7
				c5.9,0,11.1-3,11.1-8.8c0-12.1-29.8-9.1-29.8-27.2c0-9.9,8.9-15.3,18.9-15.3c11.7,0,17,6,17,6l-3.4,5.8c0,0-4.7-5.1-13.9-5.1
				c-5.6,0-11,2.4-11,8.6c0,12.2,29.8,8.9,29.8,27.2c0,9-7.8,15.5-18.9,15.5c-13.4,0-20.5-8-20.5-8L921.9,650.4z M997.9,655.9h18
				V599c0-2.1,0.1-4.1,0.1-4.1h-0.2c-1,1.6-2.2,3.1-3.6,4.4l-7.7,7.8l-4.5-4.7l16.4-16.5h6.6v70h17v7h-42V655.9z M1050.6,623.8
				c0-22.2,6.6-39.9,26.7-39.9s26.6,17.7,26.6,39.9c0,22.4-6.5,40-26.6,40S1050.6,646.2,1050.6,623.8z M1096,623.8
				c0-18.4-4.1-32.8-18.7-32.8s-18.8,14.4-18.8,32.8s4.1,32.9,18.8,32.9S1096,642.3,1096,623.8L1096,623.8z"/>
		</g>
	</g>
</g>
<g>
	<path class="st0" d="M8.6,345h75.2v11.8H21.7v48.6h50.7v11.8H21.7v49.6h65.5v11.8H8.6C8.6,478.5,8.6,345,8.6,345z"/>
	<path class="st0" d="M115.2,383h12.7v14.2c0,4.2-0.4,7.6-0.4,7.6h0.4c3.4-8.7,15.6-24.1,38.1-24.1c23.6,0,31.9,13.5,31.9,37v60.8
		H185v-57.4c0-15-2.3-28.3-20.7-28.3c-16.3,0-30.4,11.2-34.8,26.9c-1.2,4-1.6,8.3-1.6,12.9v45.8H115V383H115.2z"/>
	<path class="st0" d="M266.3,380.6c23.2,0,31.1,18.1,31.1,18.1h0.4c0,0-0.4-3.2-0.4-7.2v-46.5h12.9v133.5h-12.5v-10
		c0-4.2,0.4-6.8,0.4-6.8h-0.4c0,0-7.8,19.1-32.8,19.1c-25.6,0-41.6-20.5-41.6-50.1C223.4,400.4,241.3,380.6,266.3,380.6z
		 M266.9,469.2c16,0,31-11.4,31-38.5c0-19.4-9.9-38.4-30.4-38.4c-16.9,0-30.7,14.2-30.7,38.4C236.7,454.2,249,469.2,266.9,469.2z"/>
	<path class="st0" d="M343.4,383h12.4v9.3c0,4.2-0.4,7.4-0.4,7.4h0.4c0,0,7.8-19,33.1-19c25.6,0,41.6,20.5,41.6,50.1
		c0,30.2-18.1,50-42.7,50c-23,0-31.4-18.2-31.4-18.2h-0.4c0,0,0.4,3.4,0.4,8.3v45.6h-12.9V383z M386.3,469.4
		c16.9,0,30.7-14.2,30.7-38.5c0-23.3-12.4-38.4-30.2-38.4c-16,0-31,11.4-31,38.5C355.9,450.2,366.5,469.4,386.3,469.4z"/>
	<path class="st0" d="M500.6,380.6c27.9,0,50.5,21.2,50.5,49.6c0,28.9-22.6,50.5-50.5,50.5s-50.5-21.6-50.5-50.5
		C450.1,402,472.7,380.6,500.6,380.6z M500.6,469.2c20.5,0,37.2-16.7,37.2-38.9c0-21.6-16.7-37.8-37.2-37.8
		c-20.5,0-37.2,16.1-37.2,37.8C463.4,452.5,480.1,469.2,500.6,469.2z"/>
	<path class="st0" d="M576.7,345h13.5v16.1h-13.5V345z M577.1,383h12.9v95.5h-12.9V383z"/>
	<path class="st0" d="M623.1,383h12.7v14.2c0,4.2-0.4,7.6-0.4,7.6h0.4c3.4-8.7,15.6-24.1,38.1-24.1c23.6,0,31.9,13.5,31.9,37v60.8
		h-12.9v-57.4c0-15-2.3-28.3-20.7-28.3c-16.3,0-30.4,11.2-34.8,26.9c-1.2,4-1.6,8.3-1.6,12.9v45.8h-12.9V383H623.1z"/>
	<path class="st0" d="M741.2,394.9h-12.5v-10.8h12.7v-27.5H754v27.5h23.9v10.8H754v47.5c0,22.4,14.2,25.3,21.5,25.3
		c2.6,0,4.4-0.4,4.4-0.4v11.6c0,0-2.1,0.4-5.5,0.4c-11.1,0-33.2-3.6-33.2-35.5L741.2,394.9L741.2,394.9z"/>
	<path class="st0" d="M859.9,345h13.1v60.8h77.5V345h13.1v133.5h-13.1v-60.9h-77.5v60.9h-13.1V345z"/>
	<path class="st0" d="M1040.8,380.6c26.4,0,39.8,20.3,39.8,44c0,2.3-0.4,6.6-0.4,6.6H1007c0.5,24.5,17.3,37.8,37,37.8
		c17.4,0,29-11.6,29-11.6l5.9,9.9c0,0-13.9,13.3-35.3,13.3c-28.5,0-50-20.5-50-50C993.7,399.5,1015,380.6,1040.8,380.6z
		 M1067.6,420.7c-0.8-19.9-12.9-29.3-27.2-29.3c-16,0-29.8,10-32.8,29.3H1067.6z"/>
	<path class="st0" d="M1158,419.4h5.3v-2.5c0-18.4-10-24.7-23.7-24.7c-15.8,0-26.9,9.1-26.9,9.1l-6.1-9.9c0,0,12.5-10.8,34-10.8
		c23,0,35.7,12.7,35.7,36.7v61.2h-12.4V468c0-4.7,0.4-7.9,0.4-7.9h-0.4c0,0-7.9,20.7-31.9,20.7c-16,0-32.5-9.3-32.5-28.3
		C1099.5,420.2,1141.5,419.4,1158,419.4z M1134,469.7c18.2,0,29.3-19,29.3-35.5v-4.2h-5.5c-15,0-45,0.5-45,21.6
		C1112.8,460.6,1119.8,469.7,1134,469.7z"/>
	<path class="st0" d="M1207,345h12.9v108c0,12.5,5.7,14.4,10.7,14.4c1.7,0,3.2-0.2,3.2-0.2v11.6c0,0-2.3,0.4-4.7,0.4
		c-7.9,0-22-2.5-22-23.3L1207,345L1207,345z"/>
	<path class="st0" d="M1260.3,394.9h-12.5v-10.8h12.7v-27.5h12.7v27.5h23.9v10.8h-23.9v47.5c0,22.4,14.2,25.3,21.5,25.3
		c2.6,0,4.4-0.4,4.4-0.4v11.6c0,0-2.1,0.4-5.5,0.4c-11.1,0-33.2-3.6-33.2-35.5L1260.3,394.9L1260.3,394.9z"/>
	<path class="st0" d="M1322.2,345h12.9v51.7c0,4.4-0.4,7.8-0.4,7.8h0.4c3.6-9.1,16.3-23.7,38-23.7c23.6,0,31.9,13.5,31.9,37v60.8
		h-12.9v-57.4c0-15-2.3-28.3-20.7-28.3c-16.3,0-30.4,11.2-34.8,27.2c-1.2,3.8-1.6,8.2-1.6,12.7v45.8h-12.9L1322.2,345L1322.2,345z"
		/>
</g>
</svg>
