<?xml version="1.0" encoding="utf-8"?>
<!-- Generator: Adobe Illustrator 24.1.3, SVG Export Plug-In . SVG Version: 6.00 Build 0)  -->
<svg version="1.1" id="Layer_1" xmlns="http://www.w3.org/2000/svg" xmlns:xlink="http://www.w3.org/1999/xlink" x="0px" y="0px"
	 viewBox="0 0 253 271.4" style="enable-background:new 0 0 253 271.4;" xml:space="preserve">
<style type="text/css">
	.st0{fill:url(#SVGID_1_);}
	.st1{fill:url(#SVGID_2_);}
	.st2{fill:url(#SVGID_3_);}
	.st3{fill:url(#SVGID_4_);}
	.st4{fill:url(#SVGID_5_);}
	.st5{fill:url(#SVGID_6_);}
	.st6{fill:url(#SVGID_7_);}
	.st7{fill:url(#SVGID_8_);}
	.st8{fill:url(#SVGID_9_);}
	.st9{fill:url(#SVGID_10_);}
	.st10{fill:url(#SVGID_11_);}
	.st11{fill:url(#SVGID_12_);}
	.st12{fill:url(#SVGID_13_);}
	.st13{fill:url(#SVGID_14_);}
	.st14{fill:url(#SVGID_15_);}
	.st15{fill:url(#SVGID_16_);}
	.st16{fill:url(#SVGID_17_);}
	.st17{fill:url(#SVGID_18_);}
	.st18{fill:url(#SVGID_19_);}
	.st19{fill:url(#SVGID_20_);}
	.st20{fill:url(#SVGID_21_);}
	.st21{fill:url(#SVGID_22_);}
	.st22{fill:url(#SVGID_23_);}
	.st23{fill:url(#SVGID_24_);}
	.st24{fill:url(#SVGID_25_);}
	.st25{fill:url(#SVGID_26_);}
</style>
<title>client-health-icon</title>
<g id="Layer_2">
	<g id="Layer_1-2">
		
			<linearGradient id="SVGID_1_" gradientUnits="userSpaceOnUse" x1="126.8218" y1="205.1" x2="126.8218" y2="71.54" gradientTransform="matrix(1 0 0 -1 0 274)">
			<stop  offset="0" style="stop-color:#ED4E39"/>
			<stop  offset="1" style="stop-color:#FF902C"/>
		</linearGradient>
		<path class="st0" d="M135.7,202.5c-36.9,0-66.8-29.9-66.8-66.8s29.9-66.8,66.8-66.8c18.1,0,35.5,7.4,48,20.4l-2.8,2.7
			C156.8,67,117,66.3,92,90.4s-25.7,63.9-1.6,88.9c11.9,12.3,28.2,19.2,45.3,19.2c17.5,0,34.3-7.3,46.2-20.2l2.9,2.6
			C172.1,194.7,154.3,202.4,135.7,202.5z"/>
		
			<linearGradient id="SVGID_2_" gradientUnits="userSpaceOnUse" x1="212.28" y1="273.79" x2="-1.14" y2="60.37" gradientTransform="matrix(1 0 0 -1 0 274)">
			<stop  offset="0" style="stop-color:#ED4E39"/>
			<stop  offset="1" style="stop-color:#FF902C"/>
		</linearGradient>
		<polygon class="st1" points="67.4,137.5 5.3,110.3 89.1,89.1 110,9.3 161.9,9.3 182,88 241,63.3 242.5,66.9 179.4,93.3 
			158.9,13.2 113,13.2 92.2,92.3 17.2,111.3 68.9,133.9 		"/>
		
			<linearGradient id="SVGID_3_" gradientUnits="userSpaceOnUse" x1="187.3975" y1="298.6725" x2="-26.0225" y2="85.2525" gradientTransform="matrix(1 0 0 -1 0 274)">
			<stop  offset="0" style="stop-color:#ED4E39"/>
			<stop  offset="1" style="stop-color:#FF902C"/>
		</linearGradient>
		<polygon class="st2" points="67.4,137.5 8.8,111.8 28.5,62.5 87.1,87 61.6,25.6 135.7,65.9 204.9,28.2 206.7,31.6 135.7,70.4 
			69.4,34.2 94.3,94.3 30.7,67.6 13.8,109.8 68.9,133.9 		"/>
		
			<linearGradient id="SVGID_4_" gradientUnits="userSpaceOnUse" x1="828.68" y1="1279.3099" x2="615.26" y2="1065.89" gradientTransform="matrix(1 0 0 1 0 -391.76)">
			<stop  offset="0" style="stop-color:#ED4E39"/>
			<stop  offset="1" style="stop-color:#FF902C"/>
		</linearGradient>
		<polygon class="st3" points="161.9,262 110,262 89.1,182.3 5.3,161.1 67.4,133.9 68.9,137.5 17.2,160.1 92.2,179.1 113,258.2 
			158.9,258.2 179.4,178 242.5,204.5 241,208.1 182,183.4 		"/>
		
			<linearGradient id="SVGID_5_" gradientUnits="userSpaceOnUse" x1="803.7975" y1="1304.1925" x2="590.3775" y2="1090.7725" gradientTransform="matrix(1 0 0 1 0 -391.76)">
			<stop  offset="0" style="stop-color:#ED4E39"/>
			<stop  offset="1" style="stop-color:#FF902C"/>
		</linearGradient>
		<polygon class="st4" points="61.6,245.8 87.1,184.3 28.5,208.8 8.8,159.5 67.4,133.9 68.9,137.5 13.8,161.6 30.7,203.7 
			94.3,177.1 69.4,237.1 135.7,201 206.7,239.8 204.9,243.2 135.7,205.4 		"/>
		
			<linearGradient id="SVGID_6_" gradientUnits="userSpaceOnUse" x1="68.15" y1="422.52" x2="68.15" y2="-272.55" gradientTransform="matrix(1 0 0 -1 0 274)">
			<stop  offset="0" style="stop-color:#ED4E39"/>
			<stop  offset="1" style="stop-color:#FF902C"/>
		</linearGradient>
		<circle class="st5" cx="68.2" cy="135.7" r="11.3"/>
		
			<linearGradient id="SVGID_7_" gradientUnits="userSpaceOnUse" x1="90.66" y1="422.52" x2="90.66" y2="-272.55" gradientTransform="matrix(1 0 0 -1 0 274)">
			<stop  offset="0" style="stop-color:#ED4E39"/>
			<stop  offset="1" style="stop-color:#FF902C"/>
		</linearGradient>
		<circle class="st6" cx="90.7" cy="90.7" r="11.3"/>
		
			<linearGradient id="SVGID_8_" gradientUnits="userSpaceOnUse" x1="180.7" y1="422.52" x2="180.7" y2="-272.55" gradientTransform="matrix(1 0 0 -1 0 274)">
			<stop  offset="0" style="stop-color:#ED4E39"/>
			<stop  offset="1" style="stop-color:#FF902C"/>
		</linearGradient>
		<circle class="st7" cx="180.7" cy="180.7" r="11.3"/>
		
			<linearGradient id="SVGID_9_" gradientUnits="userSpaceOnUse" x1="90.66" y1="422.52" x2="90.66" y2="-272.55" gradientTransform="matrix(1 0 0 -1 0 274)">
			<stop  offset="0" style="stop-color:#ED4E39"/>
			<stop  offset="1" style="stop-color:#FF902C"/>
		</linearGradient>
		<circle class="st8" cx="90.7" cy="180.7" r="11.3"/>
		
			<linearGradient id="SVGID_10_" gradientUnits="userSpaceOnUse" x1="180.7" y1="422.52" x2="180.7" y2="-272.55" gradientTransform="matrix(1 0 0 -1 0 274)">
			<stop  offset="0" style="stop-color:#ED4E39"/>
			<stop  offset="1" style="stop-color:#FF902C"/>
		</linearGradient>
		<circle class="st9" cx="180.7" cy="90.7" r="11.3"/>
		
			<linearGradient id="SVGID_11_" gradientUnits="userSpaceOnUse" x1="135.68" y1="422.52" x2="135.68" y2="-272.55" gradientTransform="matrix(1 0 0 -1 0 274)">
			<stop  offset="0" style="stop-color:#ED4E39"/>
			<stop  offset="1" style="stop-color:#FF902C"/>
		</linearGradient>
		<circle class="st10" cx="135.7" cy="68.2" r="11.3"/>
		
			<linearGradient id="SVGID_12_" gradientUnits="userSpaceOnUse" x1="160.43" y1="422.52" x2="160.43" y2="-272.55" gradientTransform="matrix(1 0 0 -1 0 274)">
			<stop  offset="0" style="stop-color:#ED4E39"/>
			<stop  offset="1" style="stop-color:#FF902C"/>
		</linearGradient>
		<circle class="st11" cx="160.4" cy="11.3" r="11.3"/>
		
			<linearGradient id="SVGID_13_" gradientUnits="userSpaceOnUse" x1="111.54" y1="422.52" x2="111.54" y2="-272.55" gradientTransform="matrix(1 0 0 -1 0 274)">
			<stop  offset="0" style="stop-color:#ED4E39"/>
			<stop  offset="1" style="stop-color:#FF902C"/>
		</linearGradient>
		<circle class="st12" cx="111.5" cy="11.3" r="11.3"/>
		
			<linearGradient id="SVGID_14_" gradientUnits="userSpaceOnUse" x1="65.46" y1="422.52" x2="65.46" y2="-272.55" gradientTransform="matrix(1 0 0 -1 0 274)">
			<stop  offset="0" style="stop-color:#ED4E39"/>
			<stop  offset="1" style="stop-color:#FF902C"/>
		</linearGradient>
		<circle class="st13" cx="65.5" cy="29.9" r="11.3"/>
		
			<linearGradient id="SVGID_15_" gradientUnits="userSpaceOnUse" x1="29.59" y1="422.52" x2="29.59" y2="-272.55" gradientTransform="matrix(1 0 0 -1 0 274)">
			<stop  offset="0" style="stop-color:#ED4E39"/>
			<stop  offset="1" style="stop-color:#FF902C"/>
		</linearGradient>
		<circle class="st14" cx="29.6" cy="65.1" r="11.3"/>
		
			<linearGradient id="SVGID_16_" gradientUnits="userSpaceOnUse" x1="11.26" y1="422.52" x2="11.26" y2="-272.55" gradientTransform="matrix(1 0 0 -1 0 274)">
			<stop  offset="0" style="stop-color:#ED4E39"/>
			<stop  offset="1" style="stop-color:#FF902C"/>
		</linearGradient>
		<circle class="st15" cx="11.3" cy="110.8" r="11.3"/>
		
			<linearGradient id="SVGID_17_" gradientUnits="userSpaceOnUse" x1="11.26" y1="422.52" x2="11.26" y2="-272.55" gradientTransform="matrix(1 0 0 -1 0 274)">
			<stop  offset="0" style="stop-color:#ED4E39"/>
			<stop  offset="1" style="stop-color:#FF902C"/>
		</linearGradient>
		<circle class="st16" cx="11.3" cy="160.4" r="11.3"/>
		
			<linearGradient id="SVGID_18_" gradientUnits="userSpaceOnUse" x1="29.59" y1="422.52" x2="29.59" y2="-272.55" gradientTransform="matrix(1 0 0 -1 0 274)">
			<stop  offset="0" style="stop-color:#ED4E39"/>
			<stop  offset="1" style="stop-color:#FF902C"/>
		</linearGradient>
		<circle class="st17" cx="29.6" cy="205.8" r="11.3"/>
		
			<linearGradient id="SVGID_19_" gradientUnits="userSpaceOnUse" x1="65.46" y1="422.52" x2="65.46" y2="-272.55" gradientTransform="matrix(1 0 0 -1 0 274)">
			<stop  offset="0" style="stop-color:#ED4E39"/>
			<stop  offset="1" style="stop-color:#FF902C"/>
		</linearGradient>
		<circle class="st18" cx="65.5" cy="241.5" r="11.3"/>
		
			<linearGradient id="SVGID_20_" gradientUnits="userSpaceOnUse" x1="111.54" y1="422.52" x2="111.54" y2="-272.55" gradientTransform="matrix(1 0 0 -1 0 274)">
			<stop  offset="0" style="stop-color:#ED4E39"/>
			<stop  offset="1" style="stop-color:#FF902C"/>
		</linearGradient>
		<circle class="st19" cx="111.5" cy="260.1" r="11.3"/>
		
			<linearGradient id="SVGID_21_" gradientUnits="userSpaceOnUse" x1="160.43" y1="422.52" x2="160.43" y2="-272.55" gradientTransform="matrix(1 0 0 -1 0 274)">
			<stop  offset="0" style="stop-color:#ED4E39"/>
			<stop  offset="1" style="stop-color:#FF902C"/>
		</linearGradient>
		<circle class="st20" cx="160.4" cy="260.1" r="11.3"/>
		
			<linearGradient id="SVGID_22_" gradientUnits="userSpaceOnUse" x1="205.8" y1="422.52" x2="205.8" y2="-272.55" gradientTransform="matrix(1 0 0 -1 0 274)">
			<stop  offset="0" style="stop-color:#ED4E39"/>
			<stop  offset="1" style="stop-color:#FF902C"/>
		</linearGradient>
		<circle class="st21" cx="205.8" cy="241.5" r="11.3"/>
		
			<linearGradient id="SVGID_23_" gradientUnits="userSpaceOnUse" x1="241.77" y1="422.52" x2="241.77" y2="-272.55" gradientTransform="matrix(1 0 0 -1 0 274)">
			<stop  offset="0" style="stop-color:#ED4E39"/>
			<stop  offset="1" style="stop-color:#FF902C"/>
		</linearGradient>
		<circle class="st22" cx="241.8" cy="205.8" r="11.3"/>
		
			<linearGradient id="SVGID_24_" gradientUnits="userSpaceOnUse" x1="241.77" y1="422.52" x2="241.77" y2="-272.55" gradientTransform="matrix(1 0 0 -1 0 274)">
			<stop  offset="0" style="stop-color:#ED4E39"/>
			<stop  offset="1" style="stop-color:#FF902C"/>
		</linearGradient>
		<circle class="st23" cx="241.8" cy="65.1" r="11.3"/>
		
			<linearGradient id="SVGID_25_" gradientUnits="userSpaceOnUse" x1="205.8" y1="422.52" x2="205.8" y2="-272.55" gradientTransform="matrix(1 0 0 -1 0 274)">
			<stop  offset="0" style="stop-color:#ED4E39"/>
			<stop  offset="1" style="stop-color:#FF902C"/>
		</linearGradient>
		<circle class="st24" cx="205.8" cy="29.9" r="11.3"/>
		
			<linearGradient id="SVGID_26_" gradientUnits="userSpaceOnUse" x1="135.68" y1="422.52" x2="135.68" y2="-272.55" gradientTransform="matrix(1 0 0 -1 0 274)">
			<stop  offset="0" style="stop-color:#ED4E39"/>
			<stop  offset="1" style="stop-color:#FF902C"/>
		</linearGradient>
		<circle class="st25" cx="135.7" cy="203.2" r="11.3"/>
	</g>
</g>
</svg>
