<?xml version="1.0" encoding="utf-8"?>
<!-- Generator: Adobe Illustrator 23.1.1, SVG Export Plug-In . SVG Version: 6.00 Build 0)  -->
<svg version="1.1" id="Layer_1" xmlns="http://www.w3.org/2000/svg" xmlns:xlink="http://www.w3.org/1999/xlink" x="0px" y="0px"
	 viewBox="0 0 1414.6 585.5" style="enable-background:new 0 0 1414.6 585.5;" xml:space="preserve">
<style type="text/css">
	.st0{fill:url(#SVGID_1_);}
	.st1{fill:url(#SVGID_2_);}
	.st2{fill:url(#SVGID_3_);}
	.st3{fill:url(#SVGID_4_);}
	.st4{fill:url(#SVGID_5_);}
	.st5{fill:url(#SVGID_6_);}
	.st6{fill:url(#SVGID_7_);}
	.st7{fill:url(#SVGID_8_);}
	.st8{fill:url(#SVGID_9_);}
	.st9{fill:url(#SVGID_10_);}
	.st10{fill:url(#SVGID_11_);}
	.st11{fill:url(#SVGID_12_);}
	.st12{fill:url(#SVGID_13_);}
	.st13{fill:url(#SVGID_14_);}
	.st14{fill:url(#SVGID_15_);}
	.st15{fill:url(#SVGID_16_);}
	.st16{fill:url(#SVGID_17_);}
	.st17{fill:url(#SVGID_18_);}
	.st18{fill:url(#SVGID_19_);}
	.st19{fill:url(#SVGID_20_);}
	.st20{fill:url(#SVGID_21_);}
	.st21{fill:url(#SVGID_22_);}
	.st22{fill:url(#SVGID_23_);}
	.st23{fill:url(#SVGID_24_);}
	.st24{fill:url(#SVGID_25_);}
	.st25{fill:url(#SVGID_26_);}
	.st26{fill:#404041;}
</style>
<title>clienth-health-v</title>
<g>
	<g id="Layer_1-2">
		
			<linearGradient id="SVGID_1_" gradientUnits="userSpaceOnUse" x1="707.5881" y1="472.22" x2="707.5881" y2="335" gradientTransform="matrix(1 0 0 -1 0 588)">
			<stop  offset="0" style="stop-color:#ED4E39"/>
			<stop  offset="1" style="stop-color:#FF902C"/>
		</linearGradient>
		<path class="st0" d="M716.7,253c-37.9,0-68.6-30.7-68.6-68.6s30.7-68.6,68.6-68.6c18.6,0,36.4,7.6,49.4,21l-2.9,2.8
			c-24.8-25.7-65.7-26.4-91.4-1.7s-26.4,65.7-1.7,91.4c12.2,12.6,29,19.8,46.5,19.8c18,0,35.2-7.5,47.5-20.8l2.9,2.7
			C754.1,245,735.8,253,716.7,253z"/>
		
			<linearGradient id="SVGID_2_" gradientUnits="userSpaceOnUse" x1="795.3929" y1="542.787" x2="576.1329" y2="323.5171" gradientTransform="matrix(1 0 0 -1 0 588)">
			<stop  offset="0" style="stop-color:#ED4E39"/>
			<stop  offset="1" style="stop-color:#FF902C"/>
		</linearGradient>
		<path class="st1" d="M646.5,186.2l-63.8-27.9l86.1-21.8l21.5-81.9h53.3l20.6,80.8l60.6-25.4l1.5,3.7l-64.9,27.2l-21-82.3h-47.1
			l-21.4,81.2L595,159.3l53.1,23.2L646.5,186.2L646.5,186.2z"/>
		
			<linearGradient id="SVGID_3_" gradientUnits="userSpaceOnUse" x1="769.83" y1="568.35" x2="550.56" y2="349.08" gradientTransform="matrix(1 0 0 -1 0 588)">
			<stop  offset="0" style="stop-color:#ED4E39"/>
			<stop  offset="1" style="stop-color:#FF902C"/>
		</linearGradient>
		<path class="st2" d="M646.5,186.2l-60.2-26.3l20.3-50.7l60.1,25.2l-26.2-63.2l76.2,41.5L787.8,74l1.9,3.5l-73,39.8l-68.1-37.1
			l25.6,61.7l-65.3-27.4l-17.4,43.3l56.7,24.8L646.5,186.2L646.5,186.2z"/>
		
			<linearGradient id="SVGID_4_" gradientUnits="userSpaceOnUse" x1="1428.6941" y1="5770.4458" x2="1209.4241" y2="5551.186" gradientTransform="matrix(1 0 0 1 0 -4813.6001)">
			<stop  offset="0" style="stop-color:#ED4E39"/>
			<stop  offset="1" style="stop-color:#FF902C"/>
		</linearGradient>
		<path class="st3" d="M743.7,314.2h-53.3l-21.5-81.9l-86.1-21.8l63.8-27.9l1.6,3.7L595,209.5l77.1,19.6l21.4,81.2h47.1l21-82.3
			l64.9,27.2l-1.5,3.7l-60.6-25.4L743.7,314.2L743.7,314.2z"/>
		
			<linearGradient id="SVGID_5_" gradientUnits="userSpaceOnUse" x1="1403.0967" y1="5796.0435" x2="1183.8368" y2="5576.7734" gradientTransform="matrix(1 0 0 1 0 -4813.6001)">
			<stop  offset="0" style="stop-color:#ED4E39"/>
			<stop  offset="1" style="stop-color:#FF902C"/>
		</linearGradient>
		<path class="st4" d="M640.5,297.5l26.2-63.2l-60.1,25.2l-20.3-50.7l60.2-26.3l1.6,3.7L591.4,211l17.4,43.3l65.3-27.4l-25.6,61.7
			l68.1-37.1l73,39.8l-1.9,3.5L716.7,256L640.5,297.5L640.5,297.5z"/>
		
			<linearGradient id="SVGID_6_" gradientUnits="userSpaceOnUse" x1="647.31" y1="695.59" x2="647.31" y2="-18.52" gradientTransform="matrix(1 0 0 -1 0 588)">
			<stop  offset="0" style="stop-color:#ED4E39"/>
			<stop  offset="1" style="stop-color:#FF902C"/>
		</linearGradient>
		<circle class="st5" cx="647.3" cy="184.4" r="11.6"/>
		
			<linearGradient id="SVGID_7_" gradientUnits="userSpaceOnUse" x1="670.44" y1="695.59" x2="670.44" y2="-18.52" gradientTransform="matrix(1 0 0 -1 0 588)">
			<stop  offset="0" style="stop-color:#ED4E39"/>
			<stop  offset="1" style="stop-color:#FF902C"/>
		</linearGradient>
		<circle class="st6" cx="670.4" cy="138.1" r="11.6"/>
		
			<linearGradient id="SVGID_8_" gradientUnits="userSpaceOnUse" x1="762.95" y1="695.59" x2="762.95" y2="-18.52" gradientTransform="matrix(1 0 0 -1 0 588)">
			<stop  offset="0" style="stop-color:#ED4E39"/>
			<stop  offset="1" style="stop-color:#FF902C"/>
		</linearGradient>
		<circle class="st7" cx="763" cy="230.6" r="11.6"/>
		
			<linearGradient id="SVGID_9_" gradientUnits="userSpaceOnUse" x1="670.44" y1="695.59" x2="670.44" y2="-18.52" gradientTransform="matrix(1 0 0 -1 0 588)">
			<stop  offset="0" style="stop-color:#ED4E39"/>
			<stop  offset="1" style="stop-color:#FF902C"/>
		</linearGradient>
		<circle class="st8" cx="670.4" cy="230.6" r="11.6"/>
		
			<linearGradient id="SVGID_10_" gradientUnits="userSpaceOnUse" x1="762.95" y1="695.59" x2="762.95" y2="-18.52" gradientTransform="matrix(1 0 0 -1 0 588)">
			<stop  offset="0" style="stop-color:#ED4E39"/>
			<stop  offset="1" style="stop-color:#FF902C"/>
		</linearGradient>
		<circle class="st9" cx="763" cy="138.1" r="11.6"/>
		
			<linearGradient id="SVGID_11_" gradientUnits="userSpaceOnUse" x1="716.69" y1="695.59" x2="716.69" y2="-18.52" gradientTransform="matrix(1 0 0 -1 0 588)">
			<stop  offset="0" style="stop-color:#ED4E39"/>
			<stop  offset="1" style="stop-color:#FF902C"/>
		</linearGradient>
		<circle class="st10" cx="716.7" cy="115" r="11.6"/>
		
			<linearGradient id="SVGID_12_" gradientUnits="userSpaceOnUse" x1="742.12" y1="695.59" x2="742.12" y2="-18.52" gradientTransform="matrix(1 0 0 -1 0 588)">
			<stop  offset="0" style="stop-color:#ED4E39"/>
			<stop  offset="1" style="stop-color:#FF902C"/>
		</linearGradient>
		<circle class="st11" cx="742.1" cy="56.6" r="11.6"/>
		
			<linearGradient id="SVGID_13_" gradientUnits="userSpaceOnUse" x1="691.89" y1="695.59" x2="691.89" y2="-18.52" gradientTransform="matrix(1 0 0 -1 0 588)">
			<stop  offset="0" style="stop-color:#ED4E39"/>
			<stop  offset="1" style="stop-color:#FF902C"/>
		</linearGradient>
		<circle class="st12" cx="691.9" cy="56.6" r="11.6"/>
		
			<linearGradient id="SVGID_14_" gradientUnits="userSpaceOnUse" x1="644.55" y1="695.59" x2="644.55" y2="-18.52" gradientTransform="matrix(1 0 0 -1 0 588)">
			<stop  offset="0" style="stop-color:#ED4E39"/>
			<stop  offset="1" style="stop-color:#FF902C"/>
		</linearGradient>
		<circle class="st13" cx="644.5" cy="75.7" r="11.6"/>
		
			<linearGradient id="SVGID_15_" gradientUnits="userSpaceOnUse" x1="607.69" y1="695.59" x2="607.69" y2="-18.52" gradientTransform="matrix(1 0 0 -1 0 588)">
			<stop  offset="0" style="stop-color:#ED4E39"/>
			<stop  offset="1" style="stop-color:#FF902C"/>
		</linearGradient>
		<circle class="st14" cx="607.7" cy="111.8" r="11.6"/>
		
			<linearGradient id="SVGID_16_" gradientUnits="userSpaceOnUse" x1="588.86" y1="695.59" x2="588.86" y2="-18.52" gradientTransform="matrix(1 0 0 -1 0 588)">
			<stop  offset="0" style="stop-color:#ED4E39"/>
			<stop  offset="1" style="stop-color:#FF902C"/>
		</linearGradient>
		<circle class="st15" cx="588.9" cy="158.8" r="11.6"/>
		
			<linearGradient id="SVGID_17_" gradientUnits="userSpaceOnUse" x1="588.86" y1="695.59" x2="588.86" y2="-18.52" gradientTransform="matrix(1 0 0 -1 0 588)">
			<stop  offset="0" style="stop-color:#ED4E39"/>
			<stop  offset="1" style="stop-color:#FF902C"/>
		</linearGradient>
		<circle class="st16" cx="588.9" cy="209.8" r="11.6"/>
		
			<linearGradient id="SVGID_18_" gradientUnits="userSpaceOnUse" x1="607.69" y1="695.59" x2="607.69" y2="-18.52" gradientTransform="matrix(1 0 0 -1 0 588)">
			<stop  offset="0" style="stop-color:#ED4E39"/>
			<stop  offset="1" style="stop-color:#FF902C"/>
		</linearGradient>
		<circle class="st17" cx="607.7" cy="256.4" r="11.6"/>
		
			<linearGradient id="SVGID_19_" gradientUnits="userSpaceOnUse" x1="644.55" y1="695.59" x2="644.55" y2="-18.52" gradientTransform="matrix(1 0 0 -1 0 588)">
			<stop  offset="0" style="stop-color:#ED4E39"/>
			<stop  offset="1" style="stop-color:#FF902C"/>
		</linearGradient>
		<circle class="st18" cx="644.5" cy="293.1" r="11.6"/>
		
			<linearGradient id="SVGID_20_" gradientUnits="userSpaceOnUse" x1="691.89" y1="695.59" x2="691.89" y2="-18.52" gradientTransform="matrix(1 0 0 -1 0 588)">
			<stop  offset="0" style="stop-color:#ED4E39"/>
			<stop  offset="1" style="stop-color:#FF902C"/>
		</linearGradient>
		<circle class="st19" cx="691.9" cy="312.2" r="11.6"/>
		
			<linearGradient id="SVGID_21_" gradientUnits="userSpaceOnUse" x1="742.12" y1="695.59" x2="742.12" y2="-18.52" gradientTransform="matrix(1 0 0 -1 0 588)">
			<stop  offset="0" style="stop-color:#ED4E39"/>
			<stop  offset="1" style="stop-color:#FF902C"/>
		</linearGradient>
		<circle class="st20" cx="742.1" cy="312.2" r="11.6"/>
		
			<linearGradient id="SVGID_22_" gradientUnits="userSpaceOnUse" x1="788.74" y1="695.59" x2="788.74" y2="-18.52" gradientTransform="matrix(1 0 0 -1 0 588)">
			<stop  offset="0" style="stop-color:#ED4E39"/>
			<stop  offset="1" style="stop-color:#FF902C"/>
		</linearGradient>
		<circle class="st21" cx="788.7" cy="293.1" r="11.6"/>
		
			<linearGradient id="SVGID_23_" gradientUnits="userSpaceOnUse" x1="825.69" y1="695.59" x2="825.69" y2="-18.52" gradientTransform="matrix(1 0 0 -1 0 588)">
			<stop  offset="0" style="stop-color:#ED4E39"/>
			<stop  offset="1" style="stop-color:#FF902C"/>
		</linearGradient>
		<circle class="st22" cx="825.7" cy="256.4" r="11.6"/>
		
			<linearGradient id="SVGID_24_" gradientUnits="userSpaceOnUse" x1="825.69" y1="695.59" x2="825.69" y2="-18.52" gradientTransform="matrix(1 0 0 -1 0 588)">
			<stop  offset="0" style="stop-color:#ED4E39"/>
			<stop  offset="1" style="stop-color:#FF902C"/>
		</linearGradient>
		<circle class="st23" cx="825.7" cy="111.8" r="11.6"/>
		
			<linearGradient id="SVGID_25_" gradientUnits="userSpaceOnUse" x1="788.74" y1="695.59" x2="788.74" y2="-18.52" gradientTransform="matrix(1 0 0 -1 0 588)">
			<stop  offset="0" style="stop-color:#ED4E39"/>
			<stop  offset="1" style="stop-color:#FF902C"/>
		</linearGradient>
		<circle class="st24" cx="788.7" cy="75.7" r="11.6"/>
		
			<linearGradient id="SVGID_26_" gradientUnits="userSpaceOnUse" x1="716.69" y1="695.59" x2="716.69" y2="-18.52" gradientTransform="matrix(1 0 0 -1 0 588)">
			<stop  offset="0" style="stop-color:#ED4E39"/>
			<stop  offset="1" style="stop-color:#FF902C"/>
		</linearGradient>
		<circle class="st25" cx="716.7" cy="253.8" r="11.6"/>
	</g>
</g>
<g>
	<path class="st26" d="M47.3,396.3h71.3v11.2H59.7v46.1h48.1v11.2H59.7v47h62.1v11.2H47.3V396.3z"/>
	<path class="st26" d="M148.3,432.3h12.1v13.5c0,4-0.4,7.2-0.4,7.2h0.4c3.2-8.3,14.8-22.9,36.2-22.9c22.3,0,30.2,12.8,30.2,35.1
		v57.6h-12.2v-54.4c0-14.2-2.2-26.8-19.6-26.8c-15.5,0-28.8,10.6-32.9,25.6c-1.1,3.8-1.4,7.9-1.4,12.2v43.4h-12.2V432.3z"/>
	<path class="st26" d="M291.6,430.1c22,0,29.5,17.1,29.5,17.1h0.4c0,0-0.4-3.1-0.4-6.8v-44.1h12.2v126.5h-11.9v-9.5
		c0-4,0.4-6.5,0.4-6.5h-0.4c0,0-7.4,18.2-31.1,18.2c-24.3,0-39.4-19.4-39.4-47.5C250.9,448.8,267.8,430.1,291.6,430.1z M292.1,514
		c15.1,0,29.3-10.8,29.3-36.5c0-18.4-9.4-36.4-28.8-36.4c-16,0-29.2,13.5-29.2,36.4C263.5,499.8,275.2,514,292.1,514z"/>
	<path class="st26" d="M364.6,432.3h11.7v8.8c0,4-0.4,7-0.4,7h0.4c0,0,7.4-18,31.3-18c24.3,0,39.4,19.4,39.4,47.5
		c0,28.6-17.1,47.3-40.5,47.3c-21.8,0-29.7-17.3-29.7-17.3h-0.4c0,0,0.4,3.2,0.4,7.9v43.2h-12.2V432.3z M405.3,514.2
		c16,0,29.2-13.5,29.2-36.5c0-22.1-11.7-36.4-28.6-36.4c-15.1,0-29.3,10.8-29.3,36.5C376.5,496,386.6,514.2,405.3,514.2z"/>
	<path class="st26" d="M513.7,430.1c26.5,0,47.9,20.2,47.9,47c0,27.4-21.4,47.9-47.9,47.9s-47.9-20.5-47.9-47.9
		C465.8,450.3,487.2,430.1,513.7,430.1z M513.7,514c19.4,0,35.3-15.8,35.3-36.9c0-20.5-15.8-35.8-35.3-35.8
		c-19.4,0-35.3,15.3-35.3,35.8C478.4,498.2,494.2,514,513.7,514z"/>
	<path class="st26" d="M585.9,396.3h12.8v15.3h-12.8V396.3z M586.2,432.3h12.2v90.5h-12.2V432.3z"/>
	<path class="st26" d="M629.8,432.3h12.1v13.5c0,4-0.4,7.2-0.4,7.2h0.4c3.2-8.3,14.8-22.9,36.2-22.9c22.3,0,30.2,12.8,30.2,35.1
		v57.6H696v-54.4c0-14.2-2.2-26.8-19.6-26.8c-15.5,0-28.8,10.6-32.9,25.6c-1.1,3.8-1.4,7.9-1.4,12.2v43.4h-12.2V432.3z"/>
	<path class="st26" d="M741.7,443.6h-11.9v-10.3h12.1v-26.1H754v26.1h22.7v10.3H754v45c0,21.2,13.5,23.9,20.3,23.9
		c2.5,0,4.1-0.4,4.1-0.4v11c0,0-2,0.4-5.2,0.4c-10.4,0-31.5-3.4-31.5-33.7V443.6z"/>
	<path class="st26" d="M854.2,396.3h12.4v57.6h73.4v-57.6h12.4v126.5h-12.4V465h-73.4v57.8h-12.4V396.3z"/>
	<path class="st26" d="M1025.8,430.1c25,0,37.8,19.3,37.8,41.8c0,2.2-0.4,6.3-0.4,6.3h-69.5c0.5,23.2,16.4,35.8,35.1,35.8
		c16.6,0,27.5-11,27.5-11l5.6,9.4c0,0-13.1,12.6-33.5,12.6c-27,0-47.3-19.4-47.3-47.3C981.1,447.9,1001.3,430.1,1025.8,430.1z
		 M1051.1,468.1c-0.7-18.9-12.2-27.7-25.7-27.7c-15.1,0-28.3,9.5-31.1,27.7H1051.1z"/>
	<path class="st26" d="M1136.8,466.8h5v-2.3c0-17.5-9.5-23.4-22.5-23.4c-14.9,0-25.6,8.6-25.6,8.6l-5.8-9.4c0,0,11.9-10.3,32.2-10.3
		c21.8,0,33.8,12.1,33.8,34.7v58h-11.7v-9.9c0-4.5,0.4-7.6,0.4-7.6h-0.4c0,0-7.6,19.6-30.2,19.6c-15.1,0-30.8-8.8-30.8-26.8
		C1081.4,467.6,1121.2,466.8,1136.8,466.8z M1114.1,514.5c17.3,0,27.7-18,27.7-33.7v-4h-5.2c-14.2,0-42.7,0.5-42.7,20.5
		C1094,505.9,1100.6,514.5,1114.1,514.5z"/>
	<path class="st26" d="M1183.3,396.3h12.2v102.4c0,11.9,5.4,13.7,10.1,13.7c1.6,0,3.1-0.2,3.1-0.2v11c0,0-2.2,0.4-4.5,0.4
		c-7.6,0-20.9-2.3-20.9-22.1V396.3z"/>
	<path class="st26" d="M1233.8,443.6H1222v-10.3h12.1v-26.1h12.1v26.1h22.7v10.3h-22.7v45c0,21.2,13.5,23.9,20.3,23.9
		c2.5,0,4.1-0.4,4.1-0.4v11c0,0-2,0.4-5.2,0.4c-10.4,0-31.5-3.4-31.5-33.7V443.6z"/>
	<path class="st26" d="M1292.5,396.3h12.2v49c0,4.1-0.4,7.4-0.4,7.4h0.4c3.4-8.6,15.5-22.5,36-22.5c22.3,0,30.2,12.8,30.2,35.1v57.6
		h-12.2v-54.4c0-14.2-2.2-26.8-19.6-26.8c-15.5,0-28.8,10.6-32.9,25.7c-1.1,3.6-1.4,7.7-1.4,12.1v43.4h-12.2V396.3z"/>
</g>
</svg>
