<?xml version="1.0" encoding="utf-8"?>
<!-- Generator: Adobe Illustrator 23.0.2, SVG Export Plug-In . SVG Version: 6.00 Build 0)  -->
<svg version="1.1" id="Layer_1" xmlns="http://www.w3.org/2000/svg" xmlns:xlink="http://www.w3.org/1999/xlink" x="0px" y="0px"
	 viewBox="0 0 402.5 67.2" style="enable-background:new 0 0 402.5 67.2;" xml:space="preserve">
<style type="text/css">
	.st0{fill:#404041;}
</style>
<title>evolve-vm-logo</title>
<g>
	<g id="white-color-vm">
		<g id="white-color-vm-2">
			<path class="st0" d="M90.4,9.4h26.8v4.2H95.1V31h18v4.2h-18v17.7h23.4V57h-28L90.4,9.4z"/>
			<path class="st0" d="M122.1,22.9h4.9l9.4,25c0.6,1.8,1.1,4.1,1.1,4.1h0.1c0,0,0.6-2.3,1.2-4.1l9.4-25h4.8L140,57h-5L122.1,22.9z"
				/>
			<path class="st0" d="M175.1,22.1c10,0,18,7.6,18,17.7c0,10-8.1,18-18,18c-10,0-18-8.1-18-18C157.1,29.7,165.1,22.1,175.1,22.1z
				 M175.1,53.7c7.3,0,13.3-5.9,13.3-13.8c0-7.3-5.9-13.3-13.3-13.3s-13.3,5.9-13.3,13.3C161.9,47.7,167.8,53.7,175.1,53.7z"/>
			<path class="st0" d="M201.4,9.4h4.7V48c0,4.4,2,5.1,3.8,5.1c0.4,0,0.8,0,1.2-0.1v4c-0.6,0.1-1.2,0.1-1.7,0.1
				c-2.8,0-7.8-0.9-7.8-8.4V9.4H201.4z"/>
			<path class="st0" d="M213.8,22.9h4.9l9.4,25c0.6,1.8,1.2,4.1,1.2,4.1h0.1c0,0,0.6-2.3,1.2-4l9.4-25h4.8l-13,34h-5L213.8,22.9z"/>
			<path class="st0" d="M265.7,22.1c9.4,0,14.2,7.2,14.2,15.7c0,0.8-0.1,2.3-0.1,2.3h-26.2c0.2,8.7,6.2,13.5,13.1,13.5
				c3.8-0.1,7.5-1.5,10.4-4.1l2.1,3.5c-3.5,3-7.9,4.7-12.6,4.8c-10.1,0-17.8-7.3-17.8-17.8C248.9,28.9,256.5,22.1,265.7,22.1z
				 M275.3,36.4c-0.2-7.1-4.6-10.5-9.6-10.5c-5.7,0-10.6,3.6-11.8,10.5H275.3z"/>
			<path class="st0" d="M302.2,9.4h5l13.1,36.2c0.9,2.5,1.9,6.2,1.9,6.2h0.1c0,0,0.9-3.7,1.9-6.2l13.2-36.2h5L324.8,57h-4.9
				L302.2,9.4z"/>
			<path class="st0" d="M352.3,9.4h4.9l12.5,27.9c1,2.4,2.3,5.8,2.3,5.8h0.1c0,0,1.3-3.4,2.3-5.8l12.5-27.9h4.8l3.8,47.6h-4.7
				l-2.7-33.4c-0.2-2.5-0.1-6.6-0.1-6.6h-0.1c0,0-1.4,4.2-2.6,6.6l-11.2,24.4h-4.4l-11.2-24.4c-1-2.3-2.6-6.8-2.6-6.8h-0.1
				c0,0,0.1,4.2-0.1,6.8l-2.7,33.3h-4.7L352.3,9.4z"/>
			<g>
				<path class="st0" d="M37.3,46.4c7.1,0,12.9-5.8,12.9-12.9s-5.8-12.9-12.9-12.9c-7.1,0-12.9,5.8-12.9,12.9S30.2,46.4,37.3,46.4z
					 M37.2,22.5C37.2,22.5,37.2,22.5,37.2,22.5c6.1,0,11,4.9,11,11c0,6.1-4.9,11-11,11c-6.1,0-11-4.9-11-11c0,0,0,0,0,0
					C26.2,27.4,31.1,22.5,37.2,22.5z"/>
				<circle class="st0" cx="37.4" cy="33.3" r="4.3"/>
				<circle class="st0" cx="8.9" cy="5.2" r="2"/>
				<circle class="st0" cx="8.9" cy="62.3" r="2"/>
				<circle class="st0" cx="65.8" cy="5.2" r="2"/>
				<circle class="st0" cx="65.8" cy="62.3" r="2"/>
				<path class="st0" d="M62.5,31.8L62.5,31.8C62.1,26.2,60,21,56.3,16.9c-0.7-0.8-1.5-1.6-2.4-2.4c-4-3.5-9.1-5.7-14.5-6.2h-0.4
					c-0.5,0-1.1-0.1-1.6-0.1c-0.5,0-1.1,0-1.6,0.1h-0.4c-5.4,0.4-10.5,2.6-14.6,6.2c-5,4.4-8.1,10.6-8.5,17.2l0,0
					c0,0.5-0.1,1.1-0.1,1.6c0,0.5,0,1.1,0.1,1.6l0.1,0.8C13,41,15.2,46,18.6,49.9c0.7,0.8,1.5,1.6,2.4,2.4c4.1,3.6,9.2,5.7,14.6,6.2
					H36c1.1,0.1,2.2,0.1,3.3,0h0.4c5.4-0.4,10.4-2.6,14.5-6.2c0.8-0.7,1.6-1.5,2.3-2.3C60,46,62.1,41,62.6,35.8
					c0-0.3,0.1-0.5,0.1-0.8c0-0.5,0.1-1.1,0.1-1.6S62.5,32.3,62.5,31.8z M39.5,54.9c-0.7,0.1-1.3,0.1-2,0.1c-0.7,0-1.3,0-2-0.1
					c-10.3-1-18.4-9-19.6-19.2c-0.1-0.8-0.1-1.6-0.1-2.5c0-0.5,0-1.1,0.1-1.6c0.8-10.6,9.2-19,19.7-20c0.7-0.1,1.3-0.1,2-0.1
					c0.7,0,1.3,0,2,0.1c10.6,1,18.8,9.5,19.6,20c0,0.5,0.1,1.1,0.1,1.6c0,0.8,0,1.6-0.1,2.5C57.9,46,49.7,53.9,39.5,54.9L39.5,54.9z
					"/>
				<rect x="35.4" y="3" class="st0" width="4.1" height="13.1"/>
				<rect x="7" y="31.8" class="st0" width="13.1" height="4.1"/>
				<rect x="35.4" y="51.1" class="st0" width="4.1" height="13.1"/>
				<rect x="54.7" y="31.8" class="st0" width="13.1" height="4.1"/>
			</g>
		</g>
	</g>
</g>
</svg>
