<?xml version="1.0" encoding="utf-8"?>
<!-- Generator: Adobe Illustrator 23.0.2, SVG Export Plug-In . SVG Version: 6.00 Build 0)  -->
<svg version="1.1" id="Layer_1" xmlns="http://www.w3.org/2000/svg" xmlns:xlink="http://www.w3.org/1999/xlink" x="0px" y="0px"
	 viewBox="0 0 261.2 261.6" style="enable-background:new 0 0 261.2 261.6;" xml:space="preserve">
<style type="text/css">
	.st0{fill:url(#SVGID_1_);}
	.st1{fill:url(#SVGID_2_);}
	.st2{fill:url(#SVGID_3_);}
	.st3{fill:url(#SVGID_4_);}
	.st4{fill:url(#SVGID_5_);}
	.st5{fill:url(#SVGID_6_);}
	.st6{fill:url(#SVGID_7_);}
	.st7{fill:url(#SVGID_8_);}
	.st8{fill:url(#SVGID_9_);}
	.st9{fill:url(#SVGID_10_);}
	.st10{fill:url(#SVGID_11_);}
</style>
<title>evolve-vm-icon</title>
<g>
	
		<linearGradient id="SVGID_1_" gradientUnits="userSpaceOnUse" x1="157.328" y1="101.3003" x2="108.236" y2="16.2843" gradientTransform="matrix(-1 0 0 -1 263.28 188.88)">
		<stop  offset="1.000000e-02" style="stop-color:#F6EC45"/>
		<stop  offset="6.000000e-02" style="stop-color:#F8DE3D"/>
		<stop  offset="0.21" style="stop-color:#F3B23A"/>
		<stop  offset="0.37" style="stop-color:#F29039"/>
		<stop  offset="0.53" style="stop-color:#F07339"/>
		<stop  offset="0.69" style="stop-color:#EE5E39"/>
		<stop  offset="0.84" style="stop-color:#EC563B"/>
		<stop  offset="1" style="stop-color:#EF523B"/>
	</linearGradient>
	<path class="st0" d="M130.5,179.2c27.1,0,49.1-22,49.1-49.1S157.6,81,130.5,81c-27.1,0-49.1,22-49.1,49.1S103.4,179.2,130.5,179.2z
		 M130,88.2C130,88.2,130,88.2,130,88.2c23.2,0,42,18.8,42,42c0,23.2-18.8,42-42,42c-23.2,0-42-18.8-42-42c0,0,0,0,0,0
		C88,107,106.8,88.2,130,88.2z"/>
	
		<linearGradient id="SVGID_2_" gradientUnits="userSpaceOnUse" x1="5076.1025" y1="2710.3511" x2="5107.6958" y2="2718.9531" gradientTransform="matrix(0.71 0.7 -0.7 0.71 -1589.74 -5371.6802)">
		<stop  offset="1.000000e-02" style="stop-color:#F6EC45"/>
		<stop  offset="6.000000e-02" style="stop-color:#F8DE3D"/>
		<stop  offset="0.21" style="stop-color:#F3B23A"/>
		<stop  offset="0.37" style="stop-color:#F29039"/>
		<stop  offset="0.53" style="stop-color:#F07339"/>
		<stop  offset="0.69" style="stop-color:#EE5E39"/>
		<stop  offset="0.84" style="stop-color:#EC563B"/>
		<stop  offset="1" style="stop-color:#EF523B"/>
	</linearGradient>
	<circle class="st1" cx="130.6" cy="129.2" r="16.6"/>
	
		<linearGradient id="SVGID_3_" gradientUnits="userSpaceOnUse" x1="363.9448" y1="-1643.3615" x2="379.0999" y2="-1639.2013" gradientTransform="matrix(-0.68 -0.73 0.73 -0.68 1480.2201 -809.03)">
		<stop  offset="1.000000e-02" style="stop-color:#F6EC45"/>
		<stop  offset="6.000000e-02" style="stop-color:#F8DE3D"/>
		<stop  offset="0.21" style="stop-color:#F3B23A"/>
		<stop  offset="0.37" style="stop-color:#F29039"/>
		<stop  offset="0.53" style="stop-color:#F07339"/>
		<stop  offset="0.69" style="stop-color:#EE5E39"/>
		<stop  offset="0.84" style="stop-color:#EC563B"/>
		<stop  offset="1" style="stop-color:#EF523B"/>
	</linearGradient>
	<circle class="st2" cx="22.3" cy="22.1" r="7.7"/>
	
		<linearGradient id="SVGID_4_" gradientUnits="userSpaceOnUse" x1="5014.2158" y1="2728.1641" x2="5029.4019" y2="2732.293" gradientTransform="matrix(-0.68 0.73 0.73 0.68 1480.0201 -5350.8599)">
		<stop  offset="1.000000e-02" style="stop-color:#F6EC45"/>
		<stop  offset="6.000000e-02" style="stop-color:#F8DE3D"/>
		<stop  offset="0.21" style="stop-color:#F3B23A"/>
		<stop  offset="0.37" style="stop-color:#F29039"/>
		<stop  offset="0.53" style="stop-color:#F07339"/>
		<stop  offset="0.69" style="stop-color:#EE5E39"/>
		<stop  offset="0.84" style="stop-color:#EC563B"/>
		<stop  offset="1" style="stop-color:#EF523B"/>
	</linearGradient>
	<circle class="st3" cx="22.3" cy="240" r="7.7"/>
	
		<linearGradient id="SVGID_5_" gradientUnits="userSpaceOnUse" x1="547.8384" y1="-1832.778" x2="563.0248" y2="-1828.6177" gradientTransform="matrix(0.68 -0.73 -0.73 -0.68 -1481.26 -805.72)">
		<stop  offset="1.000000e-02" style="stop-color:#F6EC45"/>
		<stop  offset="6.000000e-02" style="stop-color:#F8DE3D"/>
		<stop  offset="0.21" style="stop-color:#F3B23A"/>
		<stop  offset="0.37" style="stop-color:#F29039"/>
		<stop  offset="0.53" style="stop-color:#F07339"/>
		<stop  offset="0.69" style="stop-color:#EE5E39"/>
		<stop  offset="0.84" style="stop-color:#EC563B"/>
		<stop  offset="1" style="stop-color:#EF523B"/>
	</linearGradient>
	<circle class="st4" cx="238.9" cy="22.1" r="7.7"/>
	
		<linearGradient id="SVGID_6_" gradientUnits="userSpaceOnUse" x1="5248.5049" y1="2550.6396" x2="5263.6753" y2="2554.7683" gradientTransform="matrix(0.68 0.73 -0.73 0.68 -1481.26 -5350.8599)">
		<stop  offset="1.000000e-02" style="stop-color:#F6EC45"/>
		<stop  offset="6.000000e-02" style="stop-color:#F8DE3D"/>
		<stop  offset="0.21" style="stop-color:#F3B23A"/>
		<stop  offset="0.37" style="stop-color:#F29039"/>
		<stop  offset="0.53" style="stop-color:#F07339"/>
		<stop  offset="0.69" style="stop-color:#EE5E39"/>
		<stop  offset="0.84" style="stop-color:#EC563B"/>
		<stop  offset="1" style="stop-color:#EF523B"/>
	</linearGradient>
	<circle class="st5" cx="238.9" cy="240" r="7.7"/>
	
		<linearGradient id="SVGID_7_" gradientUnits="userSpaceOnUse" x1="82.9721" y1="1504.5612" x2="178.5323" y2="1670.0947" gradientTransform="matrix(1 0 0 1 0 -1458)">
		<stop  offset="1.000000e-02" style="stop-color:#F6EC45"/>
		<stop  offset="6.000000e-02" style="stop-color:#F8DE3D"/>
		<stop  offset="0.21" style="stop-color:#F3B23A"/>
		<stop  offset="0.37" style="stop-color:#F29039"/>
		<stop  offset="0.53" style="stop-color:#F07339"/>
		<stop  offset="0.69" style="stop-color:#EE5E39"/>
		<stop  offset="0.84" style="stop-color:#EC563B"/>
		<stop  offset="1" style="stop-color:#EF523B"/>
	</linearGradient>
	<path class="st6" d="M226.2,123.5L226.2,123.5c-1.3-21-9.6-40.9-23.5-56.7c-2.8-3.2-5.8-6.2-9-9c-15.4-13.5-34.7-21.7-55.1-23.5
		h-1.6c-2,0-4.1-0.4-6.1-0.4c-2-0.1-4.1,0.1-6.1,0.4h-1.6c-20.6,1.5-40.1,9.7-55.6,23.5c-19.1,16.7-30.7,40.4-32.4,65.7l0,0
		c0,2-0.4,4.1-0.4,6.1c-0.1,2,0.1,4.1,0.4,6.1l0.4,3.2c2,20,10.2,38.8,23.5,53.9c2.8,3.2,5.8,6.2,9,9c15.5,13.5,35,21.8,55.5,23.5
		h1.6c4.2,0.4,8.4,0.4,12.5,0h1.6c20.4-1.6,39.8-9.8,55.1-23.5c3.2-2.8,6.2-5.8,8.9-8.9c13.4-15,21.6-33.9,23.5-53.9
		c0-1.2,0.4-2,0.4-3.2c0-2,0.4-4.1,0.4-6.1S226.2,125.5,226.2,123.5z M138.6,211.7c-2.5,0.3-5.1,0.5-7.7,0.4
		c-2.6,0.1-5.1-0.1-7.7-0.4C84.2,208,53,177.5,48.5,138.5c-0.4-3.1-0.5-6.3-0.4-9.4c-0.1-2,0.1-4.1,0.4-6.1
		c3.1-40.3,34.9-72.5,75.2-76.2c2.5-0.3,5.1-0.5,7.7-0.4c2.6-0.1,5.1,0.1,7.7,0.4c40.2,3.9,71.8,36.1,74.8,76.4c0,2,0.4,4.1,0.4,6.1
		c0.1,3.1-0.1,6.3-0.4,9.4C208.9,177.6,177.7,207.9,138.6,211.7L138.6,211.7z"/>
	
		<linearGradient id="SVGID_8_" gradientUnits="userSpaceOnUse" x1="118.0376" y1="1474.8593" x2="143.6558" y2="1519.2925" gradientTransform="matrix(1 0 0 1 0 -1458)">
		<stop  offset="1.000000e-02" style="stop-color:#F6EC45"/>
		<stop  offset="6.000000e-02" style="stop-color:#F8DE3D"/>
		<stop  offset="0.21" style="stop-color:#F3B23A"/>
		<stop  offset="0.37" style="stop-color:#F29039"/>
		<stop  offset="0.53" style="stop-color:#F07339"/>
		<stop  offset="0.69" style="stop-color:#EE5E39"/>
		<stop  offset="0.84" style="stop-color:#EC563B"/>
		<stop  offset="1" style="stop-color:#EF523B"/>
	</linearGradient>
	<rect x="123" y="14" class="st7" width="15.6" height="50"/>
	
		<linearGradient id="SVGID_9_" gradientUnits="userSpaceOnUse" x1="-1505.3431" y1="-7803.7954" x2="-1538.9066" y2="-7784.4165" gradientTransform="matrix(0 -1 1 0 7834.2197 -1390.8101)">
		<stop  offset="1.000000e-02" style="stop-color:#F6EC45"/>
		<stop  offset="6.000000e-02" style="stop-color:#F8DE3D"/>
		<stop  offset="0.21" style="stop-color:#F3B23A"/>
		<stop  offset="0.37" style="stop-color:#F29039"/>
		<stop  offset="0.53" style="stop-color:#F07339"/>
		<stop  offset="0.69" style="stop-color:#EE5E39"/>
		<stop  offset="0.84" style="stop-color:#EC563B"/>
		<stop  offset="1" style="stop-color:#EF523B"/>
	</linearGradient>
	<rect x="15.1" y="123.5" class="st8" width="50" height="15.6"/>
	
		<linearGradient id="SVGID_10_" gradientUnits="userSpaceOnUse" x1="7783.4365" y1="-9424.7871" x2="7757.8032" y2="-9469.2051" gradientTransform="matrix(-1 0 0 -1 7901.4102 -9225.0303)">
		<stop  offset="1.000000e-02" style="stop-color:#F6EC45"/>
		<stop  offset="6.000000e-02" style="stop-color:#F8DE3D"/>
		<stop  offset="0.21" style="stop-color:#F3B23A"/>
		<stop  offset="0.37" style="stop-color:#F29039"/>
		<stop  offset="0.53" style="stop-color:#F07339"/>
		<stop  offset="0.69" style="stop-color:#EE5E39"/>
		<stop  offset="0.84" style="stop-color:#EC563B"/>
		<stop  offset="1" style="stop-color:#EF523B"/>
	</linearGradient>
	<rect x="123" y="197" class="st9" width="15.6" height="50"/>
	
		<linearGradient id="SVGID_11_" gradientUnits="userSpaceOnUse" x1="9406.7314" y1="-144.6433" x2="9440.2803" y2="-164.0056" gradientTransform="matrix(0 1 -1 0 67.19 -9292.2305)">
		<stop  offset="1.000000e-02" style="stop-color:#F6EC45"/>
		<stop  offset="6.000000e-02" style="stop-color:#F8DE3D"/>
		<stop  offset="0.21" style="stop-color:#F3B23A"/>
		<stop  offset="0.37" style="stop-color:#F29039"/>
		<stop  offset="0.53" style="stop-color:#F07339"/>
		<stop  offset="0.69" style="stop-color:#EE5E39"/>
		<stop  offset="0.84" style="stop-color:#EC563B"/>
		<stop  offset="1" style="stop-color:#EF523B"/>
	</linearGradient>
	<rect x="196.5" y="123.5" class="st10" width="50" height="15.6"/>
</g>
</svg>
