<svg xmlns="http://www.w3.org/2000/svg" xmlns:xlink="http://www.w3.org/1999/xlink" viewBox="0 0 346.28 58.27"><defs><style>.cls-1{fill:url(#linear-gradient);}.cls-2{fill:url(#linear-gradient-2);}.cls-3{fill:url(#linear-gradient-3);}.cls-4{fill:url(#linear-gradient-4);}.cls-5{fill:url(#linear-gradient-5);}.cls-6{fill:url(#linear-gradient-6);}.cls-7{fill:url(#linear-gradient-7);}.cls-8{fill:url(#linear-gradient-8);}.cls-9{fill:url(#linear-gradient-9);}.cls-10{fill:url(#linear-gradient-10);}.cls-11{fill:url(#linear-gradient-11);}.cls-12{fill:#fff;}</style><linearGradient id="linear-gradient" x1="4826.15" y1="-3094.23" x2="4833.97" y2="-3096.36" gradientTransform="matrix(0.71, 0.7, 0.7, -0.71, -1222.83, -5569.52)" gradientUnits="userSpaceOnUse"><stop offset="0.01" stop-color="#f7ed41"/><stop offset="0.06" stop-color="#f8de3c"/><stop offset="0.21" stop-color="#f3b23a"/><stop offset="0.37" stop-color="#f28f39"/><stop offset="0.53" stop-color="#f07339"/><stop offset="0.69" stop-color="#ee5e39"/><stop offset="0.84" stop-color="#ed543a"/><stop offset="1" stop-color="#ee503a"/></linearGradient><linearGradient id="linear-gradient-2" x1="5484.26" y1="3173.64" x2="5488.01" y2="3172.61" gradientTransform="matrix(-0.68, -0.73, -0.73, 0.68, 6058.89, 1869.91)" xlink:href="#linear-gradient"/><linearGradient id="linear-gradient-3" x1="8291.47" y1="556.22" x2="8295.23" y2="555.2" gradientTransform="matrix(-0.68, 0.73, -0.73, -0.68, 6056.47, -5636.86)" xlink:href="#linear-gradient"/><linearGradient id="linear-gradient-4" x1="2122.21" y1="-462.69" x2="2125.96" y2="-463.72" gradientTransform="matrix(0.68, -0.73, 0.73, 0.68, -1051.65, 1870.86)" xlink:href="#linear-gradient"/><linearGradient id="linear-gradient-5" x1="4925.7" y1="-3075.35" x2="4929.45" y2="-3076.37" gradientTransform="matrix(0.68, 0.73, 0.73, -0.68, -1051.65, -5636.86)" xlink:href="#linear-gradient"/><linearGradient id="linear-gradient-6" x1="22.98" y1="227.35" x2="34.99" y2="206.56" gradientTransform="matrix(1, 0, 0, -1, 0, 246)" xlink:href="#linear-gradient"/><linearGradient id="linear-gradient-7" x1="17.43" y1="237.92" x2="41.02" y2="197.06" gradientTransform="matrix(1, 0, 0, -1, 0, 246)" xlink:href="#linear-gradient"/><linearGradient id="linear-gradient-8" x1="25.69" y1="245.24" x2="32.31" y2="233.76" gradientTransform="matrix(1, 0, 0, -1, 0, 246)" xlink:href="#linear-gradient"/><linearGradient id="linear-gradient-9" x1="2282.83" y1="10841.95" x2="2274.19" y2="10836.97" gradientTransform="matrix(0, -1, -1, 0, 10845.96, 2307.51)" xlink:href="#linear-gradient"/><linearGradient id="linear-gradient-10" x1="12881.78" y1="8584.21" x2="12875.16" y2="8595.69" gradientTransform="matrix(-1, 0, 0, 1, 12907.47, -8538.45)" xlink:href="#linear-gradient"/><linearGradient id="linear-gradient-11" x1="10624.66" y1="-2012.5" x2="10633.28" y2="-2007.52" gradientTransform="matrix(0, 1, 1, 0, 2061.51, -10599.97)" xlink:href="#linear-gradient"/></defs><title>evolve-vm-horizontal-white-color</title><g id="Layer_2" data-name="Layer 2"><g id="Layer_1-2" data-name="Layer 1"><g id="evolve-vm-horizontal-white-color"><g id="Layer_1-2-2" data-name="Layer 1-2"><circle class="cls-1" cx="29.25" cy="28.92" r="4.05"/><circle class="cls-2" cx="2.42" cy="2.46" r="1.95"/><circle class="cls-3" cx="2.42" cy="56.32" r="1.95"/><circle class="cls-4" cx="56.07" cy="2.46" r="1.95"/><circle class="cls-5" cx="56.07" cy="56.32" r="1.95"/><path class="cls-6" d="M41,28.28a11.81,11.81,0,0,0-2.94-7.11A9,9,0,0,0,37,20.05a12,12,0,0,0-7.16-2.92,8.34,8.34,0,0,0-1.58,0A12,12,0,0,0,21,20.05a11.63,11.63,0,0,0-1.1,1.12A11.81,11.81,0,0,0,17,28.28v1.58A11.86,11.86,0,0,0,19.94,37a11.42,11.42,0,0,0,1.1,1.1A12.08,12.08,0,0,0,28.21,41h1.58A12.07,12.07,0,0,0,37,38.08,10.48,10.48,0,0,0,38.06,37,11.86,11.86,0,0,0,41,29.86v-.79C41,28.81,41,28.54,41,28.28ZM29.24,39.34A10.43,10.43,0,1,1,39.67,28.92,10.43,10.43,0,0,1,29.24,39.34Z"/><path class="cls-7" d="M52.8,27h0A23.41,23.41,0,0,0,47,13a19.6,19.6,0,0,0-2.19-2.18A23.34,23.34,0,0,0,31.19,5h-.4c-.51,0-1-.06-1.55-.06A13.22,13.22,0,0,0,27.69,5h-.35a23.43,23.43,0,0,0-13.66,5.76A21.46,21.46,0,0,0,11.5,13,23.35,23.35,0,0,0,5.66,27h0c0,.51-.06,1-.06,1.54A13.22,13.22,0,0,0,5.66,30l.06.77a23.51,23.51,0,0,0,5.75,13.25,28.28,28.28,0,0,0,2.19,2.19A23.47,23.47,0,0,0,27.32,52h.35a17.72,17.72,0,0,0,3.09,0h.41a23.41,23.41,0,0,0,13.61-5.76A22.64,22.64,0,0,0,47,44.05,23.37,23.37,0,0,0,52.72,30.8c0-.26.05-.51.06-.77,0-.51.06-1,.06-1.54S52.84,27.48,52.8,27ZM31.19,49.34q-1,.09-2,.09a17.26,17.26,0,0,1-1.9-.09A20.55,20.55,0,0,1,8.85,31.23a19.87,19.87,0,0,1-.13-2.31,12.88,12.88,0,0,1,.06-1.53A20.55,20.55,0,0,1,27.34,8.49c.63-.06,1.27-.09,1.9-.09a18.19,18.19,0,0,1,2,.1A20.56,20.56,0,0,1,49.72,27.39c0,.5.05,1,.05,1.53a19.87,19.87,0,0,1-.13,2.31A20.56,20.56,0,0,1,31.19,49.34Z"/><rect class="cls-8" x="27" width="4" height="13"/><rect class="cls-9" y="27" width="13" height="4"/><rect class="cls-10" x="27" y="45" width="4" height="13"/><rect class="cls-11" x="45" y="27" width="13" height="4"/></g><path class="cls-12" d="M84,8h23v4H88V27h16v4H88V46h20v3H84Z"/><path class="cls-12" d="M111.51,20h4l8.16,21.5a35.19,35.19,0,0,1,1,3.5h.12a30.85,30.85,0,0,1,1-3.5L134,20h4L126.9,49h-4.26Z"/><path class="cls-12" d="M156.94,19.53a15.33,15.33,0,1,1-15.47,15.19A15.15,15.15,0,0,1,156.94,19.53Zm0,27.12c6.29,0,11.41-5.13,11.41-11.93a11.41,11.41,0,1,0-22.81,0C145.54,41.52,150.66,46.65,156.94,46.65Z"/><path class="cls-12" d="M180,9h4V42.11c0,3.84,1.64,4.42,3.07,4.42a7.76,7.76,0,0,0,.93-.06V50a9.24,9.24,0,0,1-1.42.12c-2.38,0-6.58-.76-6.58-7.16Z"/><path class="cls-12" d="M190.29,20h4.05l8.16,21.5c.52,1.46,1,3.5,1,3.5h.12a30.85,30.85,0,0,1,1-3.5l8.1-21.5h4L205.68,49h-4.26Z"/><path class="cls-12" d="M234.79,19.46c8.09,0,12.22,6.23,12.22,13.5,0,.7-.11,2-.11,2H224.44c.17,7.51,5.29,11.58,11.34,11.58A13.61,13.61,0,0,0,244.69,43l1.8,3a16.79,16.79,0,0,1-10.82,4.07c-8.73,0-15.31-6.28-15.31-15.3C220.36,25.22,226.88,19.46,234.79,19.46ZM243,32c-.23-6.11-4-9-8.32-9-4.89,0-9.14,3.08-10.07,9Z"/><path class="cls-12" d="M266.11,9h4.48l11.23,30.76c.75,2.07,1.56,5.24,1.56,5.24h.11s.81-3.17,1.56-5.24L296.28,9h4.48L285.54,50h-4.2Z"/><path class="cls-12" d="M309.16,9h4.2l10.69,24c.93,2.09,2,5,2,5h.11s1.11-2.91,2-5L338.87,9H343l3.26,41h-4L340,20.81c-.17-2.25-.11-5.81-.11-5.81h0s-1.24,3.65-2.18,5.76L327.94,42h-3.68L314.6,20.86c-.94-2.05-2.23-5.86-2.23-5.86h-.06s.06,3.67-.11,5.91L309.89,50h-4Z"/></g></g></g></svg>