<?xml version="1.0" encoding="utf-8"?>
<!-- Generator: Adobe Illustrator 23.0.2, SVG Export Plug-In . SVG Version: 6.00 Build 0)  -->
<svg version="1.1" id="Layer_1" xmlns="http://www.w3.org/2000/svg" xmlns:xlink="http://www.w3.org/1999/xlink" x="0px" y="0px"
	 viewBox="0 0 252.1 227" style="enable-background:new 0 0 252.1 227;" xml:space="preserve">
<style type="text/css">
	.st0{fill:#FFFFFF;}
	.st1{fill:url(#SVGID_1_);}
	.st2{fill:url(#SVGID_2_);}
	.st3{fill:url(#SVGID_3_);}
	.st4{fill:url(#SVGID_4_);}
	.st5{fill:url(#SVGID_5_);}
	.st6{fill:url(#SVGID_6_);}
	.st7{fill:url(#SVGID_7_);}
	.st8{fill:url(#SVGID_8_);}
	.st9{fill:url(#SVGID_9_);}
	.st10{fill:url(#SVGID_10_);}
	.st11{fill:url(#SVGID_11_);}
</style>
<title>Evolve-VM-verticle-white-text</title>
<g>
	<g id="Layer_1-2">
		<g id="Evolve-VM-verticle-white-text">
			<path class="st0" d="M21,207H5v15h18v4H0v-41h22v4H5v14h16V207z"/>
			<path class="st0" d="M31,196l6,17.2c1,2.6,1.8,5.2,2.5,7.8h0.2c0.7-2.5,1.6-5.1,2.6-7.8l5.9-17.2h5.5l-11.8,30h-5.2l-11.4-30H31z
				"/>
			<path class="st0" d="M84.9,211.2c0,11-7.6,15.8-14.8,15.8c-8,0-14.2-5.9-14.2-15.3c0-9.9,6.5-15.8,14.7-15.8
				C79.1,196,84.9,202.2,84.9,211.2z M61.4,211.5c0,6.5,3.7,11.4,9,11.4s9-4.8,9-11.5c0-5-2.5-11.4-8.9-11.4S61.4,205.9,61.4,211.5
				L61.4,211.5z"/>
			<path class="st0" d="M92,183h5v44h-5V183z"/>
			<path class="st0" d="M108,196l6,17.2c1,2.6,1.8,5.2,2.5,7.8h0.2c0.7-2.5,1.6-5.1,2.6-7.8l5.9-17.2h5.5L119,226h-5.2l-11.4-30H108
				z"/>
			<path class="st0" d="M138.1,212c0.1,7.3,4.8,10.3,10.2,10.3c2.8,0.1,5.6-0.4,8.2-1.5l0.9,3.9c-3.1,1.3-6.5,1.9-9.9,1.8
				c-9.1,0-14.6-6-14.6-15s5.3-16,13.9-16c9.7,0,12.3,8.5,12.3,14c0,0.8,0,1.7-0.1,2.5H138.1z M153.9,209c0.1-3.4-1.4-8.8-7.5-8.8
				c-5.4,0-7.9,5-8.3,8.8H153.9z"/>
			<path class="st0" d="M185.9,226l-13.4-41h5.6l6.5,20.5c1.8,5.6,3.3,10.7,4.4,15.5h0.1c1.2-4.8,2.9-10.1,4.8-15.5l7-20.5h5.5
				l-14.7,41H185.9z"/>
			<path class="st0" d="M245.9,207.9c-0.3-5.8-0.7-12.7-0.6-17.9h-0.1c-1.4,4.9-3.1,10.1-5.2,15.8l-7.3,20.2h-4.1l-6.7-19.8
				c-2-5.9-3.6-11.2-4.8-16.2l0,0c-0.1,5.1-0.4,12.1-0.8,18.3L215,226h-5.1l2.9-41h6.8l7.1,20c1.7,5.1,3.1,9.7,4.2,14h0.2
				c1-4.2,2.5-8.7,4.4-14l7.4-20h6.8l2.6,41h-5.2L245.9,207.9z"/>
			<g>
				
					<linearGradient id="SVGID_1_" gradientUnits="userSpaceOnUse" x1="142.9782" y1="100.6191" x2="111.5894" y2="46.2609" gradientTransform="matrix(-1 0 0 -1 253.28 152.88)">
					<stop  offset="1.000000e-02" style="stop-color:#F6EC45"/>
					<stop  offset="6.000000e-02" style="stop-color:#F8DE3D"/>
					<stop  offset="0.21" style="stop-color:#F3B23A"/>
					<stop  offset="0.37" style="stop-color:#F29039"/>
					<stop  offset="0.53" style="stop-color:#F07339"/>
					<stop  offset="0.69" style="stop-color:#EE5E39"/>
					<stop  offset="0.84" style="stop-color:#EC563B"/>
					<stop  offset="1" style="stop-color:#EF523B"/>
				</linearGradient>
				<path class="st1" d="M126,110.8c17.3,0,31.4-14,31.4-31.4s-14-31.4-31.4-31.4c-17.3,0-31.4,14-31.4,31.4S108.7,110.8,126,110.8z
					 M125.7,52.7C125.7,52.7,125.7,52.7,125.7,52.7c14.8,0,26.9,12,26.9,26.9c0,14.8-12,26.9-26.9,26.9c-14.8,0-26.9-12-26.9-26.9
					c0,0,0,0,0,0C98.8,64.7,110.8,52.7,125.7,52.7z"/>
				
					<linearGradient id="SVGID_2_" gradientUnits="userSpaceOnUse" x1="5058.0654" y1="2671.4863" x2="5078.2656" y2="2676.9863" gradientTransform="matrix(0.71 0.7 -0.7 0.71 -1603.79 -5373.4004)">
					<stop  offset="1.000000e-02" style="stop-color:#F6EC45"/>
					<stop  offset="6.000000e-02" style="stop-color:#F8DE3D"/>
					<stop  offset="0.21" style="stop-color:#F3B23A"/>
					<stop  offset="0.37" style="stop-color:#F29039"/>
					<stop  offset="0.53" style="stop-color:#F07339"/>
					<stop  offset="0.69" style="stop-color:#EE5E39"/>
					<stop  offset="0.84" style="stop-color:#EC563B"/>
					<stop  offset="1" style="stop-color:#EF523B"/>
				</linearGradient>
				<circle class="st2" cx="126" cy="78.9" r="10.6"/>
				
					<linearGradient id="SVGID_3_" gradientUnits="userSpaceOnUse" x1="335.4563" y1="-1634.437" x2="345.1462" y2="-1631.7771" gradientTransform="matrix(-0.68 -0.73 0.73 -0.68 1484.9601 -842.92)">
					<stop  offset="1.000000e-02" style="stop-color:#F6EC45"/>
					<stop  offset="6.000000e-02" style="stop-color:#F8DE3D"/>
					<stop  offset="0.21" style="stop-color:#F3B23A"/>
					<stop  offset="0.37" style="stop-color:#F29039"/>
					<stop  offset="0.53" style="stop-color:#F07339"/>
					<stop  offset="0.69" style="stop-color:#EE5E39"/>
					<stop  offset="0.84" style="stop-color:#EC563B"/>
					<stop  offset="1" style="stop-color:#EF523B"/>
				</linearGradient>
				<circle class="st3" cx="56.8" cy="10.4" r="4.9"/>
				
					<linearGradient id="SVGID_4_" gradientUnits="userSpaceOnUse" x1="4958.8857" y1="2697.8442" x2="4968.5957" y2="2700.4841" gradientTransform="matrix(-0.68 0.73 0.73 0.68 1484.7601 -5352.9697)">
					<stop  offset="1.000000e-02" style="stop-color:#F6EC45"/>
					<stop  offset="6.000000e-02" style="stop-color:#F8DE3D"/>
					<stop  offset="0.21" style="stop-color:#F3B23A"/>
					<stop  offset="0.37" style="stop-color:#F29039"/>
					<stop  offset="0.53" style="stop-color:#F07339"/>
					<stop  offset="0.69" style="stop-color:#EE5E39"/>
					<stop  offset="0.84" style="stop-color:#EC563B"/>
					<stop  offset="1" style="stop-color:#EF523B"/>
				</linearGradient>
				<circle class="st4" cx="56.8" cy="149.7" r="4.9"/>
				
					<linearGradient id="SVGID_5_" gradientUnits="userSpaceOnUse" x1="519.1507" y1="-1824.7688" x2="528.8607" y2="-1822.1088" gradientTransform="matrix(0.68 -0.73 -0.73 -0.68 -1496 -839.61)">
					<stop  offset="1.000000e-02" style="stop-color:#F6EC45"/>
					<stop  offset="6.000000e-02" style="stop-color:#F8DE3D"/>
					<stop  offset="0.21" style="stop-color:#F3B23A"/>
					<stop  offset="0.37" style="stop-color:#F29039"/>
					<stop  offset="0.53" style="stop-color:#F07339"/>
					<stop  offset="0.69" style="stop-color:#EE5E39"/>
					<stop  offset="0.84" style="stop-color:#EC563B"/>
					<stop  offset="1" style="stop-color:#EF523B"/>
				</linearGradient>
				<circle class="st5" cx="195.3" cy="10.4" r="4.9"/>
				
					<linearGradient id="SVGID_6_" gradientUnits="userSpaceOnUse" x1="5173.9766" y1="2514.2476" x2="5183.6763" y2="2516.8875" gradientTransform="matrix(0.68 0.73 -0.73 0.68 -1496 -5352.9697)">
					<stop  offset="1.000000e-02" style="stop-color:#F6EC45"/>
					<stop  offset="6.000000e-02" style="stop-color:#F8DE3D"/>
					<stop  offset="0.21" style="stop-color:#F3B23A"/>
					<stop  offset="0.37" style="stop-color:#F29039"/>
					<stop  offset="0.53" style="stop-color:#F07339"/>
					<stop  offset="0.69" style="stop-color:#EE5E39"/>
					<stop  offset="0.84" style="stop-color:#EC563B"/>
					<stop  offset="1" style="stop-color:#EF523B"/>
				</linearGradient>
				<circle class="st6" cx="195.3" cy="149.7" r="4.9"/>
				
					<linearGradient id="SVGID_7_" gradientUnits="userSpaceOnUse" x1="95.6087" y1="1484.0342" x2="156.7087" y2="1589.8743" gradientTransform="matrix(1 0 0 1 0 -1458)">
					<stop  offset="1.000000e-02" style="stop-color:#F6EC45"/>
					<stop  offset="6.000000e-02" style="stop-color:#F8DE3D"/>
					<stop  offset="0.21" style="stop-color:#F3B23A"/>
					<stop  offset="0.37" style="stop-color:#F29039"/>
					<stop  offset="0.53" style="stop-color:#F07339"/>
					<stop  offset="0.69" style="stop-color:#EE5E39"/>
					<stop  offset="0.84" style="stop-color:#EC563B"/>
					<stop  offset="1" style="stop-color:#EF523B"/>
				</linearGradient>
				<path class="st7" d="M187.2,75.2L187.2,75.2c-0.8-13.4-6.1-26.2-15-36.3c-1.8-2-3.7-4-5.8-5.7c-9.9-8.6-22.2-13.9-35.2-15h-1
					c-1.3,0-2.6-0.3-3.9-0.3c-1.3,0-2.6,0-3.9,0.3h-1c-13.2,1-25.7,6.2-35.5,15C73.7,43.9,66.3,59,65.2,75.2l0,0
					c0,1.3-0.3,2.6-0.3,3.9c0,1.3,0,2.6,0.3,3.9l0.3,2.1c1.3,12.8,6.5,24.8,15,34.4c1.8,2,3.7,4,5.7,5.7c9.9,8.7,22.3,13.9,35.5,15
					h1c2.7,0.3,5.3,0.3,8,0h1c13.1-1,25.4-6.3,35.2-15c2-1.8,3.9-3.7,5.7-5.7c8.5-9.6,13.8-21.7,15-34.4c0-0.8,0.3-1.3,0.3-2.1
					c0-1.3,0.2-2.6,0.2-3.9S187.2,76.5,187.2,75.2z M131.2,131.6c-1.6,0.2-3.3,0.3-4.9,0.3c-1.6,0-3.3,0-4.9-0.3
					c-25-2.3-44.9-21.9-47.8-46.8c-0.2-2-0.3-4-0.3-6c0-1.3,0-2.6,0.3-3.9c2-25.8,22.3-46.4,48.1-48.8c1.6-0.2,3.3-0.3,4.9-0.3
					c1.6,0,3.3,0,4.9,0.3c25.7,2.5,45.9,23.1,47.8,48.8c0,1.3,0.2,2.6,0.2,3.9c0,2,0,4-0.2,6C176.1,109.8,156.2,129.2,131.2,131.6
					L131.2,131.6z"/>
				
					<linearGradient id="SVGID_8_" gradientUnits="userSpaceOnUse" x1="118.0291" y1="1465.0432" x2="134.4091" y2="1493.4532" gradientTransform="matrix(1 0 0 1 0 -1458)">
					<stop  offset="1.000000e-02" style="stop-color:#F6EC45"/>
					<stop  offset="6.000000e-02" style="stop-color:#F8DE3D"/>
					<stop  offset="0.21" style="stop-color:#F3B23A"/>
					<stop  offset="0.37" style="stop-color:#F29039"/>
					<stop  offset="0.53" style="stop-color:#F07339"/>
					<stop  offset="0.69" style="stop-color:#EE5E39"/>
					<stop  offset="0.84" style="stop-color:#EC563B"/>
					<stop  offset="1" style="stop-color:#EF523B"/>
				</linearGradient>
				<rect x="121.2" y="5.2" class="st8" width="10" height="32"/>
				
					<linearGradient id="SVGID_9_" gradientUnits="userSpaceOnUse" x1="-1483.3047" y1="-7785.2095" x2="-1504.7646" y2="-7772.8188" gradientTransform="matrix(0 -1 1 0 7847.2197 -1413.8101)">
					<stop  offset="1.000000e-02" style="stop-color:#F6EC45"/>
					<stop  offset="6.000000e-02" style="stop-color:#F8DE3D"/>
					<stop  offset="0.21" style="stop-color:#F3B23A"/>
					<stop  offset="0.37" style="stop-color:#F29039"/>
					<stop  offset="0.53" style="stop-color:#F07339"/>
					<stop  offset="0.69" style="stop-color:#EE5E39"/>
					<stop  offset="0.84" style="stop-color:#EC563B"/>
					<stop  offset="1" style="stop-color:#EF523B"/>
				</linearGradient>
				<rect x="52.2" y="75.2" class="st9" width="32" height="10"/>
				
					<linearGradient id="SVGID_10_" gradientUnits="userSpaceOnUse" x1="7773.4219" y1="-9385.0156" x2="7757.0322" y2="-9413.416" gradientTransform="matrix(-1 0 0 -1 7891.4102 -9261.0303)">
					<stop  offset="1.000000e-02" style="stop-color:#F6EC45"/>
					<stop  offset="6.000000e-02" style="stop-color:#F8DE3D"/>
					<stop  offset="0.21" style="stop-color:#F3B23A"/>
					<stop  offset="0.37" style="stop-color:#F29039"/>
					<stop  offset="0.53" style="stop-color:#F07339"/>
					<stop  offset="0.69" style="stop-color:#EE5E39"/>
					<stop  offset="0.84" style="stop-color:#EC563B"/>
					<stop  offset="1" style="stop-color:#EF523B"/>
				</linearGradient>
				<rect x="121.2" y="122.2" class="st10" width="10" height="32"/>
				
					<linearGradient id="SVGID_11_" gradientUnits="userSpaceOnUse" x1="9374.7051" y1="-133.8109" x2="9396.1553" y2="-146.1909" gradientTransform="matrix(0 1 -1 0 44.19 -9305.2305)">
					<stop  offset="1.000000e-02" style="stop-color:#F6EC45"/>
					<stop  offset="6.000000e-02" style="stop-color:#F8DE3D"/>
					<stop  offset="0.21" style="stop-color:#F3B23A"/>
					<stop  offset="0.37" style="stop-color:#F29039"/>
					<stop  offset="0.53" style="stop-color:#F07339"/>
					<stop  offset="0.69" style="stop-color:#EE5E39"/>
					<stop  offset="0.84" style="stop-color:#EC563B"/>
					<stop  offset="1" style="stop-color:#EF523B"/>
				</linearGradient>
				<rect x="168.2" y="75.2" class="st11" width="32" height="10"/>
			</g>
		</g>
	</g>
</g>
</svg>
