<?xml version="1.0" encoding="utf-8"?>
<!-- Generator: Adobe Illustrator 23.0.2, SVG Export Plug-In . SVG Version: 6.00 Build 0)  -->
<svg version="1.1" id="Layer_1" xmlns="http://www.w3.org/2000/svg" xmlns:xlink="http://www.w3.org/1999/xlink" x="0px" y="0px"
	 viewBox="0 0 252.1 227" style="enable-background:new 0 0 252.1 227;" xml:space="preserve">
<style type="text/css">
	.st0{fill:#404041;}
</style>
<title>Evolve VM verticle dark</title>
<path class="st0" d="M21,207H5v15h18v4H0v-41h22v4H5v14h16V207z"/>
<path class="st0" d="M31,196l6,17.2c1,2.6,1.8,5.2,2.5,7.8h0.2c0.7-2.5,1.6-5.1,2.6-7.8l5.9-17.2h5.5l-11.8,30h-5.2l-11.4-30H31z"/>
<path class="st0" d="M84.9,211.2c0,11-7.6,15.8-14.8,15.8c-8,0-14.2-5.9-14.2-15.3c0-9.9,6.5-15.8,14.7-15.8
	C79.1,196,84.9,202.2,84.9,211.2z M61.4,211.5c0,6.5,3.8,11.4,9,11.4s9-4.8,9-11.5c0-5-2.5-11.4-8.9-11.4S61.3,205.9,61.4,211.5
	L61.4,211.5z"/>
<path class="st0" d="M92,183h5v44h-5V183z"/>
<path class="st0" d="M108,196l6,17.2c1,2.6,1.8,5.2,2.5,7.8h0.2c0.7-2.5,1.6-5.1,2.6-7.8l5.9-17.2h5.5L119,226h-5.2l-11.4-30H108z"
	/>
<path class="st0" d="M138.1,212c0.1,7.3,4.8,10.3,10.2,10.3c2.8,0.1,5.6-0.4,8.2-1.5l0.9,3.9c-3.1,1.3-6.5,1.9-9.9,1.8
	c-9.1,0-14.6-6-14.6-15s5.3-16,13.9-16c9.7,0,12.3,8.5,12.3,14c0,0.8,0,1.7-0.1,2.5H138.1z M153.9,209c0.1-3.4-1.4-8.8-7.5-8.8
	c-5.5,0-7.9,5-8.3,8.8H153.9z"/>
<path class="st0" d="M185.9,226l-13.4-41h5.6l6.5,20.5c1.8,5.6,3.3,10.7,4.4,15.5h0.1c1.2-4.8,2.9-10.1,4.8-15.5l7-20.5h5.5
	l-14.7,41H185.9z"/>
<path class="st0" d="M245.9,207.9c-0.3-5.8-0.7-12.7-0.6-17.9h-0.1c-1.4,4.9-3.1,10.1-5.2,15.8l-7.3,20.2h-4.1l-6.7-19.8
	c-2-5.9-3.6-11.2-4.8-16.2l0,0c-0.1,5.1-0.4,12.1-0.8,18.3L215,226h-5.1l2.9-41h6.8l7.1,20c1.7,5.1,3.1,9.7,4.2,14h0.2
	c1-4.2,2.5-8.7,4.4-14l7.4-20h6.8l2.6,41h-5.2L245.9,207.9z"/>
<g>
	<path class="st0" d="M126.6,107.8c17.3,0,31.4-14,31.4-31.4s-14-31.4-31.4-31.4c-17.3,0-31.4,14-31.4,31.4S109.3,107.8,126.6,107.8
		z M126.3,49.7C126.3,49.7,126.3,49.7,126.3,49.7c14.8,0,26.9,12,26.9,26.9c0,14.8-12,26.9-26.9,26.9c-14.8,0-26.9-12-26.9-26.9
		c0,0,0,0,0,0C99.4,61.7,111.5,49.7,126.3,49.7z"/>
	<circle class="st0" cx="126.7" cy="75.9" r="10.6"/>
	<circle class="st0" cx="57.5" cy="7.4" r="4.9"/>
	<circle class="st0" cx="57.5" cy="146.7" r="4.9"/>
	<circle class="st0" cx="195.9" cy="7.4" r="4.9"/>
	<circle class="st0" cx="195.9" cy="146.7" r="4.9"/>
	<path class="st0" d="M187.8,72.2L187.8,72.2c-0.8-13.4-6.1-26.2-15-36.3c-1.8-2-3.7-4-5.8-5.7c-9.9-8.6-22.2-13.9-35.2-15h-1
		c-1.3,0-2.6-0.3-3.9-0.3c-1.3,0-2.6,0-3.9,0.3h-1c-13.2,1-25.7,6.2-35.5,15C74.3,40.9,66.9,56,65.8,72.2l0,0c0,1.3-0.3,2.6-0.3,3.9
		c0,1.3,0,2.6,0.3,3.9l0.3,2.1c1.3,12.8,6.5,24.8,15,34.4c1.8,2,3.7,4,5.7,5.7c9.9,8.7,22.3,13.9,35.5,15h1c2.7,0.3,5.3,0.3,8,0h1
		c13.1-1,25.4-6.3,35.2-15c2-1.8,3.9-3.7,5.7-5.7c8.5-9.6,13.8-21.7,15-34.4c0-0.8,0.3-1.3,0.3-2.1c0-1.3,0.2-2.6,0.2-3.9
		S187.8,73.5,187.8,72.2z M131.8,128.6c-1.6,0.2-3.3,0.3-4.9,0.3c-1.6,0-3.3,0-4.9-0.3c-25-2.3-44.9-21.9-47.8-46.8
		c-0.2-2-0.3-4-0.3-6c0-1.3,0-2.6,0.3-3.9c2-25.8,22.3-46.4,48.1-48.8c1.6-0.2,3.3-0.3,4.9-0.3c1.6,0,3.3,0,4.9,0.3
		c25.7,2.5,45.9,23.1,47.8,48.8c0,1.3,0.2,2.6,0.2,3.9c0,2,0,4-0.2,6C176.8,106.8,156.8,126.2,131.8,128.6L131.8,128.6z"/>
	<rect x="121.8" y="2.2" class="st0" width="10" height="32"/>
	<rect x="52.8" y="72.2" class="st0" width="32" height="10"/>
	<rect x="121.8" y="119.2" class="st0" width="10" height="32"/>
	<rect x="168.8" y="72.2" class="st0" width="32" height="10"/>
</g>
</svg>
