<?xml version="1.0" encoding="utf-8"?>
<!-- Generator: Adobe Illustrator 23.0.2, SVG Export Plug-In . SVG Version: 6.00 Build 0)  -->
<svg version="1.1" id="Layer_1" xmlns="http://www.w3.org/2000/svg" xmlns:xlink="http://www.w3.org/1999/xlink" x="0px" y="0px"
	 viewBox="0 0 402.5 67.2" style="enable-background:new 0 0 402.5 67.2;" xml:space="preserve">
<style type="text/css">
	.st0{fill:#FFFFFF;}
</style>
<title>evolve-vm-logo</title>
<g>
	<g id="white-color-vm">
		<g id="white-color-vm-2">
			<g id="Layer_1-2">
				<circle class="st0" cx="33.5" cy="33" r="4.8"/>
				<circle class="st0" cx="2.3" cy="2.2" r="2.2"/>
				<circle class="st0" cx="2.3" cy="64.9" r="2.2"/>
				<circle class="st0" cx="64.7" cy="2.2" r="2.2"/>
				<circle class="st0" cx="64.7" cy="64.9" r="2.2"/>
				<path class="st0" d="M47.5,32.1c-0.2-3-1.4-5.9-3.4-8.3c-0.4-0.5-0.8-0.9-1.3-1.3c-2.3-2-5.2-3.2-8.3-3.4h-1.9
					c-3,0.2-5.9,1.4-8.3,3.4c-0.5,0.4-0.9,0.8-1.3,1.3c-2,2.3-3.2,5.2-3.4,8.3V34c0.1,3,1.3,5.9,3.2,8.2c0.4,0.5,0.8,0.9,1.3,1.3
					c2.3,2,5.2,3.2,8.3,3.4h1.9c3-0.2,5.9-1.4,8.3-3.4c0.5-0.4,0.9-0.8,1.3-1.3c2-2.3,3.2-5.2,3.4-8.2v-0.9
					C47.5,32.8,47.5,32.4,47.5,32.1z M33.5,45.1c-6.7,0-12.1-5.4-12.1-12.1c0-6.7,5.4-12.1,12.1-12.1c6.7,0,12.1,5.4,12.1,12.1
					c0,0,0,0,0,0C45.6,39.7,40.2,45.1,33.5,45.1C33.5,45.2,33.5,45.2,33.5,45.1L33.5,45.1z"/>
				<path class="st0" d="M61,31.3L61,31.3c-0.4-6-2.8-11.8-6.8-16.3c-0.8-0.9-1.6-1.8-2.6-2.6c-4.4-3.9-10-6.2-15.8-6.7h-0.5
					c-0.6,0-1.2-0.1-1.8-0.1c-0.6,0-1.2,0-1.7,0.1h-0.5C24.3,6.3,17.6,9.6,12.9,15c-4,4.5-6.4,10.3-6.8,16.3l0,0
					c0,0.6-0.1,1.2-0.1,1.7c0,0.6,0,1.2,0.1,1.8l0.1,0.9c0.6,5.7,2.9,11.2,6.7,15.5c0.8,0.9,1.7,1.8,2.6,2.6
					c4.5,3.9,10,6.3,15.9,6.8H32c1.2,0.1,2.4,0.1,3.6,0h0.5c5.9-0.5,11.4-2.8,15.8-6.8c0.9-0.8,1.8-1.7,2.6-2.6
					c3.8-4.3,6.2-9.7,6.8-15.5c0-0.3,0.1-0.6,0.1-0.9c0-0.6,0.1-1.2,0.1-1.8S61,31.9,61,31.3z M35.7,56.8c-0.7,0.1-1.5,0.1-2.2,0.1
					c-0.7,0-1.5,0-2.2-0.1c-11.3-1-20.2-9.8-21.5-21.1c-0.1-0.9-0.1-1.8-0.1-2.7c0-0.6,0-1.2,0.1-1.7c0.9-11.6,10-20.9,21.6-22
					c0.7-0.1,1.5-0.1,2.2-0.1c0.7,0,1.5,0,2.2,0.1c11.6,1.1,20.7,10.4,21.5,22c0,0.6,0.1,1.2,0.1,1.7c0,0.9,0,1.8-0.1,2.7
					C56,47,47,55.7,35.7,56.8z"/>
				<rect x="31.3" class="st0" width="4.4" height="14.6"/>
				<rect y="31.3" class="st0" width="14.6" height="4.4"/>
				<rect x="31.3" y="52.5" class="st0" width="4.4" height="14.5"/>
				<rect x="52.5" y="31.3" class="st0" width="14.5" height="4.4"/>
			</g>
			<path class="st0" d="M97.4,9.4h26.8v4.2h-22.1V31h18v4.2h-18v17.7h23.4V57h-28L97.4,9.4z"/>
			<path class="st0" d="M129.1,22.9h4.9l9.4,25c0.6,1.8,1.1,4.1,1.1,4.1h0.1c0,0,0.6-2.3,1.2-4.1l9.4-25h4.8L147,57h-5L129.1,22.9z"
				/>
			<path class="st0" d="M182.1,22.1c10,0,18,7.6,18,17.7c0,10-8.1,18-18,18c-10,0-18-8.1-18-18C164.1,29.7,172.1,22.1,182.1,22.1z
				 M182.1,53.7c7.3,0,13.3-5.9,13.3-13.8c0-7.3-5.9-13.3-13.3-13.3s-13.3,5.9-13.3,13.3C168.9,47.7,174.8,53.7,182.1,53.7z"/>
			<path class="st0" d="M208.4,9.4h4.7V48c0,4.4,2,5.1,3.8,5.1c0.4,0,0.8,0,1.2-0.1v4c-0.6,0.1-1.2,0.1-1.7,0.1
				c-2.8,0-7.8-0.9-7.8-8.4V9.4H208.4z"/>
			<path class="st0" d="M220.8,22.9h4.9l9.4,25c0.6,1.8,1.2,4.1,1.2,4.1h0.1c0,0,0.6-2.3,1.2-4l9.4-25h4.8l-13,34h-5L220.8,22.9z"/>
			<path class="st0" d="M272.7,22.1c9.4,0,14.2,7.2,14.2,15.7c0,0.8-0.1,2.3-0.1,2.3h-26.2c0.2,8.7,6.2,13.5,13.1,13.5
				c3.8-0.1,7.5-1.5,10.4-4.1l2.1,3.5c-3.5,3-7.9,4.7-12.6,4.8c-10.1,0-17.8-7.3-17.8-17.8C255.9,28.9,263.5,22.1,272.7,22.1z
				 M282.3,36.4c-0.2-7.1-4.6-10.5-9.6-10.5c-5.7,0-10.6,3.6-11.8,10.5H282.3z"/>
			<path class="st0" d="M309.2,9.4h5l13.1,36.2c0.9,2.5,1.9,6.2,1.9,6.2h0.1c0,0,0.9-3.7,1.9-6.2l13.2-36.2h5L331.8,57h-4.9
				L309.2,9.4z"/>
			<path class="st0" d="M359.3,9.4h4.9l12.5,27.9c1,2.4,2.3,5.8,2.3,5.8h0.1c0,0,1.3-3.4,2.3-5.8l12.5-27.9h4.8l3.8,47.6h-4.7
				l-2.7-33.4c-0.2-2.5-0.1-6.6-0.1-6.6h-0.1c0,0-1.4,4.2-2.6,6.6l-11.2,24.4h-4.4l-11.2-24.4c-1-2.3-2.6-6.8-2.6-6.8h-0.1
				c0,0,0.1,4.2-0.1,6.8l-2.7,33.3h-4.7L359.3,9.4z"/>
		</g>
	</g>
</g>
</svg>
