<?xml version="1.0" encoding="utf-8"?>
<!-- Generator: Adobe Illustrator 23.0.2, SVG Export Plug-In . SVG Version: 6.00 Build 0)  -->
<svg version="1.1" id="Layer_1" xmlns="http://www.w3.org/2000/svg" xmlns:xlink="http://www.w3.org/1999/xlink" x="0px" y="0px"
	 viewBox="0 0 252.1 227" style="enable-background:new 0 0 252.1 227;" xml:space="preserve">
<style type="text/css">
	.st0{fill:#FFFFFF;}
</style>
<title>Evolve VM verticle white</title>
<g>
	<g>
		<g id="Layer_1-2">
			<g id="Evolve_VM_verticle_white">
				<path class="st0" d="M21,206.6H5v15h18v4H0v-41h22v4H5v14h16V206.6z"/>
				<path class="st0" d="M31.3,196.6L37,213c0.9,2.5,1.7,5,2.4,7.5h0.2c0.7-2.4,1.5-4.9,2.5-7.5l5.7-16.5h5.9l-11.8,30h-5.2
					l-11.4-30L31.3,196.6z"/>
				<path class="st0" d="M84.9,210.9c0,11-7.6,15.8-14.8,15.8c-8,0-14.2-5.9-14.2-15.3c0-9.9,6.5-15.8,14.7-15.8
					C79.1,195.7,84.9,201.9,84.9,210.9z M61.3,211.2c0,6.5,3.7,11.4,9,11.4s9-4.9,9-11.5c0-5-2.5-11.4-8.9-11.4
					S61.3,205.6,61.3,211.2L61.3,211.2z"/>
				<path class="st0" d="M92,182.6h5v44h-5V182.6z"/>
				<path class="st0" d="M108.3,196.6l5.8,16.4c0.9,2.5,1.7,5,2.4,7.5h0.2c0.7-2.4,1.5-4.9,2.5-7.5l5.7-16.5h5.9l-11.8,30h-5.2
					l-11.4-30L108.3,196.6z"/>
				<path class="st0" d="M138.1,212.6c0.1,7.3,4.8,10.3,10.2,10.3c2.8,0.1,5.6-0.4,8.2-1.5l0.9,3.9c-3.1,1.3-6.5,1.9-9.9,1.8
					c-9.1,0-14.6-6-14.6-15s5.3-16,13.9-16c9.7,0,12.3,8.5,12.3,14c0,0.8-0.1,1.7-0.2,2.5L138.1,212.6z M153.9,208.6
					c0.1-3.4-1.4-8.8-7.5-8.8c-5.4,0-7.9,5-8.3,8.8H153.9z"/>
				<path class="st0" d="M185.9,225.6l-13.4-41h5.6l6.5,20.4c1.8,5.6,3.3,10.7,4.4,15.5h0.1c1.2-4.8,2.9-10.1,4.7-15.5l7-20.5h5.5
					l-14.7,41L185.9,225.6z"/>
				<path class="st0" d="M245.8,207.4c-0.3-5.8-0.7-12.7-0.6-17.9h-0.1c-1.4,4.9-3.1,10.1-5.2,15.8l-7.4,20.2h-4.1l-6.7-19.8
					c-2-5.9-3.6-11.2-4.8-16.2l0,0c-0.1,5.1-0.4,12.1-0.8,18.3l-1.1,17.7h-5.1l2.9-41h6.8l7.1,20c1.7,5.1,3.1,9.7,4.2,14h0.2
					c1.1-4.2,2.5-8.7,4.4-14l7.4-20h6.8l2.6,41h-5.2L245.8,207.4z"/>
			</g>
		</g>
	</g>
	<g>
		<path class="st0" d="M126,112.2c17.7,0,32-14.3,32-32s-14.3-32-32-32c-17.7,0-32,14.3-32,32S108.3,112.2,126,112.2z M125.6,52.9
			C125.6,52.9,125.6,52.9,125.6,52.9c15.1,0,27.4,12.3,27.4,27.4c0,15.1-12.3,27.4-27.4,27.4c-15.1,0-27.4-12.2-27.4-27.4
			c0,0,0,0,0,0C98.3,65.2,110.5,52.9,125.6,52.9z"/>
		<circle class="st0" cx="126" cy="79.6" r="10.8"/>
		<circle class="st0" cx="55.5" cy="9.9" r="5"/>
		<circle class="st0" cx="55.5" cy="151.8" r="5"/>
		<circle class="st0" cx="196.6" cy="9.9" r="5"/>
		<circle class="st0" cx="196.6" cy="151.8" r="5"/>
		<path class="st0" d="M188.3,75.9L188.3,75.9c-0.9-13.7-6.2-26.7-15.3-36.9c-1.8-2.1-3.8-4-5.9-5.8c-10-8.8-22.6-14.1-35.9-15.3h-1
			c-1.3,0-2.6-0.3-4-0.3c-1.3,0-2.7,0-4,0.3h-1c-13.4,1-26.1,6.3-36.2,15.3C72.7,44,65.1,59.4,64,75.9l0,0c0,1.3-0.3,2.6-0.3,4
			c0,1.3,0.1,2.6,0.3,4l0.3,2.1c1.3,13,6.6,25.3,15.3,35.1c1.8,2.1,3.8,4,5.8,5.8c10.1,8.8,22.8,14.2,36.1,15.3h1
			c2.7,0.3,5.4,0.3,8.2,0h1c13.3-1,25.9-6.4,35.9-15.3c2.1-1.8,4-3.7,5.8-5.8c8.7-9.8,14.1-22.1,15.3-35.1c0-0.8,0.3-1.3,0.3-2.1
			c0-1.3,0.3-2.6,0.3-4S188.3,77.2,188.3,75.9z M131.3,133.4c-1.7,0.2-3.3,0.3-5,0.3c-1.7,0-3.3,0-5-0.3
			c-25.5-2.4-45.8-22.3-48.7-47.7c-0.2-2-0.3-4.1-0.3-6.1c0-1.3,0-2.6,0.3-3.9c2-26.3,22.7-47.3,49-49.7c1.7-0.2,3.3-0.3,5-0.3
			c1.7,0,3.3,0,5,0.3c26.2,2.5,46.8,23.5,48.7,49.8c0,1.3,0.3,2.6,0.3,3.9c0,2,0,4.1-0.3,6.1C177.1,111.2,156.7,130.9,131.3,133.4
			L131.3,133.4z"/>
		<rect x="121.1" y="4.6" class="st0" width="10.2" height="32.6"/>
		<rect x="50.8" y="75.9" class="st0" width="32.6" height="10.2"/>
		<rect x="121.1" y="123.8" class="st0" width="10.2" height="32.6"/>
		<rect x="169" y="75.9" class="st0" width="32.6" height="10.2"/>
	</g>
</g>
</svg>
