<?xml version="1.0" encoding="utf-8"?>
<!-- Generator: Adobe Illustrator 24.1.3, SVG Export Plug-In . SVG Version: 6.00 Build 0)  -->
<svg version="1.1" id="Layer_1" xmlns="http://www.w3.org/2000/svg" xmlns:xlink="http://www.w3.org/1999/xlink" x="0px" y="0px"
	 viewBox="0 0 1561.1 647.8" style="enable-background:new 0 0 1561.1 647.8;" xml:space="preserve">
<style type="text/css">
	.st0{fill:url(#SVGID_1_);}
	.st1{fill:url(#SVGID_2_);}
	.st2{fill:url(#SVGID_3_);}
	.st3{fill:url(#SVGID_4_);}
	.st4{fill:url(#SVGID_5_);}
	.st5{fill:url(#SVGID_6_);}
	.st6{fill:url(#SVGID_7_);}
	.st7{fill:url(#SVGID_8_);}
	.st8{fill:url(#SVGID_9_);}
	.st9{fill:url(#SVGID_10_);}
	.st10{fill:url(#SVGID_11_);}
	.st11{fill:url(#SVGID_12_);}
	.st12{fill:url(#SVGID_13_);}
	.st13{fill:url(#SVGID_14_);}
	.st14{fill:url(#SVGID_15_);}
	.st15{fill:url(#SVGID_16_);}
	.st16{fill:url(#SVGID_17_);}
	.st17{fill:url(#SVGID_18_);}
	.st18{fill:url(#SVGID_19_);}
	.st19{fill:url(#SVGID_20_);}
	.st20{fill:url(#SVGID_21_);}
	.st21{fill:url(#SVGID_22_);}
	.st22{fill:url(#SVGID_23_);}
	.st23{fill:url(#SVGID_24_);}
	.st24{fill:url(#SVGID_25_);}
	.st25{fill:url(#SVGID_26_);}
	.st26{fill:url(#SVGID_27_);}
	.st27{fill:url(#SVGID_28_);}
	.st28{fill:url(#SVGID_29_);}
	.st29{fill:#404041;}
</style>
<title>green-planet-logo-v</title>
<g id="Layer_2">
	<g id="Layer_1-2">
		
			<linearGradient id="SVGID_1_" gradientUnits="userSpaceOnUse" x1="793.2121" y1="389.2121" x2="767.9079" y2="363.9079" gradientTransform="matrix(1 0 0 -1 0 648)">
			<stop  offset="0" style="stop-color:#4CDF83"/>
			<stop  offset="1" style="stop-color:#2CB565"/>
		</linearGradient>
		<path class="st0" d="M780.6,295.6c-1.5,0-2.7-1.2-2.7-2.7l0,0v-43c0-1.5,1.2-2.7,2.7-2.7s2.7,1.2,2.7,2.7v43
			C783.2,294.4,782,295.6,780.6,295.6L780.6,295.6z"/>
		
			<linearGradient id="SVGID_2_" gradientUnits="userSpaceOnUse" x1="793.2121" y1="625.7121" x2="767.9079" y2="600.4079" gradientTransform="matrix(1 0 0 -1 0 648)">
			<stop  offset="0" style="stop-color:#2CB565"/>
			<stop  offset="1" style="stop-color:#4CDF83"/>
		</linearGradient>
		<path class="st1" d="M780.6,59.1c-1.5,0-2.7-1.2-2.7-2.7l0,0v-43c0-1.5,1.2-2.7,2.7-2.7s2.7,1.2,2.7,2.7v43
			C783.2,57.9,782,59.1,780.6,59.1L780.6,59.1z"/>
		
			<linearGradient id="SVGID_3_" gradientUnits="userSpaceOnUse" x1="683.2968" y1="564.6031" x2="673.6268" y2="554.9432" gradientTransform="matrix(1 0 0 -1 0 648)">
			<stop  offset="0" style="stop-color:#4CDF83"/>
			<stop  offset="1" style="stop-color:#2CB565"/>
		</linearGradient>
		<path class="st2" d="M694.6,101.2c-0.5,0-1-0.1-1.4-0.4l-32.2-20.5c-1.3-0.8-1.6-2.5-0.8-3.7c0.8-1.3,2.5-1.6,3.7-0.8L696,96.2
			c1.3,0.8,1.7,2.4,0.9,3.7C696.4,100.7,695.5,101.2,694.6,101.2L694.6,101.2z"/>
		
			<linearGradient id="SVGID_4_" gradientUnits="userSpaceOnUse" x1="872.7222" y1="424.0276" x2="892.6821" y2="435.5476" gradientTransform="matrix(1 0 0 -1 0 648)">
			<stop  offset="0" style="stop-color:#4CDF83"/>
			<stop  offset="1" style="stop-color:#2CB565"/>
		</linearGradient>
		<path class="st3" d="M898.8,231.1c-0.5,0-1-0.1-1.4-0.4l-32.2-20.5c-1.3-0.8-1.6-2.5-0.8-3.7c0.8-1.3,2.5-1.6,3.7-0.8l32.2,20.5
			c1.3,0.8,1.7,2.4,0.9,3.7C900.7,230.7,899.8,231.2,898.8,231.1L898.8,231.1z"/>
		
			<linearGradient id="SVGID_5_" gradientUnits="userSpaceOnUse" x1="897.7823" y1="574.9399" x2="867.5923" y2="544.7599" gradientTransform="matrix(1 0 0 -1 0 648)">
			<stop  offset="0" style="stop-color:#4CDF83"/>
			<stop  offset="1" style="stop-color:#2CB565"/>
		</linearGradient>
		<path class="st4" d="M866.6,101.2c-1.5,0-2.7-1.1-2.8-2.6c0-1,0.5-1.9,1.3-2.4l32.2-20.5c1.3-0.8,2.9-0.4,3.7,0.8
			c0.8,1.3,0.4,2.9-0.8,3.7L868,100.7C867.6,101,867.1,101.1,866.6,101.2z"/>
		
			<linearGradient id="SVGID_6_" gradientUnits="userSpaceOnUse" x1="693.5193" y1="444.962" x2="663.3293" y2="414.772" gradientTransform="matrix(1 0 0 -1 0 648)">
			<stop  offset="0" style="stop-color:#4CDF83"/>
			<stop  offset="1" style="stop-color:#2CB565"/>
		</linearGradient>
		<path class="st5" d="M662.3,231.1c-1.5,0-2.7-1.1-2.8-2.6c0-1,0.5-1.9,1.3-2.4l32.2-20.5c1.3-0.8,2.9-0.4,3.7,0.8
			c0.8,1.3,0.4,2.9-0.8,3.7l-32.2,20.5C663.3,231,662.8,231.1,662.3,231.1z"/>
		
			<linearGradient id="SVGID_7_" gradientUnits="userSpaceOnUse" x1="879.445" y1="593.715" x2="681.675" y2="395.945" gradientTransform="matrix(1 0 0 -1 0 648)">
			<stop  offset="0" style="stop-color:#4CDF83"/>
			<stop  offset="1" style="stop-color:#2CB565"/>
		</linearGradient>
		<path class="st6" d="M780.6,296l-120.9-66V76.3l120.9-66l120.9,66V230L780.6,296z M665,226.8l115.6,63l115.6-63V79.5l-115.6-63
			L665,79.5V226.8z"/>
		
			<linearGradient id="SVGID_8_" gradientUnits="userSpaceOnUse" x1="877.9604" y1="641.3593" x2="603.1604" y2="463.3094" gradientTransform="matrix(1 0 0 -1 -2.457040e-03 648.004)">
			<stop  offset="0" style="stop-color:#4CDF83"/>
			<stop  offset="1" style="stop-color:#2CB565"/>
		</linearGradient>
		<path class="st7" d="M696.5,120.8L731.3,86c3.2-3.2,8.4-3.2,11.6,0l0,0c3.2,3.2,3.2,8.4,0,11.6l-34.8,34.8
			c-3.2,3.2-8.4,3.2-11.6,0l0,0C693.3,129.2,693.3,124,696.5,120.8z"/>
		
			<linearGradient id="SVGID_9_" gradientUnits="userSpaceOnUse" x1="886.8494" y1="627.641" x2="612.0494" y2="449.591" gradientTransform="matrix(1 0 0 -1 7.050103e-04 647.9976)">
			<stop  offset="0" style="stop-color:#4CDF83"/>
			<stop  offset="1" style="stop-color:#2CB565"/>
		</linearGradient>
		<path class="st8" d="M731.3,120.8l52.2-52.2c3.2-3.2,8.4-3.2,11.6,0v0c3.2,3.2,3.2,8.4,0,11.6l-52.2,52.2c-3.2,3.2-8.4,3.2-11.6,0
			v0C728.1,129.2,728.1,124,731.3,120.8z"/>
		
			<linearGradient id="SVGID_10_" gradientUnits="userSpaceOnUse" x1="872.3714" y1="649.9879" x2="597.5714" y2="471.9379" gradientTransform="matrix(1 0 0 -1 7.911092e-04 647.9962)">
			<stop  offset="0" style="stop-color:#4CDF83"/>
			<stop  offset="1" style="stop-color:#2CB565"/>
		</linearGradient>
		<path class="st9" d="M748.7,68.6L748.7,68.6c3.2-3.2,8.4-3.2,11.6,0v0c3.2,3.2,3.2,8.4,0,11.6l0,0c-3.2,3.2-8.4,3.2-11.6,0v0
			C745.5,77,745.5,71.8,748.7,68.6z"/>
		
			<linearGradient id="SVGID_11_" gradientUnits="userSpaceOnUse" x1="911.5824" y1="589.4664" x2="636.7824" y2="411.4164" gradientTransform="matrix(1 0 0 -1 -1.301666e-03 647.9894)">
			<stop  offset="0" style="stop-color:#4CDF83"/>
			<stop  offset="1" style="stop-color:#2CB565"/>
		</linearGradient>
		<path class="st10" d="M702.3,184.6L702.3,184.6c3.2-3.2,8.4-3.2,11.6,0l0,0c3.2,3.2,3.2,8.4,0,11.6l0,0c-3.2,3.2-8.4,3.2-11.6,0
			l0,0C699.1,193,699.1,187.8,702.3,184.6z"/>
		
			<linearGradient id="SVGID_12_" gradientUnits="userSpaceOnUse" x1="895.2396" y1="614.7007" x2="620.4396" y2="436.6507" gradientTransform="matrix(1 0 0 -1 2.243839e-03 647.9938)">
			<stop  offset="0" style="stop-color:#4CDF83"/>
			<stop  offset="1" style="stop-color:#2CB565"/>
		</linearGradient>
		<path class="st11" d="M696.5,155.6l17.4-17.4c3.2-3.2,8.4-3.2,11.6,0l0,0c3.2,3.2,3.2,8.4,0,11.6l-17.4,17.4
			c-3.2,3.2-8.4,3.2-11.6,0l0,0C693.3,164,693.3,158.8,696.5,155.6z"/>
		
			<linearGradient id="SVGID_13_" gradientUnits="userSpaceOnUse" x1="895.2733" y1="614.6349" x2="620.4833" y2="436.585" gradientTransform="matrix(1 0 0 -1 -2.294347e-03 647.9919)">
			<stop  offset="0" style="stop-color:#4CDF83"/>
			<stop  offset="1" style="stop-color:#2CB565"/>
		</linearGradient>
		<path class="st12" d="M795.1,91.8l17.4-17.4c3.2-3.2,8.4-3.2,11.6,0v0c3.2,3.2,3.2,8.4,0,11.6l-17.4,17.4c-3.2,3.2-8.4,3.2-11.6,0
			l0,0C791.9,100.2,791.9,95,795.1,91.8z"/>
		
			<linearGradient id="SVGID_14_" gradientUnits="userSpaceOnUse" x1="904.1264" y1="600.9756" x2="629.3264" y2="422.9355" gradientTransform="matrix(1 0 0 -1 5.435098e-03 647.9973)">
			<stop  offset="0" style="stop-color:#4CDF83"/>
			<stop  offset="1" style="stop-color:#2CB565"/>
		</linearGradient>
		<path class="st13" d="M719.7,167.2l58-58c3.2-3.2,8.4-3.2,11.6,0l0,0c3.2,3.2,3.2,8.4,0,11.6l-58,58c-3.2,3.2-8.4,3.2-11.6,0l0,0
			C716.5,175.6,716.5,170.4,719.7,167.2z"/>
		
			<linearGradient id="SVGID_15_" gradientUnits="userSpaceOnUse" x1="953.6704" y1="524.5093" x2="678.8705" y2="346.4693" gradientTransform="matrix(1 0 0 -1 -6.314546e-03 648.001)">
			<stop  offset="0" style="stop-color:#4CDF83"/>
			<stop  offset="1" style="stop-color:#2CB565"/>
		</linearGradient>
		<path class="st14" d="M864.7,184.6l-34.8,34.8c-3.2,3.2-8.4,3.2-11.6,0l0,0c-3.2-3.2-3.2-8.4,0-11.6l34.8-34.8
			c3.2-3.2,8.4-3.2,11.6,0l0,0C867.9,176.2,867.9,181.4,864.7,184.6z"/>
		
			<linearGradient id="SVGID_16_" gradientUnits="userSpaceOnUse" x1="944.7801" y1="538.2399" x2="669.98" y2="360.1899" gradientTransform="matrix(1 0 0 -1 2.116975e-03 648.0025)">
			<stop  offset="0" style="stop-color:#4CDF83"/>
			<stop  offset="1" style="stop-color:#2CB565"/>
		</linearGradient>
		<path class="st15" d="M829.9,184.6l-52.2,52.2c-3.2,3.2-8.4,3.2-11.6,0l0,0c-3.2-3.2-3.2-8.4,0-11.6l52.2-52.2
			c3.2-3.2,8.4-3.2,11.6,0l0,0C833.1,176.2,833.1,181.4,829.9,184.6z"/>
		
			<linearGradient id="SVGID_17_" gradientUnits="userSpaceOnUse" x1="959.261" y1="515.8785" x2="684.4611" y2="337.8384" gradientTransform="matrix(1 0 0 -1 -6.462825e-03 647.9868)">
			<stop  offset="0" style="stop-color:#4CDF83"/>
			<stop  offset="1" style="stop-color:#2CB565"/>
		</linearGradient>
		<path class="st16" d="M812.5,236.8L812.5,236.8c-3.2,3.2-8.4,3.2-11.6,0l0,0c-3.2-3.2-3.2-8.4,0-11.6l0,0c3.2-3.2,8.4-3.2,11.6,0
			l0,0C815.7,228.4,815.7,233.6,812.5,236.8z"/>
		
			<linearGradient id="SVGID_18_" gradientUnits="userSpaceOnUse" x1="920.0381" y1="576.4128" x2="645.2481" y2="398.3629" gradientTransform="matrix(1 0 0 -1 1.666779e-03 648.0004)">
			<stop  offset="0" style="stop-color:#4CDF83"/>
			<stop  offset="1" style="stop-color:#2CB565"/>
		</linearGradient>
		<path class="st17" d="M858.9,120.8L858.9,120.8c-3.2,3.2-8.4,3.2-11.6,0v0c-3.2-3.2-3.2-8.4,0-11.6l0,0c3.2-3.2,8.4-3.2,11.6,0
			l0,0C862.1,112.4,862.1,117.6,858.9,120.8z"/>
		
			<linearGradient id="SVGID_19_" gradientUnits="userSpaceOnUse" x1="936.394" y1="551.1738" x2="661.5941" y2="373.1238" gradientTransform="matrix(1 0 0 -1 -3.514629e-03 648.006)">
			<stop  offset="0" style="stop-color:#4CDF83"/>
			<stop  offset="1" style="stop-color:#2CB565"/>
		</linearGradient>
		<path class="st18" d="M864.7,149.8l-17.4,17.4c-3.2,3.2-8.4,3.2-11.6,0l0,0c-3.2-3.2-3.2-8.4,0-11.6l17.4-17.4
			c3.2-3.2,8.4-3.2,11.6,0l0,0C867.9,141.4,867.9,146.6,864.7,149.8z"/>
		
			<linearGradient id="SVGID_20_" gradientUnits="userSpaceOnUse" x1="936.3523" y1="551.2364" x2="661.5523" y2="373.1864" gradientTransform="matrix(1 0 0 -1 -4.432462e-03 647.9938)">
			<stop  offset="0" style="stop-color:#4CDF83"/>
			<stop  offset="1" style="stop-color:#2CB565"/>
		</linearGradient>
		<path class="st19" d="M766.1,213.6L748.7,231c-3.2,3.2-8.4,3.2-11.6,0l0,0c-3.2-3.2-3.2-8.4,0-11.6l17.4-17.4
			c3.2-3.2,8.4-3.2,11.6,0l0,0C769.3,205.2,769.3,210.4,766.1,213.6z"/>
		
			<linearGradient id="SVGID_21_" gradientUnits="userSpaceOnUse" x1="927.4956" y1="564.9068" x2="652.6956" y2="386.8568" gradientTransform="matrix(1 0 0 -1 1.460976e-03 648.0051)">
			<stop  offset="0" style="stop-color:#4CDF83"/>
			<stop  offset="1" style="stop-color:#2CB565"/>
		</linearGradient>
		<path class="st20" d="M771.9,184.6l58-58c3.2-3.2,8.4-3.2,11.6,0l0,0c3.2,3.2,3.2,8.4,0,11.6l-58,58c-3.2,3.2-8.4,3.2-11.6,0l0,0
			C768.7,193,768.7,187.8,771.9,184.6z"/>
		
			<linearGradient id="SVGID_22_" gradientUnits="userSpaceOnUse" x1="923.2668" y1="571.4349" x2="648.4667" y2="393.385" gradientTransform="matrix(1 0 0 -1 -3.288727e-03 648.0054)">
			<stop  offset="0" style="stop-color:#4CDF83"/>
			<stop  offset="1" style="stop-color:#2CB565"/>
		</linearGradient>
		<path class="st21" d="M713.9,207.8l29-29c3.2-3.2,8.4-3.2,11.6,0l0,0c3.2,3.2,3.2,8.4,0,11.6l-29,29c-3.2,3.2-8.4,3.2-11.6,0l0,0
			C710.7,216.2,710.7,211,713.9,207.8z"/>
		
			<linearGradient id="SVGID_23_" gradientUnits="userSpaceOnUse" x1="912.0918" y1="588.6873" x2="637.2917" y2="410.6373" gradientTransform="matrix(1 0 0 -1 -3.775146e-03 647.9967)">
			<stop  offset="0" style="stop-color:#4CDF83"/>
			<stop  offset="1" style="stop-color:#2CB565"/>
		</linearGradient>
		<path class="st22" d="M760.3,161.4L835.7,86c3.2-3.2,8.4-3.2,11.6,0l0,0c3.2,3.2,3.2,8.4,0,11.6L771.9,173
			c-3.2,3.2-8.4,3.2-11.6,0l0,0C757.1,169.8,757.1,164.6,760.3,161.4z"/>
		
			<linearGradient id="SVGID_24_" gradientUnits="userSpaceOnUse" x1="870.1887" y1="692.6321" x2="526.6887" y2="470.0721" gradientTransform="matrix(1 0 0 -1 0 648)">
			<stop  offset="0" style="stop-color:#4CDF83"/>
			<stop  offset="1" style="stop-color:#2CB565"/>
		</linearGradient>
		<circle class="st23" cx="780.6" cy="13.4" r="13.4"/>
		
			<linearGradient id="SVGID_25_" gradientUnits="userSpaceOnUse" x1="1029.6268" y1="516.4349" x2="686.1268" y2="293.875" gradientTransform="matrix(1 0 0 -1 0 648)">
			<stop  offset="0" style="stop-color:#4CDF83"/>
			<stop  offset="1" style="stop-color:#2CB565"/>
		</linearGradient>
		<circle class="st24" cx="780.6" cy="292.9" r="13.4"/>
		
			<linearGradient id="SVGID_26_" gradientUnits="userSpaceOnUse" x1="1006.9775" y1="489.6438" x2="663.4775" y2="267.0837" gradientTransform="matrix(1 0 0 -1 0 648)">
			<stop  offset="0" style="stop-color:#4CDF83"/>
			<stop  offset="1" style="stop-color:#2CB565"/>
		</linearGradient>
		<circle class="st25" cx="898.8" cy="228.4" r="13.4"/>
		
			<linearGradient id="SVGID_27_" gradientUnits="userSpaceOnUse" x1="921.1221" y1="584.5168" x2="577.632" y2="361.9568" gradientTransform="matrix(1 0 0 -1 0 648)">
			<stop  offset="0" style="stop-color:#4CDF83"/>
			<stop  offset="1" style="stop-color:#2CB565"/>
		</linearGradient>
		<circle class="st26" cx="898.8" cy="77.9" r="13.4"/>
		
			<linearGradient id="SVGID_28_" gradientUnits="userSpaceOnUse" x1="892.8425" y1="719.4262" x2="549.3425" y2="496.8662" gradientTransform="matrix(1 0 0 -1 0 648)">
			<stop  offset="0" style="stop-color:#4CDF83"/>
			<stop  offset="1" style="stop-color:#2CB565"/>
		</linearGradient>
		<circle class="st27" cx="662.3" cy="77.9" r="13.4"/>
		
			<linearGradient id="SVGID_29_" gradientUnits="userSpaceOnUse" x1="978.6907" y1="624.5489" x2="635.1907" y2="401.9889" gradientTransform="matrix(1 0 0 -1 0 648)">
			<stop  offset="0" style="stop-color:#4CDF83"/>
			<stop  offset="1" style="stop-color:#2CB565"/>
		</linearGradient>
		<circle class="st28" cx="662.3" cy="228.4" r="13.4"/>
		<path class="st29" d="M94.7,453.3c43.6,0,66.9,21.9,66.9,21.9l-9.9,13.9c0,0-21.9-18.7-56.2-18.7c-45.5,0-76.2,35-76.2,79.7
			c0,46.3,31.8,80.5,74.6,80.5c36.7,0,59.1-27.5,59.1-27.5v-31.8h-32.1v-16.6h49.7v89.9h-17.1v-14.2c0-4,0.3-8,0.3-8h-0.5
			c0,0-21.7,25.4-61.3,25.4c-51.4,0-92-41.5-92-97.4C0,496.1,40.7,453.3,94.7,453.3z"/>
		<path class="st29" d="M210,510h17.9v23.8c0,5.9-0.5,10.7-0.5,10.7h0.5c6.4-20.3,21.4-35.8,42.5-35.8c2.4,0,4.8,0.3,7.2,0.8v17.9
			c-2.2-0.3-4.5-0.5-6.7-0.5c-19,0-33.2,15-39.1,34.8c-2.6,8.5-3.8,17.3-3.8,26.2v56.7H210V510z"/>
		<path class="st29" d="M360.5,506.8c37.2,0,56.2,28.6,56.2,62.1c0,3.2-0.5,9.4-0.5,9.4H312.9c0.8,34.5,24.3,53.2,52.2,53.2
			c24.6,0,40.9-16.3,40.9-16.3l8.3,13.9c-13.8,11.9-31.5,18.6-49.8,18.7c-40.1,0-70.4-28.9-70.4-70.3
			C294.2,533.3,324.2,506.8,360.5,506.8z M398.2,563.3c-1.1-28.1-18.2-41.2-38.2-41.2c-22.5,0-42,14.2-46.3,41.2H398.2z"/>
		<path class="st29" d="M508.4,506.8c37.2,0,56.2,28.6,56.2,62.1c0,3.2-0.5,9.4-0.5,9.4H460.8c0.8,34.5,24.3,53.2,52.2,53.2
			c24.6,0,40.9-16.3,40.9-16.3l8.3,13.9c-13.8,11.9-31.5,18.6-49.8,18.7c-40.1,0-70.4-28.9-70.4-70.3
			C442.1,533.3,472.1,506.8,508.4,506.8z M546.1,563.3c-1.1-28.1-18.2-41.2-38.2-41.2c-22.5,0-42,14.2-46.3,41.2H546.1z"/>
		<path class="st29" d="M599.4,510h17.9v20.1c0,5.9-0.5,10.7-0.5,10.7h0.5c4.8-12.3,21.9-34,53.8-34c33.2,0,44.9,19,44.9,52.2v85.6
			h-18.2v-80.7c0-21.1-3.2-39.8-29.2-39.8c-23,0-42.8,15.8-49,38c-1.5,5.9-2.3,12.1-2.1,18.2v64.5h-18.2V510z"/>
		<path class="st29" d="M835.2,456.5h65c33.7,0,58,21.9,58,56.7c0,35-24.3,57.5-58,57.5h-46.5v73.8h-18.5V456.5z M897.8,554.2
			c25.1,0,41.5-15.2,41.5-40.9c0-25.4-16.3-40.1-41.2-40.1h-44.4v81L897.8,554.2z"/>
		<path class="st29" d="M988.5,456.5h18.2v152.2c0,17.7,8,20.3,15,20.3c1.5,0,3-0.1,4.5-0.3v16.3c-2.2,0.3-4.4,0.5-6.7,0.5
			c-11.2,0-31-3.5-31-32.9L988.5,456.5z"/>
		<path class="st29" d="M1127.3,561.4h7.5v-3.5c0-25.9-14.2-34.8-33.4-34.8c-22.2,0-38,12.8-38,12.8l-8.6-13.9
			c0,0,17.7-15.2,47.9-15.2c32.4,0,50.3,17.9,50.3,51.6v86.1h-17.4v-14.7c0-3.8,0.2-7.5,0.5-11.2h-0.5c0,0-11.2,29.2-44.9,29.2
			c-22.5,0-45.7-13.1-45.7-39.9C1044.9,562.5,1104,561.4,1127.3,561.4z M1093.6,632.3c25.7,0,41.2-26.8,41.2-50v-5.9h-7.8
			c-21.1,0-63.4,0.8-63.4,30.5C1063.7,619.4,1073.6,632.3,1093.6,632.3z"/>
		<path class="st29" d="M1195,510h17.9v20.1c0,5.9-0.5,10.7-0.5,10.7h0.5c4.8-12.3,21.9-34,53.8-34c33.2,0,44.9,19,44.9,52.2v85.6
			h-18.2v-80.7c0-21.1-3.2-39.8-29.2-39.8c-23,0-42.8,15.8-48.9,38c-1.5,5.9-2.3,12.1-2.1,18.2v64.5H1195V510z"/>
		<path class="st29" d="M1410.6,506.8c37.2,0,56.2,28.6,56.2,62.1c0,3.2-0.5,9.4-0.5,9.4h-103.2c0.8,34.5,24.3,53.2,52.2,53.2
			c24.6,0,40.9-16.3,40.9-16.3l8.3,13.9c-13.8,11.9-31.5,18.6-49.8,18.7c-40.1,0-70.3-28.9-70.3-70.3
			C1344.2,533.3,1374.2,506.8,1410.6,506.8z M1448.3,563.3c-1.1-28.1-18.2-41.2-38.2-41.2c-22.5,0-42,14.2-46.3,41.2H1448.3z"/>
		<path class="st29" d="M1506.6,526.9h-17.7v-15.2h17.9v-38.8h17.9v38.8h33.7v15.3h-33.7v66.9c0,31.6,20.1,35.6,30.2,35.6
			c2.1,0,4.1-0.2,6.2-0.5v16.3c-2.6,0.4-5.2,0.6-7.8,0.5c-15.5,0-46.8-5.1-46.8-50V526.9z"/>
	</g>
</g>
</svg>
