<?xml version="1.0" encoding="utf-8"?>
<!-- Generator: Adobe Illustrator 24.1.3, SVG Export Plug-In . SVG Version: 6.00 Build 0)  -->
<svg version="1.1" id="Layer_1" xmlns="http://www.w3.org/2000/svg" xmlns:xlink="http://www.w3.org/1999/xlink" x="0px" y="0px"
	 viewBox="0 0 263.4 306.4" style="enable-background:new 0 0 263.4 306.4;" xml:space="preserve">
<style type="text/css">
	.st0{fill:#FFFFFF;}
</style>
<title>green-planet-icon-white</title>
<g id="Layer_2">
	<g id="Layer_1-2">
		<path class="st0" d="M59.2,132.4L94,97.6c3.2-3.2,3.2-8.4,0-11.6c0,0,0,0,0,0l0,0c-3.2-3.2-8.4-3.2-11.6,0c0,0,0,0,0,0l-34.8,34.8
			c-3.2,3.2-3.2,8.4,0,11.6C50.8,135.6,56,135.6,59.2,132.4L59.2,132.4z"/>
		<path class="st0" d="M82.4,132.4c3.2,3.2,8.4,3.2,11.6,0c0,0,0,0,0,0l52.2-52.2c3.2-3.2,3.2-8.4,0-11.6c-3.2-3.2-8.4-3.2-11.6,0
			l0,0l-52.2,52.2C79.2,124,79.2,129.2,82.4,132.4C82.4,132.4,82.4,132.4,82.4,132.4z"/>
		<path class="st0" d="M99.8,80.2c3.2,3.2,8.4,3.2,11.6,0c3.2-3.2,3.2-8.4,0-11.6c-3.2-3.2-8.4-3.2-11.6,0l0,0
			C96.6,71.8,96.6,77,99.8,80.2C99.8,80.2,99.8,80.2,99.8,80.2z"/>
		<path class="st0" d="M65,184.6L65,184.6c-3.2-3.2-8.4-3.2-11.6,0c0,0,0,0,0,0l0,0c-3.2,3.2-3.2,8.4,0,11.6c3.2,3.2,8.4,3.2,11.6,0
			C68.2,193,68.2,187.8,65,184.6z"/>
		<path class="st0" d="M59.2,167.2l17.4-17.4c3.3-3.2,3.3-8.3,0.2-11.6c-3.2-3.3-8.3-3.3-11.6-0.2c-0.1,0.1-0.1,0.1-0.2,0.2
			l-17.4,17.4c-3.2,3.2-3.2,8.4,0,11.6C50.8,170.4,56,170.4,59.2,167.2L59.2,167.2z"/>
		<path class="st0" d="M146.2,103.4L146.2,103.4c3.2,3.2,8.4,3.2,11.6,0c0,0,0,0,0,0L175.2,86c3.2-3.2,3.2-8.4,0-11.6
			c-3.2-3.2-8.4-3.2-11.6,0l0,0l-17.4,17.4C143,95,143,100.2,146.2,103.4C146.2,103.4,146.2,103.4,146.2,103.4z"/>
		<path class="st0" d="M140.4,109.2c-3.2-3.2-8.4-3.2-11.6,0c0,0,0,0,0,0l-58,58c-3.2,3.2-3.2,8.4,0,11.6c3.2,3.2,8.4,3.2,11.6,0
			l58-58C143.4,117.6,143.2,112.5,140.4,109.2z"/>
		<path class="st0" d="M215.8,173L215.8,173c-3.2-3.2-8.4-3.2-11.6,0c0,0,0,0,0,0l-34.8,34.8c-3.2,3.2-3.2,8.4,0,11.6c0,0,0,0,0,0
			l0,0c3.2,3.2,8.4,3.2,11.6,0c0,0,0,0,0,0l34.8-34.8C219,181.4,219,176.2,215.8,173C215.8,173,215.8,173,215.8,173z"/>
		<path class="st0" d="M181,173L181,173c-3.2-3.2-8.4-3.2-11.6,0c0,0,0,0,0,0l-52.2,52.2c-3.2,3.2-3.2,8.4,0,11.6c0,0,0,0,0,0l0,0
			c3.2,3.2,8.4,3.2,11.6,0c0,0,0,0,0,0l52.2-52.2C184.2,181.4,184.2,176.2,181,173C181,173,181,173,181,173z"/>
		<circle class="st0" cx="157.8" cy="231" r="8.2"/>
		<path class="st0" d="M198.4,109.2c-3.2,3.2-3.2,8.4,0,11.6c0,0,0,0,0,0l0,0c3.2,3.2,8.4,3.2,11.6,0c0,0,0,0,0,0l0,0
			c3.2-3.2,3.2-8.4,0-11.6C206.8,106,201.6,106,198.4,109.2L198.4,109.2z"/>
		<path class="st0" d="M204.2,138.2l-17.4,17.4c-3.2,3.2-3.2,8.4,0,11.6s8.4,3.2,11.6,0l17.4-17.4c3.2-3.2,3.2-8.4,0-11.6
			c0,0,0,0,0,0l0,0C212.6,135,207.4,135,204.2,138.2C204.2,138.2,204.2,138.2,204.2,138.2z"/>
		<path class="st0" d="M117.2,202L117.2,202c-3.2-3.2-8.4-3.2-11.6,0c0,0,0,0,0,0l-17.4,17.4c-3.2,3.2-3.2,8.4,0,11.6
			c3.2,3.2,8.4,3.2,11.6,0l17.4-17.4C120.4,210.4,120.4,205.2,117.2,202C117.2,202,117.2,202,117.2,202z"/>
		<path class="st0" d="M192.6,126.6c-3.2-3.2-8.4-3.2-11.6,0c0,0,0,0,0,0l-58,58c-3.2,3.2-3.2,8.4,0,11.6s8.4,3.2,11.6,0l58-58
			C195.8,135,195.8,129.8,192.6,126.6C192.6,126.6,192.6,126.6,192.6,126.6z"/>
		<path class="st0" d="M105.6,178.8c-3.2-3.2-8.4-3.2-11.6,0c0,0,0,0,0,0l-29,29c-3.2,3.2-3.2,8.4,0,11.6c0,0,0,0,0,0l0,0
			c3.2,3.2,8.4,3.2,11.6,0c0,0,0,0,0,0l29-29C108.8,187.2,108.8,182,105.6,178.8C105.6,178.8,105.6,178.8,105.6,178.8z"/>
		<path class="st0" d="M111.4,173c3.2,3.2,8.4,3.2,11.6,0c0,0,0,0,0,0l75.4-75.4c3.2-3.2,3.2-8.4,0-11.6c0,0,0,0,0,0l0,0
			c-3.2-3.2-8.4-3.2-11.6,0c0,0,0,0,0,0l-75.4,75.4C108.2,164.6,108.2,169.8,111.4,173C111.4,173,111.4,173,111.4,173z"/>
		<path class="st0" d="M252.6,215.3V91.1c7.3-1.5,11.9-8.6,10.4-15.9c-1.5-7.3-8.6-11.9-15.9-10.4c-2.9,0.6-5.6,2.2-7.5,4.5
			l-95.1-51.9c2.2-7.1-1.8-14.6-8.9-16.8S121,2.4,118.8,9.5c-0.8,2.6-0.8,5.3,0,7.9L23.7,69.3c-4.8-5.7-13.3-6.4-18.9-1.6
			s-6.4,13.3-1.6,18.9c1.9,2.3,4.6,3.9,7.5,4.5v124.2c-7.3,1.5-11.9,8.6-10.4,15.9s8.6,11.9,15.9,10.4c2.9-0.6,5.6-2.2,7.5-4.5
			l95.1,51.9c-2.2,7.1,1.8,14.6,8.9,16.8s14.6-1.8,16.8-8.9c0.8-2.6,0.8-5.3,0-7.9l95.1-51.9c4.8,5.7,13.3,6.4,18.9,1.6
			c5.7-4.8,6.4-13.3,1.6-18.9C258.3,217.5,255.6,215.9,252.6,215.3L252.6,215.3z M142,284.3c-1.9-2.3-4.6-3.9-7.6-4.5v-29.8
			c-0.1-1.5-1.4-2.6-2.8-2.5c-1.4,0.1-2.4,1.2-2.5,2.5v29.8c-3,0.6-5.6,2.2-7.6,4.5l-95.2-51.9c0.9-2.9,0.8-5.9-0.3-8.7l21.2-13.5
			c1.3-0.8,1.6-2.5,0.8-3.7s-2.5-1.6-3.7-0.8l-21.1,13.5c-1.9-2-4.3-3.3-7-3.8V91.1c2.7-0.5,5.1-1.9,7-3.8l21.1,13.5
			c1.3,0.8,2.9,0.4,3.7-0.8c0.8-1.3,0.4-2.9-0.8-3.7L26,82.7c1.1-2.8,1.2-5.9,0.3-8.7l95.1-51.9c1.9,2.3,4.6,3.9,7.6,4.5v29.8
			c0,1.5,1.2,2.7,2.7,2.7s2.7-1.2,2.7-2.7V26.6c3-0.6,5.7-2.2,7.6-4.5L237.1,74c-0.9,2.9-0.8,5.9,0.3,8.7l-21.1,13.5
			c-1.3,0.8-1.6,2.5-0.8,3.7c0.8,1.3,2.5,1.6,3.7,0.8l0,0l21.1-13.5c1.9,2,4.3,3.3,7,3.8v124.2c-2.7,0.5-5.1,1.9-7,3.8l-21.1-13.5
			c-1.3-0.8-2.9-0.4-3.7,0.8s-0.4,2.9,0.8,3.7l21.1,13.5c-1.1,2.8-1.2,5.9-0.3,8.7L142,284.3z"/>
	</g>
</g>
</svg>
