<?xml version="1.0" encoding="utf-8"?>
<!-- Generator: Adobe Illustrator 24.1.3, SVG Export Plug-In . SVG Version: 6.00 Build 0)  -->
<svg version="1.1" id="Layer_1" xmlns="http://www.w3.org/2000/svg" xmlns:xlink="http://www.w3.org/1999/xlink" x="0px" y="0px"
	 viewBox="0 0 1719.4 270" style="enable-background:new 0 0 1719.4 270;" xml:space="preserve">
<style type="text/css">
	.st0{fill:url(#SVGID_1_);}
	.st1{fill:url(#SVGID_2_);}
	.st2{fill:url(#SVGID_3_);}
	.st3{fill:url(#SVGID_4_);}
	.st4{fill:url(#SVGID_5_);}
	.st5{fill:url(#SVGID_6_);}
	.st6{fill:url(#SVGID_7_);}
	.st7{fill:url(#SVGID_8_);}
	.st8{fill:url(#SVGID_9_);}
	.st9{fill:url(#SVGID_10_);}
	.st10{fill:url(#SVGID_11_);}
	.st11{fill:url(#SVGID_12_);}
	.st12{fill:url(#SVGID_13_);}
	.st13{fill:url(#SVGID_14_);}
	.st14{fill:url(#SVGID_15_);}
	.st15{fill:url(#SVGID_16_);}
	.st16{fill:url(#SVGID_17_);}
	.st17{fill:url(#SVGID_18_);}
	.st18{fill:url(#SVGID_19_);}
	.st19{fill:url(#SVGID_20_);}
	.st20{fill:url(#SVGID_21_);}
	.st21{fill:url(#SVGID_22_);}
	.st22{fill:url(#SVGID_23_);}
	.st23{fill:url(#SVGID_24_);}
	.st24{fill:url(#SVGID_25_);}
	.st25{fill:url(#SVGID_26_);}
	.st26{fill:url(#SVGID_27_);}
	.st27{fill:url(#SVGID_28_);}
	.st28{fill:url(#SVGID_29_);}
	.st29{fill:#404041;}
</style>
<title>green-planet-logo</title>
<g id="Layer_2">
	<g id="Layer_1-2">
		
			<linearGradient id="SVGID_1_" gradientUnits="userSpaceOnUse" x1="127.2203" y1="43.9092" x2="104.9197" y2="21.6086" gradientTransform="matrix(1 0 0 -1 0 272)">
			<stop  offset="0" style="stop-color:#4CDF83"/>
			<stop  offset="1" style="stop-color:#2CB565"/>
		</linearGradient>
		<path class="st0" d="M116.1,260.6c-1.3,0-2.4-1.1-2.4-2.4v-37.9c0-1.3,1.1-2.4,2.4-2.4c1.3,0,2.4,1.1,2.4,2.4v37.9
			C118.4,259.5,117.4,260.6,116.1,260.6z"/>
		
			<linearGradient id="SVGID_2_" gradientUnits="userSpaceOnUse" x1="127.2214" y1="252.3624" x2="104.9186" y2="230.0597" gradientTransform="matrix(1 0 0 -1 0 272)">
			<stop  offset="0" style="stop-color:#2CB565"/>
			<stop  offset="1" style="stop-color:#4CDF83"/>
		</linearGradient>
		<path class="st1" d="M116.1,52.1c-1.3,0-2.4-1.1-2.4-2.4l0,0V11.8c0-1.3,1.1-2.4,2.4-2.4c1.3,0,2.4,1.1,2.4,2.4c0,0,0,0,0,0v37.9
			C118.4,51,117.4,52.1,116.1,52.1z"/>
		
			<linearGradient id="SVGID_3_" gradientUnits="userSpaceOnUse" x1="30.293" y1="198.5478" x2="21.773" y2="190.0278" gradientTransform="matrix(1 0 0 -1 0 272)">
			<stop  offset="0" style="stop-color:#4CDF83"/>
			<stop  offset="1" style="stop-color:#2CB565"/>
		</linearGradient>
		<path class="st2" d="M40.3,89.2c-0.4,0-0.9-0.1-1.3-0.4L10.6,70.7c-1.1-0.7-1.5-2.1-0.8-3.3c0.7-1.1,2.1-1.5,3.3-0.8
			c0,0,0.1,0,0.1,0.1l28.4,18.1c1.1,0.7,1.4,2.2,0.7,3.3C41.8,88.7,41.1,89.1,40.3,89.2z"/>
		
			<linearGradient id="SVGID_4_" gradientUnits="userSpaceOnUse" x1="197.2669" y1="74.6527" x2="214.8569" y2="84.8027" gradientTransform="matrix(1 0 0 -1 0 272)">
			<stop  offset="0" style="stop-color:#4CDF83"/>
			<stop  offset="1" style="stop-color:#2CB565"/>
		</linearGradient>
		<path class="st3" d="M220.3,203.7c-0.4,0-0.9-0.1-1.3-0.4l-28.4-18.1c-1.1-0.7-1.5-2.1-0.8-3.3c0.7-1.1,2.1-1.5,3.3-0.8
			c0,0,0.1,0,0.1,0.1l28.4,18.1c1.1,0.7,1.4,2.2,0.7,3.3C221.9,203.3,221.1,203.7,220.3,203.7L220.3,203.7z"/>
		
			<linearGradient id="SVGID_5_" gradientUnits="userSpaceOnUse" x1="219.3731" y1="207.5769" x2="192.7631" y2="180.9669" gradientTransform="matrix(1 0 0 -1 0 272)">
			<stop  offset="0" style="stop-color:#4CDF83"/>
			<stop  offset="1" style="stop-color:#2CB565"/>
		</linearGradient>
		<path class="st4" d="M191.9,89.2c-1.3,0-2.4-1.1-2.4-2.4c0-0.8,0.4-1.6,1.1-2L219,66.7c1.1-0.7,2.6-0.3,3.3,0.8
			c0.6,1.1,0.3,2.5-0.7,3.2l-28.4,18.1C192.8,89,192.3,89.2,191.9,89.2z"/>
		
			<linearGradient id="SVGID_6_" gradientUnits="userSpaceOnUse" x1="39.3679" y1="93.0021" x2="12.7579" y2="66.3921" gradientTransform="matrix(1 0 0 -1 0 272)">
			<stop  offset="0" style="stop-color:#4CDF83"/>
			<stop  offset="1" style="stop-color:#2CB565"/>
		</linearGradient>
		<path class="st5" d="M11.9,203.7c-1.3,0-2.4-1.1-2.4-2.4c0-0.8,0.4-1.6,1.1-2L39,181.2c1.1-0.7,2.6-0.4,3.3,0.6
			c0.7,1.1,0.4,2.6-0.6,3.3c0,0-0.1,0-0.1,0.1l-28.4,18.1C12.7,203.6,12.3,203.7,11.9,203.7z"/>
		
			<linearGradient id="SVGID_7_" gradientUnits="userSpaceOnUse" x1="203.2275" y1="224.1425" x2="28.9025" y2="49.8175" gradientTransform="matrix(1 0 0 -1 0 272)">
			<stop  offset="0" style="stop-color:#4CDF83"/>
			<stop  offset="1" style="stop-color:#2CB565"/>
		</linearGradient>
		<path class="st6" d="M116.1,260.9L9.5,202.8V67.3L116.1,9.1l106.6,58.1v135.5L116.1,260.9z M14.2,199.9l101.8,55.6l101.8-55.6
			V70.1L116.1,14.5L14.2,70.1L14.2,199.9z"/>
		
			<linearGradient id="SVGID_8_" gradientUnits="userSpaceOnUse" x1="201.9116" y1="266.1476" x2="-40.2884" y2="109.2176" gradientTransform="matrix(1 0 0 -1 3.188432e-04 272.0013)">
			<stop  offset="0" style="stop-color:#4CDF83"/>
			<stop  offset="1" style="stop-color:#2CB565"/>
		</linearGradient>
		<path class="st7" d="M42,106.5l30.7-30.7c2.8-2.8,7.4-2.8,10.2,0l0,0c2.8,2.8,2.8,7.4,0,10.2l-30.7,30.7c-2.8,2.8-7.4,2.8-10.2,0
			l0,0C39.1,113.9,39.1,109.3,42,106.5z"/>
		
			<linearGradient id="SVGID_9_" gradientUnits="userSpaceOnUse" x1="209.7473" y1="254.0541" x2="-32.4527" y2="97.1342" gradientTransform="matrix(1 0 0 -1 5.022563e-03 271.9994)">
			<stop  offset="0" style="stop-color:#4CDF83"/>
			<stop  offset="1" style="stop-color:#2CB565"/>
		</linearGradient>
		<path class="st8" d="M72.6,106.5l46-46c2.8-2.8,7.4-2.8,10.2,0v0c2.8,2.8,2.8,7.4,0,10.2l-46,46c-2.8,2.8-7.4,2.8-10.2,0h0
			C69.8,113.9,69.8,109.3,72.6,106.5z"/>
		
			<linearGradient id="SVGID_10_" gradientUnits="userSpaceOnUse" x1="196.9818" y1="273.7472" x2="-45.2182" y2="116.8272" gradientTransform="matrix(1 0 0 -1 3.094495e-03 271.9946)">
			<stop  offset="0" style="stop-color:#4CDF83"/>
			<stop  offset="1" style="stop-color:#2CB565"/>
		</linearGradient>
		<path class="st9" d="M88,60.5L88,60.5c2.8-2.8,7.4-2.8,10.2,0l0,0c2.8,2.8,2.8,7.4,0,10.2h0c-2.8,2.8-7.4,2.8-10.2,0h0
			C85.1,67.9,85.1,63.3,88,60.5z"/>
		
			<linearGradient id="SVGID_11_" gradientUnits="userSpaceOnUse" x1="231.5437" y1="220.4043" x2="-10.6564" y2="63.4844" gradientTransform="matrix(1 0 0 -1 -9.857250e-04 271.9992)">
			<stop  offset="0" style="stop-color:#4CDF83"/>
			<stop  offset="1" style="stop-color:#2CB565"/>
		</linearGradient>
		<path class="st10" d="M47.1,162.7L47.1,162.7c2.8-2.8,7.4-2.8,10.2,0l0,0c2.8,2.8,2.8,7.4,0,10.2l0,0c-2.8,2.8-7.4,2.8-10.2,0l0,0
			C44.2,170.1,44.2,165.5,47.1,162.7z"/>
		
			<linearGradient id="SVGID_12_" gradientUnits="userSpaceOnUse" x1="217.1379" y1="242.6533" x2="-25.0621" y2="85.7232" gradientTransform="matrix(1 0 0 -1 2.323021e-03 272.0059)">
			<stop  offset="0" style="stop-color:#4CDF83"/>
			<stop  offset="1" style="stop-color:#2CB565"/>
		</linearGradient>
		<path class="st11" d="M42,137.1l15.3-15.3c2.8-2.8,7.4-2.8,10.2,0l0,0c2.8,2.8,2.8,7.4,0,10.2l-15.3,15.3c-2.8,2.8-7.4,2.8-10.2,0
			l0,0C39.1,144.5,39.1,140,42,137.1z"/>
		
			<linearGradient id="SVGID_13_" gradientUnits="userSpaceOnUse" x1="217.1712" y1="242.5881" x2="-25.0288" y2="85.6681" gradientTransform="matrix(1 0 0 -1 1.000112e-02 271.9969)">
			<stop  offset="0" style="stop-color:#4CDF83"/>
			<stop  offset="1" style="stop-color:#2CB565"/>
		</linearGradient>
		<path class="st12" d="M128.9,80.9l15.3-15.3c2.8-2.8,7.4-2.8,10.2,0v0c2.8,2.8,2.8,7.4,0,10.2l-15.3,15.3c-2.8,2.8-7.4,2.8-10.2,0
			v0C126,88.3,126,83.7,128.9,80.9z"/>
		
			<linearGradient id="SVGID_14_" gradientUnits="userSpaceOnUse" x1="224.9729" y1="230.5455" x2="-17.2271" y2="73.6255" gradientTransform="matrix(1 0 0 -1 7.026235e-03 272.0041)">
			<stop  offset="0" style="stop-color:#4CDF83"/>
			<stop  offset="1" style="stop-color:#2CB565"/>
		</linearGradient>
		<path class="st13" d="M62.4,147.4l51.1-51.1c2.8-2.8,7.4-2.8,10.2,0l0,0c2.8,2.8,2.8,7.4,0,10.2l-51.1,51.1
			c-2.8,2.8-7.4,2.8-10.2,0l0,0C59.6,154.8,59.6,150.2,62.4,147.4z"/>
		
			<linearGradient id="SVGID_15_" gradientUnits="userSpaceOnUse" x1="268.6372" y1="163.1643" x2="26.4373" y2="6.2443" gradientTransform="matrix(1 0 0 -1 -1.113409e-03 272.0055)">
			<stop  offset="0" style="stop-color:#4CDF83"/>
			<stop  offset="1" style="stop-color:#2CB565"/>
		</linearGradient>
		<path class="st14" d="M190.2,162.7l-30.7,30.7c-2.8,2.8-7.4,2.8-10.2,0l0,0c-2.8-2.8-2.8-7.4,0-10.2l30.7-30.7
			c2.8-2.8,7.4-2.8,10.2,0v0C193,155.3,193,159.9,190.2,162.7z"/>
		
			<linearGradient id="SVGID_16_" gradientUnits="userSpaceOnUse" x1="260.7975" y1="175.2638" x2="18.5975" y2="18.3338" gradientTransform="matrix(1 0 0 -1 5.185379e-03 271.9965)">
			<stop  offset="0" style="stop-color:#4CDF83"/>
			<stop  offset="1" style="stop-color:#2CB565"/>
		</linearGradient>
		<path class="st15" d="M159.5,162.7l-46,46c-2.8,2.8-7.4,2.8-10.2,0l0,0c-2.8-2.8-2.8-7.4,0-10.2l46-46c2.8-2.8,7.4-2.8,10.2,0l0,0
			C162.3,155.3,162.3,159.9,159.5,162.7z"/>
		
			<linearGradient id="SVGID_17_" gradientUnits="userSpaceOnUse" x1="273.5598" y1="155.5603" x2="31.3598" y2="-1.3698" gradientTransform="matrix(1 0 0 -1 5.062819e-03 271.9926)">
			<stop  offset="0" style="stop-color:#4CDF83"/>
			<stop  offset="1" style="stop-color:#2CB565"/>
		</linearGradient>
		<path class="st16" d="M144.2,208.7L144.2,208.7c-2.8,2.8-7.4,2.8-10.2,0v0c-2.8-2.8-2.8-7.4,0-10.2v0c2.8-2.8,7.4-2.8,10.2,0l0,0
			C147,201.3,147,205.9,144.2,208.7z"/>
		
			<linearGradient id="SVGID_18_" gradientUnits="userSpaceOnUse" x1="239.0008" y1="208.8988" x2="-3.1992" y2="51.9688" gradientTransform="matrix(1 0 0 -1 -1.938518e-03 272.0019)">
			<stop  offset="0" style="stop-color:#4CDF83"/>
			<stop  offset="1" style="stop-color:#2CB565"/>
		</linearGradient>
		<path class="st17" d="M185.1,106.5L185.1,106.5c-2.8,2.8-7.4,2.8-10.2,0l0,0c-2.8-2.8-2.8-7.4,0-10.2l0,0c2.8-2.8,7.4-2.8,10.2,0
			h0C187.9,99.1,187.9,103.6,185.1,106.5z"/>
		
			<linearGradient id="SVGID_19_" gradientUnits="userSpaceOnUse" x1="253.4094" y1="186.661" x2="11.2093" y2="29.741" gradientTransform="matrix(1 0 0 -1 -6.251870e-03 272.0017)">
			<stop  offset="0" style="stop-color:#4CDF83"/>
			<stop  offset="1" style="stop-color:#2CB565"/>
		</linearGradient>
		<path class="st18" d="M190.2,132l-15.3,15.3c-2.8,2.8-7.4,2.8-10.2,0l0,0c-2.8-2.8-2.8-7.4,0-10.2l15.3-15.3
			c2.8-2.8,7.4-2.8,10.2,0l0,0C193,124.6,193,129.2,190.2,132z"/>
		
			<linearGradient id="SVGID_20_" gradientUnits="userSpaceOnUse" x1="253.3803" y1="186.7196" x2="11.1703" y2="29.7896" gradientTransform="matrix(1 0 0 -1 -2.957922e-03 272.0015)">
			<stop  offset="0" style="stop-color:#4CDF83"/>
			<stop  offset="1" style="stop-color:#2CB565"/>
		</linearGradient>
		<path class="st19" d="M103.3,188.3L88,203.6c-2.8,2.8-7.4,2.8-10.2,0l0,0c-2.8-2.8-2.8-7.4,0-10.2L93.1,178
			c2.8-2.8,7.4-2.8,10.2,0l0,0C106.1,180.9,106.1,185.4,103.3,188.3z"/>
		
			<linearGradient id="SVGID_21_" gradientUnits="userSpaceOnUse" x1="245.5706" y1="198.759" x2="3.3706" y2="41.829" gradientTransform="matrix(1 0 0 -1 6.596003e-03 271.9999)">
			<stop  offset="0" style="stop-color:#4CDF83"/>
			<stop  offset="1" style="stop-color:#2CB565"/>
		</linearGradient>
		<path class="st20" d="M108.4,162.7l51.1-51.1c2.8-2.8,7.4-2.8,10.2,0l0,0c2.8,2.8,2.8,7.4,0,10.2l-51.1,51.1
			c-2.8,2.8-7.4,2.8-10.2,0l0,0C105.6,170.1,105.6,165.5,108.4,162.7z"/>
		
			<linearGradient id="SVGID_22_" gradientUnits="userSpaceOnUse" x1="241.8406" y1="204.5191" x2="-0.3594" y2="47.5891" gradientTransform="matrix(1 0 0 -1 3.797814e-03 271.9972)">
			<stop  offset="0" style="stop-color:#4CDF83"/>
			<stop  offset="1" style="stop-color:#2CB565"/>
		</linearGradient>
		<path class="st21" d="M57.3,183.1l25.6-25.6c2.8-2.8,7.4-2.8,10.2,0l0,0c2.8,2.8,2.8,7.4,0,10.2l-25.6,25.6
			c-2.8,2.8-7.4,2.8-10.2,0l0,0C54.5,190.5,54.5,186,57.3,183.1z"/>
		
			<linearGradient id="SVGID_23_" gradientUnits="userSpaceOnUse" x1="231.9935" y1="219.7246" x2="-10.2065" y2="62.7946" gradientTransform="matrix(1 0 0 -1 2.280416e-03 272.0009)">
			<stop  offset="0" style="stop-color:#4CDF83"/>
			<stop  offset="1" style="stop-color:#2CB565"/>
		</linearGradient>
		<path class="st22" d="M98.2,142.2l66.4-66.4c2.8-2.8,7.4-2.8,10.2,0v0c2.8,2.8,2.8,7.4,0,10.2l-66.4,66.4c-2.8,2.8-7.4,2.8-10.2,0
			h0C95.4,149.7,95.4,145.1,98.2,142.2z"/>
		
			<linearGradient id="SVGID_24_" gradientUnits="userSpaceOnUse" x1="195.0601" y1="311.3398" x2="-107.6899" y2="115.1798" gradientTransform="matrix(1 0 0 -1 0 272)">
			<stop  offset="0" style="stop-color:#4CDF83"/>
			<stop  offset="1" style="stop-color:#2CB565"/>
		</linearGradient>
		<circle class="st23" cx="116.1" cy="11.8" r="11.8"/>
		
			<linearGradient id="SVGID_25_" gradientUnits="userSpaceOnUse" x1="335.5908" y1="156.0388" x2="32.8308" y2="-40.1212" gradientTransform="matrix(1 0 0 -1 0 272)">
			<stop  offset="0" style="stop-color:#4CDF83"/>
			<stop  offset="1" style="stop-color:#2CB565"/>
		</linearGradient>
		<circle class="st24" cx="116.1" cy="258.2" r="11.8"/>
		
			<linearGradient id="SVGID_26_" gradientUnits="userSpaceOnUse" x1="315.6214" y1="132.4278" x2="12.8714" y2="-63.7322" gradientTransform="matrix(1 0 0 -1 0 272)">
			<stop  offset="0" style="stop-color:#4CDF83"/>
			<stop  offset="1" style="stop-color:#2CB565"/>
		</linearGradient>
		<circle class="st25" cx="220.3" cy="201.3" r="11.8"/>
		
			<linearGradient id="SVGID_27_" gradientUnits="userSpaceOnUse" x1="239.9508" y1="216.0488" x2="-62.7992" y2="19.8888" gradientTransform="matrix(1 0 0 -1 0 272)">
			<stop  offset="0" style="stop-color:#4CDF83"/>
			<stop  offset="1" style="stop-color:#2CB565"/>
		</linearGradient>
		<circle class="st26" cx="220.3" cy="68.7" r="11.8"/>
		
			<linearGradient id="SVGID_28_" gradientUnits="userSpaceOnUse" x1="215.0264" y1="334.9556" x2="-87.7337" y2="138.7956" gradientTransform="matrix(1 0 0 -1 0 272)">
			<stop  offset="0" style="stop-color:#4CDF83"/>
			<stop  offset="1" style="stop-color:#2CB565"/>
		</linearGradient>
		<circle class="st27" cx="11.8" cy="68.7" r="11.8"/>
		
			<linearGradient id="SVGID_29_" gradientUnits="userSpaceOnUse" x1="290.6879" y1="251.3332" x2="-12.0621" y2="55.1732" gradientTransform="matrix(1 0 0 -1 0 272)">
			<stop  offset="0" style="stop-color:#4CDF83"/>
			<stop  offset="1" style="stop-color:#2CB565"/>
		</linearGradient>
		<circle class="st28" cx="11.8" cy="201.3" r="11.8"/>
		<path class="st29" d="M427,49.3c38.4,0,58.9,19.3,58.9,19.3l-8.7,12.3c0,0-19.3-16.5-49.5-16.5c-40.1,0-67.2,30.9-67.2,70.2
			c0,40.8,28,71,65.8,71c32.3,0,52.1-24.3,52.1-24.3v-28.1H450v-14.6h43.9v79.2h-15.1v-12.5c0-3.5,0.2-7.1,0.2-7.1h-0.5
			c0,0-19.1,22.4-54,22.4c-45.3,0-81.1-36.5-81.1-85.8C343.5,87,379.3,49.3,427,49.3z"/>
		<path class="st29" d="M528.5,99.3h15.8v21c0,5.2-0.5,9.4-0.5,9.4h0.5c5.7-17.9,18.9-31.6,37.5-31.6c2.1,0,4.3,0.3,6.4,0.7v15.8
			c-1.9-0.3-3.9-0.5-5.9-0.5c-16.7,0-29.2,13.2-34.4,30.7c-2.2,7.5-3.4,15.3-3.3,23.1v50h-16L528.5,99.3z"/>
		<path class="st29" d="M661.3,96.5c32.8,0,49.5,25.2,49.5,54.7c0,2.8-0.5,8.2-0.5,8.2h-91c0.7,30.4,21.5,46.9,46,46.9
			c21.7,0,36.1-14.4,36.1-14.4l7.3,12.3c-12.2,10.5-27.7,16.4-43.8,16.5c-35.4,0-62-25.5-62-62C602.8,119.8,629.2,96.5,661.3,96.5z
			 M694.5,146.2c-0.9-24.8-16-36.3-33.7-36.3c-19.8,0-37,12.5-40.8,36.3H694.5z"/>
		<path class="st29" d="M791.6,96.5c32.8,0,49.5,25.2,49.5,54.7c0,2.8-0.5,8.2-0.5,8.2h-91c0.7,30.4,21.5,46.9,46,46.9
			c21.7,0,36.1-14.4,36.1-14.4l7.3,12.3c-12.2,10.5-27.7,16.4-43.8,16.5c-35.4,0-62-25.5-62-62C733.2,119.8,759.6,96.5,791.6,96.5z
			 M824.9,146.2c-0.9-24.8-16-36.3-33.7-36.3c-19.8,0-37,12.5-40.8,36.3H824.9z"/>
		<path class="st29" d="M871.8,99.3h15.8V117c0,5.2-0.5,9.4-0.5,9.4h0.5c4.2-10.8,19.3-29.9,47.4-29.9c29.2,0,39.6,16.7,39.6,46
			v75.4h-16v-71.2c0-18.6-2.8-35.1-25.7-35.1c-20.3,0-37.7,13.9-43.1,33.5c-1.4,5.2-2,10.6-1.9,16v56.8h-16L871.8,99.3z"/>
		<path class="st29" d="M1079.7,52.2h57.3c29.7,0,51.2,19.3,51.2,50c0,30.9-21.4,50.7-51.2,50.7h-41v65.1h-16.3L1079.7,52.2z
			 M1134.8,138.1c22.2,0,36.5-13.4,36.5-36.1c0-22.4-14.4-35.4-36.3-35.4h-39.1v71.5L1134.8,138.1z"/>
		<path class="st29" d="M1214.7,52.2h16v134.1c0,15.6,7.1,17.9,13.2,17.9c1.3,0,2.7-0.1,4-0.2v14.4c-1.9,0.3-3.9,0.5-5.9,0.5
			c-9.9,0-27.3-3.1-27.3-29L1214.7,52.2z"/>
		<path class="st29" d="M1337.1,144.6h6.6v-3.1c0-22.9-12.5-30.7-29.5-30.7c-12.1,0.2-23.8,4.1-33.5,11.3l-7.6-12.3
			c0,0,15.6-13.4,42.2-13.4c28.5,0,44.3,15.8,44.3,45.5v75.9h-15.3v-13c0-3.3,0.1-6.6,0.5-9.9h-0.5c0,0-9.9,25.7-39.6,25.7
			c-19.8,0-40.3-11.6-40.3-35.1C1264.5,145.5,1316.6,144.6,1337.1,144.6z M1307.4,207c22.6,0,36.3-23.6,36.3-44.1v-5.2h-6.8
			c-18.6,0-55.9,0.7-55.9,26.9C1281,195.7,1289.7,207,1307.4,207z"/>
		<path class="st29" d="M1396.7,99.3h15.8V117c0,5.2-0.5,9.4-0.5,9.4h0.5c4.2-10.8,19.3-29.9,47.4-29.9c29.2,0,39.6,16.7,39.6,46
			v75.4h-16v-71.2c0-18.6-2.8-35.1-25.7-35.1c-20.3,0-37.7,13.9-43.1,33.5c-1.4,5.2-2,10.6-1.9,16v56.8h-16L1396.7,99.3z"/>
		<path class="st29" d="M1586.7,96.5c32.8,0,49.5,25.2,49.5,54.7c0,2.8-0.5,8.2-0.5,8.2h-91c0.7,30.4,21.4,46.9,46,46.9
			c21.7,0,36.1-14.4,36.1-14.4l7.3,12.3c-12.2,10.5-27.7,16.4-43.8,16.5c-35.4,0-62-25.5-62-62
			C1528.2,119.8,1554.7,96.5,1586.7,96.5z M1620,146.2c-0.9-24.8-16-36.3-33.7-36.3c-19.8,0-37,12.5-40.8,36.3H1620z"/>
		<path class="st29" d="M1671.3,114.2h-15.6v-13.4h15.8V66.5h15.8v34.2h29.7v13.4h-29.7v58.9c0,27.8,17.7,31.4,26.6,31.4
			c1.8,0,3.6-0.1,5.4-0.5v14.4c-2.3,0.3-4.6,0.5-6.8,0.5c-13.7,0-41.3-4.5-41.3-44.1L1671.3,114.2z"/>
	</g>
</g>
</svg>
