<?xml version="1.0" encoding="utf-8"?>
<!-- Generator: Adobe Illustrator 24.1.3, SVG Export Plug-In . SVG Version: 6.00 Build 0)  -->
<svg version="1.1" id="Layer_1" xmlns="http://www.w3.org/2000/svg" xmlns:xlink="http://www.w3.org/1999/xlink" x="0px" y="0px"
	 viewBox="0 0 1719.4 270" style="enable-background:new 0 0 1719.4 270;" xml:space="preserve">
<style type="text/css">
	.st0{fill:#FFFFFF;}
</style>
<title>green-planet-logo-white</title>
<g id="Layer_2">
	<g id="Layer_1-2">
		<path class="st0" d="M52.2,116.7L82.8,86c3-2.7,3.2-7.2,0.5-10.2s-7.2-3.2-10.2-0.5c-0.2,0.2-0.4,0.4-0.5,0.5L42,106.5
			c-2.7,2.9-2.6,7.5,0.3,10.2C45.1,119.3,49.4,119.3,52.2,116.7L52.2,116.7z"/>
		<path class="st0" d="M72.6,116.7c2.8,2.8,7.4,2.8,10.2,0l46-46c2.7-2.9,2.6-7.5-0.3-10.2c-2.8-2.6-7.1-2.6-9.9,0l-46,46
			C69.9,109.3,70,113.8,72.6,116.7z"/>
		<path class="st0" d="M88,70.7c2.8,2.8,7.4,2.8,10.2,0l0,0c2.8-2.8,2.8-7.4,0-10.2c-2.8-2.8-7.4-2.8-10.2,0
			C85.2,63.3,85.2,67.9,88,70.7C88,70.7,88,70.7,88,70.7z"/>
		<path class="st0" d="M57.3,172.9c2.8-2.8,2.8-7.4,0-10.2c-2.8-2.8-7.4-2.8-10.2,0s-2.8,7.4,0,10.2c0,0,0,0,0,0l0,0
			C49.9,175.7,54.5,175.7,57.3,172.9z"/>
		<path class="st0" d="M52.2,147.4L67.5,132c2.7-2.9,2.5-7.5-0.5-10.2c-2.8-2.5-7-2.5-9.8,0L42,137.1c-2.7,2.9-2.6,7.5,0.3,10.2
			C45.1,150,49.4,150,52.2,147.4L52.2,147.4z"/>
		<path class="st0" d="M128.9,91.1L128.9,91.1c2.8,2.8,7.4,2.8,10.2,0l15.3-15.3c2.9-2.7,3-7.3,0.3-10.2c-2.7-2.9-7.3-3-10.2-0.3
			c-0.1,0.1-0.2,0.2-0.3,0.3l-15.3,15.3C126,83.7,126,88.3,128.9,91.1z"/>
		<path class="st0" d="M123.7,96.2c-2.8-2.8-7.4-2.8-10.2,0l-51.1,51.1c-2.9,2.7-3,7.3-0.3,10.2c2.7,2.9,7.3,3,10.2,0.3
			c0.1-0.1,0.2-0.2,0.3-0.3l51.1-51.1C126.6,103.6,126.6,99.1,123.7,96.2C123.7,96.2,123.7,96.2,123.7,96.2z"/>
		<path class="st0" d="M190.2,152.5L190.2,152.5c-2.8-2.8-7.4-2.8-10.2,0l-30.7,30.7c-2.8,2.8-2.8,7.4,0,10.2l0,0
			c2.8,2.8,7.4,2.8,10.2,0l30.7-30.7C193,159.9,193,155.3,190.2,152.5z"/>
		<path class="st0" d="M159.5,152.5L159.5,152.5c-2.8-2.8-7.4-2.8-10.2,0l-46,46c-2.9,2.7-3,7.3-0.3,10.2s7.3,3,10.2,0.3
			c0.1-0.1,0.2-0.2,0.3-0.3l46-46C162.3,159.9,162.3,155.3,159.5,152.5z"/>
		<circle class="st0" cx="139.1" cy="203.6" r="7.2"/>
		<path class="st0" d="M174.9,106.5c2.8,2.8,7.4,2.8,10.2,0l0,0c2.8-2.8,2.8-7.4,0-10.2l0,0c-2.9-2.7-7.5-2.6-10.2,0.3
			C172.2,99.3,172.2,103.7,174.9,106.5z"/>
		<path class="st0" d="M180,121.8l-15.3,15.3c-2.8,2.8-2.8,7.4,0,10.2l0,0c2.8,2.8,7.4,2.8,10.2,0l15.3-15.4c2.6-3,2.2-7.6-0.8-10.2
			C186.7,119.5,182.7,119.5,180,121.8z"/>
		<path class="st0" d="M103.3,178c-2.8-2.8-7.4-2.8-10.2,0l-15.3,15.4c-2.8,2.8-2.8,7.4,0,10.2c2.8,2.8,7.4,2.8,10.2,0l15.3-15.3
			C106.2,185.4,106.2,180.9,103.3,178C103.3,178,103.3,178,103.3,178z"/>
		<path class="st0" d="M118.6,172.9l51.1-51.1c2.8-2.8,2.8-7.4,0-10.2l0,0c-2.8-2.8-7.4-2.8-10.2,0l-51.1,51.1
			c-2.8,2.8-2.8,7.4,0,10.2l0,0C111.2,175.7,115.8,175.7,118.6,172.9z"/>
		<path class="st0" d="M93.1,157.6c-2.8-2.8-7.4-2.8-10.2,0l-25.6,25.6c-2.8,2.8-2.8,7.4,0,10.2l0,0c2.8,2.8,7.4,2.8,10.2,0
			l25.6-25.6C95.9,165,95.9,160.4,93.1,157.6z"/>
		<path class="st0" d="M98.2,152.5L98.2,152.5c2.8,2.8,7.4,2.8,10.2,0L174.9,86c3-2.7,3.2-7.2,0.5-10.2c-2.7-3-7.2-3.2-10.2-0.5
			c-0.2,0.2-0.4,0.4-0.5,0.5l-66.5,66.4C95.4,145.1,95.4,149.6,98.2,152.5z"/>
		<path class="st0" d="M222.7,189.7V80.3c6.4-1.3,10.5-7.6,9.2-14s-7.6-10.5-14-9.2c-2.6,0.5-5,1.9-6.7,4l-83.9-45.7
			c1.9-6.3-1.6-12.9-7.9-14.8c-6.3-1.9-12.9,1.6-14.8,7.9c-0.7,2.3-0.7,4.7,0,6.9L20.9,61.1c-4.2-5-11.7-5.6-16.7-1.4
			s-5.6,11.7-1.4,16.7c1.7,2,4.1,3.4,6.7,4v109.4c-6.4,1.3-10.5,7.6-9.2,14s7.6,10.5,14,9.2c2.6-0.5,4.9-1.9,6.6-3.9l83.8,45.7
			c-1.9,6.3,1.6,12.9,7.9,14.8c6.3,1.9,12.9-1.6,14.8-7.9c0.7-2.3,0.7-4.7,0-6.9l83.9-45.7c4.2,5,11.7,5.6,16.7,1.4
			s5.6-11.7,1.4-16.7C227.6,191.7,225.3,190.3,222.7,189.7L222.7,189.7z M125.1,250.5c-1.7-2-4.1-3.5-6.7-4v-26.3
			c0-1.3-1.1-2.4-2.4-2.4s-2.4,1.1-2.4,2.4c0,0,0,0,0,0v26.3c-2.6,0.5-5,2-6.7,4l-83.9-45.8c0.8-2.5,0.7-5.2-0.3-7.7l18.6-11.9
			c1.1-0.7,1.4-2.2,0.6-3.3c-0.7-1-2.1-1.4-3.2-0.7l-18.6,11.9c-1.7-1.7-3.8-2.9-6.1-3.4V80.3c2.3-0.5,4.5-1.7,6.1-3.4L39,88.8
			c1.1,0.7,2.6,0.4,3.3-0.6c0.7-1.1,0.4-2.6-0.6-3.3c0,0-0.1,0-0.1-0.1L22.9,72.9c1-2.5,1-5.2,0.3-7.7L107,19.5c1.7,2,4.1,3.5,6.7,4
			v26.3c0,1.3,1.1,2.4,2.4,2.4s2.4-1.1,2.4-2.4c0,0,0,0,0,0V23.5c2.6-0.5,5-2,6.7-4L209,65.2c-0.8,2.5-0.7,5.2,0.3,7.7l-18.7,11.9
			c-1.1,0.7-1.4,2.2-0.6,3.3c0.7,1,2.1,1.4,3.2,0.7l18.6-11.9c1.7,1.7,3.8,2.9,6.1,3.4v109.4c-2.3,0.5-4.5,1.7-6.1,3.4l-18.6-11.9
			c-1.1-0.7-2.6-0.3-3.3,0.8c-0.6,1.1-0.3,2.5,0.7,3.2l18.6,11.9c-1,2.5-1,5.2-0.3,7.7L125.1,250.5z"/>
		<path class="st0" d="M427,49.3c38.4,0,58.9,19.3,58.9,19.3l-8.7,12.3c0,0-19.3-16.5-49.5-16.5c-40.1,0-67.2,30.9-67.2,70.2
			c0,40.8,28,71,65.8,71c32.3,0,52.1-24.3,52.1-24.3v-28.1H450v-14.6h43.9v79.2h-15.1v-12.5c0-3.5,0.2-7.1,0.2-7.1h-0.5
			c0,0-19.1,22.4-54,22.4c-45.3,0-81.1-36.5-81.1-85.8C343.5,87,379.3,49.3,427,49.3z"/>
		<path class="st0" d="M528.5,99.3h15.8v21c0,5.2-0.5,9.4-0.5,9.4h0.5c5.7-17.9,18.9-31.6,37.5-31.6c2.1,0,4.3,0.3,6.4,0.7v15.8
			c-1.9-0.3-3.9-0.5-5.9-0.5c-16.7,0-29.2,13.2-34.4,30.7c-2.2,7.5-3.4,15.3-3.3,23.1v50h-16L528.5,99.3z"/>
		<path class="st0" d="M661.3,96.5c32.8,0,49.5,25.2,49.5,54.7c0,2.8-0.5,8.2-0.5,8.2h-91c0.7,30.4,21.5,46.9,46,46.9
			c21.7,0,36.1-14.4,36.1-14.4l7.3,12.3c-12.2,10.5-27.7,16.4-43.8,16.5c-35.4,0-62-25.5-62-62C602.8,119.8,629.2,96.5,661.3,96.5z
			 M694.5,146.2c-0.9-24.8-16-36.3-33.7-36.3c-19.8,0-37,12.5-40.8,36.3H694.5z"/>
		<path class="st0" d="M791.6,96.5c32.8,0,49.5,25.2,49.5,54.7c0,2.8-0.5,8.2-0.5,8.2h-91c0.7,30.4,21.5,46.9,46,46.9
			c21.7,0,36.1-14.4,36.1-14.4l7.3,12.3c-12.2,10.5-27.7,16.4-43.8,16.5c-35.4,0-62-25.5-62-62C733.2,119.8,759.6,96.5,791.6,96.5z
			 M824.9,146.2c-0.9-24.8-16-36.3-33.7-36.3c-19.8,0-37,12.5-40.8,36.3H824.9z"/>
		<path class="st0" d="M871.8,99.3h15.8V117c0,5.2-0.5,9.4-0.5,9.4h0.5c4.2-10.8,19.3-29.9,47.4-29.9c29.2,0,39.6,16.7,39.6,46v75.4
			h-16v-71.2c0-18.6-2.8-35.1-25.7-35.1c-20.3,0-37.7,13.9-43.1,33.5c-1.4,5.2-2,10.6-1.9,16v56.8h-16L871.8,99.3z"/>
		<path class="st0" d="M1079.7,52.2h57.3c29.7,0,51.2,19.3,51.2,50c0,30.9-21.4,50.7-51.2,50.7h-41v65.1h-16.3L1079.7,52.2z
			 M1134.8,138.1c22.2,0,36.5-13.4,36.5-36.1c0-22.4-14.4-35.4-36.3-35.4h-39.1v71.5L1134.8,138.1z"/>
		<path class="st0" d="M1214.7,52.2h16v134.1c0,15.6,7.1,17.9,13.2,17.9c1.3,0,2.7-0.1,4-0.2v14.4c-1.9,0.3-3.9,0.5-5.9,0.5
			c-9.9,0-27.3-3.1-27.3-29L1214.7,52.2z"/>
		<path class="st0" d="M1337.1,144.6h6.6v-3.1c0-22.9-12.5-30.7-29.5-30.7c-12.1,0.2-23.8,4.1-33.5,11.3l-7.6-12.3
			c0,0,15.6-13.4,42.2-13.4c28.5,0,44.3,15.8,44.3,45.5v75.9h-15.3v-13c0-3.3,0.1-6.6,0.5-9.9h-0.5c0,0-9.9,25.7-39.6,25.7
			c-19.8,0-40.3-11.6-40.3-35.1C1264.5,145.5,1316.6,144.6,1337.1,144.6z M1307.4,207c22.6,0,36.3-23.6,36.3-44.1v-5.2h-6.8
			c-18.6,0-55.9,0.7-55.9,26.9C1281,195.7,1289.7,207,1307.4,207z"/>
		<path class="st0" d="M1396.7,99.3h15.8V117c0,5.2-0.5,9.4-0.5,9.4h0.5c4.2-10.8,19.3-29.9,47.4-29.9c29.2,0,39.6,16.7,39.6,46
			v75.4h-16v-71.2c0-18.6-2.8-35.1-25.7-35.1c-20.3,0-37.7,13.9-43.1,33.5c-1.4,5.2-2,10.6-1.9,16v56.8h-16L1396.7,99.3z"/>
		<path class="st0" d="M1586.7,96.5c32.8,0,49.5,25.2,49.5,54.7c0,2.8-0.5,8.2-0.5,8.2h-91c0.7,30.4,21.4,46.9,46,46.9
			c21.7,0,36.1-14.4,36.1-14.4l7.3,12.3c-12.2,10.5-27.7,16.4-43.8,16.5c-35.4,0-62-25.5-62-62
			C1528.2,119.8,1554.7,96.5,1586.7,96.5z M1620,146.2c-0.9-24.8-16-36.3-33.7-36.3c-19.8,0-37,12.5-40.8,36.3H1620z"/>
		<path class="st0" d="M1671.3,114.2h-15.6v-13.4h15.8V66.5h15.8v34.2h29.7v13.4h-29.7v58.9c0,27.8,17.7,31.4,26.6,31.4
			c1.8,0,3.6-0.1,5.4-0.5v14.4c-2.3,0.3-4.6,0.5-6.8,0.5c-13.7,0-41.3-4.5-41.3-44.1L1671.3,114.2z"/>
	</g>
</g>
</svg>
