<?xml version="1.0" encoding="utf-8"?>
<!-- Generator: Adobe Illustrator 24.1.3, SVG Export Plug-In . SVG Version: 6.00 Build 0)  -->
<svg version="1.1" id="Layer_1" xmlns="http://www.w3.org/2000/svg" xmlns:xlink="http://www.w3.org/1999/xlink" x="0px" y="0px"
	 viewBox="0 0 1561.1 647.8" style="enable-background:new 0 0 1561.1 647.8;" xml:space="preserve">
<style type="text/css">
	.st0{fill:#FFFFFF;}
</style>
<title>green-planet-logo-v-white</title>
<g id="Layer_2">
	<g id="Layer_1-2">
		<path class="st0" d="M708.1,132.4l34.8-34.8c3.2-3.2,3.2-8.4,0-11.6c0,0,0,0,0,0l0,0c-3.2-3.2-8.4-3.2-11.6,0c0,0,0,0,0,0
			l-34.8,34.8c-3.2,3.2-3.2,8.4,0,11.6S704.9,135.6,708.1,132.4L708.1,132.4z"/>
		<path class="st0" d="M731.3,132.4c3.2,3.2,8.4,3.2,11.6,0c0,0,0,0,0,0l52.2-52.2c3.2-3.2,3.2-8.4,0-11.6c-3.2-3.2-8.4-3.2-11.6,0
			l0,0l-52.2,52.2C728.1,124,728.1,129.2,731.3,132.4C731.3,132.4,731.3,132.4,731.3,132.4z"/>
		<path class="st0" d="M748.7,80.2c3.2,3.2,8.4,3.2,11.6,0c3.2-3.2,3.2-8.4,0-11.6c-3.2-3.2-8.4-3.2-11.6,0l0,0
			C745.5,71.8,745.5,77,748.7,80.2C748.7,80.2,748.7,80.2,748.7,80.2z"/>
		<path class="st0" d="M713.9,184.6L713.9,184.6c-3.2-3.2-8.4-3.2-11.6,0c0,0,0,0,0,0l0,0c-3.2,3.2-3.2,8.4,0,11.6
			c3.2,3.2,8.4,3.2,11.6,0C717.1,193,717.1,187.8,713.9,184.6z"/>
		<path class="st0" d="M708.1,167.2l17.4-17.4c3.2-3.2,3.2-8.4,0-11.6s-8.4-3.2-11.6,0l0,0l-17.4,17.4c-3.2,3.2-3.2,8.4,0,11.6
			S704.9,170.4,708.1,167.2L708.1,167.2z"/>
		<path class="st0" d="M795.1,103.4L795.1,103.4c3.2,3.2,8.4,3.2,11.6,0c0,0,0,0,0,0L824.1,86c3.2-3.2,3.2-8.4,0-11.6
			c-3.2-3.2-8.4-3.2-11.6,0l0,0l-17.4,17.4C791.9,95,791.9,100.2,795.1,103.4C795.1,103.4,795.1,103.4,795.1,103.4z"/>
		<path class="st0" d="M789.3,109.2c-3.2-3.2-8.4-3.2-11.6,0c0,0,0,0,0,0l-58,58c-3.2,3.2-3.2,8.4,0,11.6s8.4,3.2,11.6,0l0,0l58-58
			C792.5,117.6,792.5,112.4,789.3,109.2C789.3,109.2,789.3,109.2,789.3,109.2z"/>
		<path class="st0" d="M864.7,173L864.7,173c-3.2-3.2-8.4-3.2-11.6,0c0,0,0,0,0,0l-34.8,34.8c-3.2,3.2-3.2,8.4,0,11.6c0,0,0,0,0,0
			l0,0c3.2,3.2,8.4,3.2,11.6,0c0,0,0,0,0,0l34.8-34.8C867.9,181.4,867.9,176.2,864.7,173C864.7,173,864.7,173,864.7,173z"/>
		<path class="st0" d="M829.9,173L829.9,173c-3.2-3.2-8.4-3.2-11.6,0c0,0,0,0,0,0l-52.2,52.2c-3.2,3.2-3.2,8.4,0,11.6c0,0,0,0,0,0
			l0,0c3.2,3.2,8.4,3.2,11.6,0c0,0,0,0,0,0l52.2-52.2C833.1,181.4,833.1,176.2,829.9,173C829.9,173,829.9,173,829.9,173z"/>
		<ellipse transform="matrix(0.7071 -0.7071 0.7071 0.7071 72.9376 638.0467)" class="st0" cx="806.7" cy="231" rx="8.2" ry="8.2"/>
		<path class="st0" d="M847.3,109.2c-3.2,3.2-3.2,8.4,0,11.6c0,0,0,0,0,0l0,0c3.2,3.2,8.4,3.2,11.6,0c0,0,0,0,0,0l0,0
			c3.2-3.2,3.2-8.4,0-11.6C855.7,106,850.5,106,847.3,109.2z"/>
		<path class="st0" d="M853.1,138.2l-17.4,17.4c-3.2,3.2-3.2,8.4,0,11.6s8.4,3.2,11.6,0l0,0l17.4-17.4c3.2-3.2,3.2-8.4,0-11.6
			c0,0,0,0,0,0l0,0C861.5,135,856.3,135,853.1,138.2C853.1,138.2,853.1,138.2,853.1,138.2z"/>
		<path class="st0" d="M766.1,202L766.1,202c-3.2-3.2-8.4-3.2-11.6,0c0,0,0,0,0,0l-17.4,17.4c-3.2,3.2-3.2,8.4,0,11.6
			s8.4,3.2,11.6,0l17.4-17.4C769.3,210.4,769.3,205.2,766.1,202C766.1,202,766.1,202,766.1,202z"/>
		<path class="st0" d="M841.5,126.6c-3.2-3.2-8.4-3.2-11.6,0c0,0,0,0,0,0l-58,58c-3.2,3.2-3.2,8.4,0,11.6s8.4,3.2,11.6,0l58-58
			C844.7,135,844.7,129.8,841.5,126.6C841.5,126.6,841.5,126.6,841.5,126.6z"/>
		<path class="st0" d="M754.5,178.8c-3.2-3.2-8.4-3.2-11.6,0c0,0,0,0,0,0l-29,29c-3.2,3.2-3.2,8.4,0,11.6c0,0,0,0,0,0l0,0
			c3.2,3.2,8.4,3.2,11.6,0c0,0,0,0,0,0l29-29C757.7,187.2,757.7,182,754.5,178.8C754.5,178.8,754.5,178.8,754.5,178.8z"/>
		<path class="st0" d="M760.3,173c3.2,3.2,8.4,3.2,11.6,0c0,0,0,0,0,0l75.4-75.4c3.2-3.2,3.2-8.4,0-11.6c0,0,0,0,0,0l0,0
			c-3.2-3.2-8.4-3.2-11.6,0c0,0,0,0,0,0l-75.4,75.4C757.1,164.6,757.1,169.8,760.3,173C760.3,173,760.3,173,760.3,173z"/>
		<path class="st0" d="M901.5,215.3V91.1c7.3-1.5,11.9-8.6,10.4-15.9s-8.6-11.9-15.9-10.4c-2.9,0.6-5.6,2.2-7.5,4.5l-95.1-51.9
			c2.2-7.1-1.8-14.6-8.9-16.8s-14.6,1.8-16.8,8.9c-0.8,2.6-0.8,5.3,0,7.9l-95.1,51.9c-4.8-5.7-13.3-6.4-18.9-1.6
			c-5.7,4.8-6.4,13.3-1.6,18.9c1.9,2.3,4.6,3.9,7.5,4.5v124.2c-7.3,1.5-11.9,8.6-10.4,15.9s8.6,11.9,15.9,10.4
			c2.9-0.6,5.6-2.2,7.5-4.5l95.1,51.9c-2.2,7.1,1.8,14.6,8.9,16.8s14.6-1.8,16.8-8.9c0.8-2.6,0.8-5.3,0-7.9l95.1-51.9
			c4.8,5.7,13.3,6.4,18.9,1.6c5.7-4.8,6.4-13.3,1.6-18.9C907.1,217.5,904.5,215.9,901.5,215.3L901.5,215.3z M790.8,284.3
			c-1.9-2.3-4.6-3.9-7.6-4.5v-29.8c-0.1-1.5-1.4-2.6-2.8-2.5c-1.4,0.1-2.4,1.2-2.5,2.5v29.8c-3,0.6-5.6,2.2-7.6,4.5l-95.1-51.9
			c0.9-2.9,0.8-5.9-0.3-8.7l21.2-13.5c1.3-0.8,1.6-2.5,0.8-3.7c-0.8-1.3-2.5-1.6-3.7-0.8l0,0L672,219.1c-1.9-2-4.3-3.3-7-3.8V91.1
			c2.7-0.5,5.1-1.9,7-3.8l21.2,13.5c1.3,0.7,2.9,0.2,3.6-1.2c0.6-1.2,0.3-2.6-0.8-3.4l-21.2-13.5c1.1-2.8,1.2-5.9,0.3-8.7l95.1-51.9
			c1.9,2.3,4.6,3.9,7.6,4.5v29.8c0,1.5,1.2,2.7,2.7,2.7s2.7-1.2,2.7-2.7V26.6c3-0.6,5.6-2.2,7.6-4.5L886,74
			c-0.9,2.9-0.8,5.9,0.3,8.7l-21.2,13.5c-1.3,0.8-1.6,2.5-0.8,3.7c0.8,1.3,2.5,1.6,3.7,0.8l21.2-13.5c1.9,2,4.3,3.3,7,3.8v124.2
			c-2.7,0.5-5.1,1.9-7,3.8L868,205.6c-1.3-0.8-2.9-0.4-3.7,0.8c-0.8,1.3-0.4,2.9,0.8,3.7l21.2,13.5c-1.1,2.8-1.2,5.9-0.3,8.7
			L790.8,284.3z"/>
		<path class="st0" d="M94.7,453.3c43.6,0,66.9,21.9,66.9,21.9l-9.9,13.9c0,0-21.9-18.7-56.2-18.7c-45.5,0-76.2,35-76.2,79.7
			c0,46.3,31.8,80.5,74.6,80.5c36.7,0,59.1-27.5,59.1-27.5v-31.8h-32.1v-16.6h49.7v89.9h-17.1v-14.2c0-4,0.3-8,0.3-8h-0.5
			c0,0-21.7,25.4-61.3,25.4c-51.4,0-92-41.5-92-97.4C0,496.1,40.7,453.3,94.7,453.3z"/>
		<path class="st0" d="M210,510h17.9v23.8c0,5.9-0.5,10.7-0.5,10.7h0.5c6.4-20.3,21.4-35.8,42.5-35.8c2.4,0,4.8,0.3,7.2,0.8v17.9
			c-2.2-0.3-4.5-0.5-6.7-0.5c-19,0-33.2,15-39.1,34.8c-2.6,8.5-3.8,17.3-3.8,26.2v56.7H210V510z"/>
		<path class="st0" d="M360.5,506.8c37.2,0,56.2,28.6,56.2,62.1c0,3.2-0.5,9.4-0.5,9.4H312.9c0.8,34.5,24.3,53.2,52.2,53.2
			c24.6,0,40.9-16.3,40.9-16.3l8.3,13.9c-13.8,11.9-31.5,18.6-49.8,18.7c-40.1,0-70.4-28.9-70.4-70.3
			C294.2,533.3,324.2,506.8,360.5,506.8z M398.2,563.3c-1.1-28.1-18.2-41.2-38.2-41.2c-22.5,0-42,14.2-46.3,41.2H398.2z"/>
		<path class="st0" d="M508.4,506.8c37.2,0,56.2,28.6,56.2,62.1c0,3.2-0.5,9.4-0.5,9.4H460.8c0.8,34.5,24.3,53.2,52.2,53.2
			c24.6,0,40.9-16.3,40.9-16.3l8.3,13.9c-13.8,11.9-31.5,18.6-49.8,18.7c-40.1,0-70.4-28.9-70.4-70.3
			C442.1,533.3,472.1,506.8,508.4,506.8z M546.1,563.3c-1.1-28.1-18.2-41.2-38.2-41.2c-22.5,0-42,14.2-46.3,41.2H546.1z"/>
		<path class="st0" d="M599.4,510h17.9v20.1c0,5.9-0.5,10.7-0.5,10.7h0.5c4.8-12.3,21.9-34,53.8-34c33.2,0,44.9,19,44.9,52.2v85.6
			h-18.2v-80.7c0-21.1-3.2-39.8-29.2-39.8c-23,0-42.8,15.8-49,38c-1.5,5.9-2.3,12.1-2.1,18.2v64.5h-18.2V510z"/>
		<path class="st0" d="M835.2,456.5h65c33.7,0,58,21.9,58,56.7c0,35-24.3,57.5-58,57.5h-46.5v73.8h-18.5V456.5z M897.8,554.2
			c25.1,0,41.5-15.2,41.5-40.9c0-25.4-16.3-40.1-41.2-40.1h-44.4v81L897.8,554.2z"/>
		<path class="st0" d="M988.5,456.5h18.2v152.2c0,17.7,8,20.3,15,20.3c1.5,0,3-0.1,4.5-0.3v16.3c-2.2,0.3-4.4,0.5-6.7,0.5
			c-11.2,0-31-3.5-31-32.9L988.5,456.5z"/>
		<path class="st0" d="M1127.3,561.4h7.5v-3.5c0-25.9-14.2-34.8-33.4-34.8c-22.2,0-38,12.8-38,12.8l-8.6-13.9
			c0,0,17.7-15.2,47.9-15.2c32.4,0,50.3,17.9,50.3,51.6v86.1h-17.4v-14.7c0-3.8,0.2-7.5,0.5-11.2h-0.5c0,0-11.2,29.2-44.9,29.2
			c-22.5,0-45.7-13.1-45.7-39.9C1044.9,562.5,1104,561.4,1127.3,561.4z M1093.6,632.3c25.7,0,41.2-26.8,41.2-50v-5.9h-7.8
			c-21.1,0-63.4,0.8-63.4,30.5C1063.7,619.4,1073.6,632.3,1093.6,632.3z"/>
		<path class="st0" d="M1195,510h17.9v20.1c0,5.9-0.5,10.7-0.5,10.7h0.5c4.8-12.3,21.9-34,53.8-34c33.2,0,44.9,19,44.9,52.2v85.6
			h-18.2v-80.7c0-21.1-3.2-39.8-29.2-39.8c-23,0-42.8,15.8-48.9,38c-1.5,5.9-2.3,12.1-2.1,18.2v64.5H1195V510z"/>
		<path class="st0" d="M1410.6,506.8c37.2,0,56.2,28.6,56.2,62.1c0,3.2-0.5,9.4-0.5,9.4h-103.2c0.8,34.5,24.3,53.2,52.2,53.2
			c24.6,0,40.9-16.3,40.9-16.3l8.3,13.9c-13.8,11.9-31.5,18.6-49.8,18.7c-40.1,0-70.3-28.9-70.3-70.3
			C1344.2,533.3,1374.2,506.8,1410.6,506.8z M1448.3,563.3c-1.1-28.1-18.2-41.2-38.2-41.2c-22.5,0-42,14.2-46.3,41.2H1448.3z"/>
		<path class="st0" d="M1506.6,526.9h-17.7v-15.2h17.9v-38.8h17.9v38.8h33.7v15.3h-33.7v66.9c0,31.6,20.1,35.6,30.2,35.6
			c2.1,0,4.1-0.2,6.2-0.5v16.3c-2.6,0.4-5.2,0.6-7.8,0.5c-15.5,0-46.8-5.1-46.8-50V526.9z"/>
	</g>
</g>
</svg>
