<?xml version="1.0" encoding="utf-8"?>
<!-- Generator: Adobe Illustrator 24.1.3, SVG Export Plug-In . SVG Version: 6.00 Build 0)  -->
<svg version="1.1" id="Layer_1" xmlns="http://www.w3.org/2000/svg" xmlns:xlink="http://www.w3.org/1999/xlink" x="0px" y="0px"
	 viewBox="0 0 232 270" style="enable-background:new 0 0 232 270;" xml:space="preserve">
<style type="text/css">
	.st0{fill:url(#SVGID_1_);}
	.st1{fill:url(#SVGID_2_);}
	.st2{fill:url(#SVGID_3_);}
	.st3{fill:url(#SVGID_4_);}
	.st4{fill:url(#SVGID_5_);}
	.st5{fill:url(#SVGID_6_);}
	.st6{fill:url(#SVGID_7_);}
	.st7{fill:url(#SVGID_8_);}
	.st8{fill:url(#SVGID_9_);}
	.st9{fill:url(#SVGID_10_);}
	.st10{fill:url(#SVGID_11_);}
	.st11{fill:url(#SVGID_12_);}
	.st12{fill:url(#SVGID_13_);}
	.st13{fill:url(#SVGID_14_);}
	.st14{fill:url(#SVGID_15_);}
	.st15{fill:url(#SVGID_16_);}
	.st16{fill:url(#SVGID_17_);}
	.st17{fill:url(#SVGID_18_);}
	.st18{fill:url(#SVGID_19_);}
	.st19{fill:url(#SVGID_20_);}
	.st20{fill:url(#SVGID_21_);}
	.st21{fill:url(#SVGID_22_);}
	.st22{fill:url(#SVGID_23_);}
	.st23{fill:url(#SVGID_24_);}
	.st24{fill:url(#SVGID_25_);}
	.st25{fill:url(#SVGID_26_);}
	.st26{fill:url(#SVGID_27_);}
	.st27{fill:url(#SVGID_28_);}
	.st28{fill:url(#SVGID_29_);}
</style>
<linearGradient id="SVGID_1_" gradientUnits="userSpaceOnUse" x1="127.3414" y1="44.0638" x2="105.0407" y2="21.7632" gradientTransform="matrix(1 0 0 -1 0 272)">
	<stop  offset="0" style="stop-color:#4CDF83"/>
	<stop  offset="1" style="stop-color:#2CB565"/>
</linearGradient>
<path class="st0" d="M116.2,260.4c-1.3,0-2.4-1.1-2.4-2.4v-37.9c0-1.3,1.1-2.4,2.4-2.4c1.3,0,2.4,1.1,2.4,2.4V258
	C118.6,259.3,117.5,260.4,116.2,260.4z"/>
<linearGradient id="SVGID_2_" gradientUnits="userSpaceOnUse" x1="127.3424" y1="252.517" x2="105.0397" y2="230.2142" gradientTransform="matrix(1 0 0 -1 0 272)">
	<stop  offset="0" style="stop-color:#2CB565"/>
	<stop  offset="1" style="stop-color:#4CDF83"/>
</linearGradient>
<path class="st1" d="M116.2,52c-1.3,0-2.4-1.1-2.4-2.4l0,0V11.7c0-1.3,1.1-2.4,2.4-2.4c1.3,0,2.4,1.1,2.4,2.4c0,0,0,0,0,0v37.9
	C118.6,50.9,117.5,52,116.2,52z"/>
<linearGradient id="SVGID_3_" gradientUnits="userSpaceOnUse" x1="30.4141" y1="198.7023" x2="21.8941" y2="190.1824" gradientTransform="matrix(1 0 0 -1 0 272)">
	<stop  offset="0" style="stop-color:#4CDF83"/>
	<stop  offset="1" style="stop-color:#2CB565"/>
</linearGradient>
<path class="st2" d="M40.4,89c-0.4,0-0.9-0.1-1.3-0.4L10.7,70.5c-1.1-0.7-1.5-2.1-0.8-3.3c0.7-1.1,2.1-1.5,3.3-0.8
	c0,0,0.1,0,0.1,0.1l28.4,18.1c1.1,0.7,1.4,2.2,0.7,3.3C42,88.6,41.2,89,40.4,89z"/>
<linearGradient id="SVGID_4_" gradientUnits="userSpaceOnUse" x1="197.388" y1="74.8072" x2="214.978" y2="84.9572" gradientTransform="matrix(1 0 0 -1 0 272)">
	<stop  offset="0" style="stop-color:#4CDF83"/>
	<stop  offset="1" style="stop-color:#2CB565"/>
</linearGradient>
<path class="st3" d="M220.4,203.6c-0.4,0-0.9-0.1-1.3-0.4l-28.4-18.1c-1.1-0.7-1.5-2.1-0.8-3.3c0.7-1.1,2.1-1.5,3.3-0.8
	c0,0,0.1,0,0.1,0.1l28.4,18.1c1.1,0.7,1.4,2.2,0.7,3.3C222,203.1,221.2,203.6,220.4,203.6L220.4,203.6z"/>
<linearGradient id="SVGID_5_" gradientUnits="userSpaceOnUse" x1="219.4942" y1="207.7314" x2="192.8842" y2="181.1214" gradientTransform="matrix(1 0 0 -1 0 272)">
	<stop  offset="0" style="stop-color:#4CDF83"/>
	<stop  offset="1" style="stop-color:#2CB565"/>
</linearGradient>
<path class="st4" d="M192,89c-1.3,0-2.4-1.1-2.4-2.4c0-0.8,0.4-1.6,1.1-2l28.4-18.1c1.1-0.7,2.6-0.3,3.3,0.8
	c0.6,1.1,0.3,2.5-0.7,3.2l-28.4,18.1C192.9,88.9,192.4,89,192,89z"/>
<linearGradient id="SVGID_6_" gradientUnits="userSpaceOnUse" x1="39.489" y1="93.1566" x2="12.879" y2="66.5466" gradientTransform="matrix(1 0 0 -1 0 272)">
	<stop  offset="0" style="stop-color:#4CDF83"/>
	<stop  offset="1" style="stop-color:#2CB565"/>
</linearGradient>
<path class="st5" d="M12,203.6c-1.3,0-2.4-1.1-2.4-2.4c0-0.8,0.4-1.6,1.1-2l28.4-18.1c1.1-0.7,2.6-0.4,3.3,0.6
	c0.7,1.1,0.4,2.6-0.6,3.3c0,0-0.1,0-0.1,0.1l-28.4,18.1C12.9,203.4,12.4,203.6,12,203.6z"/>
<linearGradient id="SVGID_7_" gradientUnits="userSpaceOnUse" x1="203.3486" y1="224.297" x2="29.0236" y2="49.972" gradientTransform="matrix(1 0 0 -1 0 272)">
	<stop  offset="0" style="stop-color:#4CDF83"/>
	<stop  offset="1" style="stop-color:#2CB565"/>
</linearGradient>
<path class="st6" d="M116.2,260.7L9.6,202.6V67.1L116.2,9l106.6,58.1v135.5L116.2,260.7z M14.3,199.7l101.8,55.6L218,199.7V69.9
	L116.2,14.4L14.3,69.9L14.3,199.7z"/>
<linearGradient id="SVGID_8_" gradientUnits="userSpaceOnUse" x1="202.0326" y1="266.3021" x2="-40.1674" y2="109.3721" gradientTransform="matrix(1 0 0 -1 3.188432e-04 272.0013)">
	<stop  offset="0" style="stop-color:#4CDF83"/>
	<stop  offset="1" style="stop-color:#2CB565"/>
</linearGradient>
<path class="st7" d="M42.1,106.3l30.7-30.7c2.8-2.8,7.4-2.8,10.2,0l0,0c2.8,2.8,2.8,7.4,0,10.2l-30.7,30.7c-2.8,2.8-7.4,2.8-10.2,0
	l0,0C39.3,113.7,39.3,109.1,42.1,106.3z"/>
<linearGradient id="SVGID_9_" gradientUnits="userSpaceOnUse" x1="209.8684" y1="254.2087" x2="-32.3317" y2="97.2887" gradientTransform="matrix(1 0 0 -1 5.022563e-03 271.9994)">
	<stop  offset="0" style="stop-color:#4CDF83"/>
	<stop  offset="1" style="stop-color:#2CB565"/>
</linearGradient>
<path class="st8" d="M72.7,106.3l46-46c2.8-2.8,7.4-2.8,10.2,0v0c2.8,2.8,2.8,7.4,0,10.2l-46,46c-2.8,2.8-7.4,2.8-10.2,0l0,0
	C69.9,113.7,69.9,109.1,72.7,106.3z"/>
<linearGradient id="SVGID_10_" gradientUnits="userSpaceOnUse" x1="197.1029" y1="273.9017" x2="-45.0972" y2="116.9817" gradientTransform="matrix(1 0 0 -1 3.094495e-03 271.9946)">
	<stop  offset="0" style="stop-color:#4CDF83"/>
	<stop  offset="1" style="stop-color:#2CB565"/>
</linearGradient>
<path class="st9" d="M88.1,60.3L88.1,60.3c2.8-2.8,7.4-2.8,10.2,0l0,0c2.8,2.8,2.8,7.4,0,10.2l0,0c-2.8,2.8-7.4,2.8-10.2,0v0
	C85.3,67.7,85.3,63.1,88.1,60.3z"/>
<linearGradient id="SVGID_11_" gradientUnits="userSpaceOnUse" x1="231.6647" y1="220.5589" x2="-10.5353" y2="63.6389" gradientTransform="matrix(1 0 0 -1 -9.857250e-04 271.9992)">
	<stop  offset="0" style="stop-color:#4CDF83"/>
	<stop  offset="1" style="stop-color:#2CB565"/>
</linearGradient>
<path class="st10" d="M47.2,162.5L47.2,162.5c2.8-2.8,7.4-2.8,10.2,0l0,0c2.8,2.8,2.8,7.4,0,10.2l0,0c-2.8,2.8-7.4,2.8-10.2,0l0,0
	C44.4,169.9,44.4,165.4,47.2,162.5z"/>
<linearGradient id="SVGID_12_" gradientUnits="userSpaceOnUse" x1="217.2589" y1="242.8078" x2="-24.9411" y2="85.8778" gradientTransform="matrix(1 0 0 -1 2.323021e-03 272.0059)">
	<stop  offset="0" style="stop-color:#4CDF83"/>
	<stop  offset="1" style="stop-color:#2CB565"/>
</linearGradient>
<path class="st11" d="M42.1,137l15.3-15.3c2.8-2.8,7.4-2.8,10.2,0l0,0c2.8,2.8,2.8,7.4,0,10.2l-15.3,15.3c-2.8,2.8-7.4,2.8-10.2,0
	l0,0C39.3,144.4,39.3,139.8,42.1,137z"/>
<linearGradient id="SVGID_13_" gradientUnits="userSpaceOnUse" x1="217.2923" y1="242.7426" x2="-24.9077" y2="85.8226" gradientTransform="matrix(1 0 0 -1 1.000112e-02 271.9969)">
	<stop  offset="0" style="stop-color:#4CDF83"/>
	<stop  offset="1" style="stop-color:#2CB565"/>
</linearGradient>
<path class="st12" d="M129,80.8l15.3-15.3c2.8-2.8,7.4-2.8,10.2,0v0c2.8,2.8,2.8,7.4,0,10.2L139.2,91c-2.8,2.8-7.4,2.8-10.2,0v0
	C126.1,88.2,126.1,83.6,129,80.8z"/>
<linearGradient id="SVGID_14_" gradientUnits="userSpaceOnUse" x1="225.094" y1="230.7" x2="-17.1061" y2="73.7801" gradientTransform="matrix(1 0 0 -1 7.026235e-03 272.0041)">
	<stop  offset="0" style="stop-color:#4CDF83"/>
	<stop  offset="1" style="stop-color:#2CB565"/>
</linearGradient>
<path class="st13" d="M62.5,147.2l51.1-51.1c2.8-2.8,7.4-2.8,10.2,0l0,0c2.8,2.8,2.8,7.4,0,10.2l-51.1,51.1c-2.8,2.8-7.4,2.8-10.2,0
	l0,0C59.7,154.6,59.7,150,62.5,147.2z"/>
<linearGradient id="SVGID_15_" gradientUnits="userSpaceOnUse" x1="268.7583" y1="163.3188" x2="26.5583" y2="6.3988" gradientTransform="matrix(1 0 0 -1 -1.113409e-03 272.0055)">
	<stop  offset="0" style="stop-color:#4CDF83"/>
	<stop  offset="1" style="stop-color:#2CB565"/>
</linearGradient>
<path class="st14" d="M190.3,162.5l-30.7,30.7c-2.8,2.8-7.4,2.8-10.2,0v0c-2.8-2.8-2.8-7.4,0-10.2l30.7-30.7c2.8-2.8,7.4-2.8,10.2,0
	h0C193.1,155.1,193.1,159.7,190.3,162.5z"/>
<linearGradient id="SVGID_16_" gradientUnits="userSpaceOnUse" x1="260.9185" y1="175.4184" x2="18.7186" y2="18.4884" gradientTransform="matrix(1 0 0 -1 5.185379e-03 271.9965)">
	<stop  offset="0" style="stop-color:#4CDF83"/>
	<stop  offset="1" style="stop-color:#2CB565"/>
</linearGradient>
<path class="st15" d="M159.6,162.5l-46,46c-2.8,2.8-7.4,2.8-10.2,0l0,0c-2.8-2.8-2.8-7.4,0-10.2l46-46c2.8-2.8,7.4-2.8,10.2,0l0,0
	C162.5,155.1,162.5,159.7,159.6,162.5z"/>
<linearGradient id="SVGID_17_" gradientUnits="userSpaceOnUse" x1="273.6809" y1="155.7148" x2="31.4809" y2="-1.2152" gradientTransform="matrix(1 0 0 -1 5.062819e-03 271.9926)">
	<stop  offset="0" style="stop-color:#4CDF83"/>
	<stop  offset="1" style="stop-color:#2CB565"/>
</linearGradient>
<path class="st16" d="M144.3,208.5L144.3,208.5c-2.8,2.8-7.4,2.8-10.2,0l0,0c-2.8-2.8-2.8-7.4,0-10.2l0,0c2.8-2.8,7.4-2.8,10.2,0h0
	C147.1,201.1,147.1,205.7,144.3,208.5z"/>
<linearGradient id="SVGID_18_" gradientUnits="userSpaceOnUse" x1="239.1218" y1="209.0533" x2="-3.0782" y2="52.1233" gradientTransform="matrix(1 0 0 -1 -1.938518e-03 272.0019)">
	<stop  offset="0" style="stop-color:#4CDF83"/>
	<stop  offset="1" style="stop-color:#2CB565"/>
</linearGradient>
<path class="st17" d="M185.2,106.3L185.2,106.3c-2.8,2.8-7.4,2.8-10.2,0l0,0c-2.8-2.8-2.8-7.4,0-10.2l0,0c2.8-2.8,7.4-2.8,10.2,0
	l0,0C188,98.9,188,103.5,185.2,106.3z"/>
<linearGradient id="SVGID_19_" gradientUnits="userSpaceOnUse" x1="253.5304" y1="186.8155" x2="11.3304" y2="29.8955" gradientTransform="matrix(1 0 0 -1 -6.251870e-03 272.0017)">
	<stop  offset="0" style="stop-color:#4CDF83"/>
	<stop  offset="1" style="stop-color:#2CB565"/>
</linearGradient>
<path class="st18" d="M190.3,131.9L175,147.2c-2.8,2.8-7.4,2.8-10.2,0l0,0c-2.8-2.8-2.8-7.4,0-10.2l15.3-15.3
	c2.8-2.8,7.4-2.8,10.2,0l0,0C193.1,124.5,193.1,129,190.3,131.9z"/>
<linearGradient id="SVGID_20_" gradientUnits="userSpaceOnUse" x1="253.5013" y1="186.8741" x2="11.2913" y2="29.9441" gradientTransform="matrix(1 0 0 -1 -2.957922e-03 272.0015)">
	<stop  offset="0" style="stop-color:#4CDF83"/>
	<stop  offset="1" style="stop-color:#2CB565"/>
</linearGradient>
<path class="st19" d="M103.4,188.1l-15.3,15.3c-2.8,2.8-7.4,2.8-10.2,0h0c-2.8-2.8-2.8-7.4,0-10.2l15.3-15.3c2.8-2.8,7.4-2.8,10.2,0
	l0,0C106.2,180.7,106.2,185.3,103.4,188.1z"/>
<linearGradient id="SVGID_21_" gradientUnits="userSpaceOnUse" x1="245.6917" y1="198.9136" x2="3.4917" y2="41.9835" gradientTransform="matrix(1 0 0 -1 6.596003e-03 271.9999)">
	<stop  offset="0" style="stop-color:#4CDF83"/>
	<stop  offset="1" style="stop-color:#2CB565"/>
</linearGradient>
<path class="st20" d="M108.5,162.5l51.1-51.1c2.8-2.8,7.4-2.8,10.2,0v0c2.8,2.8,2.8,7.4,0,10.2l-51.1,51.1c-2.8,2.8-7.4,2.8-10.2,0
	h0C105.7,169.9,105.7,165.4,108.5,162.5z"/>
<linearGradient id="SVGID_22_" gradientUnits="userSpaceOnUse" x1="241.9616" y1="204.6737" x2="-0.2384" y2="47.7436" gradientTransform="matrix(1 0 0 -1 3.797814e-03 271.9972)">
	<stop  offset="0" style="stop-color:#4CDF83"/>
	<stop  offset="1" style="stop-color:#2CB565"/>
</linearGradient>
<path class="st21" d="M57.4,183L83,157.4c2.8-2.8,7.4-2.8,10.2,0h0c2.8,2.8,2.8,7.4,0,10.2l-25.6,25.6c-2.8,2.8-7.4,2.8-10.2,0h0
	C54.6,190.4,54.6,185.8,57.4,183z"/>
<linearGradient id="SVGID_23_" gradientUnits="userSpaceOnUse" x1="232.1145" y1="219.8792" x2="-10.0854" y2="62.9491" gradientTransform="matrix(1 0 0 -1 2.280416e-03 272.0009)">
	<stop  offset="0" style="stop-color:#4CDF83"/>
	<stop  offset="1" style="stop-color:#2CB565"/>
</linearGradient>
<path class="st22" d="M98.3,142.1l66.4-66.4c2.8-2.8,7.4-2.8,10.2,0v0c2.8,2.8,2.8,7.4,0,10.2l-66.4,66.4c-2.8,2.8-7.4,2.8-10.2,0h0
	C95.5,149.5,95.5,144.9,98.3,142.1z"/>
<linearGradient id="SVGID_24_" gradientUnits="userSpaceOnUse" x1="195.1812" y1="311.4944" x2="-107.5688" y2="115.3344" gradientTransform="matrix(1 0 0 -1 0 272)">
	<stop  offset="0" style="stop-color:#4CDF83"/>
	<stop  offset="1" style="stop-color:#2CB565"/>
</linearGradient>
<circle class="st23" cx="116.2" cy="11.7" r="11.8"/>
<linearGradient id="SVGID_25_" gradientUnits="userSpaceOnUse" x1="335.7118" y1="156.1933" x2="32.9518" y2="-39.9667" gradientTransform="matrix(1 0 0 -1 0 272)">
	<stop  offset="0" style="stop-color:#4CDF83"/>
	<stop  offset="1" style="stop-color:#2CB565"/>
</linearGradient>
<circle class="st24" cx="116.2" cy="258" r="11.8"/>
<linearGradient id="SVGID_26_" gradientUnits="userSpaceOnUse" x1="315.7425" y1="132.5824" x2="12.9925" y2="-63.5777" gradientTransform="matrix(1 0 0 -1 0 272)">
	<stop  offset="0" style="stop-color:#4CDF83"/>
	<stop  offset="1" style="stop-color:#2CB565"/>
</linearGradient>
<circle class="st25" cx="220.4" cy="201.2" r="11.8"/>
<linearGradient id="SVGID_27_" gradientUnits="userSpaceOnUse" x1="240.0718" y1="216.2033" x2="-62.6782" y2="20.0433" gradientTransform="matrix(1 0 0 -1 0 272)">
	<stop  offset="0" style="stop-color:#4CDF83"/>
	<stop  offset="1" style="stop-color:#2CB565"/>
</linearGradient>
<circle class="st26" cx="220.4" cy="68.5" r="11.8"/>
<linearGradient id="SVGID_28_" gradientUnits="userSpaceOnUse" x1="215.1474" y1="335.1102" x2="-87.6126" y2="138.9502" gradientTransform="matrix(1 0 0 -1 0 272)">
	<stop  offset="0" style="stop-color:#4CDF83"/>
	<stop  offset="1" style="stop-color:#2CB565"/>
</linearGradient>
<circle class="st27" cx="12" cy="68.5" r="11.8"/>
<linearGradient id="SVGID_29_" gradientUnits="userSpaceOnUse" x1="290.809" y1="251.4877" x2="-11.941" y2="55.3277" gradientTransform="matrix(1 0 0 -1 0 272)">
	<stop  offset="0" style="stop-color:#4CDF83"/>
	<stop  offset="1" style="stop-color:#2CB565"/>
</linearGradient>
<circle class="st28" cx="12" cy="201.2" r="11.8"/>
</svg>
