<?xml version="1.0" encoding="UTF-8"?>
<svg width="990px" height="281px" viewBox="0 0 990 281" version="1.1" xmlns="http://www.w3.org/2000/svg" xmlns:xlink="http://www.w3.org/1999/xlink">
    <title>onesite-intune-edition-logo</title>
    <defs>
        <filter id="filter-1">
            <feColorMatrix in="SourceGraphic" type="matrix" values="0 0 0 0 1.000000 0 0 0 0 1.000000 0 0 0 0 1.000000 0 0 0 1.000000 0"></feColorMatrix>
        </filter>
        <linearGradient x1="110.040161%" y1="27.9761828%" x2="27.8893351%" y2="109.804331%" id="linearGradient-2">
            <stop stop-color="#4FC9F5" offset="0%"></stop>
            <stop stop-color="#2262AE" offset="100%"></stop>
        </linearGradient>
        <linearGradient x1="79.8743301%" y1="9.62223821%" x2="20.0517464%" y2="55.7417918%" id="linearGradient-3">
            <stop stop-color="#4FC9F5" offset="0%"></stop>
            <stop stop-color="#2262AE" offset="100%"></stop>
        </linearGradient>
        <linearGradient x1="49.8507463%" y1="0%" x2="49.8507463%" y2="100%" id="linearGradient-4">
            <stop stop-color="#4FC9F5" offset="0%"></stop>
            <stop stop-color="#2262AE" offset="100%"></stop>
        </linearGradient>
        <linearGradient x1="100%" y1="49.8507463%" x2="-7.8504335e-15%" y2="49.8507463%" id="linearGradient-5">
            <stop stop-color="#4FC9F5" offset="0%"></stop>
            <stop stop-color="#2262AE" offset="100%"></stop>
        </linearGradient>
        <linearGradient x1="49.7126437%" y1="-0.00552608311%" x2="49.7126437%" y2="99.9944739%" id="linearGradient-6">
            <stop stop-color="#4FC9F5" offset="0%"></stop>
            <stop stop-color="#2262AE" offset="100%"></stop>
        </linearGradient>
        <linearGradient x1="99.9944739%" y1="50%" x2="-0.00552608311%" y2="50%" id="linearGradient-7">
            <stop stop-color="#4FC9F5" offset="0%"></stop>
            <stop stop-color="#2262AE" offset="100%"></stop>
        </linearGradient>
        <linearGradient x1="0%" y1="50.0090204%" x2="100%" y2="50.0090204%" id="linearGradient-8">
            <stop stop-color="#2262AE" offset="0%"></stop>
            <stop stop-color="#4FC9F5" offset="100%"></stop>
        </linearGradient>
        <linearGradient x1="100%" y1="0.174166983%" x2="37.9294958%" y2="62.0146611%" id="linearGradient-9">
            <stop stop-color="#4FC9F5" offset="0%"></stop>
            <stop stop-color="#2262AE" offset="100%"></stop>
        </linearGradient>
        <linearGradient x1="77.3511732%" y1="45.2005675%" x2="18.5766919%" y2="89.3640861%" id="linearGradient-10">
            <stop stop-color="#4FC9F5" offset="0%"></stop>
            <stop stop-color="#2262AE" offset="100%"></stop>
        </linearGradient>
        <linearGradient x1="72.1106649%" y1="-9.82878856%" x2="-10.0401606%" y2="72.0176166%" id="linearGradient-11">
            <stop stop-color="#4FC9F5" offset="0%"></stop>
            <stop stop-color="#2262AE" offset="100%"></stop>
        </linearGradient>
        <linearGradient x1="95.0347442%" y1="18.0884511%" x2="42.7075152%" y2="81.9325089%" id="linearGradient-12">
            <stop stop-color="#4FC9F5" offset="0%"></stop>
            <stop stop-color="#2262AE" offset="100%"></stop>
        </linearGradient>
        <linearGradient x1="62.0705042%" y1="37.9769071%" x2="6.34130063e-14%" y2="99.8036067%" id="linearGradient-13">
            <stop stop-color="#4FC9F5" offset="0%"></stop>
            <stop stop-color="#2262AE" offset="100%"></stop>
        </linearGradient>
        <linearGradient x1="198.737989%" y1="-98.1680512%" x2="-103.743009%" y2="203.124842%" id="linearGradient-14">
            <stop stop-color="#4FC9F5" offset="0%"></stop>
            <stop stop-color="#2262AE" offset="100%"></stop>
        </linearGradient>
        <linearGradient x1="660.97852%" y1="-558.578679%" x2="-581.50358%" y2="679.023119%" id="linearGradient-15">
            <stop stop-color="#4FC9F5" offset="0%"></stop>
            <stop stop-color="#2262AE" offset="100%"></stop>
        </linearGradient>
        <linearGradient x1="285.97852%" y1="-184.992197%" x2="-956.50358%" y2="1052.6096%" id="linearGradient-16">
            <stop stop-color="#4FC9F5" offset="0%"></stop>
            <stop stop-color="#2262AE" offset="100%"></stop>
        </linearGradient>
        <linearGradient x1="1035.97852%" y1="-932.105729%" x2="-206.50358%" y2="305.496068%" id="linearGradient-17">
            <stop stop-color="#4FC9F5" offset="0%"></stop>
            <stop stop-color="#2262AE" offset="100%"></stop>
        </linearGradient>
        <linearGradient x1="660.97852%" y1="-558.519247%" x2="-581.50358%" y2="679.08255%" id="linearGradient-18">
            <stop stop-color="#4FC9F5" offset="0%"></stop>
            <stop stop-color="#2262AE" offset="100%"></stop>
        </linearGradient>
        <linearGradient x1="398.448687%" y1="-297.080028%" x2="-844.033413%" y2="940.52177%" id="linearGradient-19">
            <stop stop-color="#4FC9F5" offset="0%"></stop>
            <stop stop-color="#2262AE" offset="100%"></stop>
        </linearGradient>
        <linearGradient x1="923.508353%" y1="-820.017898%" x2="-318.973747%" y2="417.583899%" id="linearGradient-20">
            <stop stop-color="#4FC9F5" offset="0%"></stop>
            <stop stop-color="#2262AE" offset="100%"></stop>
        </linearGradient>
        <linearGradient x1="-823.448687%" y1="-820.07733%" x2="419.033413%" y2="417.524468%" id="linearGradient-21">
            <stop stop-color="#4FC9F5" offset="0%"></stop>
            <stop stop-color="#2262AE" offset="100%"></stop>
        </linearGradient>
        <linearGradient x1="-298.448687%" y1="-297.020596%" x2="944.033413%" y2="940.581201%" id="linearGradient-22">
            <stop stop-color="#4FC9F5" offset="0%"></stop>
            <stop stop-color="#2262AE" offset="100%"></stop>
        </linearGradient>
        <linearGradient x1="-117.78043%" y1="-117.121411%" x2="1124.70167%" y2="1120.48039%" id="linearGradient-23">
            <stop stop-color="#4FC9F5" offset="0%"></stop>
            <stop stop-color="#2262AE" offset="100%"></stop>
        </linearGradient>
        <linearGradient x1="-38.6634845%" y1="-38.2557947%" x2="1203.81862%" y2="1199.346%" id="linearGradient-24">
            <stop stop-color="#4FC9F5" offset="0%"></stop>
            <stop stop-color="#2262AE" offset="100%"></stop>
        </linearGradient>
        <linearGradient x1="-129.713604%" y1="-129.007713%" x2="1112.7685%" y2="1108.59408%" id="linearGradient-25">
            <stop stop-color="#4FC9F5" offset="0%"></stop>
            <stop stop-color="#2262AE" offset="100%"></stop>
        </linearGradient>
        <linearGradient x1="-261.873508%" y1="-260.648511%" x2="980.608592%" y2="976.953286%" id="linearGradient-26">
            <stop stop-color="#4FC9F5" offset="0%"></stop>
            <stop stop-color="#2262AE" offset="100%"></stop>
        </linearGradient>
        <linearGradient x1="-458.293556%" y1="-456.297047%" x2="784.188544%" y2="781.30475%" id="linearGradient-27">
            <stop stop-color="#4FC9F5" offset="0%"></stop>
            <stop stop-color="#2262AE" offset="100%"></stop>
        </linearGradient>
        <linearGradient x1="-663.663484%" y1="-660.86031%" x2="578.818616%" y2="576.741487%" id="linearGradient-28">
            <stop stop-color="#4FC9F5" offset="0%"></stop>
            <stop stop-color="#2262AE" offset="100%"></stop>
        </linearGradient>
        <linearGradient x1="-848.508353%" y1="-844.979133%" x2="393.973747%" y2="392.622664%" id="linearGradient-29">
            <stop stop-color="#4FC9F5" offset="0%"></stop>
            <stop stop-color="#2262AE" offset="100%"></stop>
        </linearGradient>
        <linearGradient x1="-992.303103%" y1="-988.149644%" x2="250.178998%" y2="249.452153%" id="linearGradient-30">
            <stop stop-color="#4FC9F5" offset="0%"></stop>
            <stop stop-color="#2262AE" offset="100%"></stop>
        </linearGradient>
        <linearGradient x1="-1083.29356%" y1="-1078.84213%" x2="159.188544%" y2="158.759666%" id="linearGradient-31">
            <stop stop-color="#4FC9F5" offset="0%"></stop>
            <stop stop-color="#2262AE" offset="100%"></stop>
        </linearGradient>
        <linearGradient x1="-1083.35322%" y1="-1078.90156%" x2="159.128878%" y2="158.700235%" id="linearGradient-32">
            <stop stop-color="#4FC9F5" offset="0%"></stop>
            <stop stop-color="#2262AE" offset="100%"></stop>
        </linearGradient>
        <linearGradient x1="-1003.87828%" y1="-999.738789%" x2="238.603819%" y2="237.863008%" id="linearGradient-33">
            <stop stop-color="#4FC9F5" offset="0%"></stop>
            <stop stop-color="#2262AE" offset="100%"></stop>
        </linearGradient>
        <linearGradient x1="-663.603819%" y1="-660.86031%" x2="578.878282%" y2="576.741487%" id="linearGradient-34">
            <stop stop-color="#4FC9F5" offset="0%"></stop>
            <stop stop-color="#2262AE" offset="100%"></stop>
        </linearGradient>
        <linearGradient x1="-458.23389%" y1="-456.237616%" x2="784.188544%" y2="781.364182%" id="linearGradient-35">
            <stop stop-color="#4FC9F5" offset="0%"></stop>
            <stop stop-color="#2262AE" offset="100%"></stop>
        </linearGradient>
        <linearGradient x1="-264.498807%" y1="-263.322929%" x2="977.983294%" y2="974.278868%" id="linearGradient-36">
            <stop stop-color="#4FC9F5" offset="0%"></stop>
            <stop stop-color="#2262AE" offset="100%"></stop>
        </linearGradient>
    </defs>
    <g id="Page-1" stroke="none" stroke-width="1" fill="none" fill-rule="evenodd">
        <g filter="url(#filter-1)" id="onesite-intune-edition-logo">
            <g transform="translate(0.783080, 0.000000)">
                <g id="Group" transform="translate(0.216920, 0.000000)">
                    <g id="Layer_1-2">
                        <polygon id="Path" fill="url(#linearGradient-2)" fill-rule="nonzero" points="73.6039516 76.8592225 27.8326247 68.7054792 28.4555723 65.2095618 69.212682 72.4765855 61.9313442 31.7995988 65.4341476 31.1778758"></polygon>
                        <polygon id="Path" fill="url(#linearGradient-3)" fill-rule="nonzero" points="136.307197 51.8781916 107.957977 11.2215892 110.878682 9.19334554 136.286773 45.640578 160.285572 10.7425568 163.216489 12.750416"></polygon>
                        <rect id="Rectangle" fill="url(#linearGradient-4)" x="134.407718" y="47.0267143" width="3.42110543" height="184.498826"></rect>
                        <rect id="Rectangle" fill="url(#linearGradient-5)" x="44.0292611" y="137.910375" width="184.86224" height="3.41437999"></rect>
                        <g id="Group" transform="translate(136.367992, 139.296631) rotate(-45.000000) translate(-136.367992, -139.296631) translate(133.867992, 46.796631)" fill="url(#linearGradient-6)">
                            <rect id="Rectangle" x="0.582098715" y="0.336342014" width="3.55386584" height="184.43773"></rect>
                        </g>
                        <g id="Group" transform="translate(136.242733, 139.719351) rotate(-45.000000) translate(-136.242733, -139.719351) translate(43.242733, 137.719351)" fill="url(#linearGradient-7)">
                            <rect id="Rectangle" x="0.847617428" y="0.0713452757" width="184.801024" height="3.54687942"></rect>
                        </g>
                        <polygon id="Path" fill="url(#linearGradient-8)" fill-rule="nonzero" points="10.982404 167.68173 8.8378304 164.858497 42.4974229 139.439202 8.8378304 114.019907 10.982404 111.186482 48.389894 139.439202"></polygon>
                        <polygon id="Path" fill="url(#linearGradient-9)" fill-rule="nonzero" points="65.4341476 247.700528 61.9313442 247.068613 69.212682 206.401819 28.4555723 213.65865 27.8326247 210.172925 73.6039516 202.008989"></polygon>
                        <polygon id="Path" fill="url(#linearGradient-10)" fill-rule="nonzero" points="161.776561 266.657981 136.419532 233.20725 114.932948 266.545867 111.940757 264.619546 136.18465 227.020597 164.605356 264.507432"></polygon>
                        <polygon id="Path" fill="url(#linearGradient-11)" fill-rule="nonzero" points="207.180247 247.700528 199.000231 202.008989 244.771558 210.172925 244.14861 213.65865 203.3915 206.401819 210.672838 247.068613"></polygon>
                        <polygon id="Path" fill="url(#linearGradient-12)" fill-rule="nonzero" points="261.734113 163.747549 223.877284 139.439202 261.734113 115.120663 263.654017 118.106971 230.443764 139.439202 263.654017 160.771433"></polygon>
                        <polygon id="Path" fill="url(#linearGradient-13)" fill-rule="nonzero" points="199.000231 76.8592225 207.180247 31.1778758 210.672838 31.7995988 203.3915 72.4765855 244.14861 65.2095618 244.771558 68.7054792"></polygon>
                        <g id="Group" transform="translate(99.951835, 103.960227)" fill="url(#linearGradient-14)">
                            <path d="M71.3326012,35.7745486 C71.3326012,16.164796 55.3810589,0.244612298 35.7326803,0.244612298 L35.722468,0.244612298 C16.0740894,0.244612298 0.12254706,16.164796 0.12254706,35.7745486 L0.12254706,35.7847408 C0.12254706,55.3944933 16.0740894,71.3146771 35.722468,71.3146771 L35.7326803,71.3146771 C55.3810589,71.3146771 71.3326012,55.3944933 71.3326012,35.7847408 L71.3326012,35.7745486 Z" id="Path"></path>
                        </g>
                        <path d="M79.2411164,73.7913766 C79.2411164,69.0774938 75.4064146,65.2503305 70.6832467,65.2503305 C65.9600788,65.2503305 62.125377,69.0774938 62.125377,73.7913766 C62.125377,78.5052594 65.9600788,82.3324227 70.6832467,82.3324227 C75.4064146,82.3324227 79.2411164,78.5052594 79.2411164,73.7913766 Z" id="Path" fill="url(#linearGradient-15)"></path>
                        <path d="M209.324821,73.7913766 C209.324821,69.0774938 205.490119,65.2503305 200.766951,65.2503305 C196.043783,65.2503305 192.209081,69.0774938 192.209081,73.7913766 C192.209081,78.5052594 196.043783,82.3324227 200.766951,82.3324227 C205.490119,82.3324227 209.324821,78.5052594 209.324821,73.7913766 Z" id="Path" fill="url(#linearGradient-16)"></path>
                        <path d="M79.2411164,203.619354 C79.2411164,198.905471 75.4064146,195.078308 70.6832467,195.078308 C65.9600788,195.078308 62.125377,198.905471 62.125377,203.619354 C62.125377,208.333237 65.9600788,212.1604 70.6832467,212.1604 C75.4064146,212.1604 79.2411164,208.333237 79.2411164,203.619354 Z" id="Path" fill="url(#linearGradient-17)"></path>
                        <path d="M209.324821,203.619354 C209.324821,198.905471 205.490119,195.078308 200.766951,195.078308 C196.043783,195.078308 192.209081,198.905471 192.209081,203.619354 C192.209081,208.333237 196.043783,212.1604 200.766951,212.1604 C205.490119,212.1604 209.324821,208.333237 209.324821,203.619354 Z" id="Path" fill="url(#linearGradient-18)"></path>
                        <path d="M235.345646,138.705365 C235.345646,133.991482 231.510945,130.164319 226.787777,130.164319 C222.064609,130.164319 218.229907,133.991482 218.229907,138.705365 C218.229907,143.419248 222.064609,147.246411 226.787777,147.246411 C231.510945,147.246411 235.345646,143.419248 235.345646,138.705365 Z" id="Path" fill="url(#linearGradient-19)"></path>
                        <path d="M53.9045117,138.705365 C53.9045117,133.991482 50.06981,130.164319 45.346642,130.164319 C40.6234741,130.164319 36.7887723,133.991482 36.7887723,138.705365 C36.7887723,143.419248 40.6234741,147.246411 45.346642,147.246411 C50.06981,147.246411 53.9045117,143.419248 53.9045117,138.705365 Z" id="Path" fill="url(#linearGradient-20)"></path>
                        <g id="Group" transform="translate(136.163083, 229.662509) rotate(90.000000) translate(-136.163083, -229.662509) translate(127.163083, 220.662509)" fill="url(#linearGradient-21)">
                            <path d="M17.4833806,9.43795783 C17.4833806,4.72407501 13.6486788,0.89691176 8.92551087,0.89691176 C4.20234293,0.89691176 0.36764118,4.72407501 0.36764118,9.43795783 C0.36764118,14.1518407 4.20234293,17.9790039 8.92551087,17.9790039 C13.6486788,17.9790039 17.4833806,14.1518407 17.4833806,9.43795783 Z" id="Path"></path>
                        </g>
                        <g id="Group" transform="translate(135.489074, 48.578064) rotate(90.000000) translate(-135.489074, -48.578064) translate(126.489074, 39.578064)" fill="url(#linearGradient-22)">
                            <path d="M17.4833806,8.75508184 C17.4833806,4.04119901 13.6486788,0.214035761 8.92551087,0.214035761 C4.20234293,0.214035761 0.36764118,4.04119901 0.36764118,8.75508184 C0.36764118,13.4689647 4.20234293,17.2961279 8.92551087,17.2961279 C13.6486788,17.2961279 17.4833806,13.4689647 17.4833806,8.75508184 Z" id="Path"></path>
                        </g>
                        <g id="Group" transform="translate(160.948226, 11.193151) rotate(90.000000) translate(-160.948226, -11.193151) translate(151.948226, 2.193151)" fill="url(#linearGradient-23)">
                            <path d="M17.2893477,8.88758016 C17.2893477,4.17369734 13.454646,0.346534089 8.73147803,0.346534089 C4.00831009,0.346534089 0.173608335,4.17369734 0.173608335,8.88758016 C0.173608335,13.601463 4.00831009,17.4286262 8.73147803,17.4286262 C13.454646,17.4286262 17.2893477,13.601463 17.2893477,8.88758016 Z" id="Path"></path>
                        </g>
                        <g id="Group" transform="translate(208.639456, 30.751942) rotate(90.000000) translate(-208.639456, -30.751942) translate(199.639456, 21.751942)" fill="url(#linearGradient-24)">
                            <path d="M17.5548664,9.33603604 C17.5548664,4.62215322 13.7201646,0.794989969 8.99699666,0.794989969 C4.27382872,0.794989969 0.439126965,4.62215322 0.439126965,9.33603604 C0.439126965,14.0499189 4.27382872,17.8770821 8.99699666,17.8770821 C13.7201646,17.8770821 17.5548664,14.0499189 17.5548664,9.33603604 Z" id="Path"></path>
                        </g>
                        <g id="Group" transform="translate(244.106618, 66.424569) rotate(90.000000) translate(-244.106618, -66.424569) translate(235.106618, 57.424569)" fill="url(#linearGradient-24)">
                            <path d="M17.4118948,9.20353772 C17.4118948,4.48965489 13.577193,0.662491641 8.85402509,0.662491641 C4.13085715,0.662491641 0.296155395,4.48965489 0.296155395,9.20353772 C0.296155395,13.9174205 4.13085715,17.7445838 8.85402509,17.7445838 C13.577193,17.7445838 17.4118948,13.9174205 17.4118948,9.20353772 Z" id="Path"></path>
                        </g>
                        <g id="Group" transform="translate(262.529526, 116.203172) rotate(90.000000) translate(-262.529526, -116.203172) translate(253.529526, 107.203172)" fill="url(#linearGradient-25)">
                            <path d="M17.5140173,9.14238464 C17.5140173,4.42850181 13.6793156,0.601338566 8.95614764,0.601338566 C4.2329797,0.601338566 0.398277945,4.42850181 0.398277945,9.14238464 C0.398277945,13.8562675 4.2329797,17.6834307 8.95614764,17.6834307 C13.6793156,17.6834307 17.5140173,13.8562675 17.5140173,9.14238464 Z" id="Path"></path>
                        </g>
                        <g id="Group" transform="translate(262.447828, 161.986440) rotate(90.000000) translate(-262.447828, -161.986440) translate(253.447828, 152.986440)" fill="url(#linearGradient-26)">
                            <path d="M17.5140173,9.06084721 C17.5140173,4.34696438 13.6793156,0.519801133 8.95614764,0.519801133 C4.2329797,0.519801133 0.398277945,4.34696438 0.398277945,9.06084721 C0.398277945,13.77473 4.2329797,17.6018933 8.95614764,17.6018933 C13.6793156,17.6018933 17.5140173,13.77473 17.5140173,9.06084721 Z" id="Path"></path>
                        </g>
                        <g id="Group" transform="translate(244.239377, 211.286011) rotate(90.000000) translate(-244.239377, -211.286011) translate(235.239377, 202.286011)" fill="url(#linearGradient-27)">
                            <path d="M17.4118948,9.33603604 C17.4118948,4.62215322 13.577193,0.794989969 8.85402509,0.794989969 C4.13085715,0.794989969 0.296155395,4.62215322 0.296155395,9.33603604 C0.296155395,14.0499189 4.13085715,17.8770821 8.85402509,17.8770821 C13.577193,17.8770821 17.4118948,14.0499189 17.4118948,9.33603604 Z" id="Path"></path>
                        </g>
                        <g id="Group" transform="translate(208.496485, 246.673256) rotate(90.000000) translate(-208.496485, -246.673256) translate(199.496485, 237.673256)" fill="url(#linearGradient-28)">
                            <path d="M17.5548664,9.19334554 C17.5548664,4.47946271 13.7201646,0.652299462 8.99699666,0.652299462 C4.27382872,0.652299462 0.439126965,4.47946271 0.439126965,9.19334554 C0.439126965,13.9072284 4.27382872,17.7343916 8.99699666,17.7343916 C13.7201646,17.7343916 17.5548664,13.9072284 17.5548664,9.19334554 Z" id="Path"></path>
                        </g>
                        <g id="Group" transform="translate(163.409379, 265.386097) rotate(90.000000) translate(-163.409379, -265.386097) translate(154.409379, 256.386097)" fill="url(#linearGradient-29)">
                            <path d="M17.29956,9.29526733 C17.29956,4.5813845 13.4648582,0.754221252 8.74169028,0.754221252 C4.01852234,0.754221252 0.18382059,4.5813845 0.18382059,9.29526733 C0.18382059,14.0091502 4.01852234,17.8363134 8.74169028,17.8363134 C13.4648582,17.8363134 17.29956,14.0091502 17.29956,9.29526733 Z" id="Path"></path>
                        </g>
                        <g id="Group" transform="translate(113.430603, 265.324944) rotate(90.000000) translate(-113.430603, -265.324944) translate(104.430603, 256.324944)" fill="url(#linearGradient-30)">
                            <path d="M17.3608335,9.29526733 C17.3608335,4.5813845 13.5261318,0.754221252 8.80296381,0.754221252 C4.07979587,0.754221252 0.24509412,4.5813845 0.24509412,9.29526733 C0.24509412,14.0091502 4.07979587,17.8363134 8.80296381,17.8363134 C13.5261318,17.8363134 17.3608335,14.0091502 17.3608335,9.29526733 Z" id="Path"></path>
                        </g>
                        <g id="Group" transform="translate(63.349704, 246.815947) rotate(90.000000) translate(-63.349704, -246.815947) translate(54.349704, 237.815947)" fill="url(#linearGradient-31)">
                            <path d="M17.4118948,9.19334554 C17.4118948,4.47946271 13.577193,0.652299462 8.85402509,0.652299462 C4.13085715,0.652299462 0.296155395,4.47946271 0.296155395,9.19334554 C0.296155395,13.9072284 4.13085715,17.7343916 8.85402509,17.7343916 C13.577193,17.7343916 17.4118948,13.9072284 17.4118948,9.19334554 Z" id="Path"></path>
                        </g>
                        <g id="Group" transform="translate(27.882543, 211.143320) rotate(90.000000) translate(-27.882543, -211.143320) translate(18.882543, 202.143320)" fill="url(#linearGradient-32)">
                            <path d="M17.5548664,9.33603604 C17.5548664,4.62215322 13.7201646,0.794989969 8.99699666,0.794989969 C4.27382872,0.794989969 0.439126965,4.62215322 0.439126965,9.33603604 C0.439126965,14.0499189 4.27382872,17.8770821 8.99699666,17.8770821 C13.7201646,17.8770821 17.5548664,14.0499189 17.5548664,9.33603604 Z" id="Path"></path>
                        </g>
                        <g id="Group" transform="translate(10.164280, 165.798315) rotate(90.000000) translate(-10.164280, -165.798315) translate(1.164280, 156.798315)" fill="url(#linearGradient-33)">
                            <path d="M17.1157394,9.41757348 C17.1157394,4.70369065 13.2810376,0.876527401 8.55786969,0.876527401 C3.83470175,0.876527401 0,4.70369065 0,9.41757348 C0,14.1314563 3.83470175,17.9586196 8.55786969,17.9586196 C13.2810376,17.9586196 17.1157394,14.1314563 17.1157394,9.41757348 Z" id="Path"></path>
                        </g>
                        <g id="Group" transform="translate(9.868125, 112.503411) rotate(90.000000) translate(-9.868125, -112.503411) translate(0.868125, 103.503411)" fill="url(#linearGradient-29)">
                            <path d="M17.1157394,9.12200028 C17.1157394,4.40811746 13.2810376,0.580954208 8.55786969,0.580954208 C3.83470175,0.580954208 0,4.40811746 0,9.12200028 C0,13.8358831 3.83470175,17.6630464 8.55786969,17.6630464 C13.2810376,17.6630464 17.1157394,13.8358831 17.1157394,9.12200028 Z" id="Path"></path>
                        </g>
                        <g id="Group" transform="translate(27.749783, 66.271687) rotate(90.000000) translate(-27.749783, -66.271687) translate(18.749783, 57.271687)" fill="url(#linearGradient-34)">
                            <path d="M17.5548664,9.20353772 C17.5548664,4.48965489 13.7201646,0.662491641 8.99699666,0.662491641 C4.27382872,0.662491641 0.439126965,4.48965489 0.439126965,9.20353772 C0.439126965,13.9174205 4.27382872,17.7445838 8.99699666,17.7445838 C13.7201646,17.7445838 17.5548664,13.9174205 17.5548664,9.20353772 Z" id="Path"></path>
                        </g>
                        <g id="Group" transform="translate(63.492676, 30.884441) rotate(90.000000) translate(-63.492676, -30.884441) translate(54.492676, 21.884441)" fill="url(#linearGradient-35)">
                            <path d="M17.4118948,9.33603604 C17.4118948,4.62215322 13.577193,0.794989969 8.85402509,0.794989969 C4.13085715,0.794989969 0.296155395,4.62215322 0.296155395,9.33603604 C0.296155395,14.0499189 4.13085715,17.8770821 8.85402509,17.8770821 C13.577193,17.8770821 17.4118948,14.0499189 17.4118948,9.33603604 Z" id="Path"></path>
                        </g>
                        <g id="Group" transform="translate(108.559357, 9.786630) rotate(90.000000) translate(-108.559357, -9.786630) translate(99.559357, 0.786630)" fill="url(#linearGradient-36)">
                            <path d="M17.3301967,8.54104607 C17.3301967,3.82716325 13.495495,0 8.77232705,0 C4.04915911,0 0.214457355,3.82716325 0.214457355,8.54104607 C0.214457355,13.2549289 4.04915911,17.0820921 8.77232705,17.0820921 C13.495495,17.0820921 17.3301967,13.2549289 17.3301967,8.54104607 Z" id="Path"></path>
                        </g>
                        <path d="M393.635599,19.5384073 C430.644811,19.5384073 460.219502,48.6778473 460.219502,86.1748742 C460.219502,124.405738 430.603962,154.462474 393.635599,154.462474 C356.667236,154.462474 327.051696,124.385354 327.051696,86.1748742 C327.051696,48.6778473 356.626387,19.5384073 393.635599,19.5384073 Z M393.635599,142.598778 C423.016257,142.598778 446.821023,118.137548 446.821023,86.1748742 C446.821023,54.9969984 423.016257,31.4224881 393.635599,31.4224881 C364.020059,31.4224881 340.450175,54.9969984 340.450175,86.1748742 C340.450175,118.096779 364.060908,142.598778 393.635599,142.598778 Z" id="Shape" fill="#000000"></path>
                        <path d="M485.474408,59.1146387 L498.137604,59.1146387 L498.137604,72.73139 C498.136583,75.2162432 498.010972,77.699058 497.759751,80.1716807 L498.137604,80.1716807 C501.477012,71.6204424 513.374289,56.5564018 535.494033,56.5564018 C558.543093,56.5564018 566.723109,69.7552737 566.723109,92.8201749 L566.723109,152.322116 L554.059913,152.322116 L554.059913,96.2651315 C554.059913,81.5985858 551.823429,68.6035574 533.737525,68.6035574 C517.772707,68.7380942 503.756387,79.5683037 499.628594,94.9605326 C498.547116,99.0802113 498.045694,103.33035 498.137604,107.588642 L498.137604,152.322116 L485.474408,152.322116 L485.474408,59.1146387 Z" id="Path" fill="#000000"></path>
                        <path d="M635.369887,56.4137112 C661.227317,56.4137112 674.431763,76.2782683 674.431763,99.4756679 C674.431763,101.707755 674.053909,105.978278 674.053909,105.978278 L602.302605,105.978278 C602.854067,129.919707 619.224312,142.914735 638.566323,142.914735 C655.67185,142.914735 667.017665,131.591224 667.017665,131.591224 L672.787589,141.243218 C663.164582,149.52844 650.8966,154.135305 638.18847,154.238246 C610.298801,154.238246 589.28198,134.19023 589.28198,105.417708 C589.28198,74.7902101 610.104768,56.4137112 635.369887,56.4137112 Z M661.594958,95.9695583 C660.849463,76.4821119 648.952186,67.4314568 635.043095,67.4314568 C619.418345,67.4314568 605.846258,77.2669097 602.864279,95.9695583 L661.594958,95.9695583 Z" id="Shape" fill="#000000"></path>
                        <path d="M700.309617,127.932232 C700.309617,127.932232 713.881704,142.201283 734.530883,142.201283 C748.82804,142.201283 760.561921,133.660237 760.561921,119.554261 C760.561921,86.7048675 695.285187,95.0930309 695.285187,54.5893112 C695.285187,35.8458938 711.839253,19.5078308 736.01166,19.5078308 C758.703291,19.5078308 770.978421,32.1359407 770.978421,32.1359407 L764.657036,42.9294583 C764.657036,42.9294583 753.1274,31.7894066 736.01166,31.7894066 C719.273774,31.7894066 708.489633,42.7459991 708.489633,54.2122006 C708.489633,85.2066172 773.766367,76.2986526 773.766367,119.17715 C773.766367,138.664596 758.703291,154.44209 734.15303,154.44209 C707.376497,154.44209 692.681062,137.737108 692.681062,137.737108 L700.309617,127.932232 Z" id="Path" fill="#000000"></path>
                        <path d="M798.367689,21.7195336 L811.55171,21.7195336 L811.55171,37.5174112 L798.367689,37.5174112 L798.367689,21.7195336 Z M798.888514,59.1146387 L811.55171,59.1146387 L811.55171,152.332309 L798.888514,152.332309 L798.888514,59.1146387 Z" id="Shape" fill="#000000"></path>
                        <path d="M845.323638,70.6929541 L833.191479,70.6929541 L833.191479,60.1338566 L845.323638,60.1338566 L845.323638,33.3080413 L857.997046,33.3080413 L857.997046,60.1338566 L881.219714,60.1338566 L881.219714,70.6929541 L857.997046,70.6929541 L857.997046,117.097946 C857.997046,139.000938 871.967411,141.783403 879.044504,141.783403 C880.480347,141.80073 881.913126,141.674347 883.323439,141.406293 L883.323439,152.729804 C881.536294,153.003973 879.729746,153.130356 877.921156,153.106914 C867.126802,153.106914 845.33385,149.58042 845.33385,118.392352 L845.323638,70.6929541 Z" id="Path" fill="#000000"></path>
                        <path d="M943.779988,56.4137112 C969.627206,56.4137112 982.831651,76.2782683 982.831651,99.4756679 C982.831651,101.707755 982.46401,105.978278 982.46401,105.978278 L910.671858,105.978278 C911.233532,129.919707 927.603776,142.914735 946.945787,142.914735 C964.051314,142.914735 975.39713,131.591224 975.39713,131.591224 L981.156842,141.243218 C971.537919,149.529459 959.274022,154.136324 946.567934,154.238246 C918.668053,154.238246 897.661411,134.19023 897.661411,105.417708 C897.630808,74.7902101 918.453596,56.4137112 943.779988,56.4137112 Z M970.005059,95.9695583 C969.259565,76.4821119 957.352075,67.4314568 943.453196,67.4314568 C927.828446,67.4314568 914.246147,77.2669097 911.274381,95.9695583 L970.005059,95.9695583 Z" id="Shape" fill="#000000"></path>
                        <g id="Group" transform="translate(323.555014, 180.152774)" fill="#9CA6D7" fill-rule="nonzero">
                            <g>
                                <g transform="translate(2.742897, 12.763149)" id="Rectangle">
                                    <rect x="0.753784825" y="0.634576729" width="6.20088124" height="63.0528967"></rect>
                                </g>
                                <g transform="translate(0.192135, 7.750407)" id="Path">
                                    <path d="M26.0411115,68.7002155 L32.1521249,68.7002155 L32.1521249,47.0846421 C32.1521249,44.9320539 32.3318606,42.8691569 32.8710677,40.9856422 C34.9380281,33.5412746 41.5882485,28.2494952 49.3168831,28.2494952 C58.034064,28.2494952 59.1124781,34.5278775 59.1124781,41.6134804 L59.1124781,68.7002155 L65.2234915,68.7002155 L65.2234915,39.9990392 C65.2234915,28.8773334 61.2693064,22.5092599 50.1256937,22.5092599 C39.4314203,22.5092599 33.6798783,29.7742452 32.0622571,33.9000393 L31.8825214,33.9000393 C31.8825214,33.9000393 32.0622571,32.2855981 32.0622571,30.3123922 L32.0622571,23.585554 L26.0411115,23.585554 L26.0411115,68.7002155 Z"></path>
                                </g>
                                <g transform="translate(41.510196, 2.912164)" id="Path">
                                    <path d="M39.7221718,57.124973 C39.7221718,72.1930906 50.2367095,73.8972229 55.4490445,73.8972229 C57.0666657,73.8972229 58.055212,73.7178406 58.055212,73.7178406 L58.055212,68.2466789 C58.055212,68.2466789 57.2464014,68.4260612 55.9882515,68.4260612 C52.5732735,68.4260612 45.8331852,67.0806936 45.8331852,56.4971348 L45.8331852,34.0743408 L57.1565335,34.0743408 L57.1565335,28.9619438 L45.8331852,28.9619438 L45.8331852,15.9567233 L39.8120396,15.9567233 L39.8120396,28.9619438 L33.7908941,28.9619438 L33.7908941,34.0743408 L39.7221718,34.0743408 L39.7221718,57.124973 Z"></path>
                                </g>
                                <g transform="translate(82.776337, 9.561994)" id="Path">
                                    <path d="M26.2251942,50.4751435 C26.2251942,62.2246876 30.7185864,67.9649228 41.322992,67.9649228 C51.2983227,67.9649228 57.2296004,60.9690111 59.0269572,56.5741435 L59.2066929,56.5741435 C59.2066929,56.5741435 59.0269572,58.1885846 59.0269572,60.1617905 L59.0269572,66.8886287 L64.9582349,66.8886287 L64.9582349,21.7739672 L58.8472216,21.7739672 L58.8472216,43.3895406 C58.8472216,53.1658788 52.4666046,62.2246876 42.1318026,62.2246876 C33.4146217,62.2246876 32.3362076,55.9463052 32.3362076,48.8607023 L32.3362076,21.7739672 L26.2251942,21.7739672 L26.2251942,50.4751435 Z"></path>
                                </g>
                                <g transform="translate(136.431787, 7.750407)" id="Path">
                                    <path d="M26.0411115,68.7002155 L32.1521249,68.7002155 L32.1521249,47.0846421 C32.1521249,44.9320539 32.3318606,42.8691569 32.8710677,40.9856422 C34.9380281,33.5412746 41.5882485,28.2494952 49.3168831,28.2494952 C58.034064,28.2494952 59.1124781,34.5278775 59.1124781,41.6134804 L59.1124781,68.7002155 L65.2234915,68.7002155 L65.2234915,39.9990392 C65.2234915,28.8773334 61.2693064,22.5092599 50.1256937,22.5092599 C39.4314203,22.5092599 33.6798783,29.7742452 32.0622571,33.9000393 L31.8825214,33.9000393 C31.8825214,33.9000393 32.0622571,32.2855981 32.0622571,30.3123922 L32.0622571,23.585554 L26.0411115,23.585554 L26.0411115,68.7002155 Z"></path>
                                </g>
                                <g transform="translate(212.601734, 29.552954)" id="Shape">
                                    <path d="M0.0174210361,24.3851831 C0.0174210361,38.2873154 10.1724874,47.9739624 23.652664,47.9739624 C33.8077304,47.9739624 40.368083,41.6955801 40.368083,41.6955801 L37.5821798,37.0316389 C37.5821798,37.0316389 32.1002414,42.5028007 23.8323997,42.5028007 C14.4861439,42.5028007 6.57777365,36.2244183 6.30817012,24.6542566 L40.9971579,24.6542566 C40.9971579,24.6542566 41.1768936,22.5913596 41.1768936,21.5150655 C41.1768936,10.3036685 34.7962767,0.706712662 22.3046464,0.706712662 C10.0826196,0.706712662 0.0174210361,9.58613908 0.0174210361,24.3851831 Z M6.57777365,19.6315508 C8.01565916,10.572742 14.5760118,5.81910969 22.1249107,5.81910969 C28.864999,5.81910969 34.616541,10.2139773 34.9760124,19.6315508 L6.57777365,19.6315508 Z"></path>
                                </g>
                                <g transform="translate(264.884812, 0.000000)" id="Path">
                                    <polygon points="26.5484421 76.4506227 63.7537296 76.4506227 63.7537296 70.8897698 32.7493234 70.8897698 32.7493234 47.4803729 56.7440377 47.4803729 56.7440377 41.9195199 32.7493234 41.9195199 32.7493234 18.9585789 62.1361084 18.9585789 62.1361084 13.397726 26.5484421 13.397726"></polygon>
                                </g>
                                <g transform="translate(337.787641, 12.763149)" id="Shape">
                                    <path d="M0.197156724,41.0852971 C0.197156724,55.0771205 7.74605562,64.7637675 19.8782146,64.7637675 C31.74077,64.7637675 35.4253516,55.7049588 35.4253516,55.7049588 L35.6050873,55.7049588 C35.6050873,55.7049588 35.4253516,56.9606352 35.4253516,58.9338411 L35.4253516,63.6874734 L41.3566293,63.6874734 L41.3566293,0.634576729 L35.2456159,0.634576729 L35.2456159,22.6089148 C35.2456159,24.4924295 35.4253516,26.0171795 35.4253516,26.0171795 L35.2456159,26.0171795 C35.2456159,26.0171795 31.4711664,17.4965178 20.5072895,17.4965178 C8.64473406,17.4965178 0.197156724,26.8244001 0.197156724,41.0852971 Z M6.48790581,41.0852971 C6.48790581,29.6945177 13.0482584,22.9676795 21.0464965,22.9676795 C30.7522237,22.9676795 35.4253516,31.9367971 35.4253516,41.0852971 C35.4253516,53.9111353 28.3257919,59.2926058 20.776893,59.2926058 C12.3293157,59.2926058 6.48790581,52.2070029 6.48790581,41.0852971 Z"></path>
                                </g>
                                <g transform="translate(393.822985, 30.364541)" id="Shape">
                                    <polygon points="0.0596117606 46.0860815 6.17062515 46.0860815 6.17062515 0.971419957 0.0596117606 0.971419957"></polygon>
                                </g>
                                <g transform="translate(376.717254, 2.912164)" id="Path">
                                    <path d="M39.7221718,57.124973 C39.7221718,72.1930906 50.2367095,73.8972229 55.4490445,73.8972229 C57.0666657,73.8972229 58.055212,73.7178406 58.055212,73.7178406 L58.055212,68.2466789 C58.055212,68.2466789 57.2464014,68.4260612 55.9882515,68.4260612 C52.5732735,68.4260612 45.8331852,67.0806936 45.8331852,56.4971348 L45.8331852,34.0743408 L57.1565335,34.0743408 L57.1565335,28.9619438 L45.8331852,28.9619438 L45.8331852,15.9567233 L39.8120396,15.9567233 L39.8120396,28.9619438 L33.7908941,28.9619438 L33.7908941,34.0743408 L39.7221718,34.0743408 L39.7221718,57.124973 Z"></path>
                                </g>
                                <g transform="translate(444.778053, 30.364541)" id="Shape">
                                    <polygon points="0.0596117606 46.0860815 6.17062515 46.0860815 6.17062515 0.971419957 0.0596117606 0.971419957"></polygon>
                                </g>
                                <g transform="translate(461.711051, 29.552954)" id="Shape">
                                    <path d="M0.650842918,24.1161096 C0.650842918,37.7491683 11.3451164,47.9739624 24.5556894,47.9739624 C37.7662625,47.9739624 48.4605359,37.7491683 48.4605359,24.1161096 C48.4605359,10.7521244 37.7662625,0.706712662 24.5556894,0.706712662 C11.3451164,0.706712662 0.650842918,10.7521244 0.650842918,24.1161096 Z M6.941592,24.1161096 C6.941592,13.8913155 14.8499623,6.26756557 24.5556894,6.26756557 C34.2614166,6.26756557 42.1697869,13.8913155 42.1697869,24.1161096 C42.1697869,34.6099772 34.2614166,42.5028007 24.5556894,42.5028007 C14.8499623,42.5028007 6.941592,34.6099772 6.941592,24.1161096 Z"></path>
                                </g>
                                <g transform="translate(495.543692, 7.750407)" id="Path">
                                    <path d="M26.0411115,68.7002155 L32.1521249,68.7002155 L32.1521249,47.0846421 C32.1521249,44.9320539 32.3318606,42.8691569 32.8710677,40.9856422 C34.9380281,33.5412746 41.5882485,28.2494952 49.3168831,28.2494952 C58.034064,28.2494952 59.1124781,34.5278775 59.1124781,41.6134804 L59.1124781,68.7002155 L65.2234915,68.7002155 L65.2234915,39.9990392 C65.2234915,28.8773334 61.2693064,22.5092599 50.1256937,22.5092599 C39.4314203,22.5092599 33.6798783,29.7742452 32.0622571,33.9000393 L31.8825214,33.9000393 C31.8825214,33.9000393 32.0622571,32.2855981 32.0622571,30.3123922 L32.0622571,23.585554 L26.0411115,23.585554 L26.0411115,68.7002155 Z"></path>
                                </g>
                            </g>
                        </g>
                    </g>
                </g>
            </g>
        </g>
    </g>
</svg>