<?xml version="1.0" encoding="utf-8"?>
<!-- Generator: Adobe Illustrator 24.1.3, SVG Export Plug-In . SVG Version: 6.00 Build 0)  -->
<svg version="1.1" id="Layer_1" xmlns:serif="http://www.serif.com/"
	 xmlns="http://www.w3.org/2000/svg" xmlns:xlink="http://www.w3.org/1999/xlink" x="0px" y="0px" viewBox="0 0 1600 444.9"
	 style="enable-background:new 0 0 1600 444.9;" xml:space="preserve">
<style type="text/css">
	.st0{display:none;fill:none;}
	.st1{clip-path:url(#SVGID_2_);}
	.st2{fill:#FFFFFF;}
	.st3{fill-rule:evenodd;clip-rule:evenodd;fill:#FFFFFF;}
	.st4{enable-background:new    ;}
</style>
<g id="Artboard1" transform="matrix(1,0,0,1,-17.8867,-323.849)">
	<rect x="17.9" y="323.8" class="st0" width="1598.7" height="444.9"/>
	<g>
		<defs>
			<rect id="SVGID_1_" x="17.9" y="323.8" width="1598.7" height="444.9"/>
		</defs>
		<clipPath id="SVGID_2_">
			<use xlink:href="#SVGID_1_"  style="overflow:visible;"/>
		</clipPath>
		<g class="st1">
			<g id="Layer_1-2" transform="matrix(1,0,0,1,18.7735,324.697)">
				<path class="st2" d="M118.5,124.3L44,111l1-5.7l66.4,11.9L99.5,50.8l5.7-1L118.5,124.3z"/>
				<path class="st2" d="M220.6,83.6l-46.2-66.3l4.8-3.3l41.4,59.5l39.1-56.9l4.8,3.3L220.6,83.6z"/>
				<rect x="217.6" y="75.6" class="st3" width="5.6" height="301.1"/>
				<rect x="70.4" y="223.9" class="st3" width="301.1" height="5.6"/>
				<g transform="matrix(0.707107,-0.707107,0.707107,0.707107,-57.28,133.33)">
					
						<rect x="127.8" y="111.9" transform="matrix(-1 2.535182e-06 -2.535182e-06 -1 261.3788 524.7136)" class="st3" width="5.8" height="301"/>
				</g>
				<g transform="matrix(0.707107,-0.707107,0.707107,0.707107,-57.28,133.33)">
					
						<rect x="-19.8" y="259.5" transform="matrix(-1 2.535182e-06 -2.535182e-06 -1 261.3788 524.7136)" class="st3" width="301" height="5.8"/>
				</g>
				<path class="st2" d="M16.5,272.5l-3.5-4.6l54.8-41.5L13,185l3.5-4.6l60.9,46.1L16.5,272.5z"/>
				<path class="st2" d="M105.2,403.1l-5.7-1l11.9-66.4L45,347.6l-1-5.7l74.5-13.3L105.2,403.1z"/>
				<path class="st2" d="M262.1,434l-41.3-54.6l-35,54.4l-4.9-3.1l39.5-61.4l46.3,61.2L262.1,434z"/>
				<path class="st2" d="M336.1,403.1l-13.3-74.6l74.5,13.3l-1,5.7l-66.4-11.8l11.9,66.4L336.1,403.1z"/>
				<path class="st2" d="M424.9,266.1l-61.7-39.7l61.7-39.7l3.1,4.9L374,226.4l54.1,34.8L424.9,266.1z"/>
				<path class="st2" d="M322.8,124.3l13.3-74.5l5.7,1l-11.9,66.4l66.4-11.9l1,5.7L322.8,124.3z"/>
				<path class="st3" d="M278.1,226.9c0-32-26-58-58-58h0c-32,0-58,26-58,58v0c0,32,26,58,58,58h0
					C252.1,284.9,278.1,258.9,278.1,226.9L278.1,226.9z"/>
				<path class="st3" d="M127.7,119.3c0-7.7-6.2-13.9-13.9-13.9s-13.9,6.2-13.9,13.9s6.2,13.9,13.9,13.9S127.7,127,127.7,119.3z"/>
				<path class="st3" d="M339.6,119.3c0-7.7-6.2-13.9-13.9-13.9c-7.7,0-13.9,6.2-13.9,13.9s6.2,13.9,13.9,13.9
					C333.3,133.3,339.6,127,339.6,119.3z"/>
				<path class="st3" d="M127.7,331.2c0-7.7-6.2-13.9-13.9-13.9s-13.9,6.2-13.9,13.9c0,7.7,6.2,13.9,13.9,13.9
					S127.7,338.9,127.7,331.2z"/>
				<path class="st3" d="M339.6,331.2c0-7.7-6.2-13.9-13.9-13.9c-7.7,0-13.9,6.2-13.9,13.9c0,7.7,6.2,13.9,13.9,13.9
					C333.3,345.1,339.6,338.9,339.6,331.2z"/>
				<path class="st3" d="M381.9,225.2c0-7.7-6.2-13.9-13.9-13.9c-7.7,0-13.9,6.2-13.9,13.9c0,7.7,6.2,13.9,13.9,13.9
					C375.7,239.2,381.9,232.9,381.9,225.2z"/>
				<path class="st3" d="M86.4,225.2c0-7.7-6.2-13.9-13.9-13.9s-13.9,6.2-13.9,13.9c0,7.7,6.2,13.9,13.9,13.9S86.4,232.9,86.4,225.2
					z"/>
				<g transform="matrix(-3.82857e-16,1,-1,-3.82857e-16,356,92.52)">
					<path class="st3" d="M295,136.3c0-7.7-6.2-13.9-13.9-13.9c-7.7,0-13.9,6.2-13.9,13.9s6.2,13.9,13.9,13.9
						C288.7,150.2,295,144,295,136.3z"/>
				</g>
				<g transform="matrix(-3.82857e-16,1,-1,-3.82857e-16,178.34,-85.15)">
					<path class="st3" d="M177.1-41.4c0-7.7-6.2-13.9-13.9-13.9c-7.7,0-13.9,6.2-13.9,13.9s6.2,13.9,13.9,13.9
						C170.9-27.4,177.1-33.7,177.1-41.4z"/>
				</g>
				<g transform="matrix(-3.82857e-16,1,-1,-3.82857e-16,166.27,-146.83)">
					<path class="st3" d="M177.5-94.7c0-7.7-6.2-13.9-13.9-13.9s-13.9,6.2-13.9,13.9s6.2,13.9,13.9,13.9S177.5-87,177.5-94.7z"/>
				</g>
				<g transform="matrix(-3.82857e-16,1,-1,-3.82857e-16,231.97,-173.64)">
					<path class="st3" d="M236.7-105.9c0-7.7-6.2-13.9-13.9-13.9c-7.7,0-13.9,6.2-13.9,13.9S215-92,222.7-92
						C230.4-92,236.7-98.2,236.7-105.9z"/>
				</g>
				<g transform="matrix(-3.82857e-16,1,-1,-3.82857e-16,301.7,-173.64)">
					<path class="st3" d="M294.6-94.2c0-7.7-6.2-13.9-13.9-13.9c-7.7,0-13.9,6.2-13.9,13.9s6.2,13.9,13.9,13.9
						C288.4-80.2,294.6-86.5,294.6-94.2z"/>
				</g>
				<g transform="matrix(-3.82857e-16,1,-1,-3.82857e-16,368.74,-142.8)">
					<path class="st3" d="M345.2-57.2c0-7.7-6.2-13.9-13.9-13.9c-7.7,0-13.9,6.2-13.9,13.9s6.2,13.9,13.9,13.9
						C338.9-43.3,345.2-49.6,345.2-57.2z"/>
				</g>
				<g transform="matrix(-3.82857e-16,1,-1,-3.82857e-16,413.66,-97.88)">
					<path class="st3" d="M375-12.3c0-7.7-6.2-13.9-13.9-13.9c-7.7,0-13.9,6.2-13.9,13.9S353.4,1.6,361,1.6
						C368.7,1.6,375-4.6,375-12.3z"/>
				</g>
				<g transform="matrix(-3.82857e-16,1,-1,-3.82857e-16,443.83,-31.51)">
					<path class="st3" d="M388.9,47.9c0-7.7-6.2-13.9-13.9-13.9c-7.7,0-13.9,6.2-13.9,13.9s6.2,13.9,13.9,13.9
						C382.7,61.9,388.9,55.6,388.9,47.9z"/>
				</g>
				<g transform="matrix(-3.82857e-16,1,-1,-3.82857e-16,443.83,38.21)">
					<path class="st3" d="M377.2,105.9c0-7.7-6.2-13.9-13.9-13.9c-7.7,0-13.9,6.2-13.9,13.9s6.2,13.9,13.9,13.9
						C370.9,119.9,377.2,113.6,377.2,105.9z"/>
				</g>
				<g transform="matrix(-3.82857e-16,1,-1,-3.82857e-16,417.68,100.57)">
					<path class="st3" d="M344.9,153.4c0-7.7-6.2-13.9-13.9-13.9c-7.7,0-13.9,6.2-13.9,13.9s6.2,13.9,13.9,13.9
						C338.7,167.3,344.9,161.1,344.9,153.4z"/>
				</g>
				<g transform="matrix(-3.82857e-16,1,-1,-3.82857e-16,368.74,149.51)">
					<path class="st3" d="M296,185.8c0-7.7-6.2-13.9-13.9-13.9c-7.7,0-13.9,6.2-13.9,13.9s6.2,13.9,13.9,13.9
						C289.7,199.8,296,193.5,296,185.8z"/>
				</g>
				<g transform="matrix(-3.82857e-16,1,-1,-3.82857e-16,301.7,180.35)">
					<path class="st3" d="M235,200.2c0-7.7-6.2-13.9-13.9-13.9c-7.7,0-13.9,6.2-13.9,13.9s6.2,13.9,13.9,13.9
						C228.8,214.1,235,207.9,235,200.2z"/>
				</g>
				<g transform="matrix(-3.82857e-16,1,-1,-3.82857e-16,231.97,180.35)">
					<path class="st3" d="M177,188.5c0-7.7-6.2-13.9-13.9-13.9s-13.9,6.2-13.9,13.9s6.2,13.9,13.9,13.9S177,196.1,177,188.5z"/>
				</g>
				<g transform="matrix(-3.82857e-16,1,-1,-3.82857e-16,169.62,152.86)">
					<path class="st3" d="M129.8,155.1c0-7.7-6.2-13.9-13.9-13.9s-13.9,6.2-13.9,13.9s6.2,13.9,13.9,13.9S129.8,162.8,129.8,155.1z"
						/>
				</g>
				<g transform="matrix(-3.82857e-16,1,-1,-3.82857e-16,117.33,100.57)">
					<path class="st3" d="M95.1,102.8c0-7.7-6.2-13.9-13.9-13.9s-13.9,6.2-13.9,13.9s6.2,13.9,13.9,13.9S95.1,110.5,95.1,102.8z"/>
				</g>
				<g transform="matrix(-3.82857e-16,1,-1,-3.82857e-16,89.84,38.21)">
					<path class="st3" d="M82.8,46.3c0-7.7-6.2-13.9-13.9-13.9s-13.9,6.2-13.9,13.9s6.2,13.9,13.9,13.9S82.8,54,82.8,46.3z"/>
				</g>
				<g transform="matrix(-3.82857e-16,1,-1,-3.82857e-16,89.84,-31.51)">
					<path class="st3" d="M94.5-11.7c0-7.7-6.2-13.9-13.9-13.9s-13.9,6.2-13.9,13.9S72.9,2.3,80.6,2.3S94.5-4,94.5-11.7z"/>
				</g>
				<g transform="matrix(-3.82857e-16,1,-1,-3.82857e-16,113.97,-97.21)">
					<path class="st3" d="M125.6-62.2c0-7.7-6.2-13.9-13.9-13.9s-13.9,6.2-13.9,13.9s6.2,13.9,13.9,13.9S125.6-54.5,125.6-62.2z"/>
				</g>
				<path class="st2" d="M639.7,30.8c60.3,0,108.4,47.6,108.4,108.7c0,62.4-48.2,111.4-108.4,111.4c-60.2,0-108.4-49.1-108.4-111.4
					C531.3,78.3,579.5,30.8,639.7,30.8z M639.7,231.6c47.9,0,86.6-39.9,86.6-92.1c0-50.9-38.8-89.3-86.6-89.3
					c-48.2,0-86.6,38.5-86.6,89.3C553.1,191.6,591.6,231.6,639.7,231.6z"/>
				<path class="st2" d="M789.3,95.4h20.6v22.2c0,4.1-0.2,8.1-0.6,12.1h0.6c5.4-14,24.8-38.5,60.8-38.5c37.5,0,50.9,21.5,50.9,59.2
					v97.1H901V156c0-23.9-3.6-45.1-33.1-45.1c-26,0.2-48.8,17.9-55.6,43c-1.8,6.7-2.6,13.7-2.4,20.6v73h-20.6V95.4z"/>
				<path class="st2" d="M1033.4,91c42.1,0,63.6,32.4,63.6,70.3c0,3.6-0.6,10.6-0.6,10.6H979.6c0.9,39.1,27.6,60.3,59.1,60.3
					c27.9,0,46.3-18.5,46.3-18.5l9.4,15.8c-15.7,13.5-35.7,21-56.3,21.2c-45.4,0-79.7-32.7-79.7-79.7
					C958.4,120.9,992.3,91,1033.4,91z M1076.1,155.5c-1.2-31.8-20.6-46.6-43.2-46.6c-25.4,0-47.6,16-52.4,46.6H1076.1z"/>
				<path class="st2" d="M1139.2,207.7c0,0,22.1,23.3,55.7,23.3c23.3,0,42.4-13.9,42.4-37c0-53.6-106.3-39.9-106.3-106
					c0-30.6,27-57.2,66.3-57.2c37,0,56.9,20.6,56.9,20.6L1244,69c0,0-18.8-18.2-46.7-18.2c-27.3,0-44.8,17.9-44.8,36.6
					c0,50.6,106.3,36,106.3,106c0,31.8-24.5,57.5-64.5,57.5c-43.6,0-67.5-27.3-67.5-27.3L1139.2,207.7z"/>
				<path class="st2" d="M1298.9,34.3h21.5v25.8h-21.5V34.3z M1299.7,95.4h20.6v152.1h-20.6V95.4z"/>
				<path class="st2" d="M1375.4,114.3h-19.8V97h19.8V53.3h20.6V97h37.8v17.2H1396V190c0,35.7,22.8,40.3,34.3,40.3
					c2.3,0,4.7-0.2,7-0.6v18.5c-2.9,0.4-5.9,0.7-8.8,0.6c-17.6,0-53.1-5.8-53.1-56.6L1375.4,114.3z"/>
				<path class="st2" d="M1535.7,91c42.1,0,63.6,32.4,63.6,70.3c0,3.6-0.6,10.6-0.6,10.6h-116.9c0.9,39.1,27.6,60.3,59.1,60.3
					c27.9,0,46.3-18.5,46.3-18.5l9.4,15.8c-15.7,13.5-35.6,21-56.3,21.2c-45.4,0-79.7-32.7-79.7-79.7
					C1460.6,120.9,1494.5,91,1535.7,91z M1578.4,155.5c-1.2-31.8-20.6-46.6-43.2-46.6c-25.4,0-47.6,16-52.4,46.6H1578.4z"/>
				<g transform="matrix(1,0,0,1,-143.035,79.5764)">
					<g class="st4">
						<path class="st2" d="M711.9,235.6h4.4l38.5,102.5h-4.2L737,301.8h-45.7l-13.6,36.3h-4.2L711.9,235.6z M692.8,297.8h42.7
							l-21.4-56.9L692.8,297.8z"/>
						<path class="st2" d="M758.9,335l52.1-66.2h-50.2v-4h55.8v2.9l-52.3,66.3h53.9v4h-59.3V335z"/>
						<path class="st2" d="M831.5,264.9h4v46.2c0,11.4,2.5,24.7,19.6,24.7c16.7,0,27.4-11.1,30.9-23.6c0.9-3.1,1.2-6.4,1.2-10v-37.5
							h4v73.2h-4v-14.2c0-3.2,0.7-5.7,0.7-5.7h-0.3c-2.6,6.7-11.7,21.7-32.5,21.7c-17.6,0-23.6-11.7-23.6-27.4V264.9z"/>
						<path class="st2" d="M912.8,264.9h4v13c0,3.8-0.7,6.7-0.7,6.7h0.3c3.8-11.7,12.4-20.3,24.6-20.3c2,0,4.2,0.3,4.2,0.3v4
							c0,0-2.2-0.3-3.8-0.3c-17.9,0-24.6,19-24.6,35.3v34.5h-4V264.9z"/>
						<path class="st2" d="M950.5,299.7v0.9c0,21.7,15.2,35.3,32.9,35.3c14.9,0,24-9.7,24-9.7l2.3,3.5c0,0-10,10.1-26.3,10.1
							c-19.9,0-36.9-14.8-36.9-38.8c0-25,16-37.9,34.4-37.9c19.3,0,30,13.6,30,31.6v5H950.5z M950.8,295.8h56.2
							c0-21.1-12.6-28.7-26.3-28.7C967.5,267.1,952.9,275.9,950.8,295.8z"/>
					</g>
					<g>
						<path class="st2" d="M1102.4,235.6h55.3v4h-51.4v44.8h42.4v4h-42.4v45.8h54.2v4h-58.1V235.6z"/>
						<path class="st2" d="M1174.6,264.9h4v14.2c0,3.1-0.7,5.6-0.7,5.6h0.3c2.8-7.3,11.3-21.5,31.8-21.5c18.1,0,25,10.1,25,29.1
							v45.8h-4v-44.9c0-14.5-3.4-26.1-21.1-26.1c-16.4,0-26.8,10.8-30.2,23.4c-0.9,3.1-1.2,6.4-1.2,10v37.6h-4V264.9z"/>
						<path class="st2" d="M1300.8,326.3c0-4,0.7-7,0.7-7h-0.3c0.1,0-6.6,20.5-27.5,20.5c-11.6,0-24.3-6.4-24.3-21.4
							c0-23.6,30.4-24.2,42.6-24.2h8.8v-3.4c0-17.9-9.1-23.9-21.8-23.9c-14.1,0-21.8,7.3-21.8,7.3l-2.3-3.2c0,0,8.9-8,24.3-8
							c17,0,25.6,9.5,25.6,27.7v47.3h-4V326.3z M1300.8,298.2h-7.6c-11.7,0-39.8-0.3-39.8,19.3c0,10.1,7.5,18.3,19.9,18.3
							c17.9,0,27.5-15.7,27.5-30.6V298.2z"/>
						<path class="st2" d="M1325.5,235.6h4v38.2c0,1.9-0.7,9.1-0.7,9.1h0.3c0,0,6.1-19.8,28.5-19.8c19.3,0,31.2,15.7,31.2,38.3
							c0,23.3-13.6,38.3-32.5,38.3c-12.3,0-22.8-7.8-27.2-20.3h-0.3c0,0,0.7,4.2,0.7,10v8.6h-4V235.6z M1384.8,301.5
							c0-21.1-11.7-34.4-27.7-34.4c-14.6,0-27.7,11.1-27.7,34.5c0,17.6,8.8,34.2,26.9,34.2C1371.9,335.9,1384.8,323.3,1384.8,301.5z
							"/>
						<path class="st2" d="M1405.6,235.6h4v88.7c0,9.4,5,10.4,8.2,10.4c1.2,0,2.2-0.3,2.2-0.3v4c0,0-1.3,0.3-2.6,0.3
							c-3.4,0-11.7-1.3-11.7-13.6V235.6z"/>
						<path class="st2" d="M1431.9,299.7v0.9c0,21.7,15.2,35.3,32.9,35.3c14.9,0,24-9.7,24-9.7l2.3,3.5c0,0-10,10.1-26.3,10.1
							c-19.9,0-36.9-14.8-36.9-38.8c0-25,16-37.9,34.4-37.9c19.3,0,30,13.6,30,31.6v5H1431.9z M1432.2,295.8h56.2
							c0-21.1-12.6-28.7-26.3-28.7C1448.9,267.1,1434.2,275.9,1432.2,295.8z"/>
						<path class="st2" d="M1563.2,329.4c0-5.7,0.7-10,0.7-10h-0.3c-4.8,12.6-16.1,20.3-28.4,20.3c-18.9,0-31.3-15.1-31.3-38.3
							c0-22.7,12.9-38.3,32.1-38.3c22.7,0,27.7,19.8,27.7,19.8h0.3c0,0-0.7-7.2-0.7-9.1v-38.2h4v102.5h-4V329.4z M1563.2,301.6
							c0-23.4-12.4-34.5-27.2-34.5c-15.8,0-28.1,13.3-28.1,34.4c0,21.8,11.7,34.4,27.2,34.4C1553.2,335.9,1563.2,319.2,1563.2,301.6
							z"/>
					</g>
				</g>
			</g>
		</g>
	</g>
</g>
</svg>
