<?xml version="1.0" encoding="utf-8"?>
<!-- Generator: Adobe Illustrator 24.1.3, SVG Export Plug-In . SVG Version: 6.00 Build 0)  -->
<svg version="1.1" id="Layer_1" xmlns="http://www.w3.org/2000/svg" xmlns:xlink="http://www.w3.org/1999/xlink" x="0px" y="0px"
	 viewBox="0 0 1291 362" style="enable-background:new 0 0 1291 362;" xml:space="preserve">
<style type="text/css">
	.st0{clip-path:url(#SVGID_2_);}
	.st1{clip-path:url(#SVGID_2_);fill:#2870B8;}
	.st2{fill:url(#SVGID_15_);}
	.st3{fill:url(#SVGID_16_);}
	.st4{fill:url(#SVGID_17_);}
	.st5{fill:url(#SVGID_18_);}
	.st6{fill:url(#SVGID_19_);}
	.st7{fill:url(#SVGID_20_);}
	.st8{fill:url(#SVGID_21_);}
	.st9{fill:url(#SVGID_22_);}
	.st10{fill:url(#SVGID_23_);}
	.st11{fill:url(#SVGID_24_);}
	.st12{fill:url(#SVGID_25_);}
	.st13{fill:url(#SVGID_26_);}
	.st14{fill:url(#SVGID_27_);}
	.st15{fill:url(#SVGID_28_);}
	.st16{fill:url(#SVGID_29_);}
	.st17{fill:url(#SVGID_30_);}
	.st18{fill:url(#SVGID_31_);}
	.st19{fill:url(#SVGID_32_);}
	.st20{fill:url(#SVGID_33_);}
	.st21{fill:url(#SVGID_34_);}
	.st22{fill:url(#SVGID_35_);}
	.st23{fill:url(#SVGID_36_);}
	.st24{fill:url(#SVGID_37_);}
	.st25{fill:url(#SVGID_38_);}
	.st26{fill:url(#SVGID_39_);}
	.st27{fill:url(#SVGID_40_);}
	.st28{fill:url(#SVGID_41_);}
	.st29{fill:url(#SVGID_42_);}
	.st30{fill:url(#SVGID_43_);}
	.st31{fill:url(#SVGID_44_);}
	.st32{fill:url(#SVGID_45_);}
	.st33{fill:url(#SVGID_46_);}
	.st34{fill:url(#SVGID_47_);}
	.st35{fill:url(#SVGID_48_);}
	.st36{fill:url(#SVGID_49_);}
	.st37{fill:url(#SVGID_50_);}
	.st38{fill:url(#SVGID_51_);}
</style>
<g>
	<g>
		<defs>
			<polygon id="SVGID_1_" points="1291,0.3 -0.3,0.3 -0.3,362.2 1291,362.2 1291,0.3 			"/>
		</defs>
		<clipPath id="SVGID_2_">
			<use xlink:href="#SVGID_1_"  style="overflow:visible;"/>
		</clipPath>
		<g class="st0">
			<defs>
				<path id="SVGID_3_" d="M209.3,4.6"/>
			</defs>
			<clipPath id="SVGID_4_">
				<use xlink:href="#SVGID_3_"  style="overflow:visible;"/>
			</clipPath>
		</g>
		<g class="st0">
			<defs>
				<path id="SVGID_5_" d="M212,360.9L212,360.9"/>
			</defs>
			<clipPath id="SVGID_6_">
				<use xlink:href="#SVGID_5_"  style="overflow:visible;"/>
			</clipPath>
		</g>
		<g class="st0">
			<defs>
				<path id="SVGID_7_" d="M146.5,360.9L146.5,360.9"/>
			</defs>
			<clipPath id="SVGID_8_">
				<use xlink:href="#SVGID_7_"  style="overflow:visible;"/>
			</clipPath>
		</g>
		<g class="st0">
			<defs>
				<path id="SVGID_9_" d="M-0.3,218.6"/>
			</defs>
			<clipPath id="SVGID_10_">
				<use xlink:href="#SVGID_9_"  style="overflow:visible;"/>
			</clipPath>
		</g>
		<g class="st0">
			<defs>
				<path id="SVGID_11_" d="M-0.3,148.6"/>
			</defs>
			<clipPath id="SVGID_12_">
				<use xlink:href="#SVGID_11_"  style="overflow:visible;"/>
			</clipPath>
		</g>
		<g class="st0">
			<defs>
				<path id="SVGID_13_" d="M141.1,2.8"/>
			</defs>
			<clipPath id="SVGID_14_">
				<use xlink:href="#SVGID_13_"  style="overflow:visible;"/>
			</clipPath>
		</g>
		<path class="st0" d="M514.2,27.1c48.5,0,87.3,38.3,87.3,87.5c0,50.2-38.8,89.7-87.3,89.7c-48.5,0-87.3-39.5-87.3-89.7
			C426.9,65.4,465.6,27.1,514.2,27.1L514.2,27.1z M514.2,188.8c38.5,0,69.7-32.1,69.7-74.1c0-40.9-31.2-71.9-69.7-71.9
			c-38.8,0-69.7,31-69.7,71.9C444.4,156.6,475.4,188.8,514.2,188.8L514.2,188.8z"/>
		<path class="st0" d="M634.5,79.1h16.6V97c0,3.3-0.2,6.5-0.5,9.8h0.5c4.4-11.2,20-31,49-31c30.2,0,40.9,17.3,40.9,47.6v78.2h-16.6
			v-73.6c0-19.3-2.9-36.3-26.6-36.3c-20.9,0.2-39.3,14.4-44.7,34.6c-1.4,5.4-2.1,11-2,16.6v58.8h-16.6V79.1L634.5,79.1z"/>
		<path class="st0" d="M831,75.6c33.9,0,51.2,26.1,51.2,56.6c0,2.9-0.5,8.5-0.5,8.5h-94.1c0.7,31.4,22.2,48.5,47.5,48.5
			c22.4,0,37.3-14.9,37.3-14.9l7.6,12.7c-12.6,10.9-28.7,16.9-45.4,17.1c-36.6,0-64.1-26.3-64.1-64.1
			C770.6,99.7,797.9,75.6,831,75.6L831,75.6z M865.4,127.5c-1-25.6-16.6-37.5-34.8-37.5c-20.5,0-38.3,12.9-42.2,37.5H865.4
			L865.4,127.5z"/>
		<path class="st0" d="M916.2,169.5c0,0,17.8,18.7,44.9,18.7c18.7,0,34.1-11.2,34.1-29.7c0-43.1-85.6-32.1-85.6-85.3
			c0-24.6,21.7-46.1,53.4-46.1c29.7,0,45.8,16.6,45.8,16.6l-8.3,14.2c0,0-15.1-14.6-37.5-14.6c-21.9,0-36.1,14.4-36.1,29.5
			c0,40.7,85.6,29,85.6,85.3c0,25.6-19.7,46.3-51.9,46.3c-35.1,0-54.4-21.9-54.4-21.9L916.2,169.5L916.2,169.5z"/>
		<path class="st0" d="M1044.7,30h17.3v20.7h-17.3V30L1044.7,30z M1045.4,79.1h16.6v122.4h-16.6V79.1L1045.4,79.1z"/>
		<path class="st0" d="M1106.2,94.3h-15.9V80.4h15.9V45.2h16.6v35.2h30.4v13.9h-30.4v61c0,28.8,18.3,32.4,27.6,32.4
			c1.9,0,3.8-0.1,5.6-0.5v14.9c-2.3,0.4-4.7,0.5-7.1,0.5c-14.1,0-42.7-4.6-42.7-45.6L1106.2,94.3L1106.2,94.3z"/>
		<path class="st0" d="M1235.3,75.6c33.9,0,51.2,26.1,51.2,56.6c0,2.9-0.5,8.5-0.5,8.5h-94.1c0.7,31.4,22.2,48.5,47.5,48.5
			c22.4,0,37.3-14.9,37.3-14.9l7.5,12.7c-12.6,10.9-28.7,16.9-45.3,17.1c-36.6,0-64.1-26.3-64.1-64.1
			C1174.8,99.7,1202.1,75.6,1235.3,75.6L1235.3,75.6z M1269.7,127.5c-1-25.6-16.6-37.5-34.8-37.5c-20.5,0-38.3,12.9-42.2,37.5
			H1269.7L1269.7,127.5z"/>
		<path class="st1" d="M426.2,296.6c0,24.1,17.4,43.4,41.9,43.4c20.4,0,31.7-12.8,31.7-12.8l-4.7-5.8c0,0-10.1,11.1-26.9,11.1
			c-19.7,0-33.6-16.1-33.6-35.9c0-19.6,13.9-34.6,33.3-34.6c15.6,0,25.2,9.2,25.2,9.2l4.4-6c0,0-10-10.7-29.8-10.7
			C444.1,254.3,426.2,272.5,426.2,296.6L426.2,296.6z"/>
		<path class="st1" d="M514.5,324.5c0,13,8.7,14.5,13.7,14.5c1.5,0,2.9-0.2,2.9-0.2v-7.2c0,0-0.9,0.1-2,0.1c-3.1,0-6.6-1.2-6.6-9
			v-67h-8V324.5L514.5,324.5z"/>
		<path class="st1" d="M539.9,308.6c0,17.9,14,31.3,31.3,31.3c17.3,0,31.3-13.4,31.3-31.3c0-17.6-14-30.7-31.3-30.7
			C553.9,277.8,539.9,291,539.9,308.6L539.9,308.6z M548.1,308.6c0-13.4,10.4-23.4,23.1-23.4c12.7,0,23.1,10,23.1,23.4
			c0,13.8-10.4,24.1-23.1,24.1C558.5,332.7,548.1,322.4,548.1,308.6L548.1,308.6z"/>
		<path class="st1" d="M616.7,316.9c0,15.4,5.9,23,19.8,23c13.1,0,20.9-9.2,23.2-15h0.2c0,0-0.2,2.1-0.2,4.7v8.8h7.8v-59.3h-8v28.4
			c0,12.8-8.4,24.7-21.9,24.7c-11.4,0-12.8-8.2-12.8-17.6v-35.6h-8V316.9L616.7,316.9z"/>
		<path class="st1" d="M682.9,308.8c0,18.4,9.9,31.1,25.8,31.1c15.5,0,20.4-11.9,20.4-11.9h0.2c0,0-0.2,1.7-0.2,4.2v6.2h7.8v-82.8
			h-8v28.9c0,2.5,0.2,4.5,0.2,4.5h-0.2c0,0-4.9-11.2-19.3-11.2C694,277.8,682.9,290.1,682.9,308.8L682.9,308.8z M691.1,308.8
			c0-15,8.6-23.8,19.1-23.8c12.7,0,18.8,11.8,18.8,23.8c0,16.8-9.3,23.9-19.2,23.9C698.8,332.7,691.1,323.4,691.1,308.8L691.1,308.8
			z"/>
	</g>
</g>
<linearGradient id="SVGID_15_" gradientUnits="userSpaceOnUse" x1="102.8197" y1="307.0063" x2="52.962" y2="257.1486" gradientTransform="matrix(1 0 0 -1 0 364)">
	<stop  offset="0" style="stop-color:#4FC9F5"/>
	<stop  offset="1" style="stop-color:#2262AE"/>
</linearGradient>
<polygon class="st2" points="96.7,100.8 36,89.9 36.9,85.3 90.9,94.9 81.2,40.9 85.9,40.1 "/>
<linearGradient id="SVGID_16_" gradientUnits="userSpaceOnUse" x1="200.7985" y1="363.1638" x2="156.9665" y2="319.3319" gradientTransform="matrix(1 0 0 -1 0 364)">
	<stop  offset="0" style="stop-color:#4FC9F5"/>
	<stop  offset="1" style="stop-color:#2262AE"/>
</linearGradient>
<polygon class="st3" points="179.9,67.6 142.3,13.6 146.2,10.9 179.8,59.3 211.7,12.9 215.5,15.6 "/>
<linearGradient id="SVGID_17_" gradientUnits="userSpaceOnUse" x1="179.6171" y1="302.8763" x2="179.6171" y2="57.7584" gradientTransform="matrix(1 0 0 -1 0 364)">
	<stop  offset="0" style="stop-color:#4FC9F5"/>
	<stop  offset="1" style="stop-color:#2262AE"/>
</linearGradient>
<rect x="177.3" y="61.1" class="st4" width="4.5" height="245.1"/>
<linearGradient id="SVGID_18_" gradientUnits="userSpaceOnUse" x1="226.9963" y1="1049.7697" x2="226.9963" y2="804.6518" gradientTransform="matrix(6.123234e-17 1 1 -6.123234e-17 -747.14 -42.86)">
	<stop  offset="0" style="stop-color:#4FC9F5"/>
	<stop  offset="1" style="stop-color:#2262AE"/>
</linearGradient>
<rect x="57.5" y="181.9" class="st5" width="245.1" height="4.5"/>
<linearGradient id="SVGID_19_" gradientUnits="userSpaceOnUse" x1="-203.2925" y1="171.3763" x2="-203.2925" y2="-73.6603" gradientTransform="matrix(0.7071 -0.7071 -0.7071 -0.7071 358.1642 74.6907)">
	<stop  offset="0" style="stop-color:#4FC9F5"/>
	<stop  offset="1" style="stop-color:#2262AE"/>
</linearGradient>
<polygon class="st6" points="91.6,98.9 94.9,95.6 268.2,268.9 264.8,272.2 "/>
<linearGradient id="SVGID_20_" gradientUnits="userSpaceOnUse" x1="358.002" y1="666.3657" x2="358.002" y2="421.3292" gradientTransform="matrix(0.7071 0.7071 0.7071 -0.7071 -457.837 315.3049)">
	<stop  offset="0" style="stop-color:#4FC9F5"/>
	<stop  offset="1" style="stop-color:#2262AE"/>
</linearGradient>
<polygon class="st7" points="91.6,268.9 264.8,95.6 268.2,98.9 94.9,272.2 "/>
<linearGradient id="SVGID_21_" gradientUnits="userSpaceOnUse" x1="10.8498" y1="180.1075" x2="63.2938" y2="180.1075" gradientTransform="matrix(1 0 0 -1 0 364)">
	<stop  offset="0" style="stop-color:#2262AE"/>
	<stop  offset="1" style="stop-color:#4FC9F5"/>
</linearGradient>
<polygon class="st8" points="13.7,221.4 10.8,217.7 55.5,183.9 10.8,150.1 13.7,146.4 63.3,183.9 "/>
<linearGradient id="SVGID_22_" gradientUnits="userSpaceOnUse" x1="96.7331" y1="96.9662" x2="59.0622" y2="59.2953" gradientTransform="matrix(1 0 0 -1 0 364)">
	<stop  offset="0" style="stop-color:#4FC9F5"/>
	<stop  offset="1" style="stop-color:#2262AE"/>
</linearGradient>
<polygon class="st9" points="85.9,327.7 81.2,326.9 90.9,272.9 36.9,282.5 36,277.9 96.7,267 "/>
<linearGradient id="SVGID_23_" gradientUnits="userSpaceOnUse" x1="201.5802" y1="41.8757" x2="160.5361" y2="0.8181" gradientTransform="matrix(1 0 0 -1 0 364)">
	<stop  offset="0" style="stop-color:#4FC9F5"/>
	<stop  offset="1" style="stop-color:#2262AE"/>
</linearGradient>
<polygon class="st10" points="213.6,352.9 180,308.5 151.5,352.8 147.6,350.2 179.7,300.3 217.4,350.1 "/>
<linearGradient id="SVGID_24_" gradientUnits="userSpaceOnUse" x1="306.7528" y1="103.0596" x2="256.9019" y2="53.2087" gradientTransform="matrix(1 0 0 -1 0 364)">
	<stop  offset="0" style="stop-color:#4FC9F5"/>
	<stop  offset="1" style="stop-color:#2262AE"/>
</linearGradient>
<polygon class="st11" points="273.8,327.7 263,267 323.7,277.9 322.9,282.5 268.8,272.9 278.5,326.9 "/>
<linearGradient id="SVGID_25_" gradientUnits="userSpaceOnUse" x1="357.8563" y1="200.7303" x2="316.6038" y2="159.4779" gradientTransform="matrix(1 0 0 -1 0 364)">
	<stop  offset="0" style="stop-color:#4FC9F5"/>
	<stop  offset="1" style="stop-color:#2262AE"/>
</linearGradient>
<polygon class="st12" points="346.2,216.2 296,183.9 346.2,151.6 348.7,155.6 304.7,183.9 348.7,212.2 "/>
<linearGradient id="SVGID_26_" gradientUnits="userSpaceOnUse" x1="300.6696" y1="300.9095" x2="262.9987" y2="263.2386" gradientTransform="matrix(1 0 0 -1 0 364)">
	<stop  offset="0" style="stop-color:#4FC9F5"/>
	<stop  offset="1" style="stop-color:#2262AE"/>
</linearGradient>
<polygon class="st13" points="263,100.8 273.8,40.1 278.5,40.9 268.8,94.9 322.9,85.3 323.7,89.9 "/>
<linearGradient id="SVGID_27_" gradientUnits="userSpaceOnUse" x1="319.874" y1="320.1477" x2="34.2688" y2="34.5425" gradientTransform="matrix(1 0 0 -1 0 364)">
	<stop  offset="0" style="stop-color:#4FC9F5"/>
	<stop  offset="1" style="stop-color:#2262AE"/>
</linearGradient>
<path class="st14" d="M179.4,137.1L179.4,137.1c26.1,0,47.2,21.1,47.2,47.2v0c0,26.1-21.1,47.2-47.2,47.2h0
	c-26.1,0-47.2-21.1-47.2-47.2v0C132.2,158.2,153.4,137.1,179.4,137.1z"/>
<linearGradient id="SVGID_28_" gradientUnits="userSpaceOnUse" x1="231.5126" y1="405.9769" x2="-50.4636" y2="124.0006" gradientTransform="matrix(1 0 0 -1 0 364)">
	<stop  offset="0" style="stop-color:#4FC9F5"/>
	<stop  offset="1" style="stop-color:#2262AE"/>
</linearGradient>
<path class="st15" d="M92.9,85.3L92.9,85.3c6.3,0,11.3,5.1,11.3,11.3l0,0c0,6.3-5.1,11.3-11.3,11.3h0c-6.3,0-11.3-5.1-11.3-11.3l0,0
	C81.5,90.4,86.6,85.3,92.9,85.3z"/>
<linearGradient id="SVGID_29_" gradientUnits="userSpaceOnUse" x1="318.8855" y1="320.8654" x2="36.9092" y2="38.8892" gradientTransform="matrix(1 0 0 -1 0 364)">
	<stop  offset="0" style="stop-color:#4FC9F5"/>
	<stop  offset="1" style="stop-color:#2262AE"/>
</linearGradient>
<path class="st16" d="M265.3,85.3L265.3,85.3c6.3,0,11.3,5.1,11.3,11.3l0,0c0,6.3-5.1,11.3-11.3,11.3l0,0c-6.3,0-11.3-5.1-11.3-11.3
	l0,0C254,90.4,259.1,85.3,265.3,85.3z"/>
<linearGradient id="SVGID_30_" gradientUnits="userSpaceOnUse" x1="316.6174" y1="318.5973" x2="34.6411" y2="36.6211" gradientTransform="matrix(1 0 0 -1 0 364)">
	<stop  offset="0" style="stop-color:#4FC9F5"/>
	<stop  offset="1" style="stop-color:#2262AE"/>
</linearGradient>
<path class="st17" d="M92.9,257.8L92.9,257.8c6.3,0,11.3,5.1,11.3,11.3v0c0,6.3-5.1,11.3-11.3,11.3h0c-6.3,0-11.3-5.1-11.3-11.3v0
	C81.5,262.9,86.6,257.8,92.9,257.8z"/>
<linearGradient id="SVGID_31_" gradientUnits="userSpaceOnUse" x1="403.9902" y1="233.4858" x2="122.0139" y2="-48.4904" gradientTransform="matrix(1 0 0 -1 0 364)">
	<stop  offset="0" style="stop-color:#4FC9F5"/>
	<stop  offset="1" style="stop-color:#2262AE"/>
</linearGradient>
<path class="st18" d="M265.3,257.8L265.3,257.8c6.3,0,11.3,5.1,11.3,11.3v0c0,6.3-5.1,11.3-11.3,11.3l0,0c-6.3,0-11.3-5.1-11.3-11.3
	v0C254,262.9,259.1,257.8,265.3,257.8z"/>
<linearGradient id="SVGID_32_" gradientUnits="userSpaceOnUse" x1="378.9192" y1="260.1547" x2="96.943" y2="-21.8215" gradientTransform="matrix(1 0 0 -1 0 364)">
	<stop  offset="0" style="stop-color:#4FC9F5"/>
	<stop  offset="1" style="stop-color:#2262AE"/>
</linearGradient>
<path class="st19" d="M299.8,171.6L299.8,171.6c6.3,0,11.3,5.1,11.3,11.3l0,0c0,6.3-5.1,11.3-11.3,11.3h0c-6.3,0-11.3-5.1-11.3-11.3
	l0,0C288.5,176.7,293.6,171.6,299.8,171.6z"/>
<linearGradient id="SVGID_33_" gradientUnits="userSpaceOnUse" x1="257.4909" y1="379.308" x2="-24.4853" y2="97.3318" gradientTransform="matrix(1 0 0 -1 0 364)">
	<stop  offset="0" style="stop-color:#4FC9F5"/>
	<stop  offset="1" style="stop-color:#2262AE"/>
</linearGradient>
<path class="st20" d="M59.3,171.6L59.3,171.6c6.3,0,11.3,5.1,11.3,11.3l0,0c0,6.3-5.1,11.3-11.3,11.3l0,0c-6.3,0-11.3-5.1-11.3-11.3
	l0,0C47.9,176.7,53,171.6,59.3,171.6z"/>
<linearGradient id="SVGID_34_" gradientUnits="userSpaceOnUse" x1="377.3281" y1="258.5636" x2="95.3519" y2="-23.4126" gradientTransform="matrix(1 0 0 -1 0 364)">
	<stop  offset="0" style="stop-color:#4FC9F5"/>
	<stop  offset="1" style="stop-color:#2262AE"/>
</linearGradient>
<path class="st21" d="M190.4,303.7L190.4,303.7c0,6.3-5.1,11.3-11.3,11.3h0c-6.3,0-11.3-5.1-11.3-11.3l0,0c0-6.3,5.1-11.3,11.3-11.3
	h0C185.4,292.3,190.4,297.4,190.4,303.7z"/>
<linearGradient id="SVGID_35_" gradientUnits="userSpaceOnUse" x1="258.1815" y1="379.9851" x2="-23.7947" y2="98.0088" gradientTransform="matrix(1 0 0 -1 0 364)">
	<stop  offset="0" style="stop-color:#4FC9F5"/>
	<stop  offset="1" style="stop-color:#2262AE"/>
</linearGradient>
<path class="st22" d="M190.5,63.1L190.5,63.1c0,6.3-5.1,11.3-11.3,11.3l0,0c-6.3,0-11.3-5.1-11.3-11.3v0c0-6.3,5.1-11.3,11.3-11.3
	l0,0C185.4,51.7,190.5,56.8,190.5,63.1z"/>
<linearGradient id="SVGID_36_" gradientUnits="userSpaceOnUse" x1="250.7679" y1="388.9153" x2="-31.2083" y2="106.9391" gradientTransform="matrix(1 0 0 -1 0 364)">
	<stop  offset="0" style="stop-color:#4FC9F5"/>
	<stop  offset="1" style="stop-color:#2262AE"/>
</linearGradient>
<path class="st23" d="M224,13.2L224,13.2c0,6.3-5.1,11.3-11.3,11.3l0,0c-6.3,0-11.3-5.1-11.3-11.3v0c0-6.3,5.1-11.3,11.3-11.3l0,0
	C219,1.8,224,6.9,224,13.2z"/>
<linearGradient id="SVGID_37_" gradientUnits="userSpaceOnUse" x1="295.4461" y1="344.6162" x2="13.4699" y2="62.6399" gradientTransform="matrix(1 0 0 -1 0 364)">
	<stop  offset="0" style="stop-color:#4FC9F5"/>
	<stop  offset="1" style="stop-color:#2262AE"/>
</linearGradient>
<path class="st24" d="M286.7,39.5L286.7,39.5c0,6.3-5.1,11.3-11.3,11.3l0,0c-6.3,0-11.3-5.1-11.3-11.3v0c0-6.3,5.1-11.3,11.3-11.3
	l0,0C281.6,28.2,286.7,33.2,286.7,39.5z"/>
<linearGradient id="SVGID_38_" gradientUnits="userSpaceOnUse" x1="342.6498" y1="297.4125" x2="60.6736" y2="15.4363" gradientTransform="matrix(1 0 0 -1 0 364)">
	<stop  offset="0" style="stop-color:#4FC9F5"/>
	<stop  offset="1" style="stop-color:#2262AE"/>
</linearGradient>
<path class="st25" d="M333.9,86.7L333.9,86.7c0,6.3-5.1,11.3-11.3,11.3l0,0c-6.3,0-11.3-5.1-11.3-11.3v0c0-6.3,5.1-11.3,11.3-11.3
	l0,0C328.8,75.4,333.9,80.4,333.9,86.7z"/>
<linearGradient id="SVGID_39_" gradientUnits="userSpaceOnUse" x1="387.8291" y1="251.8135" x2="105.8529" y2="-30.1628" gradientTransform="matrix(1 0 0 -1 0 364)">
	<stop  offset="0" style="stop-color:#4FC9F5"/>
	<stop  offset="1" style="stop-color:#2262AE"/>
</linearGradient>
<path class="st26" d="M358.4,153L358.4,153c0,6.3-5.1,11.3-11.3,11.3l0,0c-6.3,0-11.3-5.1-11.3-11.3v0c0-6.3,5.1-11.3,11.3-11.3l0,0
	C353.3,141.6,358.4,146.7,358.4,153z"/>
<linearGradient id="SVGID_40_" gradientUnits="userSpaceOnUse" x1="417.8222" y1="220.9808" x2="135.846" y2="-60.9955" gradientTransform="matrix(1 0 0 -1 0 364)">
	<stop  offset="0" style="stop-color:#4FC9F5"/>
	<stop  offset="1" style="stop-color:#2262AE"/>
</linearGradient>
<path class="st27" d="M358.4,213.8L358.4,213.8c0,6.3-5.1,11.3-11.3,11.3h0c-6.3,0-11.3-5.1-11.3-11.3v0c0-6.3,5.1-11.3,11.3-11.3h0
	C353.3,202.5,358.4,207.5,358.4,213.8z"/>
<linearGradient id="SVGID_41_" gradientUnits="userSpaceOnUse" x1="437.8899" y1="200.1954" x2="155.9137" y2="-81.7808" gradientTransform="matrix(1 0 0 -1 0 364)">
	<stop  offset="0" style="stop-color:#4FC9F5"/>
	<stop  offset="1" style="stop-color:#2262AE"/>
</linearGradient>
<path class="st28" d="M333.9,279.2L333.9,279.2c0,6.3-5.1,11.3-11.3,11.3h0c-6.3,0-11.3-5.1-11.3-11.3v0c0-6.3,5.1-11.3,11.3-11.3h0
	C328.8,267.8,333.9,272.9,333.9,279.2z"/>
<linearGradient id="SVGID_42_" gradientUnits="userSpaceOnUse" x1="437.2941" y1="199.5997" x2="155.3179" y2="-82.3766" gradientTransform="matrix(1 0 0 -1 0 364)">
	<stop  offset="0" style="stop-color:#4FC9F5"/>
	<stop  offset="1" style="stop-color:#2262AE"/>
</linearGradient>
<path class="st29" d="M286.7,326.4L286.7,326.4c0,6.3-5.1,11.3-11.3,11.3h0c-6.3,0-11.3-5.1-11.3-11.3l0,0c0-6.3,5.1-11.3,11.3-11.3
	h0C281.6,315,286.7,320.1,286.7,326.4z"/>
<linearGradient id="SVGID_43_" gradientUnits="userSpaceOnUse" x1="419.3253" y1="217.0268" x2="137.3491" y2="-64.9494" gradientTransform="matrix(1 0 0 -1 0 364)">
	<stop  offset="0" style="stop-color:#4FC9F5"/>
	<stop  offset="1" style="stop-color:#2262AE"/>
</linearGradient>
<path class="st30" d="M226.8,350.9L226.8,350.9c0,6.3-5.1,11.3-11.3,11.3l0,0c-6.3,0-11.3-5.1-11.3-11.3l0,0
	c0-6.3,5.1-11.3,11.3-11.3l0,0C221.7,339.5,226.8,344.6,226.8,350.9z"/>
<linearGradient id="SVGID_44_" gradientUnits="userSpaceOnUse" x1="385.6828" y1="249.6537" x2="103.7066" y2="-32.3225" gradientTransform="matrix(1 0 0 -1 0 364)">
	<stop  offset="0" style="stop-color:#4FC9F5"/>
	<stop  offset="1" style="stop-color:#2262AE"/>
</linearGradient>
<path class="st31" d="M160.5,350.9L160.5,350.9c0,6.3-5.1,11.3-11.3,11.3l0,0c-6.3,0-11.3-5.1-11.3-11.3l0,0
	c0-6.3,5.1-11.3,11.3-11.3l0,0C155.4,339.5,160.5,344.6,160.5,350.9z"/>
<linearGradient id="SVGID_45_" gradientUnits="userSpaceOnUse" x1="340.0703" y1="294.8329" x2="58.094" y2="12.8567" gradientTransform="matrix(1 0 0 -1 0 364)">
	<stop  offset="0" style="stop-color:#4FC9F5"/>
	<stop  offset="1" style="stop-color:#2262AE"/>
</linearGradient>
<path class="st32" d="M94.2,326.4L94.2,326.4c0,6.3-5.1,11.3-11.3,11.3h0c-6.3,0-11.3-5.1-11.3-11.3l0,0c0-6.3,5.1-11.3,11.3-11.3h0
	C89.1,315,94.2,320.1,94.2,326.4z"/>
<linearGradient id="SVGID_46_" gradientUnits="userSpaceOnUse" x1="292.8666" y1="342.0501" x2="10.8904" y2="60.074" gradientTransform="matrix(1 0 0 -1 0 364)">
	<stop  offset="0" style="stop-color:#4FC9F5"/>
	<stop  offset="1" style="stop-color:#2262AE"/>
</linearGradient>
<path class="st33" d="M47,279.2L47,279.2c0,6.3-5.1,11.3-11.3,11.3h0c-6.3,0-11.3-5.1-11.3-11.3l0,0c0-6.3,5.1-11.3,11.3-11.3h0
	C41.9,267.8,47,272.9,47,279.2z"/>
<linearGradient id="SVGID_47_" gradientUnits="userSpaceOnUse" x1="251.2282" y1="384.8395" x2="-30.748" y2="102.8633" gradientTransform="matrix(1 0 0 -1 0 364)">
	<stop  offset="0" style="stop-color:#4FC9F5"/>
	<stop  offset="1" style="stop-color:#2262AE"/>
</linearGradient>
<path class="st34" d="M23.4,218.3L23.4,218.3c0,6.3-5.1,11.3-11.3,11.3h0c-6.3,0-11.3-5.1-11.3-11.3l0,0c0-6.3,5.1-11.3,11.3-11.3h0
	C18.3,207,23.4,212.1,23.4,218.3z"/>
<linearGradient id="SVGID_48_" gradientUnits="userSpaceOnUse" x1="215.9677" y1="420.3844" x2="-66.0085" y2="138.4082" gradientTransform="matrix(1 0 0 -1 0 364)">
	<stop  offset="0" style="stop-color:#4FC9F5"/>
	<stop  offset="1" style="stop-color:#2262AE"/>
</linearGradient>
<path class="st35" d="M23.4,147.5L23.4,147.5c0,6.3-5.1,11.3-11.3,11.3h0c-6.3,0-11.3-5.1-11.3-11.3l0,0c0-6.3,5.1-11.3,11.3-11.3h0
	C18.3,136.2,23.4,141.3,23.4,147.5z"/>
<linearGradient id="SVGID_49_" gradientUnits="userSpaceOnUse" x1="197.6129" y1="439.2672" x2="-84.3633" y2="157.291" gradientTransform="matrix(1 0 0 -1 0 364)">
	<stop  offset="0" style="stop-color:#4FC9F5"/>
	<stop  offset="1" style="stop-color:#2262AE"/>
</linearGradient>
<path class="st36" d="M47,86.7L47,86.7C47,93,41.9,98,35.7,98h0c-6.3,0-11.3-5.1-11.3-11.3l0,0c0-6.3,5.1-11.3,11.3-11.3h0
	C41.9,75.3,47,80.4,47,86.7z"/>
<linearGradient id="SVGID_50_" gradientUnits="userSpaceOnUse" x1="198.2183" y1="439.8535" x2="-83.7579" y2="157.8908" gradientTransform="matrix(1 0 0 -1 0 364)">
	<stop  offset="0" style="stop-color:#4FC9F5"/>
	<stop  offset="1" style="stop-color:#2262AE"/>
</linearGradient>
<path class="st37" d="M94.2,39.5L94.2,39.5c0,6.3-5.1,11.3-11.3,11.3l0,0c-6.3,0-11.3-5.1-11.3-11.3l0,0c0-6.3,5.1-11.3,11.3-11.3
	l0,0C89.1,28.1,94.2,33.2,94.2,39.5z"/>
<linearGradient id="SVGID_51_" gradientUnits="userSpaceOnUse" x1="215.0672" y1="424.0337" x2="-66.909" y2="142.0575" gradientTransform="matrix(1 0 0 -1 0 364)">
	<stop  offset="0" style="stop-color:#4FC9F5"/>
	<stop  offset="1" style="stop-color:#2262AE"/>
</linearGradient>
<path class="st38" d="M155,11.3L155,11.3c0,6.3-5.1,11.3-11.3,11.3l0,0c-6.3,0-11.3-5.1-11.3-11.3v0c0-6.3,5.1-11.3,11.3-11.3l0,0
	C150,0,155,5.1,155,11.3z"/>
</svg>
