<?xml version="1.0" encoding="UTF-8"?>
<svg width="1287px" height="363px" viewBox="0 0 1287 363" version="1.1" xmlns="http://www.w3.org/2000/svg" xmlns:xlink="http://www.w3.org/1999/xlink">
    <title>onesite-cloud-logo</title>
    <g id="Page-1" stroke="none" stroke-width="1" fill="none" fill-rule="evenodd">
        <g id="onesite-cloud-logo" fill="#FFFFFF" fill-rule="nonzero">
            <g id="Group" transform="translate(426.000000, 27.000000)">
                <path d="M88.2,0.1 C136.7,0.1 175.5,38.4 175.5,87.6 C175.5,137.8 136.7,177.3 88.2,177.3 C39.7,177.3 0.9,137.8 0.9,87.6 C0.9,38.4 39.6,0.1 88.2,0.1 L88.2,0.1 Z M88.2,161.8 C126.7,161.8 157.9,129.7 157.9,87.7 C157.9,46.8 126.7,15.8 88.2,15.8 C49.4,15.8 18.4997587,46.8 18.4997587,87.7 C18.4,129.6 49.4,161.8 88.2,161.8 L88.2,161.8 Z" id="Shape"></path>
                <path d="M208.5,52.1 L225.1,52.1 L225.1,70 C225.1,73.3 224.9,76.5 224.6,79.8 L225.1,79.8 C229.5,68.6 245.1,48.8 274.1,48.8 C304.3,48.8 315,66.1 315,96.4 L315,174.6 L298.4,174.6 L298.4,101 C298.4,81.7 295.5,64.7 271.8,64.7 C250.9,64.9 232.5,79.1 227.1,99.3 C225.7,104.7 225,110.3 225.1,115.9 L225.1,174.7 L208.5,174.7 L208.5,52.1 L208.5,52.1 Z" id="Path"></path>
                <path d="M405,48.6 C438.9,48.6 456.2,74.7 456.2,105.2 C456.2,108.1 455.7,113.7 455.7,113.7 L361.6,113.7 C362.3,145.1 383.8,162.2 409.1,162.2 C431.5,162.2 446.4,147.3 446.4,147.3 L454,160 C441.4,170.9 425.3,176.9 408.6,177.1 C372,177.1 344.5,150.8 344.5,113 C344.6,72.7 371.9,48.6 405,48.6 L405,48.6 Z M439.4,100.5 C438.4,74.9 422.8,63 404.6,63 C384.1,63 366.3,75.9 362.4,100.5 L439.4,100.5 L439.4,100.5 Z" id="Shape"></path>
                <path d="M490.2,142.5 C490.2,142.5 508,161.2 535.1,161.2 C553.8,161.2 569.2,150 569.2,131.5 C569.2,88.4 483.6,99.4 483.6,46.2 C483.6,21.6 505.3,0.1 537,0.1 C566.7,0.1 582.8,16.7 582.8,16.7 L574.5,30.9 C574.5,30.9 559.4,16.3 537,16.3 C515.1,16.3 500.9,30.7 500.9,45.8 C500.9,86.5 586.5,74.8 586.5,131.1 C586.5,156.7 566.8,177.4 534.6,177.4 C499.5,177.4 480.2,155.5 480.2,155.5 L490.2,142.5 L490.2,142.5 Z" id="Path"></path>
                <path d="M618.7,3 L636,3 L636,23.7 L618.7,23.7 L618.7,3 L618.7,3 Z M619.4,52.1 L636,52.1 L636,174.5 L619.4,174.5 L619.4,52.1 L619.4,52.1 Z" id="Shape"></path>
                <path d="M680.2,67.3 L664.3,67.3 L664.3,53.4 L680.2,53.4 L680.2,18.2 L696.8,18.2 L696.8,53.4 L727.2,53.4 L727.2,67.3 L696.8,67.3 L696.8,128.3 C696.8,157.1 715.1,160.7 724.4,160.7 C726.3,160.7 728.2,160.6 730,160.2 L730,175.1 C727.7,175.5 725.3,175.6 722.9,175.6 C708.8,175.6 680.2,171 680.2,130 L680.2,67.3 L680.2,67.3 Z" id="Path"></path>
                <path d="M809.3,48.6 C843.2,48.6 860.5,74.7 860.5,105.2 C860.5,108.1 860,113.7 860,113.7 L765.9,113.7 C766.6,145.1 788.1,162.2 813.4,162.2 C835.8,162.2 850.7,147.3 850.7,147.3 L858.2,160 C845.6,170.9 829.5,176.9 812.9,177.1 C776.3,177.1 748.8,150.8 748.8,113 C748.8,72.7 776.1,48.6 809.3,48.6 L809.3,48.6 Z M843.7,100.5 C842.7,74.9 827.1,63 808.9,63 C788.4,63 770.6,75.9 766.7,100.5 L843.7,100.5 L843.7,100.5 Z" id="Shape"></path>
                <path d="M0.2,269.6 C0.2,293.7 17.6,313 42.1,313 C62.5,313 73.8,300.2 73.8,300.2 L69.1,294.4 C69.1,294.4 59,305.5 42.2,305.5 C22.5,305.5 8.6,289.4 8.6,269.6 C8.6,250 22.5,235 41.9,235 C57.5,235 67.1,244.2 67.1,244.2 L71.5,238.2 C71.5,238.2 61.5,227.5 41.7,227.5 C18.1,227.3 0.2,245.5 0.2,269.6 L0.2,269.6 Z" id="Path"></path>
                <path d="M88.5,297.5 C88.5,310.5 97.2,312 102.2,312 C103.7,312 105.1,311.8 105.1,311.8 L105.1,304.6 C105.1,304.6 104.2,304.7 103.1,304.7 C100,304.7 96.5,303.5 96.5,295.7 L96.5,228.7 L88.5,228.7 L88.5,297.5 L88.5,297.5 Z" id="Path"></path>
                <path d="M113.9,281.6 C113.9,299.5 127.9,312.9 145.2,312.9 C162.5,312.9 176.5,299.5 176.5,281.6 C176.5,264 162.5,250.899436 145.2,250.899436 C127.9,250.8 113.9,264 113.9,281.6 L113.9,281.6 Z M122.1,281.6 C122.1,268.2 132.5,258.2 145.2,258.2 C157.9,258.2 168.3,268.2 168.3,281.6 C168.3,295.4 157.9,305.7 145.2,305.7 C132.5,305.7 122.1,295.4 122.1,281.6 L122.1,281.6 Z" id="Shape"></path>
                <path d="M190.7,289.9 C190.7,305.3 196.6,312.9 210.5,312.9 C223.6,312.9 231.4,303.7 233.7,297.9 L233.9,297.9 C233.9,297.9 233.7,300 233.7,302.6 L233.7,311.4 L241.5,311.4 L241.5,252.1 L233.5,252.1 L233.5,280.5 C233.5,293.3 225.1,305.2 211.6,305.2 C200.2,305.2 198.8,297 198.8,287.6 L198.8,252 L190.8,252 L190.8,289.9 L190.7,289.9 Z" id="Path"></path>
                <path d="M256.9,281.8 C256.9,300.2 266.8,312.9 282.7,312.9 C298.2,312.9 303.1,301 303.1,301 L303.3,301 C303.3,301 303.1,302.7 303.1,305.2 L303.1,311.4 L310.9,311.4 L310.9,228.6 L302.9,228.6 L302.9,257.5 C302.9,260 303.1,262 303.1,262 L302.9,262 C302.9,262 298,250.8 283.6,250.8 C268,250.8 256.9,263.1 256.9,281.8 L256.9,281.8 Z M265.1,281.8 C265.1,266.8 273.7,258 284.2,258 C296.9,258 303,269.8 303,281.8 C303,298.6 293.7,305.7 283.8,305.7 C272.8,305.7 265.1,296.4 265.1,281.8 L265.1,281.8 Z" id="Shape"></path>
            </g>
            <polygon id="Path" points="96.7 100.8 36 89.9 36.9 85.3 90.9 94.9 81.2 40.9 85.9 40.1"></polygon>
            <polygon id="Path" points="179.9 67.6 142.3 13.6 146.2 10.9 179.8 59.3 211.7 12.9 215.5 15.6"></polygon>
            <rect id="Rectangle" x="177.3" y="61.1" width="4.5" height="245.1"></rect>
            <rect id="Rectangle" x="57.5" y="181.9" width="245.1" height="4.5"></rect>
            <polygon id="Path" points="91.6 98.9 94.9 95.6 268.2 268.9 264.8 272.2"></polygon>
            <polygon id="Path" points="91.6 268.9 264.8 95.6 268.2 98.9 94.9 272.2"></polygon>
            <polygon id="Path" points="13.7 221.4 10.8 217.7 55.5 183.9 10.8 150.1 13.7 146.4 63.3 183.9"></polygon>
            <polygon id="Path" points="85.9 327.7 81.2 326.9 90.9 272.9 36.9 282.5 36 277.9 96.7 267"></polygon>
            <polygon id="Path" points="213.6 352.9 180 308.5 151.5 352.8 147.6 350.2 179.7 300.3 217.4 350.1"></polygon>
            <polygon id="Path" points="273.8 327.7 263 267 323.7 277.9 322.9 282.5 268.8 272.9 278.5 326.9"></polygon>
            <polygon id="Path" points="346.2 216.2 296 183.9 346.2 151.6 348.7 155.6 304.7 183.9 348.7 212.2"></polygon>
            <polygon id="Path" points="263 100.8 273.8 40.1 278.5 40.9 268.8 94.9 322.9 85.3 323.7 89.9"></polygon>
            <path d="M179.4,137.1 L179.4,137.1 C205.5,137.1 226.6,158.2 226.6,184.3 L226.6,184.3 C226.6,210.4 205.5,231.5 179.4,231.5 L179.4,231.5 C153.3,231.5 132.2,210.4 132.2,184.3 L132.2,184.3 C132.2,158.2 153.4,137.1 179.4,137.1 Z" id="Path"></path>
            <path d="M92.9,85.3 L92.9,85.3 C99.2,85.3 104.2,90.4 104.2,96.6 L104.2,96.6 C104.2,102.9 99.1,107.9 92.9,107.9 L92.9,107.9 C86.6,107.9 81.6,102.8 81.6,96.6 L81.6,96.6 C81.5,90.4 86.6,85.3 92.9,85.3 Z" id="Path"></path>
            <path d="M265.3,85.3 L265.3,85.3 C271.6,85.3 276.6,90.4 276.6,96.6 L276.6,96.6 C276.6,102.9 271.5,107.9 265.3,107.9 L265.3,107.9 C259,107.9 254,102.8 254,96.6 L254,96.6 C254,90.4 259.1,85.3 265.3,85.3 Z" id="Path"></path>
            <path d="M92.9,257.8 L92.9,257.8 C99.2,257.8 104.2,262.9 104.2,269.1 L104.2,269.1 C104.2,275.4 99.1,280.4 92.9,280.4 L92.9,280.4 C86.6,280.4 81.6,275.3 81.6,269.1 L81.6,269.1 C81.5,262.9 86.6,257.8 92.9,257.8 Z" id="Path"></path>
            <path d="M265.3,257.8 L265.3,257.8 C271.6,257.8 276.6,262.9 276.6,269.1 L276.6,269.1 C276.6,275.4 271.5,280.4 265.3,280.4 L265.3,280.4 C259,280.4 254,275.3 254,269.1 L254,269.1 C254,262.9 259.1,257.8 265.3,257.8 Z" id="Path"></path>
            <path d="M299.8,171.6 L299.8,171.6 C306.1,171.6 311.1,176.7 311.1,182.9 L311.1,182.9 C311.1,189.2 306,194.2 299.8,194.2 L299.8,194.2 C293.5,194.2 288.5,189.1 288.5,182.9 L288.5,182.9 C288.5,176.7 293.6,171.6 299.8,171.6 Z" id="Path"></path>
            <path d="M59.3,171.6 L59.3,171.6 C65.6,171.6 70.6,176.7 70.6,182.9 L70.6,182.9 C70.6,189.2 65.5,194.2 59.3,194.2 L59.3,194.2 C53,194.2 48,189.1 48,182.9 L48,182.9 C47.9,176.7 53,171.6 59.3,171.6 Z" id="Path"></path>
            <path d="M190.4,303.7 L190.4,303.7 C190.4,310 185.3,315 179.1,315 L179.1,315 C172.8,315 167.8,309.9 167.8,303.7 L167.8,303.7 C167.8,297.4 172.9,292.4 179.1,292.4 L179.1,292.4 C185.4,292.3 190.4,297.4 190.4,303.7 Z" id="Path"></path>
            <path d="M190.5,63.1 L190.5,63.1 C190.5,69.4 185.4,74.4 179.2,74.4 L179.2,74.4 C172.9,74.4 167.9,69.3 167.9,63.1 L167.9,63.1 C167.9,56.8 173,51.8 179.2,51.8 L179.2,51.8 C185.4,51.7 190.5,56.8 190.5,63.1 Z" id="Path"></path>
            <path d="M224,13.2 L224,13.2 C224,19.5 218.9,24.5 212.7,24.5 L212.7,24.5 C206.4,24.5 201.4,19.4 201.4,13.2 L201.4,13.2 C201.4,6.9 206.5,1.9 212.7,1.9 L212.7,1.9 C219,1.8 224,6.9 224,13.2 Z" id="Path"></path>
            <path d="M286.7,39.5 L286.7,39.5 C286.7,45.8 281.6,50.8 275.4,50.8 L275.4,50.8 C269.1,50.8 264.1,45.7 264.1,39.5 L264.1,39.5 C264.1,33.2 269.2,28.2 275.4,28.2 L275.4,28.2 C281.6,28.2 286.7,33.2 286.7,39.5 Z" id="Path"></path>
            <path d="M333.9,86.7 L333.9,86.7 C333.9,93 328.8,98 322.6,98 L322.6,98 C316.3,98 311.3,92.9 311.3,86.7 L311.3,86.7 C311.3,80.4 316.4,75.4 322.6,75.4 L322.6,75.4 C328.8,75.4 333.9,80.4 333.9,86.7 Z" id="Path"></path>
            <path d="M358.4,153 L358.4,153 C358.4,159.3 353.3,164.3 347.1,164.3 L347.1,164.3 C340.8,164.3 335.8,159.2 335.8,153 L335.8,153 C335.8,146.7 340.9,141.7 347.1,141.7 L347.1,141.7 C353.3,141.6 358.4,146.7 358.4,153 Z" id="Path"></path>
            <path d="M358.4,213.8 L358.4,213.8 C358.4,220.1 353.3,225.1 347.1,225.1 L347.1,225.1 C340.8,225.1 335.8,220 335.8,213.8 L335.8,213.8 C335.8,207.5 340.9,202.5 347.1,202.5 L347.1,202.5 C353.3,202.5 358.4,207.5 358.4,213.8 Z" id="Path"></path>
            <path d="M333.9,279.2 L333.9,279.2 C333.9,285.5 328.8,290.5 322.6,290.5 L322.6,290.5 C316.3,290.5 311.3,285.4 311.3,279.2 L311.3,279.2 C311.3,272.9 316.4,267.9 322.6,267.9 L322.6,267.9 C328.8,267.8 333.9,272.9 333.9,279.2 Z" id="Path"></path>
            <path d="M286.7,326.4 L286.7,326.4 C286.7,332.7 281.6,337.7 275.4,337.7 L275.4,337.7 C269.1,337.7 264.1,332.6 264.1,326.4 L264.1,326.4 C264.1,320.1 269.2,315.1 275.4,315.1 L275.4,315.1 C281.6,315 286.7,320.1 286.7,326.4 Z" id="Path"></path>
            <path d="M226.8,350.9 L226.8,350.9 C226.8,357.2 221.7,362.2 215.5,362.2 L215.5,362.2 C209.2,362.2 204.2,357.1 204.2,350.9 L204.2,350.9 C204.2,344.6 209.3,339.6 215.5,339.6 L215.5,339.6 C221.7,339.5 226.8,344.6 226.8,350.9 Z" id="Path"></path>
            <path d="M160.5,350.9 L160.5,350.9 C160.5,357.2 155.4,362.2 149.2,362.2 L149.2,362.2 C142.9,362.2 137.9,357.1 137.9,350.9 L137.9,350.9 C137.9,344.6 143,339.6 149.2,339.6 L149.2,339.6 C155.4,339.5 160.5,344.6 160.5,350.9 Z" id="Path"></path>
            <path d="M94.2,326.4 L94.2,326.4 C94.2,332.7 89.1,337.7 82.9,337.7 L82.9,337.7 C76.6,337.7 71.6,332.6 71.6,326.4 L71.6,326.4 C71.6,320.1 76.7,315.1 82.9,315.1 L82.9,315.1 C89.1,315 94.2,320.1 94.2,326.4 Z" id="Path"></path>
            <path d="M47,279.2 L47,279.2 C47,285.5 41.9,290.5 35.7,290.5 L35.7,290.5 C29.4,290.5 24.4,285.4 24.4,279.2 L24.4,279.2 C24.4,272.9 29.5,267.9 35.7,267.9 L35.7,267.9 C41.9,267.8 47,272.9 47,279.2 Z" id="Path"></path>
            <path d="M23.4,218.3 L23.4,218.3 C23.4,224.6 18.3,229.6 12.1,229.6 L12.1,229.6 C5.8,229.6 0.8,224.5 0.8,218.3 L0.8,218.3 C0.8,212 5.9,207 12.1,207 L12.1,207 C18.3,207 23.4,212.1 23.4,218.3 Z" id="Path"></path>
            <path d="M23.4,147.5 L23.4,147.5 C23.4,153.8 18.3,158.8 12.1,158.8 L12.1,158.8 C5.8,158.8 0.8,153.7 0.8,147.5 L0.8,147.5 C0.8,141.2 5.9,136.2 12.1,136.2 L12.1,136.2 C18.3,136.2 23.4,141.3 23.4,147.5 Z" id="Path"></path>
            <path d="M47,86.7 L47,86.7 C47,93 41.9,98 35.7,98 L35.7,98 C29.4,98 24.4,92.9 24.4,86.7 L24.4,86.7 C24.4,80.4 29.5,75.4 35.7,75.4 L35.7,75.4 C41.9,75.3 47,80.4 47,86.7 Z" id="Path"></path>
            <path d="M94.2,39.5 L94.2,39.5 C94.2,45.8 89.1,50.8 82.9,50.8 L82.9,50.8 C76.6,50.8 71.6,45.7 71.6,39.5 L71.6,39.5 C71.6,33.2 76.7,28.2 82.9,28.2 L82.9,28.2 C89.1,28.1 94.2,33.2 94.2,39.5 Z" id="Path"></path>
            <path d="M155,11.3 L155,11.3 C155,17.6 149.9,22.6 143.7,22.6 L143.7,22.6 C137.4,22.6 132.4,17.5 132.4,11.3 L132.4,11.3 C132.4,5 137.5,0 143.7,0 L143.7,0 C150,0 155,5.1 155,11.3 Z" id="Path"></path>
        </g>
    </g>
</svg>