<svg xmlns="http://www.w3.org/2000/svg" xmlns:xlink="http://www.w3.org/1999/xlink" viewBox="0 0 1242.78 845.03">
  <defs>
    <style>
      .cls-1{fill:url(#onesite-logo-v-linear-gradient);}.cls-2{fill:url(#onesite-logo-v-linear-gradient-2);}.cls-3{fill:url(#onesite-logo-v-linear-gradient-3);}.cls-4{fill:url(#onesite-logo-v-linear-gradient-4);}.cls-5{fill:url(#onesite-logo-v-linear-gradient-5);}.cls-6{fill:url(#onesite-logo-v-linear-gradient-6);}.cls-7{fill:url(#onesite-logo-v-linear-gradient-7);}.cls-8{fill:url(#onesite-logo-v-linear-gradient-8);}.cls-9{fill:url(#onesite-logo-v-linear-gradient-9);}.cls-10{fill:url(#onesite-logo-v-linear-gradient-10);}.cls-11{fill:url(#onesite-logo-v-linear-gradient-11);}.cls-12{fill:url(#onesite-logo-v-linear-gradient-12);}.cls-13{fill:url(#onesite-logo-v-linear-gradient-13);}.cls-14{fill:url(#onesite-logo-v-linear-gradient-14);}.cls-15{fill:url(#onesite-logo-v-linear-gradient-17);}.cls-16{fill:url(#onesite-logo-v-linear-gradient-18);}.cls-17{fill:url(#onesite-logo-v-linear-gradient-19);}.cls-18{fill:url(#onesite-logo-v-linear-gradient-20);}.cls-19{fill:url(#onesite-logo-v-linear-gradient-21);}.cls-20{fill:url(#onesite-logo-v-linear-gradient-22);}.cls-21{fill:url(#onesite-logo-v-linear-gradient-23);}.cls-22{fill:url(#onesite-logo-v-linear-gradient-24);}.cls-23{fill:url(#onesite-logo-v-linear-gradient-25);}.cls-24{fill:url(#onesite-logo-v-linear-gradient-26);}.cls-25{fill:url(#onesite-logo-v-linear-gradient-27);}.cls-26{fill:url(#onesite-logo-v-linear-gradient-28);}.cls-27{fill:url(#onesite-logo-v-linear-gradient-29);}.cls-28{fill:url(#onesite-logo-v-linear-gradient-30);}.cls-29{fill:url(#onesite-logo-v-linear-gradient-31);}.cls-30{fill:url(#onesite-logo-v-linear-gradient-32);}.cls-31{fill:url(#onesite-logo-v-linear-gradient-33);}.cls-32{fill:url(#onesite-logo-v-linear-gradient-34);}.cls-33{fill:url(#onesite-logo-v-linear-gradient-35);}.cls-34{fill:url(#onesite-logo-v-linear-gradient-36);}.cls-35{fill:url(#onesite-logo-v-linear-gradient-37);}.cls-36{fill:#404041;}
    </style>
    <linearGradient id="onesite-logo-v-linear-gradient" x1="536.52" y1="61.97" x2="481.61" y2="116.89" gradientUnits="userSpaceOnUse">
      <stop offset="0" stop-color="#41cdfc"/>
      <stop offset="1" stop-color="#0860b8"/>
    </linearGradient>
    <linearGradient id="onesite-logo-v-linear-gradient-2" x1="644.45" y1=".12" x2="596.18" y2="48.39" xlink:href="#onesite-logo-v-linear-gradient"/>
    <linearGradient id="onesite-logo-v-linear-gradient-3" x1="621.39" y1="66.8" x2="621.39" y2="336.71" xlink:href="#onesite-logo-v-linear-gradient"/>
    <linearGradient id="onesite-logo-v-linear-gradient-4" x1="2960.63" y1="607.56" x2="2960.63" y2="877.47" gradientTransform="rotate(90 2061.39 -697.49)" xlink:href="#onesite-logo-v-linear-gradient"/>
    <linearGradient id="onesite-logo-v-linear-gradient-5" x1="407.3" y1="-1214.82" x2="407.3" y2="-944.9" gradientTransform="translate(214.1 1281.62)" xlink:href="#onesite-logo-v-linear-gradient"/>
    <linearGradient id="onesite-logo-v-linear-gradient-6" x1="1679.02" y1="821.65" x2="1679.02" y2="1091.56" gradientTransform="rotate(90 1527.63 50.37)" xlink:href="#onesite-logo-v-linear-gradient"/>
    <linearGradient id="onesite-logo-v-linear-gradient-7" x1="435.22" y1="201.76" x2="492.99" y2="201.76" gradientUnits="userSpaceOnUse">
      <stop offset="0" stop-color="#0860b8"/>
      <stop offset="1" stop-color="#41cdfc"/>
    </linearGradient>
    <linearGradient id="onesite-logo-v-linear-gradient-8" x1="529.81" y1="293.33" x2="488.32" y2="334.83" xlink:href="#onesite-logo-v-linear-gradient"/>
    <linearGradient id="onesite-logo-v-linear-gradient-9" x1="645.31" y1="354.02" x2="600.09" y2="399.24" xlink:href="#onesite-logo-v-linear-gradient"/>
    <linearGradient id="onesite-logo-v-linear-gradient-10" x1="761.17" y1="286.62" x2="706.25" y2="341.54" xlink:href="#onesite-logo-v-linear-gradient"/>
    <linearGradient id="onesite-logo-v-linear-gradient-11" x1="817.45" y1="179.04" x2="772.01" y2="224.48" xlink:href="#onesite-logo-v-linear-gradient"/>
    <linearGradient id="onesite-logo-v-linear-gradient-12" x1="754.46" y1="68.69" x2="712.97" y2="110.18" xlink:href="#onesite-logo-v-linear-gradient"/>
    <linearGradient id="onesite-logo-v-linear-gradient-13" x1="775.81" y1="47.34" x2="461.78" y2="361.37" xlink:href="#onesite-logo-v-linear-gradient"/>
    <linearGradient id="onesite-logo-v-linear-gradient-14" x1="681.03" y1="-47.45" x2="366.99" y2="266.58" xlink:href="#onesite-logo-v-linear-gradient"/>
    <linearGradient id="onesite-logo-v-linear-gradient-17" x1="870.6" y1="142.12" x2="556.56" y2="456.15" xlink:href="#onesite-logo-v-linear-gradient"/>
    <linearGradient id="onesite-logo-v-linear-gradient-18" x1="842.16" y1="113.69" x2="528.13" y2="427.72" xlink:href="#onesite-logo-v-linear-gradient"/>
    <linearGradient id="onesite-logo-v-linear-gradient-19" x1="709.46" y1="-19.01" x2="395.43" y2="295.02" xlink:href="#onesite-logo-v-linear-gradient"/>
    <linearGradient id="onesite-logo-v-linear-gradient-20" x1="842.16" y1="113.69" x2="528.13" y2="427.72" gradientTransform="rotate(-90 621.39 334.46)" xlink:href="#onesite-logo-v-linear-gradient"/>
    <linearGradient id="onesite-logo-v-linear-gradient-21" x1="709.46" y1="-19.01" x2="395.43" y2="295.02" gradientTransform="rotate(-90 621.39 69.06)" xlink:href="#onesite-logo-v-linear-gradient"/>
    <linearGradient id="onesite-logo-v-linear-gradient-22" x1="700.96" y1="-27.51" x2="386.93" y2="286.52" gradientTransform="rotate(-90 658.555 14.895)" xlink:href="#onesite-logo-v-linear-gradient"/>
    <linearGradient id="onesite-logo-v-linear-gradient-23" x1="749.86" y1="21.38" x2="435.83" y2="335.42" gradientTransform="rotate(-90 727.46 43.78)" xlink:href="#onesite-logo-v-linear-gradient"/>
    <linearGradient id="onesite-logo-v-linear-gradient-24" x1="801.76" y1="73.29" x2="487.73" y2="387.32" gradientTransform="rotate(-90 779.365 95.685)" xlink:href="#onesite-logo-v-linear-gradient"/>
    <linearGradient id="onesite-logo-v-linear-gradient-25" x1="851.41" y1="122.94" x2="537.38" y2="436.97" gradientTransform="rotate(-90 805.995 168.355)" xlink:href="#onesite-logo-v-linear-gradient"/>
    <linearGradient id="onesite-logo-v-linear-gradient-26" x1="884.81" y1="156.34" x2="570.78" y2="470.37" gradientTransform="rotate(-90 805.995 235.155)" xlink:href="#onesite-logo-v-linear-gradient"/>
    <linearGradient id="onesite-logo-v-linear-gradient-27" x1="907.83" y1="179.36" x2="593.8" y2="493.39" gradientTransform="rotate(-90 779.365 307.825)" xlink:href="#onesite-logo-v-linear-gradient"/>
    <linearGradient id="onesite-logo-v-linear-gradient-28" x1="907.83" y1="179.36" x2="593.8" y2="493.39" gradientTransform="rotate(-90 727.46 359.73)" xlink:href="#onesite-logo-v-linear-gradient"/>
    <linearGradient id="onesite-logo-v-linear-gradient-29" x1="887.75" y1="159.27" x2="573.72" y2="473.3" gradientTransform="rotate(-90 660.66 386.36)" xlink:href="#onesite-logo-v-linear-gradient"/>
    <linearGradient id="onesite-logo-v-linear-gradient-30" x1="851.41" y1="122.94" x2="537.38" y2="436.97" gradientTransform="rotate(-90 587.99 386.36)" xlink:href="#onesite-logo-v-linear-gradient"/>
    <linearGradient id="onesite-logo-v-linear-gradient-31" x1="801.76" y1="73.29" x2="487.73" y2="387.32" gradientTransform="rotate(-90 515.32 359.73)" xlink:href="#onesite-logo-v-linear-gradient"/>
    <linearGradient id="onesite-logo-v-linear-gradient-32" x1="749.86" y1="21.38" x2="435.83" y2="335.42" gradientTransform="rotate(-90 463.415 307.825)" xlink:href="#onesite-logo-v-linear-gradient"/>
    <linearGradient id="onesite-logo-v-linear-gradient-33" x1="703.14" y1="-25.33" x2="389.11" y2="288.7" gradientTransform="rotate(-90 436.785 241.025)" xlink:href="#onesite-logo-v-linear-gradient"/>
    <linearGradient id="onesite-logo-v-linear-gradient-34" x1="663.87" y1="-64.6" x2="349.84" y2="249.43" gradientTransform="rotate(-90 436.785 162.485)" xlink:href="#onesite-logo-v-linear-gradient"/>
    <linearGradient id="onesite-logo-v-linear-gradient-35" x1="643.79" y1="-84.69" x2="329.76" y2="229.35" gradientTransform="rotate(-90 463.415 95.685)" xlink:href="#onesite-logo-v-linear-gradient"/>
    <linearGradient id="onesite-logo-v-linear-gradient-36" x1="643.79" y1="-84.69" x2="329.76" y2="229.35" gradientTransform="rotate(-90 515.32 43.78)" xlink:href="#onesite-logo-v-linear-gradient"/>
    <linearGradient id="onesite-logo-v-linear-gradient-37" x1="661.62" y1="-66.86" x2="347.58" y2="247.17" gradientTransform="rotate(-90 582.12 12.64)" xlink:href="#onesite-logo-v-linear-gradient"/>
  </defs>
  <title>
    onesite-logo-v
  </title>
  <g id="Layer_2" data-name="Layer 2">
    <g id="Layer_1-2" data-name="Layer 1">
      <path class="cls-1" d="M529.81 110.18l-66.85-11.94.91-5.11 59.52 10.63-10.62-59.52 5.11-.91 11.93 66.85z"/>
      <path class="cls-2" d="M621.4 73.62l-41.41-59.5 4.26-2.96 37.12 53.33 35.05-51.06 4.28 2.93-39.3 57.26z"/>
      <path class="cls-3" d="M618.79 66.8h5.19v269.91h-5.19z"/>
      <path class="cls-4" d="M486.43 199.16h269.91v5.19H486.43z"/>
      <path class="cls-5" d="M524.125 108.164l3.67-3.67L718.65 295.35l-3.67 3.67z"/>
      <path class="cls-6" d="M524.125 295.35L714.98 104.493l3.67 3.67L527.795 299.02z"/>
      <path class="cls-7" d="M438.35 243.09l-3.13-4.13 49.17-37.2-49.17-37.2 3.13-4.14 54.64 41.34-54.64 41.33z"/>
      <path class="cls-8" d="M517.88 360.19l-5.11-.91 10.62-59.53-59.52 10.63-.91-5.11 66.85-11.94-11.93 66.86z"/>
      <path class="cls-9" d="M658.59 387.93l-37.03-48.94-31.39 48.78-4.36-2.81 35.41-55.03 41.51 54.87-4.14 3.13z"/>
      <path class="cls-10" d="M724.9 360.19l-11.93-66.86 66.85 11.94-.91 5.11-59.53-10.63 10.63 59.53-5.11.91z"/>
      <path class="cls-11" d="M804.59 237.34l-55.3-35.58 55.3-35.59 2.81 4.37-48.52 31.22 48.52 31.22-2.81 4.36z"/>
      <path class="cls-12" d="M712.97 110.18l11.93-66.85 5.11.91-10.63 59.52 59.53-10.63.91 5.11-66.85 11.94z"/>
      <rect class="cls-13" x="569.48" y="149.85" width="103.81" height="103.81" rx="51.91" ry="51.91"/>
      <rect class="cls-14" x="513.97" y="94.33" width="25.28" height="25.28" rx="12.64" ry="12.64"/>
      <rect class="cls-13" x="703.54" y="94.33" width="25.28" height="25.28" rx="12.64" ry="12.64"/>
      <rect class="cls-13" x="513.97" y="283.9" width="25.28" height="25.28" rx="12.64" ry="12.64"/>
      <rect class="cls-15" x="703.54" y="283.9" width="25.28" height="25.28" rx="12.64" ry="12.64"/>
      <rect class="cls-16" x="741.45" y="189.12" width="25.28" height="25.28" rx="12.64" ry="12.64"/>
      <rect class="cls-17" x="476.05" y="189.12" width="25.28" height="25.28" rx="12.64" ry="12.64"/>
      <rect class="cls-18" x="608.75" y="321.82" width="25.28" height="25.28" rx="12.64" ry="12.64" transform="rotate(90 621.39 334.46)"/>
      <rect class="cls-19" x="608.75" y="56.42" width="25.28" height="25.28" rx="12.64" ry="12.64" transform="rotate(90 621.39 69.06)"/>
      <rect class="cls-20" x="645.92" y="2.26" width="25.28" height="25.28" rx="12.64" ry="12.64" transform="rotate(90 658.555 14.895)"/>
      <rect class="cls-21" x="714.82" y="31.14" width="25.28" height="25.28" rx="12.64" ry="12.64" transform="rotate(90 727.46 43.78)"/>
      <rect class="cls-22" x="766.73" y="83.05" width="25.28" height="25.28" rx="12.64" ry="12.64" transform="rotate(90 779.365 95.685)"/>
      <rect class="cls-23" x="793.36" y="155.72" width="25.28" height="25.28" rx="12.64" ry="12.64" transform="rotate(90 805.995 168.355)"/>
      <rect class="cls-24" x="793.36" y="222.52" width="25.28" height="25.28" rx="12.64" ry="12.64" transform="rotate(90 805.995 235.155)"/>
      <rect class="cls-25" x="766.73" y="295.19" width="25.28" height="25.28" rx="12.64" ry="12.64" transform="rotate(90 779.365 307.825)"/>
      <rect class="cls-26" x="714.82" y="347.09" width="25.28" height="25.28" rx="12.64" ry="12.64" transform="rotate(90 727.46 359.73)"/>
      <rect class="cls-27" x="648.02" y="373.72" width="25.28" height="25.28" rx="12.64" ry="12.64" transform="rotate(90 660.66 386.36)"/>
      <rect class="cls-28" x="575.35" y="373.72" width="25.28" height="25.28" rx="12.64" ry="12.64" transform="rotate(90 587.99 386.36)"/>
      <rect class="cls-29" x="502.68" y="347.09" width="25.28" height="25.28" rx="12.64" ry="12.64" transform="rotate(90 515.32 359.73)"/>
      <rect class="cls-30" x="450.78" y="295.19" width="25.28" height="25.28" rx="12.64" ry="12.64" transform="rotate(90 463.415 307.825)"/>
      <rect class="cls-31" x="424.15" y="228.39" width="25.28" height="25.28" rx="12.64" ry="12.64" transform="rotate(90 436.785 241.025)"/>
      <rect class="cls-32" x="424.15" y="149.85" width="25.28" height="25.28" rx="12.64" ry="12.64" transform="rotate(90 436.785 162.485)"/>
      <rect class="cls-33" x="450.78" y="83.05" width="25.28" height="25.28" rx="12.64" ry="12.64" transform="rotate(90 463.415 95.685)"/>
      <rect class="cls-34" x="502.68" y="31.14" width="25.28" height="25.28" rx="12.64" ry="12.64" transform="rotate(90 515.32 43.78)"/>
      <rect class="cls-35" x="569.48" width="25.28" height="25.28" rx="12.64" ry="12.64" transform="rotate(90 582.12 12.64)"/>
      <path class="cls-36" d="M126.18 588.79c70.14 0 126.18 55.34 126.18 126.53 0 72.61-56 129.71-126.18 129.71S0 787.93 0 715.32c0-71.2 56-126.53 126.18-126.53zm0 233.68c55.69 0 100.8-46.53 100.8-107.15 0-59.21-45.12-104-100.8-104-56 0-100.8 44.76-100.8 104 0 60.63 44.76 107.15 100.8 107.15zM300.3 663.51h23.62v26.44c0 7.75-.71 14.1-.71 14.1h.71c6.34-16.21 28.9-44.76 70.85-44.76 43.71 0 59.22 25 59.22 68.73V840.8H430V734.36c0-27.85-4.23-52.52-38.42-52.52-30.31 0-56.39 20.8-64.5 50-2.12 7.4-2.82 15.51-2.82 24v84.96h-24zm284.08-4.23c49 0 74 37.71 74 81.77 0 4.23-.71 12.34-.71 12.34H521.64c1.06 45.47 32.08 70.14 68.73 70.14 32.43 0 53.93-21.5 53.93-21.5l10.93 18.33S629.5 845 589.67 845C536.8 845 497 807 497 752.33c0-58.16 39.45-93.05 87.38-93.05zm49.7 74.37c-1.41-37-24-54.28-50.4-54.28-29.61 0-55.34 18.68-61 54.28zm73.31 60.98s25.73 27.14 64.85 27.14c27.14 0 49.35-16.21 49.35-43 0-62.39-123.72-46.53-123.72-123.36 0-35.6 31.37-66.62 77.19-66.62 43 0 66.26 24 66.26 24l-12 20.44s-21.85-21.15-54.28-21.15c-31.72 0-52.16 20.8-52.16 42.65 0 58.86 123.72 41.94 123.72 123.36 0 37-28.55 67-75.08 67-50.75 0-78.6-31.72-78.6-31.72zM893.14 593h25v30h-25zm.7 70.49h24V840.8h-24zm88.47 22.23H959v-20.1h23.62v-51.1h23.62v51.11h44.41v20.09h-44.41v88.12c0 41.59 26.43 46.88 39.83 46.88a41.14 41.14 0 0 0 8.11-.71v21.5a63.06 63.06 0 0 1-10.22.71c-20.44 0-61.68-6.7-61.68-65.91zm186.45-26.44c49 0 74 37.71 74 81.77 0 4.23-.71 12.34-.71 12.34H1106c1.06 45.47 32.07 70.14 68.73 70.14 32.43 0 53.93-21.5 53.93-21.5l10.93 18.33S1213.88 845 1174 845c-52.87 0-92.7-38.07-92.7-92.7.05-58.13 39.53-93.02 87.46-93.02zm49.7 74.37c-1.41-37-24-54.28-50.4-54.28-29.61 0-55.34 18.68-61 54.28z"/>
    </g>
  </g>
</svg>
