<?xml version="1.0" encoding="utf-8"?>
<!-- Generator: Adobe Illustrator 24.1.3, SVG Export Plug-In . SVG Version: 6.00 Build 0)  -->
<svg version="1.1" id="Layer_1" xmlns="http://www.w3.org/2000/svg" xmlns:xlink="http://www.w3.org/1999/xlink" x="0px" y="0px"
	 viewBox="0 0 961.2 267.5" style="enable-background:new 0 0 961.2 267.5;" xml:space="preserve">
<style type="text/css">
	.st0{fill:url(#SVGID_1_);}
	.st1{fill:url(#SVGID_2_);}
	.st2{fill:url(#SVGID_3_);}
	.st3{fill:url(#SVGID_4_);}
	.st4{fill:url(#SVGID_5_);}
	.st5{fill:url(#SVGID_6_);}
	.st6{fill:url(#SVGID_7_);}
	.st7{fill:url(#SVGID_8_);}
	.st8{fill:url(#SVGID_9_);}
	.st9{fill:url(#SVGID_10_);}
	.st10{fill:url(#SVGID_11_);}
	.st11{fill:url(#SVGID_12_);}
	.st12{fill:url(#SVGID_13_);}
	.st13{fill:url(#SVGID_14_);}
	.st14{fill:url(#SVGID_15_);}
	.st15{fill:url(#SVGID_16_);}
	.st16{fill:url(#SVGID_17_);}
	.st17{fill:url(#SVGID_18_);}
	.st18{fill:url(#SVGID_19_);}
	.st19{fill:url(#SVGID_20_);}
	.st20{fill:url(#SVGID_21_);}
	.st21{fill:url(#SVGID_22_);}
	.st22{fill:url(#SVGID_23_);}
	.st23{fill:url(#SVGID_24_);}
	.st24{fill:url(#SVGID_25_);}
	.st25{fill:url(#SVGID_26_);}
	.st26{fill:url(#SVGID_27_);}
	.st27{fill:url(#SVGID_28_);}
	.st28{fill:url(#SVGID_29_);}
	.st29{fill:url(#SVGID_30_);}
	.st30{fill:url(#SVGID_31_);}
	.st31{fill:url(#SVGID_32_);}
	.st32{fill:url(#SVGID_33_);}
	.st33{fill:url(#SVGID_34_);}
	.st34{fill:url(#SVGID_35_);}
	.st35{fill:url(#SVGID_36_);}
	.st36{fill:url(#SVGID_37_);}
	.st37{fill:#414142;}
	.st38{fill:#4EC9F5;}
</style>
<g id="Layer_2_1_">
	<g id="Layer_1-2">
		
			<linearGradient id="SVGID_1_" gradientUnits="userSpaceOnUse" x1="75.41" y1="227.91" x2="38.59" y2="191.09" gradientTransform="matrix(1 0 0 -1 0 270)">
			<stop  offset="0" style="stop-color:#4FC9F5"/>
			<stop  offset="1" style="stop-color:#2262AE"/>
		</linearGradient>
		<polygon class="st0" points="70.9,74.4 26.1,66.4 26.7,63 66.6,70.1 59.5,30.2 62.9,29.6 		"/>
		
			<linearGradient id="SVGID_2_" gradientUnits="userSpaceOnUse" x1="147.7675" y1="269.3825" x2="115.3975" y2="237.0125" gradientTransform="matrix(1 0 0 -1 0 270)">
			<stop  offset="0" style="stop-color:#4FC9F5"/>
			<stop  offset="1" style="stop-color:#2262AE"/>
		</linearGradient>
		<polygon class="st1" points="132.3,49.9 104.6,10 107.4,8 132.3,43.8 155.8,9.5 158.7,11.5 		"/>
		
			<linearGradient id="SVGID_3_" gradientUnits="userSpaceOnUse" x1="132.125" y1="224.86" x2="132.125" y2="43.84" gradientTransform="matrix(1 0 0 -1 0 270)">
			<stop  offset="0" style="stop-color:#4FC9F5"/>
			<stop  offset="1" style="stop-color:#2262AE"/>
		</linearGradient>
		<rect x="130.4" y="45.1" class="st2" width="3.4" height="181"/>
		
			<linearGradient id="SVGID_4_" gradientUnits="userSpaceOnUse" x1="62.845" y1="1086.11" x2="62.845" y2="905.09" gradientTransform="matrix(6.123234e-17 1 1 -6.123234e-17 -863.14 73.14)">
			<stop  offset="0" style="stop-color:#4FC9F5"/>
			<stop  offset="1" style="stop-color:#2262AE"/>
		</linearGradient>
		<rect x="42" y="134.3" class="st3" width="181" height="3.4"/>
		
			<linearGradient id="SVGID_5_" gradientUnits="userSpaceOnUse" x1="-283.8933" y1="11.4767" x2="-283.8933" y2="-169.4833" gradientTransform="matrix(0.7071 -0.7071 -0.7071 -0.7071 277.1886 -120.8018)">
			<stop  offset="0" style="stop-color:#4FC9F5"/>
			<stop  offset="1" style="stop-color:#2262AE"/>
		</linearGradient>
		<polygon class="st4" points="67.1,73.1 69.6,70.6 197.5,198.6 195.1,201 		"/>
		
			<linearGradient id="SVGID_6_" gradientUnits="userSpaceOnUse" x1="275.8633" y1="669.7267" x2="275.8633" y2="488.7667" gradientTransform="matrix(0.7071 0.7071 0.7071 -0.7071 -472.3445 350.3293)">
			<stop  offset="0" style="stop-color:#4FC9F5"/>
			<stop  offset="1" style="stop-color:#2262AE"/>
		</linearGradient>
		<polygon class="st5" points="67.1,198.6 195.1,70.6 197.5,73.1 69.6,201 		"/>
		
			<linearGradient id="SVGID_7_" gradientUnits="userSpaceOnUse" x1="7.49" y1="134.195" x2="46.22" y2="134.195" gradientTransform="matrix(1 0 0 -1 0 270)">
			<stop  offset="0" style="stop-color:#2262AE"/>
			<stop  offset="1" style="stop-color:#4FC9F5"/>
		</linearGradient>
		<polygon class="st6" points="9.6,163.5 7.5,160.8 40.5,135.8 7.5,110.9 9.6,108.1 46.2,135.8 		"/>
		
			<linearGradient id="SVGID_8_" gradientUnits="userSpaceOnUse" x1="70.915" y1="72.795" x2="43.095" y2="44.975" gradientTransform="matrix(1 0 0 -1 0 270)">
			<stop  offset="0" style="stop-color:#4FC9F5"/>
			<stop  offset="1" style="stop-color:#2262AE"/>
		</linearGradient>
		<polygon class="st7" points="62.9,242 59.5,241.4 66.6,201.5 26.7,208.6 26.1,205.2 70.9,197.2 		"/>
		
			<linearGradient id="SVGID_9_" gradientUnits="userSpaceOnUse" x1="148.3448" y1="32.1105" x2="118.0337" y2="1.7894" gradientTransform="matrix(1 0 0 -1 0 270)">
			<stop  offset="0" style="stop-color:#4FC9F5"/>
			<stop  offset="1" style="stop-color:#2262AE"/>
		</linearGradient>
		<polygon class="st8" points="157.2,260.6 132.4,227.8 111.4,260.5 108.4,258.6 132.2,221.7 160,258.5 		"/>
		
			<linearGradient id="SVGID_10_" gradientUnits="userSpaceOnUse" x1="226.015" y1="77.295" x2="189.2" y2="40.48" gradientTransform="matrix(1 0 0 -1 0 270)">
			<stop  offset="0" style="stop-color:#4FC9F5"/>
			<stop  offset="1" style="stop-color:#2262AE"/>
		</linearGradient>
		<polygon class="st9" points="201.7,242 193.7,197.2 238.5,205.2 237.9,208.6 198,201.5 205.1,241.4 		"/>
		
			<linearGradient id="SVGID_11_" gradientUnits="userSpaceOnUse" x1="263.755" y1="149.425" x2="233.29" y2="118.96" gradientTransform="matrix(1 0 0 -1 0 270)">
			<stop  offset="0" style="stop-color:#4FC9F5"/>
			<stop  offset="1" style="stop-color:#2262AE"/>
		</linearGradient>
		<polygon class="st10" points="255.1,159.7 218.1,135.8 255.1,111.9 257,114.9 224.5,135.8 257,156.7 		"/>
		
			<linearGradient id="SVGID_12_" gradientUnits="userSpaceOnUse" x1="221.5225" y1="223.4075" x2="193.7025" y2="195.5875" gradientTransform="matrix(1 0 0 -1 0 270)">
			<stop  offset="0" style="stop-color:#4FC9F5"/>
			<stop  offset="1" style="stop-color:#2262AE"/>
		</linearGradient>
		<polygon class="st11" points="193.7,74.4 201.7,29.6 205.1,30.2 198,70.1 237.9,63 238.5,66.4 		"/>
		
			<linearGradient id="SVGID_13_" gradientUnits="userSpaceOnUse" x1="235.845" y1="237.615" x2="24.925" y2="26.695" gradientTransform="matrix(1 0 0 -1 0 270)">
			<stop  offset="0" style="stop-color:#4FC9F5"/>
			<stop  offset="1" style="stop-color:#2262AE"/>
		</linearGradient>
		<path class="st12" d="M132.1,101.2L132.1,101.2c19.3,0,34.9,15.6,34.9,34.9v0c0,19.3-15.6,34.9-34.9,34.9h0
			c-19.3,0-34.9-15.6-34.9-34.9v0C97.3,116.8,112.9,101.2,132.1,101.2z"/>
		
			<linearGradient id="SVGID_14_" gradientUnits="userSpaceOnUse" x1="170.45" y1="301" x2="-37.79" y2="92.76" gradientTransform="matrix(1 0 0 -1 0 270)">
			<stop  offset="0" style="stop-color:#4FC9F5"/>
			<stop  offset="1" style="stop-color:#2262AE"/>
		</linearGradient>
		<path class="st13" d="M68,63L68,63c4.6,0,8.4,3.8,8.4,8.4l0,0c0,4.6-3.8,8.4-8.4,8.4h0c-4.6,0-8.4-3.8-8.4-8.4l0,0
			C59.7,66.8,63.4,63,68,63z"/>
		
			<linearGradient id="SVGID_15_" gradientUnits="userSpaceOnUse" x1="234.975" y1="238.145" x2="26.735" y2="29.905" gradientTransform="matrix(1 0 0 -1 0 270)">
			<stop  offset="0" style="stop-color:#4FC9F5"/>
			<stop  offset="1" style="stop-color:#2262AE"/>
		</linearGradient>
		<path class="st14" d="M195.4,63L195.4,63c4.6,0,8.4,3.8,8.4,8.4l0,0c0,4.6-3.8,8.4-8.4,8.4h0c-4.6,0-8.4-3.8-8.4-8.4l0,0
			C187.1,66.8,190.8,63,195.4,63z"/>
		
			<linearGradient id="SVGID_16_" gradientUnits="userSpaceOnUse" x1="233.3" y1="236.47" x2="25.06" y2="28.23" gradientTransform="matrix(1 0 0 -1 0 270)">
			<stop  offset="0" style="stop-color:#4FC9F5"/>
			<stop  offset="1" style="stop-color:#2262AE"/>
		</linearGradient>
		<path class="st15" d="M68,190.4L68,190.4c4.6,0,8.4,3.8,8.4,8.4v0c0,4.6-3.8,8.4-8.4,8.4h0c-4.6,0-8.4-3.8-8.4-8.4v0
			C59.7,194.2,63.4,190.4,68,190.4z"/>
		
			<linearGradient id="SVGID_17_" gradientUnits="userSpaceOnUse" x1="297.825" y1="173.615" x2="89.585" y2="-34.625" gradientTransform="matrix(1 0 0 -1 0 270)">
			<stop  offset="0" style="stop-color:#4FC9F5"/>
			<stop  offset="1" style="stop-color:#2262AE"/>
		</linearGradient>
		<path class="st16" d="M195.4,190.4L195.4,190.4c4.6,0,8.4,3.8,8.4,8.4v0c0,4.6-3.8,8.4-8.4,8.4h0c-4.6,0-8.4-3.8-8.4-8.4v0
			C187.1,194.2,190.8,190.4,195.4,190.4z"/>
		
			<linearGradient id="SVGID_18_" gradientUnits="userSpaceOnUse" x1="279.31" y1="193.31" x2="71.07" y2="-14.93" gradientTransform="matrix(1 0 0 -1 0 270)">
			<stop  offset="0" style="stop-color:#4FC9F5"/>
			<stop  offset="1" style="stop-color:#2262AE"/>
		</linearGradient>
		<path class="st17" d="M220.9,126.7L220.9,126.7c4.6,0,8.4,3.8,8.4,8.4l0,0c0,4.6-3.8,8.4-8.4,8.4h0c-4.6,0-8.4-3.8-8.4-8.4l0,0
			C212.5,130.5,216.3,126.7,220.9,126.7z"/>
		
			<linearGradient id="SVGID_19_" gradientUnits="userSpaceOnUse" x1="189.635" y1="281.305" x2="-18.605" y2="73.065" gradientTransform="matrix(1 0 0 -1 0 270)">
			<stop  offset="0" style="stop-color:#4FC9F5"/>
			<stop  offset="1" style="stop-color:#2262AE"/>
		</linearGradient>
		<path class="st18" d="M43.2,126.7L43.2,126.7c4.6,0,8.4,3.8,8.4,8.4l0,0c0,4.6-3.8,8.4-8.4,8.4l0,0c-4.6,0-8.4-3.8-8.4-8.4l0,0
			C34.9,130.5,38.6,126.7,43.2,126.7z"/>
		
			<linearGradient id="SVGID_20_" gradientUnits="userSpaceOnUse" x1="278.135" y1="192.135" x2="69.895" y2="-16.105" gradientTransform="matrix(1 0 0 -1 0 270)">
			<stop  offset="0" style="stop-color:#4FC9F5"/>
			<stop  offset="1" style="stop-color:#2262AE"/>
		</linearGradient>
		<path class="st19" d="M140.1,224.3L140.1,224.3c0,4.6-3.8,8.4-8.4,8.4h0c-4.6,0-8.4-3.8-8.4-8.4v0c0-4.6,3.8-8.4,8.4-8.4h0
			C136.4,215.9,140.1,219.6,140.1,224.3z"/>
		
			<linearGradient id="SVGID_21_" gradientUnits="userSpaceOnUse" x1="190.145" y1="281.805" x2="-18.095" y2="73.565" gradientTransform="matrix(1 0 0 -1 0 270)">
			<stop  offset="0" style="stop-color:#4FC9F5"/>
			<stop  offset="1" style="stop-color:#2262AE"/>
		</linearGradient>
		<path class="st20" d="M140.1,46.6L140.1,46.6c0,4.6-3.8,8.4-8.4,8.4l0,0c-4.6,0-8.4-3.8-8.4-8.4v0c0-4.6,3.8-8.4,8.4-8.4l0,0
			C136.4,38.2,140.1,42,140.1,46.6z"/>
		
			<linearGradient id="SVGID_22_" gradientUnits="userSpaceOnUse" x1="184.67" y1="288.4" x2="-23.57" y2="80.16" gradientTransform="matrix(1 0 0 -1 0 270)">
			<stop  offset="0" style="stop-color:#4FC9F5"/>
			<stop  offset="1" style="stop-color:#2262AE"/>
		</linearGradient>
		<path class="st21" d="M164.9,9.7L164.9,9.7c0,4.6-3.8,8.4-8.4,8.4l0,0c-4.6,0-8.4-3.8-8.4-8.4v0c0-4.6,3.8-8.4,8.4-8.4l0,0
			C161.2,1.3,164.9,5.1,164.9,9.7z"/>
		
			<linearGradient id="SVGID_23_" gradientUnits="userSpaceOnUse" x1="217.665" y1="255.685" x2="9.425" y2="47.445" gradientTransform="matrix(1 0 0 -1 0 270)">
			<stop  offset="0" style="stop-color:#4FC9F5"/>
			<stop  offset="1" style="stop-color:#2262AE"/>
		</linearGradient>
		<path class="st22" d="M211.2,29.2L211.2,29.2c0,4.6-3.8,8.4-8.4,8.4l0,0c-4.6,0-8.4-3.8-8.4-8.4v0c0-4.6,3.8-8.4,8.4-8.4l0,0
			C207.4,20.8,211.2,24.5,211.2,29.2z"/>
		
			<linearGradient id="SVGID_24_" gradientUnits="userSpaceOnUse" x1="252.525" y1="220.825" x2="44.285" y2="12.585" gradientTransform="matrix(1 0 0 -1 0 270)">
			<stop  offset="0" style="stop-color:#4FC9F5"/>
			<stop  offset="1" style="stop-color:#2262AE"/>
		</linearGradient>
		<path class="st23" d="M246.1,64L246.1,64c0,4.6-3.8,8.4-8.4,8.4l0,0c-4.6,0-8.4-3.8-8.4-8.4v0c0-4.6,3.8-8.4,8.4-8.4l0,0
			C242.3,55.6,246.1,59.4,246.1,64z"/>
		
			<linearGradient id="SVGID_25_" gradientUnits="userSpaceOnUse" x1="285.89" y1="187.15" x2="77.65" y2="-21.09" gradientTransform="matrix(1 0 0 -1 0 270)">
			<stop  offset="0" style="stop-color:#4FC9F5"/>
			<stop  offset="1" style="stop-color:#2262AE"/>
		</linearGradient>
		<path class="st24" d="M264.1,113L264.1,113c0,4.6-3.8,8.4-8.4,8.4l0,0c-4.6,0-8.4-3.8-8.4-8.4v0c0-4.6,3.8-8.4,8.4-8.4l0,0
			C260.4,104.6,264.1,108.3,264.1,113z"/>
		
			<linearGradient id="SVGID_26_" gradientUnits="userSpaceOnUse" x1="308.04" y1="164.38" x2="99.8" y2="-43.86" gradientTransform="matrix(1 0 0 -1 0 270)">
			<stop  offset="0" style="stop-color:#4FC9F5"/>
			<stop  offset="1" style="stop-color:#2262AE"/>
		</linearGradient>
		<path class="st25" d="M264.2,157.9L264.2,157.9c0,4.6-3.8,8.4-8.4,8.4h0c-4.6,0-8.4-3.8-8.4-8.4v0c0-4.6,3.8-8.4,8.4-8.4h0
			C260.4,149.5,264.2,153.3,264.2,157.9z"/>
		
			<linearGradient id="SVGID_27_" gradientUnits="userSpaceOnUse" x1="322.86" y1="149.03" x2="114.62" y2="-59.21" gradientTransform="matrix(1 0 0 -1 0 270)">
			<stop  offset="0" style="stop-color:#4FC9F5"/>
			<stop  offset="1" style="stop-color:#2262AE"/>
		</linearGradient>
		<path class="st26" d="M246,206.2L246,206.2c0,4.6-3.8,8.4-8.4,8.4h0c-4.6,0-8.4-3.8-8.4-8.4v0c0-4.6,3.8-8.4,8.4-8.4h0
			C242.3,197.8,246,201.5,246,206.2z"/>
		
			<linearGradient id="SVGID_28_" gradientUnits="userSpaceOnUse" x1="322.42" y1="148.59" x2="114.18" y2="-59.65" gradientTransform="matrix(1 0 0 -1 0 270)">
			<stop  offset="0" style="stop-color:#4FC9F5"/>
			<stop  offset="1" style="stop-color:#2262AE"/>
		</linearGradient>
		<path class="st27" d="M211.2,241L211.2,241c0,4.6-3.8,8.4-8.4,8.4h0c-4.6,0-8.4-3.8-8.4-8.4l0,0c0-4.6,3.8-8.4,8.4-8.4h0
			C207.4,232.6,211.2,236.4,211.2,241z"/>
		
			<linearGradient id="SVGID_29_" gradientUnits="userSpaceOnUse" x1="309.15" y1="161.46" x2="100.91" y2="-46.78" gradientTransform="matrix(1 0 0 -1 0 270)">
			<stop  offset="0" style="stop-color:#4FC9F5"/>
			<stop  offset="1" style="stop-color:#2262AE"/>
		</linearGradient>
		<path class="st28" d="M166.9,259.1L166.9,259.1c0,4.6-3.8,8.4-8.4,8.4l0,0c-4.6,0-8.4-3.8-8.4-8.4v0c0-4.6,3.8-8.4,8.4-8.4l0,0
			C163.2,250.8,166.9,254.5,166.9,259.1z"/>
		
			<linearGradient id="SVGID_30_" gradientUnits="userSpaceOnUse" x1="284.305" y1="185.555" x2="76.065" y2="-22.685" gradientTransform="matrix(1 0 0 -1 0 270)">
			<stop  offset="0" style="stop-color:#4FC9F5"/>
			<stop  offset="1" style="stop-color:#2262AE"/>
		</linearGradient>
		<path class="st29" d="M118,259.1L118,259.1c0,4.6-3.8,8.4-8.4,8.4l0,0c-4.6,0-8.4-3.8-8.4-8.4l0,0c0-4.6,3.8-8.4,8.4-8.4l0,0
			C114.2,250.8,118,254.5,118,259.1z"/>
		
			<linearGradient id="SVGID_31_" gradientUnits="userSpaceOnUse" x1="250.62" y1="218.92" x2="42.38" y2="10.68" gradientTransform="matrix(1 0 0 -1 0 270)">
			<stop  offset="0" style="stop-color:#4FC9F5"/>
			<stop  offset="1" style="stop-color:#2262AE"/>
		</linearGradient>
		<path class="st30" d="M69.1,241L69.1,241c0,4.6-3.8,8.4-8.4,8.4h0c-4.6,0-8.4-3.8-8.4-8.4l0,0c0-4.6,3.8-8.4,8.4-8.4h0
			C65.3,232.6,69.1,236.4,69.1,241z"/>
		
			<linearGradient id="SVGID_32_" gradientUnits="userSpaceOnUse" x1="215.76" y1="253.79" x2="7.52" y2="45.55" gradientTransform="matrix(1 0 0 -1 0 270)">
			<stop  offset="0" style="stop-color:#4FC9F5"/>
			<stop  offset="1" style="stop-color:#2262AE"/>
		</linearGradient>
		<path class="st31" d="M34.2,206.2L34.2,206.2c0,4.6-3.8,8.4-8.4,8.4h0c-4.6,0-8.4-3.8-8.4-8.4l0,0c0-4.6,3.8-8.4,8.4-8.4h0
			C30.4,197.8,34.2,201.5,34.2,206.2z"/>
		
			<linearGradient id="SVGID_33_" gradientUnits="userSpaceOnUse" x1="185.01" y1="285.39" x2="-23.23" y2="77.15" gradientTransform="matrix(1 0 0 -1 0 270)">
			<stop  offset="0" style="stop-color:#4FC9F5"/>
			<stop  offset="1" style="stop-color:#2262AE"/>
		</linearGradient>
		<path class="st32" d="M16.8,161.2L16.8,161.2c0,4.6-3.8,8.4-8.4,8.4h0c-4.6,0-8.4-3.8-8.4-8.4l0,0c0-4.6,3.8-8.4,8.4-8.4h0
			C13,152.9,16.8,156.6,16.8,161.2z"/>
		
			<linearGradient id="SVGID_34_" gradientUnits="userSpaceOnUse" x1="158.97" y1="311.64" x2="-49.27" y2="103.4" gradientTransform="matrix(1 0 0 -1 0 270)">
			<stop  offset="0" style="stop-color:#4FC9F5"/>
			<stop  offset="1" style="stop-color:#2262AE"/>
		</linearGradient>
		<path class="st33" d="M16.8,108.9L16.8,108.9c0,4.6-3.8,8.4-8.4,8.4h0c-4.6,0-8.4-3.8-8.4-8.4l0,0c0-4.6,3.8-8.4,8.4-8.4h0
			C13,100.6,16.8,104.3,16.8,108.9z"/>
		
			<linearGradient id="SVGID_35_" gradientUnits="userSpaceOnUse" x1="145.415" y1="325.585" x2="-62.825" y2="117.345" gradientTransform="matrix(1 0 0 -1 0 270)">
			<stop  offset="0" style="stop-color:#4FC9F5"/>
			<stop  offset="1" style="stop-color:#2262AE"/>
		</linearGradient>
		<path class="st34" d="M34.2,64L34.2,64c0,4.6-3.8,8.4-8.4,8.4h0c-4.6,0-8.4-3.8-8.4-8.4l0,0c0-4.6,3.8-8.4,8.4-8.4h0
			C30.4,55.6,34.2,59.4,34.2,64z"/>
		
			<linearGradient id="SVGID_36_" gradientUnits="userSpaceOnUse" x1="145.862" y1="326.018" x2="-62.378" y2="117.7879" gradientTransform="matrix(1 0 0 -1 0 270)">
			<stop  offset="0" style="stop-color:#4FC9F5"/>
			<stop  offset="1" style="stop-color:#2262AE"/>
		</linearGradient>
		<path class="st35" d="M69.1,29.2L69.1,29.2c0,4.6-3.8,8.4-8.4,8.4l0,0c-4.6,0-8.4-3.8-8.4-8.4l0,0c0-4.6,3.8-8.4,8.4-8.4l0,0
			C65.3,20.8,69.1,24.5,69.1,29.2z"/>
		
			<linearGradient id="SVGID_37_" gradientUnits="userSpaceOnUse" x1="158.305" y1="314.335" x2="-49.935" y2="106.095" gradientTransform="matrix(1 0 0 -1 0 270)">
			<stop  offset="0" style="stop-color:#4FC9F5"/>
			<stop  offset="1" style="stop-color:#2262AE"/>
		</linearGradient>
		<path class="st36" d="M114,8.4L114,8.4c0,4.6-3.8,8.4-8.4,8.4l0,0c-4.6,0-8.4-3.8-8.4-8.4v0c0-4.6,3.8-8.4,8.4-8.4l0,0
			C110.2,0,114,3.8,114,8.4z"/>
		<path class="st37" d="M384.3,18.2c36.2,0,65.2,28.6,65.2,65.4c0,37.5-29,67-65.2,67s-65.2-29.5-65.2-67
			C319.1,46.8,348,18.2,384.3,18.2z M384.3,138.9c28.8,0,52.1-24,52.1-55.4c0-30.6-23.3-53.7-52.1-53.7c-29,0-52.1,23.1-52.1,53.7
			C332.2,114.9,355.3,138.9,384.3,138.9z"/>
		<path class="st37" d="M474.2,57h12.4v13.4c0,2.4-0.1,4.9-0.4,7.3h0.4c3.3-8.4,14.9-23.2,36.6-23.2c22.6,0,30.6,12.9,30.6,35.6
			v58.4h-12.4v-55c0-14.4-2.2-27.1-19.9-27.1c-15.7,0.1-29.3,10.7-33.4,25.9c-1.1,4-1.5,8.2-1.5,12.4v43.9h-12.4V57z"/>
		<path class="st37" d="M621,54.3c25.3,0,38.2,19.5,38.2,42.2c0,2.2-0.4,6.4-0.4,6.4h-70.3c0.5,23.5,16.6,36.2,35.5,36.2
			c16.8,0,27.9-11.1,27.9-11.1l5.7,9.5c-9.4,8.1-21.4,12.6-33.9,12.8c-27.3,0-47.9-19.7-47.9-47.9C575.9,72.4,596.3,54.3,621,54.3z
			 M646.7,93.2c-0.7-19.1-12.4-28-26-28c-15.3,0-28.6,9.7-31.5,28H646.7z"/>
		<path class="st37" d="M684.6,124.5c0,0,13.3,14,33.5,14c14,0,25.5-8.4,25.5-22.2c0-32.2-63.9-24-63.9-63.7
			c0-18.4,16.2-34.4,39.9-34.4c22.2,0,34.2,12.4,34.2,12.4l-6.2,10.6c0,0-11.3-10.9-28-10.9c-16.4,0-27,10.8-27,22
			c0,30.4,63.9,21.7,63.9,63.7c0,19.1-14.8,34.6-38.8,34.6c-26.2,0-40.6-16.4-40.6-16.4L684.6,124.5z"/>
		<path class="st37" d="M780.6,20.3h12.9v15.5h-12.9V20.3z M781.1,57h12.4v91.5h-12.4V57z"/>
		<path class="st37" d="M826.6,68.4h-11.9V58h11.9V31.7H839V58h22.7v10.4H839v45.5c0,21.5,13.7,24.2,20.6,24.2
			c1.4,0,2.8-0.1,4.2-0.4v11.1c-1.8,0.3-3.5,0.4-5.3,0.4c-10.6,0-31.9-3.5-31.9-34.1L826.6,68.4z"/>
		<path class="st37" d="M923,54.3c25.3,0,38.2,19.5,38.2,42.2c0,2.2-0.4,6.4-0.4,6.4h-70.3c0.5,23.5,16.6,36.2,35.5,36.2
			c16.8,0,27.9-11.1,27.9-11.1l5.6,9.5c-9.4,8.1-21.4,12.7-33.9,12.8c-27.3,0-47.9-19.7-47.9-47.9C877.8,72.4,898.2,54.3,923,54.3z
			 M948.7,93.2c-0.7-19.1-12.4-28-26-28c-15.3,0-28.6,9.7-31.5,28H948.7z"/>
		<path class="st38" d="M326.9,188.9h6.5l17.2,47.1c1.1,3.2,2.4,8,2.4,8h0.2c0,0,1.2-4.9,2.4-8l17.2-47.1h6.5l-23,61.9h-6.3
			L326.9,188.9z"/>
		<path class="st38" d="M392,188.9h6.4l16.2,36.4c1.4,3.2,3,7.6,3,7.6h0.2c0,0,1.7-4.4,3.1-7.6l16.2-36.4h6.3l4.9,61.9h-6.1
			l-3.4-43.3c-0.3-3.3-0.2-8.6-0.2-8.6h-0.2c0,0-1.9,5.5-3.3,8.6l-14.5,31.8h-5.7l-14.5-31.8c-1.4-3.1-3.4-8.8-3.4-8.8h-0.2
			c0,0,0.1,5.5-0.2,8.8l-3.4,43.4H387L392,188.9z"/>
		<path class="st38" d="M456.7,206.5h6.3l10.8,33c0.7,2.1,1.3,4.8,1.3,4.8h0.2c0,0,0.6-2.6,1.3-4.8l10.9-32.9h5.9l10.9,32.9
			c0.7,2.1,1.3,4.8,1.3,4.8h0.2c0,0,0.6-2.6,1.3-4.8l10.8-33h6.3l-15,44.3h-6.5L492,219.3c-0.8-2.2-1.4-4.8-1.4-4.8h-0.2
			c0,0-0.6,2.6-1.3,4.8l-10.8,31.5h-6.6L456.7,206.5z"/>
		<path class="st38" d="M556.5,223.4h2.5v-1.1c0-8.6-4.7-11.5-11-11.5c-4.5,0.1-8.9,1.5-12.5,4.2l-2.8-4.6c0,0,5.8-5,15.8-5
			c10.7,0,16.6,5.9,16.6,17v28.4h-5.7V246c0-1.2,0.1-2.5,0.2-3.7h-0.2c-2.6,5.9-8.4,9.7-14.8,9.6c-7.4,0-15.1-4.3-15.1-13.1
			C529.4,223.8,548.9,223.4,556.5,223.4z M545.4,246.8c8.5,0,13.6-8.8,13.6-16.5v-1.9h-2.5c-7,0-20.9,0.3-20.9,10
			C535.6,242.6,538.8,246.8,545.4,246.8z"/>
		<path class="st38" d="M578.8,206.5h5.9v7.9c0,1.2-0.1,2.4-0.2,3.5h0.2c2.1-6.7,7-11.8,14-11.8c0.8,0,1.6,0.1,2.4,0.3v5.9
			c-0.7-0.1-1.5-0.2-2.2-0.2c-6.2,0-10.9,4.9-12.9,11.4c-0.8,2.8-1.3,5.7-1.2,8.6v18.7h-6L578.8,206.5z"/>
		<path class="st38" d="M628.4,205.5c12.2,0,18.5,9.4,18.5,20.4c0,1.1-0.2,3.1-0.2,3.1h-34c0.3,11.4,8,17.5,17.2,17.5
			c5-0.1,9.8-2,13.5-5.4l2.7,4.6c-4.6,3.9-10.4,6.1-16.4,6.2c-13.2,0-23.2-9.5-23.2-23.2C606.6,214.2,616.5,205.5,628.4,205.5z
			 M640.9,224.1c-0.3-9.2-6-13.6-12.6-13.6c-7.4,0-13.8,4.7-15.2,13.6L640.9,224.1z"/>
		<path class="st38" d="M683.8,188.9h34.9v5.5h-28.8v22.6h23.5v5.5h-23.5v23h30.4v5.5h-36.5V188.9z"/>
		<path class="st38" d="M749.4,205.5c10.8,0,14.5,8.4,14.5,8.4h0.1c-0.1-1.1-0.2-2.2-0.2-3.4v-21.6h6v61.9H764v-4.7
			c0-1.1,0.1-2.1,0.2-3.2H764c0,0-3.6,8.9-15.2,8.9c-11.9,0-19.3-9.5-19.3-23.3C729.5,214.6,737.8,205.5,749.4,205.5z M749.7,246.5
			c7.4,0,14.4-5.3,14.4-17.9c0-9-4.6-17.8-14.1-17.8c-7.8,0-14.3,6.6-14.3,17.8C735.7,239.6,741.4,246.5,749.7,246.5L749.7,246.5z"
			/>
		<path class="st38" d="M784.1,188.9h6.2v7.5h-6.2V188.9z M784.3,206.5h6v44.3h-6V206.5z"/>
		<path class="st38" d="M806.4,212.1h-5.8v-5h5.9v-12.8h5.9V207h11.1v5h-11.1v22c0,10.4,6.6,11.7,10,11.7c0.7,0,1.3-0.1,2-0.2v5.5
			c-0.8,0.1-1.7,0.2-2.5,0.2c-5.1,0-15.4-1.7-15.4-16.5L806.4,212.1z"/>
		<path class="st38" d="M834.1,188.9h6.3v7.5h-6.3V188.9z M834.2,206.5h6v44.3h-6V206.5z"/>
		<path class="st38" d="M874.9,205.5c13,0,23.4,9.9,23.4,23c0.3,12.9-10,23.7-23,23.9c-12.9,0.3-23.7-10-23.9-23c0-0.3,0-0.6,0-1
			C851.4,215.3,861.9,205.5,874.9,205.5z M874.9,246.5c9.5,0,17.3-7.8,17.3-18.1c0.2-9.5-7.3-17.5-16.9-17.7
			c-9.5-0.2-17.5,7.3-17.7,16.9c0,0.3,0,0.6,0,0.8C857.6,238.8,865.3,246.5,874.9,246.5L874.9,246.5z"/>
		<path class="st38" d="M909.5,206.5h5.9v6.6c0,1.9-0.2,3.5-0.2,3.5h0.2c3.1-7,10.1-11.4,17.7-11.2c10.9,0,14.8,6.2,14.8,17.2v28.2
			h-6v-26.6c0-7-1-13.1-9.6-13.1c-7.6,0.1-14.2,5.2-16.1,12.5c-0.5,2-0.8,4-0.7,6v21.2h-6L909.5,206.5z"/>
	</g>
</g>
</svg>
