<svg xmlns="http://www.w3.org/2000/svg" xmlns:xlink="http://www.w3.org/1999/xlink" viewBox="0 0 333.6 333.99"><defs><style>.w10api-1{fill:url(#linear-gradient);}.w10api-2{fill:url(#linear-gradient-2);}.w10api-3{fill:url(#linear-gradient-3);}.w10api-4{fill:url(#linear-gradient-4);}.w10api-5{fill:url(#linear-gradient-5);}</style><linearGradient id="linear-gradient" x1="192.5" y1="108.06" x2="258.39" y2="108.06" gradientTransform="translate(142.44 -127.77) rotate(45)" gradientUnits="userSpaceOnUse"><stop offset="0" stop-color="#031d39"/><stop offset="1" stop-color="#4e57f4"/></linearGradient><linearGradient id="linear-gradient-2" x1="54.98" y1="235.77" x2="140.51" y2="235.77" gradientTransform="translate(195.34 -0.06) rotate(45)" gradientUnits="userSpaceOnUse"><stop offset="0" stop-color="#072042"/><stop offset="0.5" stop-color="#4e57f4"/><stop offset="1" stop-color="#031d39"/></linearGradient><linearGradient id="linear-gradient-3" x1="206.66" y1="207.52" x2="288.44" y2="207.52" gradientTransform="translate(363.33 -94.04) rotate(71.03)" gradientUnits="userSpaceOnUse"><stop offset="0" stop-color="#072042"/><stop offset="0.06" stop-color="#152b65"/><stop offset="0.17" stop-color="#293a97"/><stop offset="0.27" stop-color="#3947c0"/><stop offset="0.36" stop-color="#4550dc"/><stop offset="0.44" stop-color="#4c55ee"/><stop offset="0.5" stop-color="#4e57f4"/><stop offset="0.56" stop-color="#4b55ee"/><stop offset="0.63" stop-color="#444fdb"/><stop offset="0.72" stop-color="#3846be"/><stop offset="0.82" stop-color="#283994"/><stop offset="0.93" stop-color="#132960"/><stop offset="1" stop-color="#031d39"/></linearGradient><linearGradient id="linear-gradient-4" x1="110.29" y1="89.64" x2="144.14" y2="89.64" gradientTransform="translate(36.17 -36.57) rotate(19.03)" xlink:href="#linear-gradient"/><linearGradient id="linear-gradient-5" x1="11.37" y1="322.23" x2="268.48" y2="65.12" gradientUnits="userSpaceOnUse"><stop offset="0" stop-color="#052b55"/><stop offset="1" stop-color="#4e57f4"/></linearGradient></defs><title>w10ap-icon</title><g id="Layer_2" data-name="Layer 2"><g id="Layer_1-2" data-name="Layer 1"><g id="Deploy10_Icon" data-name="Deploy10 Icon"><rect class="w10api-1" x="183.77" y="103.15" width="83.36" height="9.82" transform="translate(-10.38 191.07) rotate(-45)"/><rect class="w10api-2" x="42.17" y="230.86" width="111.14" height="9.82" transform="translate(-138.08 138.17) rotate(-45)"/><rect class="w10api-3" x="242.64" y="165.97" width="9.82" height="83.1" transform="translate(-29.18 374.17) rotate(-71.03)"/><rect class="w10api-4" x="122.3" y="51.97" width="9.82" height="75.34" transform="translate(-22.27 46.37) rotate(-19.03)"/><path class="w10api-5" d="M273.8,78.51A19.5,19.5,0,1,1,254.3,59,19.5,19.5,0,0,1,273.8,78.51ZM38.3,118a19.5,19.5,0,1,0,19.5,19.5A19.5,19.5,0,0,0,38.3,118Zm177,157a19.5,19.5,0,1,0,19.5,19.5A19.5,19.5,0,0,0,215.3,275Zm88.8-79a29.5,29.5,0,1,0,29.5,29.5A29.5,29.5,0,0,0,304.1,196ZM108.1,0a29.5,29.5,0,1,0,29.5,29.5A29.5,29.5,0,0,0,108.1,0Zm48.5,118a59,59,0,1,0,59,59A59,59,0,0,0,156.6,118ZM39.5,255A39.5,39.5,0,1,0,79,294.49,39.5,39.5,0,0,0,39.5,255Z"/></g></g></g></svg>
