<svg xmlns="http://www.w3.org/2000/svg" xmlns:xlink="http://www.w3.org/1999/xlink" viewBox="0 0 1373.86 274.48"><defs><style>.w10ap-1{fill:url(#linear-gradient);}.w10ap-2{fill:url(#linear-gradient-2);}.w10ap-3{fill:url(#linear-gradient-3);}.w10ap-4{fill:url(#linear-gradient-4);}.w10ap-5{fill:url(#linear-gradient-5);}.w10ap-6{fill:#404041;}</style><linearGradient id="linear-gradient" x1="158.66" y1="89.04" x2="212.89" y2="89.04" gradientTransform="translate(117.37 -105.29) rotate(45)" gradientUnits="userSpaceOnUse"><stop offset="0" stop-color="#031d39"/><stop offset="1" stop-color="#4e57f4"/></linearGradient><linearGradient id="linear-gradient-2" x1="45.47" y1="194.14" x2="115.87" y2="194.14" gradientTransform="translate(160.91 -0.18) rotate(45)" gradientUnits="userSpaceOnUse"><stop offset="0" stop-color="#072042"/><stop offset="0.5" stop-color="#4e57f4"/><stop offset="1" stop-color="#031d39"/></linearGradient><linearGradient id="linear-gradient-3" x1="170.31" y1="170.9" x2="237.63" y2="170.9" gradientTransform="translate(299.28 -77.55) rotate(71.03)" gradientUnits="userSpaceOnUse"><stop offset="0" stop-color="#072042"/><stop offset="0.06" stop-color="#152b65"/><stop offset="0.17" stop-color="#293a97"/><stop offset="0.27" stop-color="#3947c0"/><stop offset="0.36" stop-color="#4550dc"/><stop offset="0.44" stop-color="#4c55ee"/><stop offset="0.5" stop-color="#4e57f4"/><stop offset="0.56" stop-color="#4b55ee"/><stop offset="0.63" stop-color="#444fdb"/><stop offset="0.72" stop-color="#3846be"/><stop offset="0.82" stop-color="#283994"/><stop offset="0.93" stop-color="#132960"/><stop offset="1" stop-color="#031d39"/></linearGradient><linearGradient id="linear-gradient-4" x1="91" y1="73.88" x2="118.85" y2="73.88" gradientTransform="translate(29.81 -30.17) rotate(19.03)" xlink:href="#linear-gradient"/><linearGradient id="linear-gradient-5" x1="9.66" y1="265.1" x2="220.93" y2="53.82" gradientUnits="userSpaceOnUse"><stop offset="0" stop-color="#052b55"/><stop offset="1" stop-color="#4e57f4"/></linearGradient></defs><title>w10ap-logo</title><g id="Layer_2" data-name="Layer 2"><g id="Layer_1-2" data-name="Layer 1"><g id="Deploy10_Icon" data-name="Deploy10 Icon"><rect class="w10ap-1" x="151.48" y="84.99" width="68.61" height="8.08" transform="translate(-8.54 157.44) rotate(-45)"/><rect class="w10ap-2" x="34.93" y="190.1" width="91.47" height="8.08" transform="translate(-113.65 113.91) rotate(-45)"/><rect class="w10ap-3" x="199.93" y="136.7" width="8.09" height="68.4" transform="translate(-23.95 308.23) rotate(-71.03)"/><rect class="w10ap-4" x="100.88" y="42.87" width="8.09" height="62.01" transform="translate(-18.35 38.24) rotate(-19.03)"/><path class="w10ap-5" d="M225.89,65.44a16,16,0,1,1-16-16A16,16,0,0,1,225.89,65.44ZM32.07,98a16,16,0,1,0,16,16A16,16,0,0,0,32.07,98ZM177.75,227.17a16,16,0,1,0,16.05,16.05A16,16,0,0,0,177.75,227.17Zm72.72-65.85a24.28,24.28,0,1,0,24.28,24.28A24.28,24.28,0,0,0,250.47,161.32ZM89.15,0a24.28,24.28,0,1,0,24.28,24.28A24.28,24.28,0,0,0,89.15,0Zm39.92,97.12a48.56,48.56,0,1,0,48.56,48.56A48.56,48.56,0,0,0,129.07,97.12ZM32.51,209.46A32.51,32.51,0,1,0,65,242,32.52,32.52,0,0,0,32.51,209.46Z"/></g><path class="w10ap-6" d="M391.57,40.44S390.36,47,389,52L374.3,106.44h-9.13l-20-77.33h7.92l15,60.06c1,4,1.76,8.25,1.76,8.25H370c.11,0,.66-4.29,1.76-8.25l16.28-60.06h7.26l16.28,60.06c1.1,4,1.65,8.25,1.76,8.25h.22s.77-4.29,1.76-8.25l15.51-60.06h7.92l-20.57,77.33h-9.13L394.32,52c-1.32-5-2.53-11.55-2.53-11.55Z"/><path class="w10ap-6" d="M451.63,29.11h7.81v9.35h-7.81Zm.22,22h7.48v55.33h-7.48Z"/><path class="w10ap-6" d="M477.37,51.11h7.37v8.25c0,2.42-.22,4.4-.22,4.4h.22a23.55,23.55,0,0,1,22.11-14c13.64,0,18.48,7.81,18.48,21.45v35.2h-7.48V73.22c0-8.69-1.32-16.39-12-16.39a21,21,0,0,0-20.13,15.62,27.36,27.36,0,0,0-.88,7.48v26.51h-7.48Z"/><path class="w10ap-6" d="M563.83,49.79c13.42,0,18,10.45,18,10.45h.22a39.92,39.92,0,0,1-.22-4.18V29.11h7.48v77.33h-7.26v-5.83a30.94,30.94,0,0,1,.22-4h-.22s-4.51,11.11-19,11.11c-14.85,0-24.09-11.88-24.09-29C539,61.23,549.31,49.79,563.83,49.79Zm.33,51.26c9.24,0,17.93-6.6,17.93-22.33,0-11.22-5.72-22.22-17.6-22.22-9.79,0-17.82,8.25-17.82,22.22C546.67,92.36,553.82,101.05,564.16,101.05Z"/><path class="w10ap-6" d="M632.58,49.79c16.17,0,29.26,12.32,29.26,28.71a29.26,29.26,0,1,1-58.52,0C603.32,62.11,616.41,49.79,632.58,49.79Zm0,51.26c11.88,0,21.56-9.68,21.56-22.55a21.56,21.56,0,1,0-43.12,0C611,91.37,620.7,101.05,632.58,101.05Z"/><path class="w10ap-6" d="M668.66,51.11h7.92L690,92.36c.88,2.64,1.65,5.94,1.65,5.94h.22s.77-3.3,1.65-5.94l13.64-41h7.37l13.64,41c.88,2.64,1.65,5.94,1.65,5.94H730s.77-3.19,1.65-5.94l13.42-41.25H753l-18.7,55.33h-8.14L712.66,67.06c-1-2.75-1.76-5.94-1.76-5.94h-.22s-.77,3.19-1.65,5.94L695.5,106.44h-8.14Z"/><path class="w10ap-6" d="M763.48,94.34a23.74,23.74,0,0,0,16.5,6.71c5.94,0,11.11-3,11.11-8.8,0-12.1-29.81-9.13-29.81-27.17,0-9.9,8.91-15.29,18.92-15.29,11.66,0,17,6.05,17,6.05l-3.41,5.72S789.11,56.5,780,56.5c-5.61,0-11,2.42-11,8.58,0,12.21,29.81,8.91,29.81,27.17,0,9-7.81,15.51-18.92,15.51-13.42,0-20.46-8-20.46-8Z"/><path class="w10ap-6" d="M839.38,99.62h17.37V42.86c0-2.2.12-4.29.12-4.29h-.23a18.47,18.47,0,0,1-3.85,4.62l-8.25,8.25-4.83-4.95L857.2,29.11h7V99.62h17v6.82H839.38Z"/><path class="w10ap-6" d="M892.17,67.72c0-22.22,6.6-39.93,26.73-39.93s26.62,17.71,26.62,39.93c0,22.44-6.49,40-26.62,40S892.17,90.16,892.17,67.72Zm45.43,0c0-18.37-4.07-32.78-18.7-32.78s-18.81,14.41-18.81,32.78,4.07,32.89,18.81,32.89S937.6,86.2,937.6,67.72Z"/><path class="w10ap-6" d="M390.25,213.8H359.12l-8.8,24.64h-8l28.38-77.33h8.14l28.38,77.33h-8Zm-15.62-44.66s-1.65,6.38-3,10l-10.34,28h26.62l-10.12-28c-1.32-3.63-3-10-3-10Z"/><path class="w10ap-6" d="M442.83,181.79c13.53,0,20.24,7.92,20.24,7.92l-3.85,5.61a23.43,23.43,0,0,0-16.17-6.71c-12.1,0-21.56,9-21.56,22.22,0,13,9.57,22.22,21.78,22.22A24.37,24.37,0,0,0,461,225.24l3.41,5.83s-7.48,8.69-21.56,8.69c-16.39,0-29-11.77-29-28.93S426.55,181.79,442.83,181.79Z"/><path class="w10ap-6" d="M503.22,181.79c13.53,0,20.24,7.92,20.24,7.92l-3.85,5.61a23.43,23.43,0,0,0-16.17-6.71c-12.1,0-21.56,9-21.56,22.22,0,13,9.57,22.22,21.78,22.22a24.37,24.37,0,0,0,17.71-7.81l3.41,5.83s-7.48,8.69-21.56,8.69c-16.39,0-29-11.77-29-28.93S486.94,181.79,503.22,181.79Z"/><path class="w10ap-6" d="M561.85,181.79c15.29,0,23.1,11.77,23.1,25.52,0,1.32-.22,3.85-.22,3.85H542.27c.33,14.19,10,21.89,21.45,21.89a25.72,25.72,0,0,0,16.83-6.71l3.41,5.72a31.71,31.71,0,0,1-20.46,7.7c-16.5,0-28.93-11.88-28.93-28.93C534.57,192.68,546.89,181.79,561.85,181.79ZM577.36,205c-.44-11.55-7.48-16.94-15.73-16.94-9.24,0-17.27,5.83-19,16.94Z"/><path class="w10ap-6" d="M598.7,161.11h7.48V223.7c0,7.26,3.3,8.36,6.16,8.36a17,17,0,0,0,1.87-.11v6.71a18.94,18.94,0,0,1-2.75.22c-4.62,0-12.76-1.43-12.76-13.53Z"/><path class="w10ap-6" d="M649.85,181.79c15.29,0,23.1,11.77,23.1,25.52,0,1.32-.22,3.85-.22,3.85H630.27c.33,14.19,10,21.89,21.45,21.89a25.72,25.72,0,0,0,16.83-6.71l3.41,5.72a31.71,31.71,0,0,1-20.46,7.7c-16.5,0-28.93-11.88-28.93-28.93C622.57,192.68,634.89,181.79,649.85,181.79ZM665.36,205c-.44-11.55-7.48-16.94-15.73-16.94-9.24,0-17.27,5.83-19,16.94Z"/><path class="w10ap-6" d="M687.25,183.11h7.37v9.79c0,2.42-.22,4.4-.22,4.4h.22c2.64-8.36,8.8-14.74,17.49-14.74a15,15,0,0,1,3,.33v7.37a18.94,18.94,0,0,0-2.75-.22c-7.81,0-13.64,6.16-16.06,14.3a36.5,36.5,0,0,0-1.54,10.78v23.32h-7.48Z"/><path class="w10ap-6" d="M755.78,204.23h3.08V202.8c0-10.67-5.83-14.3-13.75-14.3a26.94,26.94,0,0,0-15.62,5.28L726,188.06s7.26-6.27,19.69-6.27c13.31,0,20.68,7.37,20.68,21.23v35.42h-7.15v-6.05a43.74,43.74,0,0,1,.22-4.62h-.22a20,20,0,0,1-18.48,12c-9.24,0-18.81-5.39-18.81-16.39C721.9,204.67,746.21,204.23,755.78,204.23Zm-13.86,29.15c10.56,0,16.94-11,16.94-20.57v-2.42h-3.19c-8.69,0-26.07.33-26.07,12.54C729.6,228.1,733.67,233.38,741.92,233.38Z"/><path class="w10ap-6" d="M785.37,190h-7.26v-6.27h7.37v-16h7.37v16h13.86V190H792.85v27.5c0,13,8.25,14.63,12.43,14.63a12.84,12.84,0,0,0,2.53-.22v6.71a19.69,19.69,0,0,1-3.19.22c-6.38,0-19.25-2.09-19.25-20.57Z"/><path class="w10ap-6" d="M845.32,181.79c16.17,0,29.26,12.32,29.26,28.71a29.26,29.26,0,1,1-58.52,0C816.06,194.11,829.15,181.79,845.32,181.79Zm0,51.26c11.88,0,21.56-9.68,21.56-22.55a21.56,21.56,0,1,0-43.12,0C823.76,223.37,833.44,233.05,845.32,233.05Z"/><path class="w10ap-6" d="M888.55,183.11h7.37v9.79c0,2.42-.22,4.4-.22,4.4h.22c2.64-8.36,8.8-14.74,17.49-14.74a15,15,0,0,1,3,.33v7.37a18.94,18.94,0,0,0-2.75-.22c-7.81,0-13.64,6.16-16.06,14.3A36.5,36.5,0,0,0,896,215.12v23.32h-7.48Z"/><path class="w10ap-6" d="M959.49,161.11h26.73c13.86,0,23.87,9,23.87,23.32s-10,23.65-23.87,23.65H967.08v30.36h-7.59Zm25.74,40.15c10.34,0,17-6.27,17-16.83s-6.71-16.5-16.94-16.5H967.08v33.33Z"/><path class="w10ap-6" d="M1023.07,183.11h7.37v9.79c0,2.42-.22,4.4-.22,4.4h.22c2.64-8.36,8.8-14.74,17.49-14.74a15,15,0,0,1,3,.33v7.37a18.94,18.94,0,0,0-2.75-.22c-7.81,0-13.64,6.16-16.06,14.3a36.5,36.5,0,0,0-1.54,10.78v23.32h-7.48Z"/><path class="w10ap-6" d="M1086.76,181.79c16.17,0,29.26,12.32,29.26,28.71a29.26,29.26,0,1,1-58.52,0C1057.5,194.11,1070.59,181.79,1086.76,181.79Zm0,51.26c11.88,0,21.56-9.68,21.56-22.55a21.56,21.56,0,1,0-43.12,0C1065.2,223.37,1074.88,233.05,1086.76,233.05Z"/><path class="w10ap-6" d="M1149.13,254.83c10.78,0,19.36-5.06,19.36-17.38v-5.06a38.21,38.21,0,0,1,.22-4h-.22c-3.3,6.16-8.91,9.68-17.49,9.68-14.85,0-24.64-11.77-24.64-28.38s9.13-27.94,24-27.94c14.63,0,18.26,9.24,18.26,9.24h.22a12.63,12.63,0,0,1-.11-1.87v-6H1176v54c0,17.6-13,24.42-26.51,24.42a40.55,40.55,0,0,1-18.15-4.4l2.86-6.16A34,34,0,0,0,1149.13,254.83Zm19.47-45.1c0-16.17-7.7-21.12-17.49-21.12-10.78,0-17,7.81-17,21s7.15,21.78,18.15,21.78C1160.9,231.4,1168.6,226,1168.6,209.73Z"/><path class="w10ap-6" d="M1194,183.11h7.37v9.79c0,2.42-.22,4.4-.22,4.4h.22c2.64-8.36,8.8-14.74,17.49-14.74a15,15,0,0,1,3,.33v7.37a18.94,18.94,0,0,0-2.75-.22c-7.81,0-13.64,6.16-16.06,14.3a36.5,36.5,0,0,0-1.54,10.78v23.32H1194Z"/><path class="w10ap-6" d="M1262.54,204.23h3.08V202.8c0-10.67-5.83-14.3-13.75-14.3a26.94,26.94,0,0,0-15.62,5.28l-3.52-5.72s7.26-6.27,19.69-6.27c13.31,0,20.68,7.37,20.68,21.23v35.42H1266v-6.05a43.74,43.74,0,0,1,.22-4.62H1266a20,20,0,0,1-18.48,12c-9.24,0-18.81-5.39-18.81-16.39C1228.66,204.67,1253,204.23,1262.54,204.23Zm-13.86,29.15c10.56,0,16.94-11,16.94-20.57v-2.42h-3.19c-8.69,0-26.07.33-26.07,12.54C1236.36,228.1,1240.43,233.38,1248.68,233.38Z"/><path class="w10ap-6" d="M1290.37,183.11h7.37v8.25c0,2.42-.22,4.4-.22,4.4h.22c2.64-7.48,11.44-14,20-14,10.23,0,15.51,4.73,17.16,13.86h.22a22.49,22.49,0,0,1,20.35-13.86c13.42,0,18.37,7.81,18.37,21.45v35.2h-7.48V205.11c0-9-1.87-16.5-12-16.5-8.47,0-15.4,7.48-17.49,15.62a26.35,26.35,0,0,0-1,8v26.18h-7.48V205.11c0-8.36-1.21-16.5-11.66-16.5-9,0-15.84,7.81-18.15,16.28a32.22,32.22,0,0,0-.77,7.37v26.18h-7.48Z"/></g></g></svg>
