<svg xmlns="http://www.w3.org/2000/svg" viewBox="0 0 333.6 333.99"><defs><style>.w10apiw-1{fill:#fff;}</style></defs><title>w10ap-icon-white</title><g id="Layer_2" data-name="Layer 2"><g id="Layer_1-2" data-name="Layer 1"><circle class="w10apiw-1" cx="38.3" cy="137.51" r="19.5"/><circle class="w10apiw-1" cx="215.3" cy="294.51" r="19.5" transform="translate(-139.19 380.72) rotate(-67.5)"/><path class="w10apiw-1" d="M304.1,196a29.48,29.48,0,0,0-26.55,16.64L214,190.78A59.54,59.54,0,0,0,215.6,177a58.71,58.71,0,0,0-14-38.14l43.27-43.28a19.63,19.63,0,1,0-7.11-6.78l-43.12,43.12a58.92,58.92,0,0,0-51.88-12.27L120.85,56.11A29.51,29.51,0,1,0,108.1,59a29.81,29.81,0,0,0,3.29-.19l22,63.92A59,59,0,0,0,111.52,215L63.46,263.1a39.53,39.53,0,1,0,7,6.89l48-48a59,59,0,0,0,92.44-21.88l63.9,22A29.5,29.5,0,1,0,304.1,196Z"/></g></g></svg>
