<?xml version="1.0" encoding="UTF-8" standalone="no"?>
<!-- Created with Inkscape (http://www.inkscape.org/) -->
<svg
   xmlns:dc="http://purl.org/dc/elements/1.1/"
   xmlns:cc="http://creativecommons.org/ns#"
   xmlns:rdf="http://www.w3.org/1999/02/22-rdf-syntax-ns#"
   xmlns:svg="http://www.w3.org/2000/svg"
   xmlns="http://www.w3.org/2000/svg"
   xmlns:sodipodi="http://sodipodi.sourceforge.net/DTD/sodipodi-0.dtd"
   xmlns:inkscape="http://www.inkscape.org/namespaces/inkscape"
   width="262.94064"
   height="254.01938"
   id="svg2"
   sodipodi:version="0.32"
   inkscape:version="0.46"
   version="1.0"
   sodipodi:docname="TIAA CREF logo.svg"
   inkscape:output_extension="org.inkscape.output.svg.inkscape">
  <defs
     id="defs4">
    <inkscape:perspective
       sodipodi:type="inkscape:persp3d"
       inkscape:vp_x="0 : 526.18109 : 1"
       inkscape:vp_y="0 : 1000 : 0"
       inkscape:vp_z="744.09448 : 526.18109 : 1"
       inkscape:persp3d-origin="372.04724 : 350.78739 : 1"
       id="perspective10" />
    <clipPath
       id="clipPath2406"
       clipPathUnits="userSpaceOnUse">
      <path
         id="path2408"
         d="M 302.836,48.937 L 560.42,48.937 L 560.42,109.952 L 302.836,109.952 L 302.836,48.937 z" />
    </clipPath>
    <clipPath
       id="clipPath2398"
       clipPathUnits="userSpaceOnUse">
      <path
         id="path2400"
         d="M 0,0 L 612,0 L 612,792 L 0,792 L 0,0 z" />
    </clipPath>
    <inkscape:perspective
       id="perspective2390"
       inkscape:persp3d-origin="372.04724 : 350.78739 : 1"
       inkscape:vp_z="744.09448 : 526.18109 : 1"
       inkscape:vp_y="0 : 1000 : 0"
       inkscape:vp_x="0 : 526.18109 : 1"
       sodipodi:type="inkscape:persp3d" />
    <clipPath
       id="clipPath4928"
       clipPathUnits="userSpaceOnUse">
      <path
         id="path4930"
         d="M 0,792.02997 L 612,792.02997 L 612,0.02997 L 0,0.02997 L 0,792.02997 z" />
    </clipPath>
    <clipPath
       id="clipPath4920"
       clipPathUnits="userSpaceOnUse">
      <path
         id="path4922"
         d="M 0,792 L 612,792 L 612,0 L 0,0 L 0,792 z" />
    </clipPath>
    <clipPath
       id="clipPath4902"
       clipPathUnits="userSpaceOnUse">
      <path
         id="path4904"
         d="M 0,792.02997 L 612,792.02997 L 612,0.02997 L 0,0.02997 L 0,792.02997 z" />
    </clipPath>
    <clipPath
       id="clipPath4894"
       clipPathUnits="userSpaceOnUse">
      <path
         id="path4896"
         d="M 0,792 L 612,792 L 612,0 L 0,0 L 0,792 z" />
    </clipPath>
    <clipPath
       id="clipPath4820"
       clipPathUnits="userSpaceOnUse">
      <path
         id="path4822"
         d="M 0,792.02997 L 612,792.02997 L 612,0.02997 L 0,0.02997 L 0,792.02997 z" />
    </clipPath>
    <clipPath
       id="clipPath4812"
       clipPathUnits="userSpaceOnUse">
      <path
         id="path4814"
         d="M 0,792 L 612,792 L 612,0 L 0,0 L 0,792 z" />
    </clipPath>
    <clipPath
       id="clipPath4794"
       clipPathUnits="userSpaceOnUse">
      <path
         id="path4796"
         d="M 0,792.02997 L 612,792.02997 L 612,0.02997 L 0,0.02997 L 0,792.02997 z" />
    </clipPath>
    <clipPath
       id="clipPath4786"
       clipPathUnits="userSpaceOnUse">
      <path
         id="path4788"
         d="M 0,792 L 612,792 L 612,0 L 0,0 L 0,792 z" />
    </clipPath>
    <clipPath
       id="clipPath4700"
       clipPathUnits="userSpaceOnUse">
      <path
         id="path4702"
         d="M 0,792.02997 L 612,792.02997 L 612,0.02997 L 0,0.02997 L 0,792.02997 z" />
    </clipPath>
    <clipPath
       id="clipPath4692"
       clipPathUnits="userSpaceOnUse">
      <path
         id="path4694"
         d="M 0,792 L 612,792 L 612,0 L 0,0 L 0,792 z" />
    </clipPath>
    <clipPath
       id="clipPath4678"
       clipPathUnits="userSpaceOnUse">
      <path
         id="path4680"
         d="M 0,792.02997 L 612,792.02997 L 612,0.02997 L 0,0.02997 L 0,792.02997 z" />
    </clipPath>
    <clipPath
       id="clipPath4670"
       clipPathUnits="userSpaceOnUse">
      <path
         id="path4672"
         d="M 0,792 L 612,792 L 612,0 L 0,0 L 0,792 z" />
    </clipPath>
    <clipPath
       id="clipPath4656"
       clipPathUnits="userSpaceOnUse">
      <path
         id="path4658"
         d="M 0,792.02997 L 612,792.02997 L 612,0.02997 L 0,0.02997 L 0,792.02997 z" />
    </clipPath>
    <clipPath
       id="clipPath4648"
       clipPathUnits="userSpaceOnUse">
      <path
         id="path4650"
         d="M 0,792 L 612,792 L 612,0 L 0,0 L 0,792 z" />
    </clipPath>
    <clipPath
       id="clipPath4634"
       clipPathUnits="userSpaceOnUse">
      <path
         id="path4636"
         d="M 0,792.02997 L 612,792.02997 L 612,0.02997 L 0,0.02997 L 0,792.02997 z" />
    </clipPath>
    <clipPath
       id="clipPath4626"
       clipPathUnits="userSpaceOnUse">
      <path
         id="path4628"
         d="M 0,792 L 612,792 L 612,0 L 0,0 L 0,792 z" />
    </clipPath>
    <clipPath
       id="clipPath4612"
       clipPathUnits="userSpaceOnUse">
      <path
         id="path4614"
         d="M 0,792.02997 L 612,792.02997 L 612,0.02997 L 0,0.02997 L 0,792.02997 z" />
    </clipPath>
    <clipPath
       id="clipPath4604"
       clipPathUnits="userSpaceOnUse">
      <path
         id="path4606"
         d="M 0,792 L 612,792 L 612,0 L 0,0 L 0,792 z" />
    </clipPath>
    <clipPath
       id="clipPath4586"
       clipPathUnits="userSpaceOnUse">
      <path
         id="path4588"
         d="M 0,792.02997 L 612,792.02997 L 612,0.02997 L 0,0.02997 L 0,792.02997 z" />
    </clipPath>
    <clipPath
       id="clipPath4578"
       clipPathUnits="userSpaceOnUse">
      <path
         id="path4580"
         d="M 0,792 L 612,792 L 612,0 L 0,0 L 0,792 z" />
    </clipPath>
    <clipPath
       id="clipPath4554"
       clipPathUnits="userSpaceOnUse">
      <path
         id="path4556"
         d="M 0,792.02997 L 612,792.02997 L 612,0.02997 L 0,0.02997 L 0,792.02997 z" />
    </clipPath>
    <clipPath
       id="clipPath4546"
       clipPathUnits="userSpaceOnUse">
      <path
         id="path4548"
         d="M 0,792 L 612,792 L 612,0 L 0,0 L 0,792 z" />
    </clipPath>
    <clipPath
       id="clipPath4532"
       clipPathUnits="userSpaceOnUse">
      <path
         id="path4534"
         d="M 0,792.02997 L 612,792.02997 L 612,0.02997 L 0,0.02997 L 0,792.02997 z" />
    </clipPath>
    <clipPath
       id="clipPath4524"
       clipPathUnits="userSpaceOnUse">
      <path
         id="path4526"
         d="M 0,792 L 612,792 L 612,0 L 0,0 L 0,792 z" />
    </clipPath>
    <clipPath
       id="clipPath4510"
       clipPathUnits="userSpaceOnUse">
      <path
         id="path4512"
         d="M 0,792.02997 L 612,792.02997 L 612,0.02997 L 0,0.02997 L 0,792.02997 z" />
    </clipPath>
    <clipPath
       id="clipPath4502"
       clipPathUnits="userSpaceOnUse">
      <path
         id="path4504"
         d="M 0,792 L 612,792 L 612,0 L 0,0 L 0,792 z" />
    </clipPath>
    <clipPath
       id="clipPath4484"
       clipPathUnits="userSpaceOnUse">
      <path
         id="path4486"
         d="M 0,792.02997 L 612,792.02997 L 612,0.02997 L 0,0.02997 L 0,792.02997 z" />
    </clipPath>
    <clipPath
       id="clipPath4476"
       clipPathUnits="userSpaceOnUse">
      <path
         id="path4478"
         d="M 0,792 L 612,792 L 612,0 L 0,0 L 0,792 z" />
    </clipPath>
    <clipPath
       id="clipPath4462"
       clipPathUnits="userSpaceOnUse">
      <path
         id="path4464"
         d="M 0,792.02997 L 612,792.02997 L 612,0.02997 L 0,0.02997 L 0,792.02997 z" />
    </clipPath>
    <clipPath
       id="clipPath4454"
       clipPathUnits="userSpaceOnUse">
      <path
         id="path4456"
         d="M 0,792 L 612,792 L 612,0 L 0,0 L 0,792 z" />
    </clipPath>
    <clipPath
       id="clipPath4440"
       clipPathUnits="userSpaceOnUse">
      <path
         id="path4442"
         d="M 0,792.02997 L 612,792.02997 L 612,0.02997 L 0,0.02997 L 0,792.02997 z" />
    </clipPath>
    <clipPath
       id="clipPath4432"
       clipPathUnits="userSpaceOnUse">
      <path
         id="path4434"
         d="M 0,792 L 612,792 L 612,0 L 0,0 L 0,792 z" />
    </clipPath>
    <clipPath
       id="clipPath4410"
       clipPathUnits="userSpaceOnUse">
      <path
         id="path4412"
         d="M 0,792.02997 L 612,792.02997 L 612,0.02997 L 0,0.02997 L 0,792.02997 z" />
    </clipPath>
    <clipPath
       id="clipPath4402"
       clipPathUnits="userSpaceOnUse">
      <path
         id="path4404"
         d="M 0,792 L 612,792 L 612,0 L 0,0 L 0,792 z" />
    </clipPath>
    <clipPath
       id="clipPath4362"
       clipPathUnits="userSpaceOnUse">
      <path
         id="path4364"
         d="M 36,757 L 108,757 L 108,700 L 36,700 L 36,757" />
    </clipPath>
    <clipPath
       id="clipPath4340"
       clipPathUnits="userSpaceOnUse">
      <path
         id="path4342"
         d="M 36,757 L 108,757 L 108,700 L 36,700 L 36,757" />
    </clipPath>
    <clipPath
       id="clipPath4322"
       clipPathUnits="userSpaceOnUse">
      <path
         id="path4324"
         d="M 36,757 L 108,757 L 108,700 L 36,700 L 36,757" />
    </clipPath>
    <clipPath
       id="clipPath4308"
       clipPathUnits="userSpaceOnUse">
      <path
         id="path4310"
         d="M 36,757 L 108,757 L 108,700 L 36,700 L 36,757" />
    </clipPath>
    <inkscape:perspective
       id="perspective4256"
       inkscape:persp3d-origin="372.04724 : 350.78739 : 1"
       inkscape:vp_z="744.09448 : 526.18109 : 1"
       inkscape:vp_y="0 : 1000 : 0"
       inkscape:vp_x="0 : 526.18109 : 1"
       sodipodi:type="inkscape:persp3d" />
    <inkscape:perspective
       id="perspective5662"
       inkscape:persp3d-origin="372.04724 : 350.78739 : 1"
       inkscape:vp_z="744.09448 : 526.18109 : 1"
       inkscape:vp_y="0 : 1000 : 0"
       inkscape:vp_x="0 : 526.18109 : 1"
       sodipodi:type="inkscape:persp3d" />
  </defs>
  <sodipodi:namedview
     id="base"
     pagecolor="#ffffff"
     bordercolor="#666666"
     borderopacity="1.0"
     gridtolerance="10000"
     guidetolerance="10"
     objecttolerance="10"
     inkscape:pageopacity="0.0"
     inkscape:pageshadow="2"
     inkscape:zoom="0.98994949"
     inkscape:cx="193.63468"
     inkscape:cy="34.026427"
     inkscape:document-units="px"
     inkscape:current-layer="layer1"
     showgrid="false"
     inkscape:window-width="640"
     inkscape:window-height="672"
     inkscape:window-x="154"
     inkscape:window-y="161"
     showguides="true"
     inkscape:guide-bbox="true">
    <sodipodi:guide
       orientation="0,1"
       position="95.964492,152.53303"
       id="guide5668" />
  </sodipodi:namedview>
  <metadata
     id="metadata7">
    <rdf:RDF>
      <cc:Work
         rdf:about="">
        <dc:format>image/svg+xml</dc:format>
        <dc:type
           rdf:resource="http://purl.org/dc/dcmitype/StillImage" />
      </cc:Work>
    </rdf:RDF>
  </metadata>
  <g
     inkscape:label="Layer 1"
     inkscape:groupmode="layer"
     id="layer1"
     transform="translate(-418.71242,-587.92814)">
    <path
       d="M 681.65308,587.92814 L 472.40956,587.92814 L 472.40956,634.31447 L 635.26062,634.31447 L 635.26062,840.64247 L 681.65308,794.26965 L 681.65308,587.92814"
       style="fill:#90acc9;fill-opacity:1;fill-rule:nonzero;stroke:none"
       id="path4378" />
    <path
       d="M 627.9495,841.94752 L 627.9495,795.5616 L 465.10493,795.5616 L 465.10493,589.22684 L 418.71242,635.60641 L 418.71242,841.94752 L 627.9495,841.94752"
       style="fill:#084887;fill-opacity:1;fill-rule:nonzero;stroke:none"
       id="path4380" />
    <path
       d="M 591.95224,725.15823 L 616.62565,725.15823 L 616.62565,732.95586 L 600.04907,732.95586 L 600.04907,742.38385 L 611.63259,742.38385 L 611.63259,750.12362 L 600.04907,750.12362 L 600.04907,766.76513 L 591.95224,766.76513 L 591.95224,725.15823"
       style="fill:#084887;fill-opacity:1;fill-rule:nonzero;stroke:none"
       id="path4382" />
    <path
       d="M 523.99647,704.62704 L 532.40101,704.62704 L 532.40101,662.91079 L 523.99647,662.91079 L 523.99647,704.62704 z"
       style="fill:#084887;fill-opacity:1;fill-rule:nonzero;stroke:none"
       id="path4384" />
    <path
       d="M 566.50621,749.65602 L 577.97935,749.65602 L 577.97935,741.82551 L 566.50621,741.82551 L 566.50621,732.95586 L 583.5438,732.95586 L 583.5438,725.15823 L 558.46138,725.15823 L 558.46138,766.76513 L 583.66717,766.76513 L 583.66717,758.95405 L 566.50621,758.95405 L 566.50621,749.65602"
       style="fill:#084887;fill-opacity:1;fill-rule:nonzero;stroke:none"
       id="path4386" />
    <path
       d="M 500.55024,767.64813 C 507.27054,767.64813 511.75716,764.11625 514.06217,757.99974 L 506.75754,754.79843 C 505.28368,758.04493 503.1799,759.74625 500.55024,759.74625 C 494.40785,759.74625 493.03134,754.79843 493.03134,745.88992 C 493.03134,735.31302 495.91423,732.15733 500.55024,732.15733 C 503.49162,732.15733 505.32914,733.89111 506.63418,736.92957 L 514.06217,733.78058 C 512.02992,728.68373 508.02368,724.26858 500.55024,724.26858 C 489.94067,724.26858 484.69432,732.25482 484.69432,745.88992 C 484.69432,757.76589 488.31098,767.64813 500.55024,767.64813"
       style="fill:#084887;fill-opacity:1;fill-rule:nonzero;stroke:none"
       id="path4388" />
    <path
       d="M 504.90055,704.62704 L 504.90055,670.59742 L 516.44511,670.59742 L 516.44511,662.90955 L 485.10343,662.90955 L 485.10343,670.59742 L 496.62202,670.59742 L 496.62202,704.62704 L 504.90055,704.62704"
       style="fill:#084887;fill-opacity:1;fill-rule:nonzero;stroke:none"
       id="path4390" />
    <path
       d="M 538.7226,704.62704 L 547.05962,704.62704 L 549.47506,697.32875 L 564.27257,697.32875 L 566.64252,704.62704 L 574.97309,704.62704 L 560.99366,662.90955 L 552.76702,662.90955 L 538.7226,704.62704 z M 562.1559,689.69957 L 551.53335,689.69957 L 556.8186,672.70739 L 556.89652,672.77236 L 562.1559,689.69957"
       style="fill:#084887;fill-opacity:1;fill-rule:nonzero;stroke:none"
       id="path4392" />
    <path
       d="M 577.53778,704.62704 L 585.88783,704.62704 L 588.27071,697.32875 L 603.09423,697.32875 L 605.43826,704.62704 L 613.78826,704.62704 L 599.81532,662.90955 L 591.58219,662.90955 L 577.53778,704.62704 z M 600.98406,689.69957 L 590.32899,689.69957 L 595.64676,672.70739 L 595.69876,672.77236 L 600.98406,689.69957"
       style="fill:#084887;fill-opacity:1;fill-rule:nonzero;stroke:none"
       id="path4394" />
    <path
       d="M 521.48367,766.76513 L 529.48306,766.76513 L 529.48306,751.9415 L 534.16456,751.9415 L 541.98863,766.76513 L 550.8775,766.76513 C 544.32612,753.99989 542.50153,750.70145 542.50153,750.70145 C 542.63144,750.70145 542.74832,750.66264 542.87168,750.59761 C 546.83242,749.15626 550.16976,745.66287 550.24119,738.61147 C 550.29968,729.84608 545.65064,725.10592 535.87223,725.10592 L 521.48367,725.10592 L 521.48367,766.76513 z M 536.11247,744.71489 L 529.48306,744.71489 L 529.48306,732.55366 L 536.11247,732.55366 C 539.4628,732.55366 542.15745,733.42351 542.15745,738.66383 C 542.15745,743.48761 539.34598,744.71489 536.11247,744.71489"
       style="fill:#084887;fill-opacity:1;fill-rule:nonzero;stroke:none"
       id="path4396" />
  </g>
</svg>
