<?xml version="1.0" encoding="utf-8"?>
<!-- Generator: Adobe Illustrator 19.2.1, SVG Export Plug-In . SVG Version: 6.00 Build 0)  -->
<!DOCTYPE svg PUBLIC "-//W3C//DTD SVG 1.1//EN" "http://www.w3.org/Graphics/SVG/1.1/DTD/svg11.dtd">
<svg version="1.1" id="Layer_1" xmlns="http://www.w3.org/2000/svg" xmlns:xlink="http://www.w3.org/1999/xlink" x="0px" y="0px"
	 viewBox="0 0 64.2 83.2" style="enable-background:new 0 0 64.2 83.2;" xml:space="preserve">
<style type="text/css">
	.st0{fill:#0054A4;}
</style>
<path class="st0" d="M7.5,50.3c-0.4,0-0.8,0.1-1.1,0.3c-0.4,0.2-0.5,0.5-0.5,0.9v3.3c0,0.9,0.8,1.2,1.6,1.2c0.6,0,1.2-0.2,1.6-0.6
	c0.6-0.6,0.6-1.4,0.6-2.2C9.7,51.6,9.2,50.3,7.5,50.3z"/>
<path class="st0" d="M14,54.8c0,0.8,0.7,1.1,1.5,1.1c0.4,0,0.8-0.1,1.1-0.3s0.3-0.5,0.3-0.9v-1.8l-1.2,0.4C15,53.6,14,53.9,14,54.8z
	"/>
<path class="st0" d="M23.2,50.3c-0.4,0-0.8,0.1-1.1,0.3c-0.4,0.2-0.5,0.5-0.5,0.9v3.3c0,0.9,0.8,1.2,1.6,1.2c0.6,0,1.2-0.2,1.6-0.6
	c0.6-0.6,0.6-1.4,0.6-2.2C25.4,51.6,24.8,50.3,23.2,50.3z"/>
<path class="st0" d="M39,50.3c-1.6,0-2,1.5-2,2.8s0.4,2.9,2,2.9s2-1.6,2-2.8C41,51.9,40.6,50.3,39,50.3z"/>
<path class="st0" d="M7.1,1.1C-9.3,57.8,8.1,73,8.1,73c23.8,26.1,56-12.3,56.1-11.9C52.7,17.9,7.1,1.1,7.1,1.1z M7.8,57.3
	c-0.5,0-0.9-0.1-1.4-0.3c-0.2-0.1-0.4-0.3-0.7-0.3c0,0.2,0,0.4-0.2,0.4H4.2C4.1,57.1,4,57,4,56.9V46.1c0-0.1,0.1-0.2,0.2-0.2h1.5
	c0.1,0,0.2,0.1,0.2,0.2v3.4c0.3,0,0.4,0,0.7-0.2c0.5-0.2,1-0.3,1.6-0.3c2.3,0,3.6,1.9,3.6,4.1C11.7,55.4,10.2,57.3,7.8,57.3z
	 M18.9,56.9c0,0.1-0.1,0.2-0.2,0.2h-1.3c-0.3,0-0.2-0.2-0.2-0.4h-0.1c-0.3,0-0.5,0.1-0.8,0.2c-0.5,0.2-0.9,0.3-1.5,0.3
	c-1.5,0-2.6-0.8-2.6-2.4c0-1.7,1.2-2.2,2.6-2.6l1.7-0.5c0.3-0.1,0.6-0.1,0.6-0.6c0-0.7-0.8-0.9-1.4-0.9c-0.9,0-1.7,0.3-2.5,0.7
	c-0.1,0-0.2,0.1-0.3,0.1s-0.2-0.1-0.2-0.3v-0.9c0-0.3,0.1-0.3,0.3-0.4c0.9-0.4,2-0.5,2.9-0.5c1.5,0,3,0.4,3,2.2V56.9z M23.5,57.3
	c-0.5,0-0.9-0.1-1.4-0.3c-0.2-0.1-0.4-0.3-0.7-0.3c0,0.2,0,0.4-0.2,0.4h-1.3c-0.1,0-0.2-0.1-0.2-0.2V46.1c0-0.1,0.1-0.2,0.2-0.2h1.5
	c0.1,0,0.2,0.1,0.2,0.2v3.4c0.3,0,0.4,0,0.7-0.2c0.5-0.2,1-0.3,1.6-0.3c2.3,0,3.6,1.9,3.6,4.1C27.4,55.4,25.9,57.3,23.5,57.3z
	 M34.7,56.4c0,0.3,0,0.3-0.3,0.4c-0.6,0.3-1.7,0.5-2.4,0.5c-2.6,0-4-1.6-4-4.1c0-2.4,1.5-4.2,4-4.2c0.6,0,1.2,0.1,1.8,0.2
	c0.3,0.1,0.8,0.2,0.8,0.6v0.9c0,0.1,0,0.2-0.2,0.2c-0.1,0-0.2,0-0.3-0.1c-0.5-0.3-1.2-0.4-1.8-0.4c-1.8,0-2.4,1.2-2.4,2.8
	s0.6,2.8,2.3,2.8c0.7,0,1.3-0.2,1.9-0.5c0.1,0,0.2-0.1,0.3-0.1C34.8,55.3,34.7,56.2,34.7,56.4z M41.7,56.5c-0.8,0.7-1.7,0.9-2.7,0.9
	s-1.9-0.2-2.7-0.9c-1-0.9-1.3-2.1-1.3-3.4c0-1.3,0.3-2.5,1.3-3.4c0.8-0.7,1.7-0.9,2.8-0.9c2.7,0,3.8,1.7,3.8,4.2
	C42.9,54.4,42.7,55.6,41.7,56.5z M50.2,56.4c0,0.3,0,0.3-0.3,0.4c-0.6,0.3-1.7,0.5-2.4,0.5c-2.6,0-4-1.6-4-4.1c0-2.4,1.5-4.2,4-4.2
	c0.6,0,1.2,0.1,1.8,0.2c0.3,0.1,0.8,0.2,0.8,0.6v0.9c0,0.1,0,0.2-0.2,0.2c-0.1,0-0.2,0-0.3-0.1c-0.5-0.3-1.2-0.4-1.8-0.4
	c-1.8,0-2.4,1.2-2.4,2.8S46,56,47.7,56c0.7,0,1.3-0.2,1.9-0.5c0.1,0,0.2-0.1,0.3-0.1C50.3,55.3,50.2,56.2,50.2,56.4z M57.8,57.1
	h-1.7c-0.3,0-0.3-0.1-0.5-0.3l-2.3-3.4c-0.1-0.1-0.2-0.1-0.4-0.1v3.6c0,0.1-0.1,0.2-0.2,0.2h-1.5c-0.1,0-0.2-0.1-0.2-0.2V46.1
	c0-0.1,0.1-0.2,0.2-0.2h1.5c0.1,0,0.2,0.1,0.2,0.2v6.1h0.2c0.1,0,0.2,0,0.2-0.1l2.4-2.7c0.1-0.1,0.2-0.2,0.4-0.2h1.5
	c0.1,0,0.2,0.1,0.2,0.2s-0.1,0.2-0.2,0.3l-2.8,3l3,4.1c0.1,0.1,0.2,0.2,0.2,0.3C58.1,57.1,57.9,57.1,57.8,57.1z"/>
</svg>
