<?xml version="1.0" encoding="utf-8"?>
<!DOCTYPE svg PUBLIC "-//W3C//DTD SVG 1.1//EN" "http://www.w3.org/Graphics/SVG/1.1/DTD/svg11.dtd">
<svg version="1.1" id="VARG" xmlns="http://www.w3.org/2000/svg" xmlns:xlink="http://www.w3.org/1999/xlink" x="0px" y="0px"
 width="217px" height="89px" viewBox="0 0 217 89" enable-background="new 0 0 217 89" xml:space="preserve">
<g>
<g>
<polyline points="104.893,64.705 104.893,45.852 105.268,46.53 117.286,64.705 127.985,64.705 127.985,27.676 117.286,27.676 
117.282,46.53 116.905,45.852 104.893,27.676 94.19,27.676 94.19,64.705 104.893,64.705 "/>
<polyline points="27.851,27.676 61.648,27.676 61.648,37.775 52.571,37.775 50.382,37.721 50.382,64.705 39.117,64.705 
39.117,37.721 36.928,37.775 27.851,37.775 27.851,27.676 "/>
<polyline points="160.528,27.676 194.323,27.676 194.323,37.775 185.249,37.775 183.059,37.721 183.059,64.705 171.792,64.705 
171.792,37.721 169.602,37.775 160.528,37.775 160.528,27.676 "/>
<path d="M214.977,46.188c0,22.312-16.814,40.395-37.551,40.395c-14.381,0-26.861-8.706-33.168-21.477
c-6.311,12.771-18.789,21.477-33.172,21.477c-14.381,0-26.859-8.703-33.168-21.477C71.611,77.879,59.13,86.583,44.752,86.583
c-20.741,0-37.551-18.083-37.551-40.395c0-22.306,16.81-40.389,37.551-40.389c14.378,0,26.859,8.704,33.166,21.477
c6.31-12.772,18.788-21.477,33.168-21.477c14.383,0,26.861,8.704,33.172,21.477c6.307-12.772,18.787-21.477,33.168-21.477
C198.163,5.799,214.977,23.882,214.977,46.188z M44.752,77.156c15.896,0,28.783-13.86,28.783-30.968
c0-17.102-12.887-30.962-28.783-30.962c-15.901,0-28.788,13.86-28.788,30.962C15.964,63.295,28.851,77.156,44.752,77.156z
 M111.086,77.156c15.902,0,28.789-13.86,28.789-30.968c0-17.102-12.887-30.962-28.789-30.962
c-15.896,0-28.789,13.86-28.789,30.962C82.298,63.295,95.19,77.156,111.086,77.156z M177.426,77.156
c15.896,0,28.789-13.86,28.789-30.968c0-17.102-12.893-30.962-28.789-30.962c-15.9,0-28.789,13.86-28.789,30.962
C148.637,63.295,161.526,77.156,177.426,77.156"/>
</g>
<g>
<polyline fill="#F79239" points="101.729,63.388 101.729,44.537 102.104,45.214 114.122,63.388 124.821,63.388 124.821,26.361 
114.122,26.361 114.118,45.214 113.741,44.537 101.729,26.361 91.028,26.361 91.028,63.388 101.729,63.388 "/>
<polyline fill="#F79239" points="24.688,26.361 58.485,26.361 58.485,36.458 49.408,36.458 47.219,36.406 47.219,63.388 
35.954,63.388 35.954,36.406 33.765,36.458 24.688,36.458 24.688,26.361 "/>
<polyline fill="#F79239" points="157.364,26.361 191.159,26.361 191.159,36.458 182.084,36.458 179.895,36.406 179.895,63.388 
168.627,63.388 168.627,36.406 166.438,36.458 157.364,36.458 157.364,26.361 "/>
<path fill="#F79239" d="M211.813,44.873c0,22.311-16.814,40.393-37.551,40.393c-14.381,0-26.861-8.704-33.168-21.475
c-6.311,12.771-18.789,21.475-33.172,21.475c-14.379,0-26.858-8.702-33.167-21.475c-6.307,12.772-18.788,21.475-33.166,21.475
c-20.741,0-37.551-18.082-37.551-40.393c0-22.307,16.81-40.389,37.551-40.389c14.378,0,26.859,8.703,33.166,21.477
c6.31-12.773,18.789-21.477,33.167-21.477c14.383,0,26.861,8.703,33.172,21.477c6.307-12.773,18.787-21.477,33.168-21.477
C194.999,4.484,211.813,22.566,211.813,44.873z M41.589,75.839c15.896,0,28.783-13.859,28.783-30.967
c0-17.102-12.887-30.963-28.783-30.963c-15.901,0-28.788,13.861-28.788,30.963C12.801,61.98,25.688,75.839,41.589,75.839z
 M107.922,75.839c15.902,0,28.789-13.859,28.789-30.967c0-17.102-12.887-30.963-28.789-30.963
c-15.895,0-28.788,13.861-28.788,30.963C79.135,61.98,92.028,75.839,107.922,75.839z M174.262,75.839
c15.896,0,28.789-13.859,28.789-30.967c0-17.102-12.893-30.963-28.789-30.963c-15.9,0-28.789,13.861-28.789,30.963
C145.473,61.98,158.362,75.839,174.262,75.839"/>
</g>
</g>
</svg>
