<?xml version="1.0" encoding="utf-8"?>
<!-- Generator: Adobe Illustrator 20.0.0, SVG Export Plug-In . SVG Version: 6.00 Build 0)  -->
<!DOCTYPE svg PUBLIC "-//W3C//DTD SVG 1.1//EN" "http://www.w3.org/Graphics/SVG/1.1/DTD/svg11.dtd">
<svg version="1.1"
	 id="svg2" inkscape:version="0.48.2 r9819" sodipodi:docname="New document 1" xmlns:cc="http://creativecommons.org/ns#" xmlns:dc="http://purl.org/dc/elements/1.1/" xmlns:inkscape="http://www.inkscape.org/namespaces/inkscape" xmlns:rdf="http://www.w3.org/1999/02/22-rdf-syntax-ns#" xmlns:sodipodi="http://sodipodi.sourceforge.net/DTD/sodipodi-0.dtd" xmlns:svg="http://www.w3.org/2000/svg"
	 xmlns="http://www.w3.org/2000/svg" xmlns:xlink="http://www.w3.org/1999/xlink" x="0px" y="0px" viewBox="0 0 356 80.3"
	 style="enable-background:new 0 0 356 80.3;" xml:space="preserve">
<style type="text/css">
	.st0{fill:#231F20;}
	.st1{fill:#1162A5;}
</style>
<g id="g3255" transform="translate(98.4319,324.9347)">
	<path id="path3257" inkscape:connector-curvature="0" class="st0" d="M-5.9-278.1v-18.1h10l-0.4,2.5h-6.6v4.9h5.6v2.5h-5.5v5.6h7.2
		l0,2.6H-5.9z"/>
</g>
<g id="g3259" transform="translate(110.7315,324.9347)">
	<path id="path3261" inkscape:connector-curvature="0" class="st0" d="M7.4-278.1l-3.7-7.2l-3.6,7.2h-3.7l5.5-9.7l-4.9-8.4h3.7
		l2.9,5.6l2.8-5.6H10L5.4-288l5.6,9.9H7.4z"/>
</g>
<g id="g3263" transform="translate(118.9813,332.0201)">
	<path id="path3265" inkscape:connector-curvature="0" class="st0" d="M16.4-300c-0.5-0.6-1.3-0.9-2.5-0.9h-2.3v6.3h2.3
		c2.2,0,3.2-1,3.2-3.2C17.1-298.7,16.9-299.5,16.4-300 M14.6-292.1h-3.1v6.9h-3v-18.1h4.8c2.6,0,3.6,0.3,4.6,0.9
		c1.6,0.9,2.5,2.6,2.5,4.5C20.4-294.3,17.8-292.1,14.6-292.1"/>
</g>
<g id="g3267" transform="translate(126.265,332.4458)">
	<path id="path3269" inkscape:connector-curvature="0" class="st0" d="M24.3-301.3h-1.6v5.7h1.5c1.6,0,2.4-0.2,3-0.8
		c0.5-0.5,0.8-1.3,0.8-2.2C27.9-300.4,26.9-301.3,24.3-301.3 M28.4-285.7l-1.6-2.8c-1.3-2.2-2.1-3.5-3.1-4.5
		c-0.3-0.3-0.6-0.5-1.2-0.5v7.8h-3v-18.1h5.5c4,0,5.9,2.3,5.9,5.2c0,2.6-1.7,5-4.5,5c0.7,0.3,1.9,2.1,2.8,3.6l2.7,4.3
		C32-285.7,28.4-285.7,28.4-285.7z"/>
</g>
<g id="g3271" transform="translate(133.1232,324.9347)">
	<path id="path3273" inkscape:connector-curvature="0" class="st0" d="M31.7-278.1v-18.1h10l-0.4,2.5h-6.6v4.9h5.6v2.5h-5.5v5.6H42
		l0,2.6H31.7z"/>
</g>
<g id="g3275" transform="translate(143.5424,324.7729)">
	<path id="path3277" inkscape:connector-curvature="0" class="st0" d="M43-277.6c-2.1,0-4.2-0.5-5.9-1.6l1.2-2.3
		c1.6,0.9,3.1,1.5,4.9,1.5c2.2,0,3.5-1.1,3.5-2.9c0-1.3-0.8-2.2-2.7-2.7l-1.9-0.5c-1.6-0.5-2.8-1.1-3.5-2.2
		c-0.5-0.7-0.8-1.6-0.8-2.6c0-3.2,2.5-5.4,6.1-5.4c2.1,0,4.1,0.6,5.7,1.7l-1.4,2.1c-1.7-1-2.8-1.4-4.3-1.4c-1.8,0-3,1-3,2.5
		c0,1.1,0.6,1.7,2.4,2.2l2.1,0.6c2.6,0.8,4.4,2.4,4.4,5.1C50-280.4,47.6-277.6,43-277.6"/>
</g>
<g id="g3279" transform="translate(152.5312,324.7729)">
	<path id="path3281" inkscape:connector-curvature="0" class="st0" d="M52.7-277.6c-2.1,0-4.2-0.5-5.9-1.6l1.1-2.3
		c1.6,0.9,3.1,1.5,4.9,1.5c2.2,0,3.6-1.1,3.6-2.9c0-1.3-0.8-2.2-2.7-2.7l-1.9-0.5c-1.6-0.5-2.8-1.1-3.5-2.2
		c-0.5-0.7-0.8-1.6-0.8-2.6c0-3.2,2.5-5.4,6.1-5.4c2.1,0,4.1,0.6,5.7,1.7l-1.4,2.1c-1.7-1-2.8-1.4-4.3-1.4c-1.8,0-3,1-3,2.5
		c0,1.1,0.6,1.7,2.4,2.2l2.1,0.6c2.6,0.8,4.4,2.4,4.4,5.1C59.7-280.4,57.3-277.6,52.7-277.6"/>
</g>
<g id="g3283" transform="translate(166.2213,324.7729)">
	<path id="path3285" inkscape:connector-curvature="0" class="st0" d="M67.5-277.6c-2.1,0-4.2-0.5-5.9-1.6l1.1-2.3
		c1.6,0.9,3.1,1.5,4.9,1.5c2.2,0,3.5-1.1,3.5-2.9c0-1.3-0.8-2.2-2.7-2.7l-1.9-0.5c-1.6-0.5-2.8-1.1-3.5-2.2
		c-0.5-0.7-0.8-1.6-0.8-2.6c0-3.2,2.5-5.4,6.1-5.4c2.1,0,4.1,0.6,5.7,1.7l-1.4,2.1c-1.7-1-2.8-1.4-4.3-1.4c-1.8,0-3,1-3,2.5
		c0,1.1,0.6,1.7,2.4,2.2l2.1,0.6c2.6,0.8,4.4,2.4,4.4,5.1C74.6-280.4,72.1-277.6,67.5-277.6"/>
</g>
<g id="g3287" transform="translate(176.4124,324.7977)">
	<path id="path3289" inkscape:connector-curvature="0" class="st0" d="M78.6-277.7c-2.4,0-4.3-0.9-5.7-2.6c-1.4-1.6-2.1-3.8-2.1-6.4
		c0-2.2,0.4-4,1.2-5.5c1.4-2.6,3.8-4.2,6.7-4.2c1.8,0,3.4,0.5,4.5,1.4l-1.4,2c-1-0.7-2-1-3.1-1c-1.5,0-2.8,0.8-3.6,2.2
		c-0.6,1.1-0.9,2.6-0.9,4.8c0,2.2,0.2,3.5,0.7,4.5c0.8,1.7,2.3,2.6,4,2.6c1.3,0,2.2-0.3,3.2-1.1l1.4,1.9
		C82.1-278.2,80.5-277.7,78.6-277.7"/>
</g>
<g id="g3291" transform="translate(184.2498,332.4458)">
	<path id="path3293" inkscape:connector-curvature="0" class="st0" d="M87-301.3h-1.6v5.7h1.5c1.6,0,2.4-0.2,3-0.8
		c0.5-0.5,0.8-1.3,0.8-2.2C90.7-300.4,89.7-301.3,87-301.3 M91.2-285.7l-1.6-2.8c-1.3-2.2-2.1-3.5-3.1-4.5c-0.3-0.3-0.6-0.5-1.2-0.5
		v7.8h-3v-18.1H88c4,0,5.9,2.3,5.9,5.2c0,2.6-1.7,5-4.5,5c0.7,0.3,1.9,2.1,2.8,3.6l2.7,4.3C94.8-285.7,91.2-285.7,91.2-285.7z"/>
</g>
<path id="path3295" inkscape:connector-curvature="0" class="st0" d="M285.6,28.7h3.1v18.1h-3.1V28.7z"/>
<g id="g3297" transform="translate(200.2354,332.0201)">
	<path id="path3299" inkscape:connector-curvature="0" class="st0" d="M104.4-300c-0.5-0.6-1.3-0.9-2.5-0.9h-2.4v6.3h2.4
		c2.2,0,3.2-1,3.2-3.2C105.1-298.7,104.9-299.5,104.4-300 M102.6-292.1h-3.1v6.9h-3v-18.1h4.8c2.6,0,3.6,0.3,4.6,0.9
		c1.6,0.9,2.5,2.6,2.5,4.5C108.4-294.3,105.8-292.1,102.6-292.1"/>
</g>
<g id="g3301" transform="translate(210.0642,332.4085)">
	<path id="path3303" inkscape:connector-curvature="0" class="st0" d="M115-301.2h-4.5v15.6h-3v-15.6h-4.6v-2.5h12.5L115-301.2z"/>
</g>
<g id="g3305" transform="translate(215.1669,324.7729)">
	<path id="path3307" inkscape:connector-curvature="0" class="st0" d="M120.5-277.6c-2.1,0-4.2-0.5-5.9-1.6l1.2-2.3
		c1.6,0.9,3.1,1.5,4.9,1.5c2.2,0,3.6-1.1,3.6-2.9c0-1.3-0.8-2.2-2.7-2.7l-1.9-0.5c-1.6-0.5-2.8-1.1-3.5-2.2
		c-0.5-0.7-0.8-1.6-0.8-2.6c0-3.2,2.5-5.4,6.1-5.4c2.1,0,4.1,0.6,5.7,1.7l-1.4,2.1c-1.7-1-2.8-1.4-4.3-1.4c-1.8,0-2.9,1-2.9,2.5
		c0,1.1,0.6,1.7,2.4,2.2l2.1,0.6c2.6,0.8,4.4,2.4,4.4,5.1C127.6-280.4,125.1-277.6,120.5-277.6"/>
</g>
<g id="g3309" transform="translate(223.0064,332.1651)">
	<path id="path3311" inkscape:connector-curvature="0" class="st0" d="M129-300.4c-0.1,0-0.3-0.1-0.5-0.1h-0.3v1.3h0.3
		c0.4,0,0.6,0,0.7-0.2c0.1-0.1,0.2-0.3,0.2-0.5C129.4-300.1,129.2-300.3,129-300.4 M129.5-296.5c-0.2-0.3-0.3-0.5-0.5-0.8
		c-0.5-0.9-0.6-1.1-0.8-1.2c0,0-0.1,0-0.1,0v2h-0.9v-4.8h1.8c0.9,0,1.4,0.6,1.4,1.4c0,0.7-0.5,1.3-1.1,1.3c0.1,0.1,0.1,0.1,0.2,0.2
		c0.3,0.3,1.2,1.9,1.2,1.9S129.5-296.5,129.5-296.5z M128.7-302.3c-1.8,0-3.3,1.5-3.3,3.4c0,1.9,1.5,3.5,3.3,3.5
		c1.8,0,3.3-1.6,3.3-3.5C132-300.8,130.5-302.3,128.7-302.3 M128.7-294.5c-2.3,0-4.3-1.9-4.3-4.3c0-2.4,1.9-4.3,4.3-4.3
		c2.3,0,4.3,1.9,4.3,4.3C133-296.4,131-294.5,128.7-294.5"/>
</g>
<g>
	<path class="st1" d="M48.6,10.7h15.9c-3.7-3.1-8-5.4-12.7-6.9L48.6,10.7z"/>
	<path class="st1" d="M20.8,65.8H14l-0.7,1.5c1.5,1.5,3.2,2.9,5,4.1L20.8,65.8z"/>
	<path class="st1" d="M46.5,10.7L50,3.2c-2-0.5-4.1-0.9-6.2-1.1l-4,8.6H46.5z"/>
	<path class="st1" d="M78.2,36.5c-0.6-6.7-3-12.9-6.7-18.1c-0.6,1.6-1.1,3.1-1.5,4.6l-3,0.2c0.7-3.4,0.2-5.6-0.6-7
		c-1.1-1.4-3.6-2.2-9.7-2.2h-7.5c-1.3,0-1.9,0.1-2.7,1.4L42,24.8c0.7,0.4,1.4,0.9,2.1,1.4l-1.1,1.5c-0.6-0.4-1.1-0.8-1.7-1.2
		l-4.1,8.9h8.5c8.6,0,9.6-0.7,13.3-5.8h2.7l-3.2,6.9H78.2z M49.1,33.9c-0.9-1.2-1.9-2.4-3-3.5l1.3-1.3c1.2,1.1,2.2,2.4,3.2,3.7
		L49.1,33.9z"/>
	<path class="st1" d="M15.8,10.7h21.9L41.8,2c-0.5,0-1.1,0-1.6,0C30.9,1.9,22.4,5.2,15.8,10.7z"/>
	<path class="st1" d="M68.4,65.8H53.3c-0.4,0.9-0.9,1.7-1.4,2.5l-1.6-1c0.4-0.6,0.7-1.1,0.9-1.5H22.9l-3.1,6.7
		c5.3,3.3,11.4,5.4,18,5.8c1-0.5,2-0.9,3-1.5l0.9,1.6C52.3,77.9,61.8,73.2,68.4,65.8z M46,75.4L44.8,74c1.1-1,2.2-2.1,3.2-3.3
		l1.5,1.2C48.4,73.2,47.2,74.3,46,75.4z"/>
	<path class="st1" d="M78.3,38.4H57.5l-2.8,6.1H52c0.9-4.6,0.5-5.8-4.3-6.1h-12l-8.8,18.9c-0.8,2-1,3.3-0.3,3.7c1.6,0.8,4.5,1,9.4,1
		c6.5,0,10.8-0.8,13.8-2.7c2.4-1.6,5.6-4.2,8.8-7.5l2.6,0.3c-1.2,1.7-6.5,9-8.8,11.9H70c5.2-6.5,8.3-14.8,8.3-23.8
		C78.4,39.6,78.3,39,78.3,38.4z M54.8,51.5c0-1.5-0.2-3.1-0.5-4.6l1.9-0.3c0.3,1.6,0.5,3.2,0.5,4.9L54.8,51.5z"/>
	<path class="st1" d="M9.1,62.4c3.3-0.4,4.7-1.3,5.7-3l5.9-12.6l3.9-8.4H2c0,0.6,0,1.2,0,1.8C1.9,48.4,4.6,56.1,9.1,62.4z"/>
	<path class="st1" d="M25.6,36.5L32,22.6c-0.4-0.1-0.8-0.2-1.1-0.3l0.4-1.9c0.5,0.1,1,0.2,1.6,0.4c2.4-5.6,0.1-6.4-3.9-6.7l0.7-1.5
		h-16C7.3,18.8,3,27.1,2.1,36.5H25.6z M25,19.8c0.6,0,1.3,0,1.9,0.1l-0.1,1.9c-0.6,0-1.2-0.1-1.9-0.1c-0.9,0-1.8,0-2.7,0.1L22.1,20
		C23,19.9,24,19.8,25,19.8z M17.7,20.6l0.4,1.8c-1.5,0.3-3,0.8-4.4,1.4l-0.7-1.8C14.6,21.5,16.1,21,17.7,20.6z M10.1,25.7
		c-1.3,0.8-2.6,1.6-3.8,2.6l-1.2-1.5c1.3-1,2.6-1.9,4-2.7L10.1,25.7z"/>
</g>
</svg>
