<?xml version="1.0" encoding="utf-8"?>
<!-- Generator: Adobe Illustrator 19.2.1, SVG Export Plug-In . SVG Version: 6.00 Build 0)  -->
<!DOCTYPE svg PUBLIC "-//W3C//DTD SVG 1.1//EN" "http://www.w3.org/Graphics/SVG/1.1/DTD/svg11.dtd">
<svg version="1.1" id="Layer_1" xmlns="http://www.w3.org/2000/svg" xmlns:xlink="http://www.w3.org/1999/xlink" x="0px" y="0px"
	 viewBox="0 0 372.5 141.4" style="enable-background:new 0 0 372.5 141.4;" xml:space="preserve">
<style type="text/css">
	.st0{fill:#FFF400;}
</style>
<g>
	<path class="st0" d="M323,100h-1.8l-0.5,2.4h1.8c0.9,0,1.4-0.5,1.6-1.2C324.2,100.4,323.8,100,323,100z"/>
	<path class="st0" d="M31,0L0,141.4h341.5L372.5,0H31z M82.6,109.7l5.8-27.2H59.9l-5.7,27.2H37.8l16.6-78.4h16.3L63,67.8h28.5
		l7.8-36.5h16.1l-16.6,78.4L82.6,109.7L82.6,109.7z M172,82.6h-42.5c-2.9,22.2,24.4,13.1,29.8,8.9l6.4,11
		c-7.2,5.5-17.5,8.4-26.7,8.4c-35.7,0-27.5-45.4-10.8-58.5c7.3-5.8,14.8-7.5,20.3-7.5c2.3,0,14.5,0.1,21.1,9.2
		C177.4,64.8,172,82.6,172,82.6z M202.2,64.2c-2.7,2.8-3.9,7.4-5.4,14.6l-6.5,30.9H174l7.9-37.3c2.1-9.9,5.3-16.1,11-20.9
		c6.6-5.5,16.6-8.4,28-5.5l-3.1,14.7C211.3,60.2,205.9,60.4,202.2,64.2z M248.2,109.8c-13.1,3.6-23.5-2.1-26.5-8
		c-3.3-6.4-2.7-12.3-1.1-19.9l10.6-50.6h16.3L244.4,46h17.2l-3.1,14.7h-17.2l-4.2,19.8c-1.3,5.9-2.7,11-0.3,13.6
		c1.8,1.9,5.3,3.1,14.3,2L248.2,109.8z M306.2,109.7h-50.7l3-14.2l36.8-34.8h-29.4L269,46h50.7l-3,14l-37,35h29.6L306.2,109.7z
		 M330.5,102.4c-1,4.6-5.5,8.5-10.2,8.5c-4.1,0-6.8-2.8-6.8-6.6l0.2-1.8c1-4.7,5.5-8.5,10.3-8.5c4,0,6.8,2.9,6.7,6.7L330.5,102.4z"
		/>
	<path class="st0" d="M323.8,95.2c-4,0-8.2,3.6-9,7.6l-0.1,1.5c0,3.3,2,5.5,5.6,5.5c4.1,0,8.3-3.5,9.1-7.6l0.1-1.5
		C329.4,97.5,327.4,95.3,323.8,95.2z M325.9,101.1c-0.3,1.3-1.2,2.1-2.3,2.5l1.4,2.9h-2.1l-1.2-2.6h-1.4l-0.5,2.6H318l1.7-8.1h3.6
		C325.2,98.4,326.3,99.4,325.9,101.1z"/>
</g>
<g>
	<path d="M172,82.6c0,0,5.4-17.8-2.4-28.5c-6.6-9.1-18.8-9.2-21.1-9.2c-5.5,0-13,1.7-20.3,7.5c-16.7,13.1-24.9,58.5,10.8,58.5
		c9.2,0,19.5-2.9,26.7-8.4l-6.4-11c-5.4,4.2-32.7,13.3-29.8-8.9H172z"/>
	<path d="M231.2,31.3l-10.6,50.6c-1.6,7.6-2.2,13.5,1.1,19.9c3,5.9,13.4,11.6,26.5,8l2.9-13.7c-9,1.1-12.5-0.1-14.3-2
		c-2.4-2.6-1-7.7,0.3-13.6l4.2-19.8h17.2l3.1-14.7h-17.2l3.1-14.7H231.2z"/>
	<polygon points="255.5,109.7 306.2,109.7 309.3,95 279.7,95 316.7,60 319.7,46 269,46 265.9,60.7 295.3,60.7 258.5,95.5 	"/>
	<polygon points="54.4,31.3 37.8,109.7 54.2,109.7 59.9,82.5 88.4,82.5 82.6,109.7 98.8,109.7 115.4,31.3 99.3,31.3 91.5,67.8 
		63,67.8 70.7,31.3 	"/>
	<path d="M323.3,98.4h-3.6l-1.7,8.1h1.8l0.5-2.6h1.4l1.2,2.6h2.1l-1.4-2.9c1.1-0.4,2-1.2,2.3-2.5C326.3,99.4,325.2,98.4,323.3,98.4z
		 M322.5,102.4h-1.8l0.5-2.4h1.8c0.8,0,1.2,0.4,1.1,1.2C323.9,101.9,323.4,102.4,322.5,102.4z"/>
	<path d="M192.9,51.5c-5.7,4.8-8.9,11-11,20.9l-7.9,37.3h16.3l6.5-30.9c1.5-7.2,2.7-11.8,5.4-14.6c3.7-3.8,9.1-4,15.6-3.5l3.1-14.7
		C209.5,43.1,199.5,46,192.9,51.5z"/>
	<path d="M324,94c-4.8,0-9.3,3.8-10.3,8.5l-0.2,1.8c0,3.8,2.7,6.6,6.8,6.6c4.7,0,9.2-3.9,10.2-8.5l0.2-1.7C330.8,96.9,328,94,324,94
		z M329.4,102.2c-0.8,4.1-5,7.6-9.1,7.6c-3.6,0-5.6-2.2-5.6-5.5l0.1-1.5c0.8-4,5-7.6,9-7.6c3.6,0.1,5.6,2.3,5.7,5.5L329.4,102.2z"/>
	<path class="st0" d="M149.7,57.9c-10.2-0.9-15.8,7.8-16.7,11.3h26.1C159.1,69.2,160.8,58.9,149.7,57.9z"/>
</g>
</svg>
