<?xml version="1.0" encoding="utf-8"?>
<!-- Generator: Adobe Illustrator 19.2.1, SVG Export Plug-In . SVG Version: 6.00 Build 0)  -->
<!DOCTYPE svg PUBLIC "-//W3C//DTD SVG 1.1//EN" "http://www.w3.org/Graphics/SVG/1.1/DTD/svg11.dtd">
<svg version="1.1"
	 id="svg2" inkscape:export-filename="C:\Documents and Settings\John\My Documents\My Pictures\project logos\Heinz.eps(converted)-page1.png" inkscape:export-xdpi="90" inkscape:export-ydpi="90" inkscape:version="0.44.1" sodipodi:docbase="C:\Documents and Settings\John\My Documents\My Pictures\project logos" sodipodi:docname="Heinz.eps(converted)-page1.svg" sodipodi:version="0.32" xmlns:cc="http://web.resource.org/cc/" xmlns:dc="http://purl.org/dc/elements/1.1/" xmlns:inkscape="http://www.inkscape.org/namespaces/inkscape" xmlns:rdf="http://www.w3.org/1999/02/22-rdf-syntax-ns#" xmlns:sodipodi="http://sodipodi.sourceforge.net/DTD/sodipodi-0.dtd" xmlns:svg="http://www.w3.org/2000/svg"
	 xmlns="http://www.w3.org/2000/svg" xmlns:xlink="http://www.w3.org/1999/xlink" x="0px" y="0px" viewBox="0 0 187.1 74.9"
	 style="enable-background:new 0 0 187.1 74.9;" xml:space="preserve">
<style type="text/css">
	.st0{fill:none;}
	.st1{fill:#FF0017;}
</style>
<sodipodi:namedview  bordercolor="#666666" borderopacity="1.0" gridtolerance="10.0" guidetolerance="10.0" id="base" inkscape:current-layer="svg2" inkscape:cx="121.25" inkscape:cy="63.309547" inkscape:pageopacity="0.0" inkscape:pageshadow="2" inkscape:window-height="573" inkscape:window-width="853" inkscape:window-x="48" inkscape:window-y="68" inkscape:zoom="1.5546392" objecttolerance="10.0" pagecolor="#ffffff">
	</sodipodi:namedview>
<g id="g4" transform="translate(-2.834471,-56.08784)">
	<path id="path6" class="st0" d="M0-2.9h192.8v192.8H0V-2.9z"/>
</g>
<g>
	<path class="st1" d="M86.3,30.9c-3.1-1.6-6,8.3-6.5,9.4c1,0,2.6-0.5,4.2-1C83.9,39.2,87.8,31.4,86.3,30.9z"/>
	<path class="st1" d="M185.4,34c-3.4-1.3-7-2.9-10.7-3.9h-0.3c-1-0.3-1.8-1.3-1.8-2.3c0-0.3,0-0.3,0-0.5l3.4-11.4
		c0.3-0.3,0.3-0.3,0.3-0.5c0-1-0.5-1.8-1.3-2.1h-0.3c-20-9.6-49.4-16.1-81.2-16.1c-31.7,0-61.1,6.5-81.2,16.1H12
		c-0.8,0.3-1.3,1-1.3,2.1c0,0.3,0,0.3,0,0.5l3.6,11.4c0,0.3,0,0.3,0,0.5c0,1-0.8,2.1-1.8,2.3h-0.3c-3.6,1-7.3,2.6-10.7,3.9
		c-1.3,0.5-2.1,1.6-1.6,2.6v0.3l9.9,33c0.3,1,1,2.1,2.1,2.1h0.5h161.8h0.3c1.3,0,2.1-1,2.3-2.1l9.9-33v-0.3
		C187.4,35.6,186.7,34.5,185.4,34z M103.9,16.6c1.6-2.6,7.8-3.4,8.8-3.1c0.8,0.3,0.8,1,0.5,1.6c-0.3,1.3-0.5,2.1-1,3.9
		c-0.3,0.8-1.3,1.6-1.6,1.8c-2.3,1.3-7,3.4-7.5,2.3C101.6,22.6,103.4,17.6,103.9,16.6z M65.5,55.9c-0.3,0.3-3.4,3.1-11.2,3.1
		c-2.1,0.3-1.6-3.6-0.8-6c0.8-2.9,3.9-14.6,3.9-14.6h-7.8c0,0-1.3,4.4-2.1,7c-0.5,2.1-2.1,4.9-4.4,7c-1.6,1-16.1,11.4-24.5,5.7
		c-3.1-2.1-5.2-6.5-6-10.4c-0.3-2.1-0.3-5.7,0.5-5.7c1-1.3,6.8-3.6,8.3-3.6c0.8,0,0,2.9,0.3,6.8c0.3,3.1,1.6,7.3,3.6,9.4
		c0.8,0.5,1.8,1,2.9,1.3c1,0.3,2.1,0.3,2.9,0c3.4-1,6.8-8.3,7.5-11.7c1.3-4.4,5.7-20.5,6.2-22.1c0.5-2.1,1.3-3.9,0.8-4.9
		c-0.3-0.5-1.6-0.8-2.1-0.8c-1.6-0.3-2.9-0.3-4.4,0c-1,0.3-7.5,1.6-6.5,10.7c0.3,2.3,1.8,4.7,2.3,6c0.5,1,0.3,1.3-0.3,1.3
		c0.3,0-6.5,1-7.3,0.5c-0.3-0.3-0.8-0.8-1-1.6c-2.3-6.2-1.3-9.6-0.5-11.4c1-3.1,4.4-5.2,6.8-6c5.2-1.8,21.6-1.3,21.8-1.3
		c1.6,0,1.6,1,1.3,1.8c-0.5,1.8-5.2,18.7-5.2,18.7h7.8l3.6-13.3c0.5-2.9,2.9-7.3,6-7.3h8.6c-1.3,1.3-3.4,1.8-7,14.6L64,50.2
		c-1,2.6,0.8,4.4,1.3,4.7C65.7,55.1,65.7,55.6,65.5,55.9z M89.6,53c-1.6,2.1-3.4,3.6-5.7,4.9c-2.6,1.3-5.5,1.6-8.1,1.6
		c-12.2-1-6.8-15.9-6-17.9C75.5,27.6,87.7,27,91.1,27c5.5,0.5,8.3,11.4-12,16.4c0,0-3.1,7.5,1.8,9.6c1.6,0.5,3.4,0.5,4.9,0
		c1.6-0.5,1.8-0.8,3.1-1.3C89.1,51.7,90.9,50.7,89.6,53z M103.7,56.1c-1,0.8-8.8,4.2-10.7,2.9c-2.3-0.8-1.3-4.9-0.5-7
		s4.4-13.3,5.2-16.4c0.5-1.8,0.5-2.6-0.3-3.6c-0.8-0.8,0-1.6,0.3-1.6c1.8-1.6,9.4-3.9,10.9-3.4c1.3,0.8,0.3,3.1,0,4.9l-4.9,16.6
		c-0.5,1.6-1.6,4.4,0,5.5c0.3,0.3,0.5,0.3,1,0.5C105.5,54.6,105.5,55.4,103.7,56.1z M135.7,56.1c-0.8,0.5-9.1,4.2-10.9,2.9
		c-2.1-0.8-0.8-4.9,0-7s2.9-10.7,4.7-16.4c0.3-1.3,0.8-3.1-1.3-2.9c-1.3,0.3-4.9,2.1-6,6c-1.3,4.7-3.1,10.1-3.1,10.4
		c-1.6,5.5,0,6-1,7c-0.3,0.3-1,0.8-1.8,1c-0.8,0.5-6.2,2.9-7.5,1.8c-1.8-1.3-0.8-5.2,0-7.3s3.9-13,4.9-16.1c0.5-1.8,0.3-2.6-0.5-3.6
		c-0.8-0.8,0-1.6,0.5-1.6c1.8-1.6,9.4-3.9,10.7-3.4c1,0.5,0.5,2.9,0,4.4c0,0,4.4-3.9,10.7-4.9c7.3-1,5.5,4.4,5.2,5.5l-4.7,16.6
		c-0.3,1.6-1.6,4.4,0,5.5c0.3,0.3,0.8,0.3,1,0.5C137.2,54.6,137.2,55.1,135.7,56.1z M166.1,55.4c-2.6,3.6-1.8,2.9-6.8,2.9h-19.8
		c-0.8,0-2.1,0-1.3-1.3c4.7-7.5,19.8-21.8,16.9-21.8H146c-0.8,0-1.3,1-1.6,1.3c-1.6,1.3-1.6,0.3-1.6,0.3c0.8-2.6,2.1-6.5,3.1-7.8
		c1.3-1.3,2.1-1.8,3.6-1.8h15.1c1.8,0,1,1.3,0.8,1.8c-0.5,0.8-14,19.2-14.8,20.3c-0.5,0.5-0.3,0.8,0,1h13.8c2.1,0,2.6-0.8,4.2-3.1
		c0.8-1.6,0-5.5-4.4-4.2c-0.3-0.5,0.3-2.6,1.3-3.6c1.8-1.6,6.5-0.8,7.3,2.1C174.2,44.9,166.1,55.4,166.1,55.4z"/>
</g>
</svg>
