<?xml version="1.0" encoding="utf-8"?>
<!-- Generator: Adobe Illustrator 19.2.1, SVG Export Plug-In . SVG Version: 6.00 Build 0)  -->
<!DOCTYPE svg PUBLIC "-//W3C//DTD SVG 1.1//EN" "http://www.w3.org/Graphics/SVG/1.1/DTD/svg11.dtd">
<svg version="1.1"
	 id="svg5890" xmlns:cc="http://creativecommons.org/ns#" xmlns:dc="http://purl.org/dc/elements/1.1/" xmlns:rdf="http://www.w3.org/1999/02/22-rdf-syntax-ns#" xmlns:svg="http://www.w3.org/2000/svg"
	 xmlns="http://www.w3.org/2000/svg" xmlns:xlink="http://www.w3.org/1999/xlink" x="0px" y="0px" viewBox="0 0 91.2 43"
	 style="enable-background:new 0 0 91.2 43;" xml:space="preserve">
<style type="text/css">
	.st0{fill:#004990;}
</style>
<g id="layer1" transform="translate(-110.25097,-377.28528)">
	<rect x="137.5" y="402.2" class="st0" width="3.6" height="8.1"/>
	<g>
		<path class="st0" d="M193.3,392.2v-4h-14.4l-23-9.9l-23,9.9h-14.4v4h-7.2v27.1h89.2v-27.1H193.3z M131.8,413.9h-10.4v-18.5h4.1
			v14.9h6.3L131.8,413.9L131.8,413.9z M145.2,411.9c0,1.1-0.9,1.9-1.9,1.9h-7.9c-1.1,0-1.9-0.9-1.9-1.9v-11.3c0-1.1,0.9-1.9,1.9-1.9
			h7.9c1.1,0,1.9,0.9,1.9,1.9V411.9z M164.2,411.9c0,1.1-0.9,1.9-1.9,1.9h-4.8c-0.8,0-1.6-0.6-1.6-1.4c0,0.8-0.8,1.4-1.6,1.4h-4.8
			c-1.1,0-1.9-0.9-1.9-1.9v-13.3h4.1v11.6h2.5v-11.6h3.6v11.6h2.5v-11.6h4.1v13.3H164.2z M176.3,402.2h-5.6v2.3h5.6v3.4h-5.6v2.3
			h5.6v3.6h-9.7v-15.2l0,0h9.7V402.2z M177.2,395.4L177.2,395.4h3.4l-0.6,4.4h-2.8L177.2,395.4z M189.3,413.6
			c-0.7,0.6-1.8,0.9-3.3,0.9l0,0c-2.7,0-5.7-1-5.8-1h-0.1v-3.6h0.1c0,0,3.2,1.2,4.7,1.4l0,0c0.1,0,0.2,0,0.3,0
			c0.8,0,1.4-0.4,1.6-0.9c0.1-0.5-0.2-1.1-0.9-1.5l0,0c-0.6-0.3-1.2-0.6-1.8-0.9c-1.5-0.7-3-1.3-3.9-3c-0.7-1.4-0.6-3.4,0.2-4.6
			c1-1.5,2.6-2.2,4.7-2.2c0.2,0,0.5,0,0.8,0c2.3,0.3,4.5,1.7,4.5,1.7l0,0v3.3h-0.1c0,0-1-0.4-2.2-0.9c-0.6-0.2-1.6-0.6-2.6-0.6
			c-0.6,0-1,0.2-1.3,0.5c-0.3,0.2-0.4,0.6-0.3,0.9c0.2,0.9,1.6,1.4,2,1.6h0.1c2.3,0.9,3.8,2,4.4,3.3l0,0v0.1v0.1l0,0l0,0
			c0.3,0.6,0.4,1.3,0.4,1.9C190.9,412.3,189.3,413.6,189.3,413.6z M192.5,400.5c-0.7,0-1.3-0.5-1.3-1.2s0.6-1.2,1.3-1.2
			s1.3,0.5,1.3,1.2C193.7,400,193.1,400.5,192.5,400.5z"/>
		<path class="st0" d="M192.8,398.9c0-0.2-0.2-0.2-0.3-0.2h-0.3v0.4h0.3l0,0C192.6,399.2,192.8,399.2,192.8,398.9z"/>
		<path class="st0" d="M192.5,398.2c-0.6,0-1,0.4-1,1s0.4,1,1,1s1-0.4,1-1C193.5,398.7,193,398.2,192.5,398.2z M192.8,400l-0.4-0.6
			h-0.2v0.6H192v-1.4h0.5c0.3,0,0.5,0.1,0.5,0.4c0,0.3-0.2,0.4-0.4,0.4l0.4,0.6H192.8z"/>
	</g>
</g>
</svg>
