<svg xmlns="http://www.w3.org/2000/svg" viewBox="0 0 93.7 93.71">
  <defs>
    <style>
      .academy-tools {
        fill: #fff;
      }
    </style>
  </defs>
  <title>academy-tools</title>
  <g id="Layer_2" data-name="Layer 2">
    <g id="Layer_1-2" data-name="Layer 1"><path
      class="academy-tools"
      d="M79.29,25.74A8,8,0,0,1,68,14.45L82.4,0H66.84L53.55,13.29V26L2.91,76.66A10,10,0,0,0,17,90.8L67.69,40.18H80.4L93.7,26.89V11.29ZM4.37,88.7a8,8,0,0,1,0-10.61L55.53,26.87V14.14L67.69,2h9.88l-11,11A10,10,0,0,0,80.69,27.16l11-11V26L79.57,38.18H66.84L15.66,89.37A8,8,0,0,1,4.37,88.7Z"/><path class="academy-tools" d="M10.73,77A6,6,0,0,0,6.5,78.72l-.06.06A6,6,0,0,0,10.69,89h0a6,6,0,0,0,0-12Zm2.95,8.68-.17.17A4,4,0,1,1,10.69,79h0a4,4,0,0,1,2.83,1.17,4,4,0,0,1,.16,5.49Z"/></g>
  </g>
</svg>
