<svg xmlns="http://www.w3.org/2000/svg" viewBox="0 0 1.08 1.08"><defs><style>.cls-1,.cls-33{fill:#fff;}.cls-1{opacity:0;}.cls-2{fill:#f7f7f7;opacity:0.03;}.cls-3{fill:#efefef;opacity:0.06;}.cls-4{fill:#e6e6e6;opacity:0.1;}.cls-5{fill:#dedede;opacity:0.13;}.cls-6{fill:#d6d6d6;opacity:0.16;}.cls-7{fill:#cecece;opacity:0.19;}.cls-8{fill:#c5c5c5;opacity:0.23;}.cls-9{fill:#bdbdbd;opacity:0.26;}.cls-10{fill:#b5b5b5;opacity:0.29;}.cls-11{fill:#adadad;opacity:0.32;}.cls-12{fill:#a5a5a5;opacity:0.35;}.cls-13{fill:#9c9c9c;opacity:0.39;}.cls-14{fill:#949494;opacity:0.42;}.cls-15{fill:#8c8c8c;opacity:0.45;}.cls-16{fill:#848484;opacity:0.48;}.cls-17{fill:#7b7b7b;opacity:0.52;}.cls-18{fill:#737373;opacity:0.55;}.cls-19{fill:#6b6b6b;opacity:0.58;}.cls-20{fill:#636363;opacity:0.61;}.cls-21{fill:#5a5a5a;opacity:0.65;}.cls-22{fill:#525252;opacity:0.68;}.cls-23{fill:#4a4a4a;opacity:0.71;}.cls-24{fill:#424242;opacity:0.74;}.cls-25{fill:#3a3a3a;opacity:0.77;}.cls-26{fill:#313131;opacity:0.81;}.cls-27{fill:#292929;opacity:0.84;}.cls-28{fill:#212121;opacity:0.87;}.cls-29{fill:#191919;opacity:0.9;}.cls-30{fill:#101010;opacity:0.94;}.cls-31{fill:#080808;opacity:0.97;}.cls-32{fill:#04247b;}.cls-34{fill:#ce152a;}</style></defs><title>UnitedKingdom</title><g id="Layer_2" data-name="Layer 2"><g id="Layer_1-2" data-name="Layer 1"><path class="cls-1" d="M.9.16a.55.55,0,0,1,0,.78A.55.55,0,0,1,.16.9a.49.49,0,0,1,0-.73A.49.49,0,0,1,.9.16Z" transform="translate(0)"/><path class="cls-2" d="M.89.16a.56.56,0,0,1,0,.78.56.56,0,0,1-.78,0,.49.49,0,0,1,0-.72A.49.49,0,0,1,.89.16Z" transform="translate(0)"/><path class="cls-3" d="M.89.16a.55.55,0,0,1,0,.77.55.55,0,0,1-.77,0,.49.49,0,0,1,0-.72A.49.49,0,0,1,.89.16Z" transform="translate(0)"/><path class="cls-4" d="M.88.17a.53.53,0,0,1,0,.75.53.53,0,0,1-.75,0,.49.49,0,0,1,0-.71A.49.49,0,0,1,.88.17Z" transform="translate(0)"/><path class="cls-5" d="M.88.17a.55.55,0,0,1,0,.75.55.55,0,0,1-.75,0,.49.49,0,0,1,0-.71A.49.49,0,0,1,.88.17Z" transform="translate(0)"/><path class="cls-6" d="M.87.17a.53.53,0,0,1,0,.74.53.53,0,0,1-.74,0,.46.46,0,0,1,0-.69A.46.46,0,0,1,.87.17Z" transform="translate(0)"/><path class="cls-7" d="M.86.18A.52.52,0,0,1,.91.91.52.52,0,0,1,.18.86a.45.45,0,0,1,0-.68A.45.45,0,0,1,.86.18Z" transform="translate(0)"/><path class="cls-8" d="M.86.18A.51.51,0,0,1,.9.9a.51.51,0,0,1-.72,0,.46.46,0,0,1,0-.68A.46.46,0,0,1,.86.18Z" transform="translate(0)"/><path class="cls-9" d="M.85.18a.5.5,0,0,1,0,.71.5.5,0,0,1-.71,0,.46.46,0,0,1,0-.67A.46.46,0,0,1,.85.18Z" transform="translate(0)"/><path class="cls-10" d="M.85.18a.52.52,0,0,1,0,.71.52.52,0,0,1-.71,0,.46.46,0,0,1,0-.67A.46.46,0,0,1,.85.18Z" transform="translate(0)"/><path class="cls-11" d="M.84.19a.49.49,0,0,1,0,.69.49.49,0,0,1-.69,0,.45.45,0,0,1,0-.66A.45.45,0,0,1,.84.19Z" transform="translate(0)"/><path class="cls-12" d="M.83.19a.48.48,0,0,1,0,.68.48.48,0,0,1-.68,0,.43.43,0,0,1,0-.64A.43.43,0,0,1,.83.19Z" transform="translate(0)"/><path class="cls-13" d="M.83.19a.49.49,0,0,1,0,.68.5.5,0,0,1-.68,0,.44.44,0,0,1,0-.64A.44.44,0,0,1,.83.19Z" transform="translate(0)"/><path class="cls-14" d="M.82.2a.46.46,0,0,1,0,.66A.46.46,0,0,1,.2.82a.43.43,0,0,1,0-.63A.43.43,0,0,1,.82.2Z" transform="translate(0)"/><path class="cls-15" d="M.82.2a.46.46,0,0,1,0,.65A.46.46,0,0,1,.2.82a.44.44,0,0,1,0-.63A.44.44,0,0,1,.82.2Z" transform="translate(0)"/><path class="cls-16" d="M.81.2a.46.46,0,0,1,0,.65A.46.46,0,0,1,.2.81.43.43,0,1,1,.81.2Z" transform="translate(0)"/><path class="cls-17" d="M.81.21a.45.45,0,0,1,0,.63.45.45,0,0,1-.63,0A.41.41,0,0,1,.2.2.41.41,0,0,1,.81.21Z" transform="translate(0)"/><path class="cls-18" d="M.8.21a.46.46,0,0,1,0,.63A.46.46,0,0,1,.21.8.41.41,0,0,1,.2.2.41.41,0,0,1,.8.21Z" transform="translate(0)"/><path class="cls-19" d="M.79.21a.44.44,0,0,1,0,.62.44.44,0,0,1-.62,0A.41.41,0,0,1,.2.2.41.41,0,0,1,.79.21Z" transform="translate(0)"/><path class="cls-20" d="M.79.21a.43.43,0,0,1,0,.61.43.43,0,0,1-.61,0A.41.41,0,1,1,.79.21Z" transform="translate(0)"/><path class="cls-21" d="M.78.22a.43.43,0,0,1,0,.6.43.43,0,0,1-.6,0A.4.4,0,0,1,.2.2.4.4,0,0,1,.78.22Z" transform="translate(0)"/><path class="cls-22" d="M.78.22a.42.42,0,0,1,0,.59.42.42,0,0,1-.59,0A.41.41,0,0,1,.2.2.41.41,0,0,1,.78.22Z" transform="translate(0)"/><path class="cls-23" d="M.77.22A.41.41,0,0,1,.8.8a.41.41,0,0,1-.58,0,.38.38,0,0,1,0-.56A.38.38,0,0,1,.77.22Z" transform="translate(0)"/><path class="cls-24" d="M.76.23A.4.4,0,0,1,.8.8a.4.4,0,0,1-.57,0A.38.38,0,1,1,.76.23Z" transform="translate(0)"/><path class="cls-25" d="M.76.23a.4.4,0,0,1,0,.56.4.4,0,0,1-.56,0,.38.38,0,0,1,0-.55A.38.38,0,0,1,.76.23Z" transform="translate(0)"/><path class="cls-26" d="M.75.23a.39.39,0,0,1,0,.55.39.39,0,0,1-.55,0,.38.38,0,0,1,0-.54A.38.38,0,0,1,.75.23Z" transform="translate(0)"/><path class="cls-27" d="M.75.23a.39.39,0,0,1,0,.55.39.39,0,0,1-.55,0,.39.39,0,0,1,0-.54A.39.39,0,0,1,.75.23Z" transform="translate(0)"/><path class="cls-28" d="M.74.24a.37.37,0,0,1,0,.53.37.37,0,0,1-.53,0,.38.38,0,0,1,0-.53A.38.38,0,0,1,.74.24Z" transform="translate(0)"/><path class="cls-29" d="M.74.24a.39.39,0,0,1,0,.53.39.39,0,0,1-.53,0,.37.37,0,0,1,0-.52A.37.37,0,0,1,.74.24Z" transform="translate(0)"/><path class="cls-30" d="M.73.24a.38.38,0,0,1,0,.52.38.38,0,0,1-.52,0,.35.35,0,0,1,0-.51A.35.35,0,0,1,.73.24Z" transform="translate(0)"/><path class="cls-31" d="M.72.25a.35.35,0,0,1,0,.5.35.35,0,0,1-.5,0,.35.35,0,0,1,0-.5A.35.35,0,0,1,.72.25Z" transform="translate(0)"/><path d="M.72.25a.36.36,0,0,1,0,.5.36.36,0,0,1-.5,0,.35.35,0,0,1,0-.5A.35.35,0,0,1,.72.25Z" transform="translate(0)"/><path class="cls-32" d="M.34.06V.31L.13.21A.51.51,0,0,1,.34.06Z" transform="translate(0)"/><path class="cls-32" d="M.84.21.63.31V.06A.51.51,0,0,1,.84.21Z" transform="translate(0)"/><path class="cls-32" d="M.34.65V.9A.6.6,0,0,1,.13.76Z" transform="translate(0)"/><path class="cls-32" d="M.84.76A.6.6,0,0,1,.63.9V.65Z" transform="translate(0)"/><path class="cls-33" d="M.93.48a.28.28,0,0,1,0,.09A.14.14,0,0,1,.9.63H.78l.1.05s0,0,0,.08L.63.65V.9L.57.92H.4L.34.9V.65L.13.76v0l.2-.1H.19L.09.68a.36.36,0,0,1,0-.11A.28.28,0,0,1,0,.48a.28.28,0,0,1,0-.09s0,0,0-.06H.19l-.1,0a.43.43,0,0,1,0-.07l.21.1V.06L.4,0H.57l.06,0V.31L.84.21v0l-.2.1H.78l.1,0a.49.49,0,0,1,0,.11A.28.28,0,0,1,.93.48Z" transform="translate(0)"/><path class="cls-34" d="M.19.33H.06l0,0Z" transform="translate(0)"/><path class="cls-34" d="M.9.63s0,0,0,.05L.78.63Z" transform="translate(0)"/><path class="cls-34" d="M.88.28l-.1,0H.65l.2-.1Z" transform="translate(0)"/><path class="cls-34" d="M.32.63l-.2.1s0,0,0,0L.19.63Z" transform="translate(0)"/><path class="cls-34" d="M.93.48a.28.28,0,0,1,0,.09H.57V.92H.4V.57H.05A.28.28,0,0,1,0,.48a.28.28,0,0,1,0-.09H.4V0H.57V.39H.92A.28.28,0,0,1,.93.48Z" transform="translate(0)"/></g></g></svg>