<svg xmlns="http://www.w3.org/2000/svg" viewBox="0 0 1.08 1.08"><defs><style>.cls-1,.cls-32{fill:#fff;}.cls-1{opacity:0;}.cls-2{fill:#f7f7f7;opacity:0.03;}.cls-3{fill:#efefef;opacity:0.06;}.cls-4{fill:#e6e6e6;opacity:0.1;}.cls-5{fill:#dedede;opacity:0.13;}.cls-6{fill:#d6d6d6;opacity:0.16;}.cls-7{fill:#cecece;opacity:0.19;}.cls-8{fill:#c5c5c5;opacity:0.23;}.cls-9{fill:#bdbdbd;opacity:0.26;}.cls-10{fill:#b5b5b5;opacity:0.29;}.cls-11{fill:#adadad;opacity:0.32;}.cls-12{fill:#a5a5a5;opacity:0.35;}.cls-13{fill:#9c9c9c;opacity:0.39;}.cls-14{fill:#949494;opacity:0.42;}.cls-15{fill:#8c8c8c;opacity:0.45;}.cls-16{fill:#848484;opacity:0.48;}.cls-17{fill:#7b7b7b;opacity:0.52;}.cls-18{fill:#737373;opacity:0.55;}.cls-19{fill:#6b6b6b;opacity:0.58;}.cls-20{fill:#636363;opacity:0.61;}.cls-21{fill:#5a5a5a;opacity:0.65;}.cls-22{fill:#525252;opacity:0.68;}.cls-23{fill:#4a4a4a;opacity:0.71;}.cls-24{fill:#424242;opacity:0.74;}.cls-25{fill:#3a3a3a;opacity:0.77;}.cls-26{fill:#313131;opacity:0.81;}.cls-27{fill:#292929;opacity:0.84;}.cls-28{fill:#212121;opacity:0.87;}.cls-29{fill:#191919;opacity:0.9;}.cls-30{fill:#101010;opacity:0.94;}.cls-31{fill:#080808;opacity:0.97;}.cls-33{fill:#b12233;}.cls-34{fill:#3c3b6d;}</style></defs><title>USA</title><g id="Layer_2" data-name="Layer 2"><g id="Layer_1-2" data-name="Layer 1"><path class="cls-1" d="M.9.16a.55.55,0,0,1,0,.78A.55.55,0,0,1,.16.9a.49.49,0,0,1,0-.73A.49.49,0,0,1,.9.16Z"/><path class="cls-2" d="M.89.16a.56.56,0,0,1,0,.78.56.56,0,0,1-.78,0,.49.49,0,0,1,0-.72A.49.49,0,0,1,.89.16Z"/><path class="cls-3" d="M.89.16a.55.55,0,0,1,0,.77.55.55,0,0,1-.77,0,.49.49,0,0,1,0-.72A.49.49,0,0,1,.89.16Z"/><path class="cls-4" d="M.88.17a.53.53,0,0,1,0,.75.53.53,0,0,1-.75,0,.49.49,0,0,1,0-.71A.49.49,0,0,1,.88.17Z"/><path class="cls-5" d="M.88.17a.55.55,0,0,1,0,.75.55.55,0,0,1-.75,0,.49.49,0,0,1,0-.71A.49.49,0,0,1,.88.17Z"/><path class="cls-6" d="M.87.17a.53.53,0,0,1,0,.74.53.53,0,0,1-.74,0,.46.46,0,0,1,0-.69A.46.46,0,0,1,.87.17Z"/><path class="cls-7" d="M.86.18A.52.52,0,0,1,.91.91.52.52,0,0,1,.18.86a.45.45,0,0,1,0-.68A.45.45,0,0,1,.86.18Z"/><path class="cls-8" d="M.86.18A.51.51,0,0,1,.9.9a.51.51,0,0,1-.72,0,.46.46,0,0,1,0-.68A.46.46,0,0,1,.86.18Z"/><path class="cls-9" d="M.85.18a.5.5,0,0,1,0,.71.5.5,0,0,1-.71,0,.46.46,0,0,1,0-.67A.46.46,0,0,1,.85.18Z"/><path class="cls-10" d="M.85.18a.52.52,0,0,1,0,.71.52.52,0,0,1-.71,0,.46.46,0,0,1,0-.67A.46.46,0,0,1,.85.18Z"/><path class="cls-11" d="M.84.19a.49.49,0,0,1,0,.69.49.49,0,0,1-.69,0,.45.45,0,0,1,0-.66A.45.45,0,0,1,.84.19Z"/><path class="cls-12" d="M.83.19a.48.48,0,0,1,0,.68.48.48,0,0,1-.68,0,.43.43,0,0,1,0-.64A.43.43,0,0,1,.83.19Z"/><path class="cls-13" d="M.83.19a.49.49,0,0,1,0,.68.5.5,0,0,1-.68,0,.44.44,0,0,1,0-.64A.44.44,0,0,1,.83.19Z"/><path class="cls-14" d="M.82.2a.46.46,0,0,1,0,.66A.46.46,0,0,1,.2.82a.43.43,0,0,1,0-.63A.43.43,0,0,1,.82.2Z"/><path class="cls-15" d="M.82.2a.46.46,0,0,1,0,.65A.46.46,0,0,1,.2.82a.44.44,0,0,1,0-.63A.44.44,0,0,1,.82.2Z"/><path class="cls-16" d="M.81.2a.46.46,0,0,1,0,.65A.46.46,0,0,1,.2.81.43.43,0,1,1,.81.2Z"/><path class="cls-17" d="M.81.21a.45.45,0,0,1,0,.63.45.45,0,0,1-.63,0A.41.41,0,0,1,.2.2.41.41,0,0,1,.81.21Z"/><path class="cls-18" d="M.8.21a.46.46,0,0,1,0,.63A.46.46,0,0,1,.21.8.41.41,0,0,1,.2.2.41.41,0,0,1,.8.21Z"/><path class="cls-19" d="M.79.21a.44.44,0,0,1,0,.62.44.44,0,0,1-.62,0A.41.41,0,0,1,.2.2.41.41,0,0,1,.79.21Z"/><path class="cls-20" d="M.79.21a.43.43,0,0,1,0,.61.43.43,0,0,1-.61,0A.41.41,0,1,1,.79.21Z"/><path class="cls-21" d="M.78.22a.43.43,0,0,1,0,.6.43.43,0,0,1-.6,0A.4.4,0,0,1,.2.2.4.4,0,0,1,.78.22Z"/><path class="cls-22" d="M.78.22a.42.42,0,0,1,0,.59.42.42,0,0,1-.59,0A.41.41,0,0,1,.2.2.41.41,0,0,1,.78.22Z"/><path class="cls-23" d="M.77.22A.41.41,0,0,1,.8.8a.41.41,0,0,1-.58,0,.38.38,0,0,1,0-.56A.38.38,0,0,1,.77.22Z"/><path class="cls-24" d="M.76.23A.4.4,0,0,1,.8.8a.4.4,0,0,1-.57,0A.38.38,0,1,1,.76.23Z"/><path class="cls-25" d="M.76.23a.4.4,0,0,1,0,.56.4.4,0,0,1-.56,0,.38.38,0,0,1,0-.55A.38.38,0,0,1,.76.23Z"/><path class="cls-26" d="M.75.23a.39.39,0,0,1,0,.55.39.39,0,0,1-.55,0,.38.38,0,0,1,0-.54A.38.38,0,0,1,.75.23Z"/><path class="cls-27" d="M.75.23a.39.39,0,0,1,0,.55.39.39,0,0,1-.55,0,.39.39,0,0,1,0-.54A.39.39,0,0,1,.75.23Z"/><path class="cls-28" d="M.74.24a.37.37,0,0,1,0,.53.37.37,0,0,1-.53,0,.38.38,0,0,1,0-.53A.38.38,0,0,1,.74.24Z"/><path class="cls-29" d="M.74.24a.39.39,0,0,1,0,.53.39.39,0,0,1-.53,0,.37.37,0,0,1,0-.52A.37.37,0,0,1,.74.24Z"/><path class="cls-30" d="M.73.24a.38.38,0,0,1,0,.52.38.38,0,0,1-.52,0,.35.35,0,0,1,0-.51A.35.35,0,0,1,.73.24Z"/><path class="cls-31" d="M.72.25a.35.35,0,0,1,0,.5.35.35,0,0,1-.5,0,.35.35,0,0,1,0-.5A.35.35,0,0,1,.72.25Z"/><path d="M.72.25a.36.36,0,0,1,0,.5.36.36,0,0,1-.5,0,.35.35,0,0,1,0-.5A.35.35,0,0,1,.72.25Z"/><path class="cls-32" d="M.9.65a.43.43,0,0,1,0,.07H.11a.43.43,0,0,1,0-.07Z"/><path class="cls-33" d="M.92.58A.64.64,0,0,1,.9.65H.07a.64.64,0,0,1,0-.07Z"/><path class="cls-32" d="M.93.51s0,.05,0,.07H.05s0,0,0-.07Z"/><path class="cls-33" d="M.86.72l0,.07H.16l0-.07Z"/><path class="cls-33" d="M.72.86A.48.48,0,0,1,.48.93.48.48,0,0,1,.25.86Z"/><path class="cls-32" d="M.81.79.72.86H.25L.16.79Z"/><path class="cls-32" d="M.81.17H.16L.25.1H.72Z"/><path class="cls-33" d="M.72.1H.25l0,0h0A.47.47,0,0,1,.48,0h0A.48.48,0,0,1,.72.1Z"/><path class="cls-33" d="M.86.24H.11v0h0l0,0H.81Z"/><path class="cls-33" d="M.92.38H.05a.64.64,0,0,1,0-.07H.9A.64.64,0,0,1,.92.38Z"/><path class="cls-32" d="M.9.31H.08v0l0,0H.86A.43.43,0,0,1,.9.31Z"/><path class="cls-32" d="M.93.45H0V.38H.92S.93.42.93.45Z"/><path class="cls-33" d="M.93.48v0H0V.45H.93Z"/><path class="cls-34" d="M.48,0V.51H0V.45H0V.38a.64.64,0,0,1,0-.07h0v0l0,0v0h0l0,0L.25.1l0,0h0A.47.47,0,0,1,.48,0Z"/><polygon class="cls-32" points="0.43 0.06 0.43 0.08 0.46 0.08 0.44 0.09 0.45 0.11 0.43 0.1 0.41 0.11 0.42 0.09 0.4 0.08 0.42 0.08 0.43 0.06"/><polygon class="cls-32" points="0.33 0.1 0.33 0.11 0.33 0.1 0.32 0.1 0.3 0.1 0.3 0.11 0.3 0.1 0.3 0.09 0.29 0.08 0.3 0.08 0.31 0.08 0.31 0.07 0.32 0.07 0.32 0.08 0.34 0.08 0.33 0.09 0.33 0.1"/><polygon class="cls-32" points="0.43 0.15 0.43 0.17 0.46 0.17 0.44 0.18 0.45 0.2 0.43 0.19 0.41 0.2 0.42 0.18 0.4 0.17 0.42 0.17 0.43 0.15"/><polygon class="cls-32" points="0.32 0.15 0.32 0.17 0.34 0.17 0.33 0.18 0.33 0.2 0.32 0.19 0.3 0.2 0.3 0.18 0.29 0.17 0.31 0.17 0.32 0.15"/><polygon class="cls-32" points="0.2 0.15 0.21 0.17 0.23 0.17 0.21 0.18 0.22 0.2 0.2 0.19 0.19 0.2 0.19 0.18 0.18 0.17 0.2 0.17 0.2 0.15"/><polygon class="cls-32" points="0.43 0.25 0.43 0.27 0.46 0.27 0.44 0.28 0.45 0.3 0.43 0.29 0.41 0.3 0.42 0.28 0.4 0.27 0.42 0.27 0.43 0.25"/><polygon class="cls-32" points="0.32 0.25 0.32 0.27 0.34 0.27 0.33 0.28 0.33 0.3 0.32 0.29 0.3 0.3 0.3 0.28 0.29 0.27 0.31 0.27 0.32 0.25"/><polygon class="cls-32" points="0.2 0.25 0.21 0.27 0.23 0.27 0.21 0.28 0.22 0.3 0.2 0.29 0.19 0.3 0.19 0.28 0.18 0.27 0.2 0.27 0.2 0.25"/><path class="cls-32" d="M.1.28v0h0v0h0Z"/><polygon class="cls-32" points="0.43 0.34 0.43 0.36 0.46 0.36 0.44 0.38 0.45 0.4 0.43 0.38 0.41 0.4 0.42 0.38 0.4 0.36 0.42 0.36 0.43 0.34"/><polygon class="cls-32" points="0.32 0.34 0.32 0.36 0.34 0.36 0.33 0.38 0.33 0.4 0.32 0.38 0.3 0.4 0.3 0.38 0.29 0.36 0.31 0.36 0.32 0.34"/><polygon class="cls-32" points="0.2 0.34 0.21 0.36 0.23 0.36 0.21 0.38 0.22 0.4 0.2 0.38 0.19 0.4 0.19 0.38 0.18 0.36 0.2 0.36 0.2 0.34"/><polygon class="cls-32" points="0.09 0.34 0.1 0.36 0.12 0.36 0.1 0.38 0.11 0.4 0.09 0.38 0.07 0.4 0.08 0.38 0.06 0.36 0.08 0.36 0.09 0.34"/><polygon class="cls-32" points="0.43 0.44 0.43 0.46 0.46 0.46 0.44 0.47 0.45 0.49 0.43 0.48 0.41 0.49 0.42 0.47 0.4 0.46 0.42 0.46 0.43 0.44"/><polygon class="cls-32" points="0.32 0.44 0.32 0.46 0.34 0.46 0.33 0.47 0.33 0.49 0.32 0.48 0.3 0.49 0.3 0.47 0.29 0.46 0.31 0.46 0.32 0.44"/><polygon class="cls-32" points="0.2 0.44 0.21 0.46 0.23 0.46 0.21 0.47 0.22 0.49 0.2 0.48 0.19 0.49 0.19 0.47 0.18 0.46 0.2 0.46 0.2 0.44"/><polygon class="cls-32" points="0.09 0.44 0.1 0.46 0.12 0.46 0.1 0.47 0.11 0.49 0.09 0.48 0.07 0.49 0.08 0.47 0.06 0.46 0.08 0.46 0.09 0.44"/><polygon class="cls-32" points="0.37 0.39 0.38 0.41 0.4 0.41 0.38 0.42 0.39 0.44 0.37 0.43 0.35 0.44 0.36 0.42 0.34 0.41 0.37 0.41 0.37 0.39"/><polygon class="cls-32" points="0.26 0.39 0.27 0.41 0.28 0.41 0.27 0.42 0.28 0.44 0.26 0.43 0.24 0.44 0.25 0.42 0.23 0.41 0.25 0.41 0.26 0.39"/><polygon class="cls-32" points="0.15 0.39 0.15 0.41 0.17 0.41 0.16 0.42 0.16 0.44 0.15 0.43 0.13 0.44 0.14 0.42 0.12 0.41 0.14 0.41 0.15 0.39"/><path class="cls-32" d="M0,.42v0H0v0H0Z"/><polygon class="cls-32" points="0.37 0.3 0.38 0.32 0.4 0.32 0.38 0.33 0.39 0.35 0.37 0.34 0.35 0.35 0.36 0.33 0.34 0.32 0.37 0.32 0.37 0.3"/><polygon class="cls-32" points="0.26 0.3 0.27 0.32 0.28 0.32 0.27 0.33 0.28 0.35 0.26 0.34 0.24 0.35 0.25 0.33 0.23 0.32 0.25 0.32 0.26 0.3"/><polygon class="cls-32" points="0.15 0.3 0.15 0.32 0.17 0.32 0.16 0.33 0.16 0.35 0.15 0.34 0.13 0.35 0.14 0.33 0.12 0.32 0.14 0.32 0.15 0.3"/><polygon class="cls-32" points="0.37 0.2 0.38 0.22 0.4 0.22 0.38 0.23 0.39 0.25 0.37 0.24 0.35 0.25 0.36 0.23 0.34 0.22 0.37 0.22 0.37 0.2"/><polygon class="cls-32" points="0.26 0.2 0.27 0.22 0.28 0.22 0.27 0.23 0.28 0.25 0.26 0.24 0.24 0.25 0.25 0.23 0.23 0.22 0.25 0.22 0.26 0.2"/><polygon class="cls-32" points="0.16 0.24 0.16 0.25 0.15 0.24 0.15 0.24 0.15 0.24 0.13 0.25 0.13 0.24 0.14 0.23 0.12 0.22 0.12 0.22 0.14 0.22 0.15 0.2 0.15 0.22 0.17 0.22 0.16 0.23 0.16 0.24"/><polygon class="cls-32" points="0.37 0.1 0.38 0.13 0.4 0.13 0.38 0.14 0.39 0.16 0.37 0.14 0.35 0.16 0.36 0.14 0.34 0.13 0.37 0.13 0.37 0.1"/><polygon class="cls-32" points="0.26 0.1 0.27 0.13 0.28 0.13 0.27 0.14 0.28 0.16 0.26 0.14 0.24 0.16 0.25 0.14 0.23 0.13 0.25 0.13 0.26 0.1"/></g></g></svg>