<svg xmlns="http://www.w3.org/2000/svg" viewBox="0 0 253.03 271.36">
  <defs>
    <style>
      .client-health-icon-white-cls-1{fill:#fff;}
    </style>
  </defs>
  <title>
    client-health-icon-white
  </title>
  <g id="Layer_2" data-name="Layer 2">
    <path class="client-health-icon-white-cls-1" d="M241.77 194.51a11.24 11.24 0 0 0-9.72 5.6l-40.38-16.92a11.25 11.25 0 1 0-20.08 4.1 63.23 63.23 0 0 1-26 10.5 11.25 11.25 0 0 0-19.73 0 62.53 62.53 0 0 1-26-10.52 11.24 11.24 0 0 0-15.7-15.7 62.53 62.53 0 0 1-10.52-26 11.25 11.25 0 0 0 0-19.73 62.53 62.53 0 0 1 10.52-26 11.24 11.24 0 0 0 15.7-15.7 62.53 62.53 0 0 1 26-10.52 11.25 11.25 0 0 0 19.74 0A62 62 0 0 1 171.61 84a11.26 11.26 0 1 0 20.06 4.13l40.64-17a11.34 11.34 0 1 0-1.5-3.58l-40.64 17a11.24 11.24 0 0 0-9.47-5.18h-.86l-7.44-29.12L197 36.91a11.32 11.32 0 1 0-1.86-3.41l-23.72 12.94-6.36-24.93a11.25 11.25 0 1 0-15.7-12.2h-26.74a11.25 11.25 0 1 0-15.77 12.16l-6.61 25.15-24.12-13.13a11.28 11.28 0 1 0-8.21 7.39l16.71 40.29a11.3 11.3 0 0 0-3.43 3.41l-40.64-17a11.25 11.25 0 1 0-16.89 7.07L13.58 99.78A11.26 11.26 0 1 0 20.63 117l36.59 16a10.9 10.9 0 0 0 0 5.32l-36.51 16a11.25 11.25 0 1 0-7.2 17.11l10 24.89a11.28 11.28 0 1 0 17.16 7.45l40.54-17a11.31 11.31 0 0 0 3.43 3.41l-16.73 40.3a11.28 11.28 0 1 0 8.21 7.39l24.11-13.13 6.61 25.15A11.25 11.25 0 1 0 122.62 262h26.74a11.25 11.25 0 1 0 15.7-12.2l6.37-24.93 23.73 12.94a11.26 11.26 0 1 0 1.86-3.41L172.41 221l7.44-29.12h.86a11.24 11.24 0 0 0 9.47-5.18l40.54 17a11.25 11.25 0 1 0 11.07-9.25zM125 206.8l-22.29 12.14-7.37-28A11.25 11.25 0 0 0 97 190a66.41 66.41 0 0 0 27.61 11.49 10.82 10.82 0 0 0 .46 5.28zm-43.7-32.4a11.22 11.22 0 0 0-.93 1.69L22.46 161.4c0-.33.05-.67.05-1a11.27 11.27 0 0 0-.29-2.5l36.55-16a11.12 11.12 0 0 0 11.07 4.89 66.41 66.41 0 0 0 11.48 27.62zm-13.18-50a11.24 11.24 0 0 0-9.38 5l-36.59-16a11.24 11.24 0 0 0 .33-2.66v-.84L80.4 95.27a11.22 11.22 0 0 0 .92 1.73 66.41 66.41 0 0 0-11.49 27.61 11.28 11.28 0 0 0-1.68-.19zM97 81.32a11.24 11.24 0 0 0-1.59-.88l7.37-28L125 64.55a10.83 10.83 0 0 0-.46 5.28A66.41 66.41 0 0 0 97 81.32zm79.13-.92a11.25 11.25 0 0 0-1.63.89 65.82 65.82 0 0 0-27.7-11.47 10.83 10.83 0 0 0-.46-5.28l22.55-12.3zM110.6 22.46h.94a11.25 11.25 0 0 0 11.08-9.31h26.74a11.25 11.25 0 0 0 11.08 9.31h.86l6.61 25.89-23.43 12.79a11.24 11.24 0 0 0-17.59 0l-23.14-12.6zM71.5 39.38a11.3 11.3 0 0 0 2.76-2.48l24.95 13.59-7.61 29h-.94a11.26 11.26 0 0 0-2.45.28zm-44.24 36.7a11.24 11.24 0 0 0 11.79-4.94l40.64 17a11.27 11.27 0 0 0-.29 2.49v.84l-57.88 14.72a11.28 11.28 0 0 0-4.34-4.95zm12 124a11.19 11.19 0 0 0-12.23-5.31L17.12 170a11.28 11.28 0 0 0 4.32-4.83l58 14.71v.84a11.27 11.27 0 0 0 .29 2.49zm35 34.35A11.31 11.31 0 0 0 71.5 232l16.71-40.29a11.27 11.27 0 0 0 2.45.28h.94l7.61 29zm87 14.44h-.86a11.25 11.25 0 0 0-11.08 9.31h-26.7a11.25 11.25 0 0 0-11.08-9.31h-.94l-6.86-26.07 23.14-12.6a11.24 11.24 0 0 0 17.59 0L167.9 223zm7.6-29.78l-22.55-12.3a10.84 10.84 0 0 0 .46-5.3 67.14 67.14 0 0 0 27.64-11.46 11.25 11.25 0 0 0 1.64.9z" id="Layer_1-2" data-name="Layer 1"/>
  </g>
</svg>
