<svg xmlns="http://www.w3.org/2000/svg" xmlns:xlink="http://www.w3.org/1999/xlink" viewBox="0 0 1195.6 279"><defs><style>.chw10-1{fill:#404041;}.chw10-2{fill:url(#linear-gradient);}.chw10-3{fill:url(#linear-gradient-2);}.chw10-4{fill:url(#linear-gradient-3);}.chw10-5{fill:url(#linear-gradient-4);}.chw10-6{fill:url(#linear-gradient-5);}.chw10-7{fill:url(#linear-gradient-6);}.chw10-8{fill:url(#linear-gradient-7);}.chw10-9{fill:url(#linear-gradient-8);}.chw10-10{fill:url(#linear-gradient-11);}.chw10-11{fill:url(#linear-gradient-12);}.chw10-12{fill:url(#linear-gradient-13);}.chw10-13{fill:url(#linear-gradient-14);}.chw10-14{fill:url(#linear-gradient-15);}.chw10-15{fill:url(#linear-gradient-16);}.chw10-16{fill:url(#linear-gradient-17);}.chw10-17{fill:url(#linear-gradient-18);}.chw10-18{fill:url(#linear-gradient-19);}.chw10-19{fill:url(#linear-gradient-20);}.chw10-20{fill:url(#linear-gradient-21);}.chw10-21{fill:url(#linear-gradient-22);}.chw10-22{fill:url(#linear-gradient-23);}.chw10-23{fill:url(#linear-gradient-24);}.chw10-24{fill:url(#linear-gradient-25);}</style><linearGradient id="linear-gradient" x1="130.7" y1="69.93" x2="130.7" y2="207.16" gradientUnits="userSpaceOnUse"><stop offset="0" stop-color="#ed4e39"/><stop offset="1" stop-color="#ff902c"/></linearGradient><linearGradient id="linear-gradient-2" x1="218.66" y1="-.22" x2="-.97" y2="219.4" xlink:href="#linear-gradient"/><linearGradient id="linear-gradient-3" x1="192.95" y1="-26.2" x2="-26.32" y2="193.06" xlink:href="#linear-gradient"/><linearGradient id="linear-gradient-4" x1="852.98" y1="-876.67" x2="633.35" y2="-657.04" gradientTransform="matrix(1 0 0 -1 0 35.17)" xlink:href="#linear-gradient"/><linearGradient id="linear-gradient-5" x1="826.23" y1="-901.4" x2="606.96" y2="-682.14" gradientTransform="matrix(1 0 0 -1 0 35.17)" xlink:href="#linear-gradient"/><linearGradient id="linear-gradient-6" x1="70.5" y1="-150.88" x2="70.5" y2="559.3" xlink:href="#linear-gradient"/><linearGradient id="linear-gradient-7" x1="93.5" y1="-150.88" x2="93.5" y2="559.3" xlink:href="#linear-gradient"/><linearGradient id="linear-gradient-8" x1="185.5" y1="-150.88" x2="185.5" y2="559.3" xlink:href="#linear-gradient"/><linearGradient id="linear-gradient-11" x1="139.5" y1="-150.88" x2="139.5" y2="559.3" xlink:href="#linear-gradient"/><linearGradient id="linear-gradient-12" x1="164.5" y1="-151.75" x2="164.5" y2="558.43" xlink:href="#linear-gradient"/><linearGradient id="linear-gradient-13" x1="114.5" y1="-151.75" x2="114.5" y2="558.43" xlink:href="#linear-gradient"/><linearGradient id="linear-gradient-14" x1="67.5" y1="-151.79" x2="67.5" y2="558.38" xlink:href="#linear-gradient"/><linearGradient id="linear-gradient-15" x1="30.5" y1="-151.73" x2="30.5" y2="558.45" xlink:href="#linear-gradient"/><linearGradient id="linear-gradient-16" x1="11.5" y1="-151.45" x2="11.5" y2="558.73" xlink:href="#linear-gradient"/><linearGradient id="linear-gradient-17" x1="11.5" y1="-151.12" x2="11.5" y2="559.06" xlink:href="#linear-gradient"/><linearGradient id="linear-gradient-18" x1="30.5" y1="-150.48" x2="30.5" y2="559.7" xlink:href="#linear-gradient"/><linearGradient id="linear-gradient-19" x1="67.5" y1="-149.96" x2="67.5" y2="560.22" xlink:href="#linear-gradient"/><linearGradient id="linear-gradient-20" x1="114.5" y1="-150" x2="114.5" y2="560.17" xlink:href="#linear-gradient"/><linearGradient id="linear-gradient-21" x1="164.5" y1="-150" x2="164.5" y2="560.17" xlink:href="#linear-gradient"/><linearGradient id="linear-gradient-22" x1="211.5" y1="-149.96" x2="211.5" y2="560.22" xlink:href="#linear-gradient"/><linearGradient id="linear-gradient-23" x1="248.5" y1="-150.48" x2="248.5" y2="559.7" xlink:href="#linear-gradient"/><linearGradient id="linear-gradient-24" x1="248.5" y1="-151.73" x2="248.5" y2="558.45" xlink:href="#linear-gradient"/><linearGradient id="linear-gradient-25" x1="211.5" y1="-151.79" x2="211.5" y2="558.38" xlink:href="#linear-gradient"/></defs><title>client-health-for-windows-10</title><g id="Layer_2" data-name="Layer 2"><g id="Layer_1-2" data-name="Layer 1"><g id="Client_Health_for_Windows_10_H" data-name="Client Health for Windows 10 H"><path class="chw10-1" d="M397.37 23.88c20.16 0 30.36 10.92 30.36 10.92l-4.44 6.12a39.66 39.66 0 0 0-25.68-9.36c-19.8 0-34 15.36-34 35.28 0 20.16 14.16 36.6 34.2 36.6a39.45 39.45 0 0 0 27.36-11.28L430 98s-11.52 13.08-32.28 13.08c-25 0-42.72-19.56-42.72-44.16s18.25-43.04 42.37-43.04zM445.41 25.68h8V94c0 7.92 3.7 9.11 6.91 9.11 1.11 0 2.09-.11 2.09-.11v7.32a21.58 21.58 0 0 1-3 .23c-5.07 0-14-1.56-14-14.75zM474.41 25.68h9v10h-9zm1 24h8v60h-8zM528.65 47.64c16.68 0 25.2 12.84 25.2 27.84 0 1.44-.24 4.2-.24 4.2h-46.32c.36 15.48 10.92 23.88 23.4 23.88a28.06 28.06 0 0 0 18.36-7.32l3.72 6.24a34.59 34.59 0 0 1-22.32 8.4c-18 0-31.56-13-31.56-31.56 0-19.8 13.44-31.68 29.76-31.68zm16.92 26c-.48-12.6-8.16-18.48-17.16-18.48-10.08 0-18.84 6.36-20.76 18.48zM569.41 49.68h8v8.15c0 2.67-.24 4.85-.24 4.85h.24A25.49 25.49 0 0 1 600 47.33a20.64 20.64 0 0 1 21.46 20.72v41.63h-8V73.44c0-9.48-1.44-17.88-13.08-17.88a22.94 22.94 0 0 0-22 17 29.84 29.84 0 0 0-1 8.16v28.92h-8zM643.41 56.68h-8v-7h8v-17h8v17h15v7h-15v30c0 14.16 8.83 16 13.3 16a13.46 13.46 0 0 0 2.7-.24v7.32a20.58 20.58 0 0 1-3.41.24c-6.82 0-20.59-2.28-20.59-22.44zM715.41 25.68h8v38h49v-38h8v84h-8v-39h-49v39h-8zM828.65 47.64c16.68 0 25.2 12.84 25.2 27.84 0 1.44-.24 4.2-.24 4.2h-46.32c.36 15.48 10.92 23.88 23.4 23.88a28.06 28.06 0 0 0 18.36-7.32l3.72 6.24a34.59 34.59 0 0 1-22.32 8.4c-18 0-31.56-13-31.56-31.56 0-19.8 13.44-31.68 29.76-31.68zm16.92 26c-.48-12.6-8.16-18.48-17.16-18.48-10.08 0-18.84 6.36-20.76 18.48zM902.12 72.68h3.29V71.1c0-11.79-6.23-15.8-14.7-15.8A28.27 28.27 0 0 0 874 61.14l-3.77-6.32s7.77-6.93 21.06-6.93c14.24 0 22.12 8.14 22.12 23.45v38.34h-8v-6.24a41 41 0 0 1 .25-4.76h.11s-4.95 13.24-19.77 13.24c-9.88 0-20.12-6-20.12-18.1 0-20.66 26-21.14 36.24-21.14zm-16.19 31.08c11.52 0 18.48-12 18.48-22.44v-2.64h-3.48c-9.48 0-28.44.36-28.44 13.68 0 5.64 4.44 11.4 13.44 11.4zM931.41 25.68h8V94c0 7.92 3.7 9.11 6.91 9.11 1.11 0 2.09-.11 2.09-.11v7.32a21.58 21.58 0 0 1-3 .23c-5.06 0-14-1.56-14-14.75zM964.41 56.68h-9v-7h8v-17h8v17h16v7h-15v30c0 14.16 8.83 16 13.3 16a13.46 13.46 0 0 0 2.7-.24v7.32a20.58 20.58 0 0 1-3.41.24c-6.82 0-20.59-2.28-20.59-22.44zM1001.41 25.68h9v32.06c0 2.77-.24 4.94-.24 4.94h.24c2.24-5.69 10-14.76 23.23-15.06a20.44 20.44 0 0 1 20.77 20.5v41.56h-9V73.44c0-9.48-1.44-17.88-13.08-17.88a22.91 22.91 0 0 0-22 17.16 28.42 28.42 0 0 0-1 8l1 28.92h-9zM361.41 200.68h-8v-7h7v-2.88c0-19.92 14.27-22.44 21.22-22.44a25.73 25.73 0 0 1 3.78.24v7.88a15.26 15.26 0 0 0-2.8-.24c-4.55 0-13.2 1.64-13.2 14.72v2.72h15v7h-15v53h-8zM423.65 191.88c17.64 0 31.92 13.44 31.92 31.32a31.92 31.92 0 0 1-63.84 0c0-17.88 14.27-31.32 31.92-31.32zm0 55.92c13 0 23.52-10.56 23.52-24.6a23.52 23.52 0 1 0-47 0c-.04 14.04 10.52 24.6 23.48 24.6zM470.41 193.68h8V204c0 2.56-.23 4.65-.23 4.65h.11c3-9.12 9.95-16.08 19.77-16.08a17.38 17.38 0 0 1 3.35.36v8a22.13 22.13 0 0 0-3.11-.24c-8.82 0-15.41 6.72-18.15 15.6a38.63 38.63 0 0 0-1.74 11.76v25.56h-8zM591.29 181.68s-1.32 7.2-2.76 12.6l-16.08 59.4h-9.88l-22-85H549l16.43 65.94c1.09 4.35 1.93 9.06 1.93 9.06h.24c.12 0 .73-4.71 1.94-9.06l17.87-65.94h8l17.88 65.94c1.2 4.35 1.81 9.06 1.93 9.06h.24s.84-4.71 1.93-9.06l17-65.94h8.45l-22.61 85h-9.87l-16.08-59.4c-1.44-5.4-2.76-12.6-2.76-12.6zM656.41 169.68h9v10h-9zm1 24h8v60h-8zM684.41 193.68h8v8.15c0 2.67-.24 4.85-.24 4.85h.24c2.19-5.56 10-15.32 24.38-15.38a20.66 20.66 0 0 1 20.62 20.7v41.65h-8v-36.21c0-9.48-1.44-17.88-13.08-17.88a22.94 22.94 0 0 0-22 17 29.84 29.84 0 0 0-1 8.16v28.92h-9zM779.35 191.2c14.75 0 19.82 11.48 19.82 11.48h-.52a41.07 41.07 0 0 1-.24-4.43v-28.57h9v84h-8V247a32.84 32.84 0 0 1 .25-4.35h-.25s-4.95 12.2-20.9 12.2c-16.32 0-26.47-13-26.47-31.9-.04-19.18 11.36-31.75 27.31-31.75zm.21 56.6c10.08 0 19.56-7.2 19.56-24.36 0-12.24-6.24-24.24-19.2-24.24-10.67 0-19.43 9-19.43 24.24 0 14.88 7.8 24.36 19.07 24.36zM854.2 191.88c17.64 0 31.92 13.44 31.92 31.32a31.92 31.92 0 1 1-63.84 0c0-17.88 14.28-31.32 31.92-31.32zm0 55.92c13 0 23.52-10.56 23.52-24.6a23.52 23.52 0 1 0-47 0c-.04 14.04 10.52 24.6 23.48 24.6zM893.62 193.68h8.66l14.5 44.58c1 2.85 1.79 6.42 1.79 6.42h.43s.84-3.58 1.79-6.45l14.81-44.55h8l14.81 44.55c1 2.87 1.8 6.45 1.8 6.45h.41s.83-3.45 1.78-6.42l14.5-44.58h8.66l-20.28 60h-9.09l-14.64-42.58c-1.08-3-1.91-6.42-1.91-6.42h-.24s-.83 3.45-1.78 6.42L923 253.68h-9.1zM997 240.48a25.9 25.9 0 0 0 18 7.32c6.48 0 12.12-3.24 12.12-9.6 0-13.2-32.52-10-32.52-29.64 0-10.8 9.72-16.68 20.64-16.68 12.72 0 18.6 6.6 18.6 6.6l-3.72 6.24s-5.12-5.52-15.12-5.52c-6.12 0-12 2.64-12 9.36 0 13.32 32.52 9.72 32.52 29.64 0 9.84-8.52 16.92-20.64 16.92-14.64 0-22.32-8.76-22.32-8.76zM1079.41 246.68h19v-62.47c0-2.32.12-4.53.12-4.53h-.23s-.83 1.74-4.12 4.88l-8.82 8.72-5.18-5.23 18.7-18.37h7.53v77h19v7h-46zM1137.4 211.44c0-24.24 7.2-43.56 29.16-43.56s29 19.32 29 43.56c0 24.48-7.08 43.68-29 43.68s-29.16-19.2-29.16-43.68zm49.56 0c0-20-4.44-35.76-20.4-35.76S1146 191.4 1146 211.44s4.44 35.88 20.52 35.88S1187 231.6 1187 211.44z"/></g><g id="Client_Health_Icon" data-name="Client Health Icon"><path class="chw10-2" d="M139.81 207.16A68.62 68.62 0 1 1 189.18 90.9l-2.87 2.77a64.62 64.62 0 1 0-46.5 109.49 64.85 64.85 0 0 0 47.46-20.76l2.94 2.71a68.87 68.87 0 0 1-50.4 22.05z"/><path class="chw10-3" d="M69.53 141.02L5.64 113.08l86.22-21.87 21.58-82.06h53.41l20.68 80.97 60.71-25.44 1.54 3.69L184.8 95.6l-21.05-82.45h-47.22l-21.4 81.36-77.2 19.57 53.21 23.28-1.61 3.66z"/><path class="chw10-4" d="M69.63 140.37L9.4 114.03l20.31-50.66 60.14 25.2L63.66 25.4l76.15 41.49 71.09-38.78 1.91 3.5-73 39.83-68.13-37.12L97.26 96 31.91 68.62l-17.36 43.3 56.68 24.79-1.6 3.66z"/><path class="chw10-5" d="M166.85 268.15h-53.41l-21.58-82.07-86.22-21.86 63.89-27.95 1.61 3.67-53.21 23.27 77.2 19.58 21.4 81.36h47.22l21.05-82.46 64.98 27.23-1.54 3.69-60.71-25.44-20.68 80.98z"/><path class="chw10-6" d="M63.66 251.68l26.19-63.17-60.14 25.2L9.4 163.06l60.23-26.35 1.6 3.66-56.68 24.79 17.36 43.3 65.35-27.38-25.58 61.68 68.13-37.11 73 39.82-1.91 3.51-71.09-38.78-76.15 41.48z"/><circle class="chw10-7" cx="70.5" cy="139.5" r="11.5"/><circle class="chw10-8" cx="93.5" cy="93.5" r="11.5"/><circle class="chw10-9" cx="185.5" cy="185.5" r="11.5"/><circle class="chw10-8" cx="93.5" cy="185.5" r="11.5"/><circle class="chw10-9" cx="185.5" cy="93.5" r="11.5"/><circle class="chw10-10" cx="139.5" cy="70.5" r="11.5"/><circle class="chw10-11" cx="164.5" cy="11.5" r="11.5"/><circle class="chw10-12" cx="114.5" cy="11.5" r="11.5"/><circle class="chw10-13" cx="67.5" cy="30.5" r="11.5"/><circle class="chw10-14" cx="30.5" cy="66.5" r="11.5"/><circle class="chw10-15" cx="11.5" cy="113.5" r="11.5"/><circle class="chw10-16" cx="11.5" cy="164.5" r="11.5"/><circle class="chw10-17" cx="30.5" cy="211.5" r="11.5"/><circle class="chw10-18" cx="67.5" cy="248.5" r="11.5"/><circle class="chw10-19" cx="114.5" cy="267.5" r="11.5"/><circle class="chw10-20" cx="164.5" cy="267.5" r="11.5"/><circle class="chw10-21" cx="211.5" cy="248.5" r="11.5"/><circle class="chw10-22" cx="248.5" cy="211.5" r="11.5"/><circle class="chw10-23" cx="248.5" cy="66.5" r="11.5"/><circle class="chw10-24" cx="211.5" cy="30.5" r="11.5"/><circle class="chw10-10" cx="139.5" cy="208.5" r="11.5"/></g></g></g></svg>
