<svg xmlns="http://www.w3.org/2000/svg" xmlns:xlink="http://www.w3.org/1999/xlink" viewBox="0 0 1743.5 271.36">
  <defs>
    <style>
      .client-health-logo-cls-1{fill:url(#client-health-logo-linear-gradient);}.client-health-logo-cls-2{fill:url(#client-health-logo-linear-gradient-2);}.client-health-logo-cls-3{fill:url(#client-health-logo-linear-gradient-3);}.client-health-logo-cls-4{fill:url(#client-health-logo-linear-gradient-4);}.client-health-logo-cls-5{fill:url(#client-health-logo-linear-gradient-5);}.client-health-logo-cls-6{fill:url(#client-health-logo-linear-gradient-6);}.client-health-logo-cls-7{fill:url(#client-health-logo-linear-gradient-7);}.client-health-logo-cls-8{fill:url(#client-health-logo-linear-gradient-8);}.client-health-logo-cls-9{fill:url(#client-health-logo-linear-gradient-11);}.client-health-logo-cls-10{fill:url(#client-health-logo-linear-gradient-12);}.client-health-logo-cls-11{fill:url(#client-health-logo-linear-gradient-13);}.client-health-logo-cls-12{fill:url(#client-health-logo-linear-gradient-14);}.client-health-logo-cls-13{fill:url(#client-health-logo-linear-gradient-15);}.client-health-logo-cls-14{fill:url(#client-health-logo-linear-gradient-16);}.client-health-logo-cls-15{fill:url(#client-health-logo-linear-gradient-22);}.client-health-logo-cls-16{fill:url(#client-health-logo-linear-gradient-23);}.client-health-logo-cls-17{fill:#404041;}
    </style>
    <linearGradient id="client-health-logo-linear-gradient" x1="126.81" y1="68.9" x2="126.81" y2="202.46" gradientUnits="userSpaceOnUse">
      <stop offset="0" stop-color="#ed4e39"/>
      <stop offset="1" stop-color="#ff902c"/>
    </linearGradient>
    <linearGradient id="client-health-logo-linear-gradient-2" x1="212.28" y1=".21" x2="-1.14" y2="213.63" xlink:href="#client-health-logo-linear-gradient"/>
    <linearGradient id="client-health-logo-linear-gradient-3" x1="187.4" y1="-24.67" x2="-26.02" y2="188.75" xlink:href="#client-health-logo-linear-gradient"/>
    <linearGradient id="client-health-logo-linear-gradient-4" x1="828.68" y1="-919.31" x2="615.26" y2="-705.89" gradientTransform="matrix(1 0 0 -1 0 -31.76)" xlink:href="#client-health-logo-linear-gradient"/>
    <linearGradient id="client-health-logo-linear-gradient-5" x1="803.8" y1="-944.19" x2="590.38" y2="-730.77" gradientTransform="matrix(1 0 0 -1 0 -31.76)" xlink:href="#client-health-logo-linear-gradient"/>
    <linearGradient id="client-health-logo-linear-gradient-6" x1="68.15" y1="-148.52" x2="68.15" y2="546.55" xlink:href="#client-health-logo-linear-gradient"/>
    <linearGradient id="client-health-logo-linear-gradient-7" x1="90.66" y1="-148.52" x2="90.66" y2="546.55" xlink:href="#client-health-logo-linear-gradient"/>
    <linearGradient id="client-health-logo-linear-gradient-8" x1="180.7" y1="-148.52" x2="180.7" y2="546.55" xlink:href="#client-health-logo-linear-gradient"/>
    <linearGradient id="client-health-logo-linear-gradient-11" x1="135.68" y1="-148.52" x2="135.68" y2="546.55" xlink:href="#client-health-logo-linear-gradient"/>
    <linearGradient id="client-health-logo-linear-gradient-12" x1="160.43" y1="-148.52" x2="160.43" y2="546.55" xlink:href="#client-health-logo-linear-gradient"/>
    <linearGradient id="client-health-logo-linear-gradient-13" x1="111.54" y1="-148.52" x2="111.54" y2="546.55" xlink:href="#client-health-logo-linear-gradient"/>
    <linearGradient id="client-health-logo-linear-gradient-14" x1="65.46" y1="-148.52" x2="65.46" y2="546.55" xlink:href="#client-health-logo-linear-gradient"/>
    <linearGradient id="client-health-logo-linear-gradient-15" x1="29.59" y1="-148.52" x2="29.59" y2="546.55" xlink:href="#client-health-logo-linear-gradient"/>
    <linearGradient id="client-health-logo-linear-gradient-16" x1="11.26" y1="-148.52" x2="11.26" y2="546.55" xlink:href="#client-health-logo-linear-gradient"/>
    <linearGradient id="client-health-logo-linear-gradient-22" x1="205.8" y1="-148.52" x2="205.8" y2="546.55" xlink:href="#client-health-logo-linear-gradient"/>
    <linearGradient id="client-health-logo-linear-gradient-23" x1="241.77" y1="-148.52" x2="241.77" y2="546.55" xlink:href="#client-health-logo-linear-gradient"/>
  </defs>
  <title>
    client-health-logo
  </title>
  <g id="Layer_2" data-name="Layer 2">
    <g id="Layer_1-2" data-name="Layer 1">
      <path class="client-health-logo-cls-1" d="M135.68 202.46A66.78 66.78 0 1 1 183.74 89.3l-2.8 2.7a62.9 62.9 0 1 0-45.26 106.57 63.11 63.11 0 0 0 46.2-20.21l2.85 2.64a67 67 0 0 1-49.05 21.46z"/>
      <path class="client-health-logo-cls-2" d="M67.37 137.46L5.29 110.3l83.78-21.24 20.97-79.75h51.9L182.03 88l58.99-24.72 1.51 3.58-63.15 26.46-20.46-80.12h-45.88L92.25 92.26l-75.02 19.02 51.7 22.62-1.56 3.56z"/>
      <path class="client-health-logo-cls-3" d="M67.37 137.46L8.75 111.82l19.77-49.31 58.53 24.53-25.49-61.48 74.12 40.37 69.19-37.74 1.86 3.41-71.05 38.76-66.31-36.12 24.89 60.04-63.6-26.65-16.9 42.14 55.17 24.13-1.56 3.56z"/>
      <path class="client-health-logo-cls-4" d="M161.94 262.05h-51.9L89.07 182.3 5.29 161.06l62.08-27.16 1.56 3.56-51.7 22.61 75.02 19.03 20.79 79.06h45.88l20.46-80.12 63.15 26.46-1.51 3.58-58.99-24.72-20.09 78.69z"/>
      <path class="client-health-logo-cls-5" d="M61.56 245.8l25.49-61.48-58.53 24.52-19.77-49.3 58.62-25.64 1.56 3.56-55.17 24.13 16.9 42.14 63.6-26.65-24.89 60.04L135.68 201l71.05 38.76-1.86 3.41-69.19-37.74-74.12 40.37z"/>
      <circle class="client-health-logo-cls-6" cx="68.15" cy="135.68" r="11.26"/>
      <circle class="client-health-logo-cls-7" cx="90.66" cy="90.66" r="11.26"/>
      <circle class="client-health-logo-cls-8" cx="180.7" cy="180.7" r="11.26"/>
      <circle class="client-health-logo-cls-7" cx="90.66" cy="180.7" r="11.26"/>
      <circle class="client-health-logo-cls-8" cx="180.7" cy="90.66" r="11.26"/>
      <circle class="client-health-logo-cls-9" cx="135.68" cy="68.15" r="11.26"/>
      <circle class="client-health-logo-cls-10" cx="160.43" cy="11.26" r="11.26"/>
      <circle class="client-health-logo-cls-11" cx="111.54" cy="11.26" r="11.26"/>
      <circle class="client-health-logo-cls-12" cx="65.46" cy="29.9" r="11.26"/>
      <circle class="client-health-logo-cls-13" cx="29.59" cy="65.07" r="11.26"/>
      <circle class="client-health-logo-cls-14" cx="11.26" cy="110.79" r="11.26"/>
      <circle class="client-health-logo-cls-14" cx="11.26" cy="160.39" r="11.26"/>
      <circle class="client-health-logo-cls-13" cx="29.59" cy="205.76" r="11.26"/>
      <circle class="client-health-logo-cls-12" cx="65.46" cy="241.46" r="11.26"/>
      <circle class="client-health-logo-cls-11" cx="111.54" cy="260.1" r="11.26"/>
      <circle class="client-health-logo-cls-10" cx="160.43" cy="260.1" r="11.26"/>
      <circle class="client-health-logo-cls-15" cx="205.8" cy="241.46" r="11.26"/>
      <circle class="client-health-logo-cls-16" cx="241.77" cy="205.76" r="11.26"/>
      <circle class="client-health-logo-cls-16" cx="241.77" cy="65.07" r="11.26"/>
      <circle class="client-health-logo-cls-15" cx="205.8" cy="29.9" r="11.26"/>
      <circle class="client-health-logo-cls-9" cx="135.68" cy="203.21" r="11.26"/>
      <path class="client-health-logo-cls-17" d="M450.12 49.75c39.71 0 59.81 21.51 59.81 21.51l-8.75 12.05s-19.38-18.44-50.59-18.44c-39 0-66.9 30.26-66.9 69.5 0 39.71 27.89 72.1 67.37 72.1 33.57 0 53.9-22.22 53.9-22.22l9.46 11.58s-22.69 25.77-63.59 25.77c-49.17 0-84.15-38.53-84.15-87-.01-48.21 35.92-84.85 83.44-84.85zm93.83 2.84H560V187.1c0 15.6 7.09 18 13.24 18a36.87 36.87 0 0 0 4-.23v14.42a40.53 40.53 0 0 1-5.91.47c-9.93 0-27.42-3.07-27.42-29.07zm59.05 0h16.78v20.09H603zm.47 47.28h16.07v118.9h-16.03zM708.7 97c32.86 0 49.64 25.29 49.64 54.84 0 2.84-.47 8.27-.47 8.27h-91.25c.71 30.49 21.51 47 46.1 47 21.75 0 36.17-14.42 36.17-14.42l7.33 12.29a68.14 68.14 0 0 1-44 16.55c-35.46 0-62.17-25.53-62.17-62.17.02-38.93 26.5-62.36 58.65-62.36zm33.3 49.91c-.95-24.82-16.07-36.4-33.8-36.4-19.86 0-37.11 12.53-40.9 36.4zm47.06-47.04h15.84v17.73c0 5.2-.47 9.45-.47 9.45h.47c4.25-10.87 19.38-30 47.51-30 29.31 0 39.71 16.78 39.71 46.1v75.64H876v-71.41c0-18.67-2.83-35.22-25.77-35.22-20.33 0-37.82 13.95-43.26 33.57a58.78 58.78 0 0 0-1.89 16.07v57h-16.02zm144.65 14.89h-15.6v-13.48h15.84V67h15.84v34.27h29.79v13.47h-29.79v59.1c0 27.89 17.73 31.44 26.71 31.44a27.7 27.7 0 0 0 5.44-.47v14.42a42.15 42.15 0 0 1-6.85.47c-13.71 0-41.37-4.49-41.37-44.2zm143-62.17H1093v75.64h96.44V52.59h16.31v166.18h-16.31v-75.88H1093v75.88h-16.31zM1299.61 97c32.86 0 49.64 25.29 49.64 54.84 0 2.84-.47 8.27-.47 8.27h-91.24c.71 30.49 21.51 47 46.1 47 21.75 0 36.17-14.42 36.17-14.42l7.33 12.29a68.14 68.14 0 0 1-44 16.55c-35.46 0-62.17-25.53-62.17-62.17.03-38.93 26.49-62.36 58.64-62.36zm33.33 49.88c-.95-24.82-16.07-36.4-33.8-36.4-19.86 0-37.11 12.53-40.9 36.4zm110.15-1.63h6.62v-3.07c0-22.93-12.53-30.73-29.55-30.73a57.9 57.9 0 0 0-33.57 11.35l-7.59-12.29S1394.63 97 1421.34 97c28.6 0 44.44 15.84 44.44 45.62v76.12h-15.37v-13a93.62 93.62 0 0 1 .47-9.93h-.47s-9.93 25.77-39.71 25.77c-19.86 0-40.42-11.58-40.42-35.22 0-40.16 52.24-41.11 72.81-41.11zm-29.79 62.65c22.69 0 36.4-23.64 36.4-44.2v-5.2h-6.85c-18.67 0-56 .71-56 26.95-.02 11.1 8.72 22.45 26.45 22.45zm88.4-155.31h16.07V187.1c0 15.6 7.09 18 13.24 18a36.86 36.86 0 0 0 4-.23v14.42a40.55 40.55 0 0 1-5.91.47c-9.93 0-27.42-3.07-27.42-29.07zm64.05 62.17h-15.6v-13.48H1566V67h15.84v34.27h29.79v13.47h-29.79v59.1c0 27.89 17.73 31.44 26.71 31.44a27.7 27.7 0 0 0 5.44-.47v14.42a42.15 42.15 0 0 1-6.85.47c-13.71 0-41.37-4.49-41.37-44.2zm74.69-62.17h16.07v64.3c0 5.44-.47 9.69-.47 9.69h.47C1661 115.23 1676.84 97 1703.79 97c29.31 0 39.71 16.78 39.71 46.1v75.64h-16.07v-71.36c0-18.67-2.83-35.22-25.77-35.22-20.33 0-37.82 13.95-43.26 33.8a56 56 0 0 0-1.89 15.84v57h-16.07z"/>
    </g>
  </g>
</svg>
