<svg xmlns="http://www.w3.org/2000/svg" xmlns:xlink="http://www.w3.org/1999/xlink" viewBox="0 0 346.07 79.14"><defs><style>.cls-1{fill:#fff;}.cls-2{fill:url(#linear-gradient);}.cls-3{fill:url(#linear-gradient-2);}.cls-4{fill:url(#linear-gradient-3);}.cls-5{fill:url(#linear-gradient-4);}.cls-6{fill:url(#linear-gradient-5);}.cls-7{fill:url(#linear-gradient-6);}.cls-8{fill:url(#linear-gradient-7);}.cls-9{fill:url(#linear-gradient-8);}.cls-10{fill:url(#linear-gradient-9);}.cls-11{fill:url(#linear-gradient-10);}.cls-12{fill:url(#linear-gradient-11);}</style><linearGradient id="linear-gradient" x1="4640.79" y1="3692.08" x2="4651.51" y2="3695" gradientTransform="translate(-660.84 -5855.03) rotate(44.74)" gradientUnits="userSpaceOnUse"><stop offset="0.01" stop-color="#f9ef3b"/><stop offset="0.06" stop-color="#f8de3b"/><stop offset="0.21" stop-color="#f4b23a"/><stop offset="0.37" stop-color="#f28e3a"/><stop offset="0.53" stop-color="#f07239"/><stop offset="0.69" stop-color="#ee5e39"/><stop offset="0.84" stop-color="#ed5239"/><stop offset="1" stop-color="#ed4e39"/></linearGradient><linearGradient id="linear-gradient-2" x1="6341.76" y1="-2469.05" x2="6346.9" y2="-2467.64" gradientTransform="translate(6125.2 2978.87) rotate(-132.82)" xlink:href="#linear-gradient"/><linearGradient id="linear-gradient-3" x1="8550.54" y1="-422.53" x2="8555.69" y2="-421.13" gradientTransform="matrix(-0.68, 0.73, 0.73, 0.68, 6125.2, -5910.87)" xlink:href="#linear-gradient"/><linearGradient id="linear-gradient-4" x1="2546.63" y1="1627" x2="2551.78" y2="1628.41" gradientTransform="matrix(0.68, -0.73, -0.73, -0.68, -462.38, 2978.87)" xlink:href="#linear-gradient"/><linearGradient id="linear-gradient-5" x1="4755.42" y1="3673.52" x2="4760.56" y2="3674.92" gradientTransform="matrix(0.68, 0.73, -0.73, 0.68, -462.38, -5910.87)" xlink:href="#linear-gradient"/><linearGradient id="linear-gradient-6" x1="31.21" y1="24.68" x2="47.65" y2="53.15" gradientTransform="matrix(1, 0, 0, 1, 0, 0)" xlink:href="#linear-gradient"/><linearGradient id="linear-gradient-7" x1="23.25" y1="10.9" x2="55.6" y2="66.93" gradientTransform="matrix(1, 0, 0, 1, 0, 0)" xlink:href="#linear-gradient"/><linearGradient id="linear-gradient-8" x1="35.09" y1="1" x2="43.82" y2="16.14" gradientTransform="matrix(1, 0, 0, 1, 0, 0)" xlink:href="#linear-gradient"/><linearGradient id="linear-gradient-9" x1="3019.74" y1="-10506.68" x2="3008.37" y2="-10500.11" gradientTransform="translate(-3005.49 10542.85)" xlink:href="#linear-gradient"/><linearGradient id="linear-gradient-10" x1="13530.39" y1="-7521.23" x2="13521.65" y2="-7536.37" gradientTransform="translate(-13486.56 7599.14)" xlink:href="#linear-gradient"/><linearGradient id="linear-gradient-11" x1="10545.73" y1="2986.45" x2="10557.11" y2="2979.88" gradientTransform="translate(-10481.08 -2943.71)" xlink:href="#linear-gradient"/></defs><title>evolve-vm-white-horizontal</title><g id="Layer_2" data-name="Layer 2"><g id="Layer_1-2" data-name="Layer 1"><path class="cls-1" d="M120,38.22H104.22V52.8h17.53v4.38H99V16.73h21.85v4.39H104.22V33.9H120Z"/><path class="cls-1" d="M130,28.14l5.7,16.32A74.68,74.68,0,0,1,138,51.9h.18c.66-2.4,1.5-4.8,2.46-7.44l5.64-16.32h5.52l-11.4,29h-5l-11-29Z"/><path class="cls-1" d="M182.48,42.42c0,10.74-7.44,15.42-14.47,15.42-7.86,0-13.92-5.76-13.92-14.94,0-9.72,6.36-15.42,14.4-15.42C176.84,27.48,182.48,33.54,182.48,42.42Zm-23,.3c0,6.36,3.66,11.16,8.82,11.16s8.83-4.74,8.83-11.28c0-4.92-2.46-11.16-8.71-11.16S159.43,37.2,159.43,42.72Z"/><path class="cls-1" d="M189.14,14.57h5.28V57.18h-5.28Z"/><path class="cls-1" d="M205.34,28.14,211,44.46a74.68,74.68,0,0,1,2.34,7.44h.18c.66-2.4,1.5-4.8,2.46-7.44l5.64-16.32h5.53l-11.41,29h-5l-11-29Z"/><path class="cls-1" d="M234.51,43.62c.12,7.14,4.68,10.08,10,10.08a19.09,19.09,0,0,0,8-1.5l.9,3.78a23.52,23.52,0,0,1-9.66,1.8c-8.94,0-14.29-5.88-14.29-14.64s5.17-15.66,13.63-15.66c9.48,0,12,8.34,12,13.68a19.91,19.91,0,0,1-.18,2.46ZM250,39.84c.06-3.36-1.38-8.58-7.32-8.58-5.34,0-7.68,4.92-8.1,8.58Z"/><path class="cls-1" d="M281.25,57.18l-13.2-40.45h5.64L280,36.66c1.74,5.46,3.25,10.38,4.33,15.12h.12c1.14-4.68,2.82-9.78,4.62-15.06l6.84-20h5.58L287,57.18Z"/><path class="cls-1" d="M340,39.42c-.3-5.64-.66-12.42-.6-17.46h-.18c-1.38,4.74-3.06,9.78-5.1,15.36l-7.15,19.62h-4l-6.54-19.26C314.5,32,312.88,26.76,311.74,22h-.12c-.12,5-.42,11.82-.78,17.88l-1.08,17.34h-5l2.82-40.45h6.66l6.9,19.57c1.68,5,3.06,9.42,4.08,13.62h.18c1-4.08,2.46-8.52,4.26-13.62l7.21-19.57h6.66l2.52,40.45H341Z"/><circle class="cls-2" cx="39.43" cy="38.92" r="5.55"/><circle class="cls-3" cx="2.67" cy="2.67" r="2.67"/><circle class="cls-4" cx="2.67" cy="76.47" r="2.67"/><circle class="cls-5" cx="76.19" cy="2.67" r="2.67"/><circle class="cls-6" cx="76.19" cy="76.47" r="2.67"/><path class="cls-7" d="M55.83,37.84a16.29,16.29,0,0,0-4-9.75,13.72,13.72,0,0,0-1.52-1.53,16.27,16.27,0,0,0-9.76-4,11.58,11.58,0,0,0-2.15,0,16.27,16.27,0,0,0-9.76,4,16.78,16.78,0,0,0-1.51,1.53,16.35,16.35,0,0,0-4,9.75c0,.36,0,.71,0,1.08s0,.72,0,1.08a16.35,16.35,0,0,0,4,9.76,17.93,17.93,0,0,0,1.51,1.51,16.34,16.34,0,0,0,9.76,4c.35,0,.71,0,1.07,0s.73,0,1.08,0a16.34,16.34,0,0,0,9.76-4,15.48,15.48,0,0,0,1.52-1.51,16.29,16.29,0,0,0,4-9.76c0-.36,0-.72,0-1.08S55.86,38.2,55.83,37.84ZM39.42,53.2a14.29,14.29,0,1,1,14.3-14.28A14.3,14.3,0,0,1,39.42,53.2Z"/><path class="cls-8" d="M71.71,36.82v0a32,32,0,0,0-8-19.19,27.41,27.41,0,0,0-3-3A32.07,32.07,0,0,0,42.09,6.7a5.11,5.11,0,0,0-.55,0c-.7-.06-1.4-.08-2.12-.08s-1.42,0-2.12.08l-.48,0A32.08,32.08,0,0,0,18.1,14.6a29.21,29.21,0,0,0-3,3,32,32,0,0,0-8,19.19v0c-.06.69-.08,1.39-.08,2.1s0,1.42.08,2.12l.09,1.05a32.09,32.09,0,0,0,7.88,18.16,33.64,33.64,0,0,0,3,3,32.14,32.14,0,0,0,18.72,7.9l.48,0a25,25,0,0,0,4.24,0l.55,0a32.14,32.14,0,0,0,18.66-7.9,31.25,31.25,0,0,0,3-3,32,32,0,0,0,7.88-18.16q.06-.53.09-1.05c.06-.7.08-1.4.08-2.12S71.77,37.51,71.71,36.82ZM42.09,66.9a26.09,26.09,0,0,1-2.67.13,24.75,24.75,0,0,1-2.6-.12A28.17,28.17,0,0,1,11.48,42.09a27.68,27.68,0,0,1-.18-3.17c0-.71,0-1.41.08-2.1A28.17,28.17,0,0,1,36.82,10.93a24.73,24.73,0,0,1,2.6-.13,26.07,26.07,0,0,1,2.67.14A28.16,28.16,0,0,1,67.48,36.82c0,.69.07,1.39.07,2.1a30.16,30.16,0,0,1-.17,3.17A28.16,28.16,0,0,1,42.09,66.9Z"/><rect class="cls-9" x="36.82" width="5.27" height="17.14"/><rect class="cls-10" x="5.93" y="30.89" width="5.27" height="17.14" transform="translate(-30.89 48.02) rotate(-90)"/><rect class="cls-11" x="36.82" y="61.78" width="5.27" height="17.14" transform="translate(78.91 140.69) rotate(-180)"/><rect class="cls-12" x="67.71" y="30.89" width="5.27" height="17.14" transform="translate(109.8 -30.89) rotate(90)"/></g></g></svg>