<?xml version="1.0" encoding="utf-8"?>
<!-- Generator: Adobe Illustrator 23.0.2, SVG Export Plug-In . SVG Version: 6.00 Build 0)  -->
<svg version="1.1" id="Layer_1" xmlns="http://www.w3.org/2000/svg" xmlns:xlink="http://www.w3.org/1999/xlink" x="0px" y="0px"
	 viewBox="0 0 402.5 67.2" style="enable-background:new 0 0 402.5 67.2;" xml:space="preserve">
<style type="text/css">
	.st0{fill:#FFFFFF;}
</style>
<title>evolve-vm-logo</title>
<g>
	<g id="white-color-vm">
		<g id="white-color-vm-2">
			<path class="st0" d="M97.4,9.4h26.8v4.2h-22.1V31h18v4.2h-18v17.7h23.4V57h-28L97.4,9.4z"/>
			<path class="st0" d="M129.1,22.9h4.9l9.4,25c0.6,1.8,1.1,4.1,1.1,4.1h0.1c0,0,0.6-2.3,1.2-4.1l9.4-25h4.8L147,57h-5L129.1,22.9z"
				/>
			<path class="st0" d="M182.1,22.1c10,0,18,7.6,18,17.7c0,10-8.1,18-18,18c-10,0-18-8.1-18-18C164.1,29.7,172.1,22.1,182.1,22.1z
				 M182.1,53.7c7.3,0,13.3-5.9,13.3-13.8c0-7.3-5.9-13.3-13.3-13.3s-13.3,5.9-13.3,13.3C168.9,47.7,174.8,53.7,182.1,53.7z"/>
			<path class="st0" d="M208.4,9.4h4.7V48c0,4.4,2,5.1,3.8,5.1c0.4,0,0.8,0,1.2-0.1v4c-0.6,0.1-1.2,0.1-1.7,0.1
				c-2.8,0-7.8-0.9-7.8-8.4V9.4H208.4z"/>
			<path class="st0" d="M220.8,22.9h4.9l9.4,25c0.6,1.8,1.2,4.1,1.2,4.1h0.1c0,0,0.6-2.3,1.2-4l9.4-25h4.8l-13,34h-5L220.8,22.9z"/>
			<path class="st0" d="M272.7,22.1c9.4,0,14.2,7.2,14.2,15.7c0,0.8-0.1,2.3-0.1,2.3h-26.2c0.2,8.7,6.2,13.5,13.1,13.5
				c3.8-0.1,7.5-1.5,10.4-4.1l2.1,3.5c-3.5,3-7.9,4.7-12.6,4.8c-10.1,0-17.8-7.3-17.8-17.8C255.9,28.9,263.5,22.1,272.7,22.1z
				 M282.3,36.4c-0.2-7.1-4.6-10.5-9.6-10.5c-5.7,0-10.6,3.6-11.8,10.5H282.3z"/>
			<path class="st0" d="M309.2,9.4h5l13.1,36.2c0.9,2.5,1.9,6.2,1.9,6.2h0.1c0,0,0.9-3.7,1.9-6.2l13.2-36.2h5L331.8,57h-4.9
				L309.2,9.4z"/>
			<path class="st0" d="M359.3,9.4h4.9l12.5,27.9c1,2.4,2.3,5.8,2.3,5.8h0.1c0,0,1.3-3.4,2.3-5.8l12.5-27.9h4.8l3.8,47.6h-4.7
				l-2.7-33.4c-0.2-2.5-0.1-6.6-0.1-6.6h-0.1c0,0-1.4,4.2-2.6,6.6L381.1,48h-4.4l-11.2-24.4c-1-2.3-2.6-6.8-2.6-6.8h-0.1
				c0,0,0.1,4.2-0.1,6.8L360,56.9h-4.7L359.3,9.4z"/>
			<g>
				<path class="st0" d="M40.7,47.5c7.1,0,12.8-5.7,12.8-12.8s-5.7-12.8-12.8-12.8c-7.1,0-12.8,5.7-12.8,12.8S33.6,47.5,40.7,47.5z
					 M40.5,23.8C40.5,23.8,40.5,23.8,40.5,23.8c6.1,0,11,4.9,11,11c0,6.1-4.9,11-11,11c-6.1,0-11-4.9-11-11c0,0,0,0,0,0
					C29.6,28.7,34.5,23.8,40.5,23.8z"/>
				<circle class="st0" cx="40.7" cy="34.5" r="4.3"/>
				<circle class="st0" cx="12.4" cy="6.5" r="2"/>
				<circle class="st0" cx="12.4" cy="63.4" r="2"/>
				<circle class="st0" cx="69" cy="6.5" r="2"/>
				<circle class="st0" cx="69" cy="63.4" r="2"/>
				<path class="st0" d="M65.7,33L65.7,33c-0.3-5.5-2.5-10.7-6.1-14.8c-0.7-0.8-1.5-1.6-2.4-2.3c-4-3.5-9.1-5.7-14.4-6.1h-0.4
					c-0.5,0-1.1-0.1-1.6-0.1c-0.5,0-1.1,0-1.6,0.1h-0.4c-5.4,0.4-10.5,2.5-14.5,6.1c-5,4.4-8,10.5-8.5,17.2l0,0
					c0,0.5-0.1,1.1-0.1,1.6c0,0.5,0,1.1,0.1,1.6l0.1,0.8c0.5,5.2,2.7,10.1,6.1,14.1c0.7,0.8,1.5,1.6,2.3,2.3
					c4.1,3.5,9.1,5.7,14.5,6.1h0.4c1.1,0.1,2.2,0.1,3.3,0H43c5.3-0.4,10.4-2.6,14.4-6.1c0.8-0.7,1.6-1.5,2.3-2.3
					c3.5-3.9,5.6-8.8,6.1-14.1c0-0.3,0.1-0.5,0.1-0.8c0-0.5,0.1-1.1,0.1-1.6S65.7,33.5,65.7,33z M42.8,56c-0.7,0.1-1.3,0.1-2,0.1
					c-0.7,0-1.3,0-2-0.1c-10.2-1-18.4-8.9-19.5-19.1c-0.1-0.8-0.1-1.6-0.1-2.5c0-0.5,0-1.1,0.1-1.6c0.8-10.5,9.1-19,19.6-19.9
					c0.7-0.1,1.3-0.1,2-0.1c0.7,0,1.3,0,2,0.1c10.5,1,18.8,9.4,19.5,20c0,0.5,0.1,1.1,0.1,1.6c0,0.8,0,1.6-0.1,2.5
					C61.2,47.1,53,55.1,42.8,56L42.8,56z"/>
				<rect x="38.7" y="4.4" class="st0" width="4.1" height="13.1"/>
				<rect x="10.5" y="33" class="st0" width="13.1" height="4.1"/>
				<rect x="38.7" y="52.2" class="st0" width="4.1" height="13.1"/>
				<rect x="57.9" y="33" class="st0" width="13.1" height="4.1"/>
			</g>
		</g>
	</g>
</g>
</svg>
