<?xml version="1.0" encoding="utf-8"?>
<!-- Generator: Adobe Illustrator 23.0.2, SVG Export Plug-In . SVG Version: 6.00 Build 0)  -->
<svg version="1.1" id="Layer_1" xmlns="http://www.w3.org/2000/svg" xmlns:xlink="http://www.w3.org/1999/xlink" x="0px" y="0px"
	 viewBox="0 0 261.2 261.6" style="enable-background:new 0 0 261.2 261.6;" xml:space="preserve">
<style type="text/css">
	.st0{fill:#FFFFFF;}
</style>
<title>evolve-vm-icon-white</title>
<g>
	<path class="st0" d="M130.5,178.3c26.6,0,48.2-21.6,48.2-48.2s-21.6-48.2-48.2-48.2c-26.6,0-48.2,21.6-48.2,48.2
		S103.9,178.3,130.5,178.3z M130,88.9C130,88.9,130,88.9,130,88.9c22.8,0,41.3,18.5,41.3,41.3c0,22.8-18.5,41.3-41.3,41.3
		c-22.8,0-41.3-18.5-41.3-41.3c0,0,0,0,0,0C88.7,107.4,107.2,88.9,130,88.9z"/>
	<circle class="st0" cx="130.6" cy="129.2" r="16.3"/>
	<circle class="st0" cx="24.1" cy="24" r="7.5"/>
	<circle class="st0" cx="24.1" cy="238.1" r="7.5"/>
	<circle class="st0" cx="237" cy="24" r="7.5"/>
	<circle class="st0" cx="237" cy="238.1" r="7.5"/>
	<path class="st0" d="M224.6,123.6L224.6,123.6c-1.3-20.6-9.4-40.2-23.1-55.7c-2.7-3.1-5.7-6.1-8.9-8.8
		c-15.1-13.2-34.1-21.3-54.2-23.1H137c-2,0-4-0.4-6-0.4c-2-0.1-4,0.1-6,0.4h-1.5C103.2,37.4,84,45.6,68.9,59
		C50.1,75.5,38.7,98.7,37,123.6l0,0c0,2-0.4,4-0.4,6c-0.1,2,0.1,4,0.4,6l0.4,3.2c1.9,19.6,10,38.2,23.1,52.9
		c2.7,3.1,5.7,6.1,8.8,8.8c15.2,13.3,34.4,21.4,54.5,23.1h1.5c4.1,0.4,8.2,0.4,12.3,0h1.5c20.1-1.6,39.1-9.7,54.1-23.1
		c3.1-2.7,6.1-5.7,8.8-8.8c13.1-14.7,21.2-33.3,23.1-52.9c0-1.2,0.4-2,0.4-3.2c0-2,0.4-4,0.4-6C226,127.6,224.6,125.5,224.6,123.6z
		 M138.5,210.3c-2.5,0.3-5,0.5-7.5,0.4c-2.5,0.1-5-0.1-7.5-0.4c-38.4-3.6-69-33.6-73.5-71.9c-0.3-3.1-0.5-6.1-0.4-9.2
		c-0.1-2,0.1-4,0.4-5.9c3.1-39.6,34.3-71.3,73.9-74.9c2.5-0.3,5-0.5,7.5-0.4c2.5-0.1,5,0.1,7.5,0.4c39.5,3.8,70.5,35.5,73.5,75.1
		c0,2,0.4,4,0.4,5.9c0.1,3.1-0.1,6.2-0.4,9.2C207.6,176.8,176.9,206.6,138.5,210.3L138.5,210.3z"/>
	<rect x="123.1" y="16" class="st0" width="15.4" height="49.2"/>
	<rect x="17.1" y="123.6" class="st0" width="49.2" height="15.4"/>
	<rect x="123.1" y="195.9" class="st0" width="15.4" height="49.2"/>
	<rect x="195.4" y="123.6" class="st0" width="49.2" height="15.4"/>
</g>
</svg>
