<svg xmlns="http://www.w3.org/2000/svg" viewBox="0 0 1242.78 845.03">
  <defs>
    <style>
      .cls-1{fill:#fff;}
    </style>
  </defs>
  <title>
    onesite-logo-v-white
  </title>
  <g id="Layer_2" data-name="Layer 2">
    <path class="cls-1" d="M806 181a12.64 12.64 0 0 0 12.64-12.64A12.64 12.64 0 0 0 806 155.72a12.64 12.64 0 0 0-12.64 12.64 12.59 12.59 0 0 0 .84 4.51l-31.12 20a12.63 12.63 0 0 0-21.36 6.28h-68.49a51.7 51.7 0 0 0-13.35-32.23l49.39-49.39a12.57 12.57 0 0 0 6.91 2.06 12.63 12.63 0 0 0 12.62-12.26l38.86-6.94a12.65 12.65 0 1 0-.9-5.11l-38.86 6.94a12.67 12.67 0 0 0-7-7l6.94-38.86a12.63 12.63 0 0 0 12.26-12.58 12.64 12.64 0 0 0-12.64-12.64 12.64 12.64 0 0 0-12.64 12.64 12.64 12.64 0 0 0 7.91 11.71l-6.94 38.86a12.62 12.62 0 0 0-10.19 19.52l-49.39 49.39A51.7 51.7 0 0 0 624 149.92V81.43a12.63 12.63 0 0 0 6.54-21.09l23.16-33.78a12.6 12.6 0 0 0 4.86 1 12.64 12.64 0 1 0 0-25.28 12.63 12.63 0 0 0-9.13 21.36l-23.18 33.75a12.65 12.65 0 0 0-9.8 0L591.31 21.3a12.58 12.58 0 0 0 3.45-8.66A12.64 12.64 0 0 0 582.12 0a12.64 12.64 0 0 0-12.64 12.64 12.64 12.64 0 0 0 12.64 12.64 12.59 12.59 0 0 0 4.94-1L612.2 60.4a12.62 12.62 0 0 0 6.59 21v68.49a51.7 51.7 0 0 0-32.23 13.35l-49.39-49.39A12.62 12.62 0 0 0 527 94.35l-7-38.85a12.63 12.63 0 0 0 8-11.72 12.64 12.64 0 0 0-12.64-12.64 12.64 12.64 0 0 0-12.64 12.64 12.63 12.63 0 0 0 12.22 12.62l6.94 38.86a12.67 12.67 0 0 0-7 7L476 95.3a12.61 12.61 0 1 0-.9 5.11l38.9 6.94a12.63 12.63 0 0 0 12.62 12.26 12.57 12.57 0 0 0 6.91-2.06l49.39 49.39a51.7 51.7 0 0 0-13.35 32.23h-68.51a12.62 12.62 0 0 0-20.66-6.93l-32.2-24.36a12.62 12.62 0 0 0-11.42-18 12.64 12.64 0 0 0 0 25.28 12.58 12.58 0 0 0 8.29-3.11l32.2 24.36a12.52 12.52 0 0 0 0 10.77l-32.2 24.36a12.58 12.58 0 0 0-8.29-3.11 12.64 12.64 0 0 0 0 25.28 12.62 12.62 0 0 0 11.42-18l32.2-24.36a12.62 12.62 0 0 0 20.66-6.93h68.49a51.7 51.7 0 0 0 13.35 32.23L533.51 286a12.57 12.57 0 0 0-6.91-2.06 12.63 12.63 0 0 0-12.6 12.22l-38.86 6.94a12.65 12.65 0 1 0 .9 5.11l38.86-6.94a12.67 12.67 0 0 0 7 7l-6.94 38.86a12.63 12.63 0 0 0 .38 25.26A12.63 12.63 0 0 0 520 348l7-38.84a12.62 12.62 0 0 0 10.19-19.53l49.39-49.39a51.7 51.7 0 0 0 32.23 13.35v68.49a12.64 12.64 0 0 0-10 12.37 12.6 12.6 0 0 0 3.76 9l-20 31.12a12.61 12.61 0 0 0-17.14 11.8 12.64 12.64 0 1 0 25.28 0 12.6 12.6 0 0 0-3.76-9l20-31.12a12.5 12.5 0 0 0 9.89-.38l24.36 32.2a12.58 12.58 0 0 0-3.11 8.29A12.64 12.64 0 0 0 660.66 399a12.64 12.64 0 0 0 12.64-12.64 12.64 12.64 0 0 0-12.64-12.64 12.56 12.56 0 0 0-5.38 1.22l-24.36-32.2a12.58 12.58 0 0 0 3.11-8.29 12.64 12.64 0 0 0-10-12.37V253.6a51.7 51.7 0 0 0 32.23-13.35l49.39 49.39a12.62 12.62 0 0 0 10.19 19.52l6.89 38.84a12.63 12.63 0 0 0 4.73 24.35 12.63 12.63 0 0 0 .38-25.26l-6.94-38.86a12.67 12.67 0 0 0 7-7l38.86 6.94a12.62 12.62 0 1 0 .9-5.11l-38.86-6.94a12.63 12.63 0 0 0-12.62-12.25 12.57 12.57 0 0 0-6.91 2.06l-49.39-49.39a51.7 51.7 0 0 0 13.35-32.23h68.49a12.63 12.63 0 0 0 21.36 6.28l31.12 20A12.61 12.61 0 0 0 806 247.8a12.64 12.64 0 0 0 0-25.28 12.59 12.59 0 0 0-9 3.76l-31.12-20a12.48 12.48 0 0 0 0-9l31.12-20a12.6 12.6 0 0 0 9 3.72zM126.18 588.79c70.14 0 126.18 55.34 126.18 126.53 0 72.61-56 129.71-126.18 129.71S0 787.93 0 715.32c0-71.2 56-126.53 126.18-126.53zm0 233.68c55.69 0 100.8-46.53 100.8-107.15 0-59.21-45.12-104-100.8-104-56 0-100.8 44.76-100.8 104 0 60.63 44.76 107.15 100.8 107.15zM300.3 663.51h23.62v26.44c0 7.75-.71 14.1-.71 14.1h.71c6.34-16.21 28.9-44.76 70.85-44.76 43.71 0 59.22 25 59.22 68.73V840.8H430V734.36c0-27.85-4.23-52.52-38.42-52.52-30.31 0-56.39 20.8-64.5 50-2.12 7.4-2.82 15.51-2.82 24v84.96h-24zm284.08-4.23c49 0 74 37.71 74 81.77 0 4.23-.71 12.34-.71 12.34H521.64c1.06 45.47 32.08 70.14 68.73 70.14 32.43 0 53.93-21.5 53.93-21.5l10.93 18.33S629.5 845 589.67 845C536.8 845 497 807 497 752.33c0-58.16 39.45-93.05 87.38-93.05zm49.7 74.37c-1.41-37-24-54.28-50.4-54.28-29.61 0-55.34 18.68-61 54.28zm73.31 60.98s25.73 27.14 64.85 27.14c27.14 0 49.35-16.21 49.35-43 0-62.39-123.72-46.53-123.72-123.36 0-35.6 31.37-66.62 77.19-66.62 43 0 66.26 24 66.26 24l-12 20.44s-21.85-21.15-54.28-21.15c-31.72 0-52.16 20.8-52.16 42.65 0 58.86 123.72 41.94 123.72 123.36 0 37-28.55 67-75.08 67-50.75 0-78.6-31.72-78.6-31.72zM893.14 593h25v30h-25zm.7 70.49h24V840.8h-24zm88.47 22.23H959v-20.1h23.62v-51.1h23.62v51.11h44.41v20.09h-44.41v88.12c0 41.59 26.43 46.88 39.83 46.88a41.14 41.14 0 0 0 8.11-.71v21.5a63.06 63.06 0 0 1-10.22.71c-20.44 0-61.68-6.7-61.68-65.91zm186.45-26.44c49 0 74 37.71 74 81.77 0 4.23-.71 12.34-.71 12.34H1106c1.06 45.47 32.07 70.14 68.73 70.14 32.43 0 53.93-21.5 53.93-21.5l10.93 18.33S1213.88 845 1174 845c-52.87 0-92.7-38.07-92.7-92.7.05-58.13 39.53-93.02 87.46-93.02zm49.7 74.37c-1.41-37-24-54.28-50.4-54.28-29.61 0-55.34 18.68-61 54.28z" id="Layer_1-2" data-name="Layer 1"/>
  </g>
</svg>
