<svg xmlns="http://www.w3.org/2000/svg" xmlns:xlink="http://www.w3.org/1999/xlink" viewBox="0 0 394.49 399">
  <defs>
    <style>
      .onesite-icon-cls-1{fill:url(#linear-gradient);}.onesite-icon-cls-2{fill:url(#linear-gradient-2);}.onesite-icon-cls-3{fill:url(#linear-gradient-3);}.onesite-icon-cls-4{fill:url(#linear-gradient-4);}.onesite-icon-cls-5{fill:url(#linear-gradient-5);}.onesite-icon-cls-6{fill:url(#linear-gradient-6);}.onesite-icon-cls-7{fill:url(#linear-gradient-7);}.onesite-icon-cls-8{fill:url(#linear-gradient-8);}.onesite-icon-cls-9{fill:url(#linear-gradient-9);}.onesite-icon-cls-10{fill:url(#linear-gradient-10);}.onesite-icon-cls-11{fill:url(#linear-gradient-11);}.onesite-icon-cls-12{fill:url(#linear-gradient-12);}.onesite-icon-cls-13{fill:url(#linear-gradient-13);}.onesite-icon-cls-14{fill:url(#linear-gradient-14);}.onesite-icon-cls-15{fill:url(#linear-gradient-17);}.onesite-icon-cls-16{fill:url(#linear-gradient-18);}.onesite-icon-cls-17{fill:url(#linear-gradient-19);}.onesite-icon-cls-18{fill:url(#linear-gradient-20);}.onesite-icon-cls-19{fill:url(#linear-gradient-21);}.onesite-icon-cls-20{fill:url(#linear-gradient-22);}.onesite-icon-cls-21{fill:url(#linear-gradient-23);}.onesite-icon-cls-22{fill:url(#linear-gradient-24);}.onesite-icon-cls-23{fill:url(#linear-gradient-25);}.onesite-icon-cls-24{fill:url(#linear-gradient-26);}.onesite-icon-cls-25{fill:url(#linear-gradient-27);}.onesite-icon-cls-26{fill:url(#linear-gradient-28);}.onesite-icon-cls-27{fill:url(#linear-gradient-29);}.onesite-icon-cls-28{fill:url(#linear-gradient-30);}.onesite-icon-cls-29{fill:url(#linear-gradient-31);}.onesite-icon-cls-30{fill:url(#linear-gradient-32);}.onesite-icon-cls-31{fill:url(#linear-gradient-33);}.onesite-icon-cls-32{fill:url(#linear-gradient-34);}.onesite-icon-cls-33{fill:url(#linear-gradient-35);}.onesite-icon-cls-34{fill:url(#linear-gradient-36);}.onesite-icon-cls-35{fill:url(#linear-gradient-37);}
    </style>
    <linearGradient id="linear-gradient" x1="112.38" y1="61.97" x2="57.46" y2="116.89" gradientUnits="userSpaceOnUse">
      <stop offset="0" stop-color="#41cdfc"/>
      <stop offset="1" stop-color="#0860b8"/>
    </linearGradient>
    <linearGradient id="linear-gradient-2" x1="220.31" y1=".12" x2="172.03" y2="48.39" xlink:href="#linear-gradient"/>
    <linearGradient id="linear-gradient-3" x1="197.24" y1="66.8" x2="197.24" y2="336.71" xlink:href="#linear-gradient"/>
    <linearGradient id="linear-gradient-4" x1="2461.77" y1="2086.81" x2="2461.77" y2="2356.72" gradientTransform="rotate(90 2339.51 79.5)" xlink:href="#linear-gradient"/>
    <linearGradient id="linear-gradient-5" x1="738.25" y1="-1483.82" x2="738.25" y2="-1213.91" gradientTransform="translate(-541.01 1550.62)" xlink:href="#linear-gradient"/>
    <linearGradient id="linear-gradient-6" x1="911.15" y1="1545.81" x2="911.15" y2="1815.72" gradientTransform="rotate(90 1293.695 584.305)" xlink:href="#linear-gradient"/>
    <linearGradient id="linear-gradient-7" x1="11.07" y1="201.76" x2="68.85" y2="201.76" gradientUnits="userSpaceOnUse">
      <stop offset="0" stop-color="#0860b8"/>
      <stop offset="1" stop-color="#41cdfc"/>
    </linearGradient>
    <linearGradient id="linear-gradient-8" x1="105.67" y1="293.33" x2="64.17" y2="334.83" xlink:href="#linear-gradient"/>
    <linearGradient id="linear-gradient-9" x1="221.17" y1="354.02" x2="175.95" y2="399.24" xlink:href="#linear-gradient"/>
    <linearGradient id="linear-gradient-10" x1="337.02" y1="286.62" x2="282.11" y2="341.54" xlink:href="#linear-gradient"/>
    <linearGradient id="linear-gradient-11" x1="393.31" y1="179.04" x2="347.87" y2="224.48" xlink:href="#linear-gradient"/>
    <linearGradient id="linear-gradient-12" x1="330.31" y1="68.69" x2="288.82" y2="110.18" xlink:href="#linear-gradient"/>
    <linearGradient id="linear-gradient-13" x1="351.66" y1="47.34" x2="37.63" y2="361.37" xlink:href="#linear-gradient"/>
    <linearGradient id="linear-gradient-14" x1="256.88" y1="-47.45" x2="-57.15" y2="266.58" xlink:href="#linear-gradient"/>
    <linearGradient id="linear-gradient-17" x1="446.45" y1="142.12" x2="132.42" y2="456.15" xlink:href="#linear-gradient"/>
    <linearGradient id="linear-gradient-18" x1="418.01" y1="113.69" x2="103.98" y2="427.72" xlink:href="#linear-gradient"/>
    <linearGradient id="linear-gradient-19" x1="285.31" y1="-19.01" x2="-28.72" y2="295.02" xlink:href="#linear-gradient"/>
    <linearGradient id="linear-gradient-20" x1="418.01" y1="113.69" x2="103.98" y2="427.72" gradientTransform="rotate(-90 197.245 334.455)" xlink:href="#linear-gradient"/>
    <linearGradient id="linear-gradient-21" x1="285.31" y1="-19.01" x2="-28.72" y2="295.02" gradientTransform="rotate(-90 197.245 69.055)" xlink:href="#linear-gradient"/>
    <linearGradient id="linear-gradient-22" x1="276.82" y1="-27.51" x2="-37.21" y2="286.52" gradientTransform="rotate(-90 234.415 14.895)" xlink:href="#linear-gradient"/>
    <linearGradient id="linear-gradient-23" x1="325.71" y1="21.38" x2="11.68" y2="335.42" gradientTransform="rotate(-90 303.31 43.78)" xlink:href="#linear-gradient"/>
    <linearGradient id="linear-gradient-24" x1="377.62" y1="73.29" x2="63.58" y2="387.32" gradientTransform="rotate(-90 355.22 95.69)" xlink:href="#linear-gradient"/>
    <linearGradient id="linear-gradient-25" x1="427.27" y1="122.94" x2="113.23" y2="436.97" gradientTransform="rotate(-90 381.845 168.355)" xlink:href="#linear-gradient"/>
    <linearGradient id="linear-gradient-26" x1="460.67" y1="156.34" x2="146.63" y2="470.37" gradientTransform="rotate(-90 381.85 235.16)" xlink:href="#linear-gradient"/>
    <linearGradient id="linear-gradient-27" x1="483.69" y1="179.36" x2="169.65" y2="493.39" gradientTransform="rotate(-90 355.215 307.825)" xlink:href="#linear-gradient"/>
    <linearGradient id="linear-gradient-28" x1="483.69" y1="179.36" x2="169.65" y2="493.39" gradientTransform="rotate(-90 303.31 359.73)" xlink:href="#linear-gradient"/>
    <linearGradient id="linear-gradient-29" x1="463.6" y1="159.27" x2="149.57" y2="473.3" gradientTransform="rotate(-90 236.51 386.36)" xlink:href="#linear-gradient"/>
    <linearGradient id="linear-gradient-30" x1="427.27" y1="122.94" x2="113.23" y2="436.97" gradientTransform="rotate(-90 163.84 386.36)" xlink:href="#linear-gradient"/>
    <linearGradient id="linear-gradient-31" x1="377.62" y1="73.29" x2="63.58" y2="387.32" gradientTransform="rotate(-90 91.175 359.735)" xlink:href="#linear-gradient"/>
    <linearGradient id="linear-gradient-32" x1="325.71" y1="21.38" x2="11.68" y2="335.42" gradientTransform="rotate(-90 39.265 307.825)" xlink:href="#linear-gradient"/>
    <linearGradient id="linear-gradient-33" x1="279" y1="-25.33" x2="-35.04" y2="288.7" gradientTransform="rotate(-90 12.635 241.025)" xlink:href="#linear-gradient"/>
    <linearGradient id="linear-gradient-34" x1="239.73" y1="-64.6" x2="-74.3" y2="249.43" gradientTransform="rotate(-90 12.64 162.49)" xlink:href="#linear-gradient"/>
    <linearGradient id="linear-gradient-35" x1="219.64" y1="-84.69" x2="-94.39" y2="229.35" gradientTransform="rotate(-90 39.27 95.69)" xlink:href="#linear-gradient"/>
    <linearGradient id="linear-gradient-36" x1="219.64" y1="-84.69" x2="-94.39" y2="229.35" gradientTransform="rotate(-90 91.175 43.785)" xlink:href="#linear-gradient"/>
    <linearGradient id="linear-gradient-37" x1="237.47" y1="-66.86" x2="-76.56" y2="247.17" gradientTransform="rotate(-90 157.975 12.635)" xlink:href="#linear-gradient"/>
  </defs>
  <title>
    onesite-icon
  </title>
  <g id="Layer_2" data-name="Layer 2">
    <g id="Layer_1-2" data-name="Layer 1">
      <path class="onesite-icon-cls-1" d="M105.67 110.18L38.81 98.24l.92-5.11 59.52 10.63-10.63-59.52 5.11-.91 11.94 66.85z"/>
      <path class="onesite-icon-cls-2" d="M197.26 73.62l-41.42-59.5 4.26-2.96 37.13 53.33 35.04-51.06 4.28 2.93-39.29 57.26z"/>
      <path class="onesite-icon-cls-3" d="M194.65 66.8h5.19v269.91h-5.19z"/>
      <path class="onesite-icon-cls-4" d="M62.29 199.16H332.2v5.19H62.29z"/>
      <path class="onesite-icon-cls-5" d="M99.983 108.156l3.67-3.67 190.855 190.856-3.67 3.67z"/>
      <path class="onesite-icon-cls-6" d="M99.983 295.352l190.855-190.855 3.67 3.67L103.653 299.02z"/>
      <path class="onesite-icon-cls-7" d="M14.2 243.09l-3.13-4.13 49.17-37.2-49.17-37.2 3.13-4.14 54.65 41.34-54.65 41.33z"/>
      <path class="onesite-icon-cls-8" d="M93.73 360.19l-5.11-.91 10.63-59.53-59.52 10.63-.92-5.11 66.86-11.94-11.94 66.86z"/>
      <path class="onesite-icon-cls-9" d="M234.44 387.93l-37.03-48.94-31.38 48.78-4.37-2.81 35.41-55.03 41.51 54.87-4.14 3.13z"/>
      <path class="onesite-icon-cls-10" d="M300.76 360.19l-11.94-66.86 66.86 11.94-.92 5.11-59.52-10.63 10.63 59.53-5.11.91z"/>
      <path class="onesite-icon-cls-11" d="M380.44 237.34l-55.29-35.58 55.29-35.59 2.81 4.37-48.51 31.22 48.51 31.22-2.81 4.36z"/>
      <path class="onesite-icon-cls-12" d="M288.82 110.18l11.94-66.85 5.11.91-10.63 59.52 59.52-10.63.92 5.11-66.86 11.94z"/>
      <rect class="onesite-icon-cls-13" x="145.34" y="149.85" width="103.81" height="103.81" rx="51.91" ry="51.91"/>
      <rect class="onesite-icon-cls-14" x="89.82" y="94.33" width="25.28" height="25.28" rx="12.64" ry="12.64"/>
      <rect class="onesite-icon-cls-13" x="279.39" y="94.33" width="25.28" height="25.28" rx="12.64" ry="12.64"/>
      <rect class="onesite-icon-cls-13" x="89.82" y="283.9" width="25.28" height="25.28" rx="12.64" ry="12.64"/>
      <rect class="onesite-icon-cls-15" x="279.39" y="283.9" width="25.28" height="25.28" rx="12.64" ry="12.64"/>
      <rect class="onesite-icon-cls-16" x="317.3" y="189.12" width="25.28" height="25.28" rx="12.64" ry="12.64"/>
      <rect class="onesite-icon-cls-17" x="51.91" y="189.12" width="25.28" height="25.28" rx="12.64" ry="12.64"/>
      <rect class="onesite-icon-cls-18" x="184.61" y="321.82" width="25.28" height="25.28" rx="12.64" ry="12.64" transform="rotate(90 197.245 334.455)"/>
      <rect class="onesite-icon-cls-19" x="184.61" y="56.42" width="25.28" height="25.28" rx="12.64" ry="12.64" transform="rotate(90 197.245 69.055)"/>
      <rect class="onesite-icon-cls-20" x="221.77" y="2.26" width="25.28" height="25.28" rx="12.64" ry="12.64" transform="rotate(90 234.415 14.895)"/>
      <rect class="onesite-icon-cls-21" x="290.67" y="31.14" width="25.28" height="25.28" rx="12.64" ry="12.64" transform="rotate(90 303.31 43.78)"/>
      <rect class="onesite-icon-cls-22" x="342.58" y="83.05" width="25.28" height="25.28" rx="12.64" ry="12.64" transform="rotate(90 355.22 95.69)"/>
      <rect class="onesite-icon-cls-23" x="369.21" y="155.72" width="25.28" height="25.28" rx="12.64" ry="12.64" transform="rotate(90 381.845 168.355)"/>
      <rect class="onesite-icon-cls-24" x="369.21" y="222.52" width="25.28" height="25.28" rx="12.64" ry="12.64" transform="rotate(90 381.85 235.16)"/>
      <rect class="onesite-icon-cls-25" x="342.58" y="295.19" width="25.28" height="25.28" rx="12.64" ry="12.64" transform="rotate(90 355.215 307.825)"/>
      <rect class="onesite-icon-cls-26" x="290.67" y="347.09" width="25.28" height="25.28" rx="12.64" ry="12.64" transform="rotate(90 303.31 359.73)"/>
      <rect class="onesite-icon-cls-27" x="223.87" y="373.72" width="25.28" height="25.28" rx="12.64" ry="12.64" transform="rotate(90 236.51 386.36)"/>
      <rect class="onesite-icon-cls-28" x="151.2" y="373.72" width="25.28" height="25.28" rx="12.64" ry="12.64" transform="rotate(90 163.84 386.36)"/>
      <rect class="onesite-icon-cls-29" x="78.54" y="347.09" width="25.28" height="25.28" rx="12.64" ry="12.64" transform="rotate(90 91.175 359.735)"/>
      <rect class="onesite-icon-cls-30" x="26.63" y="295.19" width="25.28" height="25.28" rx="12.64" ry="12.64" transform="rotate(90 39.265 307.825)"/>
      <rect class="onesite-icon-cls-31" y="228.39" width="25.28" height="25.28" rx="12.64" ry="12.64" transform="rotate(90 12.635 241.025)"/>
      <rect class="onesite-icon-cls-32" y="149.85" width="25.28" height="25.28" rx="12.64" ry="12.64" transform="rotate(90 12.64 162.49)"/>
      <rect class="onesite-icon-cls-33" x="26.63" y="83.05" width="25.28" height="25.28" rx="12.64" ry="12.64" transform="rotate(90 39.27 95.69)"/>
      <rect class="onesite-icon-cls-34" x="78.54" y="31.14" width="25.28" height="25.28" rx="12.64" ry="12.64" transform="rotate(90 91.175 43.785)"/>
      <rect class="onesite-icon-cls-35" x="145.34" width="25.28" height="25.28" rx="12.64" ry="12.64" transform="rotate(90 157.975 12.635)"/>
    </g>
  </g>
</svg>
