<svg xmlns="http://www.w3.org/2000/svg" viewBox="0 0 1799.02 399">
  <defs>
    <style>
      .cls-1{fill:#fff;}
    </style>
  </defs>
  <title>
    onesite-logo-white
  </title>
  <g id="Layer_2" data-name="Layer 2">
    <path class="cls-1" d="M381.85 222.52a12.59 12.59 0 0 0-9 3.77l-31.12-20a12.48 12.48 0 0 0 0-9l31.12-20a12.75 12.75 0 1 0-2.8-4.37l-31.12 20a12.59 12.59 0 0 0-9-3.77 12.64 12.64 0 0 0-12.37 10h-68.48a51.7 51.7 0 0 0-13.35-32.23l49.39-49.39a12.62 12.62 0 0 0 19.53-10.19l38.86-6.94a12.63 12.63 0 0 0 24.35-4.73 12.63 12.63 0 0 0-25.26-.38l-38.86 6.94a12.67 12.67 0 0 0-7-7l6.96-38.83A12.63 12.63 0 0 0 316 43.78a12.64 12.64 0 1 0-25.28 0 12.63 12.63 0 0 0 7.91 11.71l-6.94 38.86a12.63 12.63 0 0 0-12.3 12.65 12.57 12.57 0 0 0 2.06 6.91l-49.39 49.39a51.7 51.7 0 0 0-32.23-13.35V81.43a12.63 12.63 0 0 0 6.54-21.09l23.18-33.77a12.7 12.7 0 1 0-4.27-2.95L202.1 57.39a12.6 12.6 0 0 0-4.86-1 12.6 12.6 0 0 0-4.94 1L167.16 21.3a12.54 12.54 0 1 0-4.25 3l25.14 36.1a12.62 12.62 0 0 0 6.59 21v68.49a51.7 51.7 0 0 0-32.23 13.35L113 113.88a12.57 12.57 0 0 0 2.1-6.88 12.63 12.63 0 0 0-12.25-12.62L95.9 55.5a12.64 12.64 0 0 0 7.91-11.71 12.64 12.64 0 0 0-25.28 0A12.63 12.63 0 0 0 90.79 56.4l6.94 38.86a12.67 12.67 0 0 0-7 7L51.89 95.3A12.63 12.63 0 0 0 39.27 83a12.64 12.64 0 0 0-12.64 12.69 12.64 12.64 0 0 0 12.64 12.64A12.64 12.64 0 0 0 51 100.42l38.86 6.94a12.62 12.62 0 0 0 19.52 10.19l49.39 49.39a51.7 51.7 0 0 0-13.35 32.23H76.91a12.64 12.64 0 0 0-12.37-10 12.58 12.58 0 0 0-8.29 3.11l-32.2-24.36a12.56 12.56 0 0 0 1.22-5.39 12.64 12.64 0 0 0-25.28 0H0A12.63 12.63 0 0 0 20.93 172l32.2 24.36a12.52 12.52 0 0 0 0 10.77l-32.2 24.37A12.63 12.63 0 0 0 0 241a12.64 12.64 0 0 0 25.28 0 12.57 12.57 0 0 0-1.22-5.39l32.2-24.36a12.58 12.58 0 0 0 8.29 3.11 12.64 12.64 0 0 0 12.37-10h68.48a51.7 51.7 0 0 0 13.35 32.23L109.36 286a12.62 12.62 0 0 0-19.52 10.19L51 303.1a12.63 12.63 0 0 0-11.71-7.91 12.64 12.64 0 0 0-12.64 12.64 12.64 12.64 0 0 0 12.64 12.64 12.63 12.63 0 0 0 12.62-12.25l38.86-6.94a12.67 12.67 0 0 0 7 7l-6.94 38.86a12.62 12.62 0 1 0 5.11.9l6.94-38.86a12.63 12.63 0 0 0 12.25-12.62 12.57 12.57 0 0 0-2.06-6.91l49.39-49.39a51.7 51.7 0 0 0 32.23 13.35v68.49a12.63 12.63 0 0 0-6.28 21.36l-20 31.12a12.58 12.58 0 0 0-4.5-.84 12.64 12.64 0 0 0-12.64 12.64A12.64 12.64 0 0 0 163.84 399a12.64 12.64 0 0 0 12.64-12.64 12.6 12.6 0 0 0-3.76-9l20-31.12a12.58 12.58 0 0 0 4.5.84 12.57 12.57 0 0 0 5.38-1.22l24.4 32.21a12.58 12.58 0 0 0-3.11 8.29 12.64 12.64 0 1 0 25.28 0 12.62 12.62 0 0 0-18-11.42l-24.36-32.2a12.62 12.62 0 0 0-6.93-20.66V253.6a51.7 51.7 0 0 0 32.23-13.35l49.39 49.39a12.57 12.57 0 0 0-2.06 6.91 12.63 12.63 0 0 0 12.25 12.62l6.89 38.83a12.65 12.65 0 1 0 5.11-.9l-6.94-38.86a12.67 12.67 0 0 0 7-7l38.86 6.94a12.63 12.63 0 0 0 25.26-.38 12.63 12.63 0 0 0-24.35-4.73l-38.86-6.94A12.62 12.62 0 0 0 285.12 286l-49.39-49.39a51.7 51.7 0 0 0 13.35-32.23h68.49a12.64 12.64 0 0 0 12.37 10 12.6 12.6 0 0 0 9-3.76l31.12 20a12.63 12.63 0 1 0 11.8-8.13zM682.43 71.38c70.14 0 126.18 55.34 126.18 126.53 0 72.61-56 129.71-126.18 129.71s-126.18-57.1-126.18-129.71c-.01-71.19 56.04-126.53 126.18-126.53zm0 233.68c55.69 0 100.8-46.53 100.8-107.15 0-59.21-45.12-104-100.8-104-56 0-100.8 44.76-100.8 104-.01 60.63 44.76 107.15 100.8 107.15zM856.54 146.1h23.62v26.44c0 7.75-.71 14.1-.71 14.1h.71c6.34-16.21 28.9-44.76 70.85-44.76 43.71 0 59.22 25 59.22 68.73v112.78h-24V216.95c0-27.85-4.23-52.52-38.42-52.52-30.31 0-56.39 20.8-64.5 50-2.12 7.4-2.82 15.51-2.82 24v84.94h-24zm284.09-4.23c49 0 74 37.71 74 81.77 0 4.23-.71 12.34-.71 12.34h-136.03c1.06 45.47 32.08 70.14 68.73 70.14 32.43 0 53.93-21.5 53.93-21.5l10.93 18.33s-25.73 24.67-65.56 24.67c-52.87 0-92.7-38.07-92.7-92.7 0-58.15 39.47-93.05 87.41-93.05zm49.7 74.37c-1.41-37-24-54.28-50.4-54.28-29.61 0-55.34 18.68-61 54.28zm73.3 60.98s25.73 27.14 64.85 27.14c27.14 0 49.35-16.21 49.35-43 0-62.39-123.72-46.53-123.72-123.36 0-35.6 31.37-66.62 77.19-66.62 43 0 66.26 24 66.26 24l-12 20.44s-21.85-21.15-54.28-21.15c-31.72 0-52.16 20.8-52.16 42.65 0 58.86 123.72 41.94 123.72 123.36 0 37-28.55 67-75.08 67-50.75 0-78.6-31.72-78.6-31.72zm185.75-201.61h25v30h-25zm.7 70.49h24v177.29h-24zm88.47 22.21h-23.26v-20.09h23.62V97.11h23.62v51.11h44.41v20.09h-44.41v88.12c0 41.59 26.43 46.88 39.83 46.88a41.14 41.14 0 0 0 8.11-.71v21.5a63.06 63.06 0 0 1-10.22.71c-20.44 0-61.68-6.7-61.68-65.91zM1725 141.87c49 0 74 37.71 74 81.77 0 4.23-.71 12.34-.71 12.34h-136.02c1.06 45.47 32.07 70.14 68.73 70.14 32.43 0 53.93-21.5 53.93-21.5l10.93 18.33s-25.73 24.67-65.56 24.67c-52.87 0-92.7-38.07-92.7-92.7 0-58.15 39.47-93.05 87.4-93.05zm49.7 74.37c-1.41-37-24-54.28-50.4-54.28-29.61 0-55.34 18.68-61 54.28z" id="Layer_1-2" data-name="Layer 1"/>
  </g>
</svg>
