<svg xmlns="http://www.w3.org/2000/svg" viewBox="0 0 394.49 399">
  <defs>
    <style>
      .onesite-icon-white-cls-1{fill:#fff;}
    </style>
  </defs>
  <title>
    onesite-icon-white
  </title>
  <g id="Layer_2" data-name="Layer 2">
    <path class="onesite-icon-white-cls-1" d="M381.85 181a12.64 12.64 0 0 0 12.64-12.64 12.64 12.64 0 0 0-12.64-12.64 12.64 12.64 0 0 0-12.64 12.64 12.59 12.59 0 0 0 .84 4.51l-31.12 20a12.63 12.63 0 0 0-21.36 6.28h-68.49a51.7 51.7 0 0 0-13.35-32.23l49.39-49.39a12.57 12.57 0 0 0 6.91 2.06 12.63 12.63 0 0 0 12.62-12.26l38.86-6.94a12.65 12.65 0 1 0-.9-5.11l-38.86 6.94a12.67 12.67 0 0 0-7-7l6.94-38.86A12.63 12.63 0 0 0 316 43.78a12.64 12.64 0 0 0-12.64-12.64 12.64 12.64 0 0 0-12.64 12.64 12.64 12.64 0 0 0 7.91 11.71l-6.94 38.86a12.62 12.62 0 0 0-10.19 19.52l-49.39 49.39a51.7 51.7 0 0 0-32.23-13.35V81.43a12.63 12.63 0 0 0 6.54-21.09l23.18-33.77a12.6 12.6 0 0 0 4.86 1 12.64 12.64 0 1 0 0-25.28 12.63 12.63 0 0 0-9.13 21.36L202.1 57.39a12.65 12.65 0 0 0-9.8 0L167.16 21.3a12.58 12.58 0 0 0 3.45-8.66A12.64 12.64 0 0 0 158 0a12.64 12.64 0 0 0-12.64 12.64A12.64 12.64 0 0 0 158 25.28a12.59 12.59 0 0 0 4.94-1l25.11 36.12a12.62 12.62 0 0 0 6.59 21v68.49a51.7 51.7 0 0 0-32.23 13.35L113 113.88a12.62 12.62 0 0 0-10.19-19.53L95.9 55.5a12.63 12.63 0 0 0 7.91-11.71 12.64 12.64 0 0 0-12.64-12.65 12.64 12.64 0 0 0-12.63 12.64A12.63 12.63 0 0 0 90.79 56.4l6.94 38.86a12.67 12.67 0 0 0-7 7L51.89 95.3a12.61 12.61 0 1 0-.9 5.11l38.86 6.94a12.63 12.63 0 0 0 12.62 12.26 12.57 12.57 0 0 0 6.91-2.06l49.39 49.39a51.7 51.7 0 0 0-13.35 32.23H76.91a12.62 12.62 0 0 0-20.66-6.93l-32.2-24.36a12.62 12.62 0 0 0-11.42-18 12.64 12.64 0 0 0 0 25.28 12.58 12.58 0 0 0 8.3-3.16l32.2 24.36a12.52 12.52 0 0 0 0 10.77l-32.2 24.37a12.58 12.58 0 0 0-8.29-3.11 12.64 12.64 0 0 0 0 25.28 12.62 12.62 0 0 0 11.42-18l32.2-24.36a12.62 12.62 0 0 0 20.66-6.93h68.48a51.7 51.7 0 0 0 13.35 32.23L109.36 286a12.57 12.57 0 0 0-6.91-2.06 12.63 12.63 0 0 0-12.62 12.25L51 303.1a12.65 12.65 0 1 0 .9 5.11l38.86-6.94a12.67 12.67 0 0 0 7 7l-6.94 38.86a12.63 12.63 0 0 0 .38 25.26A12.63 12.63 0 0 0 95.9 348l6.94-38.86a12.62 12.62 0 0 0 10.16-19.5l49.39-49.39a51.7 51.7 0 0 0 32.23 13.35v68.49a12.64 12.64 0 0 0-10 12.37 12.6 12.6 0 0 0 3.76 9l-20 31.12a12.61 12.61 0 0 0-17.14 11.8 12.64 12.64 0 1 0 25.28 0 12.6 12.6 0 0 0-3.76-9l20-31.12a12.5 12.5 0 0 0 9.89-.38L227 378.07a12.58 12.58 0 0 0-3.11 8.29A12.64 12.64 0 0 0 236.51 399a12.64 12.64 0 0 0 12.64-12.64 12.64 12.64 0 0 0-12.64-12.64 12.56 12.56 0 0 0-5.38 1.22l-24.36-32.2a12.58 12.58 0 0 0 3.11-8.29 12.64 12.64 0 0 0-10-12.37V253.6a51.7 51.7 0 0 0 32.23-13.35l49.39 49.39a12.62 12.62 0 0 0 10.19 19.52l6.89 38.84a12.63 12.63 0 0 0 4.73 24.35 12.63 12.63 0 0 0 .38-25.26l-6.94-38.86a12.67 12.67 0 0 0 7-7l38.86 6.94a12.62 12.62 0 1 0 .9-5.11l-38.86-6.94A12.63 12.63 0 0 0 292 283.9a12.57 12.57 0 0 0-6.91 2.06l-49.39-49.39a51.7 51.7 0 0 0 13.35-32.23h68.49a12.63 12.63 0 0 0 21.36 6.28l31.12 20a12.61 12.61 0 0 0 11.8 17.14 12.64 12.64 0 0 0 0-25.28 12.59 12.59 0 0 0-9 3.76l-31.12-20a12.48 12.48 0 0 0 0-9l31.12-20a12.6 12.6 0 0 0 9.03 3.76z" id="Layer_1-2" data-name="Layer 1"/>
  </g>
</svg>
