<svg xmlns="http://www.w3.org/2000/svg" xmlns:xlink="http://www.w3.org/1999/xlink" viewBox="0 0 1031.57 641.91"><defs><style>.w10apv-1{fill:url(#linear-gradient);}.w10apv-2{fill:url(#linear-gradient-2);}.w10apv-3{fill:url(#linear-gradient-3);}.w10apv-4{fill:url(#linear-gradient-4);}.w10apv-5{fill:url(#linear-gradient-5);}.w10apv-6{fill:#404041;}</style><linearGradient id="linear-gradient" x1="542.13" y1="108.39" x2="608.02" y2="108.39" gradientTransform="translate(245.08 -374.89) rotate(45)" gradientUnits="userSpaceOnUse"><stop offset="0" stop-color="#031d39"/><stop offset="1" stop-color="#4e57f4"/></linearGradient><linearGradient id="linear-gradient-2" x1="404.6" y1="236.1" x2="490.14" y2="236.1" gradientTransform="translate(297.98 -247.19) rotate(45)" gradientUnits="userSpaceOnUse"><stop offset="0" stop-color="#072042"/><stop offset="0.5" stop-color="#4e57f4"/><stop offset="1" stop-color="#031d39"/></linearGradient><linearGradient id="linear-gradient-3" x1="556.29" y1="207.86" x2="638.07" y2="207.86" gradientTransform="translate(599.62 -424.46) rotate(71.03)" gradientUnits="userSpaceOnUse"><stop offset="0" stop-color="#072042"/><stop offset="0.06" stop-color="#152b65"/><stop offset="0.17" stop-color="#293a97"/><stop offset="0.27" stop-color="#3947c0"/><stop offset="0.36" stop-color="#4550dc"/><stop offset="0.44" stop-color="#4c55ee"/><stop offset="0.5" stop-color="#4e57f4"/><stop offset="0.56" stop-color="#4b55ee"/><stop offset="0.63" stop-color="#444fdb"/><stop offset="0.72" stop-color="#3846be"/><stop offset="0.82" stop-color="#283994"/><stop offset="0.93" stop-color="#132960"/><stop offset="1" stop-color="#031d39"/></linearGradient><linearGradient id="linear-gradient-4" x1="459.92" y1="89.98" x2="493.76" y2="89.98" gradientTransform="translate(55.38 -150.53) rotate(19.03)" xlink:href="#linear-gradient"/><linearGradient id="linear-gradient-5" x1="361.07" y1="321.96" x2="617.37" y2="65.66" gradientUnits="userSpaceOnUse"><stop offset="0" stop-color="#052b55"/><stop offset="1" stop-color="#4e57f4"/></linearGradient></defs><title>w10ap-logo-v</title><g id="Layer_2" data-name="Layer 2"><g id="Layer_1-2" data-name="Layer 1"><g id="Deploy10_Icon" data-name="Deploy10 Icon"><rect class="w10apv-1" x="533.4" y="103.48" width="83.36" height="9.82" transform="translate(91.79 438.39) rotate(-45)"/><rect class="w10apv-2" x="391.8" y="231.19" width="111.14" height="9.82" transform="translate(-35.92 385.49) rotate(-45)"/><rect class="w10apv-3" x="592.27" y="166.31" width="9.82" height="83.1" transform="translate(206.48 705.03) rotate(-71.03)"/><rect class="w10apv-4" x="471.93" y="52.31" width="9.82" height="75.34" transform="translate(-3.28 160.36) rotate(-19.03)"/><path class="w10apv-5" d="M625,81.35a19.5,19.5,0,1,1-19.5-19.5A19.51,19.51,0,0,1,625,81.35Zm-235.5,39.5a19.5,19.5,0,1,0,19.5,19.5A19.5,19.5,0,0,0,389.49,120.85Zm177,157a19.5,19.5,0,1,0,19.5,19.5A19.5,19.5,0,0,0,566.49,277.85Zm87-81.85A29.5,29.5,0,1,0,683,225.5,29.5,29.5,0,0,0,653.52,196ZM457.52,0A29.5,29.5,0,1,0,487,29.5,29.5,29.5,0,0,0,457.52,0ZM506,118a59,59,0,1,0,59,59A59,59,0,0,0,506,118ZM388,253.57a39.5,39.5,0,1,0,39.5,39.5A39.51,39.51,0,0,0,388,253.57Z"/></g><path class="w10apv-6" d="M263.72,420.81s-1.21,6.6-2.53,11.55l-14.74,54.45h-9.13l-20-77.33h7.92l15,60.06c1,4,1.76,8.25,1.76,8.25h.22c.11,0,.66-4.29,1.76-8.25l16.28-60.06h7.26l16.28,60.06c1.1,4,1.65,8.25,1.76,8.25h.22s.77-4.29,1.76-8.25L303,409.48h7.92l-20.57,77.33h-9.13l-14.74-54.45c-1.32-4.95-2.53-11.55-2.53-11.55Z"/><path class="w10apv-6" d="M323.78,409.48h7.81v9.35h-7.81Zm.22,22h7.48v55.33H324Z"/><path class="w10apv-6" d="M349.52,431.48h7.37v8.25c0,2.42-.22,4.4-.22,4.4h.22a23.55,23.55,0,0,1,22.11-14c13.64,0,18.48,7.81,18.48,21.45v35.2H390V453.59c0-8.69-1.32-16.39-12-16.39a21,21,0,0,0-20.13,15.62,27.36,27.36,0,0,0-.88,7.48v26.51h-7.48Z"/><path class="w10apv-6" d="M436,430.16c13.42,0,18,10.45,18,10.45h.22a39.92,39.92,0,0,1-.22-4.18V409.48h7.48v77.33h-7.26V481a30.94,30.94,0,0,1,.22-4h-.22s-4.51,11.11-19,11.11c-14.85,0-24.09-11.88-24.09-29C411.12,441.6,421.46,430.16,436,430.16Zm.33,51.26c9.24,0,17.93-6.6,17.93-22.33,0-11.22-5.72-22.22-17.6-22.22-9.79,0-17.82,8.25-17.82,22.22C418.82,472.73,426,481.42,436.31,481.42Z"/><path class="w10apv-6" d="M504.73,430.16c16.17,0,29.26,12.32,29.26,28.71a29.26,29.26,0,0,1-58.52,0C475.47,442.48,488.56,430.16,504.73,430.16Zm0,51.26c11.88,0,21.56-9.68,21.56-22.55a21.56,21.56,0,1,0-43.12,0C483.17,471.74,492.85,481.42,504.73,481.42Z"/><path class="w10apv-6" d="M540.81,431.48h7.92l13.42,41.25c.88,2.64,1.65,5.94,1.65,5.94H564s.77-3.3,1.65-5.94l13.64-41h7.37l13.64,41c.88,2.64,1.65,5.94,1.65,5.94h.22s.77-3.19,1.65-5.94l13.42-41.25h7.92l-18.7,55.33h-8.14l-13.53-39.38c-1-2.75-1.76-5.94-1.76-5.94h-.22s-.77,3.19-1.65,5.94l-13.53,39.38h-8.14Z"/><path class="w10apv-6" d="M635.63,474.71a23.74,23.74,0,0,0,16.5,6.71c5.94,0,11.11-3,11.11-8.8,0-12.1-29.82-9.13-29.82-27.17,0-9.9,8.91-15.29,18.92-15.29,11.66,0,17.06,6,17.06,6L666,441.93s-4.74-5.06-13.86-5.06c-5.62,0-11,2.42-11,8.58,0,12.21,29.81,8.91,29.81,27.17,0,9-7.81,15.51-18.93,15.51-13.42,0-20.46-8-20.46-8Z"/><path class="w10apv-6" d="M711.52,480H728.9V423.23c0-2.2.11-4.29.11-4.29h-.22a18.8,18.8,0,0,1-3.85,4.62l-8.25,8.25-4.84-4.95,17.49-17.38h7V480h17v6.82H711.52Z"/><path class="w10apv-6" d="M764.32,448.09c0-22.22,6.6-39.93,26.73-39.93s26.62,17.71,26.62,39.93c0,22.44-6.49,40-26.62,40S764.32,470.53,764.32,448.09Zm45.43,0c0-18.37-4.07-32.78-18.7-32.78s-18.81,14.41-18.81,32.78S776.31,481,791.05,481,809.75,466.57,809.75,448.09Z"/><path class="w10apv-6" d="M48,594.17H16.83L8,618.81H0l28.38-77.33h8.14L64.9,618.81h-8ZM32.34,549.51s-1.65,6.38-3,10L19,587.57H45.65L35.53,559.52c-1.32-3.63-3-10-3-10Z"/><path class="w10apv-6" d="M100.54,562.16c13.53,0,20.24,7.92,20.24,7.92l-3.85,5.61A23.43,23.43,0,0,0,100.76,569c-12.1,0-21.56,9-21.56,22.22,0,13,9.57,22.22,21.78,22.22a24.37,24.37,0,0,0,17.71-7.81l3.41,5.83s-7.48,8.69-21.56,8.69c-16.39,0-29-11.77-29-28.93S84.26,562.16,100.54,562.16Z"/><path class="w10apv-6" d="M160.93,562.16c13.53,0,20.24,7.92,20.24,7.92l-3.85,5.61A23.43,23.43,0,0,0,161.15,569c-12.1,0-21.56,9-21.56,22.22,0,13,9.57,22.22,21.78,22.22a24.37,24.37,0,0,0,17.71-7.81l3.41,5.83s-7.48,8.69-21.56,8.69c-16.39,0-29-11.77-29-28.93S144.65,562.16,160.93,562.16Z"/><path class="w10apv-6" d="M219.56,562.16c15.29,0,23.1,11.77,23.1,25.52,0,1.32-.22,3.85-.22,3.85H200c.33,14.19,10,21.89,21.45,21.89a25.72,25.72,0,0,0,16.83-6.71l3.41,5.72a31.71,31.71,0,0,1-20.46,7.7c-16.5,0-28.93-11.88-28.93-28.93C192.28,573.05,204.6,562.16,219.56,562.16Zm15.51,23.21c-.44-11.55-7.48-16.94-15.73-16.94-9.24,0-17.27,5.83-19,16.94Z"/><path class="w10apv-6" d="M256.41,541.48h7.48v62.59c0,7.26,3.3,8.36,6.16,8.36a17,17,0,0,0,1.87-.11V619a18.94,18.94,0,0,1-2.75.22c-4.62,0-12.76-1.43-12.76-13.53Z"/><path class="w10apv-6" d="M307.56,562.16c15.29,0,23.1,11.77,23.1,25.52,0,1.32-.22,3.85-.22,3.85H288c.33,14.19,10,21.89,21.45,21.89a25.72,25.72,0,0,0,16.83-6.71l3.41,5.72a31.71,31.71,0,0,1-20.46,7.7c-16.5,0-28.93-11.88-28.93-28.93C280.28,573.05,292.6,562.16,307.56,562.16Zm15.51,23.21c-.44-11.55-7.48-16.94-15.73-16.94-9.24,0-17.27,5.83-19,16.94Z"/><path class="w10apv-6" d="M345,563.48h7.37v9.79c0,2.42-.22,4.4-.22,4.4h.22c2.64-8.36,8.8-14.74,17.49-14.74a15,15,0,0,1,3,.33v7.37a18.94,18.94,0,0,0-2.75-.22c-7.81,0-13.64,6.16-16.06,14.3a36.5,36.5,0,0,0-1.54,10.78v23.32H345Z"/><path class="w10apv-6" d="M413.49,584.6h3.08v-1.43c0-10.67-5.83-14.3-13.75-14.3a26.94,26.94,0,0,0-15.62,5.28l-3.52-5.72s7.26-6.27,19.69-6.27c13.31,0,20.68,7.37,20.68,21.23v35.42H416.9v-6a43.74,43.74,0,0,1,.22-4.62h-.22a20,20,0,0,1-18.48,12c-9.24,0-18.81-5.39-18.81-16.39C379.61,585,403.92,584.6,413.49,584.6Zm-13.86,29.15c10.56,0,16.94-11,16.94-20.57v-2.42h-3.19c-8.69,0-26.07.33-26.07,12.54C387.31,608.47,391.38,613.75,399.63,613.75Z"/><path class="w10apv-6" d="M443.07,570.41h-7.26v-6.27h7.38V548.19h7.37v15.95h13.86v6.27H450.56v27.5c0,13,8.25,14.63,12.42,14.63a13,13,0,0,0,2.54-.22V619a19.69,19.69,0,0,1-3.19.22c-6.39,0-19.26-2.09-19.26-20.57Z"/><path class="w10apv-6" d="M503,562.16c16.17,0,29.26,12.32,29.26,28.71a29.26,29.26,0,0,1-58.52,0C473.76,574.48,486.85,562.16,503,562.16Zm0,51.26c11.88,0,21.56-9.68,21.56-22.55a21.56,21.56,0,1,0-43.12,0C481.46,603.74,491.14,613.42,503,613.42Z"/><path class="w10apv-6" d="M546.25,563.48h7.37v9.79c0,2.42-.22,4.4-.22,4.4h.22c2.64-8.36,8.8-14.74,17.49-14.74a15,15,0,0,1,3,.33v7.37a18.94,18.94,0,0,0-2.75-.22c-7.81,0-13.64,6.16-16.06,14.3a36.5,36.5,0,0,0-1.54,10.78v23.32h-7.48Z"/><path class="w10apv-6" d="M617.2,541.48h26.73c13.86,0,23.87,9,23.87,23.32s-10,23.65-23.87,23.65H624.79v30.36H617.2Zm25.74,40.15c10.34,0,17-6.27,17-16.83s-6.71-16.5-16.94-16.5H624.79v33.33Z"/><path class="w10apv-6" d="M680.78,563.48h7.37v9.79c0,2.42-.22,4.4-.22,4.4h.22c2.64-8.36,8.8-14.74,17.49-14.74a15,15,0,0,1,3,.33v7.37a18.94,18.94,0,0,0-2.75-.22c-7.81,0-13.64,6.16-16.06,14.3a36.5,36.5,0,0,0-1.54,10.78v23.32h-7.48Z"/><path class="w10apv-6" d="M744.47,562.16c16.17,0,29.26,12.32,29.26,28.71a29.26,29.26,0,1,1-58.52,0C715.21,574.48,728.3,562.16,744.47,562.16Zm0,51.26c11.88,0,21.56-9.68,21.56-22.55a21.56,21.56,0,1,0-43.12,0C722.91,603.74,732.59,613.42,744.47,613.42Z"/><path class="w10apv-6" d="M806.84,635.2c10.78,0,19.36-5.06,19.36-17.38v-5.06a38.21,38.21,0,0,1,.22-4h-.22c-3.3,6.16-8.91,9.68-17.49,9.68-14.85,0-24.64-11.77-24.64-28.38s9.13-27.94,24-27.94c14.63,0,18.26,9.24,18.26,9.24h.22a12.63,12.63,0,0,1-.11-1.87v-6h7.26v54c0,17.6-13,24.42-26.51,24.42a40.55,40.55,0,0,1-18.15-4.4l2.86-6.16A34,34,0,0,0,806.84,635.2Zm19.47-45.1c0-16.17-7.7-21.12-17.49-21.12-10.78,0-17.05,7.81-17.05,21s7.15,21.78,18.15,21.78C818.61,611.77,826.31,606.38,826.31,590.1Z"/><path class="w10apv-6" d="M851.72,563.48h7.37v9.79c0,2.42-.22,4.4-.22,4.4h.22c2.64-8.36,8.8-14.74,17.49-14.74a15,15,0,0,1,3,.33v7.37a18.94,18.94,0,0,0-2.75-.22c-7.81,0-13.64,6.16-16.06,14.3a36.5,36.5,0,0,0-1.54,10.78v23.32h-7.48Z"/><path class="w10apv-6" d="M920.25,584.6h3.08v-1.43c0-10.67-5.83-14.3-13.75-14.3A26.94,26.94,0,0,0,894,574.15l-3.52-5.72s7.26-6.27,19.69-6.27c13.31,0,20.68,7.37,20.68,21.23v35.42h-7.15v-6a43.74,43.74,0,0,1,.22-4.62h-.22a20,20,0,0,1-18.48,12c-9.24,0-18.81-5.39-18.81-16.39C886.37,585,910.68,584.6,920.25,584.6Zm-13.86,29.15c10.56,0,16.94-11,16.94-20.57v-2.42h-3.19c-8.69,0-26.07.33-26.07,12.54C894.07,608.47,898.14,613.75,906.39,613.75Z"/><path class="w10apv-6" d="M948.08,563.48h7.36v8.25c0,2.42-.22,4.4-.22,4.4h.22c2.64-7.48,11.44-14,20-14,10.24,0,15.51,4.73,17.17,13.86h.21a22.5,22.5,0,0,1,20.36-13.86c13.42,0,18.37,7.81,18.37,21.45v35.2h-7.49V585.48c0-9-1.87-16.5-12-16.5-8.46,0-15.39,7.48-17.48,15.62a26,26,0,0,0-1,8v26.18h-7.49V585.48c0-8.36-1.21-16.5-11.66-16.5-9,0-15.84,7.81-18.14,16.28a31.66,31.66,0,0,0-.78,7.37v26.18h-7.47Z"/></g></g></svg>
