<svg xmlns="http://www.w3.org/2000/svg" viewBox="0 0 1373.86 274.48"><defs><style>.w10apw-1{fill:#fff;}</style></defs><title>w10ap-logo-white</title><g id="Layer_2" data-name="Layer 2"><g id="Layer_1-2" data-name="Layer 1"><circle class="w10apw-1" cx="177.75" cy="243.22" r="16.05"/><circle class="w10apw-1" cx="32.07" cy="114" r="16.05"/><path class="w10apw-1" d="M250.47,161.32a24.29,24.29,0,0,0-21.89,13.76l-52.31-18a48.55,48.55,0,0,0-10.1-42.74l35.27-35.27a16,16,0,1,0-5.6-5.83l-35.38,35.38a48.49,48.49,0,0,0-42.78-10.16l-18-52.3a24.29,24.29,0,1,0-10.5,2.38,27,27,0,0,0,2.72-.15L110,101a48.55,48.55,0,0,0-18,76.06L52.64,216.46a32.44,32.44,0,1,0,5.68,5.75l39.43-39.43a48.56,48.56,0,0,0,76-18l52.62,18.09a24.28,24.28,0,1,0,24.12-21.55Z"/><path class="w10apw-1" d="M438.76,29.11h-7.92L415.33,89.17c-1,4-1.76,8.25-1.76,8.25h-.22c-.11,0-.66-4.29-1.76-8.25L395.31,29.11h-7.26L371.77,89.17c-1.1,4-1.65,8.25-1.76,8.25h-.22S369,93.13,368,89.17l-15-60.06h-7.92l20,77.33h9.13L389,52c1.32-5,2.53-11.55,2.53-11.55h.22S393,47,394.32,52l14.74,54.45h9.13Z"/><rect class="w10apw-1" x="451.85" y="51.11" width="7.48" height="55.33"/><rect class="w10apw-1" x="451.63" y="29.11" width="7.81" height="9.35"/><path class="w10apw-1" d="M506.85,49.79a23.55,23.55,0,0,0-22.11,14h-.22s.22-2,.22-4.4V51.11h-7.37v55.33h7.48V79.93a27.36,27.36,0,0,1,.88-7.48,21,21,0,0,1,20.13-15.62c10.67,0,12,7.7,12,16.39v33.22h7.48V71.24C525.33,57.6,520.49,49.79,506.85,49.79Z"/><path class="w10apw-1" d="M581.87,56.06a39.92,39.92,0,0,0,.22,4.18h-.22s-4.62-10.45-18-10.45C549.31,49.79,539,61.23,539,78.72c0,17.16,9.24,29,24.09,29,14.52,0,19-11.11,19-11.11h.22a30.94,30.94,0,0,0-.22,4v5.83h7.26V29.11h-7.48Zm-17.71,45c-10.34,0-17.49-8.69-17.49-22.33,0-14,8-22.22,17.82-22.22,11.88,0,17.6,11,17.6,22.22C582.09,94.45,573.4,101.05,564.16,101.05Z"/><path class="w10apw-1" d="M632.58,107.76A28.9,28.9,0,0,0,661.84,78.5c0-16.39-13.09-28.71-29.26-28.71S603.32,62.11,603.32,78.5A28.9,28.9,0,0,0,632.58,107.76Zm0-51.15A21.46,21.46,0,0,1,654.14,78.5c0,12.87-9.68,22.55-21.56,22.55S611,91.37,611,78.5A21.46,21.46,0,0,1,632.58,56.61Z"/><path class="w10apw-1" d="M695.5,106.44,709,67.06c.88-2.75,1.65-5.94,1.65-5.94h.22s.77,3.19,1.76,5.94l13.53,39.38h8.14L753,51.11h-7.92L731.69,92.36c-.88,2.75-1.65,5.94-1.65,5.94h-.22s-.77-3.3-1.65-5.94l-13.64-41h-7.37l-13.64,41c-.88,2.64-1.65,5.94-1.65,5.94h-.22s-.77-3.3-1.65-5.94L676.58,51.11h-7.92l18.7,55.33Z"/><path class="w10apw-1" d="M780,101.05a23.74,23.74,0,0,1-16.5-6.71l-4.07,5.39s7,8,20.46,8c11.11,0,18.92-6.49,18.92-15.51,0-18.26-29.81-15-29.81-27.17,0-6.16,5.39-8.58,11-8.58,9.13,0,13.86,5.06,13.86,5.06l3.41-5.72s-5.39-6.05-17-6.05c-10,0-18.92,5.39-18.92,15.29,0,18,29.81,15.07,29.81,27.17C791.09,98.08,785.92,101.05,780,101.05Z"/><path class="w10apw-1" d="M864.24,29.11h-7L839.71,46.49l4.83,4.95,8.25-8.25a18.47,18.47,0,0,0,3.85-4.62h.23s-.12,2.09-.12,4.29V99.62H839.38v6.82h41.91V99.62h-17Z"/><path class="w10apw-1" d="M918.9,27.79c-20.13,0-26.73,17.71-26.73,39.93,0,22.44,6.6,40,26.73,40s26.62-17.6,26.62-40C945.52,45.5,939,27.79,918.9,27.79Zm0,72.82c-14.74,0-18.81-14.41-18.81-32.89s4.07-32.78,18.81-32.78,18.7,14.41,18.7,32.78S933.53,100.61,918.9,100.61Z"/><path class="w10apw-1" d="M370.67,161.11l-28.38,77.33h8l8.8-24.64h31.13l8.91,24.64h8l-28.38-77.33Zm-9.35,46.09,10.34-28c1.32-3.63,3-10,3-10h.22s1.65,6.38,3,10l10.12,28Z"/><path class="w10apw-1" d="M443.27,233.05c-12.21,0-21.78-9.24-21.78-22.22,0-13.2,9.46-22.22,21.56-22.22a23.43,23.43,0,0,1,16.17,6.71l3.85-5.61s-6.71-7.92-20.24-7.92c-16.28,0-29,12-29,29s12.65,28.93,29,28.93c14.08,0,21.56-8.69,21.56-8.69L461,225.24A24.37,24.37,0,0,1,443.27,233.05Z"/><path class="w10apw-1" d="M503.66,233.05c-12.21,0-21.78-9.24-21.78-22.22,0-13.2,9.46-22.22,21.56-22.22a23.43,23.43,0,0,1,16.17,6.71l3.85-5.61s-6.71-7.92-20.24-7.92c-16.28,0-29,12-29,29s12.65,28.93,29,28.93c14.08,0,21.56-8.69,21.56-8.69l-3.41-5.83A24.37,24.37,0,0,1,503.66,233.05Z"/><path class="w10apw-1" d="M561.85,181.79c-15,0-27.28,10.89-27.28,29,0,17,12.43,28.93,28.93,28.93a31.71,31.71,0,0,0,20.46-7.7l-3.41-5.72a25.72,25.72,0,0,1-16.83,6.71c-11.44,0-21.12-7.7-21.45-21.89h42.46s.22-2.53.22-3.85C585,193.56,577.14,181.79,561.85,181.79ZM542.6,205c1.76-11.11,9.79-16.94,19-16.94,8.25,0,15.29,5.39,15.73,16.94Z"/><path class="w10apw-1" d="M606.18,223.7V161.11H598.7v64.24c0,12.1,8.14,13.53,12.76,13.53a18.94,18.94,0,0,0,2.75-.22V232a17,17,0,0,1-1.87.11C609.48,232.06,606.18,231,606.18,223.7Z"/><path class="w10apw-1" d="M649.85,181.79c-15,0-27.28,10.89-27.28,29,0,17,12.43,28.93,28.93,28.93a31.71,31.71,0,0,0,20.46-7.7l-3.41-5.72a25.72,25.72,0,0,1-16.83,6.71c-11.44,0-21.12-7.7-21.45-21.89h42.46s.22-2.53.22-3.85C673,193.56,665.14,181.79,649.85,181.79ZM630.6,205c1.76-11.11,9.79-16.94,19-16.94,8.25,0,15.29,5.39,15.73,16.94Z"/><path class="w10apw-1" d="M694.62,197.3h-.22s.22-2,.22-4.4v-9.79h-7.37v55.33h7.48V215.12a36.5,36.5,0,0,1,1.54-10.78c2.42-8.14,8.25-14.3,16.06-14.3a18.94,18.94,0,0,1,2.75.22v-7.37a15,15,0,0,0-3-.33C703.42,182.56,697.26,188.94,694.62,197.3Z"/><path class="w10apw-1" d="M745.66,181.79c-12.43,0-19.69,6.27-19.69,6.27l3.52,5.72a26.94,26.94,0,0,1,15.62-5.28c7.92,0,13.75,3.63,13.75,14.3v1.43h-3.08c-9.57,0-33.88.44-33.88,19.14,0,11,9.57,16.39,18.81,16.39a20,20,0,0,0,18.48-12h.22a43.74,43.74,0,0,0-.22,4.62v6.05h7.15V203C766.34,189.16,759,181.79,745.66,181.79Zm13.2,31c0,9.57-6.38,20.57-16.94,20.57-8.25,0-12.32-5.28-12.32-10.45,0-12.21,17.38-12.54,26.07-12.54h3.19Z"/><path class="w10apw-1" d="M792.85,217.54V190h13.86v-6.27H792.85v-16h-7.37v16h-7.37V190h7.26v28.27c0,18.48,12.87,20.57,19.25,20.57a19.69,19.69,0,0,0,3.19-.22V232a12.84,12.84,0,0,1-2.53.22C801.1,232.17,792.85,230.52,792.85,217.54Z"/><path class="w10apw-1" d="M845.32,181.79c-16.17,0-29.26,12.32-29.26,28.71a29.26,29.26,0,1,0,58.52,0C874.58,194.11,861.49,181.79,845.32,181.79Zm0,51.26c-11.88,0-21.56-9.68-21.56-22.55a21.56,21.56,0,1,1,43.12,0C866.88,223.37,857.2,233.05,845.32,233.05Z"/><path class="w10apw-1" d="M895.92,197.3h-.22s.22-2,.22-4.4v-9.79h-7.37v55.33H896V215.12a36.5,36.5,0,0,1,1.54-10.78c2.42-8.14,8.25-14.3,16.06-14.3a18.94,18.94,0,0,1,2.75.22v-7.37a15,15,0,0,0-3-.33C904.72,182.56,898.56,188.94,895.92,197.3Z"/><path class="w10apw-1" d="M986.22,161.11H959.49v77.33h7.59V208.08h19.14c13.86,0,23.87-9.24,23.87-23.65S1000.08,161.11,986.22,161.11Zm-1,40.15H967.08V167.93h18.26c10.23,0,16.94,6,16.94,16.5S995.57,201.26,985.23,201.26Z"/><path class="w10apw-1" d="M1030.44,197.3h-.22s.22-2,.22-4.4v-9.79h-7.37v55.33h7.48V215.12a36.5,36.5,0,0,1,1.54-10.78c2.42-8.14,8.25-14.3,16.06-14.3a18.94,18.94,0,0,1,2.75.22v-7.37a15,15,0,0,0-3-.33C1039.24,182.56,1033.08,188.94,1030.44,197.3Z"/><path class="w10apw-1" d="M1086.76,181.79c-16.17,0-29.26,12.32-29.26,28.71a29.26,29.26,0,1,0,58.52,0C1116,194.11,1102.93,181.79,1086.76,181.79Zm0,51.26c-11.88,0-21.56-9.68-21.56-22.55a21.56,21.56,0,1,1,43.12,0C1108.32,223.37,1098.64,233.05,1086.76,233.05Z"/><path class="w10apw-1" d="M1168.71,189.16a12.63,12.63,0,0,0,.11,1.87h-.22s-3.63-9.24-18.26-9.24c-14.85,0-24,11.33-24,27.94s9.79,28.38,24.64,28.38c8.58,0,14.19-3.52,17.49-9.68h.22a38.21,38.21,0,0,0-.22,4v5.06c0,12.32-8.58,17.38-19.36,17.38a34,34,0,0,1-15-3.85l-2.86,6.16a40.55,40.55,0,0,0,18.15,4.4c13.53,0,26.51-6.82,26.51-24.42v-54h-7.26Zm-16.5,42.24c-11,0-18.15-8.58-18.15-21.78s6.27-21,17-21c9.79,0,17.49,4.95,17.49,21.12S1160.9,231.4,1152.21,231.4Z"/><path class="w10apw-1" d="M1201.38,197.3h-.22s.22-2,.22-4.4v-9.79H1194v55.33h7.48V215.12a36.5,36.5,0,0,1,1.54-10.78c2.42-8.14,8.25-14.3,16.06-14.3a18.94,18.94,0,0,1,2.75.22v-7.37a15,15,0,0,0-3-.33C1210.18,182.56,1204,188.94,1201.38,197.3Z"/><path class="w10apw-1" d="M1252.42,181.79c-12.43,0-19.69,6.27-19.69,6.27l3.52,5.72a26.94,26.94,0,0,1,15.62-5.28c7.92,0,13.75,3.63,13.75,14.3v1.43h-3.08c-9.57,0-33.88.44-33.88,19.14,0,11,9.57,16.39,18.81,16.39a20,20,0,0,0,18.48-12h.22a43.74,43.74,0,0,0-.22,4.62v6.05h7.15V203C1273.1,189.16,1265.73,181.79,1252.42,181.79Zm13.2,31c0,9.57-6.38,20.57-16.94,20.57-8.25,0-12.32-5.28-12.32-10.45,0-12.21,17.38-12.54,26.07-12.54h3.19Z"/><path class="w10apw-1" d="M1355.49,181.79a22.49,22.49,0,0,0-20.35,13.86h-.22c-1.65-9.13-6.93-13.86-17.16-13.86-8.58,0-17.38,6.49-20,14h-.22s.22-2,.22-4.4v-8.25h-7.37v55.33h7.48V212.26a32.22,32.22,0,0,1,.77-7.37c2.31-8.47,9.13-16.28,18.15-16.28,10.45,0,11.66,8.14,11.66,16.5v33.33h7.48V212.26a26.35,26.35,0,0,1,1-8c2.09-8.14,9-15.62,17.49-15.62,10.12,0,12,7.48,12,16.5v33.33h7.48v-35.2C1373.86,189.6,1368.91,181.79,1355.49,181.79Z"/></g></g></svg>
