<svg xmlns="http://www.w3.org/2000/svg" viewBox="0 0 1031.57 641.91"><defs><style>.w10apvw-1{fill:#fff;}</style></defs><title>w10ap-logo-v-white</title><g id="Layer_2" data-name="Layer 2"><g id="Layer_1-2" data-name="Layer 1"><circle class="w10apvw-1" cx="389.49" cy="140.35" r="19.5"/><circle class="w10apvw-1" cx="566.49" cy="297.35" r="19.5"/><path class="w10apvw-1" d="M653.52,196a29.5,29.5,0,0,0-26.66,16.87L563.33,191a59,59,0,0,0-12.06-51.88L593.62,96.8A19.36,19.36,0,1,0,587.54,89l-43.18,43.18a58.94,58.94,0,0,0-52.1-12.54L470.35,56.07A29.51,29.51,0,1,0,457.52,59a29.07,29.07,0,0,0,3.38-.2l22,63.89a59,59,0,0,0-21.74,92.64L413.58,263a39.5,39.5,0,1,0,6.65,7.24l47.94-47.94a59,59,0,0,0,92-21.9l64,22a30,30,0,0,0-.17,3.16,29.5,29.5,0,1,0,29.5-29.5Z"/><path class="w10apvw-1" d="M263.72,420.81h.22s1.21,6.6,2.53,11.55l14.74,54.45h9.13l20.57-77.33H303l-15.51,60.06c-1,4-1.76,8.25-1.76,8.25h-.22c-.11,0-.66-4.29-1.76-8.25l-16.28-60.06H260.2l-16.28,60.06c-1.1,4-1.65,8.25-1.76,8.25h-.22s-.77-4.29-1.76-8.25l-15-60.06H217.3l20,77.33h9.13l14.74-54.45C262.51,427.41,263.72,420.81,263.72,420.81Z"/><rect class="w10apvw-1" x="324" y="431.48" width="7.48" height="55.33"/><rect class="w10apvw-1" x="323.78" y="409.48" width="7.81" height="9.35"/><path class="w10apvw-1" d="M390,453.59v33.22h7.48v-35.2c0-13.64-4.84-21.45-18.48-21.45a23.55,23.55,0,0,0-22.11,14h-.22s.22-2,.22-4.4v-8.25h-7.37v55.33H357V460.3a27.36,27.36,0,0,1,.88-7.48A21,21,0,0,1,378,437.2C388.68,437.2,390,444.9,390,453.59Z"/><path class="w10apvw-1" d="M454.24,477h.22a30.94,30.94,0,0,0-.22,4v5.83h7.26V409.48H454v26.95a39.92,39.92,0,0,0,.22,4.18H454s-4.62-10.45-18-10.45c-14.52,0-24.86,11.44-24.86,28.93,0,17.16,9.24,29,24.09,29C449.73,488.13,454.24,477,454.24,477Zm-17.93,4.4c-10.34,0-17.49-8.69-17.49-22.33,0-14,8-22.22,17.82-22.22,11.88,0,17.6,11,17.6,22.22C454.24,474.82,445.55,481.42,436.31,481.42Z"/><path class="w10apvw-1" d="M504.73,430.16c-16.17,0-29.26,12.32-29.26,28.71a29.26,29.26,0,0,0,58.52,0C534,442.48,520.9,430.16,504.73,430.16Zm0,51.26c-11.88,0-21.56-9.68-21.56-22.55a21.56,21.56,0,1,1,43.12,0C526.29,471.74,516.61,481.42,504.73,481.42Z"/><path class="w10apvw-1" d="M617.26,431.48l-13.42,41.25c-.88,2.75-1.65,5.94-1.65,5.94H602s-.77-3.3-1.65-5.94l-13.64-41h-7.37l-13.64,41c-.88,2.64-1.65,5.94-1.65,5.94h-.22s-.77-3.3-1.65-5.94l-13.42-41.25h-7.92l18.7,55.33h8.14l13.53-39.38c.88-2.75,1.65-5.94,1.65-5.94h.22s.77,3.19,1.76,5.94l13.53,39.38h8.14l18.7-55.33Z"/><path class="w10apvw-1" d="M641.13,445.45c0-6.16,5.38-8.58,11-8.58,9.12,0,13.86,5.06,13.86,5.06l3.41-5.72s-5.4-6-17.06-6c-10,0-18.92,5.39-18.92,15.29,0,18,29.82,15.07,29.82,27.17,0,5.83-5.17,8.8-11.11,8.8a23.74,23.74,0,0,1-16.5-6.71l-4.08,5.39s7,8,20.46,8c11.12,0,18.93-6.49,18.93-15.51C670.94,454.36,641.13,457.66,641.13,445.45Z"/><path class="w10apvw-1" d="M753.43,480h-17V409.48h-7l-17.49,17.38,4.84,4.95,8.25-8.25a18.8,18.8,0,0,0,3.85-4.62H729s-.11,2.09-.11,4.29V480H711.52v6.82h41.91Z"/><path class="w10apvw-1" d="M817.67,448.09c0-22.22-6.49-39.93-26.62-39.93s-26.73,17.71-26.73,39.93c0,22.44,6.6,40,26.73,40S817.67,470.53,817.67,448.09Zm-45.43,0c0-18.37,4.07-32.78,18.81-32.78s18.7,14.41,18.7,32.78S805.68,481,791.05,481,772.24,466.57,772.24,448.09Z"/><path class="w10apvw-1" d="M28.38,541.48,0,618.81H8l8.8-24.64H48l8.91,24.64h8L36.52,541.48ZM19,587.57l10.34-28.05c1.32-3.63,3-10,3-10h.22s1.65,6.38,3,10l10.12,28.05Z"/><path class="w10apvw-1" d="M101,613.42c-12.21,0-21.78-9.24-21.78-22.22C79.2,578,88.66,569,100.76,569a23.43,23.43,0,0,1,16.17,6.71l3.85-5.61s-6.71-7.92-20.24-7.92c-16.28,0-29,12-29,29s12.65,28.93,29,28.93c14.08,0,21.56-8.69,21.56-8.69l-3.41-5.83A24.37,24.37,0,0,1,101,613.42Z"/><path class="w10apvw-1" d="M161.37,613.42c-12.21,0-21.78-9.24-21.78-22.22,0-13.2,9.46-22.22,21.56-22.22a23.43,23.43,0,0,1,16.17,6.71l3.85-5.61s-6.71-7.92-20.24-7.92c-16.28,0-29,12-29,29s12.65,28.93,29,28.93c14.08,0,21.56-8.69,21.56-8.69l-3.41-5.83A24.37,24.37,0,0,1,161.37,613.42Z"/><path class="w10apvw-1" d="M219.56,562.16c-15,0-27.28,10.89-27.28,29,0,17,12.43,28.93,28.93,28.93a31.71,31.71,0,0,0,20.46-7.7l-3.41-5.72a25.72,25.72,0,0,1-16.83,6.71c-11.44,0-21.12-7.7-21.45-21.89h42.46s.22-2.53.22-3.85C242.66,573.93,234.85,562.16,219.56,562.16Zm-19.25,23.21c1.76-11.11,9.79-16.94,19-16.94,8.25,0,15.29,5.39,15.73,16.94Z"/><path class="w10apvw-1" d="M263.89,604.07V541.48h-7.48v64.24c0,12.1,8.14,13.53,12.76,13.53a18.94,18.94,0,0,0,2.75-.22v-6.71a17,17,0,0,1-1.87.11C267.19,612.43,263.89,611.33,263.89,604.07Z"/><path class="w10apvw-1" d="M307.56,562.16c-15,0-27.28,10.89-27.28,29,0,17,12.43,28.93,28.93,28.93a31.71,31.71,0,0,0,20.46-7.7l-3.41-5.72a25.72,25.72,0,0,1-16.83,6.71c-11.44,0-21.12-7.7-21.45-21.89h42.46s.22-2.53.22-3.85C330.66,573.93,322.85,562.16,307.56,562.16Zm-19.25,23.21c1.76-11.11,9.79-16.94,19-16.94,8.25,0,15.29,5.39,15.73,16.94Z"/><path class="w10apvw-1" d="M352.33,577.67h-.22s.22-2,.22-4.4v-9.79H345v55.33h7.48V595.49A36.5,36.5,0,0,1,354,584.71c2.42-8.14,8.25-14.3,16.06-14.3a18.94,18.94,0,0,1,2.75.22v-7.37a15,15,0,0,0-3-.33C361.13,562.93,355,569.31,352.33,577.67Z"/><path class="w10apvw-1" d="M403.37,562.16c-12.43,0-19.69,6.27-19.69,6.27l3.52,5.72a26.94,26.94,0,0,1,15.62-5.28c7.92,0,13.75,3.63,13.75,14.3v1.43h-3.08c-9.57,0-33.88.44-33.88,19.14,0,11,9.57,16.39,18.81,16.39a20,20,0,0,0,18.48-12h.22a43.74,43.74,0,0,0-.22,4.62v6h7.15V583.39C424.05,569.53,416.68,562.16,403.37,562.16Zm13.2,31c0,9.57-6.38,20.57-16.94,20.57-8.25,0-12.32-5.28-12.32-10.45,0-12.21,17.38-12.54,26.07-12.54h3.19Z"/><path class="w10apvw-1" d="M450.56,597.91v-27.5h13.86v-6.27H450.56V548.19h-7.37v15.95h-7.38v6.27h7.26v28.27c0,18.48,12.87,20.57,19.26,20.57a19.69,19.69,0,0,0,3.19-.22v-6.71a13,13,0,0,1-2.54.22C458.81,612.54,450.56,610.89,450.56,597.91Z"/><path class="w10apvw-1" d="M503,562.16c-16.17,0-29.26,12.32-29.26,28.71a29.26,29.26,0,0,0,58.52,0C532.28,574.48,519.19,562.16,503,562.16Zm0,51.26c-11.88,0-21.56-9.68-21.56-22.55a21.56,21.56,0,1,1,43.12,0C524.58,603.74,514.9,613.42,503,613.42Z"/><path class="w10apvw-1" d="M553.62,577.67h-.22s.22-2,.22-4.4v-9.79h-7.37v55.33h7.48V595.49a36.5,36.5,0,0,1,1.54-10.78c2.42-8.14,8.25-14.3,16.06-14.3a18.94,18.94,0,0,1,2.75.22v-7.37a15,15,0,0,0-3-.33C562.42,562.93,556.26,569.31,553.62,577.67Z"/><path class="w10apvw-1" d="M643.93,541.48H617.2v77.33h7.59V588.45h19.14c13.86,0,23.87-9.24,23.87-23.65S657.79,541.48,643.93,541.48Zm-1,40.15H624.79V548.3h18.26c10.23,0,16.94,6.05,16.94,16.5S653.28,581.63,642.94,581.63Z"/><path class="w10apvw-1" d="M688.15,577.67h-.22s.22-2,.22-4.4v-9.79h-7.37v55.33h7.48V595.49a36.5,36.5,0,0,1,1.54-10.78c2.42-8.14,8.25-14.3,16.06-14.3a18.94,18.94,0,0,1,2.75.22v-7.37a15,15,0,0,0-3-.33C697,562.93,690.79,569.31,688.15,577.67Z"/><path class="w10apvw-1" d="M744.47,562.16c-16.17,0-29.26,12.32-29.26,28.71a29.26,29.26,0,1,0,58.52,0C773.73,574.48,760.64,562.16,744.47,562.16Zm0,51.26c-11.88,0-21.56-9.68-21.56-22.55a21.56,21.56,0,1,1,43.12,0C766,603.74,756.35,613.42,744.47,613.42Z"/><path class="w10apvw-1" d="M826.42,569.53a12.63,12.63,0,0,0,.11,1.87h-.22s-3.63-9.24-18.26-9.24c-14.85,0-24,11.33-24,27.94s9.79,28.38,24.64,28.38c8.58,0,14.19-3.52,17.49-9.68h.22a38.21,38.21,0,0,0-.22,4v5.06c0,12.32-8.58,17.38-19.36,17.38a34,34,0,0,1-15-3.85L789,637.51a40.55,40.55,0,0,0,18.15,4.4c13.53,0,26.51-6.82,26.51-24.42v-54h-7.26Zm-16.5,42.24c-11,0-18.15-8.58-18.15-21.78s6.27-21,17.05-21c9.79,0,17.49,4.95,17.49,21.12S818.61,611.77,809.92,611.77Z"/><path class="w10apvw-1" d="M859.09,577.67h-.22s.22-2,.22-4.4v-9.79h-7.37v55.33h7.48V595.49a36.5,36.5,0,0,1,1.54-10.78c2.42-8.14,8.25-14.3,16.06-14.3a18.94,18.94,0,0,1,2.75.22v-7.37a15,15,0,0,0-3-.33C867.89,562.93,861.73,569.31,859.09,577.67Z"/><path class="w10apvw-1" d="M910.13,562.16c-12.43,0-19.69,6.27-19.69,6.27l3.52,5.72a26.94,26.94,0,0,1,15.62-5.28c7.92,0,13.75,3.63,13.75,14.3v1.43h-3.08c-9.57,0-33.88.44-33.88,19.14,0,11,9.57,16.39,18.81,16.39a20,20,0,0,0,18.48-12h.22a43.74,43.74,0,0,0-.22,4.62v6h7.15V583.39C930.81,569.53,923.44,562.16,910.13,562.16Zm13.2,31c0,9.57-6.38,20.57-16.94,20.57-8.25,0-12.32-5.28-12.32-10.45,0-12.21,17.38-12.54,26.07-12.54h3.19Z"/><path class="w10apvw-1" d="M1013.2,562.16A22.5,22.5,0,0,0,992.84,576h-.21c-1.66-9.13-6.93-13.86-17.17-13.86-8.58,0-17.38,6.49-20,14h-.22s.22-2,.22-4.4v-8.25h-7.36v55.33h7.47V592.63a31.66,31.66,0,0,1,.78-7.37c2.3-8.47,9.13-16.28,18.14-16.28,10.45,0,11.66,8.14,11.66,16.5v33.33h7.49V592.63a26,26,0,0,1,1-8c2.09-8.14,9-15.62,17.48-15.62,10.12,0,12,7.48,12,16.5v33.33h7.49v-35.2C1031.57,570,1026.62,562.16,1013.2,562.16Z"/></g></g></svg>
