<?xml version="1.0" encoding="utf-8"?>
<!-- Generator: Adobe Illustrator 23.0.2, SVG Export Plug-In . SVG Version: 6.00 Build 0)  -->
<svg version="1.1" id="Layer_1" xmlns="http://www.w3.org/2000/svg" xmlns:xlink="http://www.w3.org/1999/xlink" x="0px" y="0px"
	 viewBox="0 0 44.1 44.2" style="enable-background:new 0 0 44.1 44.2;" xml:space="preserve">
<style type="text/css">
	.st0{fill:url(#SVGID_1_);}
	.st1{fill:url(#SVGID_2_);}
	.st2{fill:url(#SVGID_3_);}
	.st3{fill:url(#SVGID_4_);}
	.st4{fill:url(#SVGID_5_);}
	.st5{fill:url(#SVGID_6_);}
	.st6{fill:url(#SVGID_7_);}
	.st7{fill:url(#SVGID_8_);}
	.st8{fill:url(#SVGID_9_);}
	.st9{fill:url(#SVGID_10_);}
	.st10{fill:url(#SVGID_11_);}
</style>
<g>
	<g id="white-color-vm">
		<g id="Layer_1-2">
			
				<linearGradient id="SVGID_1_" gradientUnits="userSpaceOnUse" x1="5130.5215" y1="-2913.2302" x2="5136.2031" y2="-2914.7769" gradientTransform="matrix(0.71 0.7 0.7 -0.71 -1583.7966 -5642.188)">
				<stop  offset="1.000000e-02" style="stop-color:#F7ED41"/>
				<stop  offset="6.000000e-02" style="stop-color:#F8DE3C"/>
				<stop  offset="0.21" style="stop-color:#F3B23A"/>
				<stop  offset="0.37" style="stop-color:#F28F39"/>
				<stop  offset="0.53" style="stop-color:#F07339"/>
				<stop  offset="0.69" style="stop-color:#EE5E39"/>
				<stop  offset="0.84" style="stop-color:#ED543A"/>
				<stop  offset="1" style="stop-color:#EE503A"/>
			</linearGradient>
			<circle class="st0" cx="22" cy="21.8" r="3"/>
			
				<linearGradient id="SVGID_2_" gradientUnits="userSpaceOnUse" x1="2099.0505" y1="2638.8625" x2="2101.7769" y2="2638.114" gradientTransform="matrix(-0.68 -0.73 -0.73 0.68 3358.2356 -255.9097)">
				<stop  offset="1.000000e-02" style="stop-color:#F7ED41"/>
				<stop  offset="6.000000e-02" style="stop-color:#F8DE3C"/>
				<stop  offset="0.21" style="stop-color:#F3B23A"/>
				<stop  offset="0.37" style="stop-color:#F28F39"/>
				<stop  offset="0.53" style="stop-color:#F07339"/>
				<stop  offset="0.69" style="stop-color:#EE5E39"/>
				<stop  offset="0.84" style="stop-color:#ED543A"/>
				<stop  offset="1" style="stop-color:#EE503A"/>
			</linearGradient>
			<circle class="st1" cx="2.6" cy="2.5" r="1.4"/>
			
				<linearGradient id="SVGID_3_" gradientUnits="userSpaceOnUse" x1="6460.6211" y1="-1431.3525" x2="6463.354" y2="-1432.0946" gradientTransform="matrix(-0.68 0.73 -0.73 -0.68 3358.0359 -5661.4399)">
				<stop  offset="1.000000e-02" style="stop-color:#F7ED41"/>
				<stop  offset="6.000000e-02" style="stop-color:#F8DE3C"/>
				<stop  offset="0.21" style="stop-color:#F3B23A"/>
				<stop  offset="0.37" style="stop-color:#F28F39"/>
				<stop  offset="0.53" style="stop-color:#F07339"/>
				<stop  offset="0.69" style="stop-color:#EE5E39"/>
				<stop  offset="0.84" style="stop-color:#ED543A"/>
				<stop  offset="1" style="stop-color:#EE503A"/>
			</linearGradient>
			<circle class="st2" cx="2.6" cy="41.7" r="1.4"/>
			
				<linearGradient id="SVGID_4_" gradientUnits="userSpaceOnUse" x1="834.0045" y1="1275.366" x2="836.7371" y2="1274.619" gradientTransform="matrix(0.68 -0.73 0.73 0.68 -1458.361 -252.5997)">
				<stop  offset="1.000000e-02" style="stop-color:#F7ED41"/>
				<stop  offset="6.000000e-02" style="stop-color:#F8DE3C"/>
				<stop  offset="0.21" style="stop-color:#F3B23A"/>
				<stop  offset="0.37" style="stop-color:#F28F39"/>
				<stop  offset="0.53" style="stop-color:#F07339"/>
				<stop  offset="0.69" style="stop-color:#EE5E39"/>
				<stop  offset="0.84" style="stop-color:#ED543A"/>
				<stop  offset="1" style="stop-color:#EE503A"/>
			</linearGradient>
			<circle class="st3" cx="41.5" cy="2.5" r="1.4"/>
			
				<linearGradient id="SVGID_5_" gradientUnits="userSpaceOnUse" x1="5202.7632" y1="-2795.0066" x2="5205.4893" y2="-2795.7485" gradientTransform="matrix(0.68 0.73 0.73 -0.68 -1458.361 -5661.4399)">
				<stop  offset="1.000000e-02" style="stop-color:#F7ED41"/>
				<stop  offset="6.000000e-02" style="stop-color:#F8DE3C"/>
				<stop  offset="0.21" style="stop-color:#F3B23A"/>
				<stop  offset="0.37" style="stop-color:#F28F39"/>
				<stop  offset="0.53" style="stop-color:#F07339"/>
				<stop  offset="0.69" style="stop-color:#EE5E39"/>
				<stop  offset="0.84" style="stop-color:#ED543A"/>
				<stop  offset="1" style="stop-color:#EE503A"/>
			</linearGradient>
			<circle class="st4" cx="41.5" cy="41.7" r="1.4"/>
			
				<linearGradient id="SVGID_6_" gradientUnits="userSpaceOnUse" x1="17.7078" y1="-965.6522" x2="26.4203" y2="-980.7386" gradientTransform="matrix(1 0 0 -1 0 -951.4594)">
				<stop  offset="1.000000e-02" style="stop-color:#F7ED41"/>
				<stop  offset="6.000000e-02" style="stop-color:#F8DE3C"/>
				<stop  offset="0.21" style="stop-color:#F3B23A"/>
				<stop  offset="0.37" style="stop-color:#F28F39"/>
				<stop  offset="0.53" style="stop-color:#F07339"/>
				<stop  offset="0.69" style="stop-color:#EE5E39"/>
				<stop  offset="0.84" style="stop-color:#ED543A"/>
				<stop  offset="1" style="stop-color:#EE503A"/>
			</linearGradient>
			<path class="st5" d="M30.8,21.2c-0.1-1.9-0.9-3.7-2.1-5.2c-0.2-0.3-0.5-0.6-0.8-0.8c-1.5-1.2-3.3-2-5.2-2.1h-1.2
				c-1.9,0.1-3.7,0.9-5.2,2.1c-0.3,0.2-0.6,0.5-0.8,0.8c-1.2,1.5-2,3.3-2.1,5.2v1.2c0.1,1.9,0.8,3.7,2,5.2c0.2,0.3,0.5,0.6,0.8,0.8
				c1.5,1.2,3.3,2,5.2,2.1h1.2c1.9-0.1,3.7-0.9,5.2-2.1c0.3-0.2,0.6-0.5,0.8-0.8c1.2-1.5,2-3.3,2.1-5.2v-0.6
				C30.8,21.6,30.8,21.4,30.8,21.2z M22,29.3c-4.2,0-7.6-3.4-7.6-7.6s3.4-7.6,7.6-7.6s7.6,3.4,7.6,7.6c0,0,0,0,0,0
				C29.6,25.9,26.2,29.3,22,29.3C22.1,29.3,22.1,29.3,22,29.3z"/>
			
				<linearGradient id="SVGID_7_" gradientUnits="userSpaceOnUse" x1="13.4989" y1="-958.3386" x2="30.6464" y2="-988.0387" gradientTransform="matrix(1 0 0 -1 0 -951.4594)">
				<stop  offset="1.000000e-02" style="stop-color:#F7ED41"/>
				<stop  offset="6.000000e-02" style="stop-color:#F8DE3C"/>
				<stop  offset="0.21" style="stop-color:#F3B23A"/>
				<stop  offset="0.37" style="stop-color:#F28F39"/>
				<stop  offset="0.53" style="stop-color:#F07339"/>
				<stop  offset="0.69" style="stop-color:#EE5E39"/>
				<stop  offset="0.84" style="stop-color:#ED543A"/>
				<stop  offset="1" style="stop-color:#EE503A"/>
			</linearGradient>
			<path class="st6" d="M39.2,20.7L39.2,20.7c-0.2-3.8-1.7-7.3-4.2-10.2c-0.5-0.6-1-1.1-1.6-1.6c-2.8-2.4-6.2-3.9-9.9-4.2h-0.3
				c-0.4,0-0.7-0.1-1.1-0.1c-0.4,0-0.7,0-1.1,0.1h-0.3C17,5,13.5,6.4,10.8,8.9c-0.6,0.5-1.1,1-1.6,1.6c-2.5,2.8-4,6.4-4.2,10.2l0,0
				c0,0.4-0.1,0.7-0.1,1.1c0,0.4,0,0.7,0.1,1.1L5,23.4c0.4,3.6,1.8,7,4.2,9.7c0.5,0.6,1,1.1,1.6,1.6c2.8,2.4,6.3,3.9,10,4.2h0.3
				c0.7,0.1,1.5,0.1,2.3,0h0.3c3.7-0.3,7.1-1.8,9.9-4.2c0.6-0.5,1.1-1,1.6-1.6c2.4-2.7,3.9-6.1,4.2-9.7c0-0.2,0.1-0.4,0.1-0.6
				c0-0.4,0.1-0.7,0.1-1.1C39.5,21.4,39.2,21,39.2,20.7z M23.4,36.6c-0.5,0.1-0.9,0.1-1.4,0.1c-0.5,0-0.9,0-1.4-0.1
				c-7-0.7-12.6-6.1-13.4-13.2c-0.1-0.6-0.1-1.1-0.1-1.7c0-0.4,0-0.7,0.1-1.1c0.6-7.3,6.3-13.1,13.5-13.7c0.5-0.1,0.9-0.1,1.4-0.1
				c0.5,0,0.9,0,1.4,0.1c7.2,0.7,12.9,6.5,13.4,13.7c0,0.4,0.1,0.7,0.1,1.1c0,0.6,0,1.1-0.1,1.7C36.1,30.4,30.5,35.9,23.4,36.6
				L23.4,36.6z"/>
			
				<linearGradient id="SVGID_8_" gradientUnits="userSpaceOnUse" x1="19.7361" y1="-953.1148" x2="24.368" y2="-961.1461" gradientTransform="matrix(1 0 0 -1 0 -951.4594)">
				<stop  offset="1.000000e-02" style="stop-color:#F7ED41"/>
				<stop  offset="6.000000e-02" style="stop-color:#F8DE3C"/>
				<stop  offset="0.21" style="stop-color:#F3B23A"/>
				<stop  offset="0.37" style="stop-color:#F28F39"/>
				<stop  offset="0.53" style="stop-color:#F07339"/>
				<stop  offset="0.69" style="stop-color:#EE5E39"/>
				<stop  offset="0.84" style="stop-color:#ED543A"/>
				<stop  offset="1" style="stop-color:#EE503A"/>
			</linearGradient>
			<rect x="20.7" y="1.1" class="st7" width="2.8" height="9.1"/>
			
				<linearGradient id="SVGID_9_" gradientUnits="userSpaceOnUse" x1="-338.1167" y1="9166.0293" x2="-344.1494" y2="9162.5439" gradientTransform="matrix(6.123234e-17 -1 -1 -6.123234e-17 9169.9473 -319.0825)">
				<stop  offset="1.000000e-02" style="stop-color:#F7ED41"/>
				<stop  offset="6.000000e-02" style="stop-color:#F8DE3C"/>
				<stop  offset="0.21" style="stop-color:#F3B23A"/>
				<stop  offset="0.37" style="stop-color:#F28F39"/>
				<stop  offset="0.53" style="stop-color:#F07339"/>
				<stop  offset="0.69" style="stop-color:#EE5E39"/>
				<stop  offset="0.84" style="stop-color:#ED543A"/>
				<stop  offset="1" style="stop-color:#EE503A"/>
			</linearGradient>
			<rect x="1.1" y="20.7" class="st8" width="9.1" height="2.8"/>
			
				<linearGradient id="SVGID_10_" gradientUnits="userSpaceOnUse" x1="9782.5996" y1="9523.4463" x2="9777.9658" y2="9531.4736" gradientTransform="matrix(-1 0 0 1 9802.3252 -9489.0303)">
				<stop  offset="1.000000e-02" style="stop-color:#F7ED41"/>
				<stop  offset="6.000000e-02" style="stop-color:#F8DE3C"/>
				<stop  offset="0.21" style="stop-color:#F3B23A"/>
				<stop  offset="0.37" style="stop-color:#F28F39"/>
				<stop  offset="0.53" style="stop-color:#F07339"/>
				<stop  offset="0.69" style="stop-color:#EE5E39"/>
				<stop  offset="0.84" style="stop-color:#ED543A"/>
				<stop  offset="1" style="stop-color:#EE503A"/>
			</linearGradient>
			<rect x="20.7" y="33.9" class="st9" width="2.8" height="9.1"/>
			
				<linearGradient id="SVGID_11_" gradientUnits="userSpaceOnUse" x1="10140.4443" y1="-595.6859" x2="10146.4775" y2="-592.2032" gradientTransform="matrix(6.123234e-17 1 1 -6.123234e-17 632.377 -10121.418)">
				<stop  offset="1.000000e-02" style="stop-color:#F7ED41"/>
				<stop  offset="6.000000e-02" style="stop-color:#F8DE3C"/>
				<stop  offset="0.21" style="stop-color:#F3B23A"/>
				<stop  offset="0.37" style="stop-color:#F28F39"/>
				<stop  offset="0.53" style="stop-color:#F07339"/>
				<stop  offset="0.69" style="stop-color:#EE5E39"/>
				<stop  offset="0.84" style="stop-color:#ED543A"/>
				<stop  offset="1" style="stop-color:#EE503A"/>
			</linearGradient>
			<rect x="33.9" y="20.7" class="st10" width="9.1" height="2.8"/>
		</g>
	</g>
</g>
</svg>
