<svg xmlns="http://www.w3.org/2000/svg" viewBox="0 0 261.18 261.63"><defs><style>.cls-1{fill:#fff;}</style></defs><title>evolve-vm-icon-white</title><g id="Layer_2" data-name="Layer 2"><g id="white-color-vm"><g id="Layer_1-2" data-name="Layer 1-2"><circle class="cls-1" cx="130.59" cy="128.77" r="18.59"/><circle class="cls-1" cx="9.07" cy="8.62" r="8.62"/><circle class="cls-1" cx="9.07" cy="253.01" r="8.62"/><circle class="cls-1" cx="252.11" cy="8.62" r="8.62"/><circle class="cls-1" cx="252.11" cy="253.01" r="8.62"/><path class="cls-1" d="M185,125.15A56.44,56.44,0,0,0,171.85,93a25.87,25.87,0,0,0-5-5c-9.07-7.71-20.4-12.7-32.19-13.15h-7.26A56.34,56.34,0,0,0,95.22,88a26.15,26.15,0,0,0-5,5c-7.71,9.07-12.69,20.41-13.15,32.2v7.25a53,53,0,0,0,12.7,32.19,25.64,25.64,0,0,0,5,5c9.07,7.71,20.4,12.7,32.19,13.15h7.26a56.37,56.37,0,0,0,32.19-13.15,25.92,25.92,0,0,0,5-5c7.7-9.06,12.69-20.4,13.15-32.19v-3.63A10,10,0,0,0,185,125.15Zm-54.41,50.78a47.16,47.16,0,1,1,47.15-47.16A47.12,47.12,0,0,1,130.59,175.93Z"/><path class="cls-1" d="M237.6,122h0a106.16,106.16,0,0,0-26.3-63.48,103.21,103.21,0,0,0-10-10,107.86,107.86,0,0,0-61.66-26.3h-1.82c-2.26,0-4.53-.46-6.8-.46a33.82,33.82,0,0,0-6.8.46h-1.81a105,105,0,0,0-62.12,26.3,102.09,102.09,0,0,0-10,10A103.44,103.44,0,0,0,24,122h0c0,2.27-.45,4.54-.45,6.8a34.66,34.66,0,0,0,.45,6.81l.46,3.62a107,107,0,0,0,26.29,60.31,103.21,103.21,0,0,0,10,10,107.9,107.9,0,0,0,62.12,26.3h1.81a71.8,71.8,0,0,0,14.06,0h1.81a105,105,0,0,0,61.67-26.3,102,102,0,0,0,10-10,105.66,105.66,0,0,0,26.3-60.31c0-1.36.46-2.26.46-3.62,0-2.27.45-4.54.45-6.81S237.6,124.24,237.6,122Zm-98.4,99.3a54,54,0,0,1-8.61.46,54.16,54.16,0,0,1-8.62-.46A93.16,93.16,0,0,1,38.09,139.2a79.07,79.07,0,0,1-.46-10.43,33.87,33.87,0,0,1,.46-6.8,93.14,93.14,0,0,1,84.34-85.7,55.22,55.22,0,0,1,8.61-.45,52.48,52.48,0,0,1,8.62.45c44.89,4.54,80.71,40.36,83.88,85.7,0,2.27.45,4.54.45,6.8a80.81,80.81,0,0,1-.45,10.43C218.1,182.73,183.19,217.19,139.2,221.27Z"/><rect class="cls-1" x="121.97" width="17.23" height="56.68"/><rect class="cls-1" y="121.97" width="56.68" height="17.23"/><rect class="cls-1" x="121.97" y="204.5" width="17.23" height="56.68"/><rect class="cls-1" x="204.5" y="121.97" width="56.68" height="17.23"/></g></g></g></svg>