<?xml version="1.0" encoding="utf-8"?>
<!-- Generator: Adobe Illustrator 23.0.2, SVG Export Plug-In . SVG Version: 6.00 Build 0)  -->
<svg version="1.1" id="Layer_1" xmlns="http://www.w3.org/2000/svg" xmlns:xlink="http://www.w3.org/1999/xlink" x="0px" y="0px"
	 viewBox="0 0 70.8 70.9" style="enable-background:new 0 0 70.8 70.9;" xml:space="preserve">
<style type="text/css">
	.st0{fill:url(#SVGID_1_);}
	.st1{fill:url(#SVGID_2_);}
	.st2{fill:url(#SVGID_3_);}
	.st3{fill:url(#SVGID_4_);}
	.st4{fill:url(#SVGID_5_);}
	.st5{fill:url(#SVGID_6_);}
	.st6{fill:url(#SVGID_7_);}
	.st7{fill:url(#SVGID_8_);}
	.st8{fill:url(#SVGID_9_);}
	.st9{fill:url(#SVGID_10_);}
	.st10{fill:url(#SVGID_11_);}
</style>
<title>evolve-vm-icon</title>
<g>
	<g id="white-color-vm">
		<g id="Layer_1-2">
			
				<linearGradient id="SVGID_1_" gradientUnits="userSpaceOnUse" x1="5141.8086" y1="-2899.207" x2="5149.8882" y2="-2901.4065" gradientTransform="matrix(0.71 0.7 0.7 -0.71 -1589.2914 -5628.6523)">
				<stop  offset="1.000000e-02" style="stop-color:#F7ED41"/>
				<stop  offset="6.000000e-02" style="stop-color:#F8DE3C"/>
				<stop  offset="0.21" style="stop-color:#F3B23A"/>
				<stop  offset="0.37" style="stop-color:#F28F39"/>
				<stop  offset="0.53" style="stop-color:#F07339"/>
				<stop  offset="0.69" style="stop-color:#EE5E39"/>
				<stop  offset="0.84" style="stop-color:#ED543A"/>
				<stop  offset="1" style="stop-color:#EE503A"/>
			</linearGradient>
			<circle class="st0" cx="35.4" cy="35" r="4.2"/>
			
				<linearGradient id="SVGID_2_" gradientUnits="userSpaceOnUse" x1="2122.384" y1="2653.0989" x2="2126.261" y2="2652.0344" gradientTransform="matrix(-0.68 -0.73 -0.73 0.68 3390.4565 -241.8715)">
				<stop  offset="1.000000e-02" style="stop-color:#F7ED41"/>
				<stop  offset="6.000000e-02" style="stop-color:#F8DE3C"/>
				<stop  offset="0.21" style="stop-color:#F3B23A"/>
				<stop  offset="0.37" style="stop-color:#F28F39"/>
				<stop  offset="0.53" style="stop-color:#F07339"/>
				<stop  offset="0.69" style="stop-color:#EE5E39"/>
				<stop  offset="0.84" style="stop-color:#ED543A"/>
				<stop  offset="1" style="stop-color:#EE503A"/>
			</linearGradient>
			<circle class="st1" cx="7.7" cy="7.6" r="2"/>
			
				<linearGradient id="SVGID_3_" gradientUnits="userSpaceOnUse" x1="6479.4165" y1="-1415.8889" x2="6483.3022" y2="-1416.9441" gradientTransform="matrix(-0.68 0.73 -0.73 -0.68 3390.2568 -5648.7065)">
				<stop  offset="1.000000e-02" style="stop-color:#F7ED41"/>
				<stop  offset="6.000000e-02" style="stop-color:#F8DE3C"/>
				<stop  offset="0.21" style="stop-color:#F3B23A"/>
				<stop  offset="0.37" style="stop-color:#F28F39"/>
				<stop  offset="0.53" style="stop-color:#F07339"/>
				<stop  offset="0.69" style="stop-color:#EE5E39"/>
				<stop  offset="0.84" style="stop-color:#ED543A"/>
				<stop  offset="1" style="stop-color:#EE503A"/>
			</linearGradient>
			<circle class="st2" cx="7.7" cy="63.3" r="2"/>
			
				<linearGradient id="SVGID_4_" gradientUnits="userSpaceOnUse" x1="857.5135" y1="1289.5522" x2="861.3995" y2="1288.4901" gradientTransform="matrix(0.68 -0.73 0.73 0.68 -1463.8564 -238.5615)">
				<stop  offset="1.000000e-02" style="stop-color:#F7ED41"/>
				<stop  offset="6.000000e-02" style="stop-color:#F8DE3C"/>
				<stop  offset="0.21" style="stop-color:#F3B23A"/>
				<stop  offset="0.37" style="stop-color:#F28F39"/>
				<stop  offset="0.53" style="stop-color:#F07339"/>
				<stop  offset="0.69" style="stop-color:#EE5E39"/>
				<stop  offset="0.84" style="stop-color:#ED543A"/>
				<stop  offset="1" style="stop-color:#EE503A"/>
			</linearGradient>
			<circle class="st3" cx="63.1" cy="7.6" r="2"/>
			
				<linearGradient id="SVGID_5_" gradientUnits="userSpaceOnUse" x1="5225.7344" y1="-2780.6758" x2="5229.6113" y2="-2781.731" gradientTransform="matrix(0.68 0.73 0.73 -0.68 -1463.8564 -5648.7065)">
				<stop  offset="1.000000e-02" style="stop-color:#F7ED41"/>
				<stop  offset="6.000000e-02" style="stop-color:#F8DE3C"/>
				<stop  offset="0.21" style="stop-color:#F3B23A"/>
				<stop  offset="0.37" style="stop-color:#F28F39"/>
				<stop  offset="0.53" style="stop-color:#F07339"/>
				<stop  offset="0.69" style="stop-color:#EE5E39"/>
				<stop  offset="0.84" style="stop-color:#ED543A"/>
				<stop  offset="1" style="stop-color:#EE503A"/>
			</linearGradient>
			<circle class="st4" cx="63.1" cy="63.3" r="2"/>
			
				<linearGradient id="SVGID_6_" gradientUnits="userSpaceOnUse" x1="29.239" y1="-948.9353" x2="41.6286" y2="-970.3892" gradientTransform="matrix(1 0 0 -1 0 -924.688)">
				<stop  offset="1.000000e-02" style="stop-color:#F7ED41"/>
				<stop  offset="6.000000e-02" style="stop-color:#F8DE3C"/>
				<stop  offset="0.21" style="stop-color:#F3B23A"/>
				<stop  offset="0.37" style="stop-color:#F28F39"/>
				<stop  offset="0.53" style="stop-color:#F07339"/>
				<stop  offset="0.69" style="stop-color:#EE5E39"/>
				<stop  offset="0.84" style="stop-color:#ED543A"/>
				<stop  offset="1" style="stop-color:#EE503A"/>
			</linearGradient>
			<path class="st5" d="M47.8,34.2c-0.2-2.7-1.3-5.3-3-7.3c-0.3-0.4-0.7-0.8-1.1-1.1c-2.1-1.8-4.6-2.9-7.3-3h-1.7
				c-2.7,0.2-5.3,1.2-7.3,3c-0.4,0.3-0.8,0.7-1.1,1.1c-1.8,2.1-2.9,4.7-3,7.3v1.7c0.1,2.7,1.1,5.3,2.9,7.3c0.3,0.4,0.7,0.8,1.1,1.1
				c2.1,1.8,4.6,2.9,7.3,3h1.7c2.7-0.2,5.3-1.2,7.3-3c0.4-0.3,0.8-0.7,1.1-1.1c1.8-2.1,2.9-4.6,3-7.3V35
				C47.8,34.7,47.8,34.5,47.8,34.2z M35.4,45.8c-5.9,0-10.7-4.8-10.8-10.7s4.8-10.7,10.7-10.8c5.9,0,10.7,4.8,10.8,10.7c0,0,0,0,0,0
				C46.2,40.9,41.4,45.7,35.4,45.8C35.4,45.8,35.4,45.8,35.4,45.8z"/>
			
				<linearGradient id="SVGID_7_" gradientUnits="userSpaceOnUse" x1="23.2536" y1="-938.5349" x2="47.6385" y2="-980.7703" gradientTransform="matrix(1 0 0 -1 0 -924.688)">
				<stop  offset="1.000000e-02" style="stop-color:#F7ED41"/>
				<stop  offset="6.000000e-02" style="stop-color:#F8DE3C"/>
				<stop  offset="0.21" style="stop-color:#F3B23A"/>
				<stop  offset="0.37" style="stop-color:#F28F39"/>
				<stop  offset="0.53" style="stop-color:#F07339"/>
				<stop  offset="0.69" style="stop-color:#EE5E39"/>
				<stop  offset="0.84" style="stop-color:#ED543A"/>
				<stop  offset="1" style="stop-color:#EE503A"/>
			</linearGradient>
			<path class="st6" d="M59.8,33.5L59.8,33.5c-0.3-5.4-2.4-10.4-6-14.5c-0.7-0.8-1.5-1.6-2.3-2.3c-3.9-3.4-8.9-5.5-14.1-6h-0.4
				c-0.5,0-1-0.1-1.5-0.1c-0.5,0-1,0-1.5,0.1h-0.4c-5.3,0.4-10.2,2.5-14.2,6c-0.8,0.7-1.6,1.5-2.3,2.3c-3.6,4-5.7,9.1-6,14.5l0,0
				c0,0.5-0.1,1-0.1,1.5c0,0.5,0,1,0.1,1.6l0.1,0.8c0.5,5.1,2.6,9.9,6,13.7c0.7,0.8,1.5,1.6,2.3,2.3c4,3.5,8.9,5.6,14.2,6h0.4
				c1.1,0.1,2.1,0.1,3.2,0h0.4c5.2-0.4,10.2-2.5,14.1-6c0.8-0.7,1.6-1.5,2.3-2.3c3.4-3.8,5.5-8.6,6-13.7c0-0.3,0.1-0.5,0.1-0.8
				c0-0.5,0.1-1,0.1-1.6C60.2,34.5,59.8,34,59.8,33.5z M37.4,56.1c-0.7,0.1-1.3,0.1-2,0.1c-0.7,0-1.3,0-2-0.1
				c-10-0.9-18-8.7-19.1-18.7c-0.1-0.8-0.1-1.6-0.1-2.4c0-0.5,0-1,0.1-1.5c0.8-10.3,8.9-18.6,19.2-19.5c0.7-0.1,1.3-0.1,2-0.1
				c0.7,0,1.3,0,2,0.1c10.2,1,18.4,9.2,19.1,19.5c0,0.5,0.1,1,0.1,1.5c0,0.8,0,1.6-0.1,2.4C55.4,47.3,47.4,55.2,37.4,56.1L37.4,56.1
				z"/>
			
				<linearGradient id="SVGID_8_" gradientUnits="userSpaceOnUse" x1="32.1234" y1="-931.1064" x2="38.7102" y2="-942.5273" gradientTransform="matrix(1 0 0 -1 0 -924.688)">
				<stop  offset="1.000000e-02" style="stop-color:#F7ED41"/>
				<stop  offset="6.000000e-02" style="stop-color:#F8DE3C"/>
				<stop  offset="0.21" style="stop-color:#F3B23A"/>
				<stop  offset="0.37" style="stop-color:#F28F39"/>
				<stop  offset="0.53" style="stop-color:#F07339"/>
				<stop  offset="0.69" style="stop-color:#EE5E39"/>
				<stop  offset="0.84" style="stop-color:#ED543A"/>
				<stop  offset="1" style="stop-color:#EE503A"/>
			</linearGradient>
			<rect x="33.4" y="5.7" class="st7" width="3.9" height="12.9"/>
			
				<linearGradient id="SVGID_9_" gradientUnits="userSpaceOnUse" x1="-323.4662" y1="9187.0674" x2="-332.045" y2="9182.1104" gradientTransform="matrix(6.123234e-17 -1 -1 -6.123234e-17 9196.6953 -292.334)">
				<stop  offset="1.000000e-02" style="stop-color:#F7ED41"/>
				<stop  offset="6.000000e-02" style="stop-color:#F8DE3C"/>
				<stop  offset="0.21" style="stop-color:#F3B23A"/>
				<stop  offset="0.37" style="stop-color:#F28F39"/>
				<stop  offset="0.53" style="stop-color:#F07339"/>
				<stop  offset="0.69" style="stop-color:#EE5E39"/>
				<stop  offset="0.84" style="stop-color:#ED543A"/>
				<stop  offset="1" style="stop-color:#EE503A"/>
			</linearGradient>
			<rect x="5.6" y="33.5" class="st8" width="12.9" height="3.9"/>
			
				<linearGradient id="SVGID_10_" gradientUnits="userSpaceOnUse" x1="9796.9424" y1="9542.0361" x2="9790.3525" y2="9553.4521" gradientTransform="matrix(-1 0 0 1 9829.0498 -9489.0303)">
				<stop  offset="1.000000e-02" style="stop-color:#F7ED41"/>
				<stop  offset="6.000000e-02" style="stop-color:#F8DE3C"/>
				<stop  offset="0.21" style="stop-color:#F3B23A"/>
				<stop  offset="0.37" style="stop-color:#F28F39"/>
				<stop  offset="0.53" style="stop-color:#F07339"/>
				<stop  offset="0.69" style="stop-color:#EE5E39"/>
				<stop  offset="0.84" style="stop-color:#ED543A"/>
				<stop  offset="1" style="stop-color:#EE503A"/>
			</linearGradient>
			<rect x="33.4" y="52.3" class="st9" width="3.9" height="12.9"/>
			
				<linearGradient id="SVGID_11_" gradientUnits="userSpaceOnUse" x1="10152.5166" y1="-576.1196" x2="10161.0957" y2="-571.167" gradientTransform="matrix(6.123234e-17 1 1 -6.123234e-17 632.3539 -10121.3945)">
				<stop  offset="1.000000e-02" style="stop-color:#F7ED41"/>
				<stop  offset="6.000000e-02" style="stop-color:#F8DE3C"/>
				<stop  offset="0.21" style="stop-color:#F3B23A"/>
				<stop  offset="0.37" style="stop-color:#F28F39"/>
				<stop  offset="0.53" style="stop-color:#F07339"/>
				<stop  offset="0.69" style="stop-color:#EE5E39"/>
				<stop  offset="0.84" style="stop-color:#ED543A"/>
				<stop  offset="1" style="stop-color:#EE503A"/>
			</linearGradient>
			<rect x="52.3" y="33.5" class="st10" width="12.9" height="3.9"/>
		</g>
	</g>
</g>
</svg>
