<?xml version="1.0" encoding="utf-8"?>
<!-- Generator: Adobe Illustrator 23.0.2, SVG Export Plug-In . SVG Version: 6.00 Build 0)  -->
<svg version="1.1" id="Layer_1" xmlns="http://www.w3.org/2000/svg" xmlns:xlink="http://www.w3.org/1999/xlink" x="0px" y="0px"
	 viewBox="0 0 41.7 41.8" style="enable-background:new 0 0 41.7 41.8;" xml:space="preserve">
<style type="text/css">
	.st0{fill:url(#SVGID_1_);}
	.st1{fill:url(#SVGID_2_);}
	.st2{fill:url(#SVGID_3_);}
	.st3{fill:url(#SVGID_4_);}
	.st4{fill:url(#SVGID_5_);}
	.st5{fill:url(#SVGID_6_);}
	.st6{fill:url(#SVGID_7_);}
	.st7{fill:url(#SVGID_8_);}
	.st8{fill:url(#SVGID_9_);}
	.st9{fill:url(#SVGID_10_);}
	.st10{fill:url(#SVGID_11_);}
</style>
<title>evolve-vm-icon</title>
<g>
	<g id="white-color-vm">
		<g id="Layer_1-2">
			
				<linearGradient id="SVGID_1_" gradientUnits="userSpaceOnUse" x1="5129.6479" y1="-2914.5349" x2="5134.9502" y2="-2915.9783" gradientTransform="matrix(0.71 0.7 0.7 -0.71 -1583.3024 -5643.4053)">
				<stop  offset="1.000000e-02" style="stop-color:#F7ED41"/>
				<stop  offset="6.000000e-02" style="stop-color:#F8DE3C"/>
				<stop  offset="0.21" style="stop-color:#F3B23A"/>
				<stop  offset="0.37" style="stop-color:#F28F39"/>
				<stop  offset="0.53" style="stop-color:#F07339"/>
				<stop  offset="0.69" style="stop-color:#EE5E39"/>
				<stop  offset="0.84" style="stop-color:#ED543A"/>
				<stop  offset="1" style="stop-color:#EE503A"/>
			</linearGradient>
			<circle class="st0" cx="20.8" cy="20.6" r="2.8"/>
			
				<linearGradient id="SVGID_2_" gradientUnits="userSpaceOnUse" x1="2096.2722" y1="2637.5242" x2="2098.8167" y2="2636.8257" gradientTransform="matrix(-0.68 -0.73 -0.73 0.68 3355.3376 -257.1722)">
				<stop  offset="1.000000e-02" style="stop-color:#F7ED41"/>
				<stop  offset="6.000000e-02" style="stop-color:#F8DE3C"/>
				<stop  offset="0.21" style="stop-color:#F3B23A"/>
				<stop  offset="0.37" style="stop-color:#F28F39"/>
				<stop  offset="0.53" style="stop-color:#F07339"/>
				<stop  offset="0.69" style="stop-color:#EE5E39"/>
				<stop  offset="0.84" style="stop-color:#ED543A"/>
				<stop  offset="1" style="stop-color:#EE503A"/>
			</linearGradient>
			<circle class="st1" cx="2.7" cy="2.6" r="1.3"/>
			
				<linearGradient id="SVGID_3_" gradientUnits="userSpaceOnUse" x1="6458.5605" y1="-1432.8849" x2="6461.1108" y2="-1433.5775" gradientTransform="matrix(-0.68 0.73 -0.73 -0.68 3355.1379 -5662.585)">
				<stop  offset="1.000000e-02" style="stop-color:#F7ED41"/>
				<stop  offset="6.000000e-02" style="stop-color:#F8DE3C"/>
				<stop  offset="0.21" style="stop-color:#F3B23A"/>
				<stop  offset="0.37" style="stop-color:#F28F39"/>
				<stop  offset="0.53" style="stop-color:#F07339"/>
				<stop  offset="0.69" style="stop-color:#EE5E39"/>
				<stop  offset="0.84" style="stop-color:#ED543A"/>
				<stop  offset="1" style="stop-color:#EE503A"/>
			</linearGradient>
			<circle class="st2" cx="2.7" cy="39.2" r="1.3"/>
			
				<linearGradient id="SVGID_4_" gradientUnits="userSpaceOnUse" x1="831.1985" y1="1274.0355" x2="833.7488" y2="1273.3385" gradientTransform="matrix(0.68 -0.73 0.73 0.68 -1457.8667 -253.8623)">
				<stop  offset="1.000000e-02" style="stop-color:#F7ED41"/>
				<stop  offset="6.000000e-02" style="stop-color:#F8DE3C"/>
				<stop  offset="0.21" style="stop-color:#F3B23A"/>
				<stop  offset="0.37" style="stop-color:#F28F39"/>
				<stop  offset="0.53" style="stop-color:#F07339"/>
				<stop  offset="0.69" style="stop-color:#EE5E39"/>
				<stop  offset="0.84" style="stop-color:#ED543A"/>
				<stop  offset="1" style="stop-color:#EE503A"/>
			</linearGradient>
			<circle class="st3" cx="39" cy="2.6" r="1.3"/>
			
				<linearGradient id="SVGID_5_" gradientUnits="userSpaceOnUse" x1="5200.042" y1="-2796.3599" x2="5202.5864" y2="-2797.0525" gradientTransform="matrix(0.68 0.73 0.73 -0.68 -1457.8667 -5662.585)">
				<stop  offset="1.000000e-02" style="stop-color:#F7ED41"/>
				<stop  offset="6.000000e-02" style="stop-color:#F8DE3C"/>
				<stop  offset="0.21" style="stop-color:#F3B23A"/>
				<stop  offset="0.37" style="stop-color:#F28F39"/>
				<stop  offset="0.53" style="stop-color:#F07339"/>
				<stop  offset="0.69" style="stop-color:#EE5E39"/>
				<stop  offset="0.84" style="stop-color:#ED543A"/>
				<stop  offset="1" style="stop-color:#EE503A"/>
			</linearGradient>
			<circle class="st4" cx="39" cy="39.2" r="1.3"/>
			
				<linearGradient id="SVGID_6_" gradientUnits="userSpaceOnUse" x1="16.7956" y1="-967.3827" x2="24.9267" y2="-981.4625" gradientTransform="matrix(1 0 0 -1 0 -953.8672)">
				<stop  offset="1.000000e-02" style="stop-color:#F7ED41"/>
				<stop  offset="6.000000e-02" style="stop-color:#F8DE3C"/>
				<stop  offset="0.21" style="stop-color:#F3B23A"/>
				<stop  offset="0.37" style="stop-color:#F28F39"/>
				<stop  offset="0.53" style="stop-color:#F07339"/>
				<stop  offset="0.69" style="stop-color:#EE5E39"/>
				<stop  offset="0.84" style="stop-color:#ED543A"/>
				<stop  offset="1" style="stop-color:#EE503A"/>
			</linearGradient>
			<path class="st5" d="M29,20c-0.1-1.8-0.8-3.5-2-4.8c-0.2-0.3-0.5-0.5-0.7-0.7c-1.4-1.2-3.1-1.9-4.8-2h-1.1
				c-1.8,0.1-3.5,0.8-4.8,2c-0.3,0.2-0.5,0.5-0.7,0.7c-1.2,1.4-1.9,3.1-2,4.8v1.1c0.1,1.8,0.7,3.5,1.9,4.8c0.2,0.3,0.5,0.5,0.7,0.7
				c1.4,1.2,3.1,1.9,4.8,2h1.1c1.8-0.1,3.5-0.8,4.8-2c0.3-0.2,0.5-0.5,0.7-0.7c1.2-1.4,1.9-3.1,2-4.8v-0.5C29,20.4,29,20.2,29,20z
				 M20.8,27.6c-3.9,0-7.1-3.2-7.1-7.1s3.2-7.1,7.1-7.1c3.9,0,7.1,3.2,7.1,7.1c0,0,0,0,0,0C27.9,24.5,24.7,27.6,20.8,27.6
				C20.9,27.6,20.8,27.6,20.8,27.6z"/>
			
				<linearGradient id="SVGID_7_" gradientUnits="userSpaceOnUse" x1="12.8675" y1="-960.5571" x2="28.8708" y2="-988.2754" gradientTransform="matrix(1 0 0 -1 0 -953.8672)">
				<stop  offset="1.000000e-02" style="stop-color:#F7ED41"/>
				<stop  offset="6.000000e-02" style="stop-color:#F8DE3C"/>
				<stop  offset="0.21" style="stop-color:#F3B23A"/>
				<stop  offset="0.37" style="stop-color:#F28F39"/>
				<stop  offset="0.53" style="stop-color:#F07339"/>
				<stop  offset="0.69" style="stop-color:#EE5E39"/>
				<stop  offset="0.84" style="stop-color:#ED543A"/>
				<stop  offset="1" style="stop-color:#EE503A"/>
			</linearGradient>
			<path class="st6" d="M36.9,19.6L36.9,19.6c-0.2-3.5-1.6-6.9-3.9-9.5c-0.5-0.5-1-1-1.5-1.5c-2.6-2.3-5.8-3.6-9.2-3.9h-0.3
				c-0.3,0-0.7-0.1-1-0.1c-0.3,0-0.7,0-1,0.1h-0.3c-3.4,0.3-6.7,1.6-9.3,3.9c-0.5,0.5-1,1-1.5,1.5c-2.4,2.6-3.7,6-3.9,9.5l0,0
				c0,0.3-0.1,0.7-0.1,1c0,0.3,0,0.7,0.1,1L5,22.1c0.3,3.3,1.7,6.5,3.9,9c0.5,0.5,1,1,1.5,1.5c2.6,2.3,5.9,3.6,9.3,3.9H20
				c0.7,0.1,1.4,0.1,2.1,0h0.3c3.4-0.3,6.7-1.6,9.2-3.9c0.5-0.5,1-1,1.5-1.5c2.2-2.5,3.6-5.7,3.9-9c0-0.2,0.1-0.3,0.1-0.5
				c0-0.3,0.1-0.7,0.1-1C37.1,20.2,36.9,19.9,36.9,19.6z M22.1,34.4c-0.4,0.1-0.9,0.1-1.3,0.1c-0.4,0-0.9,0-1.3-0.1
				C13,33.8,7.8,28.7,7,22.1c-0.1-0.5-0.1-1-0.1-1.6c0-0.3,0-0.7,0.1-1c0.5-6.8,5.8-12.2,12.6-12.8c0.4-0.1,0.9-0.1,1.3-0.1
				c0.4,0,0.9,0,1.3,0.1c6.7,0.7,12.1,6,12.5,12.8c0,0.3,0.1,0.7,0.1,1c0,0.5,0,1-0.1,1.6C33.9,28.6,28.7,33.8,22.1,34.4L22.1,34.4z
				"/>
			
				<linearGradient id="SVGID_8_" gradientUnits="userSpaceOnUse" x1="18.6885" y1="-955.6819" x2="23.0114" y2="-963.1772" gradientTransform="matrix(1 0 0 -1 0 -953.8672)">
				<stop  offset="1.000000e-02" style="stop-color:#F7ED41"/>
				<stop  offset="6.000000e-02" style="stop-color:#F8DE3C"/>
				<stop  offset="0.21" style="stop-color:#F3B23A"/>
				<stop  offset="0.37" style="stop-color:#F28F39"/>
				<stop  offset="0.53" style="stop-color:#F07339"/>
				<stop  offset="0.69" style="stop-color:#EE5E39"/>
				<stop  offset="0.84" style="stop-color:#ED543A"/>
				<stop  offset="1" style="stop-color:#EE503A"/>
			</linearGradient>
			<rect x="19.6" y="1.3" class="st7" width="2.6" height="8.5"/>
			
				<linearGradient id="SVGID_9_" gradientUnits="userSpaceOnUse" x1="-339.5221" y1="9163.6162" x2="-345.1522" y2="9160.3623" gradientTransform="matrix(6.123234e-17 -1 -1 -6.123234e-17 9167.542 -321.4881)">
				<stop  offset="1.000000e-02" style="stop-color:#F7ED41"/>
				<stop  offset="6.000000e-02" style="stop-color:#F8DE3C"/>
				<stop  offset="0.21" style="stop-color:#F3B23A"/>
				<stop  offset="0.37" style="stop-color:#F28F39"/>
				<stop  offset="0.53" style="stop-color:#F07339"/>
				<stop  offset="0.69" style="stop-color:#EE5E39"/>
				<stop  offset="0.84" style="stop-color:#ED543A"/>
				<stop  offset="1" style="stop-color:#EE503A"/>
			</linearGradient>
			<rect x="1.3" y="19.6" class="st8" width="8.5" height="2.6"/>
			
				<linearGradient id="SVGID_10_" gradientUnits="userSpaceOnUse" x1="9781.2422" y1="9521.4189" x2="9776.918" y2="9528.9111" gradientTransform="matrix(-1 0 0 1 9799.9209 -9489.0303)">
				<stop  offset="1.000000e-02" style="stop-color:#F7ED41"/>
				<stop  offset="6.000000e-02" style="stop-color:#F8DE3C"/>
				<stop  offset="0.21" style="stop-color:#F3B23A"/>
				<stop  offset="0.37" style="stop-color:#F28F39"/>
				<stop  offset="0.53" style="stop-color:#F07339"/>
				<stop  offset="0.69" style="stop-color:#EE5E39"/>
				<stop  offset="0.84" style="stop-color:#ED543A"/>
				<stop  offset="1" style="stop-color:#EE503A"/>
			</linearGradient>
			<rect x="19.6" y="31.9" class="st9" width="2.6" height="8.5"/>
			
				<linearGradient id="SVGID_11_" gradientUnits="userSpaceOnUse" x1="10139.4473" y1="-597.8669" x2="10145.0771" y2="-594.6166" gradientTransform="matrix(6.123234e-17 1 1 -6.123234e-17 632.379 -10121.4199)">
				<stop  offset="1.000000e-02" style="stop-color:#F7ED41"/>
				<stop  offset="6.000000e-02" style="stop-color:#F8DE3C"/>
				<stop  offset="0.21" style="stop-color:#F3B23A"/>
				<stop  offset="0.37" style="stop-color:#F28F39"/>
				<stop  offset="0.53" style="stop-color:#F07339"/>
				<stop  offset="0.69" style="stop-color:#EE5E39"/>
				<stop  offset="0.84" style="stop-color:#ED543A"/>
				<stop  offset="1" style="stop-color:#EE503A"/>
			</linearGradient>
			<rect x="31.9" y="19.6" class="st10" width="8.5" height="2.6"/>
		</g>
	</g>
</g>
</svg>
