<?xml version="1.0" encoding="UTF-8"?>
<svg width="auto" height="20px" viewBox="0 0 64 56" version="1.1" xmlns="http://www.w3.org/2000/svg" xmlns:xlink="http://www.w3.org/1999/xlink">
    <title>02_product_release</title>
    <g id="Page-1" stroke="none" stroke-width="1" fill="none" fill-rule="evenodd">
        <g id="02_product_release" transform="translate(0.000000, 1.000000)" stroke="#0860B8" stroke-width="2">
            <rect id="Rectangle" x="11" y="18" width="42" height="36"></rect>
            <polygon id="Path" stroke-linejoin="round" points="57 0 7 0 11 18 53 18"></polygon>
            <polyline id="Path" stroke-linejoin="round" points="6 8 1 8 11 18 53 18 63 8 58 8"></polyline>
            <line x1="8" y1="23" x2="0" y2="23" id="Path" stroke-linejoin="round"></line>
            <line x1="16" y1="29" x2="2" y2="29" id="Path" stroke-linejoin="round"></line>
            <line x1="8" y1="36" x2="0" y2="36" id="Path" stroke-linejoin="round"></line>
            <line x1="14" y1="43" x2="4" y2="43" id="Path" stroke-linejoin="round"></line>
            <line x1="8" y1="50" x2="2" y2="50" id="Path" stroke-linejoin="round"></line>
            <polyline id="Path" stroke-linejoin="round" points="43 35 43 43 21 43 21 29 35 29"></polyline>
            <polyline id="Path" stroke-linejoin="round" points="44 27 33 38 28 33"></polyline>
            <line x1="11" y1="4" x2="53" y2="4" id="Path" stroke-linejoin="round"></line>
            <line x1="20" y1="25" x2="22" y2="25" id="Path" stroke-linejoin="round"></line>
            <line x1="24" y1="25" x2="26" y2="25" id="Path" stroke-linejoin="round"></line>
            <line x1="28" y1="25" x2="30" y2="25" id="Path" stroke-linejoin="round"></line>
        </g>
    </g>
</svg>