<svg xmlns="http://www.w3.org/2000/svg" xmlns:xlink="http://www.w3.org/1999/xlink" viewBox="0 0 958.7 483.66">
  <defs>
    <style>
      .cls-1 {
        fill: url("#linear-gradient");
      }
    </style>
    <linearGradient id="linear-gradient" x1="270.07" y1="-0.78" x2="783.88" y2="513.03" gradientTransform="matrix(1, 0, 0, -1, 0, 486.8)" gradientUnits="userSpaceOnUse"><stop offset="0" stop-color="#073971"/><stop offset="1" stop-color="#0860b8"/></linearGradient>
  </defs>
  <title>map</title>
  <g id="Layer_2" data-name="Layer 2">
    <g id="Layer_1-2" data-name="Layer 1">
      <g id="_Group_" data-name=" Group "><path
        class="cls-1"
        d="M953.3,154a30.51,30.51,0,0,0-6.7-.7s-7.6-5.9-8.8-6.5-6.3-3.9-7.6-4.9a21.89,21.89,0,0,0-5.9-3,33.92,33.92,0,0,0-7.2-1.3h-8.4l-1.3,1.3s1.7,3.9,0,4.6-4.2-.6-4.2-.6l-4.2-3.6a10.68,10.68,0,0,0-2.5-.3c-1.3,0-6.3.3-6.3.3l-5.5.3-2.1,2S878,140,878,138s.8-3.9,0-4.9-3.8-2.3-3.8-2.3H868a30.55,30.55,0,0,1-6.7,1.3l-3.8.3s1.3-2.6-.4-3.3l-3.3-1.3-2.5-3.3-3.8-1.6-5,1-5-2.6s-4.2-1.3-4.6-1.3-4.6.3-4.6.3l-5.9,2.6s1.7.3.8,2.3-1.4,3.3-1.4,3.3l-2.9-.3-5.5-.3-5.5.3a2.77,2.77,0,0,0-1.3-2.3l-1.3-.6s-1.7,7.2-3.4,7.2-3.8-2.3-4.2-3.3a20.62,20.62,0,0,1-.8-6.6c0-2.9-3.4-8.5-6.7-8.5s-6.3-2-7.2-1-1.3,3.6-2.9,4.6-4.2,3.9-8.8.7a31.68,31.68,0,0,0-7.6-4.3l-4.2-.3-4.2-1.3-3.3-1.3-3.4.7-1.7.3-2.1,1.3c-2.1,1.3-3.3,2.9-5.9,2.9h-2.5s12.6-10.1,15.5-11.8,5-4.9,5-6.2.4-5.2-1.3-6.6a15.71,15.71,0,0,0-5.9-3c-2.5-.6-5.5-1.3-7.1-.6l-5,2s1.2-3.3.4-4.3a6.69,6.69,0,0,0-2.5-1.6l-.8-2s.4-.3-.8-1.6-4.2-2-4.2-2-3.8,3-5.9,4.9-3,3.6-2.5,4.6a6.72,6.72,0,0,1,.4,2.4s-2.5.3-3.8.3-2.1,2-2.1,2l-2.9.6a9.3,9.3,0,0,1-2.1-2.3,17.1,17.1,0,0,0-1.3-2.3V85.6a8.7,8.7,0,0,1-3,1.6,16.83,16.83,0,0,0-3.4,2,3.17,3.17,0,0,1,.4,1.6,4.63,4.63,0,0,1-1.2,2.3l-3.8,2c-2.3,1.3-4.7,2.5-7.1,3.6s-6.3,2.6-7.6,5.2-.4,7.9-.4,7.9-12.2.7-13.9,2.6l-1.7,2s.4,2.6.8,4.3,3.8,3.3,4.6,4.3a12.89,12.89,0,0,1,1.7,3.3v6.9l-2.1.3-.8-3.9s.8-3-.4-4.3a17,17,0,0,0-3.4-2.6,22.85,22.85,0,0,0-4.6-3.6l-2.1-1-3.4,1.6-2.1,2-2.4-4.8-1.7-.3s.8,2.6,0,3.9-2.9,2.6-2.9,3.6a15,15,0,0,0,.4,5.6c.8,3.3,0,7.5,0,8.5s1.2,1.3,2.5,1.3,1.7-.3,3.4.7a13.31,13.31,0,0,1,3,2.3s-4.2-1.6-5.9-.7a3.72,3.72,0,0,0-1.7,3s0,3.9-1.2,5.9-2.5,4.6-5.5,4.6a17.23,17.23,0,0,1-6.3-1.6s3.8-.7,5-1,4.2-3.6,4.6-5.2.8-2.6,0-4.6-1.3-10.5-.8-12.1,0-1.6-.8-3.9,3.8-6.2,2.5-8.2-4.6-3.6-4.6-3.6.9-2.3-.4-2.6a4.77,4.77,0,0,0-2.9.6l-1.3,2.6a4.1,4.1,0,0,0-2.1,2,13.43,13.43,0,0,0-1.2,4.9c0,2.3-2.1,3.9-3.4,4.9a3.4,3.4,0,0,0-1.3,3c0,1-.8,3.9.4,5.6a21.21,21.21,0,0,1,2.1,3.6,13.23,13.23,0,0,1,.8,3.3c0,1-3.4.3-3.4.3s-3.4-2-5.5-3.3a17.7,17.7,0,0,0-5.9-2.3c-1.7-.3-5.5-2.6-5.5-2.6l-4.2-2-1.3.6s0,2,1.3,2.3,2.5,1,2.1,2.3a12.75,12.75,0,0,0,0,3.9s-3.4-2.6-4.2-1.6-3.8,1-3.8,1l-3.3-1-1.3,1.6-2.5,2.6-2.5-3s-6.7,1.6-8,3.3-6.3,1.6-6.7,3.6-3.4,3.3-3.4,3.3l-2.1-3.3,2.9-2.6s-2.5-3-3.8-3h-3a5,5,0,0,0-.8,2.6c0,1.3,1.3,6.2.8,7.5s-3.4,1.3-3.4,1.3l-3,.6a31.49,31.49,0,0,0-3,5.2c-.5,1.6-.8,3-.8,3l-5.5-.3-3.4-1.3s-2.5,0-1.7,1a3.18,3.18,0,0,1,.8,2l-1.3,1.3s-2.9,0-3.3-2.3,1.3-3.9-.4-5.9-4.6-5.6-4.6-5.6,12.6,4.6,14.7,4.3,7.6-3.3,8-4.3-3.4-5.6-4.6-6.2-6.3-3.9-9.7-5.6-3.3-3-6.3-3a30.13,30.13,0,0,1-6.7-1s-.8-2.6-1.2-3.6-4.2-3-4.2-3a78,78,0,0,0-9.7-1.3c-2.9,0-4.2.6-6.7,2.3s-4.2,2-7.6,2.3a15.86,15.86,0,0,0-8,3.9c-.9,1-5.9,1.6-6.7,3.6s-4.6,5.2-4.6,5.2l3.4,1.3,1.2,1s-2.5,7.9-4.6,9.2-2.9,4.9-4.2,5.6-1.3,2.3-2.9,2.6a19.22,19.22,0,0,0-4.2,1.6l-4.2,3.6s-3.8,2.3-4.2,3.9-.8,11.5,0,13.8,1.7,3.6,3.8,3.9,2.1,0,5-1.3,5-2.3,5-2.3l1.7.3,2.1,3.6s.9,3,1.3,5.2,3.4,5.9,5,4.9,1.7-2,1.7-2l3.8-2.3s1.7-1.6,1.7-3-.9-3.6,0-4.6.8-.3,2.1-1.6,2.5-1,2.9-2.9.4-3.3-1.7-4.3-2.1-4.9-2.1-4.9,3.8-6.2,6.3-8.2a38.59,38.59,0,0,0,5-4.9v-3l2.9-3s3,.3,4.2,1.3-1.7,5.2-1.7,5.2-2.5,2.6-3.4,3.6-2.5,3.3-2.5,3.3l-.8,3.3s.4.3.4,2.6,0,4.6,1.2,5.2,3,1.6,3,1.6l3.8.3,4.2-2,5.5.7,2.5,1-4.2,1.3-5.5.6a12.09,12.09,0,0,0-3.8.6,21.28,21.28,0,0,0-2.5,1.6s-1.7,0-.4,1.6a42.5,42.5,0,0,1,2.5,3.9l-3.4,1-2.5,2-.8,3.9-3,3-.8,2.3a2.27,2.27,0,0,1-2.9-.3,4.59,4.59,0,0,0-3.4-1,29.74,29.74,0,0,1-5.9,3,7.24,7.24,0,0,1-4.6-.3s-4.2-1.3-5-3.6-.4-5.6-.9-6.9-.9-2.3-2.1-2.3-3.8,2.3-3.8,2.3l-2.9,3,1.7,3.6.4,2-.8,1.3a6.72,6.72,0,0,1-3,1.3c-1.3,0-5.5.7-5.5.7l-1.1,3.9-3.4,2.6-3.8,1.6a13.36,13.36,0,0,0-2.1,2c-.8,1-.4,2.3-2.5,2.9a10.57,10.57,0,0,1-5,0L447,225l-5.5,2.3s2.1,3.3,3.4,3.9a25.49,25.49,0,0,1,2.9,1.3,4.22,4.22,0,0,1,2.5,3.6c.4,2,.9,5.2-1.2,5.9a25.35,25.35,0,0,1-6.7.6s-7.6-1-9.2-.3a6.63,6.63,0,0,0-2.9,2.3,14.58,14.58,0,0,1,1.2,3.9c0,1,.8,2-.4,3.6S429,258,429,258a37.79,37.79,0,0,0,6.7,1.3c2.1,0,2.1,1.3,2.1,1.3l2.5,1.6,2.1-1.3s4.6-.7,5.5-.7,5.5-3.9,5.5-3.9l.8-3a62.08,62.08,0,0,1,6.3-5.2,18.66,18.66,0,0,0,3.4-2.9l.8-3.9,4.2,2.3,6.7-2.3,3.8-.3a98.74,98.74,0,0,0,8,6.5,17.53,17.53,0,0,0,5,2.3s3.4.6,3.8,3.3-3.4,3.9-3.4,3.9l-5,.3,2.5,2.6,3.8.6,1.3-2.9,3.4-2.3a7.86,7.86,0,0,0,.8-2.6c0-1,2.1-.3,2.1-.3h1.7v-2l-3.8-1.6s-3.4-2-4.6-2.6-1.3-1-3-2.6a9.63,9.63,0,0,0-4.2-2.3v-1.6l2.1-1s5.5,4.2,7.1,4.9a48.19,48.19,0,0,0,5,1.6l2.1.3,1.7,4.6,2.1,5.2,2.1,4.3,4.2,2,2.1,2a13.16,13.16,0,0,0,3.8,1.3c1.1,0,2.2-.2,3.4-.3l1.3-1.3,2.5-1,4.2-.3,2.5,1,2.1-1.6,5,.3-.4,2.6,4.2,1.3,1.3-2,3.8-.3s1.7,3.3.8,4.3-6.7,5.9-6.7,5.9-10.9-.6-12.6.3-6.3,0-8.8-1-5.5-3-7.6-3-5,2-6.7,3-9.2,1.3-11.4,0-4.2-2-5-3a44.8,44.8,0,0,0-3.4-3.3l-2.9-.3-3.3-3.9a12.89,12.89,0,0,1-1.7-3.3l-1.7-.3s-13,1-14.3,1-8.4,1.3-8.4,1.3-4.6,3-7.1,3.3-4.6,1-6.3,0a10.6,10.6,0,0,0-4.6-1s-2.5,4.3-5.5,5.9-2.1,3.9-3.4,5.6-2.5,5.9-4.6,6.2-5.5,3.6-7.6,5.9a35.85,35.85,0,0,0-6.3,11.5,37.58,37.58,0,0,0-1.3,13.1c.4,2.3,8.4,11.1,10.1,12.8s8.4,6.9,10.9,7.9,5.9,1,8.8,1H450s10.1-2.3,12.6-2.9a6.63,6.63,0,0,1,4.6.6l3.8,3.6a53,53,0,0,1,5.5,1c2.5.6,2.9,1.6,2.9,3a37.75,37.75,0,0,1-1.3,5.6,10.7,10.7,0,0,0,3.4,3.9c2.5,2,5.5,4.9,5.9,6.2s1.7,4.2,1.7,4.2l-.4,2.6,1.3,3.3a38.75,38.75,0,0,1-1.3,5.9c-.4,1-2.5,5.2-2.1,7.5s2.9,6.5,3.8,8.2a29.82,29.82,0,0,1,2.5,6.2c.4,2-.4,9.5,2.5,11.5s3.8,4.6,5,6.9.4,4.6,3,6.9,6.3,2.9,7.6,2.3,5.9-1,8-1,10.1-3.7,13.9-5.9a15.61,15.61,0,0,0,5.5-5.9s3.8-3.6,4.6-6.2,4.6-4.3,4.6-4.3,2.1-3.6,2.1-4.6v-7.9s9.7-4.6,10.9-6.5,3.4-7.9,2.9-9.2-4.2-10.8-2.5-15.4,7.6-8.9,7.6-8.9l13-10.2c2.5-2,5.5-4.6,5.9-6.2s3.4-5.6,3.8-6.9-2.1-2-2.1-2a25.05,25.05,0,0,0-5.5-.3c-1.7.3-10.5-2-10.5-2s10.9-3.3,13.5-3.9,15.5-5.2,16.8-6.2,4.2-2.6,5-4.3a46.64,46.64,0,0,1,2.5-4.3l2.9-3.3s-3.3-3.6-5.5-4.3a24.71,24.71,0,0,1-4.6-2.3l1.2-1s10.1,2.6,12.2,2.6,4.6-1,6.7-1h5.5l5.9,3.6s4.2,3.6,4.6,5.2c.2.9,1.6,1.3,2.5,1.5a16.57,16.57,0,0,1,3.8-1.1s1.3,7.2,2.1,8.5,2.5,6,3.8,7.6,4.2,5.9,4.6,7.5.4,2.6,2.1,3.6,2.5,1,3.8,0a35.15,35.15,0,0,0,3.4-3.3l1.7-1.3.8-5.6.9-4.9,8.4-4.9c1.7-1,6.3-3.6,8-4.6s6.3-1,6.3-1H698c1.3,0,3.4,1.6,3.4,1.6s3.3,1,2.9,2.6-.8,3.6-.8,3.6l3.4,2,3-1.6,2.1,1s3,3.9,3,7.2a22.28,22.28,0,0,1-1.7,7.2,28.19,28.19,0,0,1,3.3,3.6c.8,1.3,4.2,5.6,4.2,5.6l1.3,3.9s1.7,3.3.8,1.6-5-3.3-5-3.3l-3.8-3.6-7.2-1,3,3.9-.4,3,2.9,1.3.8,2.9,2.5,2.3,2.9,3.6,3.4.6,8.8,6.9a26.76,26.76,0,0,0,8.4,4.3,80.13,80.13,0,0,0,8.4,1l10.1,2s8,.3,9.7.3a47,47,0,0,1,6.3,1.3l3.8.7-.8-2,5-1v3a59.55,59.55,0,0,0,7.1-.7,29.66,29.66,0,0,1,4.2-.3l1.2-.7,2.5-2,2.1,2.6,2.5-2.3,2.1-.6L803,357H790.7a13.31,13.31,0,0,0-3.4,1c-1.3.7-3,.7-5.5.3a35.52,35.52,0,0,0-8-.3c-2.1.3-6.3.7-6.3.7s-6.3-1.3-7.5-1.3a14.68,14.68,0,0,1-4.2-1.3s-10.1.3-11.3-.3-3.8.3-5-1.6-4.6-3.6-2.5-4.3a7.48,7.48,0,0,0,2.9-1.6s-2.9-2-4.6-3-3.4-4.3-5-7.2,0-4.9-1.3-6.6-6.3-4.2-8-6.9-2.5-4.6-2.1-5.6,1.2-2.6,2.5-2.6,3.4-1,5.9,1.6,4.2,3.3,4.6,4.9,3.8-.3,5.9-1.3,6.7-3.3,7.6-5.2a6.12,6.12,0,0,0-.8-6.5c-1.7-2-7.6-5.6-8-7.5s2.5-5.2,3.8-5.2h3.8c-2.1,0,1.3,1.6,0,2.6s-2.9,1-1.7,2.3,2.5,2,3.8,1.6,3.3-.7,3-2.6c-.2-1-.5-2-.8-3,0,0,11.3-3.5,13.4-4.1s7.6-2.3,9.7-6.2a59.09,59.09,0,0,1,6.2-8c-3.3,3.2.9-6.1,0-7.7l-3.3-5.9s-2.9-1.6-1.3-3,5-2.6,5-3.6-.8-1.6-2.5-1.6-3.3,1-4.2-.3,2.1-3.3,2.9-4.3,5.9.7,3.8,0,3.4-1.3,5.5,0a47.61,47.61,0,0,1,4.2,3s1.7,2,1.7,3.3c.1,1.1.2,2.2.4,3.3,0,0,1.3,2.6,2.5,2.6a12,12,0,0,0,3.3-.3,4.1,4.1,0,0,0,2.1-2l.8-3.9s-3.8-2.9-4.6-4.3a2.41,2.41,0,0,1-.4-2.3s5.9-2.6,6.3-5.2,4.2-3.6,4.2-3.6a7.28,7.28,0,0,0,4.6.3c2.1-.6,8.8-6.2,12.2-10.8s5-5.2,6.3-8.5,1.3-10.1,1.3-6.9.8-4.3-.4-6.9a7.45,7.45,0,0,0-4.2-3.6l-4.2-.6s-3.8-2.3-1.3-5.2,10.1-6.9,11.8-9.2,8-3.9,8-3.9,4.2,0,5.9,1,4.6-1.6,5.9-1.6,4.6.3,4.6.3l4.2,2,5.9-.3s1.3-2.3,1.7-3.3,1.3-4.3,3.8-5.9a23.14,23.14,0,0,1,6.7-2.3l2.5,3.9a2.28,2.28,0,0,0,2.9.3c1.7-1,4.2-3.9,5.5-5.2a13.56,13.56,0,0,1,3.4-2.3l-2.5,5.5s-8,5.6-9.7,7.9-.4,2.3-4.2,4.6a29.26,29.26,0,0,0-5.9,4.6s-1.7,6.2-1.7,8.5a56.3,56.3,0,0,0,.4,8.2c.2,1.3.5,2.6.8,3.9a11,11,0,0,0,4.6-1.6c1.7-1.3,5.5-4.3,5-5.2s.8-3.6.8-3.6a4,4,0,0,0,3.8-.3c1.7-1.3,1.7-2,1.7-3.9s2.1-3,2.1-3c.2-1.2.5-2.4.8-3.6l.8-2.6-3.4-1a6.59,6.59,0,0,0,2.5-3.6l.8-2.6,6.3-.7s5.5-4.3,7.6-2.6,3.8,3,5.5,2,5.9-5.6,7.6-6.5,6.3-4.3,8.4-4.3,5.9.3,5.9.3a6.82,6.82,0,0,0,1.2-4.6,34.47,34.47,0,0,0-1.2-4.6s1.7-4.2,3.8-4.6,9.7,2.3,9.7,2.3,2.9,3.3,5,3.3,5.9-1.3,5.9-2.3a4.31,4.31,0,0,1,2.5-3.9c2.1-1,2.5-2,2.5-3S955.4,154.7,953.3,154ZM550,248a16.9,16.9,0,0,0-5-2l-4.2-1.3-1.7,1.3-7.1.6-3-3.2s1.3-2.3,1.7-3.3,2.9-4.6,4.6-5.2,2.9-1,3.8.3.4,2.3,1.3,3.3-.4,1.3,2.1,1.6a11.82,11.82,0,0,0,4.6-.3l3.8-1s0-1,2.9,1,10.1,4.9,10.1,4.9l1.3,2.3a2.29,2.29,0,0,1-2.1,2.3c-2.1.3-2.9,2-6.3.3s-3.9.1-6.8-1.6Zm19.3,66.9a36.05,36.05,0,0,0-4.2-1.6c-1.3-.3-3.4-2.3-5.5-5.2s-3.4-3.3-5-5.6-.4-2.6-.8-3.6a13.71,13.71,0,0,0-2.9-4.2c-1.3-1-1.7-3-2.1-4.6a24.41,24.41,0,0,0-2.1-4.3l.8-2,1.3.7a8.83,8.83,0,0,1,2.5,2.6l1.3,3s2.5.6,5.5,4.9,1.7,4.6,1.7,4.6a49.93,49.93,0,0,0,4.6,4.6c3,2.6,2.5,3.9,3,6.6a4.26,4.26,0,0,0,2.9,3.3l.4,2.6Zm10.5-75.4c-.8-1.3,1.2-2,2.5-3.3s2.5-1.3,3.8-1.6l5.5-1.3,3.4,1.3a7.56,7.56,0,0,1-3,2.3c-2.1,1-1.7.6-2.5,1.6a5.65,5.65,0,0,0-1.3,3.3c0,1,2.1,3,4.6,5.6l2.5,2.6s-.8,3.6-2.5,3.9-1.7,0-4.2,0,0,0-1.3-1-1.7-1-1.7-1c-.2-1-.5-2-.8-3a1.53,1.53,0,0,1,0-1.6L584,245l-1.6-2.5A14.75,14.75,0,0,1,579.8,239.5Zm18,50.1a11.79,11.79,0,0,1-5.9,0c-2.5-.7-1.3-2-3.4-4.3s-3.4-2-4.2-3a5,5,0,0,1-.8-2.6l3-1L589,280c1.3.7,1.3,1,6.3,4.6s3.3,1.3,4.2,1.6a19.65,19.65,0,0,1,2.5,1.3,11.85,11.85,0,0,1-4.2,2.1Zm17.7-49.1-1.7,2s-3.8-1.3-4.2-2.9a2,2,0,0,1,.8-2.3l2.1-1.3,5.5,2.6Zm162.1,40.1.5-.5C780,278.1,779.2,278.8,777.6,280.6ZM642.8,299.8c1,0,.5,0-.4-.2C642.3,299.8,642.3,299.8,642.8,299.8Zm-54.2,68.8-2.5-2s-3.8,3.6-5.1,5.2-2.1,4.3-4.2,4.9-4.2,1-4.6,2,.8,5.2,0,7.2-3.8,4.3-2.9,6.2.4,3.3,1.3,4.6a4,4,0,0,0,4.2,2,10.76,10.76,0,0,0,6.3-3.3c1.3-1.7,3.4-4.6,3.4-6.5a15.57,15.57,0,0,1,2.1-7.9c1.7-2.6,2.9-5.2,2.5-6.9a24.48,24.48,0,0,1-.5-5.5Zm-8.4-5.9-2.1-2s-2.5,1.3-1.3,2.6,3.4-.6,3.4-.6ZM600,351.9l1.7,1.6,1.7-2-2.5-1Zm4.6,13.4,2.5,1.3,1.3-1.6-2.5-1Zm63-42.9-2.1,1.6a20.86,20.86,0,0,1,1.3,4.9c0,1.6,1.7,3.3,2.9,3s3.8-1.6,3.4-3.3-2.5-3.9-2.5-3.9Zm-18.5-.3,2.1-1-2.1-2.3-3.8-2.3a1.87,1.87,0,0,0,0,2.6,7.64,7.64,0,0,1,1.7,2.3Zm1.3,6.9-2.9-1-.4,3,2.5.6Zm-2.5,8.5,2.5,1.6.4-2.3.8-2.6-3.8.3Zm0,7.2H650v-3.3h-2.5Zm128.1-56-1.7,2.6c-1.3,2-2.9,1.3-1.3,3.3s3.4,2.6,3.8,1,2.9-2,2.5-3.6a2.7,2.7,0,0,1,.8-2.6Zm20.6-7.2-4.2,4.3v1.3l2.5-.7a27.25,27.25,0,0,0,2.5-2.3C798.7,282.8,796.6,281.5,796.6,281.5Zm-17.7,60.6c1.3.3,6.3,1,6.7,0a27.54,27.54,0,0,1,1.7-2.9s2.5-4.6,1.7-7.2.4-2.6.4-2.6l2.5-1-.4-1.6.8-2-1.3-1-.4-1.3-1.3-2.3-1.7-2.3.4-1.6-1.7-2-3.4-1.3-4.6-1.3,2.1-2.3v-4.2s-4.6-2-5.5,0a12.42,12.42,0,0,1-2.9,3.9,10.87,10.87,0,0,0,.4,2.6c.4,1.3,1.3,3.3,1.3,3.3l-2.2,3.4a51.23,51.23,0,0,1-5.5,5.9c-2.9,2.6-2.9,4.2-2.9,4.2s-.4,1.6-3,3.3-4.6,4.6-8,5.2a18.56,18.56,0,0,0-4.6,1.3,11.39,11.39,0,0,0-3.8-2.3,4.78,4.78,0,0,0-2.9.3s.4,1.6.8,3a24.83,24.83,0,0,0,2.9,5.6c1.3,1.6,3.4,2.6,3.4,3.6s.8,1.3,2.1,1.3,1.7-1,3.8,0a22.45,22.45,0,0,0,6.3,1.6,9.7,9.7,0,0,0,3.4,0l2.5,2,1.7-2.3s-3.4-.7-3.4-2,0-5.2,2.5-6.5a5.45,5.45,0,0,0,3-3.3s-2.1-2.6-1.7-4.3,3.8-1.3,3.8-1.3,2.5-1.3,4.2-2.3,3.8-2.3,3.8-2.3,1.3-1,2.1,0,4.2,2,4.2,3.3,2.5,1.6,0,4.6-8,3.6-9.2,3.3a4.77,4.77,0,0,0-2.9.6l-4.2,4.3v2l1.2,2.3.8,2.6v1.5l1.7,2h1.7l-.8-2.3.4-2,2.5.7v1.3l2.5,1.6,2.9.6,1.3-1.6-1.3-1.3-1.7-.6s1.7-1.6.4-2.3-.8-1-2.1-2-1.3-2.3-2.5-2.6a1.71,1.71,0,0,1-1.2-1.6c.3-.2,2-1.7,3.2-1.4ZM852.5,389c-1.7-1.3-2.9-4.9-5.5-5.6a8.24,8.24,0,0,1-3.8-2l.8-2-5-4.3-.4-2.3-2.5-2.3-2.1-3-1.7-2.3v-2.3a23.93,23.93,0,0,1,2.1-1.3c1.7-1,3.8-2.3,3.8-2.3a5.15,5.15,0,0,1,3.4.7c1.3.9,2.6,1.9,3.8,2.9,0,0,5.9,3,7.6,2.6l1.7-.3s-7.1-7.5-8.4-8.8-4.6-5.2-6.3-5.6-2.5-1-3.8-1a38,38,0,0,1-8.8-2.3c-2.5-1-3.4-1.6-5.9-1.6s.4-.7-2.5,0-5.9,2.3-6.3,1-3.3-3-3.3-3l-5.9.6a45.15,45.15,0,0,0,2.5,4.9,17.1,17.1,0,0,1,1.7,3.3l2.1-.3s5.9,1,7.1,1.3,4.6.7,4.6,2.3-2.1,4.3-2.1,4.3-1.7,2.9,0,3.3,2.9-2.3,5-2.6,3.8-.3,5.5,2,1.7,3.6.8,4.9a5.6,5.6,0,0,0-1.3,4.9c.4,2.6,2.5,4.9-.8,5.2s-4.2-.3-8-2.3-4.6-1-3.8-3.9,1.3-4.3,0-4.6a9.91,9.91,0,0,0-4.2,0c-1.7.3-4.6-.6-7.6-1s-4.2.3-5.5,2a14.25,14.25,0,0,0-2.5,4.3c-.8,2-2.1,2.6-2.5,1.6a4,4,0,0,0-3.4-2.3c-1.7,0-2.5.7-3.8,1.6s-.4,1-4.2,3-5,1.3-5,2.3.8,2.3-1.7,3.6-3.4,3.3-8.4,3.6-9.2,1.3-10.5,4.3-3.3,6.6-1.3,10.5,4.2,6.5,4.2,9.5-.8,4.3,0,7.2,2.5,3.3,4.2,3.3,3.8-1,5.9-1.6,4.6.3,8.4-.7,5.5-2.6,7.2-3.6,5-1.3,6.7-1.3a27.68,27.68,0,0,0,5-1s.8-1.6,5,.3,7.6,2,8.8,3.9a28.83,28.83,0,0,0,3,3.9,3,3,0,0,1,2.1-1.3,14.68,14.68,0,0,1,4.2,1.3l3.9,2.6,2.1,3.3s2.9,3,4.6,3.3a32.25,32.25,0,0,1,3.8,1s-.4,1.3.8,1.3a3.82,3.82,0,0,0,2.5-1.3h2.5a44.07,44.07,0,0,1,5.9-2.6c1.3-.3,4.6,1,5.5-1s2.1-10.8,5-12.8,4.2-5.9,4.6-7.5-2.1-11.4-3.3-12.8a77.89,77.89,0,0,0-6.3-5.1Zm-63-36c1.7,0,.4,2.6,1.7,0l1.3-2.6h2.1l2.5-.6-1.3-2.4v-4.3l.9-1v-1.3l-.4-1.3-1.7-2.6a42.5,42.5,0,0,0-2.5,3.9,14.72,14.72,0,0,0-.4,3.6l-1.7,2-2.5,3.6.4,1.3a1.6,1.6,0,0,0,1.6,1.7Zm12.2-9.2,1.7-1.3-2.9-.7-.4,1-1.2,2,.8,4.6-.8,1.3v1l1.7.3,1.7-3.6-.8-1v-2Zm46.6,89.1a3.33,3.33,0,0,1-2.9,2.3,21.54,21.54,0,0,1-6.7-.7l-.8,1.6a5.63,5.63,0,0,1,1.7,2.6c.4,1.6-2.1,2,.4,3.6s3.3,1.6,4.6,1.3,2.1.3,3.4-2,1.7-3.3,1.2-4.3a16.4,16.4,0,0,1-.9-4.4Zm74.4-6.5a17.1,17.1,0,0,0-1.3-2.3l-4.6-2.4-.8-2.3-3.8-1a20.49,20.49,0,0,0,3.4,4.9c1.7,1.6,3.4,0,2.1,3.3a11.64,11.64,0,0,1-2.9,4.6,12.88,12.88,0,0,1,1.7,1.6c.8,1,2.1-.3,2.1,1.3a2.77,2.77,0,0,1-1.3,2.3l-4.6-.7s-.4-.7-1.7,1,2.1.7-3.4,3.6a42.22,42.22,0,0,0-8,5.2,31.56,31.56,0,0,0-3.8,4.3l2.5,2a18.44,18.44,0,0,1,2.5,2.3l3-1s4.2-1.3,5.5-4.3a14.72,14.72,0,0,1,2.1-3.9l1.7-.3,3.8-4.9c1.2-1.6,4.2-1.6,4.2-1.6l1.7-3.9a12,12,0,0,1,2.9-2.6c1.7-1,3-4.2,3-4.2l-3.4-.7c-.2-.1-2.3.6-2.6-.3Zm-47.1-43.3-1.7.6,2.1,1Zm0,24.6,2.5.3-1.7-2Zm-.8,5.5,3.4.3-2.5-2.3Zm-4.2,6.3,2.5.3-2.1-1.6Zm-419.8-232a9,9,0,0,0,1.3-3.9c0-2-1.3-2.3-1.3-2.3l-1.7,2.6-2.1,1.7.9,1.3Zm-23.9,26.8v2.9s0,.7,2.1,1.3,6.7-2,6.7-2,2.5-5.2,2.9-6.2.4-1.6,1.7-2a15,15,0,0,1,2.9-.3s1.7,0,1.7,1a8.06,8.06,0,0,1-1.3,3l-1.7,1.6.4,2-.4,1.6-1.2,3.2-.8,2s3.4-.3,4.6-.3,5.5-.6,5.5-.6l3.4-.7,2.5-1.3c1.3-.6,2.5-3.9,2.5-3.9a3.06,3.06,0,0,0-1.3-3,9.13,9.13,0,0,1-2.5-3,3.9,3.9,0,0,0-1.7-2.6c-1.2-.7-3.8-4.3-3.8-4.3l-1.7-.3a6.72,6.72,0,0,0,1.3-3c0-1.3.8-2.9-.4-3.6a20.38,20.38,0,0,0-2.9-1.3l1.7-2,1.3-3h-2.1l-1.3,1.6-5.5,1.6-.8,1.3h-3.8a4.48,4.48,0,0,0-.4,2,5,5,0,0,0,1.3,2.6,7.57,7.57,0,0,1,0,3,12.38,12.38,0,0,1-2.5,2.6,6.16,6.16,0,0,0-3.8,2c-1.3,1.6-4.2,2.3-3.4,3.9A13.48,13.48,0,0,1,426.9,214.3Zm8.4-34.7.8,2.3s1.3-3.3,1.7-4.6-1.2-1.6-1.2-1.6l-3,1.3s.8.3,1.7,2.6Zm-22.7-11.5c1.3,0,1.7-.7,3.4-1.6a5.58,5.58,0,0,0,2.1-3.3s-1.3-2-2.1-3.6-.4-2-.4-2l-2.9-2-2.5.7-2.1.3-2.1.6h-6.3l-2.5-.6a7.17,7.17,0,0,0-2.5-.7,3.23,3.23,0,0,0-1.7.3l-.8,1.3-1.7,2.3v1.6l1.3.3,2.1,1-.4,1-1.3.3-.9,1.3,1.3.7,1.3,1v3.6h5c2.1,0,2.5.7,2.5.7l3.4,1.3,2.5-2a18.79,18.79,0,0,1,1.7-1.3,4.42,4.42,0,0,1,3.6-1.2ZM502.1,54.8l1.3,1.3,1.7,1,2.5.7-.4,1.6c0,1.6,2.1,2.3,2.1,2.3s.4-.3,2.5,0a35.53,35.53,0,0,0,4.6.3l2.5.7,1.7-.3,2.5-2,2.5-2.6.8-1.3V54.9l1.3-2.3a15.23,15.23,0,0,0-4.2-.6c-1.7,0-6.3-2-6.3-2l-1.7-1-1.7-1-1.7,1.3-1.7.3-1.7-1.2-2.1-.6-2.1.3-2.1.6-.4,1.6.4,1-.4,1s-.8,0-.4,1.3-.8-.1.5,1.2Zm-21,12.1,3.8,3.3v1.4l1.2,1.3,1.7,1.3s.8,0,.8,1.3v3.6l1.3,1.3s.4-.3.4,1,0,1.3,1.7,3.3l1.7,2,4.6,3,1.7-4.9,2.5-2.6s.8.3.8-1a10.87,10.87,0,0,0-.4-2.6l.9-2L505,75V74l1.3-1.3v-1l2.5,2,.8,1.3.9,2.3-.4,1.3a2.6,2.6,0,0,1-.9,1.6l-.8,1,2.9.3s1.3-.3,1.7.6-.9-.6.4,1l1.3,1.6,1.3-1.3s-1.3.6,0-1a19.86,19.86,0,0,1,2.9-2.9s1.7,0,.8-1l-1.7-2-1.7-.6.4-2-3-1.3V71.3l-.8-1.3-1.3-.6V68.1a2.36,2.36,0,0,0-1.7-2l-1.7-.7-.4-1.6-1.3-.7-1.2-1-.8-1.3-2.1-2-2.9-2v-1l-2.1-2-1.3.6L494.4,57l-2.1-.3-2.5-.3H487l-2.9-.3-1.7.6s.4.3,0,1.3,1.3,1,1.3,2-.4,3.9-.4,3.9,3-1,.4,1ZM622.6,91.5c-4.6.7-6.3,1-6.3,1l-7.1,2.3s.8-1.3-.8,1,0,4.6-3,4.9a35.7,35.7,0,0,0-4.6.7l-.4,2v3.9a19.52,19.52,0,0,0-1.7,2.3,29.24,29.24,0,0,0-1.7,3.6,2.7,2.7,0,0,1-.4,2.3c-.8,1.3-.8,0-2.1,1.6l-2.5,3.3a14.55,14.55,0,0,0-1.2,4.2,4.69,4.69,0,0,0,2.1,3.6,6.34,6.34,0,0,1,2.1,3l.4,1a15.08,15.08,0,0,0,4.6,1.3h4.2a1.94,1.94,0,0,0,1.7-1s.8-.7-.4-1.6l-1.3-1-2.1-2.6-1.2-3.6,1.7-3s-.4.3.8-1.6a13.59,13.59,0,0,0,1.7-3.9l.8-1,.8-1,1.7-2,.4-2.9.4-1,2.1-.3a2.33,2.33,0,0,0,1.7-1c.8-1,2.1-2.3,2.1-2.3a27.87,27.87,0,0,1,3.8-3l1.3-.7s1.7-2.3,3.4-2.3a15.26,15.26,0,0,0,3-.3l5-3.6,5-2,.8-1.3.8-2.3-4.6-3s0,1-2.1,2.3a19.76,19.76,0,0,1-3.8,2c-2.1,1-.4,1.3-5.1,2Zm197,13.1,1.3,1.6,1.3.6,2.5-2.3,7.1-.7,2.9.7,2.1-1,.8-1.6,1.3-2.3.4-1-.8-1-3-1.6-1.3-.3-3.4-1-1.3-1s0-1.3-1.2.7l-1.3,2-2.9-1.6-3.4-1.6-1.7,2-1.3,2.6a17.22,17.22,0,0,0,.4,3.9Zm29.5,2c1.7,1,2.1.3,3.8.3s2.1-1.3,3.4-2.3-1.2-2.3-1.2-2.3l-3.4-1a25.25,25.25,0,0,0-4.6-1c-1.3,0-4.2-2-4.2-2l-.4,2.3,2.1,2.6a19.7,19.7,0,0,0,4.5,3.4Zm-21.9,9.5,2.1.3,4.6.3s.4-.3,2.5-.3,0-2.3,0-2.3l-3.4-2.3-1.7-1-1.7-1-.8-1.3-2.1.7-1.3,1.6,1.7,2-1.7,2ZM716.8,75.4l1.7,1.3,3-2H729a4.59,4.59,0,0,0,2.5-1,5.51,5.51,0,0,0,1.7-2l1.3-1V69.5l-1.7-2s2.1.7-.8-1.3-5.5-3.9-5.5-3.9L724.4,61l-1.3,2a4.36,4.36,0,0,0-1.7,1.6c-.8,1.3-1.7,2.6-1.7,3.6a5.74,5.74,0,0,1-.8,2.9C718,72.8,716.8,75.4,716.8,75.4ZM698.3,50.5s.4,2.3-.8,2.6a7.45,7.45,0,0,0-2.5,1.3l.4,2s.4,1.6,2.9,2.6,1.3.3,1.3.3l2.5,1.3,1.7,1.6s1.3,1.6,2.5,2.9,0,0,1.7.7a4.65,4.65,0,0,1,2.1,1.3l4.2,1.3a5,5,0,0,0,3.3-1.6c1.7-1.6,1.3-4.3,1.7-5.6s0-4.3,0-5.2a.89.89,0,0,0-.8-1h-.1l-2.5-1s-2.5-2.3-2.9-4.9.8-3.3.8-3.3a27.87,27.87,0,0,0-3.8-3c-1.7-1-2.5-4.6-2.5-4.6l-2.1,1.6-2.1,1.3h-2.5v1.6l-.4,3L699.2,47l-1.6,2.3Zm42.5,25.2-2.1-2h-2.9l2.1,2.3Zm0,7.6L738.7,81l-3.8,1.3,4.2,2Zm74.3,18,1.2-1-.8-4.3h-2.1s.4.3.4,2.3a4,4,0,0,0,1.3,3Zm1.7,10.1-3.8-3,1.3,3.3Zm31.9-24.2-1.3,2.9,4.2-1.3ZM697.4,40.4l-2.5-2-1.7,1.3,2.1,2Zm-30.6,4.5-3.4-1.6-1.6,1.3,2.5,1.6Zm-93.3,3.6,2.9.3s1.7.3,2.1,1.3a14.52,14.52,0,0,0,1.7,2.6l3.8,1.7,2.1,1,4.6.7V54.4l-3-3.3,2.5-.3,1.2.3,1.3.3,2.1.3h1.3l3.3-.3h2.5v1l2.1,1,3-.3.4,1,.4,1,1.2.3,2.1-.3.8-1,.8-1.3-.8-1-1.7-1.6-1.3-.6-.8-1,.4-1,.4-1,1.3.3,1.7,1,2.1.6h1.3l1.7-1,1.7-1.3,1.7-.3,2.1-.3,1.3-.7,1.2-1,1.3-.7.4-1,.4-2.6V38l-.4-1.3-1.3-.6h-2.1l-1.7,1.7-1.7,1.3s-1.7.7-1.3,1.6l.4,1V43h-1l-.8-1.3-2.5-.3-1.3.7-2.9,1.3s-.8,1.3-1.3,0l-.4-1.3-1.3-2.3.8-1,1.3-.6.4-2-1.3-1.6-.4-1L610,31l-.8-1.3-2.5,1V32l-.8,1.3-.8,1-2.5.7-2.1,1.6.8,2v1.6H600l-1.3-1-.4-1h-1.7l.8,1c-.8,2.6-.8,1.3-.8,2.6v1.3l.4,1.3,3,1.6,1.3.3,1.7.3,1.3,1.3-2.1,1-2.5-.6L597.2,47l-1.7.7-1.3,1L593,49s0,.7-1.3,0l-1.2-.6a13.52,13.52,0,0,0-.4-2.9l-.4-1.6v-2l-.8-1.3-1.3.6c-2.1,1.3-.4,1-2.1,1.3s.4.3-1.7.3h-2.1l-4.6.6-3,.3L572.4,45l-1.7,1.6.8,1.3ZM608.8,42l.3.6A1.63,1.63,0,0,1,608.8,42Zm.3.6C609.5,43.3,609.3,43,609.1,42.6Zm15.2-9.1v-2l-1.2-1h-1.3l-2.5.3-.4,1,.8,1Zm-83.2,21,3-2-1.7-1.3-5.5,1.6-1.7.6,2.5.7ZM529,67.9l4.6-1-2.5-1.3h-3.4Zm53.3,74.7c0,1,2.1,1.6,2.1,1.6l1.7-1.3-.4-1.6-3-.7A6.47,6.47,0,0,0,582.3,142.6Zm-188.6-5.9-5-1.6-1.3-2.3s-.9-1.6.4-1.3a9,9,0,0,1,2.9,1.6l2.5.6,2.1.3a35.7,35.7,0,0,0,.4-4.6,16.13,16.13,0,0,0-1.3-4.9l-.8-1.6s4.2-.3,4.2-1.3a6.31,6.31,0,0,0-.8-2.3l-5-4.3s3.8,1.3,5.9,0a4.16,4.16,0,0,0,2.1-3.3l.4-3.3,3.4-1.6s-2.5-2-2.1-3l.4-1,5,1V99.9l-3-.6s-1.3-.3-2.1-2.6l-.8-2.3,2.5-2.3s3.4-7.5,1.7-8.8a8.22,8.22,0,0,0-3.4-1.6l-.8-3,2.9-3.3V72.1a6.47,6.47,0,0,1,.4-2l1.3-2.3s-.8-2.6-1.3-1.3-2.5-2.9-2.5-2.9V59.3l.8-1.3,2.5-1.3s1.7-2,.4-3.6,2.3-1.7,2.3-1.7l2.5-2.3-1.7-3s5.5-.6,5.5-2.3a22,22,0,0,1,.4-3.6s4.2-3.3,5.5-5.2-4.2-4.6-4.2-4.6-2.5-1.6-4.6-1-1.3-.3-4.2,2.6l-3,3-3.8.3-2.1-2.9-1.2.6-.4,1.6s-2.1,1-2.5,2A5.26,5.26,0,0,1,393,38c.6-2.6,1.6-6.9,1.6-7.6a3,3,0,0,0-2.1-3c-1.7-.6-3.8-1.3-3.8-.3s-2.1,2.3-2.5,3.3.8,1.3-1.7,2,0-3.9,0-3.9H374.4a9.42,9.42,0,0,0-5,.3c-2.1,1-5,2-5,2a3.6,3.6,0,0,1,1.3-2.3c1.3-1.3,5-2.3,6.7-2.3h7.1l4.6.3a16.53,16.53,0,0,1,4.6-2.3,11,11,0,0,0,5.5-3.3c.9-1.3,2.1-2-.4-3.9s-2.9-1.6-5.5-3.3a15.42,15.42,0,0,1-4.2-4.6s-2.1-1.6-2.5-.7a3.75,3.75,0,0,1-1.7,1.6l-5-.7s.1-.5-.7-.8c3-.6,5.7-1.2,5.7-1.2l2.9-1a1.73,1.73,0,0,0-1.7-1.6c-1.7-.3-1.3,1-3.8-.7a17.21,17.21,0,0,0-3.8-2L368,.7,363,0l-5,.7a5.26,5.26,0,0,0-4.2.7,28.22,28.22,0,0,1-4.6,2.3A2.5,2.5,0,0,1,347.5,5l-1.3.3a23.21,23.21,0,0,1-3.8.7,21.34,21.34,0,0,0-4.2,1,1.27,1.27,0,0,0-1.7.3h0l-.8,1s2.5.7-2.1,1.3l-4.6.7-1.7.6-.4,1.6.9,1c.6.5,1.2,1.1,1.7,1.6l1.3,1.3,1.3,1.6a8,8,0,0,1,1.3,1.3l.9,1v1.3l-.9,1.3-1.3,1.3a3.17,3.17,0,0,1,.4,1.6v1l-1.3.7-3.4-1.6a19.52,19.52,0,0,0-1.7-2.3,34.65,34.65,0,0,0-2.5-2.6l-.4-1-1.7-.3h-3.4l-.8,1s-1.2.3-1.2,1.3v1c-.2-.2-.4-.3-.6-.5-.1,0,0,.3,1,1.8l2.1,2.9-3.4-3.3-2.1-1.3H311l-2.1-.3h-1.3l-4.2,2a7.5,7.5,0,0,0-4.2,0,23.56,23.56,0,0,1-3.8,1l-.8,1.3-.4,1-2.1,1-1.7,1.3-.4,1.3a2,2,0,0,1,.4,2l-.4,1-.4,1.3v1.3l-1.3.6-1.3,1-2.5,2a12,12,0,0,0-2.9,2.6c-2.1,2.3-2.5,3.3-5,4.9s-1.7,1.6-1.3,3,.4,2,1.7,2.6a10,10,0,0,0,2.9,1,1.71,1.71,0,0,1,1.7,1.8v.2c0,2,.8,3.9-.4,4.9s0,1.3-3.4,2a25.68,25.68,0,0,0-5.9,2,9.56,9.56,0,0,1-5,3.6,19.08,19.08,0,0,0-5.9,2.9s.4,1,1.3,3.3,0,.3,2.1,2.6,7.1,2.9,6.7,3.9a10.3,10.3,0,0,1-2.5,2.6s-2.9-1.3-2.9,0a18.59,18.59,0,0,0,.4,3.3,8,8,0,0,1,1.3,1.3,42.63,42.63,0,0,0,4.2,4.3c1.7,1.3,2.5,2,3.8,1.6a21.12,21.12,0,0,1,5-1c1.7,0,4.6-.3,4.6-.3a5.28,5.28,0,0,1,2.5,0c1.7.3,1.3,1.3,3.8,2s7.6,2.6,8.4,5.2,2.1,3.9,2.5,7.9,1.7,4.6,2.1,6.2,3.4,5.2,2.5,8.2-1.7,3.9-.4,4.6a10.89,10.89,0,0,0,2.5,1s5,0,5.9,1.6l.8,1.6-5.5.6a9,9,0,0,1-.8,3.6c-.8,1.3-.8,3.6.8,4.3s2.5,1.6,3.8.7,2.5-3,3.4-1.3-2.5,4.6-2.5,4.6-2.5,2-2.5,4.2,0,6.5.9,9.2,0,1,2.1,4.9a41.66,41.66,0,0,1,2.9,6.5s0,3.6,2.1,5.6a32.57,32.57,0,0,1,5.5,6.2l1.7,2.6a4.08,4.08,0,0,1,3.4.3c2.1,1,3.8,2.3,5.5,3s2.1,1.3,3-.6,2.1-1,2.5-4.9.8-6.2.8-6.2,2.5-1.3,2.9-2.9,1.7-4.6,2.1-5.9,0-2.6,2.1-3.6a15.73,15.73,0,0,1,4.2-1.3l3.4-.3,7.6-5.9c1.7-1.3,4.6-7.5,4.6-7.5s12.6-1,14.7-2.6l8.4-6.5ZM197.9,55.1l4.2,4.6,2.1,3.3-.9,1,.4,2.9,2.5,3.6v1.6l4.2,2.6a15,15,0,0,0,2.9.3,13.31,13.31,0,0,0,3.4-1l3.4-.3,4.2,2.3.4,1.6-3.4.3-2.1,2,2.1,3.6L220,84.8s-2.5,1.3-4.2,2-2.1.6-4.6.6-2.9-.3-2.9-.3-5.5-1.6-7.6-2.3-2.9-.3-2.9-.3l-2.1,2s2.5,3,3.4,4.3a47.31,47.31,0,0,1,2.5,6.6l-2.9-1.3a5.78,5.78,0,0,1-2.1-2c-.4-1-1.7-2.3-1.7-3.3s-1.7-2-1.7-2l-2.9-1h-2.6a14.48,14.48,0,0,1-3.4,2c-1.7.6-1.7,1.6-1.7,1.6l-2.5-1.6a2.48,2.48,0,0,0-1.6-1.4c-1.3-.3-2.5,1.3-2.5,1.3s1.7,3.6,2.9,5.6,5.9,3.9,5.9,3.9a37,37,0,0,0,2.5,4.3c.8,1,5.5-.7,5.5-.7l2.5-2.6,1.7.6a8.52,8.52,0,0,0,.4,2.3c.4,1.3.8,1,2.1,2.3s2.5,1,4.2,1.3,2.1,0,3.4-2.3-2.5-6.6-2.5-7.5a21.34,21.34,0,0,0-1.3-4.3,20.21,20.21,0,0,1,3.4.6c2.1.6,2.1,3.9,2.1,5.6s-.4,2.6-.4,3.9,3.8,3.3,5,3.6,3.4.6,5.5,1,2.9,1,5,1a29.66,29.66,0,0,1,4.2.3l4.2-2s2.9.6,4.2,1,3.8-1.3,5-1.6,1.3-2.3,1.3-2.3.4-1-.8-2.6,0,0-.8-1.6-.4-1-1.7-2-1.7-.7-2.9-1a7.19,7.19,0,0,0-2.9-.3,23.21,23.21,0,0,0-4.6.7c-1.7.3-2.1,1-3.8,1.6a7.24,7.24,0,0,1-4.6,0c-1.3-.3-4.6-2.9-4.6-4.6s.8-1.6.8-1.6,3.8-.3,5.5-.3,4.2.3,5.5.3a7.61,7.61,0,0,1,2.1.3l5-.7a9.47,9.47,0,0,1,2.9-.7,1.94,1.94,0,0,1,1.7,1,6.38,6.38,0,0,1,2.5,3.3c.8,2.3,0,0,2.1-1s.4-3.3.4-3.3a2.6,2.6,0,0,0,2.5-1.3c1.2-1.6-.8-2.9-1.7-3.9s-2.5-2.6-2.5-2.6a13.52,13.52,0,0,0,4.2-2c2.5-1.6-.8-3.9-.8-3.9a49.58,49.58,0,0,0,6.7-1.3c2.1-.6.4-2.3.4-2.3l2.1-3.6V69l.8-2.6-.8-1-.8-1.3V61.2l2.1-2.3,2.5-.6,1.7.3c1.7.3,1.7-.3,1.7-.3l2.1-2.3.4-2.3a30.83,30.83,0,0,0,4.8-3.2c1.7-1.6,3.4-4.9,4.6-6.9s4.6-4.6,5-5.6,1.1-2,1.7-3H280c-1.3,0-4.2.3-4.2.3L274.6,34s7.6-1.6,8.8-2,2.5-2.3,5-4.2,2.5-2.3,2.9-3.3,0-2,0-2.9a1.34,1.34,0,0,0-.8-1.3L288,20l-1.3-3.3-.8-2-4.2-1.6-4.6.3a7.11,7.11,0,0,1-3.4-1.3c-2.1-1.3-3-1-4.2-1.3s-4.2-.7-4.2-.7l-4.6-.3H255l-3.4,1-3.4,1-3.8.6-1.7.6h-2.9l-3.4.3-2.5,2.3-2.1,3-.4,2-3.4.3-2.1-.3c-2.1-.3-1.3.6-1.3.6l-2.5,3.6-2.5.7-2.9,1.3c-2.9,1.3-2.5,1-2.5,1l-2.5,2-2.1,2.6.4,2.3h2.1l.4,1.6,1.7,1.3-.4,2.3,2.5,4.9a27.1,27.1,0,0,0,4.2,2,3.75,3.75,0,0,0,2.1,0l3.8.7,1.7.6s4.2,0,5.5-.6a14,14,0,0,1,3.4-1.3c1.3-.3,4.6-3.3,4.6-3.3l.8-1.3L244,39l-.4,3.5.4,2.3-2.5,1.3-3.8,1.2-.8,1a7.71,7.71,0,0,1-2.9,1,1.05,1.05,0,0,0-1.2,1l-1.7,1.3-2.9-.3h-4.6a24.69,24.69,0,0,1-2.9-1,11.34,11.34,0,0,1-3.4-2.3,37,37,0,0,1-2.9-2.6s-.4-1.3-.7-2.5c-.2-.7-.4-1.3-.5-1.8-.4-1.3-5.5-3.6-5.5-3.6l-5,.6.4,2.6L201,42l-.4,4.6-2.1,1.3,1.7,3.9-.8,2.6Zm-7.6,2.6,2.5,1.3s1.3-1.3,1.3-1.6V54.1l-4.2-1h-3.4l2.1,2.6ZM199.6,78a4.48,4.48,0,0,0,3.8-5.6,9.3,9.3,0,0,0-2.1-2.3l-3.4-2H195v5.6c0,1.6-.4,2,.8,2.9s.4,2.1,3.8,1.4Zm6.7,3-.4-2-4.6-.6-2.1,1-.4,2.3,5.5.6Zm10.1.6-2.5-2-1.7,1.6-.8,1.3,1.7,1.6,2.9-1ZM176,68.5l.4,1-.9,2.3v1l3.8,2,2.1-.3,1.7.7.4,1.3-2.1,1.3,1.2,1.6h2.1l6.3-2.6-.8-3.6-2.1-2.3-.8-2.3-1.7-2-3.8-1.3-2.5-2.6-2.1-1-2.5-1.3L173,62.7l-.8,2,2.1,2.6Zm2.1,14.8a9,9,0,0,0-4.6-5.6s-.4,3.3-.4,4.9a7.84,7.84,0,0,0,1.3,3.6H179Zm-23.9-1.4s2.5,1.3,4.2.7a10,10,0,0,0,2.9-2s-.4.3.4-1a6.31,6.31,0,0,0,.4-3.6,17,17,0,0,0-5.9,1,7.91,7.91,0,0,1-3.4,1s0-1-2.1-1.3a2.72,2.72,0,0,0-2.9,1l2.5,2Zm2.9-7.8s2.9-1,4.6-.3,1.7-2,1.7-2l-3.4-2a9.4,9.4,0,0,0-3.3.8,24.71,24.71,0,0,0-4.6,2.3,8.84,8.84,0,0,0,5,1.2Zm3,17.3,1.7,1.6,1.3,2.6.4,2.3-3.8.3s-1.3-3.6-3.8-5.2a13.81,13.81,0,0,0-5.9-2l-3.4,1-.4,3.6-.8,1.6-1.7,2.3v2l2.5,2h2.1l2.9-.3h2.1l-1.7,2.2,1.3,1.6s0,.6,2.1.6,4.6.7,5-.3a8.58,8.58,0,0,1,1.3-2s2.9-.3,4.2-.3,2.5-.3,3.8-.3,4.6-2.9,4.6-2.9l1.7-2.9V96.3l-5-2.9-2.5-1-.8-1.6-2.1-3.9-1.7,2.7Zm14.3,11.5,1.7,1s2.5-1,3.8-1.6,0-2,0-2h-3.4Zm-45-6.5,2.1-.3,2.5.3s3.8-2.3,4.6-3.9,1.3-1.6,1.3-1.6v4.5c0,2-2.1,3.3-2.1,3.3h3s1.3-4.6,2.5-6.2,2.1-2.3,2.9-3.3.4-3.6.4-3.6V79.4s-3.4,2.9-6.3,2.9h-2.9l-2.9,2.6-1.3,2-2.1,2.3a35.06,35.06,0,0,1-2.9,3.6c-2.1,2.3-.8,1-.8,1Zm58.8,38.3c0,.3-.1.5-.1.8,2.3.3.1-.8.1-.8Zm-63-4.9.8,1.6,2.5-.6,3.8-.7.8-2.3.8-2.3,2.1-2,1.3-.7,1.7-.6v1.3l-.4,2,1.7,1.6,1.3,1.6-.9,1.3s-1.2,0-.8,1l.4,1s1.3,2,2.5,2.3,3.4.7,3.4.7a12.85,12.85,0,0,1,3.4-.7c1.7,0,.9-.7,3.4.3l2.5,1a9.4,9.4,0,0,1-4.6,1.3H142s-4.6.3.8,2.3,1.3,1.6,1.3,1.6l6.3.7,1.2,1,4.2,3h5.5s-.4.7,1.7-1,1.3-2.3,4.2-2a17.71,17.71,0,0,0,4.6,0,39.72,39.72,0,0,1,8.4.7c2.9.6,2.1,2,2.9.6a27.3,27.3,0,0,1,2.1-3,13.06,13.06,0,0,0,2.1-3.6,13.35,13.35,0,0,0,.7-1.8c-.5-.1-1.3-.2-2.4-.4-5.9-1.3-6.3-2.3-6.3-2.3l-1.3-3.6s-2.1-5.2-2.1-6.2V119l1.3-3.3s-.8-2.3-2.1-2.6a18.7,18.7,0,0,0-3.4-.3l-2.5,1.6s2.5,1.6,1.3,1.6a25,25,0,0,0-3.8.6l.4,5.2s-2.1-1.3-3.4-2.3l-1.3-1-3.8,2.6s.4-1.3-2.1-2a24.39,24.39,0,0,0-4.6-.7l-.4-2.3a2,2,0,0,0-2.1-.6,3,3,0,0,1-2.5-1l-4.6-4.9s-1.7-1.6-2.9-1.6-4.2.3-4.2.3l-4.2-1.6s.4,1-2.1,1-5.9.3-5.9.3v2a5.7,5.7,0,0,1,0,2.6,24.83,24.83,0,0,0-.4,4.9,9.17,9.17,0,0,1-1.3,3.6,9.33,9.33,0,0,0-1.2,3.3l2.5,2.3ZM184,118.3l-1.3.3-.4,2.6a62.64,62.64,0,0,1,5.9,4.6,27.92,27.92,0,0,1,4.2,4.9l2.9-3.9,2.9-1.3s.8-4.3,0-5.9-.4-4.6-.4-5.6,0-1.6-1.7-2.6a8.61,8.61,0,0,0-3.8-1l-5.9,2.6-.9,2s3.4,2.3,1.7,3.3a3.06,3.06,0,0,1-3.2,0Zm157.6,230c-2.1-.3-3.4-2-6.7-3s-6.3-1.6-6.3-1.6l-6.3-2.6s0-2-2.5-4.3-2.9-4.3-4.6-4.6a55.63,55.63,0,0,1-5.5-1.6l-8-2-5.9-4.2-2.5-3.6-3.8-.7-7.1.3-3-1-7.6-4.3-1.7.6-2.5.7s-6.7-.3-4.2,0-2.5,1-2.5,1l-2.5,1-3.8,2.3s-1.9,1.8-2.8,2.7c-.3-.3-3.9.6-3.9.6a20.48,20.48,0,0,0-4.2-.7,40.41,40.41,0,0,1-5.9-1l-2.9-2s-.9,1-.9-2,.9-1-.4-5.2,3.8-5.6-4.2-5.2-8.8-.7-8.8-.7l-3.8-2.2-.8-2,2.9-.3c-2.9.3,5.5-2.3,5.5-2.3l-.4-3h-7.2s-2.5,3.3-2.1,2.3-3.8,4.9-3.4,3.9-5.9,2-5.9,2l-5-1.6s-4.6-9.2-4.2-10.5a27,27,0,0,0,.4-4.9l.4-4.9,5.9-3.6s6.3-2.6,8.4-1.3,5.9.6,5.9.6,4.6-2.3,5.9-2,4.2,1.3,4.2,1.3l3.3.6c-3.2-.6,4.6,3,4.6,3.9s-.4,4.3,1.7,5.2a11.76,11.76,0,0,0,4.2,1s2.9-5.2,2.1-6.2-6.3-7.5-6.3-7.5,8-5.6,8.8-6.5,4.2-1,6.7-4.3,2.9-8.5,2.9-8.5,10.1-6.2,5.9-4.9,7.6-3.9,7.6-3.9L268,245s7.1-4.6,8.8-4.6a2.25,2.25,0,0,1,2.1,1.6s2.5-.3,5.5-.7,8.4-3.3,8.8-4.6,1.7.3-3.8-2.6-5-4.9-5-4.9-1-1.8-1.4-2.8a23.63,23.63,0,0,1-4.5-.8l-2.1-1s5-2,6.3-2a4.07,4.07,0,0,1,2.5,1.3s1.7,2.3,2.9,2.6a7,7,0,0,0,2.9-.3l.4-1.6a3.75,3.75,0,0,1,2.1-1.6,12.1,12.1,0,0,0,4.2-1.3c1.7-1,4.6-2.3,4.6-2.3s-5.9,8.5-5.5,9.5a4.59,4.59,0,0,0,3.8,2.3,34.49,34.49,0,0,1,5.5.7l-.8,2.5c.1-.4.8-1.8,3.3-1.2a49.76,49.76,0,0,1,5.5,1.6s.2-2.2.3-2.9c-.2-.8-.8-4.6-.8-4.6l-1.3-2.3-3.9-1.2-2.5-1-.8-2.3.4-4.3s-1.7-5.2-2.5-6.2l-1.7-2a58.67,58.67,0,0,1-6.7-4.3c-2.1-1.6-4.2-5.6-4.2-5.6l-1.7-4.3s-6.3-8.2-4.2-5.9-1.7-4.6-1.7-4.6-4.2,3-3.8,3.9-.8,2.3-2.1,3.3a5.34,5.34,0,0,1-2.9,1s-2.5,0-3.4-3.9a22.7,22.7,0,0,0-2.1-6.2l-5-3-3.8-2.6-4.2.3-5.9-.7-1.7,1.6s-.9,5.9-.4,3.9,0,3.3,0,3.3l-1.3,5.2.8,3.9s6.7,3.9,1.7,8.2l-5,4.2v4.9c0,1.6,2.9,6.2.4,6.9s-3.8,1.6-5.9-1-2.1-5.9-2.5-8.2-3.4-4.2-3.4-4.2l-5-.7a19.84,19.84,0,0,0-8.4-4.6c-4.6-1-9.7-2.3-9.7-2.3l-2.9-5.2c2.9,5.2-3.4-2.6-3.4-2.6s2.5-9.2,3.8-10.5c1.7-1.5,3.6-2.9,5.5-4.3l1.7-2.6s4.6-1.6,5.9-3,2.5-5.6,2.5-5.6l3.8-.7a19.9,19.9,0,0,0-2.9,3.6c-.8,1.6-4.2,1-.8,3.6s4.6,2.6,4.6,2.6l3.4-1.6,2.5-1,5.9,2.3,2.1-1.6a15.27,15.27,0,0,0-3.8-4.2c-2.5-2-4.6-3.9-4.6-3.9l-.4-3.9s1.3-1,3.4-2.3,2.1-5.2,2.1-5.2l-.8-3.6,1.3-2s-.8-3.6-1.7-4.3-2.5-2.3-5-2.3a9.4,9.4,0,0,0-4.6,1.3v3.6l-.8,2-1.7,1.3-.8,1.6v3l-1.7-.3-1.8-2.6.9-2.6-.9-2s.4-1-1.7-2a10.21,10.21,0,0,0-3.8-1l-4.2-2,.4-3.3-3.8-6.5s-1.3-3.3-1.7-4.6,2.1-3.9,2.1-3.9l3.4-1s.4-4.6,2.1-6.2a5.55,5.55,0,0,0,1.7-3.6l-5.5.3-2.5-.7-3.8-.3-.9,1-1.7,4.3s-.4,3.3-.4,4.9.9,6.9,0,8.5a30.24,30.24,0,0,1-2.1,3.3l-1.3,2.6,1.3,3.6,2.1,1.6,4.2,1.6.4,2.3-2.1.3-2.1-1.6a40.47,40.47,0,0,0-3.4-2.3l-3.4-.7-.8,1.3-2.9,2-.8,1,4.6,3.3-2.9,2-.4,1.6c-1.5.3-3.1.5-4.6.7a13,13,0,0,1-6.3-2.3l-4.6-3.6-3.4-.7s-2.9,1-4.2,1.3a5.64,5.64,0,0,0-3.4,2.3c-.5,1-5,2.6-7.6,3s-6.7-1.3-6.7-1.3l1.7-3-2.9-2.3-3.4-.6-3.8-.3-9.2-3s.8-1-2.1-.7a12.29,12.29,0,0,0-4.2,1,3.32,3.32,0,0,0-1.3-2.6c-1.3-1-2.9-1.6-2.9,0a5.63,5.63,0,0,1-1.2,3c-.6-.5-1.2-1.1-1.7-1.6-1.3-1.3-3.8-3.6-3.8-3.6l-2.1-2.3a3.17,3.17,0,0,0-.4,1.6v1l-1.7.6h-3.7l-1.3,1-1.3.3-1.3.3-2.1,2-1.7.3-2.1-.3s-1.7-.7-2.5.3a35.84,35.84,0,0,1-2.9,2.6l-2.1.6-5-3-4.2-.3s-6.3-2.9-9.2-2.3a13.94,13.94,0,0,1-5,.3l-2.5-1-5.9-2s0-.3-1.7-.3.8-.3-1.7,0-5.6-1.3-5.6-1.3l-1.3-1H45.9c-1.3,0-1.3-1-2.9-1.3l-1.7-.3-4.2-.6-2.5,1.3a41.93,41.93,0,0,0-5,.3c-1.3.3-2.1,3.9-3.4,3.9s-3.8,2-3.8,2l-5,3.9-4.6,2-1.3,1.6s-.9,2.6.4,3.3l1.3.7,2.1,1.3,2.1,2,2.1,2.2,1.7,1,1.3,1.6-.4,1-2.5-1-2.9-1-1.3.6s-2.1,1-3.4,1.6l-1.3.7-2.5,2,.8,1.6.9,2,.8,1,1.7,1,2.1.7H21l1.2-.4s-.4-.6,1.2,0,3.4-.3,2.1,2-1.7,2.6-5,3.9-3.8-1-5.9,3.3-2.1,4.6-.8,6.5,1.7,3.6,4.2,4.3,2.5-.3,4.2.7,1.7,2.6,2.1,3.6,4.6,2.3,5.9,2.3a30.34,30.34,0,0,0,4.2-.6c1.3-.3,0,1.3-.4,3s-3.8,4.6-5.9,5.9-6.3,1-8.8,3a69.89,69.89,0,0,1-7.6,4.9C9.1,211.2,0,216.1,0,216.1s12.2-2.3,15.5-4.6,5-3.3,5-3.3l1.2,1s0,.3,2.5-1l2.5-1.3,1.3.3s2.9,1.6,2.9,0v-1.8s2.5-3,4.2-3.3,6.3-3.9,8-5.9,2.5-3.3,2.5-4.6a5.32,5.32,0,0,1,2.5-4.6c2.1-1.3,3.4-2.3,3.4-2.3L49,189.9s-3,6.2-4.2,8.2a19.62,19.62,0,0,0-1.7,3.2s1.7,1.3,2.9,0l3.8-3.9c1.3-1.3,2.1-1.6,1.7-2.9s-.8-1.6.4-3,5.5-5.1,8.8-5.1,9.7,1,11.8,1,9.2.7,12.2,3,5,3.9,6.7,6.9a24,24,0,0,0,12.2,10.5s4.2,3.3,5,4.6,2.5,1.3,3.8,4.6.4,3.6,1.3,4.6,1.2,1,6.3,5.2,5,8.2,5,8.2-.8,9.8-1.2,12.4-.8,5.2,0,7.2,2.1,2.6,4.2,4.6a23,23,0,0,1,4.2,4.6,18.88,18.88,0,0,0,6.3,5.6l2.9,1.6a41.06,41.06,0,0,0,2.1,3.6c1.3,2,0,2.3,2.1,3.9s4.2,1,4.2,2.6-.4,2.9.8,3.9,1.7.3,3.4,1.6a3.9,3.9,0,0,1,1.7,2.6l2.9,1.6s1.7,1.6,2.9,3,2.5,1,2.5,0-1.7-5.2-3.4-6.5-1.7-2-3-3-3.4-3-3.4-3-4.6-3.3-4.6-4.9a2.73,2.73,0,0,1,1.7-2.3l2.1,2a45.66,45.66,0,0,0,6.3,6.9c3.8,3.3,5.9,5.6,8,7.2s3.4,1.3,4.6,3.3a7,7,0,0,1,1.3,4.2c0,1,1.3,3.3,4.2,5.6s13,5.6,20.2,7.2a53.32,53.32,0,0,0,10.5,1.6l1.3,1.6,2.1,1.3a5.28,5.28,0,0,0,2.5,0,15,15,0,0,1,2.9-.3s0-.7,1.7.6l4.6,3.6a9,9,0,0,1,1.7,2.6c.4,1.3,4.2,1.6,5.9,2.9s1.3,2.3,2.9,3.3-2.9,1,3.8,1.3a56.3,56.3,0,0,1,9.2,1s1.7,1,.9,3.9a21.52,21.52,0,0,1-5.5,8.5c-2.1,2-2.5,1.6-2.9,4.9s-1.3,2.9-.8,5.2,3.4,4.9,6.3,8.5,4.2,6.9,7.1,11.5,4.6,4.9,10.5,7.5,5.5,5.2,5.5,5.2-2.1,17-2.9,18.7-.8,13.1-3.8,17-3.4,13.1-3.8,14.4,0,3.6-1.7,6.2-1.3,5.9-1.3,7.9c-.2,2.3-.4,4.6-.8,6.9a13.45,13.45,0,0,0-.4,6.9c.8,3.3,0,3,.8,5.9a14.54,14.54,0,0,0,4.2,6.9,36.69,36.69,0,0,0,8.4,5.2c3.4,1.3,6.3,3,8,2.3a32.51,32.51,0,0,0,5.5-3.6l6.3-.7s-7.1-2-9.7-3.9-1.7-2.9-2.9-4.9a13.34,13.34,0,0,1-1.7-4.3v-2.3l1.3-.7,1.7-2.9,1.7-2,3.4-3-.4-2.3-3.4-2.6.8-2,2.5-1.6,1.3-.3s.8-3.3,2.1-3.9a11.84,11.84,0,0,0,2.9-3s-2.5-1-2.9-2,2.5-1.6,3.8-2,3-1,3.4-2.6,2.6-2.7,2.6-2.7,8.8.3,10.1-2,.4-4.9,0-6.6a3,3,0,0,1,.4-2.6l7.6.7,3.8-1.6,3.4,1a5.7,5.7,0,0,0,0-2.6c-.4-1,0-3.9,0-3.9s2.9-3.3,4.6-4.9,3.8-1.6,3.4-4.6a9,9,0,0,1,4.2-8.5c2.9-1.6,12.6-2.6,12.6-2.6s2.5-1.6,2.9-3.3,2.9-3.6,2.9-3.6,2.1-4.9,2.9-7.5a32,32,0,0,0,.9-7.5s8.4-5.6,8.8-7.5a57.93,57.93,0,0,0,.4-7.2,23.05,23.05,0,0,1-5.5-2.6c-2-1.5-12.9-4.2-15-4.5ZM219.1,302.7h0ZM314.7,232h0c-.2.3,0,.3,0,0Zm-31.5-5.9c-.5-.5-.4-.1-.1.5.3-.1.4-.2.1-.5ZM241.6,139l2.9-.3v-1l1.7-1,1.7,2-2.9,2V144l1.7-2.3c2.5.7,8,2,8,2h-4.2l.4,1a7.61,7.61,0,0,1,2.1.3c1.3.3,2.9.3,3.8,1.3l.9,1h-2.1l-2.1.3s-3.4-1-3.8.7a14.78,14.78,0,0,0,0,4.2h3.8l.8-1,1.7-1.3h3.4s.8-.7,1.3.6,2.1,2.3,0,3.9a16.68,16.68,0,0,0-3.4,3.6l-.4,2.6s2.5.6-2.9,1.3-6.3.6-6.3,2,.4,4.3.4,4.3l-1.3,2.6,4.2,1.3-.4-3a15.08,15.08,0,0,1,4.6-1.3c1.7,0,3.8,1.6,3.8,1.6s4.6,4.9,8.8,6.5a38.62,38.62,0,0,0,7.6,2c1.3.3,4.6,1.3,4.6,1.3v-3l-1-1.6-.7-1,3.4,2,2.9-5.2s-1.3-4.9-3.8-6.2-4.6-4.6-4.6-5.6v-1l2.9,2a11.53,11.53,0,0,0,3.8,3.1l2.1,1,2.1-1.6a13.43,13.43,0,0,1,3.4-2.9c2.1-1.3,0-5.9-2.1-6.9a53.86,53.86,0,0,1-6.3-4.3l-2.5-1.6-4.2-2.6.9-1.3.4-2s-2.9-1.3-1.7-2,0-3.9,0-3.9l-4.2-3.6-2.5-.6a12.21,12.21,0,0,1-2.5-2,17,17,0,0,0-3.4-2.6,20.38,20.38,0,0,1-2.9-1.3l-1.3-.7-2.1-2.3-2.1-1.2c-2.5-1.3-2.5-2.9-2.5-2.9l-2.5-3.9-5-1.6s-.4-.3-2.1,0-4.6.7-4.6.7l-3.8-.7-1.7.3a4.59,4.59,0,0,0-2.5-1h-5s-3.8,3.3-5,4.3-2.5,2-2.5,3.6a42,42,0,0,1-1.3,7.9c-.4,1,1.3,2.3,1.3,2.3l.8,2.3s0,.7,2.5,3a8.58,8.58,0,0,0,5,2.3s6.3-.3,8.4.6a9,9,0,0,1,3.4,3.3l2.5-1.6Zm54.6,327.9s-.8,0-2.1,1.3,0,2,0,2l2.5.3,4.2-.3,2.1-2.3-3.4-1.4Zm-45-170.7a12.1,12.1,0,0,0-4.2-1.3l-2.1-.3-3.4-1.3-2.9-1.3-2.5-.6-2.1,2-.8,1.6,2.1.3,4.6,1s4.6.3,6.3,1.6a9.42,9.42,0,0,0,4.2,1.6l3.4,1.6,5.5.7.4-1.6-2.1-1s-1.7-.6-3-1S254.2,297.5,251.2,296.2Zm10.1,8.5,3.8,1s1.7-.3,2.9-.6a23.72,23.72,0,0,1,4.6-.3l-.4-1-1.3-.6-1.7-1-7.1-1.3s1.3.3-.4,2-.4,1.8-.4,1.8Zm33.2,10.5s0-5.9-2.1-8.2a10.15,10.15,0,0,0-3.8-3l-2.5-1.3h-8.8l.4,1-1.2,1.6h8.8a19.76,19.76,0,0,1,3.8,2c1.3,1,2.9,2,3.4,3.9s-1.3,5.9-1.3,5.9Zm-80.7,26.2s-1.7,1-1.7,2,2.5,2,2.5,2l1.3.3,1.7-1v-2l-1.7-1Zm643.3,36.7-2.1,1,2.9.7Zm-1.3,9.5c1.3.3,3.8,3.6,3.8,3.6l3.3-.6-4.6-4.3S854.6,387.3,855.8,387.6Zm9.7-168.4-2.5,4.6-.8,2-.4,1.3-1.3,1.3a45,45,0,0,1-6.7,3.9c-4.6,2.3-6.3,4.6-6.3,4.6s-7.6,3.9-11.8,2.3a5.08,5.08,0,0,1-3.4-5.6l2.9-1-.8-4.3.4-3,2.9-1.6a7.16,7.16,0,0,0-1.3-4.9c-1.7-2.6-.8-3-1.7-6.2a22.24,22.24,0,0,0-1.2-3.9l-1.7,1.6-1.7,1.6.4,6.2a11.68,11.68,0,0,1,.4,4.9c-.4,2-1.3,8.5-1.3,8.5l-.8,1.6.4,4.9-2.1,4.6-2.1,2-2.9,1.3,1.7,2.9.8,3.6-2.5,5.2-2.9,3-6.7,1.3-4.2.3s-3.3,2-4.6,2-2.9,1.6-3.8,2.6a16.92,16.92,0,0,0-1.7,2.9s-.4,3.3,1.7,4.9,2.1,0,2.1,0l6.7-4.6,2.9-.6s2.5,1,3.4,0,5.5-3,5.5-3l3.8.6.4-2,3.8-1.6s1.2-5.9,1.2-7.2.4-1,3.4-4.6-1.7-1-3.4-1.3,1.3-4.9,1.3-4.9a1.85,1.85,0,0,0,2.5-.3c1.2-1.3,3.8-1,9.7-2s4.2-3.9,5.5-5.2,6.3-3.9,8.4-5.6,2.5-1.6,6.7-5.2,4.2-6.2,4.2-6.2l-.8-1.3Zm69.3-87.4a8.34,8.34,0,0,0,3.4-1l.8-1.6-1.3-1.6a35.53,35.53,0,0,1-4.6.3c-2.1,0-1.7-.6-3.8,1s-2.1,2.6-2.1,2.6l3.4.3ZM594.9,355.2l.8,1.3,2.9-.3-.8-1.6Z"/></g>
    </g>
  </g>
</svg>