<svg xmlns="http://www.w3.org/2000/svg" xmlns:xlink="http://www.w3.org/1999/xlink" viewBox="0 0 1799.02 399">
  <defs>
    <style>
      .onesite-logo-cls-1{fill:url(#onesite-logo-linear-gradient);}.onesite-logo-cls-2{fill:url(#onesite-logo-linear-gradient-2);}.onesite-logo-cls-3{fill:url(#onesite-logo-linear-gradient-3);}.onesite-logo-cls-4{fill:url(#onesite-logo-linear-gradient-4);}.onesite-logo-cls-5{fill:url(#onesite-logo-linear-gradient-5);}.onesite-logo-cls-6{fill:url(#onesite-logo-linear-gradient-6);}.onesite-logo-cls-7{fill:url(#onesite-logo-linear-gradient-7);}.onesite-logo-cls-8{fill:url(#onesite-logo-linear-gradient-8);}.onesite-logo-cls-9{fill:url(#onesite-logo-linear-gradient-9);}.onesite-logo-cls-10{fill:url(#onesite-logo-linear-gradient-10);}.onesite-logo-cls-11{fill:url(#onesite-logo-linear-gradient-11);}.onesite-logo-cls-12{fill:url(#onesite-logo-linear-gradient-12);}.onesite-logo-cls-13{fill:url(#onesite-logo-linear-gradient-13);}.onesite-logo-cls-14{fill:url(#onesite-logo-linear-gradient-14);}.onesite-logo-cls-15{fill:url(#onesite-logo-linear-gradient-17);}.onesite-logo-cls-16{fill:url(#onesite-logo-linear-gradient-18);}.onesite-logo-cls-17{fill:url(#onesite-logo-linear-gradient-19);}.onesite-logo-cls-18{fill:url(#onesite-logo-linear-gradient-20);}.onesite-logo-cls-19{fill:url(#onesite-logo-linear-gradient-21);}.onesite-logo-cls-20{fill:url(#onesite-logo-linear-gradient-22);}.onesite-logo-cls-21{fill:url(#onesite-logo-linear-gradient-23);}.onesite-logo-cls-22{fill:url(#onesite-logo-linear-gradient-24);}.onesite-logo-cls-23{fill:url(#onesite-logo-linear-gradient-25);}.onesite-logo-cls-24{fill:url(#onesite-logo-linear-gradient-26);}.onesite-logo-cls-25{fill:url(#onesite-logo-linear-gradient-27);}.onesite-logo-cls-26{fill:url(#onesite-logo-linear-gradient-28);}.onesite-logo-cls-27{fill:url(#onesite-logo-linear-gradient-29);}.onesite-logo-cls-28{fill:url(#onesite-logo-linear-gradient-30);}.onesite-logo-cls-29{fill:url(#onesite-logo-linear-gradient-31);}.onesite-logo-cls-30{fill:url(#onesite-logo-linear-gradient-32);}.onesite-logo-cls-31{fill:url(#onesite-logo-linear-gradient-33);}.onesite-logo-cls-32{fill:url(#onesite-logo-linear-gradient-34);}.onesite-logo-cls-33{fill:url(#onesite-logo-linear-gradient-35);}.onesite-logo-cls-34{fill:url(#onesite-logo-linear-gradient-36);}.onesite-logo-cls-35{fill:url(#onesite-logo-linear-gradient-37);}.onesite-logo-cls-36{fill:#404041;}
    </style>
    <linearGradient id="onesite-logo-linear-gradient" x1="112.38" y1="61.97" x2="57.46" y2="116.89" gradientUnits="userSpaceOnUse">
      <stop offset="0" stop-color="#41cdfc"/>
      <stop offset="1" stop-color="#0860b8"/>
    </linearGradient>
    <linearGradient id="onesite-logo-linear-gradient-2" x1="220.31" y1=".12" x2="172.03" y2="48.39" xlink:href="#onesite-logo-linear-gradient"/>
    <linearGradient id="onesite-logo-linear-gradient-3" x1="197.24" y1="66.8" x2="197.24" y2="336.71" xlink:href="#onesite-logo-linear-gradient"/>
    <linearGradient id="onesite-logo-linear-gradient-4" x1="2461.77" y1="2086.81" x2="2461.77" y2="2356.72" gradientTransform="rotate(90 2339.51 79.5)" xlink:href="#onesite-logo-linear-gradient"/>
    <linearGradient id="onesite-logo-linear-gradient-5" x1="738.25" y1="-1483.82" x2="738.25" y2="-1213.91" gradientTransform="translate(-541.01 1550.62)" xlink:href="#onesite-logo-linear-gradient"/>
    <linearGradient id="onesite-logo-linear-gradient-6" x1="911.15" y1="1545.81" x2="911.15" y2="1815.72" gradientTransform="rotate(90 1293.695 584.305)" xlink:href="#onesite-logo-linear-gradient"/>
    <linearGradient id="onesite-logo-linear-gradient-7" x1="11.07" y1="201.76" x2="68.85" y2="201.76" gradientUnits="userSpaceOnUse">
      <stop offset="0" stop-color="#0860b8"/>
      <stop offset="1" stop-color="#41cdfc"/>
    </linearGradient>
    <linearGradient id="onesite-logo-linear-gradient-8" x1="105.67" y1="293.33" x2="64.17" y2="334.83" xlink:href="#onesite-logo-linear-gradient"/>
    <linearGradient id="onesite-logo-linear-gradient-9" x1="221.17" y1="354.02" x2="175.95" y2="399.24" xlink:href="#onesite-logo-linear-gradient"/>
    <linearGradient id="onesite-logo-linear-gradient-10" x1="337.02" y1="286.62" x2="282.11" y2="341.54" xlink:href="#onesite-logo-linear-gradient"/>
    <linearGradient id="onesite-logo-linear-gradient-11" x1="393.31" y1="179.04" x2="347.87" y2="224.48" xlink:href="#onesite-logo-linear-gradient"/>
    <linearGradient id="onesite-logo-linear-gradient-12" x1="330.31" y1="68.69" x2="288.82" y2="110.18" xlink:href="#onesite-logo-linear-gradient"/>
    <linearGradient id="onesite-logo-linear-gradient-13" x1="351.66" y1="47.34" x2="37.63" y2="361.37" xlink:href="#onesite-logo-linear-gradient"/>
    <linearGradient id="onesite-logo-linear-gradient-14" x1="256.88" y1="-47.45" x2="-57.15" y2="266.58" xlink:href="#onesite-logo-linear-gradient"/>
    <linearGradient id="onesite-logo-linear-gradient-17" x1="446.45" y1="142.12" x2="132.42" y2="456.15" xlink:href="#onesite-logo-linear-gradient"/>
    <linearGradient id="onesite-logo-linear-gradient-18" x1="418.01" y1="113.69" x2="103.98" y2="427.72" xlink:href="#onesite-logo-linear-gradient"/>
    <linearGradient id="onesite-logo-linear-gradient-19" x1="285.31" y1="-19.01" x2="-28.72" y2="295.02" xlink:href="#onesite-logo-linear-gradient"/>
    <linearGradient id="onesite-logo-linear-gradient-20" x1="418.01" y1="113.69" x2="103.98" y2="427.72" gradientTransform="rotate(-90 197.245 334.455)" xlink:href="#onesite-logo-linear-gradient"/>
    <linearGradient id="onesite-logo-linear-gradient-21" x1="285.31" y1="-19.01" x2="-28.72" y2="295.02" gradientTransform="rotate(-90 197.245 69.055)" xlink:href="#onesite-logo-linear-gradient"/>
    <linearGradient id="onesite-logo-linear-gradient-22" x1="276.82" y1="-27.51" x2="-37.21" y2="286.52" gradientTransform="rotate(-90 234.415 14.895)" xlink:href="#onesite-logo-linear-gradient"/>
    <linearGradient id="onesite-logo-linear-gradient-23" x1="325.71" y1="21.38" x2="11.68" y2="335.42" gradientTransform="rotate(-90 303.31 43.78)" xlink:href="#onesite-logo-linear-gradient"/>
    <linearGradient id="onesite-logo-linear-gradient-24" x1="377.62" y1="73.29" x2="63.58" y2="387.32" gradientTransform="rotate(-90 355.22 95.69)" xlink:href="#onesite-logo-linear-gradient"/>
    <linearGradient id="onesite-logo-linear-gradient-25" x1="427.27" y1="122.94" x2="113.23" y2="436.97" gradientTransform="rotate(-90 381.845 168.355)" xlink:href="#onesite-logo-linear-gradient"/>
    <linearGradient id="onesite-logo-linear-gradient-26" x1="460.67" y1="156.34" x2="146.63" y2="470.37" gradientTransform="rotate(-90 381.85 235.16)" xlink:href="#onesite-logo-linear-gradient"/>
    <linearGradient id="onesite-logo-linear-gradient-27" x1="483.69" y1="179.36" x2="169.65" y2="493.39" gradientTransform="rotate(-90 355.215 307.825)" xlink:href="#onesite-logo-linear-gradient"/>
    <linearGradient id="onesite-logo-linear-gradient-28" x1="483.69" y1="179.36" x2="169.65" y2="493.39" gradientTransform="rotate(-90 303.31 359.73)" xlink:href="#onesite-logo-linear-gradient"/>
    <linearGradient id="onesite-logo-linear-gradient-29" x1="463.6" y1="159.27" x2="149.57" y2="473.3" gradientTransform="rotate(-90 236.51 386.36)" xlink:href="#onesite-logo-linear-gradient"/>
    <linearGradient id="onesite-logo-linear-gradient-30" x1="427.27" y1="122.94" x2="113.23" y2="436.97" gradientTransform="rotate(-90 163.84 386.36)" xlink:href="#onesite-logo-linear-gradient"/>
    <linearGradient id="onesite-logo-linear-gradient-31" x1="377.62" y1="73.29" x2="63.58" y2="387.32" gradientTransform="rotate(-90 91.175 359.735)" xlink:href="#onesite-logo-linear-gradient"/>
    <linearGradient id="onesite-logo-linear-gradient-32" x1="325.71" y1="21.38" x2="11.68" y2="335.42" gradientTransform="rotate(-90 39.265 307.825)" xlink:href="#onesite-logo-linear-gradient"/>
    <linearGradient id="onesite-logo-linear-gradient-33" x1="279" y1="-25.33" x2="-35.04" y2="288.7" gradientTransform="rotate(-90 12.635 241.025)" xlink:href="#onesite-logo-linear-gradient"/>
    <linearGradient id="onesite-logo-linear-gradient-34" x1="239.73" y1="-64.6" x2="-74.3" y2="249.43" gradientTransform="rotate(-90 12.64 162.49)" xlink:href="#onesite-logo-linear-gradient"/>
    <linearGradient id="onesite-logo-linear-gradient-35" x1="219.64" y1="-84.69" x2="-94.39" y2="229.35" gradientTransform="rotate(-90 39.27 95.69)" xlink:href="#onesite-logo-linear-gradient"/>
    <linearGradient id="onesite-logo-linear-gradient-36" x1="219.64" y1="-84.69" x2="-94.39" y2="229.35" gradientTransform="rotate(-90 91.175 43.785)" xlink:href="#onesite-logo-linear-gradient"/>
    <linearGradient id="onesite-logo-linear-gradient-37" x1="237.47" y1="-66.86" x2="-76.56" y2="247.17" gradientTransform="rotate(-90 157.975 12.635)" xlink:href="#onesite-logo-linear-gradient"/>
  </defs>
  <title>
    onesite-logo
  </title>
  <g id="Layer_2" data-name="Layer 2">
    <g id="Layer_1-2" data-name="Layer 1">
      <path class="onesite-logo-cls-1" d="M105.67 110.18L38.81 98.24l.92-5.11 59.52 10.63-10.63-59.52 5.11-.91 11.94 66.85z"/>
      <path class="onesite-logo-cls-2" d="M197.26 73.62l-41.42-59.5 4.26-2.96 37.13 53.33 35.04-51.06 4.28 2.93-39.29 57.26z"/>
      <path class="onesite-logo-cls-3" d="M194.65 66.8h5.19v269.91h-5.19z"/>
      <path class="onesite-logo-cls-4" d="M62.29 199.16H332.2v5.19H62.29z"/>
      <path class="onesite-logo-cls-5" d="M99.983 108.156l3.67-3.67 190.855 190.856-3.67 3.67z"/>
      <path class="onesite-logo-cls-6" d="M99.983 295.352l190.855-190.855 3.67 3.67L103.653 299.02z"/>
      <path class="onesite-logo-cls-7" d="M14.2 243.09l-3.13-4.13 49.17-37.2-49.17-37.2 3.13-4.14 54.65 41.34-54.65 41.33z"/>
      <path class="onesite-logo-cls-8" d="M93.73 360.19l-5.11-.91 10.63-59.53-59.52 10.63-.92-5.11 66.86-11.94-11.94 66.86z"/>
      <path class="onesite-logo-cls-9" d="M234.44 387.93l-37.03-48.94-31.38 48.78-4.37-2.81 35.41-55.03 41.51 54.87-4.14 3.13z"/>
      <path class="onesite-logo-cls-10" d="M300.76 360.19l-11.94-66.86 66.86 11.94-.92 5.11-59.52-10.63 10.63 59.53-5.11.91z"/>
      <path class="onesite-logo-cls-11" d="M380.44 237.34l-55.29-35.58 55.29-35.59 2.81 4.37-48.51 31.22 48.51 31.22-2.81 4.36z"/>
      <path class="onesite-logo-cls-12" d="M288.82 110.18l11.94-66.85 5.11.91-10.63 59.52 59.52-10.63.92 5.11-66.86 11.94z"/>
      <rect class="onesite-logo-cls-13" x="145.34" y="149.85" width="103.81" height="103.81" rx="51.91" ry="51.91"/>
      <rect class="onesite-logo-cls-14" x="89.82" y="94.33" width="25.28" height="25.28" rx="12.64" ry="12.64"/>
      <rect class="onesite-logo-cls-13" x="279.39" y="94.33" width="25.28" height="25.28" rx="12.64" ry="12.64"/>
      <rect class="onesite-logo-cls-13" x="89.82" y="283.9" width="25.28" height="25.28" rx="12.64" ry="12.64"/>
      <rect class="onesite-logo-cls-15" x="279.39" y="283.9" width="25.28" height="25.28" rx="12.64" ry="12.64"/>
      <rect class="onesite-logo-cls-16" x="317.3" y="189.12" width="25.28" height="25.28" rx="12.64" ry="12.64"/>
      <rect class="onesite-logo-cls-17" x="51.91" y="189.12" width="25.28" height="25.28" rx="12.64" ry="12.64"/>
      <rect class="onesite-logo-cls-18" x="184.61" y="321.82" width="25.28" height="25.28" rx="12.64" ry="12.64" transform="rotate(90 197.245 334.455)"/>
      <rect class="onesite-logo-cls-19" x="184.61" y="56.42" width="25.28" height="25.28" rx="12.64" ry="12.64" transform="rotate(90 197.245 69.055)"/>
      <rect class="onesite-logo-cls-20" x="221.77" y="2.26" width="25.28" height="25.28" rx="12.64" ry="12.64" transform="rotate(90 234.415 14.895)"/>
      <rect class="onesite-logo-cls-21" x="290.67" y="31.14" width="25.28" height="25.28" rx="12.64" ry="12.64" transform="rotate(90 303.31 43.78)"/>
      <rect class="onesite-logo-cls-22" x="342.58" y="83.05" width="25.28" height="25.28" rx="12.64" ry="12.64" transform="rotate(90 355.22 95.69)"/>
      <rect class="onesite-logo-cls-23" x="369.21" y="155.72" width="25.28" height="25.28" rx="12.64" ry="12.64" transform="rotate(90 381.845 168.355)"/>
      <rect class="onesite-logo-cls-24" x="369.21" y="222.52" width="25.28" height="25.28" rx="12.64" ry="12.64" transform="rotate(90 381.85 235.16)"/>
      <rect class="onesite-logo-cls-25" x="342.58" y="295.19" width="25.28" height="25.28" rx="12.64" ry="12.64" transform="rotate(90 355.215 307.825)"/>
      <rect class="onesite-logo-cls-26" x="290.67" y="347.09" width="25.28" height="25.28" rx="12.64" ry="12.64" transform="rotate(90 303.31 359.73)"/>
      <rect class="onesite-logo-cls-27" x="223.87" y="373.72" width="25.28" height="25.28" rx="12.64" ry="12.64" transform="rotate(90 236.51 386.36)"/>
      <rect class="onesite-logo-cls-28" x="151.2" y="373.72" width="25.28" height="25.28" rx="12.64" ry="12.64" transform="rotate(90 163.84 386.36)"/>
      <rect class="onesite-logo-cls-29" x="78.54" y="347.09" width="25.28" height="25.28" rx="12.64" ry="12.64" transform="rotate(90 91.175 359.735)"/>
      <rect class="onesite-logo-cls-30" x="26.63" y="295.19" width="25.28" height="25.28" rx="12.64" ry="12.64" transform="rotate(90 39.265 307.825)"/>
      <rect class="onesite-logo-cls-31" y="228.39" width="25.28" height="25.28" rx="12.64" ry="12.64" transform="rotate(90 12.635 241.025)"/>
      <rect class="onesite-logo-cls-32" y="149.85" width="25.28" height="25.28" rx="12.64" ry="12.64" transform="rotate(90 12.64 162.49)"/>
      <rect class="onesite-logo-cls-33" x="26.63" y="83.05" width="25.28" height="25.28" rx="12.64" ry="12.64" transform="rotate(90 39.27 95.69)"/>
      <rect class="onesite-logo-cls-34" x="78.54" y="31.14" width="25.28" height="25.28" rx="12.64" ry="12.64" transform="rotate(90 91.175 43.785)"/>
      <rect class="onesite-logo-cls-35" x="145.34" width="25.28" height="25.28" rx="12.64" ry="12.64" transform="rotate(90 157.975 12.635)"/>
      <path class="onesite-logo-cls-36" d="M682.43 71.38c70.14 0 126.18 55.34 126.18 126.53 0 72.61-56 129.71-126.18 129.71s-126.18-57.1-126.18-129.71c-.01-71.19 56.04-126.53 126.18-126.53zm0 233.68c55.69 0 100.8-46.53 100.8-107.15 0-59.21-45.12-104-100.8-104-56 0-100.8 44.76-100.8 104-.01 60.63 44.75 107.15 100.8 107.15zM856.54 146.1h23.62v26.44c0 7.75-.71 14.1-.71 14.1h.71c6.34-16.21 28.9-44.76 70.85-44.76 43.71 0 59.22 25 59.22 68.73v112.78h-24V216.95c0-27.85-4.23-52.52-38.42-52.52-30.31 0-56.39 20.8-64.5 50-2.12 7.4-2.82 15.51-2.82 24v84.94h-24zm284.09-4.23c49 0 74 37.71 74 81.77 0 4.23-.71 12.34-.71 12.34h-136.03c1.06 45.47 32.08 70.14 68.73 70.14 32.43 0 53.93-21.5 53.93-21.5l10.93 18.33s-25.73 24.67-65.56 24.67c-52.87 0-92.7-38.07-92.7-92.7 0-58.15 39.47-93.05 87.41-93.05zm49.7 74.37c-1.41-37-24-54.28-50.4-54.28-29.61 0-55.34 18.68-61 54.28zm73.3 60.98s25.73 27.14 64.85 27.14c27.14 0 49.35-16.21 49.35-43 0-62.39-123.72-46.53-123.72-123.36 0-35.6 31.37-66.62 77.19-66.62 43 0 66.26 24 66.26 24l-12 20.44s-21.85-21.15-54.28-21.15c-31.72 0-52.16 20.8-52.16 42.65 0 58.86 123.72 41.94 123.72 123.36 0 37-28.55 67-75.08 67-50.75 0-78.6-31.72-78.6-31.72zm185.75-201.61h25v30h-25zm.7 70.49h24v177.29h-24zm88.47 22.21h-23.26v-20.09h23.62V97.11h23.62v51.11h44.41v20.09h-44.41v88.12c0 41.59 26.43 46.88 39.83 46.88a41.14 41.14 0 0 0 8.11-.71v21.5a63.06 63.06 0 0 1-10.22.71c-20.44 0-61.68-6.7-61.68-65.91zM1725 141.87c49 0 74 37.71 74 81.77 0 4.23-.71 12.34-.71 12.34h-136.02c1.06 45.47 32.07 70.14 68.73 70.14 32.43 0 53.93-21.5 53.93-21.5l10.93 18.33s-25.73 24.67-65.56 24.67c-52.87 0-92.7-38.07-92.7-92.7 0-58.15 39.47-93.05 87.4-93.05zm49.7 74.37c-1.41-37-24-54.28-50.4-54.28-29.61 0-55.34 18.68-61 54.28z"/>
    </g>
  </g>
</svg>
