<?xml version="1.0" encoding="UTF-8"?>
<svg width="20px" height="20px" viewBox="0 0 64 64" version="1.1" xmlns="http://www.w3.org/2000/svg" xmlns:xlink="http://www.w3.org/1999/xlink">
    <title>16_lan_network</title>
    <g id="Page-1" stroke="none" stroke-width="1" fill="none" fill-rule="evenodd">
        <g id="16_lan_network" transform="translate(1.000000, 1.000000)" stroke="#0860B8" stroke-width="2">
            <g id="Group">
                <line x1="20" y1="24" x2="20" y2="28" id="Path"></line>
                <line x1="12" y1="28" x2="12" y2="24" id="Path"></line>
                <line x1="15" y1="20" x2="17" y2="20" id="Path"></line>
                <line x1="11" y1="20" x2="13" y2="20" id="Path"></line>
                <line x1="19" y1="20" x2="21" y2="20" id="Path"></line>
                <line x1="23" y1="28" x2="9" y2="28" id="Path"></line>
                <path d="M32,23 C32,23.553 31.553,24 31,24 L1,24 C0.447,24 0,23.553 0,23 L0,1 C0,0.447 0.447,0 1,0 L31,0 C31.553,0 32,0.447 32,1 L32,23 Z" id="Path"></path>
                <polyline id="Path" points="9 20 4 20 4 4 28 4 28 20 23 20"></polyline>
            </g>
            <g id="Group" transform="translate(30.000000, 34.000000)">
                <line x1="20" y1="24" x2="20" y2="28" id="Path"></line>
                <line x1="12" y1="28" x2="12" y2="24" id="Path"></line>
                <line x1="15" y1="20" x2="17" y2="20" id="Path"></line>
                <line x1="11" y1="20" x2="13" y2="20" id="Path"></line>
                <line x1="19" y1="20" x2="21" y2="20" id="Path"></line>
                <line x1="23" y1="28" x2="9" y2="28" id="Path"></line>
                <path d="M32,23 C32,23.553 31.553,24 31,24 L1,24 C0.447,24 0,23.553 0,23 L0,1 C0,0.447 0.447,0 1,0 L31,0 C31.553,0 32,0.447 32,1 L32,23 Z" id="Path"></path>
                <polyline id="Path" points="9 20 4 20 4 4 28 4 28 20 23 20"></polyline>
            </g>
            <line x1="52" y1="21" x2="52" y2="31" id="Path"></line>
            <line x1="35" y1="14" x2="45" y2="14" id="Path"></line>
            <circle id="Oval" cx="52" cy="14" r="4"></circle>
            <line x1="10" y1="41" x2="10" y2="31" id="Path"></line>
            <line x1="27" y1="48" x2="17" y2="48" id="Path"></line>
            <circle id="Oval" cx="10" cy="48" r="4"></circle>
        </g>
    </g>
</svg>