<svg xmlns="http://www.w3.org/2000/svg" viewBox="0 0 401 376" height="376" width="401"><style>
@keyframes a0_f { 0% { fill: #7b7b7b; } 11.667% { fill: #c5c5c5; } 12.5% { fill: #636363; } 14.167% { fill: #cbcbcb; } 15.833% { fill: #515151; } 17.5% { fill: #2e2e2e; } 21.667% { fill: #000; animation-timing-function: cubic-bezier(0,0,1,1); } 33.333% { fill: #41cdfc; } 100% { fill: #41cdfc; } }
@keyframes a1_o { 0% { opacity: 0; } 36.667% { opacity: 0; } 37.5% { opacity: 1; } 100% { opacity: 1; } }
@keyframes a1_d { 0% { d: path('M0,0L1,0'); } 37.5% { d: path('M0,0L1,0'); } 39.167% { d: path('M0,0L16,0'); } 100% { d: path('M0,0L16,0'); } }
@keyframes a2_o { 0% { opacity: 0; } 41.667% { opacity: 0; } 42.5% { opacity: 1; } 100% { opacity: 1; } }
@keyframes a2_d { 0% { d: path('M0,0L1,0'); } 42.5% { d: path('M0,0L1,0'); } 44.167% { d: path('M0,0L11,0'); } 100% { d: path('M0,0L11,0'); } }
@keyframes a3_o { 0% { opacity: 0; } 40% { opacity: 0; } 40.833% { opacity: 1; } 100% { opacity: 1; } }
@keyframes a3_d { 0% { d: path('M0,0L1,0'); } 40.833% { d: path('M0,0L1,0'); } 42.5% { d: path('M0,0L16,0'); } 100% { d: path('M0,0L16,0'); } }
@keyframes a4_o { 0% { opacity: 0; } 39.167% { opacity: 0; } 40% { opacity: 1; } 100% { opacity: 1; } }
@keyframes a4_d { 0% { d: path('M0,0L1,0'); } 40% { d: path('M0,0L1,0'); } 41.667% { d: path('M0,0L16,0'); } 100% { d: path('M0,0L16,0'); } }
@keyframes a5_o { 0% { opacity: 0; } 37.5% { opacity: 0; } 38.333% { opacity: 1; } 100% { opacity: 1; } }
@keyframes a5_d { 0% { d: path('M0,0L1,0'); } 38.333% { d: path('M0,0L1,0'); } 40% { d: path('M0,0L16,0'); } 100% { d: path('M0,0L16,0'); } }
@keyframes a6_o { 0% { opacity: 0; } 35% { opacity: 0; } 35.833% { opacity: 1; } 100% { opacity: 1; } }
@keyframes a6_d { 0% { d: path('M0,0L1,0'); } 35.833% { d: path('M0,0L1,0'); } 37.5% { d: path('M0,0L16,0'); } 100% { d: path('M0,0L16,0'); } }
@keyframes a7_o { 0% { opacity: 0; } 34.167% { opacity: 0; } 35% { opacity: 1; } 100% { opacity: 1; } }
@keyframes a7_d { 0% { d: path('M0,0L1,0'); } 35% { d: path('M0,0L1,0'); } 36.667% { d: path('M0,0L16,0'); } 100% { d: path('M0,0L16,0'); } }
@keyframes a8_o { 0% { opacity: 0; } 32.5% { opacity: 0; } 33.333% { opacity: 1; } 100% { opacity: 1; } }
@keyframes a8_d { 0% { d: path('M0,0L1,0'); } 33.333% { d: path('M0,0L1,0'); } 35% { d: path('M0,0L16,0'); } 100% { d: path('M0,0L16,0'); } }
@keyframes a9_o { 0% { opacity: 0; } 45% { opacity: 0; } 49.167% { opacity: 1; } 100% { opacity: 1; } }
@keyframes a10_o { 0% { opacity: 0; } 49.167% { opacity: 0; } 53.333% { opacity: 1; } 100% { opacity: 1; } }
@keyframes a11_f { 0% { fill: #7b7b7b; } 8.333% { fill: #7b7b7b; } 20% { fill: #c5c5c5; } 20.833% { fill: #636363; } 22.5% { fill: #cbcbcb; } 24.167% { fill: #515151; } 25.833% { fill: #2e2e2e; } 30% { fill: #000; animation-timing-function: cubic-bezier(0,0,1,1); } 41.667% { fill: #41cdfc; } 100% { fill: #41cdfc; } }
@keyframes a12_o { 0% { opacity: 0; } 45% { opacity: 0; } 45.833% { opacity: 1; } 100% { opacity: 1; } }
@keyframes a12_d { 0% { d: path('M0,0L1,0'); } 45.833% { d: path('M0,0L1,0'); } 47.5% { d: path('M0,0L16,0'); } 100% { d: path('M0,0L16,0'); } }
@keyframes a13_o { 0% { opacity: 0; } 50% { opacity: 0; } 50.833% { opacity: 1; } 100% { opacity: 1; } }
@keyframes a13_d { 0% { d: path('M0,0L1,0'); } 50.833% { d: path('M0,0L1,0'); } 52.5% { d: path('M0,0L11,0'); } 100% { d: path('M0,0L11,0'); } }
@keyframes a14_o { 0% { opacity: 0; } 48.333% { opacity: 0; } 49.167% { opacity: 1; } 100% { opacity: 1; } }
@keyframes a14_d { 0% { d: path('M0,0L1,0'); } 49.167% { d: path('M0,0L1,0'); } 50.833% { d: path('M0,0L16,0'); } 100% { d: path('M0,0L16,0'); } }
@keyframes a15_o { 0% { opacity: 0; } 47.5% { opacity: 0; } 48.333% { opacity: 1; } 100% { opacity: 1; } }
@keyframes a15_d { 0% { d: path('M0,0L1,0'); } 48.333% { d: path('M0,0L1,0'); } 50% { d: path('M0,0L16,0'); } 100% { d: path('M0,0L16,0'); } }
@keyframes a16_o { 0% { opacity: 0; } 45.833% { opacity: 0; } 46.667% { opacity: 1; } 100% { opacity: 1; } }
@keyframes a16_d { 0% { d: path('M0,0L1,0'); } 46.667% { d: path('M0,0L1,0'); } 48.333% { d: path('M0,0L16,0'); } 100% { d: path('M0,0L16,0'); } }
@keyframes a17_o { 0% { opacity: 0; } 43.333% { opacity: 0; } 44.167% { opacity: 1; } 100% { opacity: 1; } }
@keyframes a17_d { 0% { d: path('M0,0L1,0'); } 44.167% { d: path('M0,0L1,0'); } 45.833% { d: path('M0,0L16,0'); } 100% { d: path('M0,0L16,0'); } }
@keyframes a18_o { 0% { opacity: 0; } 42.5% { opacity: 0; } 43.333% { opacity: 1; } 100% { opacity: 1; } }
@keyframes a18_d { 0% { d: path('M0,0L1,0'); } 43.333% { d: path('M0,0L1,0'); } 45% { d: path('M0,0L16,0'); } 100% { d: path('M0,0L16,0'); } }
@keyframes a19_o { 0% { opacity: 0; } 40.833% { opacity: 0; } 41.667% { opacity: 1; } 100% { opacity: 1; } }
@keyframes a19_d { 0% { d: path('M0,0L1,0'); } 41.667% { d: path('M0,0L1,0'); } 43.333% { d: path('M0,0L16,0'); } 100% { d: path('M0,0L16,0'); } }
@keyframes a20_o { 0% { opacity: 0; } 53.333% { opacity: 0; } 57.5% { opacity: 1; } 100% { opacity: 1; } }
@keyframes a21_o { 0% { opacity: 0; } 57.5% { opacity: 0; } 61.667% { opacity: 1; } 100% { opacity: 1; } }
@keyframes a22_f { 0% { fill: #7b7b7b; } 16.667% { fill: #7b7b7b; } 28.333% { fill: #c5c5c5; } 29.167% { fill: #636363; } 30.833% { fill: #cbcbcb; } 32.5% { fill: #515151; } 34.167% { fill: #2e2e2e; } 38.333% { fill: #000; animation-timing-function: cubic-bezier(0,0,1,1); } 50% { fill: #41cdfc; } 100% { fill: #41cdfc; } }
@keyframes a23_o { 0% { opacity: 0; } 53.333% { opacity: 0; } 54.167% { opacity: 1; } 100% { opacity: 1; } }
@keyframes a23_d { 0% { d: path('M0,0L1,0'); } 54.167% { d: path('M0,0L1,0'); } 55.833% { d: path('M0,0L16,0'); } 100% { d: path('M0,0L16,0'); } }
@keyframes a24_o { 0% { opacity: 0; } 58.333% { opacity: 0; } 59.167% { opacity: 1; } 100% { opacity: 1; } }
@keyframes a24_d { 0% { d: path('M0,0L1,0'); } 59.167% { d: path('M0,0L1,0'); } 60.833% { d: path('M0,0L11,0'); } 100% { d: path('M0,0L11,0'); } }
@keyframes a25_o { 0% { opacity: 0; } 56.667% { opacity: 0; } 57.5% { opacity: 1; } 100% { opacity: 1; } }
@keyframes a25_d { 0% { d: path('M0,0L1,0'); } 57.5% { d: path('M0,0L1,0'); } 59.167% { d: path('M0,0L16,0'); } 100% { d: path('M0,0L16,0'); } }
@keyframes a26_o { 0% { opacity: 0; } 55.833% { opacity: 0; } 56.667% { opacity: 1; } 100% { opacity: 1; } }
@keyframes a26_d { 0% { d: path('M0,0L1,0'); } 56.667% { d: path('M0,0L1,0'); } 58.333% { d: path('M0,0L16,0'); } 100% { d: path('M0,0L16,0'); } }
@keyframes a27_o { 0% { opacity: 0; } 54.167% { opacity: 0; } 55% { opacity: 1; } 100% { opacity: 1; } }
@keyframes a27_d { 0% { d: path('M0,0L1,0'); } 55% { d: path('M0,0L1,0'); } 56.667% { d: path('M0,0L16,0'); } 100% { d: path('M0,0L16,0'); } }
@keyframes a28_o { 0% { opacity: 0; } 51.667% { opacity: 0; } 52.5% { opacity: 1; } 100% { opacity: 1; } }
@keyframes a28_d { 0% { d: path('M0,0L1,0'); } 52.5% { d: path('M0,0L1,0'); } 54.167% { d: path('M0,0L16,0'); } 100% { d: path('M0,0L16,0'); } }
@keyframes a29_o { 0% { opacity: 0; } 50.833% { opacity: 0; } 51.667% { opacity: 1; } 100% { opacity: 1; } }
@keyframes a29_d { 0% { d: path('M0,0L1,0'); } 51.667% { d: path('M0,0L1,0'); } 53.333% { d: path('M0,0L16,0'); } 100% { d: path('M0,0L16,0'); } }
@keyframes a30_o { 0% { opacity: 0; } 49.167% { opacity: 0; } 50% { opacity: 1; } 100% { opacity: 1; } }
@keyframes a30_d { 0% { d: path('M0,0L1,0'); } 50% { d: path('M0,0L1,0'); } 51.667% { d: path('M0,0L16,0'); } 100% { d: path('M0,0L16,0'); } }
@keyframes a31_o { 0% { opacity: 0; } 61.667% { opacity: 0; } 65.833% { opacity: 1; } 100% { opacity: 1; } }
@keyframes a32_o { 0% { opacity: 0; } 65.833% { opacity: 0; } 70% { opacity: 0; } 100% { opacity: 0; } }
@keyframes a33_o { 0% { opacity: 0; } 65.833% { opacity: 0; } 66.667% { opacity: 1; } 70% { opacity: 0; } 100% { opacity: 0; } }
@keyframes a34_o { 0% { opacity: 0; } 65.833% { opacity: 0; } 66.667% { opacity: 1; } 70% { opacity: 0; } 100% { opacity: 0; } }
@keyframes a35_o { 0% { opacity: 0; } 65.833% { opacity: 0; } 70% { opacity: 1; } 100% { opacity: 1; } }
@keyframes a36_f { 0% { fill: #7b7b7b; } 20.833% { fill: #7b7b7b; } 32.5% { fill: #c5c5c5; } 33.333% { fill: #636363; } 35% { fill: #cbcbcb; } 36.667% { fill: #515151; } 38.333% { fill: #2e2e2e; } 42.5% { fill: #000; animation-timing-function: cubic-bezier(0,0,1,1); } 54.167% { fill: #41cdfc; } 100% { fill: #41cdfc; } }
@keyframes a37_o { 0% { opacity: 0; } 57.5% { opacity: 0; } 58.333% { opacity: 1; } 100% { opacity: 1; } }
@keyframes a37_d { 0% { d: path('M0,0L1,0'); } 58.333% { d: path('M0,0L1,0'); } 60% { d: path('M0,0L16,0'); } 100% { d: path('M0,0L16,0'); } }
@keyframes a38_o { 0% { opacity: 0; } 62.5% { opacity: 0; } 63.333% { opacity: 1; } 100% { opacity: 1; } }
@keyframes a38_d { 0% { d: path('M0,0L1,0'); } 63.333% { d: path('M0,0L1,0'); } 65% { d: path('M0,0L11,0'); } 100% { d: path('M0,0L11,0'); } }
@keyframes a39_o { 0% { opacity: 0; } 60.833% { opacity: 0; } 61.667% { opacity: 1; } 100% { opacity: 1; } }
@keyframes a39_d { 0% { d: path('M0,0L1,0'); } 61.667% { d: path('M0,0L1,0'); } 63.333% { d: path('M0,0L16,0'); } 100% { d: path('M0,0L16,0'); } }
@keyframes a40_o { 0% { opacity: 0; } 60% { opacity: 0; } 60.833% { opacity: 1; } 100% { opacity: 1; } }
@keyframes a40_d { 0% { d: path('M0,0L1,0'); } 60.833% { d: path('M0,0L1,0'); } 62.5% { d: path('M0,0L16,0'); } 100% { d: path('M0,0L16,0'); } }
@keyframes a41_o { 0% { opacity: 0; } 58.333% { opacity: 0; } 59.167% { opacity: 1; } 100% { opacity: 1; } }
@keyframes a41_d { 0% { d: path('M0,0L1,0'); } 59.167% { d: path('M0,0L1,0'); } 60.833% { d: path('M0,0L16,0'); } 100% { d: path('M0,0L16,0'); } }
@keyframes a42_o { 0% { opacity: 0; } 55.833% { opacity: 0; } 56.667% { opacity: 1; } 100% { opacity: 1; } }
@keyframes a42_d { 0% { d: path('M0,0L1,0'); } 56.667% { d: path('M0,0L1,0'); } 58.333% { d: path('M0,0L16,0'); } 100% { d: path('M0,0L16,0'); } }
@keyframes a43_o { 0% { opacity: 0; } 55% { opacity: 0; } 55.833% { opacity: 1; } 100% { opacity: 1; } }
@keyframes a43_d { 0% { d: path('M0,0L1,0'); } 55.833% { d: path('M0,0L1,0'); } 57.5% { d: path('M0,0L16,0'); } 100% { d: path('M0,0L16,0'); } }
@keyframes a44_o { 0% { opacity: 0; } 53.333% { opacity: 0; } 54.167% { opacity: 1; } 100% { opacity: 1; } }
@keyframes a44_d { 0% { d: path('M0,0L1,0'); } 54.167% { d: path('M0,0L1,0'); } 55.833% { d: path('M0,0L16,0'); } 100% { d: path('M0,0L16,0'); } }
@keyframes a45_o { 0% { opacity: 0; } 65.833% { opacity: 0; } 70% { opacity: 1; } 100% { opacity: 1; } }
@keyframes a46_o { 0% { opacity: 0; } 70% { opacity: 0; } 74.167% { opacity: 0; } 100% { opacity: 0; } }
@keyframes a47_o { 0% { opacity: 0; } 70% { opacity: 0; } 70.833% { opacity: 1; } 100% { opacity: 1; } }
@keyframes a48_o { 0% { opacity: 0; } 70% { opacity: 0; } 70.833% { opacity: 1; } 100% { opacity: 1; } }
@keyframes a49_o { 0% { opacity: 0; } 70% { opacity: 0; } 74.167% { opacity: 1; } 100% { opacity: 1; } }
@keyframes a50_f { 0% { fill: #7b7b7b; } 25% { fill: #7b7b7b; } 36.667% { fill: #c5c5c5; } 37.5% { fill: #636363; } 39.167% { fill: #cbcbcb; } 40.833% { fill: #515151; } 42.5% { fill: #2e2e2e; } 46.667% { fill: #000; animation-timing-function: cubic-bezier(0,0,1,1); } 58.333% { fill: #41cdfc; } 100% { fill: #41cdfc; } }
@keyframes a51_o { 0% { opacity: 0; } 61.667% { opacity: 0; } 62.5% { opacity: 1; } 100% { opacity: 1; } }
@keyframes a51_d { 0% { d: path('M0,0L1,0'); } 62.5% { d: path('M0,0L1,0'); } 64.167% { d: path('M0,0L16,0'); } 100% { d: path('M0,0L16,0'); } }
@keyframes a52_o { 0% { opacity: 0; } 66.667% { opacity: 0; } 67.5% { opacity: 1; } 100% { opacity: 1; } }
@keyframes a52_d { 0% { d: path('M0,0L1,0'); } 67.5% { d: path('M0,0L1,0'); } 69.167% { d: path('M0,0L11,0'); } 100% { d: path('M0,0L11,0'); } }
@keyframes a53_o { 0% { opacity: 0; } 65% { opacity: 0; } 65.833% { opacity: 1; } 100% { opacity: 1; } }
@keyframes a53_d { 0% { d: path('M0,0L1,0'); } 65.833% { d: path('M0,0L1,0'); } 67.5% { d: path('M0,0L16,0'); } 100% { d: path('M0,0L16,0'); } }
@keyframes a54_o { 0% { opacity: 0; } 64.167% { opacity: 0; } 65% { opacity: 1; } 100% { opacity: 1; } }
@keyframes a54_d { 0% { d: path('M0,0L1,0'); } 65% { d: path('M0,0L1,0'); } 66.667% { d: path('M0,0L16,0'); } 100% { d: path('M0,0L16,0'); } }
@keyframes a55_o { 0% { opacity: 0; } 62.5% { opacity: 0; } 63.333% { opacity: 1; } 100% { opacity: 1; } }
@keyframes a55_d { 0% { d: path('M0,0L1,0'); } 63.333% { d: path('M0,0L1,0'); } 65% { d: path('M0,0L16,0'); } 100% { d: path('M0,0L16,0'); } }
@keyframes a56_o { 0% { opacity: 0; } 60% { opacity: 0; } 60.833% { opacity: 1; } 100% { opacity: 1; } }
@keyframes a56_d { 0% { d: path('M0,0L1,0'); } 60.833% { d: path('M0,0L1,0'); } 62.5% { d: path('M0,0L16,0'); } 100% { d: path('M0,0L16,0'); } }
@keyframes a57_o { 0% { opacity: 0; } 59.167% { opacity: 0; } 60% { opacity: 1; } 100% { opacity: 1; } }
@keyframes a57_d { 0% { d: path('M0,0L1,0'); } 60% { d: path('M0,0L1,0'); } 61.667% { d: path('M0,0L16,0'); } 100% { d: path('M0,0L16,0'); } }
@keyframes a58_o { 0% { opacity: 0; } 57.5% { opacity: 0; } 58.333% { opacity: 1; } 100% { opacity: 1; } }
@keyframes a58_d { 0% { d: path('M0,0L1,0'); } 58.333% { d: path('M0,0L1,0'); } 60% { d: path('M0,0L16,0'); } 100% { d: path('M0,0L16,0'); } }
@keyframes a59_o { 0% { opacity: 0; } 70% { opacity: 0; } 74.167% { opacity: 1; } 100% { opacity: 1; } }
@keyframes a60_o { 0% { opacity: 0; } 74.167% { opacity: 0; } 78.333% { opacity: 0; } 100% { opacity: 0; } }
@keyframes a61_o { 0% { opacity: 0; } 74.167% { opacity: 0; } 75% { opacity: 1; } 78.333% { opacity: 0; } 100% { opacity: 0; } }
@keyframes a62_o { 0% { opacity: 0; } 74.167% { opacity: 0; } 75% { opacity: 1; } 78.333% { opacity: 0; } 100% { opacity: 0; } }
@keyframes a63_o { 0% { opacity: 0; } 74.167% { opacity: 0; } 78.333% { opacity: 1; } 100% { opacity: 1; } }
@keyframes a64_f { 0% { fill: #7b7b7b; } 27.5% { fill: #7b7b7b; } 39.167% { fill: #c5c5c5; } 40% { fill: #636363; } 41.667% { fill: #cbcbcb; } 43.333% { fill: #515151; } 45% { fill: #2e2e2e; } 49.167% { fill: #000; animation-timing-function: cubic-bezier(0,0,1,1); } 60.833% { fill: #41cdfc; } 100% { fill: #41cdfc; } }
@keyframes a65_o { 0% { opacity: 0; } 64.167% { opacity: 0; } 65% { opacity: 1; } 100% { opacity: 1; } }
@keyframes a65_d { 0% { d: path('M0,0L1,0'); } 65% { d: path('M0,0L1,0'); } 66.667% { d: path('M0,0L16,0'); } 100% { d: path('M0,0L16,0'); } }
@keyframes a66_o { 0% { opacity: 0; } 69.167% { opacity: 0; } 70% { opacity: 1; } 100% { opacity: 1; } }
@keyframes a66_d { 0% { d: path('M0,0L1,0'); } 70% { d: path('M0,0L1,0'); } 71.667% { d: path('M0,0L11,0'); } 100% { d: path('M0,0L11,0'); } }
@keyframes a67_o { 0% { opacity: 0; } 67.5% { opacity: 0; } 68.333% { opacity: 1; } 100% { opacity: 1; } }
@keyframes a67_d { 0% { d: path('M0,0L1,0'); } 68.333% { d: path('M0,0L1,0'); } 70% { d: path('M0,0L16,0'); } 100% { d: path('M0,0L16,0'); } }
@keyframes a68_o { 0% { opacity: 0; } 66.667% { opacity: 0; } 67.5% { opacity: 1; } 100% { opacity: 1; } }
@keyframes a68_d { 0% { d: path('M0,0L1,0'); } 67.5% { d: path('M0,0L1,0'); } 69.167% { d: path('M0,0L16,0'); } 100% { d: path('M0,0L16,0'); } }
@keyframes a69_o { 0% { opacity: 0; } 65% { opacity: 0; } 65.833% { opacity: 1; } 100% { opacity: 1; } }
@keyframes a69_d { 0% { d: path('M0,0L1,0'); } 65.833% { d: path('M0,0L1,0'); } 67.5% { d: path('M0,0L16,0'); } 100% { d: path('M0,0L16,0'); } }
@keyframes a70_o { 0% { opacity: 0; } 62.5% { opacity: 0; } 63.333% { opacity: 1; } 100% { opacity: 1; } }
@keyframes a70_d { 0% { d: path('M0,0L1,0'); } 63.333% { d: path('M0,0L1,0'); } 65% { d: path('M0,0L16,0'); } 100% { d: path('M0,0L16,0'); } }
@keyframes a71_o { 0% { opacity: 0; } 61.667% { opacity: 0; } 62.5% { opacity: 1; } 100% { opacity: 1; } }
@keyframes a71_d { 0% { d: path('M0,0L1,0'); } 62.5% { d: path('M0,0L1,0'); } 64.167% { d: path('M0,0L16,0'); } 100% { d: path('M0,0L16,0'); } }
@keyframes a72_o { 0% { opacity: 0; } 60% { opacity: 0; } 60.833% { opacity: 1; } 100% { opacity: 1; } }
@keyframes a72_d { 0% { d: path('M0,0L1,0'); } 60.833% { d: path('M0,0L1,0'); } 62.5% { d: path('M0,0L16,0'); } 100% { d: path('M0,0L16,0'); } }
@keyframes a73_o { 0% { opacity: 0; } 72.5% { opacity: 0; } 76.667% { opacity: 1; } 100% { opacity: 1; } }
@keyframes a74_o { 0% { opacity: 0; } 76.667% { opacity: 0; } 80.833% { opacity: 0; } 100% { opacity: 0; } }
@keyframes a75_o { 0% { opacity: 0; } 76.667% { opacity: 0; } 77.5% { opacity: 1; } 80.833% { opacity: 0; } 100% { opacity: 0; } }
@keyframes a76_o { 0% { opacity: 0; } 76.667% { opacity: 0; } 77.5% { opacity: 1; } 80.833% { opacity: 0; } 100% { opacity: 0; } }
@keyframes a77_o { 0% { opacity: 0; } 76.667% { opacity: 0; } 80.833% { opacity: 1; } 100% { opacity: 1; } }
@keyframes a78_o { 0% { opacity: 0; } .833% { opacity: 0; } 3.925% { opacity: 1; } 100% { opacity: 1; } }
@keyframes a78_do { 0% { stroke-dashoffset: 1px; } .833% { stroke-dashoffset: 1px; animation-timing-function: cubic-bezier(0,0,1,1); } 100% { stroke-dashoffset: 100px; } }
@keyframes a79_o { 0% { opacity: 0; } 33.333% { opacity: 0; } 36.842% { opacity: 1; } 100% { opacity: 1; } }
@keyframes a79_do { 0% { stroke-dashoffset: 1px; } 33.333% { stroke-dashoffset: 1px; } 100% { stroke-dashoffset: 100px; } }
@keyframes a80_o { 0% { opacity: 0; } 39.167% { opacity: 0; } 42.817% { opacity: 1; } 100% { opacity: 1; } }
@keyframes a80_do { 0% { stroke-dashoffset: 100px; } 39.167% { stroke-dashoffset: 100px; } 100% { stroke-dashoffset: 1px; } }
@keyframes a81_o { 0% { opacity: 0; } 50% { opacity: 0; } 52.7% { opacity: 1; } 100% { opacity: 1; } }
@keyframes a81_do { 0% { stroke-dashoffset: 100px; } 50% { stroke-dashoffset: 100px; } 100% { stroke-dashoffset: 1px; } }
@keyframes a82_o { 0% { opacity: 0; } 54.167% { opacity: 0; } 58.458% { opacity: 1; } 100% { opacity: 1; } }
@keyframes a82_do { 0% { stroke-dashoffset: 100px; } 54.167% { stroke-dashoffset: 100px; } 100% { stroke-dashoffset: 1px; } }
@keyframes a83_o { 0% { opacity: 0; } 58.333% { opacity: 0; } 62.958% { opacity: 1; } 100% { opacity: 1; } }
@keyframes a83_do { 0% { stroke-dashoffset: 1px; } 58.333% { stroke-dashoffset: 1px; } 100% { stroke-dashoffset: 100px; } }
@keyframes a84_o { 0% { opacity: 0; } 60.833% { opacity: 0; } 65.725% { opacity: 1; } 100% { opacity: 1; } }
@keyframes a84_do { 0% { stroke-dashoffset: 1px; } 60.833% { stroke-dashoffset: 1px; } 100% { stroke-dashoffset: 100px; } }
</style><g transform="translate(155,4)"><g stroke="#000" fill="none" stroke-linejoin="round" transform="translate(-194,50) scale(4,4)"><path d="M71.5 1.5c0 .5-0.4 1-1 1h-21c-0.6 0-1-0.5-1-1v-13c0-0.6 .4-1 1-1h21c.6 0 1 .4 1 1v13Z"/><rect width="19" height="11" fill="#7b7b7b" transform="translate(50.5,-10.5)" style="animation: 12s linear infinite both a0_f;"/><path stroke-linecap="round" d="M55 5.5h10"/><path d="M58.5 2.5v3"/><path d="M61.5 2.5v3"/></g><g transform="translate(23.5,22.5)"><path d="M0 0h1" stroke="#fff" fill="none" stroke-linecap="round" stroke-linejoin="round" stroke-width=".5" opacity="0" transform="translate(-9,5) scale(4,4)" style="animation: 12s linear infinite both a1_o, 12s linear infinite both a1_d;"/><path d="M0 0h1" stroke="#fff" fill="none" stroke-linecap="round" stroke-linejoin="round" stroke-width=".5" opacity="0" transform="translate(-9,21) scale(4,4)" style="animation: 12s linear infinite both a2_o, 12s linear infinite both a2_d;"/><path d="M0 0h1" stroke="#fff" fill="none" stroke-linecap="round" stroke-linejoin="round" stroke-width=".5" opacity="0" transform="translate(-9,17) scale(4,4)" style="animation: 12s linear infinite both a3_o, 12s linear infinite both a3_d;"/><path d="M0 0h1" stroke="#fff" fill="none" stroke-linecap="round" stroke-linejoin="round" stroke-width=".5" opacity="0" transform="translate(-9,13) scale(4,4)" style="animation: 12s linear infinite both a4_o, 12s linear infinite both a4_d;"/><path d="M0 0h1" stroke="#fff" fill="none" stroke-linecap="round" stroke-linejoin="round" stroke-width=".5" opacity="0" transform="translate(-9,9) scale(4,4)" style="animation: 12s linear infinite both a5_o, 12s linear infinite both a5_d;"/><path d="M0 0h1" stroke="#fff" fill="none" stroke-linecap="round" stroke-linejoin="round" stroke-width=".5" opacity="0" transform="translate(-9,1) scale(4,4)" style="animation: 12s linear infinite both a6_o, 12s linear infinite both a6_d;"/><path d="M0 0h1" stroke="#fff" fill="none" stroke-linecap="round" stroke-linejoin="round" stroke-width=".5" opacity="0" transform="translate(-9,-3) scale(4,4)" style="animation: 12s linear infinite both a7_o, 12s linear infinite both a7_d;"/><path d="M0 0h1" stroke="#fff" fill="none" stroke-linecap="round" stroke-linejoin="round" stroke-width=".5" opacity="0" transform="translate(-9,-7) scale(4,4)" style="animation: 12s linear infinite both a8_o, 12s linear infinite both a8_d;"/></g><g transform="translate(12,12)"><rect width="17" height="9" fill="#41cdfc" opacity="0" transform="translate(20,12) scale(4,4) translate(-5,-3)" style="animation: 12s linear infinite both a9_o;"/></g><g data-name="Layer 2" opacity="0" transform="translate(33.3,16.2) scale(.1,.1)" style="animation: 12s linear infinite both a10_o;"><g data-name="Layer 1"><path class="green-planet-icon-white-cls-1" d="M59.2 132.4l34.8-34.8c.8-0.8 1.4-1.7 1.8-2.7c.4-1 .6-2 .6-3.1c0-1.1-0.2-2.1-0.6-3.1c-0.4-1-1-1.9-1.8-2.7c-0.8-0.8-1.7-1.4-2.7-1.8c-1-0.4-2-0.6-3.1-0.6c-1.1 0-2.1 .2-3.1 .6c-1 .4-1.9 1-2.7 1.8l-34.8 34.8c-1.5 1.5-2.4 3.6-2.4 5.8c0 2.2 .9 4.3 2.4 5.8c1.5 1.5 3.6 2.4 5.8 2.4c2.2 0 4.3-0.9 5.8-2.4Z" fill="#fff"/><path class="green-planet-icon-white-cls-1" d="M82.4 132.4c.8 .8 1.7 1.4 2.7 1.8c.9 .4 2 .6 3.1 .6c1.1 0 2.1-0.2 3.1-0.6c1-0.4 1.9-1 2.7-1.8l52.2-52.2c1.5-1.5 2.4-3.6 2.4-5.8c0-2.2-0.9-4.3-2.4-5.8c-1.6-1.5-3.6-2.4-5.8-2.4c-2.2 0-4.3 .9-5.8 2.4l-52.2 52.2c-0.8 .8-1.4 1.7-1.8 2.7c-0.4 1-0.6 2-0.6 3.1c0 1.1 .2 2.1 .6 3.1c.4 1 1 1.9 1.8 2.7Z" fill="#fff"/><path class="green-planet-icon-white-cls-1" d="M99.8 80.2c2.3 2.3 5.9 3 8.9 1.8c3.1-1.3 5.1-4.3 5.1-7.6c0-3.3-2-6.3-5.1-7.6c-3-1.2-6.6-0.5-8.9 1.8c-0.8 .8-1.4 1.7-1.8 2.7c-0.4 1-0.6 2-0.6 3.1c0 1.1 .2 2.1 .6 3.1c.4 1 1 1.9 1.8 2.7Z" fill="#fff"/><path class="green-planet-icon-white-cls-1" d="M65 184.6c-0.8-0.8-1.7-1.4-2.7-1.8c-1-0.4-2-0.6-3.1-0.6c-1.1 0-2.1 .2-3.1 .6c-1 .4-1.9 1-2.7 1.8c-2.3 2.3-3 5.9-1.8 8.9c1.3 3.1 4.3 5.1 7.6 5.1c3.3 0 6.3-2 7.6-5.1c1.2-3 .5-6.6-1.8-8.9Z" fill="#fff"/><path class="green-planet-icon-white-cls-1" d="M59.2 167.2l17.4-17.4c1.6-1.5 2.5-3.6 2.5-5.8c0-2.2-0.9-4.3-2.4-5.9c-1.6-1.6-3.7-2.4-5.9-2.4c-2.2 0-4.3 .9-5.8 2.5l-17.4 17.4c-1.5 1.5-2.4 3.6-2.4 5.8c0 2.2 .9 4.3 2.4 5.8c1.5 1.5 3.6 2.4 5.8 2.4c2.2 0 4.3-0.9 5.8-2.4Z" fill="#fff"/><path class="green-planet-icon-white-cls-1" d="M146.2 103.4c.8 .8 1.7 1.4 2.7 1.8c.9 .4 2 .6 3.1 .6c1.1 0 2.1-0.2 3.1-0.6c1-0.4 1.9-1 2.7-1.8l17.4-17.4c1.5-1.5 2.4-3.6 2.4-5.8c0-2.2-0.9-4.3-2.4-5.8c-1.6-1.5-3.6-2.4-5.8-2.4c-2.2 0-4.3 .9-5.8 2.4l-17.4 17.4c-0.8 .8-1.4 1.7-1.8 2.7c-0.4 1-0.6 2-0.6 3.1c0 1.1 .2 2.1 .6 3.1c.4 1 1 1.9 1.8 2.7Z" fill="#fff"/><path class="green-planet-icon-white-cls-1" d="M140.4 109.2c-0.8-0.8-1.7-1.4-2.7-1.8c-1-0.4-2-0.6-3.1-0.6c-1.1 0-2.2 .2-3.1 .6c-1 .4-1.9 1-2.7 1.8l-58 58c-1.5 1.5-2.4 3.6-2.4 5.8c0 2.2 .9 4.3 2.4 5.8c1.5 1.5 3.6 2.4 5.8 2.4c2.2 0 4.3-0.9 5.8-2.4l58-58c.8-0.8 1.4-1.7 1.8-2.7c.4-1 .6-2 .6-3.1c0-1.1-0.2-2.1-0.6-3.1c-0.4-1-1-1.9-1.8-2.7Z" fill="#fff"/><path class="green-planet-icon-white-cls-1" d="M215.8 173c-0.8-0.8-1.7-1.4-2.7-1.8c-1-0.4-2-0.6-3.1-0.6c-1.1 0-2.2 .2-3.2 .6c-1 .4-1.9 1-2.6 1.8l-34.8 34.8c-0.8 .8-1.4 1.7-1.8 2.7c-0.4 1-0.6 2-0.6 3.1c0 1.1 .2 2.1 .6 3.1c.4 1 1 1.9 1.8 2.7c.7 .8 1.6 1.4 2.6 1.8c1 .4 2.1 .6 3.2 .6c1.1 0 2.1-0.2 3.1-0.6c1-0.4 1.9-1 2.7-1.8l34.8-34.8c.7-0.8 1.3-1.7 1.8-2.7c.4-1 .6-2 .6-3.1c0-1.1-0.2-2.1-0.6-3.1c-0.5-1-1.1-1.9-1.8-2.7Z" fill="#fff"/><path class="green-planet-icon-white-cls-1" d="M181 173c-0.8-0.8-1.7-1.4-2.7-1.8c-1-0.4-2-0.6-3.1-0.6c-1.1 0-2.1 .2-3.1 .6c-1 .4-1.9 1-2.7 1.8l-52.2 52.2c-0.8 .8-1.4 1.7-1.8 2.7c-0.4 1-0.6 2-0.6 3.1c0 1.1 .2 2.1 .6 3.1c.4 1 1 1.9 1.8 2.7c.8 .8 1.7 1.4 2.7 1.8c1 .4 2 .6 3.1 .6c1.1 0 2.2-0.2 3.1-0.6c1-0.4 1.9-1 2.7-1.8l52.2-52.2c.8-0.8 1.4-1.7 1.8-2.7c.4-1 .6-2 .6-3.1c0-1.1-0.2-2.1-0.6-3.1c-0.4-1-1-1.9-1.8-2.7Z" fill="#fff"/><ellipse class="green-planet-icon-white-cls-1" rx="8.2" ry="8.2" fill="#fff" transform="translate(-117.1,179.2) rotate(-45) translate(157.8,231)"/><path class="green-planet-icon-white-cls-1" d="M198.4 109.2c-0.8 .8-1.4 1.7-1.8 2.7c-0.4 1-0.6 2-0.6 3.1c0 1.1 .2 2.1 .6 3.1c.4 1 1 1.9 1.8 2.7c.7 .8 1.6 1.4 2.6 1.8c1 .4 2.1 .6 3.2 .6c1.1 0 2.1-0.2 3.1-0.6c1-0.4 1.9-1 2.7-1.8c1.5-1.5 2.4-3.6 2.4-5.8c0-2.2-0.9-4.3-2.4-5.8c-1.6-1.5-3.6-2.4-5.8-2.4c-2.2 0-4.3 .9-5.8 2.4Z" fill="#fff"/><path class="green-planet-icon-white-cls-1" d="M204.2 138.2l-17.4 17.4c-1.6 1.5-2.4 3.6-2.4 5.8c0 2.2 .8 4.3 2.4 5.8c1.5 1.5 3.6 2.4 5.8 2.4c2.2 0 4.2-0.9 5.8-2.4l17.4-17.4c.7-0.8 1.3-1.7 1.8-2.7c.4-1 .6-2 .6-3.1c0-1.1-0.2-2.1-0.6-3.1c-0.5-1-1.1-1.9-1.8-2.7c-0.8-0.8-1.7-1.4-2.7-1.8c-1-0.4-2-0.6-3.1-0.6c-1.1 0-2.2 .2-3.2 .6c-1 .4-1.9 1-2.6 1.8Z" fill="#fff"/><path class="green-planet-icon-white-cls-1" d="M117.2 202c-0.8-0.8-1.7-1.4-2.7-1.8c-1-0.4-2-0.6-3.1-0.6c-1.1 0-2.2 .2-3.1 .6c-1 .4-1.9 1-2.7 1.8l-17.4 17.4c-1.5 1.5-2.4 3.6-2.4 5.8c0 2.2 .9 4.3 2.4 5.8c1.5 1.5 3.6 2.4 5.8 2.4c2.2 0 4.3-0.9 5.8-2.4l17.4-17.4c.8-0.8 1.4-1.7 1.8-2.7c.4-1 .6-2 .6-3.1c0-1.1-0.2-2.1-0.6-3.1c-0.4-1-1-1.9-1.8-2.7Z" fill="#fff"/><path class="green-planet-icon-white-cls-1" d="M192.6 126.6c-0.8-0.8-1.7-1.4-2.7-1.8c-1-0.4-2-0.6-3.1-0.6c-1.1 0-2.2 .2-3.2 .6c-1 .4-1.9 1-2.6 1.8l-58 58c-1.6 1.5-2.4 3.6-2.4 5.8c0 2.2 .8 4.3 2.4 5.8c1.5 1.5 3.6 2.4 5.8 2.4c2.2 0 4.2-0.9 5.8-2.4l58-58c.7-0.8 1.3-1.7 1.8-2.7c.4-1 .6-2 .6-3.1c0-1.1-0.2-2.1-0.6-3.1c-0.5-1-1.1-1.9-1.8-2.7Z" fill="#fff"/><path class="green-planet-icon-white-cls-1" d="M105.6 178.8c-0.8-0.8-1.7-1.4-2.7-1.8c-1-0.4-2-0.6-3.1-0.6c-1.1 0-2.2 .2-3.1 .6c-1 .4-1.9 1-2.7 1.8l-29 29c-0.8 .8-1.4 1.7-1.8 2.7c-0.4 .9-0.6 2-0.6 3.1c0 1.1 .2 2.1 .6 3.1c.4 1 1 1.9 1.8 2.7c.8 .8 1.7 1.4 2.7 1.8c.9 .4 2 .6 3.1 .6c1.1 0 2.1-0.2 3.1-0.6c1-0.4 1.9-1 2.7-1.8l29-29c.8-0.8 1.4-1.7 1.8-2.7c.4-1 .6-2 .6-3.1c0-1.1-0.2-2.2-0.6-3.1c-0.4-1-1-1.9-1.8-2.7Z" fill="#fff"/><path class="green-planet-icon-white-cls-1" d="M111.4 173c.8 .8 1.7 1.4 2.7 1.8c.9 .4 2 .6 3.1 .6c1.1 0 2.1-0.2 3.1-0.6c1-0.4 1.9-1 2.7-1.8l75.4-75.4c.7-0.8 1.3-1.7 1.8-2.7c.4-1 .6-2 .6-3.1c0-1.1-0.2-2.1-0.6-3.1c-0.5-1-1.1-1.9-1.8-2.7c-0.8-0.8-1.7-1.4-2.7-1.8c-1-0.4-2-0.6-3.1-0.6c-1.1 0-2.2 .2-3.2 .6c-1 .4-1.9 1-2.6 1.8l-75.4 75.4c-0.8 .8-1.4 1.7-1.8 2.7c-0.4 .9-0.6 2-0.6 3.1c0 1.1 .2 2.1 .6 3.1c.4 1 1 1.9 1.8 2.7Z" fill="#fff"/><path class="green-planet-icon-white-cls-1" d="M252.6 215.3v-124.2c4.3-0.9 7.9-3.8 9.6-7.7c1.8-4 1.5-8.6-0.8-12.3c-2.2-3.8-6.1-6.2-10.4-6.5c-4.3-0.4-8.6 1.4-11.4 4.7l-95.1-51.9c1.3-4.1 .5-8.5-2-12c-2.5-3.4-6.5-5.4-10.8-5.4c-4.3 0-8.3 2-10.8 5.4c-2.6 3.5-3.3 7.9-2.1 12l-95.1 51.9c-2.8-3.3-7-5.1-11.4-4.7c-4.3 .3-8.2 2.7-10.4 6.5c-2.2 3.7-2.5 8.3-0.8 12.3c1.8 3.9 5.3 6.8 9.6 7.7v124.2c-4.3 .9-7.8 3.7-9.6 7.7c-1.7 4-1.4 8.6 .8 12.3c2.2 3.7 6.1 6.2 10.4 6.5c4.4 .4 8.6-1.4 11.4-4.7l95.1 51.9c-1.2 4.1-0.5 8.5 2.1 11.9c2.5 3.5 6.5 5.5 10.8 5.5c4.3 0 8.3-2 10.8-5.5c2.5-3.4 3.3-7.8 2-11.9l95.2-51.9c2.8 3.3 7 5.1 11.3 4.7c4.4-0.3 8.3-2.7 10.5-6.5c2.2-3.7 2.5-8.3 .7-12.3c-1.7-4-5.3-6.8-9.5-7.7Zm-110.6 69c-0.5-0.6-1-1.1-1.6-1.6c-0.6-0.5-1.2-0.9-1.8-1.3c-0.7-0.4-1.3-0.7-2-1c-0.7-0.3-1.4-0.5-2.2-0.6v-29.9c0-0.6-0.3-1.3-0.8-1.8c-0.5-0.4-1.2-0.7-1.9-0.7c-0.6 0-1.3 .3-1.8 .7c-0.5 .5-0.8 1.2-0.8 1.8v29.9c-0.8 .1-1.5 .3-2.2 .6c-0.7 .3-1.4 .6-2 1c-0.7 .4-1.3 .8-1.8 1.3c-0.6 .5-1.1 1-1.6 1.6l-95.2-51.9c.2-0.7 .4-1.5 .5-2.2c.1-0.7 .1-1.5 .1-2.2c-0.1-0.8-0.2-1.5-0.3-2.2c-0.2-0.8-0.4-1.5-0.6-2.2l21.1-13.4c.6-0.4 1-1 1.2-1.7c.2-0.7 0-1.4-0.4-2c-0.3-0.6-0.9-1.1-1.6-1.2c-0.7-0.2-1.5 0-2.1 .3l-21.1 13.5c-0.5-0.5-1-0.9-1.5-1.3c-0.6-0.4-1.1-0.8-1.7-1.1c-0.6-0.4-1.2-0.6-1.9-0.9c-0.6-0.2-1.2-0.4-1.9-0.5v-124.2c.7-0.1 1.3-0.3 1.9-0.5c.7-0.3 1.3-0.6 1.9-0.9c.6-0.3 1.1-0.7 1.7-1.1c.5-0.4 1-0.8 1.5-1.3l21.1 13.4c.6 .4 1.4 .5 2.1 .4c.7-0.2 1.3-0.6 1.7-1.2c.3-0.6 .5-1.3 .3-2c-0.1-0.7-0.6-1.3-1.2-1.7l-21.1-13.5c.3-0.7 .5-1.4 .6-2.1c.2-0.7 .3-1.5 .3-2.2c0-0.8 0-1.5-0.1-2.2c-0.1-0.8-0.3-1.5-0.5-2.2l95.1-51.9c.5 .6 1 1.1 1.6 1.6c.6 .5 1.2 .9 1.8 1.3c.7 .4 1.3 .7 2 1c.7 .2 1.5 .5 2.2 .6v29.8c0 .8 .3 1.4 .8 1.9c.5 .5 1.2 .8 1.9 .8c.7 0 1.4-0.3 1.9-0.8c.5-0.5 .8-1.1 .8-1.9v-29.8c.7-0.1 1.4-0.3 2.1-0.6c.7-0.3 1.4-0.6 2.1-1c.6-0.4 1.2-0.8 1.8-1.3c.6-0.5 1.1-1 1.6-1.6l95.1 51.9c-0.2 .7-0.4 1.4-0.5 2.2c-0.1 .7-0.1 1.5-0.1 2.2c0 .7 .1 1.5 .3 2.2c.1 .7 .3 1.4 .6 2.1l-21.1 13.5c-0.7 .4-1.1 1-1.2 1.7c-0.2 .7-0.1 1.4 .3 2c.4 .6 1 1 1.7 1.2c.7 .1 1.4 0 2-0.4l21.2-13.4c.5 .5 1 .9 1.5 1.3c.5 .4 1.1 .8 1.7 1.1c.6 .3 1.2 .6 1.8 .9c.7 .2 1.3 .4 2 .5v124.2c-0.7 .1-1.3 .3-2 .5c-0.6 .3-1.2 .5-1.8 .9c-0.6 .3-1.2 .7-1.7 1.1c-0.5 .4-1 .8-1.5 1.3l-21.2-13.5c-0.6-0.3-1.3-0.5-2-0.3c-0.7 .1-1.3 .6-1.7 1.2c-0.4 .6-0.5 1.3-0.3 2c.1 .7 .5 1.3 1.2 1.7l21.1 13.4c-0.3 .7-0.5 1.5-0.6 2.2c-0.2 .7-0.3 1.5-0.3 2.2c0 .7 0 1.5 .1 2.2c.1 .8 .3 1.5 .5 2.2Z" fill="#fff"/></g></g></g><g transform="translate(5,78)"><g stroke="#000" fill="none" stroke-linejoin="round" transform="translate(-194,50) scale(4,4)"><path d="M71.5 1.5c0 .5-0.4 1-1 1h-21c-0.6 0-1-0.5-1-1v-13c0-0.6 .4-1 1-1h21c.6 0 1 .4 1 1v13Z"/><rect width="19" height="11" fill="#7b7b7b" transform="translate(50.5,-10.5)" style="animation: 12s linear infinite both a11_f;"/><path stroke-linecap="round" d="M55 5.5h10"/><path d="M58.5 2.5v3"/><path d="M61.5 2.5v3"/></g><g transform="translate(23.5,22.5)"><path d="M0 0h1" stroke="#fff" fill="none" stroke-linecap="round" stroke-linejoin="round" stroke-width=".5" opacity="0" transform="translate(-9,5) scale(4,4)" style="animation: 12s linear infinite both a12_o, 12s linear infinite both a12_d;"/><path d="M0 0h1" stroke="#fff" fill="none" stroke-linecap="round" stroke-linejoin="round" stroke-width=".5" opacity="0" transform="translate(-9,21) scale(4,4)" style="animation: 12s linear infinite both a13_o, 12s linear infinite both a13_d;"/><path d="M0 0h1" stroke="#fff" fill="none" stroke-linecap="round" stroke-linejoin="round" stroke-width=".5" opacity="0" transform="translate(-9,17) scale(4,4)" style="animation: 12s linear infinite both a14_o, 12s linear infinite both a14_d;"/><path d="M0 0h1" stroke="#fff" fill="none" stroke-linecap="round" stroke-linejoin="round" stroke-width=".5" opacity="0" transform="translate(-9,13) scale(4,4)" style="animation: 12s linear infinite both a15_o, 12s linear infinite both a15_d;"/><path d="M0 0h1" stroke="#fff" fill="none" stroke-linecap="round" stroke-linejoin="round" stroke-width=".5" opacity="0" transform="translate(-9,9) scale(4,4)" style="animation: 12s linear infinite both a16_o, 12s linear infinite both a16_d;"/><path d="M0 0h1" stroke="#fff" fill="none" stroke-linecap="round" stroke-linejoin="round" stroke-width=".5" opacity="0" transform="translate(-9,1) scale(4,4)" style="animation: 12s linear infinite both a17_o, 12s linear infinite both a17_d;"/><path d="M0 0h1" stroke="#fff" fill="none" stroke-linecap="round" stroke-linejoin="round" stroke-width=".5" opacity="0" transform="translate(-9,-3) scale(4,4)" style="animation: 12s linear infinite both a18_o, 12s linear infinite both a18_d;"/><path d="M0 0h1" stroke="#fff" fill="none" stroke-linecap="round" stroke-linejoin="round" stroke-width=".5" opacity="0" transform="translate(-9,-7) scale(4,4)" style="animation: 12s linear infinite both a19_o, 12s linear infinite both a19_d;"/></g><g transform="translate(12,12)"><rect width="17" height="9" fill="#41cdfc" opacity="0" transform="translate(20,12) scale(4,4) translate(-5,-3)" style="animation: 12s linear infinite both a20_o;"/></g><g data-name="Layer 2" opacity="0" transform="translate(33.3,14.2) scale(.1,.1)" style="animation: 12s linear infinite both a21_o;"><g data-name="Layer 1"><path class="green-planet-icon-white-cls-1" d="M59.2 132.4l34.8-34.8c.8-0.8 1.4-1.7 1.8-2.7c.4-1 .6-2 .6-3.1c0-1.1-0.2-2.1-0.6-3.1c-0.4-1-1-1.9-1.8-2.7c-0.8-0.8-1.7-1.4-2.7-1.8c-1-0.4-2-0.6-3.1-0.6c-1.1 0-2.1 .2-3.1 .6c-1 .4-1.9 1-2.7 1.8l-34.8 34.8c-1.5 1.5-2.4 3.6-2.4 5.8c0 2.2 .9 4.3 2.4 5.8c1.5 1.5 3.6 2.4 5.8 2.4c2.2 0 4.3-0.9 5.8-2.4Z" fill="#fff"/><path class="green-planet-icon-white-cls-1" d="M82.4 132.4c.8 .8 1.7 1.4 2.7 1.8c.9 .4 2 .6 3.1 .6c1.1 0 2.1-0.2 3.1-0.6c1-0.4 1.9-1 2.7-1.8l52.2-52.2c1.5-1.5 2.4-3.6 2.4-5.8c0-2.2-0.9-4.3-2.4-5.8c-1.6-1.5-3.6-2.4-5.8-2.4c-2.2 0-4.3 .9-5.8 2.4l-52.2 52.2c-0.8 .8-1.4 1.7-1.8 2.7c-0.4 1-0.6 2-0.6 3.1c0 1.1 .2 2.1 .6 3.1c.4 1 1 1.9 1.8 2.7Z" fill="#fff"/><path class="green-planet-icon-white-cls-1" d="M99.8 80.2c2.3 2.3 5.9 3 8.9 1.8c3.1-1.3 5.1-4.3 5.1-7.6c0-3.3-2-6.3-5.1-7.6c-3-1.2-6.6-0.5-8.9 1.8c-0.8 .8-1.4 1.7-1.8 2.7c-0.4 1-0.6 2-0.6 3.1c0 1.1 .2 2.1 .6 3.1c.4 1 1 1.9 1.8 2.7Z" fill="#fff"/><path class="green-planet-icon-white-cls-1" d="M65 184.6c-0.8-0.8-1.7-1.4-2.7-1.8c-1-0.4-2-0.6-3.1-0.6c-1.1 0-2.1 .2-3.1 .6c-1 .4-1.9 1-2.7 1.8c-2.3 2.3-3 5.9-1.8 8.9c1.3 3.1 4.3 5.1 7.6 5.1c3.3 0 6.3-2 7.6-5.1c1.2-3 .5-6.6-1.8-8.9Z" fill="#fff"/><path class="green-planet-icon-white-cls-1" d="M59.2 167.2l17.4-17.4c1.6-1.5 2.5-3.6 2.5-5.8c0-2.2-0.9-4.3-2.4-5.9c-1.6-1.6-3.7-2.4-5.9-2.4c-2.2 0-4.3 .9-5.8 2.5l-17.4 17.4c-1.5 1.5-2.4 3.6-2.4 5.8c0 2.2 .9 4.3 2.4 5.8c1.5 1.5 3.6 2.4 5.8 2.4c2.2 0 4.3-0.9 5.8-2.4Z" fill="#fff"/><path class="green-planet-icon-white-cls-1" d="M146.2 103.4c.8 .8 1.7 1.4 2.7 1.8c.9 .4 2 .6 3.1 .6c1.1 0 2.1-0.2 3.1-0.6c1-0.4 1.9-1 2.7-1.8l17.4-17.4c1.5-1.5 2.4-3.6 2.4-5.8c0-2.2-0.9-4.3-2.4-5.8c-1.6-1.5-3.6-2.4-5.8-2.4c-2.2 0-4.3 .9-5.8 2.4l-17.4 17.4c-0.8 .8-1.4 1.7-1.8 2.7c-0.4 1-0.6 2-0.6 3.1c0 1.1 .2 2.1 .6 3.1c.4 1 1 1.9 1.8 2.7Z" fill="#fff"/><path class="green-planet-icon-white-cls-1" d="M140.4 109.2c-0.8-0.8-1.7-1.4-2.7-1.8c-1-0.4-2-0.6-3.1-0.6c-1.1 0-2.2 .2-3.1 .6c-1 .4-1.9 1-2.7 1.8l-58 58c-1.5 1.5-2.4 3.6-2.4 5.8c0 2.2 .9 4.3 2.4 5.8c1.5 1.5 3.6 2.4 5.8 2.4c2.2 0 4.3-0.9 5.8-2.4l58-58c.8-0.8 1.4-1.7 1.8-2.7c.4-1 .6-2 .6-3.1c0-1.1-0.2-2.1-0.6-3.1c-0.4-1-1-1.9-1.8-2.7Z" fill="#fff"/><path class="green-planet-icon-white-cls-1" d="M215.8 173c-0.8-0.8-1.7-1.4-2.7-1.8c-1-0.4-2-0.6-3.1-0.6c-1.1 0-2.2 .2-3.2 .6c-1 .4-1.9 1-2.6 1.8l-34.8 34.8c-0.8 .8-1.4 1.7-1.8 2.7c-0.4 1-0.6 2-0.6 3.1c0 1.1 .2 2.1 .6 3.1c.4 1 1 1.9 1.8 2.7c.7 .8 1.6 1.4 2.6 1.8c1 .4 2.1 .6 3.2 .6c1.1 0 2.1-0.2 3.1-0.6c1-0.4 1.9-1 2.7-1.8l34.8-34.8c.7-0.8 1.3-1.7 1.8-2.7c.4-1 .6-2 .6-3.1c0-1.1-0.2-2.1-0.6-3.1c-0.5-1-1.1-1.9-1.8-2.7Z" fill="#fff"/><path class="green-planet-icon-white-cls-1" d="M181 173c-0.8-0.8-1.7-1.4-2.7-1.8c-1-0.4-2-0.6-3.1-0.6c-1.1 0-2.1 .2-3.1 .6c-1 .4-1.9 1-2.7 1.8l-52.2 52.2c-0.8 .8-1.4 1.7-1.8 2.7c-0.4 1-0.6 2-0.6 3.1c0 1.1 .2 2.1 .6 3.1c.4 1 1 1.9 1.8 2.7c.8 .8 1.7 1.4 2.7 1.8c1 .4 2 .6 3.1 .6c1.1 0 2.2-0.2 3.1-0.6c1-0.4 1.9-1 2.7-1.8l52.2-52.2c.8-0.8 1.4-1.7 1.8-2.7c.4-1 .6-2 .6-3.1c0-1.1-0.2-2.1-0.6-3.1c-0.4-1-1-1.9-1.8-2.7Z" fill="#fff"/><ellipse class="green-planet-icon-white-cls-1" rx="8.2" ry="8.2" fill="#fff" transform="translate(-117.1,179.2) rotate(-45) translate(157.8,231)"/><path class="green-planet-icon-white-cls-1" d="M198.4 109.2c-0.8 .8-1.4 1.7-1.8 2.7c-0.4 1-0.6 2-0.6 3.1c0 1.1 .2 2.1 .6 3.1c.4 1 1 1.9 1.8 2.7c.7 .8 1.6 1.4 2.6 1.8c1 .4 2.1 .6 3.2 .6c1.1 0 2.1-0.2 3.1-0.6c1-0.4 1.9-1 2.7-1.8c1.5-1.5 2.4-3.6 2.4-5.8c0-2.2-0.9-4.3-2.4-5.8c-1.6-1.5-3.6-2.4-5.8-2.4c-2.2 0-4.3 .9-5.8 2.4Z" fill="#fff"/><path class="green-planet-icon-white-cls-1" d="M204.2 138.2l-17.4 17.4c-1.6 1.5-2.4 3.6-2.4 5.8c0 2.2 .8 4.3 2.4 5.8c1.5 1.5 3.6 2.4 5.8 2.4c2.2 0 4.2-0.9 5.8-2.4l17.4-17.4c.7-0.8 1.3-1.7 1.8-2.7c.4-1 .6-2 .6-3.1c0-1.1-0.2-2.1-0.6-3.1c-0.5-1-1.1-1.9-1.8-2.7c-0.8-0.8-1.7-1.4-2.7-1.8c-1-0.4-2-0.6-3.1-0.6c-1.1 0-2.2 .2-3.2 .6c-1 .4-1.9 1-2.6 1.8Z" fill="#fff"/><path class="green-planet-icon-white-cls-1" d="M117.2 202c-0.8-0.8-1.7-1.4-2.7-1.8c-1-0.4-2-0.6-3.1-0.6c-1.1 0-2.2 .2-3.1 .6c-1 .4-1.9 1-2.7 1.8l-17.4 17.4c-1.5 1.5-2.4 3.6-2.4 5.8c0 2.2 .9 4.3 2.4 5.8c1.5 1.5 3.6 2.4 5.8 2.4c2.2 0 4.3-0.9 5.8-2.4l17.4-17.4c.8-0.8 1.4-1.7 1.8-2.7c.4-1 .6-2 .6-3.1c0-1.1-0.2-2.1-0.6-3.1c-0.4-1-1-1.9-1.8-2.7Z" fill="#fff"/><path class="green-planet-icon-white-cls-1" d="M192.6 126.6c-0.8-0.8-1.7-1.4-2.7-1.8c-1-0.4-2-0.6-3.1-0.6c-1.1 0-2.2 .2-3.2 .6c-1 .4-1.9 1-2.6 1.8l-58 58c-1.6 1.5-2.4 3.6-2.4 5.8c0 2.2 .8 4.3 2.4 5.8c1.5 1.5 3.6 2.4 5.8 2.4c2.2 0 4.2-0.9 5.8-2.4l58-58c.7-0.8 1.3-1.7 1.8-2.7c.4-1 .6-2 .6-3.1c0-1.1-0.2-2.1-0.6-3.1c-0.5-1-1.1-1.9-1.8-2.7Z" fill="#fff"/><path class="green-planet-icon-white-cls-1" d="M105.6 178.8c-0.8-0.8-1.7-1.4-2.7-1.8c-1-0.4-2-0.6-3.1-0.6c-1.1 0-2.2 .2-3.1 .6c-1 .4-1.9 1-2.7 1.8l-29 29c-0.8 .8-1.4 1.7-1.8 2.7c-0.4 .9-0.6 2-0.6 3.1c0 1.1 .2 2.1 .6 3.1c.4 1 1 1.9 1.8 2.7c.8 .8 1.7 1.4 2.7 1.8c.9 .4 2 .6 3.1 .6c1.1 0 2.1-0.2 3.1-0.6c1-0.4 1.9-1 2.7-1.8l29-29c.8-0.8 1.4-1.7 1.8-2.7c.4-1 .6-2 .6-3.1c0-1.1-0.2-2.2-0.6-3.1c-0.4-1-1-1.9-1.8-2.7Z" fill="#fff"/><path class="green-planet-icon-white-cls-1" d="M111.4 173c.8 .8 1.7 1.4 2.7 1.8c.9 .4 2 .6 3.1 .6c1.1 0 2.1-0.2 3.1-0.6c1-0.4 1.9-1 2.7-1.8l75.4-75.4c.7-0.8 1.3-1.7 1.8-2.7c.4-1 .6-2 .6-3.1c0-1.1-0.2-2.1-0.6-3.1c-0.5-1-1.1-1.9-1.8-2.7c-0.8-0.8-1.7-1.4-2.7-1.8c-1-0.4-2-0.6-3.1-0.6c-1.1 0-2.2 .2-3.2 .6c-1 .4-1.9 1-2.6 1.8l-75.4 75.4c-0.8 .8-1.4 1.7-1.8 2.7c-0.4 .9-0.6 2-0.6 3.1c0 1.1 .2 2.1 .6 3.1c.4 1 1 1.9 1.8 2.7Z" fill="#fff"/><path class="green-planet-icon-white-cls-1" d="M252.6 215.3v-124.2c4.3-0.9 7.9-3.8 9.6-7.7c1.8-4 1.5-8.6-0.8-12.3c-2.2-3.8-6.1-6.2-10.4-6.5c-4.3-0.4-8.6 1.4-11.4 4.7l-95.1-51.9c1.3-4.1 .5-8.5-2-12c-2.5-3.4-6.5-5.4-10.8-5.4c-4.3 0-8.3 2-10.8 5.4c-2.6 3.5-3.3 7.9-2.1 12l-95.1 51.9c-2.8-3.3-7-5.1-11.4-4.7c-4.3 .3-8.2 2.7-10.4 6.5c-2.2 3.7-2.5 8.3-0.8 12.3c1.8 3.9 5.3 6.8 9.6 7.7v124.2c-4.3 .9-7.8 3.7-9.6 7.7c-1.7 4-1.4 8.6 .8 12.3c2.2 3.7 6.1 6.2 10.4 6.5c4.4 .4 8.6-1.4 11.4-4.7l95.1 51.9c-1.2 4.1-0.5 8.5 2.1 11.9c2.5 3.5 6.5 5.5 10.8 5.5c4.3 0 8.3-2 10.8-5.5c2.5-3.4 3.3-7.8 2-11.9l95.2-51.9c2.8 3.3 7 5.1 11.3 4.7c4.4-0.3 8.3-2.7 10.5-6.5c2.2-3.7 2.5-8.3 .7-12.3c-1.7-4-5.3-6.8-9.5-7.7Zm-110.6 69c-0.5-0.6-1-1.1-1.6-1.6c-0.6-0.5-1.2-0.9-1.8-1.3c-0.7-0.4-1.3-0.7-2-1c-0.7-0.3-1.4-0.5-2.2-0.6v-29.9c0-0.6-0.3-1.3-0.8-1.8c-0.5-0.4-1.2-0.7-1.9-0.7c-0.6 0-1.3 .3-1.8 .7c-0.5 .5-0.8 1.2-0.8 1.8v29.9c-0.8 .1-1.5 .3-2.2 .6c-0.7 .3-1.4 .6-2 1c-0.7 .4-1.3 .8-1.8 1.3c-0.6 .5-1.1 1-1.6 1.6l-95.2-51.9c.2-0.7 .4-1.5 .5-2.2c.1-0.7 .1-1.5 .1-2.2c-0.1-0.8-0.2-1.5-0.3-2.2c-0.2-0.8-0.4-1.5-0.6-2.2l21.1-13.4c.6-0.4 1-1 1.2-1.7c.2-0.7 0-1.4-0.4-2c-0.3-0.6-0.9-1.1-1.6-1.2c-0.7-0.2-1.5 0-2.1 .3l-21.1 13.5c-0.5-0.5-1-0.9-1.5-1.3c-0.6-0.4-1.1-0.8-1.7-1.1c-0.6-0.4-1.2-0.6-1.9-0.9c-0.6-0.2-1.2-0.4-1.9-0.5v-124.2c.7-0.1 1.3-0.3 1.9-0.5c.7-0.3 1.3-0.6 1.9-0.9c.6-0.3 1.1-0.7 1.7-1.1c.5-0.4 1-0.8 1.5-1.3l21.1 13.4c.6 .4 1.4 .5 2.1 .4c.7-0.2 1.3-0.6 1.7-1.2c.3-0.6 .5-1.3 .3-2c-0.1-0.7-0.6-1.3-1.2-1.7l-21.1-13.5c.3-0.7 .5-1.4 .6-2.1c.2-0.7 .3-1.5 .3-2.2c0-0.8 0-1.5-0.1-2.2c-0.1-0.8-0.3-1.5-0.5-2.2l95.1-51.9c.5 .6 1 1.1 1.6 1.6c.6 .5 1.2 .9 1.8 1.3c.7 .4 1.3 .7 2 1c.7 .2 1.5 .5 2.2 .6v29.8c0 .8 .3 1.4 .8 1.9c.5 .5 1.2 .8 1.9 .8c.7 0 1.4-0.3 1.9-0.8c.5-0.5 .8-1.1 .8-1.9v-29.8c.7-0.1 1.4-0.3 2.1-0.6c.7-0.3 1.4-0.6 2.1-1c.6-0.4 1.2-0.8 1.8-1.3c.6-0.5 1.1-1 1.6-1.6l95.1 51.9c-0.2 .7-0.4 1.4-0.5 2.2c-0.1 .7-0.1 1.5-0.1 2.2c0 .7 .1 1.5 .3 2.2c.1 .7 .3 1.4 .6 2.1l-21.1 13.5c-0.7 .4-1.1 1-1.2 1.7c-0.2 .7-0.1 1.4 .3 2c.4 .6 1 1 1.7 1.2c.7 .1 1.4 0 2-0.4l21.2-13.4c.5 .5 1 .9 1.5 1.3c.5 .4 1.1 .8 1.7 1.1c.6 .3 1.2 .6 1.8 .9c.7 .2 1.3 .4 2 .5v124.2c-0.7 .1-1.3 .3-2 .5c-0.6 .3-1.2 .5-1.8 .9c-0.6 .3-1.2 .7-1.7 1.1c-0.5 .4-1 .8-1.5 1.3l-21.2-13.5c-0.6-0.3-1.3-0.5-2-0.3c-0.7 .1-1.3 .6-1.7 1.2c-0.4 .6-0.5 1.3-0.3 2c.1 .7 .5 1.3 1.2 1.7l21.1 13.4c-0.3 .7-0.5 1.5-0.6 2.2c-0.2 .7-0.3 1.5-0.3 2.2c0 .7 0 1.5 .1 2.2c.1 .8 .3 1.5 .5 2.2Z" fill="#fff"/></g></g></g><g transform="translate(5,215)"><g stroke="#000" fill="none" stroke-linejoin="round" transform="translate(-194,50) scale(4,4)"><path d="M71.5 1.5c0 .5-0.4 1-1 1h-21c-0.6 0-1-0.5-1-1v-13c0-0.6 .4-1 1-1h21c.6 0 1 .4 1 1v13Z"/><rect width="19" height="11" fill="#7b7b7b" transform="translate(50.5,-10.5)" style="animation: 12s linear infinite both a22_f;"/><path stroke-linecap="round" d="M55 5.5h10"/><path d="M58.5 2.5v3"/><path d="M61.5 2.5v3"/></g><g transform="translate(23.5,22.5)"><path d="M0 0h1" stroke="#fff" fill="none" stroke-linecap="round" stroke-linejoin="round" stroke-width=".5" opacity="0" transform="translate(-9,5) scale(4,4)" style="animation: 12s linear infinite both a23_o, 12s linear infinite both a23_d;"/><path d="M0 0h1" stroke="#fff" fill="none" stroke-linecap="round" stroke-linejoin="round" stroke-width=".5" opacity="0" transform="translate(-9,21) scale(4,4)" style="animation: 12s linear infinite both a24_o, 12s linear infinite both a24_d;"/><path d="M0 0h1" stroke="#fff" fill="none" stroke-linecap="round" stroke-linejoin="round" stroke-width=".5" opacity="0" transform="translate(-9,17) scale(4,4)" style="animation: 12s linear infinite both a25_o, 12s linear infinite both a25_d;"/><path d="M0 0h1" stroke="#fff" fill="none" stroke-linecap="round" stroke-linejoin="round" stroke-width=".5" opacity="0" transform="translate(-9,13) scale(4,4)" style="animation: 12s linear infinite both a26_o, 12s linear infinite both a26_d;"/><path d="M0 0h1" stroke="#fff" fill="none" stroke-linecap="round" stroke-linejoin="round" stroke-width=".5" opacity="0" transform="translate(-9,9) scale(4,4)" style="animation: 12s linear infinite both a27_o, 12s linear infinite both a27_d;"/><path d="M0 0h1" stroke="#fff" fill="none" stroke-linecap="round" stroke-linejoin="round" stroke-width=".5" opacity="0" transform="translate(-9,1) scale(4,4)" style="animation: 12s linear infinite both a28_o, 12s linear infinite both a28_d;"/><path d="M0 0h1" stroke="#fff" fill="none" stroke-linecap="round" stroke-linejoin="round" stroke-width=".5" opacity="0" transform="translate(-9,-3) scale(4,4)" style="animation: 12s linear infinite both a29_o, 12s linear infinite both a29_d;"/><path d="M0 0h1" stroke="#fff" fill="none" stroke-linecap="round" stroke-linejoin="round" stroke-width=".5" opacity="0" transform="translate(-9,-7) scale(4,4)" style="animation: 12s linear infinite both a30_o, 12s linear infinite both a30_d;"/></g><g transform="translate(12,12)"><rect width="17" height="9" fill="#41cdfc" opacity="0" transform="translate(20,12) scale(4,4) translate(-5,-3)" style="animation: 12s linear infinite both a31_o;"/><g transform="translate(16,4)"><path fill="#fff" d="M9 0v7h-8Z" opacity="0" transform="translate(14,14) scale(4,4) translate(-4.5,-3.5)" style="animation: 12s linear infinite both a32_o;"/><path d="M0 0h7" stroke="#41cdfc" fill="none" stroke-width=".5" stroke-linecap="square" opacity="0" transform="translate(6,10) scale(4,4)" style="animation: 12s linear infinite both a33_o;"/><path d="M0 0h10" stroke="#41cdfc" fill="none" stroke-width=".5" stroke-linecap="square" opacity="0" transform="translate(0,20) scale(4,4)" style="animation: 12s linear infinite both a34_o;"/></g></g><g data-name="Layer 2" opacity="0" transform="translate(33.3,16.2) scale(.1,.1)" style="animation: 12s linear infinite both a35_o;"><g data-name="Layer 1"><path class="green-planet-icon-white-cls-1" d="M59.2 132.4l34.8-34.8c.8-0.8 1.4-1.7 1.8-2.7c.4-1 .6-2 .6-3.1c0-1.1-0.2-2.1-0.6-3.1c-0.4-1-1-1.9-1.8-2.7c-0.8-0.8-1.7-1.4-2.7-1.8c-1-0.4-2-0.6-3.1-0.6c-1.1 0-2.1 .2-3.1 .6c-1 .4-1.9 1-2.7 1.8l-34.8 34.8c-1.5 1.5-2.4 3.6-2.4 5.8c0 2.2 .9 4.3 2.4 5.8c1.5 1.5 3.6 2.4 5.8 2.4c2.2 0 4.3-0.9 5.8-2.4Z" fill="#fff"/><path class="green-planet-icon-white-cls-1" d="M82.4 132.4c.8 .8 1.7 1.4 2.7 1.8c.9 .4 2 .6 3.1 .6c1.1 0 2.1-0.2 3.1-0.6c1-0.4 1.9-1 2.7-1.8l52.2-52.2c1.5-1.5 2.4-3.6 2.4-5.8c0-2.2-0.9-4.3-2.4-5.8c-1.6-1.5-3.6-2.4-5.8-2.4c-2.2 0-4.3 .9-5.8 2.4l-52.2 52.2c-0.8 .8-1.4 1.7-1.8 2.7c-0.4 1-0.6 2-0.6 3.1c0 1.1 .2 2.1 .6 3.1c.4 1 1 1.9 1.8 2.7Z" fill="#fff"/><path class="green-planet-icon-white-cls-1" d="M99.8 80.2c2.3 2.3 5.9 3 8.9 1.8c3.1-1.3 5.1-4.3 5.1-7.6c0-3.3-2-6.3-5.1-7.6c-3-1.2-6.6-0.5-8.9 1.8c-0.8 .8-1.4 1.7-1.8 2.7c-0.4 1-0.6 2-0.6 3.1c0 1.1 .2 2.1 .6 3.1c.4 1 1 1.9 1.8 2.7Z" fill="#fff"/><path class="green-planet-icon-white-cls-1" d="M65 184.6c-0.8-0.8-1.7-1.4-2.7-1.8c-1-0.4-2-0.6-3.1-0.6c-1.1 0-2.1 .2-3.1 .6c-1 .4-1.9 1-2.7 1.8c-2.3 2.3-3 5.9-1.8 8.9c1.3 3.1 4.3 5.1 7.6 5.1c3.3 0 6.3-2 7.6-5.1c1.2-3 .5-6.6-1.8-8.9Z" fill="#fff"/><path class="green-planet-icon-white-cls-1" d="M59.2 167.2l17.4-17.4c1.6-1.5 2.5-3.6 2.5-5.8c0-2.2-0.9-4.3-2.4-5.9c-1.6-1.6-3.7-2.4-5.9-2.4c-2.2 0-4.3 .9-5.8 2.5l-17.4 17.4c-1.5 1.5-2.4 3.6-2.4 5.8c0 2.2 .9 4.3 2.4 5.8c1.5 1.5 3.6 2.4 5.8 2.4c2.2 0 4.3-0.9 5.8-2.4Z" fill="#fff"/><path class="green-planet-icon-white-cls-1" d="M146.2 103.4c.8 .8 1.7 1.4 2.7 1.8c.9 .4 2 .6 3.1 .6c1.1 0 2.1-0.2 3.1-0.6c1-0.4 1.9-1 2.7-1.8l17.4-17.4c1.5-1.5 2.4-3.6 2.4-5.8c0-2.2-0.9-4.3-2.4-5.8c-1.6-1.5-3.6-2.4-5.8-2.4c-2.2 0-4.3 .9-5.8 2.4l-17.4 17.4c-0.8 .8-1.4 1.7-1.8 2.7c-0.4 1-0.6 2-0.6 3.1c0 1.1 .2 2.1 .6 3.1c.4 1 1 1.9 1.8 2.7Z" fill="#fff"/><path class="green-planet-icon-white-cls-1" d="M140.4 109.2c-0.8-0.8-1.7-1.4-2.7-1.8c-1-0.4-2-0.6-3.1-0.6c-1.1 0-2.2 .2-3.1 .6c-1 .4-1.9 1-2.7 1.8l-58 58c-1.5 1.5-2.4 3.6-2.4 5.8c0 2.2 .9 4.3 2.4 5.8c1.5 1.5 3.6 2.4 5.8 2.4c2.2 0 4.3-0.9 5.8-2.4l58-58c.8-0.8 1.4-1.7 1.8-2.7c.4-1 .6-2 .6-3.1c0-1.1-0.2-2.1-0.6-3.1c-0.4-1-1-1.9-1.8-2.7Z" fill="#fff"/><path class="green-planet-icon-white-cls-1" d="M215.8 173c-0.8-0.8-1.7-1.4-2.7-1.8c-1-0.4-2-0.6-3.1-0.6c-1.1 0-2.2 .2-3.2 .6c-1 .4-1.9 1-2.6 1.8l-34.8 34.8c-0.8 .8-1.4 1.7-1.8 2.7c-0.4 1-0.6 2-0.6 3.1c0 1.1 .2 2.1 .6 3.1c.4 1 1 1.9 1.8 2.7c.7 .8 1.6 1.4 2.6 1.8c1 .4 2.1 .6 3.2 .6c1.1 0 2.1-0.2 3.1-0.6c1-0.4 1.9-1 2.7-1.8l34.8-34.8c.7-0.8 1.3-1.7 1.8-2.7c.4-1 .6-2 .6-3.1c0-1.1-0.2-2.1-0.6-3.1c-0.5-1-1.1-1.9-1.8-2.7Z" fill="#fff"/><path class="green-planet-icon-white-cls-1" d="M181 173c-0.8-0.8-1.7-1.4-2.7-1.8c-1-0.4-2-0.6-3.1-0.6c-1.1 0-2.1 .2-3.1 .6c-1 .4-1.9 1-2.7 1.8l-52.2 52.2c-0.8 .8-1.4 1.7-1.8 2.7c-0.4 1-0.6 2-0.6 3.1c0 1.1 .2 2.1 .6 3.1c.4 1 1 1.9 1.8 2.7c.8 .8 1.7 1.4 2.7 1.8c1 .4 2 .6 3.1 .6c1.1 0 2.2-0.2 3.1-0.6c1-0.4 1.9-1 2.7-1.8l52.2-52.2c.8-0.8 1.4-1.7 1.8-2.7c.4-1 .6-2 .6-3.1c0-1.1-0.2-2.1-0.6-3.1c-0.4-1-1-1.9-1.8-2.7Z" fill="#fff"/><ellipse class="green-planet-icon-white-cls-1" rx="8.2" ry="8.2" fill="#fff" transform="translate(-117.1,179.2) rotate(-45) translate(157.8,231)"/><path class="green-planet-icon-white-cls-1" d="M198.4 109.2c-0.8 .8-1.4 1.7-1.8 2.7c-0.4 1-0.6 2-0.6 3.1c0 1.1 .2 2.1 .6 3.1c.4 1 1 1.9 1.8 2.7c.7 .8 1.6 1.4 2.6 1.8c1 .4 2.1 .6 3.2 .6c1.1 0 2.1-0.2 3.1-0.6c1-0.4 1.9-1 2.7-1.8c1.5-1.5 2.4-3.6 2.4-5.8c0-2.2-0.9-4.3-2.4-5.8c-1.6-1.5-3.6-2.4-5.8-2.4c-2.2 0-4.3 .9-5.8 2.4Z" fill="#fff"/><path class="green-planet-icon-white-cls-1" d="M204.2 138.2l-17.4 17.4c-1.6 1.5-2.4 3.6-2.4 5.8c0 2.2 .8 4.3 2.4 5.8c1.5 1.5 3.6 2.4 5.8 2.4c2.2 0 4.2-0.9 5.8-2.4l17.4-17.4c.7-0.8 1.3-1.7 1.8-2.7c.4-1 .6-2 .6-3.1c0-1.1-0.2-2.1-0.6-3.1c-0.5-1-1.1-1.9-1.8-2.7c-0.8-0.8-1.7-1.4-2.7-1.8c-1-0.4-2-0.6-3.1-0.6c-1.1 0-2.2 .2-3.2 .6c-1 .4-1.9 1-2.6 1.8Z" fill="#fff"/><path class="green-planet-icon-white-cls-1" d="M117.2 202c-0.8-0.8-1.7-1.4-2.7-1.8c-1-0.4-2-0.6-3.1-0.6c-1.1 0-2.2 .2-3.1 .6c-1 .4-1.9 1-2.7 1.8l-17.4 17.4c-1.5 1.5-2.4 3.6-2.4 5.8c0 2.2 .9 4.3 2.4 5.8c1.5 1.5 3.6 2.4 5.8 2.4c2.2 0 4.3-0.9 5.8-2.4l17.4-17.4c.8-0.8 1.4-1.7 1.8-2.7c.4-1 .6-2 .6-3.1c0-1.1-0.2-2.1-0.6-3.1c-0.4-1-1-1.9-1.8-2.7Z" fill="#fff"/><path class="green-planet-icon-white-cls-1" d="M192.6 126.6c-0.8-0.8-1.7-1.4-2.7-1.8c-1-0.4-2-0.6-3.1-0.6c-1.1 0-2.2 .2-3.2 .6c-1 .4-1.9 1-2.6 1.8l-58 58c-1.6 1.5-2.4 3.6-2.4 5.8c0 2.2 .8 4.3 2.4 5.8c1.5 1.5 3.6 2.4 5.8 2.4c2.2 0 4.2-0.9 5.8-2.4l58-58c.7-0.8 1.3-1.7 1.8-2.7c.4-1 .6-2 .6-3.1c0-1.1-0.2-2.1-0.6-3.1c-0.5-1-1.1-1.9-1.8-2.7Z" fill="#fff"/><path class="green-planet-icon-white-cls-1" d="M105.6 178.8c-0.8-0.8-1.7-1.4-2.7-1.8c-1-0.4-2-0.6-3.1-0.6c-1.1 0-2.2 .2-3.1 .6c-1 .4-1.9 1-2.7 1.8l-29 29c-0.8 .8-1.4 1.7-1.8 2.7c-0.4 .9-0.6 2-0.6 3.1c0 1.1 .2 2.1 .6 3.1c.4 1 1 1.9 1.8 2.7c.8 .8 1.7 1.4 2.7 1.8c.9 .4 2 .6 3.1 .6c1.1 0 2.1-0.2 3.1-0.6c1-0.4 1.9-1 2.7-1.8l29-29c.8-0.8 1.4-1.7 1.8-2.7c.4-1 .6-2 .6-3.1c0-1.1-0.2-2.2-0.6-3.1c-0.4-1-1-1.9-1.8-2.7Z" fill="#fff"/><path class="green-planet-icon-white-cls-1" d="M111.4 173c.8 .8 1.7 1.4 2.7 1.8c.9 .4 2 .6 3.1 .6c1.1 0 2.1-0.2 3.1-0.6c1-0.4 1.9-1 2.7-1.8l75.4-75.4c.7-0.8 1.3-1.7 1.8-2.7c.4-1 .6-2 .6-3.1c0-1.1-0.2-2.1-0.6-3.1c-0.5-1-1.1-1.9-1.8-2.7c-0.8-0.8-1.7-1.4-2.7-1.8c-1-0.4-2-0.6-3.1-0.6c-1.1 0-2.2 .2-3.2 .6c-1 .4-1.9 1-2.6 1.8l-75.4 75.4c-0.8 .8-1.4 1.7-1.8 2.7c-0.4 .9-0.6 2-0.6 3.1c0 1.1 .2 2.1 .6 3.1c.4 1 1 1.9 1.8 2.7Z" fill="#fff"/><path class="green-planet-icon-white-cls-1" d="M252.6 215.3v-124.2c4.3-0.9 7.9-3.8 9.6-7.7c1.8-4 1.5-8.6-0.8-12.3c-2.2-3.8-6.1-6.2-10.4-6.5c-4.3-0.4-8.6 1.4-11.4 4.7l-95.1-51.9c1.3-4.1 .5-8.5-2-12c-2.5-3.4-6.5-5.4-10.8-5.4c-4.3 0-8.3 2-10.8 5.4c-2.6 3.5-3.3 7.9-2.1 12l-95.1 51.9c-2.8-3.3-7-5.1-11.4-4.7c-4.3 .3-8.2 2.7-10.4 6.5c-2.2 3.7-2.5 8.3-0.8 12.3c1.8 3.9 5.3 6.8 9.6 7.7v124.2c-4.3 .9-7.8 3.7-9.6 7.7c-1.7 4-1.4 8.6 .8 12.3c2.2 3.7 6.1 6.2 10.4 6.5c4.4 .4 8.6-1.4 11.4-4.7l95.1 51.9c-1.2 4.1-0.5 8.5 2.1 11.9c2.5 3.5 6.5 5.5 10.8 5.5c4.3 0 8.3-2 10.8-5.5c2.5-3.4 3.3-7.8 2-11.9l95.2-51.9c2.8 3.3 7 5.1 11.3 4.7c4.4-0.3 8.3-2.7 10.5-6.5c2.2-3.7 2.5-8.3 .7-12.3c-1.7-4-5.3-6.8-9.5-7.7Zm-110.6 69c-0.5-0.6-1-1.1-1.6-1.6c-0.6-0.5-1.2-0.9-1.8-1.3c-0.7-0.4-1.3-0.7-2-1c-0.7-0.3-1.4-0.5-2.2-0.6v-29.9c0-0.6-0.3-1.3-0.8-1.8c-0.5-0.4-1.2-0.7-1.9-0.7c-0.6 0-1.3 .3-1.8 .7c-0.5 .5-0.8 1.2-0.8 1.8v29.9c-0.8 .1-1.5 .3-2.2 .6c-0.7 .3-1.4 .6-2 1c-0.7 .4-1.3 .8-1.8 1.3c-0.6 .5-1.1 1-1.6 1.6l-95.2-51.9c.2-0.7 .4-1.5 .5-2.2c.1-0.7 .1-1.5 .1-2.2c-0.1-0.8-0.2-1.5-0.3-2.2c-0.2-0.8-0.4-1.5-0.6-2.2l21.1-13.4c.6-0.4 1-1 1.2-1.7c.2-0.7 0-1.4-0.4-2c-0.3-0.6-0.9-1.1-1.6-1.2c-0.7-0.2-1.5 0-2.1 .3l-21.1 13.5c-0.5-0.5-1-0.9-1.5-1.3c-0.6-0.4-1.1-0.8-1.7-1.1c-0.6-0.4-1.2-0.6-1.9-0.9c-0.6-0.2-1.2-0.4-1.9-0.5v-124.2c.7-0.1 1.3-0.3 1.9-0.5c.7-0.3 1.3-0.6 1.9-0.9c.6-0.3 1.1-0.7 1.7-1.1c.5-0.4 1-0.8 1.5-1.3l21.1 13.4c.6 .4 1.4 .5 2.1 .4c.7-0.2 1.3-0.6 1.7-1.2c.3-0.6 .5-1.3 .3-2c-0.1-0.7-0.6-1.3-1.2-1.7l-21.1-13.5c.3-0.7 .5-1.4 .6-2.1c.2-0.7 .3-1.5 .3-2.2c0-0.8 0-1.5-0.1-2.2c-0.1-0.8-0.3-1.5-0.5-2.2l95.1-51.9c.5 .6 1 1.1 1.6 1.6c.6 .5 1.2 .9 1.8 1.3c.7 .4 1.3 .7 2 1c.7 .2 1.5 .5 2.2 .6v29.8c0 .8 .3 1.4 .8 1.9c.5 .5 1.2 .8 1.9 .8c.7 0 1.4-0.3 1.9-0.8c.5-0.5 .8-1.1 .8-1.9v-29.8c.7-0.1 1.4-0.3 2.1-0.6c.7-0.3 1.4-0.6 2.1-1c.6-0.4 1.2-0.8 1.8-1.3c.6-0.5 1.1-1 1.6-1.6l95.1 51.9c-0.2 .7-0.4 1.4-0.5 2.2c-0.1 .7-0.1 1.5-0.1 2.2c0 .7 .1 1.5 .3 2.2c.1 .7 .3 1.4 .6 2.1l-21.1 13.5c-0.7 .4-1.1 1-1.2 1.7c-0.2 .7-0.1 1.4 .3 2c.4 .6 1 1 1.7 1.2c.7 .1 1.4 0 2-0.4l21.2-13.4c.5 .5 1 .9 1.5 1.3c.5 .4 1.1 .8 1.7 1.1c.6 .3 1.2 .6 1.8 .9c.7 .2 1.3 .4 2 .5v124.2c-0.7 .1-1.3 .3-2 .5c-0.6 .3-1.2 .5-1.8 .9c-0.6 .3-1.2 .7-1.7 1.1c-0.5 .4-1 .8-1.5 1.3l-21.2-13.5c-0.6-0.3-1.3-0.5-2-0.3c-0.7 .1-1.3 .6-1.7 1.2c-0.4 .6-0.5 1.3-0.3 2c.1 .7 .5 1.3 1.2 1.7l21.1 13.4c-0.3 .7-0.5 1.5-0.6 2.2c-0.2 .7-0.3 1.5-0.3 2.2c0 .7 0 1.5 .1 2.2c.1 .8 .3 1.5 .5 2.2Z" fill="#fff"/></g></g></g><g transform="translate(155,297)"><g stroke="#000" fill="none" stroke-linejoin="round" transform="translate(-194,50) scale(4,4)"><path d="M71.5 1.5c0 .5-0.4 1-1 1h-21c-0.6 0-1-0.5-1-1v-13c0-0.6 .4-1 1-1h21c.6 0 1 .4 1 1v13Z"/><rect width="19" height="11" fill="#7b7b7b" transform="translate(50.5,-10.5)" style="animation: 12s linear infinite both a36_f;"/><path stroke-linecap="round" d="M55 5.5h10"/><path d="M58.5 2.5v3"/><path d="M61.5 2.5v3"/></g><g transform="translate(23.5,22.5)"><path d="M0 0h1" stroke="#fff" fill="none" stroke-linecap="round" stroke-linejoin="round" stroke-width=".5" opacity="0" transform="translate(-9,5) scale(4,4)" style="animation: 12s linear infinite both a37_o, 12s linear infinite both a37_d;"/><path d="M0 0h1" stroke="#fff" fill="none" stroke-linecap="round" stroke-linejoin="round" stroke-width=".5" opacity="0" transform="translate(-9,21) scale(4,4)" style="animation: 12s linear infinite both a38_o, 12s linear infinite both a38_d;"/><path d="M0 0h1" stroke="#fff" fill="none" stroke-linecap="round" stroke-linejoin="round" stroke-width=".5" opacity="0" transform="translate(-9,17) scale(4,4)" style="animation: 12s linear infinite both a39_o, 12s linear infinite both a39_d;"/><path d="M0 0h1" stroke="#fff" fill="none" stroke-linecap="round" stroke-linejoin="round" stroke-width=".5" opacity="0" transform="translate(-9,13) scale(4,4)" style="animation: 12s linear infinite both a40_o, 12s linear infinite both a40_d;"/><path d="M0 0h1" stroke="#fff" fill="none" stroke-linecap="round" stroke-linejoin="round" stroke-width=".5" opacity="0" transform="translate(-9,9) scale(4,4)" style="animation: 12s linear infinite both a41_o, 12s linear infinite both a41_d;"/><path d="M0 0h1" stroke="#fff" fill="none" stroke-linecap="round" stroke-linejoin="round" stroke-width=".5" opacity="0" transform="translate(-9,1) scale(4,4)" style="animation: 12s linear infinite both a42_o, 12s linear infinite both a42_d;"/><path d="M0 0h1" stroke="#fff" fill="none" stroke-linecap="round" stroke-linejoin="round" stroke-width=".5" opacity="0" transform="translate(-9,-3) scale(4,4)" style="animation: 12s linear infinite both a43_o, 12s linear infinite both a43_d;"/><path d="M0 0h1" stroke="#fff" fill="none" stroke-linecap="round" stroke-linejoin="round" stroke-width=".5" opacity="0" transform="translate(-9,-7) scale(4,4)" style="animation: 12s linear infinite both a44_o, 12s linear infinite both a44_d;"/></g><g transform="translate(12,12)"><rect width="17" height="9" fill="#41cdfc" opacity="0" transform="translate(20,12) scale(4,4) translate(-5,-3)" style="animation: 12s linear infinite both a45_o;"/><g transform="translate(16,4)"><path fill="#fff" d="M9 0v7h-8Z" opacity="0" transform="translate(14,14) scale(4,4) translate(-4.5,-3.5)" style="animation: 12s linear infinite both a46_o;"/><path d="M0 0h7" stroke="#41cdfc" fill="none" stroke-width=".5" stroke-linecap="square" opacity="0" transform="translate(6,10) scale(4,4)" style="animation: 12s linear infinite both a47_o;"/><path d="M0 0h10" stroke="#41cdfc" fill="none" stroke-width=".5" stroke-linecap="square" opacity="0" transform="translate(0,20) scale(4,4)" style="animation: 12s linear infinite both a48_o;"/></g></g><g data-name="Layer 2" opacity="0" transform="translate(32.8,16.2) scale(.1,.1)" style="animation: 12s linear infinite both a49_o;"><g data-name="Layer 1"><path class="green-planet-icon-white-cls-1" d="M59.2 132.4l34.8-34.8c.8-0.8 1.4-1.7 1.8-2.7c.4-1 .6-2 .6-3.1c0-1.1-0.2-2.1-0.6-3.1c-0.4-1-1-1.9-1.8-2.7c-0.8-0.8-1.7-1.4-2.7-1.8c-1-0.4-2-0.6-3.1-0.6c-1.1 0-2.1 .2-3.1 .6c-1 .4-1.9 1-2.7 1.8l-34.8 34.8c-1.5 1.5-2.4 3.6-2.4 5.8c0 2.2 .9 4.3 2.4 5.8c1.5 1.5 3.6 2.4 5.8 2.4c2.2 0 4.3-0.9 5.8-2.4Z" fill="#fff"/><path class="green-planet-icon-white-cls-1" d="M82.4 132.4c.8 .8 1.7 1.4 2.7 1.8c.9 .4 2 .6 3.1 .6c1.1 0 2.1-0.2 3.1-0.6c1-0.4 1.9-1 2.7-1.8l52.2-52.2c1.5-1.5 2.4-3.6 2.4-5.8c0-2.2-0.9-4.3-2.4-5.8c-1.6-1.5-3.6-2.4-5.8-2.4c-2.2 0-4.3 .9-5.8 2.4l-52.2 52.2c-0.8 .8-1.4 1.7-1.8 2.7c-0.4 1-0.6 2-0.6 3.1c0 1.1 .2 2.1 .6 3.1c.4 1 1 1.9 1.8 2.7Z" fill="#fff"/><path class="green-planet-icon-white-cls-1" d="M99.8 80.2c2.3 2.3 5.9 3 8.9 1.8c3.1-1.3 5.1-4.3 5.1-7.6c0-3.3-2-6.3-5.1-7.6c-3-1.2-6.6-0.5-8.9 1.8c-0.8 .8-1.4 1.7-1.8 2.7c-0.4 1-0.6 2-0.6 3.1c0 1.1 .2 2.1 .6 3.1c.4 1 1 1.9 1.8 2.7Z" fill="#fff"/><path class="green-planet-icon-white-cls-1" d="M65 184.6c-0.8-0.8-1.7-1.4-2.7-1.8c-1-0.4-2-0.6-3.1-0.6c-1.1 0-2.1 .2-3.1 .6c-1 .4-1.9 1-2.7 1.8c-2.3 2.3-3 5.9-1.8 8.9c1.3 3.1 4.3 5.1 7.6 5.1c3.3 0 6.3-2 7.6-5.1c1.2-3 .5-6.6-1.8-8.9Z" fill="#fff"/><path class="green-planet-icon-white-cls-1" d="M59.2 167.2l17.4-17.4c1.6-1.5 2.5-3.6 2.5-5.8c0-2.2-0.9-4.3-2.4-5.9c-1.6-1.6-3.7-2.4-5.9-2.4c-2.2 0-4.3 .9-5.8 2.5l-17.4 17.4c-1.5 1.5-2.4 3.6-2.4 5.8c0 2.2 .9 4.3 2.4 5.8c1.5 1.5 3.6 2.4 5.8 2.4c2.2 0 4.3-0.9 5.8-2.4Z" fill="#fff"/><path class="green-planet-icon-white-cls-1" d="M146.2 103.4c.8 .8 1.7 1.4 2.7 1.8c.9 .4 2 .6 3.1 .6c1.1 0 2.1-0.2 3.1-0.6c1-0.4 1.9-1 2.7-1.8l17.4-17.4c1.5-1.5 2.4-3.6 2.4-5.8c0-2.2-0.9-4.3-2.4-5.8c-1.6-1.5-3.6-2.4-5.8-2.4c-2.2 0-4.3 .9-5.8 2.4l-17.4 17.4c-0.8 .8-1.4 1.7-1.8 2.7c-0.4 1-0.6 2-0.6 3.1c0 1.1 .2 2.1 .6 3.1c.4 1 1 1.9 1.8 2.7Z" fill="#fff"/><path class="green-planet-icon-white-cls-1" d="M140.4 109.2c-0.8-0.8-1.7-1.4-2.7-1.8c-1-0.4-2-0.6-3.1-0.6c-1.1 0-2.2 .2-3.1 .6c-1 .4-1.9 1-2.7 1.8l-58 58c-1.5 1.5-2.4 3.6-2.4 5.8c0 2.2 .9 4.3 2.4 5.8c1.5 1.5 3.6 2.4 5.8 2.4c2.2 0 4.3-0.9 5.8-2.4l58-58c.8-0.8 1.4-1.7 1.8-2.7c.4-1 .6-2 .6-3.1c0-1.1-0.2-2.1-0.6-3.1c-0.4-1-1-1.9-1.8-2.7Z" fill="#fff"/><path class="green-planet-icon-white-cls-1" d="M215.8 173c-0.8-0.8-1.7-1.4-2.7-1.8c-1-0.4-2-0.6-3.1-0.6c-1.1 0-2.2 .2-3.2 .6c-1 .4-1.9 1-2.6 1.8l-34.8 34.8c-0.8 .8-1.4 1.7-1.8 2.7c-0.4 1-0.6 2-0.6 3.1c0 1.1 .2 2.1 .6 3.1c.4 1 1 1.9 1.8 2.7c.7 .8 1.6 1.4 2.6 1.8c1 .4 2.1 .6 3.2 .6c1.1 0 2.1-0.2 3.1-0.6c1-0.4 1.9-1 2.7-1.8l34.8-34.8c.7-0.8 1.3-1.7 1.8-2.7c.4-1 .6-2 .6-3.1c0-1.1-0.2-2.1-0.6-3.1c-0.5-1-1.1-1.9-1.8-2.7Z" fill="#fff"/><path class="green-planet-icon-white-cls-1" d="M181 173c-0.8-0.8-1.7-1.4-2.7-1.8c-1-0.4-2-0.6-3.1-0.6c-1.1 0-2.1 .2-3.1 .6c-1 .4-1.9 1-2.7 1.8l-52.2 52.2c-0.8 .8-1.4 1.7-1.8 2.7c-0.4 1-0.6 2-0.6 3.1c0 1.1 .2 2.1 .6 3.1c.4 1 1 1.9 1.8 2.7c.8 .8 1.7 1.4 2.7 1.8c1 .4 2 .6 3.1 .6c1.1 0 2.2-0.2 3.1-0.6c1-0.4 1.9-1 2.7-1.8l52.2-52.2c.8-0.8 1.4-1.7 1.8-2.7c.4-1 .6-2 .6-3.1c0-1.1-0.2-2.1-0.6-3.1c-0.4-1-1-1.9-1.8-2.7Z" fill="#fff"/><ellipse class="green-planet-icon-white-cls-1" rx="8.2" ry="8.2" fill="#fff" transform="translate(-117.1,179.2) rotate(-45) translate(157.8,231)"/><path class="green-planet-icon-white-cls-1" d="M198.4 109.2c-0.8 .8-1.4 1.7-1.8 2.7c-0.4 1-0.6 2-0.6 3.1c0 1.1 .2 2.1 .6 3.1c.4 1 1 1.9 1.8 2.7c.7 .8 1.6 1.4 2.6 1.8c1 .4 2.1 .6 3.2 .6c1.1 0 2.1-0.2 3.1-0.6c1-0.4 1.9-1 2.7-1.8c1.5-1.5 2.4-3.6 2.4-5.8c0-2.2-0.9-4.3-2.4-5.8c-1.6-1.5-3.6-2.4-5.8-2.4c-2.2 0-4.3 .9-5.8 2.4Z" fill="#fff"/><path class="green-planet-icon-white-cls-1" d="M204.2 138.2l-17.4 17.4c-1.6 1.5-2.4 3.6-2.4 5.8c0 2.2 .8 4.3 2.4 5.8c1.5 1.5 3.6 2.4 5.8 2.4c2.2 0 4.2-0.9 5.8-2.4l17.4-17.4c.7-0.8 1.3-1.7 1.8-2.7c.4-1 .6-2 .6-3.1c0-1.1-0.2-2.1-0.6-3.1c-0.5-1-1.1-1.9-1.8-2.7c-0.8-0.8-1.7-1.4-2.7-1.8c-1-0.4-2-0.6-3.1-0.6c-1.1 0-2.2 .2-3.2 .6c-1 .4-1.9 1-2.6 1.8Z" fill="#fff"/><path class="green-planet-icon-white-cls-1" d="M117.2 202c-0.8-0.8-1.7-1.4-2.7-1.8c-1-0.4-2-0.6-3.1-0.6c-1.1 0-2.2 .2-3.1 .6c-1 .4-1.9 1-2.7 1.8l-17.4 17.4c-1.5 1.5-2.4 3.6-2.4 5.8c0 2.2 .9 4.3 2.4 5.8c1.5 1.5 3.6 2.4 5.8 2.4c2.2 0 4.3-0.9 5.8-2.4l17.4-17.4c.8-0.8 1.4-1.7 1.8-2.7c.4-1 .6-2 .6-3.1c0-1.1-0.2-2.1-0.6-3.1c-0.4-1-1-1.9-1.8-2.7Z" fill="#fff"/><path class="green-planet-icon-white-cls-1" d="M192.6 126.6c-0.8-0.8-1.7-1.4-2.7-1.8c-1-0.4-2-0.6-3.1-0.6c-1.1 0-2.2 .2-3.2 .6c-1 .4-1.9 1-2.6 1.8l-58 58c-1.6 1.5-2.4 3.6-2.4 5.8c0 2.2 .8 4.3 2.4 5.8c1.5 1.5 3.6 2.4 5.8 2.4c2.2 0 4.2-0.9 5.8-2.4l58-58c.7-0.8 1.3-1.7 1.8-2.7c.4-1 .6-2 .6-3.1c0-1.1-0.2-2.1-0.6-3.1c-0.5-1-1.1-1.9-1.8-2.7Z" fill="#fff"/><path class="green-planet-icon-white-cls-1" d="M105.6 178.8c-0.8-0.8-1.7-1.4-2.7-1.8c-1-0.4-2-0.6-3.1-0.6c-1.1 0-2.2 .2-3.1 .6c-1 .4-1.9 1-2.7 1.8l-29 29c-0.8 .8-1.4 1.7-1.8 2.7c-0.4 .9-0.6 2-0.6 3.1c0 1.1 .2 2.1 .6 3.1c.4 1 1 1.9 1.8 2.7c.8 .8 1.7 1.4 2.7 1.8c.9 .4 2 .6 3.1 .6c1.1 0 2.1-0.2 3.1-0.6c1-0.4 1.9-1 2.7-1.8l29-29c.8-0.8 1.4-1.7 1.8-2.7c.4-1 .6-2 .6-3.1c0-1.1-0.2-2.2-0.6-3.1c-0.4-1-1-1.9-1.8-2.7Z" fill="#fff"/><path class="green-planet-icon-white-cls-1" d="M111.4 173c.8 .8 1.7 1.4 2.7 1.8c.9 .4 2 .6 3.1 .6c1.1 0 2.1-0.2 3.1-0.6c1-0.4 1.9-1 2.7-1.8l75.4-75.4c.7-0.8 1.3-1.7 1.8-2.7c.4-1 .6-2 .6-3.1c0-1.1-0.2-2.1-0.6-3.1c-0.5-1-1.1-1.9-1.8-2.7c-0.8-0.8-1.7-1.4-2.7-1.8c-1-0.4-2-0.6-3.1-0.6c-1.1 0-2.2 .2-3.2 .6c-1 .4-1.9 1-2.6 1.8l-75.4 75.4c-0.8 .8-1.4 1.7-1.8 2.7c-0.4 .9-0.6 2-0.6 3.1c0 1.1 .2 2.1 .6 3.1c.4 1 1 1.9 1.8 2.7Z" fill="#fff"/><path class="green-planet-icon-white-cls-1" d="M252.6 215.3v-124.2c4.3-0.9 7.9-3.8 9.6-7.7c1.8-4 1.5-8.6-0.8-12.3c-2.2-3.8-6.1-6.2-10.4-6.5c-4.3-0.4-8.6 1.4-11.4 4.7l-95.1-51.9c1.3-4.1 .5-8.5-2-12c-2.5-3.4-6.5-5.4-10.8-5.4c-4.3 0-8.3 2-10.8 5.4c-2.6 3.5-3.3 7.9-2.1 12l-95.1 51.9c-2.8-3.3-7-5.1-11.4-4.7c-4.3 .3-8.2 2.7-10.4 6.5c-2.2 3.7-2.5 8.3-0.8 12.3c1.8 3.9 5.3 6.8 9.6 7.7v124.2c-4.3 .9-7.8 3.7-9.6 7.7c-1.7 4-1.4 8.6 .8 12.3c2.2 3.7 6.1 6.2 10.4 6.5c4.4 .4 8.6-1.4 11.4-4.7l95.1 51.9c-1.2 4.1-0.5 8.5 2.1 11.9c2.5 3.5 6.5 5.5 10.8 5.5c4.3 0 8.3-2 10.8-5.5c2.5-3.4 3.3-7.8 2-11.9l95.2-51.9c2.8 3.3 7 5.1 11.3 4.7c4.4-0.3 8.3-2.7 10.5-6.5c2.2-3.7 2.5-8.3 .7-12.3c-1.7-4-5.3-6.8-9.5-7.7Zm-110.6 69c-0.5-0.6-1-1.1-1.6-1.6c-0.6-0.5-1.2-0.9-1.8-1.3c-0.7-0.4-1.3-0.7-2-1c-0.7-0.3-1.4-0.5-2.2-0.6v-29.9c0-0.6-0.3-1.3-0.8-1.8c-0.5-0.4-1.2-0.7-1.9-0.7c-0.6 0-1.3 .3-1.8 .7c-0.5 .5-0.8 1.2-0.8 1.8v29.9c-0.8 .1-1.5 .3-2.2 .6c-0.7 .3-1.4 .6-2 1c-0.7 .4-1.3 .8-1.8 1.3c-0.6 .5-1.1 1-1.6 1.6l-95.2-51.9c.2-0.7 .4-1.5 .5-2.2c.1-0.7 .1-1.5 .1-2.2c-0.1-0.8-0.2-1.5-0.3-2.2c-0.2-0.8-0.4-1.5-0.6-2.2l21.1-13.4c.6-0.4 1-1 1.2-1.7c.2-0.7 0-1.4-0.4-2c-0.3-0.6-0.9-1.1-1.6-1.2c-0.7-0.2-1.5 0-2.1 .3l-21.1 13.5c-0.5-0.5-1-0.9-1.5-1.3c-0.6-0.4-1.1-0.8-1.7-1.1c-0.6-0.4-1.2-0.6-1.9-0.9c-0.6-0.2-1.2-0.4-1.9-0.5v-124.2c.7-0.1 1.3-0.3 1.9-0.5c.7-0.3 1.3-0.6 1.9-0.9c.6-0.3 1.1-0.7 1.7-1.1c.5-0.4 1-0.8 1.5-1.3l21.1 13.4c.6 .4 1.4 .5 2.1 .4c.7-0.2 1.3-0.6 1.7-1.2c.3-0.6 .5-1.3 .3-2c-0.1-0.7-0.6-1.3-1.2-1.7l-21.1-13.5c.3-0.7 .5-1.4 .6-2.1c.2-0.7 .3-1.5 .3-2.2c0-0.8 0-1.5-0.1-2.2c-0.1-0.8-0.3-1.5-0.5-2.2l95.1-51.9c.5 .6 1 1.1 1.6 1.6c.6 .5 1.2 .9 1.8 1.3c.7 .4 1.3 .7 2 1c.7 .2 1.5 .5 2.2 .6v29.8c0 .8 .3 1.4 .8 1.9c.5 .5 1.2 .8 1.9 .8c.7 0 1.4-0.3 1.9-0.8c.5-0.5 .8-1.1 .8-1.9v-29.8c.7-0.1 1.4-0.3 2.1-0.6c.7-0.3 1.4-0.6 2.1-1c.6-0.4 1.2-0.8 1.8-1.3c.6-0.5 1.1-1 1.6-1.6l95.1 51.9c-0.2 .7-0.4 1.4-0.5 2.2c-0.1 .7-0.1 1.5-0.1 2.2c0 .7 .1 1.5 .3 2.2c.1 .7 .3 1.4 .6 2.1l-21.1 13.5c-0.7 .4-1.1 1-1.2 1.7c-0.2 .7-0.1 1.4 .3 2c.4 .6 1 1 1.7 1.2c.7 .1 1.4 0 2-0.4l21.2-13.4c.5 .5 1 .9 1.5 1.3c.5 .4 1.1 .8 1.7 1.1c.6 .3 1.2 .6 1.8 .9c.7 .2 1.3 .4 2 .5v124.2c-0.7 .1-1.3 .3-2 .5c-0.6 .3-1.2 .5-1.8 .9c-0.6 .3-1.2 .7-1.7 1.1c-0.5 .4-1 .8-1.5 1.3l-21.2-13.5c-0.6-0.3-1.3-0.5-2-0.3c-0.7 .1-1.3 .6-1.7 1.2c-0.4 .6-0.5 1.3-0.3 2c.1 .7 .5 1.3 1.2 1.7l21.1 13.4c-0.3 .7-0.5 1.5-0.6 2.2c-0.2 .7-0.3 1.5-0.3 2.2c0 .7 0 1.5 .1 2.2c.1 .8 .3 1.5 .5 2.2Z" fill="#fff"/></g></g></g><g transform="translate(304,215)"><g stroke="#000" fill="none" stroke-linejoin="round" transform="translate(-194,50) scale(4,4)"><path d="M71.5 1.5c0 .5-0.4 1-1 1h-21c-0.6 0-1-0.5-1-1v-13c0-0.6 .4-1 1-1h21c.6 0 1 .4 1 1v13Z"/><rect width="19" height="11" fill="#7b7b7b" transform="translate(50.5,-10.5)" style="animation: 12s linear infinite both a50_f;"/><path stroke-linecap="round" d="M55 5.5h10"/><path d="M58.5 2.5v3"/><path d="M61.5 2.5v3"/></g><g transform="translate(23.5,22.5)"><path d="M0 0h1" stroke="#fff" fill="none" stroke-linecap="round" stroke-linejoin="round" stroke-width=".5" opacity="0" transform="translate(-9,5) scale(4,4)" style="animation: 12s linear infinite both a51_o, 12s linear infinite both a51_d;"/><path d="M0 0h1" stroke="#fff" fill="none" stroke-linecap="round" stroke-linejoin="round" stroke-width=".5" opacity="0" transform="translate(-9,21) scale(4,4)" style="animation: 12s linear infinite both a52_o, 12s linear infinite both a52_d;"/><path d="M0 0h1" stroke="#fff" fill="none" stroke-linecap="round" stroke-linejoin="round" stroke-width=".5" opacity="0" transform="translate(-9,17) scale(4,4)" style="animation: 12s linear infinite both a53_o, 12s linear infinite both a53_d;"/><path d="M0 0h1" stroke="#fff" fill="none" stroke-linecap="round" stroke-linejoin="round" stroke-width=".5" opacity="0" transform="translate(-9,13) scale(4,4)" style="animation: 12s linear infinite both a54_o, 12s linear infinite both a54_d;"/><path d="M0 0h1" stroke="#fff" fill="none" stroke-linecap="round" stroke-linejoin="round" stroke-width=".5" opacity="0" transform="translate(-9,9) scale(4,4)" style="animation: 12s linear infinite both a55_o, 12s linear infinite both a55_d;"/><path d="M0 0h1" stroke="#fff" fill="none" stroke-linecap="round" stroke-linejoin="round" stroke-width=".5" opacity="0" transform="translate(-9,1) scale(4,4)" style="animation: 12s linear infinite both a56_o, 12s linear infinite both a56_d;"/><path d="M0 0h1" stroke="#fff" fill="none" stroke-linecap="round" stroke-linejoin="round" stroke-width=".5" opacity="0" transform="translate(-9,-3) scale(4,4)" style="animation: 12s linear infinite both a57_o, 12s linear infinite both a57_d;"/><path d="M0 0h1" stroke="#fff" fill="none" stroke-linecap="round" stroke-linejoin="round" stroke-width=".5" opacity="0" transform="translate(-9,-7) scale(4,4)" style="animation: 12s linear infinite both a58_o, 12s linear infinite both a58_d;"/></g><g transform="translate(12,12)"><rect width="17" height="9" fill="#41cdfc" opacity="0" transform="translate(20,12) scale(4,4) translate(-5,-3)" style="animation: 12s linear infinite both a59_o;"/><g transform="translate(16,4)"><path fill="#fff" d="M9 0v7h-8Z" opacity="0" transform="translate(14,14) scale(4,4) translate(-4.5,-3.5)" style="animation: 12s linear infinite both a60_o;"/><path d="M0 0h7" stroke="#41cdfc" fill="none" stroke-width=".5" stroke-linecap="square" opacity="0" transform="translate(6,10) scale(4,4)" style="animation: 12s linear infinite both a61_o;"/><path d="M0 0h10" stroke="#41cdfc" fill="none" stroke-width=".5" stroke-linecap="square" opacity="0" transform="translate(0,20) scale(4,4)" style="animation: 12s linear infinite both a62_o;"/></g></g><g data-name="Layer 2" opacity="0" transform="translate(32.8,14.2) scale(.1,.1)" style="animation: 12s linear infinite both a63_o;"><g data-name="Layer 1"><path class="green-planet-icon-white-cls-1" d="M59.2 132.4l34.8-34.8c.8-0.8 1.4-1.7 1.8-2.7c.4-1 .6-2 .6-3.1c0-1.1-0.2-2.1-0.6-3.1c-0.4-1-1-1.9-1.8-2.7c-0.8-0.8-1.7-1.4-2.7-1.8c-1-0.4-2-0.6-3.1-0.6c-1.1 0-2.1 .2-3.1 .6c-1 .4-1.9 1-2.7 1.8l-34.8 34.8c-1.5 1.5-2.4 3.6-2.4 5.8c0 2.2 .9 4.3 2.4 5.8c1.5 1.5 3.6 2.4 5.8 2.4c2.2 0 4.3-0.9 5.8-2.4Z" fill="#fff"/><path class="green-planet-icon-white-cls-1" d="M82.4 132.4c.8 .8 1.7 1.4 2.7 1.8c.9 .4 2 .6 3.1 .6c1.1 0 2.1-0.2 3.1-0.6c1-0.4 1.9-1 2.7-1.8l52.2-52.2c1.5-1.5 2.4-3.6 2.4-5.8c0-2.2-0.9-4.3-2.4-5.8c-1.6-1.5-3.6-2.4-5.8-2.4c-2.2 0-4.3 .9-5.8 2.4l-52.2 52.2c-0.8 .8-1.4 1.7-1.8 2.7c-0.4 1-0.6 2-0.6 3.1c0 1.1 .2 2.1 .6 3.1c.4 1 1 1.9 1.8 2.7Z" fill="#fff"/><path class="green-planet-icon-white-cls-1" d="M99.8 80.2c2.3 2.3 5.9 3 8.9 1.8c3.1-1.3 5.1-4.3 5.1-7.6c0-3.3-2-6.3-5.1-7.6c-3-1.2-6.6-0.5-8.9 1.8c-0.8 .8-1.4 1.7-1.8 2.7c-0.4 1-0.6 2-0.6 3.1c0 1.1 .2 2.1 .6 3.1c.4 1 1 1.9 1.8 2.7Z" fill="#fff"/><path class="green-planet-icon-white-cls-1" d="M65 184.6c-0.8-0.8-1.7-1.4-2.7-1.8c-1-0.4-2-0.6-3.1-0.6c-1.1 0-2.1 .2-3.1 .6c-1 .4-1.9 1-2.7 1.8c-2.3 2.3-3 5.9-1.8 8.9c1.3 3.1 4.3 5.1 7.6 5.1c3.3 0 6.3-2 7.6-5.1c1.2-3 .5-6.6-1.8-8.9Z" fill="#fff"/><path class="green-planet-icon-white-cls-1" d="M59.2 167.2l17.4-17.4c1.6-1.5 2.5-3.6 2.5-5.8c0-2.2-0.9-4.3-2.4-5.9c-1.6-1.6-3.7-2.4-5.9-2.4c-2.2 0-4.3 .9-5.8 2.5l-17.4 17.4c-1.5 1.5-2.4 3.6-2.4 5.8c0 2.2 .9 4.3 2.4 5.8c1.5 1.5 3.6 2.4 5.8 2.4c2.2 0 4.3-0.9 5.8-2.4Z" fill="#fff"/><path class="green-planet-icon-white-cls-1" d="M146.2 103.4c.8 .8 1.7 1.4 2.7 1.8c.9 .4 2 .6 3.1 .6c1.1 0 2.1-0.2 3.1-0.6c1-0.4 1.9-1 2.7-1.8l17.4-17.4c1.5-1.5 2.4-3.6 2.4-5.8c0-2.2-0.9-4.3-2.4-5.8c-1.6-1.5-3.6-2.4-5.8-2.4c-2.2 0-4.3 .9-5.8 2.4l-17.4 17.4c-0.8 .8-1.4 1.7-1.8 2.7c-0.4 1-0.6 2-0.6 3.1c0 1.1 .2 2.1 .6 3.1c.4 1 1 1.9 1.8 2.7Z" fill="#fff"/><path class="green-planet-icon-white-cls-1" d="M140.4 109.2c-0.8-0.8-1.7-1.4-2.7-1.8c-1-0.4-2-0.6-3.1-0.6c-1.1 0-2.2 .2-3.1 .6c-1 .4-1.9 1-2.7 1.8l-58 58c-1.5 1.5-2.4 3.6-2.4 5.8c0 2.2 .9 4.3 2.4 5.8c1.5 1.5 3.6 2.4 5.8 2.4c2.2 0 4.3-0.9 5.8-2.4l58-58c.8-0.8 1.4-1.7 1.8-2.7c.4-1 .6-2 .6-3.1c0-1.1-0.2-2.1-0.6-3.1c-0.4-1-1-1.9-1.8-2.7Z" fill="#fff"/><path class="green-planet-icon-white-cls-1" d="M215.8 173c-0.8-0.8-1.7-1.4-2.7-1.8c-1-0.4-2-0.6-3.1-0.6c-1.1 0-2.2 .2-3.2 .6c-1 .4-1.9 1-2.6 1.8l-34.8 34.8c-0.8 .8-1.4 1.7-1.8 2.7c-0.4 1-0.6 2-0.6 3.1c0 1.1 .2 2.1 .6 3.1c.4 1 1 1.9 1.8 2.7c.7 .8 1.6 1.4 2.6 1.8c1 .4 2.1 .6 3.2 .6c1.1 0 2.1-0.2 3.1-0.6c1-0.4 1.9-1 2.7-1.8l34.8-34.8c.7-0.8 1.3-1.7 1.8-2.7c.4-1 .6-2 .6-3.1c0-1.1-0.2-2.1-0.6-3.1c-0.5-1-1.1-1.9-1.8-2.7Z" fill="#fff"/><path class="green-planet-icon-white-cls-1" d="M181 173c-0.8-0.8-1.7-1.4-2.7-1.8c-1-0.4-2-0.6-3.1-0.6c-1.1 0-2.1 .2-3.1 .6c-1 .4-1.9 1-2.7 1.8l-52.2 52.2c-0.8 .8-1.4 1.7-1.8 2.7c-0.4 1-0.6 2-0.6 3.1c0 1.1 .2 2.1 .6 3.1c.4 1 1 1.9 1.8 2.7c.8 .8 1.7 1.4 2.7 1.8c1 .4 2 .6 3.1 .6c1.1 0 2.2-0.2 3.1-0.6c1-0.4 1.9-1 2.7-1.8l52.2-52.2c.8-0.8 1.4-1.7 1.8-2.7c.4-1 .6-2 .6-3.1c0-1.1-0.2-2.1-0.6-3.1c-0.4-1-1-1.9-1.8-2.7Z" fill="#fff"/><ellipse class="green-planet-icon-white-cls-1" rx="8.2" ry="8.2" fill="#fff" transform="translate(-117.1,179.2) rotate(-45) translate(157.8,231)"/><path class="green-planet-icon-white-cls-1" d="M198.4 109.2c-0.8 .8-1.4 1.7-1.8 2.7c-0.4 1-0.6 2-0.6 3.1c0 1.1 .2 2.1 .6 3.1c.4 1 1 1.9 1.8 2.7c.7 .8 1.6 1.4 2.6 1.8c1 .4 2.1 .6 3.2 .6c1.1 0 2.1-0.2 3.1-0.6c1-0.4 1.9-1 2.7-1.8c1.5-1.5 2.4-3.6 2.4-5.8c0-2.2-0.9-4.3-2.4-5.8c-1.6-1.5-3.6-2.4-5.8-2.4c-2.2 0-4.3 .9-5.8 2.4Z" fill="#fff"/><path class="green-planet-icon-white-cls-1" d="M204.2 138.2l-17.4 17.4c-1.6 1.5-2.4 3.6-2.4 5.8c0 2.2 .8 4.3 2.4 5.8c1.5 1.5 3.6 2.4 5.8 2.4c2.2 0 4.2-0.9 5.8-2.4l17.4-17.4c.7-0.8 1.3-1.7 1.8-2.7c.4-1 .6-2 .6-3.1c0-1.1-0.2-2.1-0.6-3.1c-0.5-1-1.1-1.9-1.8-2.7c-0.8-0.8-1.7-1.4-2.7-1.8c-1-0.4-2-0.6-3.1-0.6c-1.1 0-2.2 .2-3.2 .6c-1 .4-1.9 1-2.6 1.8Z" fill="#fff"/><path class="green-planet-icon-white-cls-1" d="M117.2 202c-0.8-0.8-1.7-1.4-2.7-1.8c-1-0.4-2-0.6-3.1-0.6c-1.1 0-2.2 .2-3.1 .6c-1 .4-1.9 1-2.7 1.8l-17.4 17.4c-1.5 1.5-2.4 3.6-2.4 5.8c0 2.2 .9 4.3 2.4 5.8c1.5 1.5 3.6 2.4 5.8 2.4c2.2 0 4.3-0.9 5.8-2.4l17.4-17.4c.8-0.8 1.4-1.7 1.8-2.7c.4-1 .6-2 .6-3.1c0-1.1-0.2-2.1-0.6-3.1c-0.4-1-1-1.9-1.8-2.7Z" fill="#fff"/><path class="green-planet-icon-white-cls-1" d="M192.6 126.6c-0.8-0.8-1.7-1.4-2.7-1.8c-1-0.4-2-0.6-3.1-0.6c-1.1 0-2.2 .2-3.2 .6c-1 .4-1.9 1-2.6 1.8l-58 58c-1.6 1.5-2.4 3.6-2.4 5.8c0 2.2 .8 4.3 2.4 5.8c1.5 1.5 3.6 2.4 5.8 2.4c2.2 0 4.2-0.9 5.8-2.4l58-58c.7-0.8 1.3-1.7 1.8-2.7c.4-1 .6-2 .6-3.1c0-1.1-0.2-2.1-0.6-3.1c-0.5-1-1.1-1.9-1.8-2.7Z" fill="#fff"/><path class="green-planet-icon-white-cls-1" d="M105.6 178.8c-0.8-0.8-1.7-1.4-2.7-1.8c-1-0.4-2-0.6-3.1-0.6c-1.1 0-2.2 .2-3.1 .6c-1 .4-1.9 1-2.7 1.8l-29 29c-0.8 .8-1.4 1.7-1.8 2.7c-0.4 .9-0.6 2-0.6 3.1c0 1.1 .2 2.1 .6 3.1c.4 1 1 1.9 1.8 2.7c.8 .8 1.7 1.4 2.7 1.8c.9 .4 2 .6 3.1 .6c1.1 0 2.1-0.2 3.1-0.6c1-0.4 1.9-1 2.7-1.8l29-29c.8-0.8 1.4-1.7 1.8-2.7c.4-1 .6-2 .6-3.1c0-1.1-0.2-2.2-0.6-3.1c-0.4-1-1-1.9-1.8-2.7Z" fill="#fff"/><path class="green-planet-icon-white-cls-1" d="M111.4 173c.8 .8 1.7 1.4 2.7 1.8c.9 .4 2 .6 3.1 .6c1.1 0 2.1-0.2 3.1-0.6c1-0.4 1.9-1 2.7-1.8l75.4-75.4c.7-0.8 1.3-1.7 1.8-2.7c.4-1 .6-2 .6-3.1c0-1.1-0.2-2.1-0.6-3.1c-0.5-1-1.1-1.9-1.8-2.7c-0.8-0.8-1.7-1.4-2.7-1.8c-1-0.4-2-0.6-3.1-0.6c-1.1 0-2.2 .2-3.2 .6c-1 .4-1.9 1-2.6 1.8l-75.4 75.4c-0.8 .8-1.4 1.7-1.8 2.7c-0.4 .9-0.6 2-0.6 3.1c0 1.1 .2 2.1 .6 3.1c.4 1 1 1.9 1.8 2.7Z" fill="#fff"/><path class="green-planet-icon-white-cls-1" d="M252.6 215.3v-124.2c4.3-0.9 7.9-3.8 9.6-7.7c1.8-4 1.5-8.6-0.8-12.3c-2.2-3.8-6.1-6.2-10.4-6.5c-4.3-0.4-8.6 1.4-11.4 4.7l-95.1-51.9c1.3-4.1 .5-8.5-2-12c-2.5-3.4-6.5-5.4-10.8-5.4c-4.3 0-8.3 2-10.8 5.4c-2.6 3.5-3.3 7.9-2.1 12l-95.1 51.9c-2.8-3.3-7-5.1-11.4-4.7c-4.3 .3-8.2 2.7-10.4 6.5c-2.2 3.7-2.5 8.3-0.8 12.3c1.8 3.9 5.3 6.8 9.6 7.7v124.2c-4.3 .9-7.8 3.7-9.6 7.7c-1.7 4-1.4 8.6 .8 12.3c2.2 3.7 6.1 6.2 10.4 6.5c4.4 .4 8.6-1.4 11.4-4.7l95.1 51.9c-1.2 4.1-0.5 8.5 2.1 11.9c2.5 3.5 6.5 5.5 10.8 5.5c4.3 0 8.3-2 10.8-5.5c2.5-3.4 3.3-7.8 2-11.9l95.2-51.9c2.8 3.3 7 5.1 11.3 4.7c4.4-0.3 8.3-2.7 10.5-6.5c2.2-3.7 2.5-8.3 .7-12.3c-1.7-4-5.3-6.8-9.5-7.7Zm-110.6 69c-0.5-0.6-1-1.1-1.6-1.6c-0.6-0.5-1.2-0.9-1.8-1.3c-0.7-0.4-1.3-0.7-2-1c-0.7-0.3-1.4-0.5-2.2-0.6v-29.9c0-0.6-0.3-1.3-0.8-1.8c-0.5-0.4-1.2-0.7-1.9-0.7c-0.6 0-1.3 .3-1.8 .7c-0.5 .5-0.8 1.2-0.8 1.8v29.9c-0.8 .1-1.5 .3-2.2 .6c-0.7 .3-1.4 .6-2 1c-0.7 .4-1.3 .8-1.8 1.3c-0.6 .5-1.1 1-1.6 1.6l-95.2-51.9c.2-0.7 .4-1.5 .5-2.2c.1-0.7 .1-1.5 .1-2.2c-0.1-0.8-0.2-1.5-0.3-2.2c-0.2-0.8-0.4-1.5-0.6-2.2l21.1-13.4c.6-0.4 1-1 1.2-1.7c.2-0.7 0-1.4-0.4-2c-0.3-0.6-0.9-1.1-1.6-1.2c-0.7-0.2-1.5 0-2.1 .3l-21.1 13.5c-0.5-0.5-1-0.9-1.5-1.3c-0.6-0.4-1.1-0.8-1.7-1.1c-0.6-0.4-1.2-0.6-1.9-0.9c-0.6-0.2-1.2-0.4-1.9-0.5v-124.2c.7-0.1 1.3-0.3 1.9-0.5c.7-0.3 1.3-0.6 1.9-0.9c.6-0.3 1.1-0.7 1.7-1.1c.5-0.4 1-0.8 1.5-1.3l21.1 13.4c.6 .4 1.4 .5 2.1 .4c.7-0.2 1.3-0.6 1.7-1.2c.3-0.6 .5-1.3 .3-2c-0.1-0.7-0.6-1.3-1.2-1.7l-21.1-13.5c.3-0.7 .5-1.4 .6-2.1c.2-0.7 .3-1.5 .3-2.2c0-0.8 0-1.5-0.1-2.2c-0.1-0.8-0.3-1.5-0.5-2.2l95.1-51.9c.5 .6 1 1.1 1.6 1.6c.6 .5 1.2 .9 1.8 1.3c.7 .4 1.3 .7 2 1c.7 .2 1.5 .5 2.2 .6v29.8c0 .8 .3 1.4 .8 1.9c.5 .5 1.2 .8 1.9 .8c.7 0 1.4-0.3 1.9-0.8c.5-0.5 .8-1.1 .8-1.9v-29.8c.7-0.1 1.4-0.3 2.1-0.6c.7-0.3 1.4-0.6 2.1-1c.6-0.4 1.2-0.8 1.8-1.3c.6-0.5 1.1-1 1.6-1.6l95.1 51.9c-0.2 .7-0.4 1.4-0.5 2.2c-0.1 .7-0.1 1.5-0.1 2.2c0 .7 .1 1.5 .3 2.2c.1 .7 .3 1.4 .6 2.1l-21.1 13.5c-0.7 .4-1.1 1-1.2 1.7c-0.2 .7-0.1 1.4 .3 2c.4 .6 1 1 1.7 1.2c.7 .1 1.4 0 2-0.4l21.2-13.4c.5 .5 1 .9 1.5 1.3c.5 .4 1.1 .8 1.7 1.1c.6 .3 1.2 .6 1.8 .9c.7 .2 1.3 .4 2 .5v124.2c-0.7 .1-1.3 .3-2 .5c-0.6 .3-1.2 .5-1.8 .9c-0.6 .3-1.2 .7-1.7 1.1c-0.5 .4-1 .8-1.5 1.3l-21.2-13.5c-0.6-0.3-1.3-0.5-2-0.3c-0.7 .1-1.3 .6-1.7 1.2c-0.4 .6-0.5 1.3-0.3 2c.1 .7 .5 1.3 1.2 1.7l21.1 13.4c-0.3 .7-0.5 1.5-0.6 2.2c-0.2 .7-0.3 1.5-0.3 2.2c0 .7 0 1.5 .1 2.2c.1 .8 .3 1.5 .5 2.2Z" fill="#fff"/></g></g></g><g transform="translate(304,78)"><g stroke="#000" fill="none" stroke-linejoin="round" transform="translate(-194,50) scale(4,4)"><path d="M71.5 1.5c0 .5-0.4 1-1 1h-21c-0.6 0-1-0.5-1-1v-13c0-0.6 .4-1 1-1h21c.6 0 1 .4 1 1v13Z"/><rect width="19" height="11" fill="#7b7b7b" transform="translate(50.5,-10.5)" style="animation: 12s linear infinite both a64_f;"/><path stroke-linecap="round" d="M55 5.5h10"/><path d="M58.5 2.5v3"/><path d="M61.5 2.5v3"/></g><g transform="translate(23.5,22.5)"><path d="M0 0h1" stroke="#fff" fill="none" stroke-linecap="round" stroke-linejoin="round" stroke-width=".5" opacity="0" transform="translate(-9,5) scale(4,4)" style="animation: 12s linear infinite both a65_o, 12s linear infinite both a65_d;"/><path d="M0 0h1" stroke="#fff" fill="none" stroke-linecap="round" stroke-linejoin="round" stroke-width=".5" opacity="0" transform="translate(-9,21) scale(4,4)" style="animation: 12s linear infinite both a66_o, 12s linear infinite both a66_d;"/><path d="M0 0h1" stroke="#fff" fill="none" stroke-linecap="round" stroke-linejoin="round" stroke-width=".5" opacity="0" transform="translate(-9,17) scale(4,4)" style="animation: 12s linear infinite both a67_o, 12s linear infinite both a67_d;"/><path d="M0 0h1" stroke="#fff" fill="none" stroke-linecap="round" stroke-linejoin="round" stroke-width=".5" opacity="0" transform="translate(-9,13) scale(4,4)" style="animation: 12s linear infinite both a68_o, 12s linear infinite both a68_d;"/><path d="M0 0h1" stroke="#fff" fill="none" stroke-linecap="round" stroke-linejoin="round" stroke-width=".5" opacity="0" transform="translate(-9,9) scale(4,4)" style="animation: 12s linear infinite both a69_o, 12s linear infinite both a69_d;"/><path d="M0 0h1" stroke="#fff" fill="none" stroke-linecap="round" stroke-linejoin="round" stroke-width=".5" opacity="0" transform="translate(-9,1) scale(4,4)" style="animation: 12s linear infinite both a70_o, 12s linear infinite both a70_d;"/><path d="M0 0h1" stroke="#fff" fill="none" stroke-linecap="round" stroke-linejoin="round" stroke-width=".5" opacity="0" transform="translate(-9,-3) scale(4,4)" style="animation: 12s linear infinite both a71_o, 12s linear infinite both a71_d;"/><path d="M0 0h1" stroke="#fff" fill="none" stroke-linecap="round" stroke-linejoin="round" stroke-width=".5" opacity="0" transform="translate(-9,-7) scale(4,4)" style="animation: 12s linear infinite both a72_o, 12s linear infinite both a72_d;"/></g><g transform="translate(12,12)"><rect width="17" height="9" fill="#41cdfc" opacity="0" transform="translate(20,12) scale(4,4) translate(-5,-3)" style="animation: 12s linear infinite both a73_o;"/><g transform="translate(16,4)"><path fill="#fff" d="M9 0v7h-8Z" opacity="0" transform="translate(14,14) scale(4,4) translate(-4.5,-3.5)" style="animation: 12s linear infinite both a74_o;"/><path d="M0 0h7" stroke="#41cdfc" fill="none" stroke-width=".5" stroke-linecap="square" opacity="0" transform="translate(6,10) scale(4,4)" style="animation: 12s linear infinite both a75_o;"/><path d="M0 0h10" stroke="#41cdfc" fill="none" stroke-width=".5" stroke-linecap="square" opacity="0" transform="translate(0,20) scale(4,4)" style="animation: 12s linear infinite both a76_o;"/></g></g><g data-name="Layer 2" opacity="0" transform="translate(32.8,14.7) scale(.1,.1)" style="animation: 12s linear infinite both a77_o;"><g data-name="Layer 1"><path class="green-planet-icon-white-cls-1" d="M59.2 132.4l34.8-34.8c.8-0.8 1.4-1.7 1.8-2.7c.4-1 .6-2 .6-3.1c0-1.1-0.2-2.1-0.6-3.1c-0.4-1-1-1.9-1.8-2.7c-0.8-0.8-1.7-1.4-2.7-1.8c-1-0.4-2-0.6-3.1-0.6c-1.1 0-2.1 .2-3.1 .6c-1 .4-1.9 1-2.7 1.8l-34.8 34.8c-1.5 1.5-2.4 3.6-2.4 5.8c0 2.2 .9 4.3 2.4 5.8c1.5 1.5 3.6 2.4 5.8 2.4c2.2 0 4.3-0.9 5.8-2.4Z" fill="#fff"/><path class="green-planet-icon-white-cls-1" d="M82.4 132.4c.8 .8 1.7 1.4 2.7 1.8c.9 .4 2 .6 3.1 .6c1.1 0 2.1-0.2 3.1-0.6c1-0.4 1.9-1 2.7-1.8l52.2-52.2c1.5-1.5 2.4-3.6 2.4-5.8c0-2.2-0.9-4.3-2.4-5.8c-1.6-1.5-3.6-2.4-5.8-2.4c-2.2 0-4.3 .9-5.8 2.4l-52.2 52.2c-0.8 .8-1.4 1.7-1.8 2.7c-0.4 1-0.6 2-0.6 3.1c0 1.1 .2 2.1 .6 3.1c.4 1 1 1.9 1.8 2.7Z" fill="#fff"/><path class="green-planet-icon-white-cls-1" d="M99.8 80.2c2.3 2.3 5.9 3 8.9 1.8c3.1-1.3 5.1-4.3 5.1-7.6c0-3.3-2-6.3-5.1-7.6c-3-1.2-6.6-0.5-8.9 1.8c-0.8 .8-1.4 1.7-1.8 2.7c-0.4 1-0.6 2-0.6 3.1c0 1.1 .2 2.1 .6 3.1c.4 1 1 1.9 1.8 2.7Z" fill="#fff"/><path class="green-planet-icon-white-cls-1" d="M65 184.6c-0.8-0.8-1.7-1.4-2.7-1.8c-1-0.4-2-0.6-3.1-0.6c-1.1 0-2.1 .2-3.1 .6c-1 .4-1.9 1-2.7 1.8c-2.3 2.3-3 5.9-1.8 8.9c1.3 3.1 4.3 5.1 7.6 5.1c3.3 0 6.3-2 7.6-5.1c1.2-3 .5-6.6-1.8-8.9Z" fill="#fff"/><path class="green-planet-icon-white-cls-1" d="M59.2 167.2l17.4-17.4c1.6-1.5 2.5-3.6 2.5-5.8c0-2.2-0.9-4.3-2.4-5.9c-1.6-1.6-3.7-2.4-5.9-2.4c-2.2 0-4.3 .9-5.8 2.5l-17.4 17.4c-1.5 1.5-2.4 3.6-2.4 5.8c0 2.2 .9 4.3 2.4 5.8c1.5 1.5 3.6 2.4 5.8 2.4c2.2 0 4.3-0.9 5.8-2.4Z" fill="#fff"/><path class="green-planet-icon-white-cls-1" d="M146.2 103.4c.8 .8 1.7 1.4 2.7 1.8c.9 .4 2 .6 3.1 .6c1.1 0 2.1-0.2 3.1-0.6c1-0.4 1.9-1 2.7-1.8l17.4-17.4c1.5-1.5 2.4-3.6 2.4-5.8c0-2.2-0.9-4.3-2.4-5.8c-1.6-1.5-3.6-2.4-5.8-2.4c-2.2 0-4.3 .9-5.8 2.4l-17.4 17.4c-0.8 .8-1.4 1.7-1.8 2.7c-0.4 1-0.6 2-0.6 3.1c0 1.1 .2 2.1 .6 3.1c.4 1 1 1.9 1.8 2.7Z" fill="#fff"/><path class="green-planet-icon-white-cls-1" d="M140.4 109.2c-0.8-0.8-1.7-1.4-2.7-1.8c-1-0.4-2-0.6-3.1-0.6c-1.1 0-2.2 .2-3.1 .6c-1 .4-1.9 1-2.7 1.8l-58 58c-1.5 1.5-2.4 3.6-2.4 5.8c0 2.2 .9 4.3 2.4 5.8c1.5 1.5 3.6 2.4 5.8 2.4c2.2 0 4.3-0.9 5.8-2.4l58-58c.8-0.8 1.4-1.7 1.8-2.7c.4-1 .6-2 .6-3.1c0-1.1-0.2-2.1-0.6-3.1c-0.4-1-1-1.9-1.8-2.7Z" fill="#fff"/><path class="green-planet-icon-white-cls-1" d="M215.8 173c-0.8-0.8-1.7-1.4-2.7-1.8c-1-0.4-2-0.6-3.1-0.6c-1.1 0-2.2 .2-3.2 .6c-1 .4-1.9 1-2.6 1.8l-34.8 34.8c-0.8 .8-1.4 1.7-1.8 2.7c-0.4 1-0.6 2-0.6 3.1c0 1.1 .2 2.1 .6 3.1c.4 1 1 1.9 1.8 2.7c.7 .8 1.6 1.4 2.6 1.8c1 .4 2.1 .6 3.2 .6c1.1 0 2.1-0.2 3.1-0.6c1-0.4 1.9-1 2.7-1.8l34.8-34.8c.7-0.8 1.3-1.7 1.8-2.7c.4-1 .6-2 .6-3.1c0-1.1-0.2-2.1-0.6-3.1c-0.5-1-1.1-1.9-1.8-2.7Z" fill="#fff"/><path class="green-planet-icon-white-cls-1" d="M181 173c-0.8-0.8-1.7-1.4-2.7-1.8c-1-0.4-2-0.6-3.1-0.6c-1.1 0-2.1 .2-3.1 .6c-1 .4-1.9 1-2.7 1.8l-52.2 52.2c-0.8 .8-1.4 1.7-1.8 2.7c-0.4 1-0.6 2-0.6 3.1c0 1.1 .2 2.1 .6 3.1c.4 1 1 1.9 1.8 2.7c.8 .8 1.7 1.4 2.7 1.8c1 .4 2 .6 3.1 .6c1.1 0 2.2-0.2 3.1-0.6c1-0.4 1.9-1 2.7-1.8l52.2-52.2c.8-0.8 1.4-1.7 1.8-2.7c.4-1 .6-2 .6-3.1c0-1.1-0.2-2.1-0.6-3.1c-0.4-1-1-1.9-1.8-2.7Z" fill="#fff"/><ellipse class="green-planet-icon-white-cls-1" rx="8.2" ry="8.2" fill="#fff" transform="translate(-117.1,179.2) rotate(-45) translate(157.8,231)"/><path class="green-planet-icon-white-cls-1" d="M198.4 109.2c-0.8 .8-1.4 1.7-1.8 2.7c-0.4 1-0.6 2-0.6 3.1c0 1.1 .2 2.1 .6 3.1c.4 1 1 1.9 1.8 2.7c.7 .8 1.6 1.4 2.6 1.8c1 .4 2.1 .6 3.2 .6c1.1 0 2.1-0.2 3.1-0.6c1-0.4 1.9-1 2.7-1.8c1.5-1.5 2.4-3.6 2.4-5.8c0-2.2-0.9-4.3-2.4-5.8c-1.6-1.5-3.6-2.4-5.8-2.4c-2.2 0-4.3 .9-5.8 2.4Z" fill="#fff"/><path class="green-planet-icon-white-cls-1" d="M204.2 138.2l-17.4 17.4c-1.6 1.5-2.4 3.6-2.4 5.8c0 2.2 .8 4.3 2.4 5.8c1.5 1.5 3.6 2.4 5.8 2.4c2.2 0 4.2-0.9 5.8-2.4l17.4-17.4c.7-0.8 1.3-1.7 1.8-2.7c.4-1 .6-2 .6-3.1c0-1.1-0.2-2.1-0.6-3.1c-0.5-1-1.1-1.9-1.8-2.7c-0.8-0.8-1.7-1.4-2.7-1.8c-1-0.4-2-0.6-3.1-0.6c-1.1 0-2.2 .2-3.2 .6c-1 .4-1.9 1-2.6 1.8Z" fill="#fff"/><path class="green-planet-icon-white-cls-1" d="M117.2 202c-0.8-0.8-1.7-1.4-2.7-1.8c-1-0.4-2-0.6-3.1-0.6c-1.1 0-2.2 .2-3.1 .6c-1 .4-1.9 1-2.7 1.8l-17.4 17.4c-1.5 1.5-2.4 3.6-2.4 5.8c0 2.2 .9 4.3 2.4 5.8c1.5 1.5 3.6 2.4 5.8 2.4c2.2 0 4.3-0.9 5.8-2.4l17.4-17.4c.8-0.8 1.4-1.7 1.8-2.7c.4-1 .6-2 .6-3.1c0-1.1-0.2-2.1-0.6-3.1c-0.4-1-1-1.9-1.8-2.7Z" fill="#fff"/><path class="green-planet-icon-white-cls-1" d="M192.6 126.6c-0.8-0.8-1.7-1.4-2.7-1.8c-1-0.4-2-0.6-3.1-0.6c-1.1 0-2.2 .2-3.2 .6c-1 .4-1.9 1-2.6 1.8l-58 58c-1.6 1.5-2.4 3.6-2.4 5.8c0 2.2 .8 4.3 2.4 5.8c1.5 1.5 3.6 2.4 5.8 2.4c2.2 0 4.2-0.9 5.8-2.4l58-58c.7-0.8 1.3-1.7 1.8-2.7c.4-1 .6-2 .6-3.1c0-1.1-0.2-2.1-0.6-3.1c-0.5-1-1.1-1.9-1.8-2.7Z" fill="#fff"/><path class="green-planet-icon-white-cls-1" d="M105.6 178.8c-0.8-0.8-1.7-1.4-2.7-1.8c-1-0.4-2-0.6-3.1-0.6c-1.1 0-2.2 .2-3.1 .6c-1 .4-1.9 1-2.7 1.8l-29 29c-0.8 .8-1.4 1.7-1.8 2.7c-0.4 .9-0.6 2-0.6 3.1c0 1.1 .2 2.1 .6 3.1c.4 1 1 1.9 1.8 2.7c.8 .8 1.7 1.4 2.7 1.8c.9 .4 2 .6 3.1 .6c1.1 0 2.1-0.2 3.1-0.6c1-0.4 1.9-1 2.7-1.8l29-29c.8-0.8 1.4-1.7 1.8-2.7c.4-1 .6-2 .6-3.1c0-1.1-0.2-2.2-0.6-3.1c-0.4-1-1-1.9-1.8-2.7Z" fill="#fff"/><path class="green-planet-icon-white-cls-1" d="M111.4 173c.8 .8 1.7 1.4 2.7 1.8c.9 .4 2 .6 3.1 .6c1.1 0 2.1-0.2 3.1-0.6c1-0.4 1.9-1 2.7-1.8l75.4-75.4c.7-0.8 1.3-1.7 1.8-2.7c.4-1 .6-2 .6-3.1c0-1.1-0.2-2.1-0.6-3.1c-0.5-1-1.1-1.9-1.8-2.7c-0.8-0.8-1.7-1.4-2.7-1.8c-1-0.4-2-0.6-3.1-0.6c-1.1 0-2.2 .2-3.2 .6c-1 .4-1.9 1-2.6 1.8l-75.4 75.4c-0.8 .8-1.4 1.7-1.8 2.7c-0.4 .9-0.6 2-0.6 3.1c0 1.1 .2 2.1 .6 3.1c.4 1 1 1.9 1.8 2.7Z" fill="#fff"/><path class="green-planet-icon-white-cls-1" d="M252.6 215.3v-124.2c4.3-0.9 7.9-3.8 9.6-7.7c1.8-4 1.5-8.6-0.8-12.3c-2.2-3.8-6.1-6.2-10.4-6.5c-4.3-0.4-8.6 1.4-11.4 4.7l-95.1-51.9c1.3-4.1 .5-8.5-2-12c-2.5-3.4-6.5-5.4-10.8-5.4c-4.3 0-8.3 2-10.8 5.4c-2.6 3.5-3.3 7.9-2.1 12l-95.1 51.9c-2.8-3.3-7-5.1-11.4-4.7c-4.3 .3-8.2 2.7-10.4 6.5c-2.2 3.7-2.5 8.3-0.8 12.3c1.8 3.9 5.3 6.8 9.6 7.7v124.2c-4.3 .9-7.8 3.7-9.6 7.7c-1.7 4-1.4 8.6 .8 12.3c2.2 3.7 6.1 6.2 10.4 6.5c4.4 .4 8.6-1.4 11.4-4.7l95.1 51.9c-1.2 4.1-0.5 8.5 2.1 11.9c2.5 3.5 6.5 5.5 10.8 5.5c4.3 0 8.3-2 10.8-5.5c2.5-3.4 3.3-7.8 2-11.9l95.2-51.9c2.8 3.3 7 5.1 11.3 4.7c4.4-0.3 8.3-2.7 10.5-6.5c2.2-3.7 2.5-8.3 .7-12.3c-1.7-4-5.3-6.8-9.5-7.7Zm-110.6 69c-0.5-0.6-1-1.1-1.6-1.6c-0.6-0.5-1.2-0.9-1.8-1.3c-0.7-0.4-1.3-0.7-2-1c-0.7-0.3-1.4-0.5-2.2-0.6v-29.9c0-0.6-0.3-1.3-0.8-1.8c-0.5-0.4-1.2-0.7-1.9-0.7c-0.6 0-1.3 .3-1.8 .7c-0.5 .5-0.8 1.2-0.8 1.8v29.9c-0.8 .1-1.5 .3-2.2 .6c-0.7 .3-1.4 .6-2 1c-0.7 .4-1.3 .8-1.8 1.3c-0.6 .5-1.1 1-1.6 1.6l-95.2-51.9c.2-0.7 .4-1.5 .5-2.2c.1-0.7 .1-1.5 .1-2.2c-0.1-0.8-0.2-1.5-0.3-2.2c-0.2-0.8-0.4-1.5-0.6-2.2l21.1-13.4c.6-0.4 1-1 1.2-1.7c.2-0.7 0-1.4-0.4-2c-0.3-0.6-0.9-1.1-1.6-1.2c-0.7-0.2-1.5 0-2.1 .3l-21.1 13.5c-0.5-0.5-1-0.9-1.5-1.3c-0.6-0.4-1.1-0.8-1.7-1.1c-0.6-0.4-1.2-0.6-1.9-0.9c-0.6-0.2-1.2-0.4-1.9-0.5v-124.2c.7-0.1 1.3-0.3 1.9-0.5c.7-0.3 1.3-0.6 1.9-0.9c.6-0.3 1.1-0.7 1.7-1.1c.5-0.4 1-0.8 1.5-1.3l21.1 13.4c.6 .4 1.4 .5 2.1 .4c.7-0.2 1.3-0.6 1.7-1.2c.3-0.6 .5-1.3 .3-2c-0.1-0.7-0.6-1.3-1.2-1.7l-21.1-13.5c.3-0.7 .5-1.4 .6-2.1c.2-0.7 .3-1.5 .3-2.2c0-0.8 0-1.5-0.1-2.2c-0.1-0.8-0.3-1.5-0.5-2.2l95.1-51.9c.5 .6 1 1.1 1.6 1.6c.6 .5 1.2 .9 1.8 1.3c.7 .4 1.3 .7 2 1c.7 .2 1.5 .5 2.2 .6v29.8c0 .8 .3 1.4 .8 1.9c.5 .5 1.2 .8 1.9 .8c.7 0 1.4-0.3 1.9-0.8c.5-0.5 .8-1.1 .8-1.9v-29.8c.7-0.1 1.4-0.3 2.1-0.6c.7-0.3 1.4-0.6 2.1-1c.6-0.4 1.2-0.8 1.8-1.3c.6-0.5 1.1-1 1.6-1.6l95.1 51.9c-0.2 .7-0.4 1.4-0.5 2.2c-0.1 .7-0.1 1.5-0.1 2.2c0 .7 .1 1.5 .3 2.2c.1 .7 .3 1.4 .6 2.1l-21.1 13.5c-0.7 .4-1.1 1-1.2 1.7c-0.2 .7-0.1 1.4 .3 2c.4 .6 1 1 1.7 1.2c.7 .1 1.4 0 2-0.4l21.2-13.4c.5 .5 1 .9 1.5 1.3c.5 .4 1.1 .8 1.7 1.1c.6 .3 1.2 .6 1.8 .9c.7 .2 1.3 .4 2 .5v124.2c-0.7 .1-1.3 .3-2 .5c-0.6 .3-1.2 .5-1.8 .9c-0.6 .3-1.2 .7-1.7 1.1c-0.5 .4-1 .8-1.5 1.3l-21.2-13.5c-0.6-0.3-1.3-0.5-2-0.3c-0.7 .1-1.3 .6-1.7 1.2c-0.4 .6-0.5 1.3-0.3 2c.1 .7 .5 1.3 1.2 1.7l21.1 13.4c-0.3 .7-0.5 1.5-0.6 2.2c-0.2 .7-0.3 1.5-0.3 2.2c0 .7 0 1.5 .1 2.2c.1 .8 .3 1.5 .5 2.2Z" fill="#fff"/></g></g></g><g transform="translate(129,86.5) scale(6,6)"><ellipse rx="14.8" ry="14.8" fill="#d2d2d2" transform="translate(18.4,9.9) scale(.167,.167)"/><ellipse rx="14.8" ry="14.8" fill="#d2d2d2" transform="translate(4.3,11.7) scale(.167,.167)"/><path fill="#d2d2d2" d="M24.3 14.4c0-3.1-2.5-5.6-5.7-5.5c-1.2-2.6-3.9-4.4-6.9-4.4c-4.1 0-7.5 3.2-7.7 7.2c-2.6-0.5-5 1.5-5 4.1c0 4.2 4.4 4.1 4.4 4.1h16c0 0 4.9-0.6 4.9-5.5Z"/></g><g transform="translate(160.7,160) scale(3.829,3.835)"><path d="M0 0h25.7" stroke="#7ca2cf" fill="none" stroke-linecap="round" stroke-linejoin="round" stroke-width="2" transform="translate(8,6.7) scale(.261,.261)"/><path d="M0 0h25.7" stroke="#7ca2cf" fill="none" stroke-linecap="round" stroke-linejoin="round" stroke-width="2" transform="translate(8,15.1) scale(.261,.261)"/><path fill="#7ca2cf" stroke="#081c34" stroke-linecap="round" stroke-linejoin="round" d="M21.5 5.2c0 .5-0.4 1-1 1h-19c-0.6 0-1-0.5-1-1v-5c0-0.6 .4-1 1-1h19c.6 0 1 .4 1 1v5Z"/><path fill="none" stroke="#fff" stroke-linecap="round" stroke-linejoin="round" d="M8 4.2h10"/><path fill="none" stroke="#fff" stroke-linecap="round" stroke-linejoin="round" d="M8 2.2h10"/><ellipse cx="4" cy="2.7" fill="none" stroke="#fff" stroke-linejoin="round" rx="1" ry="1"/><path fill="#7ca2cf" stroke="#081c34" stroke-linecap="round" stroke-linejoin="round" d="M21.5 13.5c0 .6-0.4 1-1 1h-19c-0.6 0-1-0.4-1-1v-5c0-0.6 .4-1 1-1h19c.6 0 1 .4 1 1v5Z"/><path fill="none" stroke="#fff" stroke-linecap="round" stroke-linejoin="round" d="M8 12.5h10"/><path fill="none" stroke="#fff" stroke-linecap="round" stroke-linejoin="round" d="M8 10.5h10"/><ellipse cx="4" cy="11" fill="none" stroke="#fff" stroke-linejoin="round" rx="1" ry="1"/><path fill="#7ca2cf" stroke="#081c34" stroke-linecap="round" stroke-linejoin="round" d="M21.5 21.8c0 .6-0.4 1-1 1h-19c-0.6 0-1-0.4-1-1v-5c0-0.5 .4-1 1-1h19c.6 0 1 .5 1 1v5Z"/><path fill="none" stroke="#fff" stroke-linecap="round" stroke-linejoin="round" d="M8 20.8h10"/><path fill="none" stroke="#fff" stroke-linecap="round" stroke-linejoin="round" d="M8 18.8h10"/><ellipse cx="4" cy="19.3" fill="none" stroke="#fff" stroke-linejoin="round" rx="1" ry="1"/></g><path d="M-0.5 0v59.2" stroke="#41cdfc" fill="none" stroke-width="3" stroke-linecap="round" stroke-dasharray="4 8 4 8" opacity="0" stroke-dashoffset="1" transform="translate(201,86.5)" style="animation: 12s linear infinite both a78_o, 12s linear infinite both a78_do;"/><path d="M0 0l-85.5 34.2" stroke="#41cdfc" fill="none" stroke-linecap="round" stroke-dasharray="4 8" stroke-width="3" opacity="0" stroke-dashoffset="1" transform="translate(61.8,68.5) scale(-1,-1)" style="animation: 12s linear infinite both a79_o, 12s linear infinite both a79_do;"/><path d="M0 0v44" stroke="#41cdfc" fill="none" stroke-width="3" stroke-linecap="round" stroke-dasharray="4 8 4 8" opacity="0" stroke-dashoffset="100" transform="translate(51,160.5)" style="animation: 12s linear infinite both a80_o, 12s linear infinite both a80_do;"/><path d="M0 0l-85.5 34.2" stroke="#41cdfc" fill="none" stroke-linecap="round" stroke-dasharray="4 8" stroke-width="3" stroke-dashoffset="100" opacity="0" transform="translate(61.8,300) scale(-1,1)" style="animation: 12s linear infinite both a81_o, 12s linear infinite both a81_do;"/><path d="M0 0l-85.5 34.2" stroke="#41cdfc" fill="none" stroke-linecap="round" stroke-dasharray="4 8" stroke-width="3" opacity="0" stroke-dashoffset="100" transform="translate(253.5,334.2) scale(-1,-1)" style="animation: 12s linear infinite both a82_o, 12s linear infinite both a82_do;"/><path d="M0 0v44" stroke="#41cdfc" fill="none" stroke-width="3" stroke-linecap="round" stroke-dasharray="4 8" opacity="0" stroke-dashoffset="1" transform="translate(350,159.7)" style="animation: 12s linear infinite both a83_o, 12s linear infinite both a83_do;"/><path d="M0 0l-85.5 34.2" stroke="#41cdfc" fill="none" stroke-linecap="round" stroke-dasharray="4 8 4 8" stroke-width="3" stroke-dashoffset="1" opacity="0" transform="translate(253.5,34.3) scale(-1,1)" style="animation: 12s linear infinite both a84_o, 12s linear infinite both a84_do;"/></svg>