<svg id="Layer_1" data-name="Layer 1" xmlns="http://www.w3.org/2000/svg" viewBox="0 0 141 141"><defs><style>.cls-1{fill:#fff;}.cls-2{fill:#ef3f36;}.cls-3{fill:#0569b3;}.cls-4{fill:#51b849;}</style></defs><title>ribbon-partner</title><circle class="cls-1" cx="69.85" cy="70.34" r="56.79"/><path class="cls-2" d="M116.19,51.34c4,10.63-13.85,27.09-39.79,36.77S26.21,97,22.25,86.38,36.1,59.29,62,49.61,112.22,40.71,116.19,51.34ZM65,49.06C41.72,58.12,25.39,74.11,30,83.71,35.51,95,56,94.19,79.28,85s38.73-28,35-34.65C109.06,41,84.92,41.34,65,49.06Z"/><path class="cls-3" d="M41.35,73.6a6.58,6.58,0,0,0-.06,2.93c0.22,0.72.77,1.16,2,1.16A2.9,2.9,0,0,0,46,75.37c0.33-1.44.06-1.88-3.48-3.26-6.41-2.43-9.18-4-8-9.51,1.27-6,5.59-10.06,13.88-10.06,11.94,0,10.56,6.52,10,9.29H49.26a4.12,4.12,0,0,0,.06-2.16c-0.28-.55-0.83-0.83-2-0.83a2.47,2.47,0,0,0-2.71,2c-0.33,1.44,1,2,7,4.26,2.71,1.05,6.08,2.49,4.7,8.85C54.79,81.39,48.59,84,42,84c-7.8,0-11.61-2-10-10.4h9.4Z"/><path class="cls-3" d="M74.55,63.42c0.5-2.27-.11-2.93-1.49-2.93s-2.38,1.22-2.76,2.93l-4.2,19.8H55.36l9-41.41H75.13l-3.4,14.92h0.11a10.19,10.19,0,0,1,8.46-4.2c3.82,0,6.86,2.1,5.7,7.58L81.08,83.22H70.35Z"/><path class="cls-3" d="M90.24,53.3H101L94.61,83.22H83.88Z"/><polyline class="cls-2" points="87.72 83.22 83.72 83.33 83.94 82.94"/><path class="cls-2" d="M83.92,83a83,83,0,0,0,12.26-7.12l-0.66,3.1c-2.44,1.48-5.06,2.92-7.82,4.29"/><circle class="cls-4" cx="97.41" cy="43.62" r="5.55"/><path class="cls-3" d="M99.95,80.09H98.8V79.7h2.75v0.38H100.4v3H99.95v-3Z"/><path class="cls-3" d="M101.94,79.7h0.63l1.08,2.89,1.09-2.89h0.63v3.43h-0.43V80.28h0l-1.07,2.86h-0.39l-1.07-2.86h0v2.86h-0.43V79.7Z"/></svg>