<?xml version="1.0" encoding="UTF-8"?>
<svg width="24px" height="29px" viewBox="0 0 24 29" version="1.1" xmlns="http://www.w3.org/2000/svg" xmlns:xlink="http://www.w3.org/1999/xlink">
    <title>customer-service</title>
    <g id="Page-1" stroke="none" stroke-width="1" fill="none" fill-rule="evenodd">
        <g id="Artboard-Copy-3" transform="translate(-24.000000, -212.000000)">
            <g id="customer-service" transform="translate(24.000000, 212.183712)">
                <path d="M23.1076472,14.4285956 C23.1076472,11.3034293 20.5651151,8.76095144 17.440003,8.76095144 C17.1395407,8.76095144 16.8445601,8.78466929 16.5566351,8.82993403 C16.5578834,8.80268835 16.5590775,8.7753884 16.5590775,8.74792562 C16.5590775,8.34423366 16.4230662,7.95313332 16.1731332,7.62993009 L16.1731332,5.71904186 C16.1730789,2.55957422 13.617521,0 10.4542542,0 C10.4399258,0 10.4255973,0 10.4112147,0 C7.28127223,0.0230122873 4.73488665,2.61835324 4.73488665,5.78563638 L4.73488665,7.62987581 C4.4848994,7.95307905 4.34877955,8.34423366 4.34877955,8.74797989 C4.34877955,9.26304264 4.57298653,9.74526947 4.98009777,10.1066818 C4.91540285,10.623807 4.72598568,11.140118 4.49287772,11.4126291 C4.35073343,11.5788169 4.14405703,11.7286138 3.84256351,11.8841096 C3.4221008,12.1009353 3.1019912,12.6027551 2.96446021,13.2608848 C2.82600657,13.9235193 2.86823195,14.8589362 3.35317248,15.6307705 C3.22226296,15.8523723 3.14649609,16.110175 3.14513923,16.3853998 L2.39208384,16.6773411 C2.38947868,16.6783723 2.38687351,16.6794035 2.38426835,16.680489 C1.24233787,17.1504498 0.0132971943,18.4971028 0.0132971943,20.3433504 L0.0132971943,26.6755829 C0.0132971943,27.2893705 0.512620409,27.7886937 1.12646232,27.7886937 L19.7341761,27.7886937 C20.348018,27.7886937 20.8473412,27.2893705 20.8473412,26.6755829 L20.8473412,21.8100104 C20.8473412,21.5852064 20.6651425,21.4029534 20.4402842,21.4029534 C20.215426,21.4029534 20.0332273,21.5852064 20.0332273,21.8100104 L20.0332273,26.6755829 C20.0332273,26.8404681 19.8990613,26.9745798 19.7341761,26.9745798 L18.5976188,26.9745798 C18.6509161,26.8343894 18.6804413,26.6824214 18.6804413,26.5235607 L18.6804413,25.8875206 C18.6804413,25.5611152 18.4156914,25.2955512 18.090263,25.2955512 L17.6142234,25.2955512 C17.7092576,25.0977215 17.7629892,24.8786706 17.7629892,24.6510986 L17.7629892,20.0871216 C18.5121911,20.0444078 19.2488556,19.8531996 19.9239189,19.5239176 C19.9965379,19.7925209 20.033173,20.0666602 20.033173,20.3432961 L20.033173,21.9104112 C20.033173,22.1352152 20.2153717,22.3174682 20.44023,22.3174682 C20.6650882,22.3174682 20.8472869,22.1352152 20.8472869,21.9104112 L20.8472869,20.3432961 C20.8472869,19.9210967 20.7787928,19.5044874 20.6453324,19.1001442 C22.1313617,18.0772914 23.1076472,16.3649384 23.1076472,14.4285956 Z M15.4580155,8.04930731 C15.6303363,8.19389395 15.8369584,8.61202287 15.6994817,9.03329969 C15.4072691,9.12751981 15.0356532,9.2812788 14.7135354,9.45848426 L14.7135897,7.74390604 C14.9991809,7.76990341 15.2564952,7.88100283 15.4580155,8.04930731 Z M5.54900059,5.78563638 C5.54900059,3.06399921 7.73283409,0.833869768 10.4171306,0.814276759 C10.4295594,0.814113937 10.4417711,0.814113937 10.4540913,0.814113937 C13.1636796,0.814113937 15.358965,3.00608857 15.358965,5.71909613 L15.358965,7.06254695 C15.031854,6.94037558 14.654268,6.89467665 14.2810781,6.94298075 C12.9706261,6.94314357 13.3566246,6.95758052 12.4964318,6.88463592 C11.7262258,6.8192897 10.0896972,6.28550233 9.9126003,5.55665326 C9.8611483,5.34406098 9.67265379,5.19551232 9.45430843,5.1953495 C9.23558315,5.1953495 9.04714291,5.34395243 8.99541954,5.55654471 C8.82879756,6.2440368 8.25311045,6.81983245 7.31432854,6.89473093 C6.57196518,6.95399842 7.74558854,6.94298075 6.62601906,6.94298075 C6.26042762,6.89695617 5.88327577,6.94688849 5.54900059,7.07503003 L5.54900059,5.78563638 Z M8.60702963,14.8890584 C8.64317629,14.8059102 8.66879374,14.690686 8.66879374,14.5699258 L8.66879374,13.9411584 C9.62847125,14.3680798 10.7677423,14.4490027 11.7807171,14.1201007 C11.7656832,14.3678627 11.7749098,14.735408 11.7910835,14.8890584 L8.60702963,14.8890584 Z M16.9489838,20.0748556 L16.9489838,24.6510444 C16.9489838,24.9356043 16.7685218,25.1937327 16.503175,25.2954969 L4.40489914,25.2954969 C4.13976937,25.1938413 3.95909035,24.9357671 3.95909035,24.6510444 C3.95909035,24.2414365 3.95909035,16.8082506 3.95909035,16.3928354 C3.95909035,16.0100933 4.27420672,15.7031181 4.64880767,15.7031181 C4.93494159,15.7031181 11.6079079,15.7031181 11.9166199,15.7031181 C12.4643015,18.0872779 14.4874831,19.8586813 16.9489838,20.0748556 Z M7.00838123,10.1179166 L7.00838123,7.75698614 C8.4295528,7.75698614 8.66369525,7.74976766 9.4545798,6.52300651 C10.2862243,7.80860096 12.6416155,7.7598084 13.8994215,7.7574746 L13.8994215,10.0027466 C12.8633258,10.8317859 12.1726316,11.9796323 11.9068505,13.1971668 C9.67123937,14.2376587 7.00838123,12.6189288 7.00838123,10.1179166 Z M5.42932584,8.06966016 C5.65277298,7.89576542 5.90932742,7.7800527 6.1942673,7.74775951 L6.1942673,9.80915027 C5.67041212,9.74022196 5.16289349,9.30754754 5.16289349,8.74797989 C5.16289349,8.40029897 5.36414245,8.12035232 5.42932584,8.06966016 Z M4.21569906,12.6075855 C4.98015205,12.2133916 5.48669374,11.7275284 5.73271897,10.5352314 C5.87432052,10.580876 6.05798462,10.6189223 6.22639766,10.6313511 C6.36859623,11.8049777 6.98688863,12.8082917 7.85462553,13.4620252 L7.85467981,14.557714 C7.83514107,14.568189 7.02536908,14.8809715 7.00463631,14.8890041 L4.64880767,14.8890041 C4.39968881,14.8890041 4.1595252,14.9522337 3.96039293,15.0556261 C3.68060911,14.517334 3.66524949,13.8873726 3.76136921,13.427344 C3.8446802,13.0286995 4.02302543,12.7069617 4.21569906,12.6075855 Z M2.22757855,25.8874663 L2.22757855,26.5235064 C2.22757855,26.6823672 2.25710375,26.8343351 2.31040108,26.9745255 L1.12651659,26.9745255 C0.961631382,26.9745255 0.827465405,26.8404138 0.827465405,26.6755286 L0.827465405,20.3432419 C0.827465405,18.7744443 1.94014206,17.7454043 2.69042946,17.4347927 L3.14492214,17.2585642 L3.14492214,24.6510986 C3.14492214,24.8632567 3.1932805,25.0865953 3.29368789,25.2955512 L2.81764833,25.2955512 C2.49232841,25.2954969 2.22757855,25.5610066 2.22757855,25.8874663 L2.22757855,25.8874663 Z M17.8663816,26.1096109 L17.8663816,26.5234521 C17.8663816,26.771974 17.6680635,26.9741456 17.4241549,26.9744713 L3.48386491,26.9744713 C3.24001064,26.9741999 3.04169249,26.771974 3.04169249,26.5234521 L3.04169249,26.1096109 L17.8663816,26.1096109 Z" id="Shape" fill="#003562" fill-rule="nonzero"></path>
                <path d="M17.440003,9.07506538 C18.9159791,9.07506538 20.254479,9.67525699 21.2239071,10.6446851 C22.1933449,11.6141229 22.7935332,12.9526349 22.7935332,14.4285956 C22.7935332,16.279003 21.8670896,17.8629398 20.499459,18.8187459 C19.1416224,19.7677073 17.3496371,20.0978293 15.5992128,19.4560149 C14.5505075,19.0709376 13.6691333,18.3753201 13.0516172,17.49163 C12.4393559,16.6154597 12.0864186,15.5545769 12.0864186,14.4285956 C12.0864186,12.9548619 12.6862519,11.6147348 13.6570361,10.6439614 C14.6252436,9.67576479 15.9621713,9.07506538 17.440003,9.07506538 Z" id="Path" stroke="#84B4F1" fill="#CEE1F9" fill-rule="nonzero"></path>
                <text id="?" font-family="HiraMaruProN-W4, Hiragino Maru Gothic ProN" font-size="8" font-weight="normal" letter-spacing="0.148718" fill="#84B4F1">
                    <tspan x="15.2778234" y="17.6343878">?</tspan>
                </text>
                <path d="M9.80904172,21.3183875 L11.051651,21.3183875 C11.2765092,21.3183875 11.4587079,21.1361346 11.4587079,20.9113306 C11.4587079,20.6865266 11.2765092,20.5042736 11.051651,20.5042736 L9.80904172,20.5042736 C9.58418345,20.5042736 9.40198476,20.6865266 9.40198476,20.9113306 C9.40198476,21.1361346 9.58423773,21.3183875 9.80904172,21.3183875 Z" id="Path" fill="#003562" fill-rule="nonzero"></path>
            </g>
        </g>
    </g>
</svg>