<?xml version="1.0" encoding="UTF-8"?>
<svg width="28px" height="31px" viewBox="0 0 28 31" version="1.1" xmlns="http://www.w3.org/2000/svg" xmlns:xlink="http://www.w3.org/1999/xlink">
    <title>piggy bank</title>
    <g id="Page-1" stroke="none" stroke-width="1" fill="none" fill-rule="evenodd">
        <g id="Artboard-Copy-3" transform="translate(-74.000000, -275.000000)">
            <g id="piggy-bank" transform="translate(74.100000, 275.583712)">
                <g id="pig" transform="translate(0.126500, 0.060513)">
                    <g id="Coin" transform="translate(0.739804, 0.000000)">
                        <g id="coin" transform="translate(9.527793, 9.381897) rotate(-30.000000) translate(-9.527793, -9.381897) translate(3.027793, 2.881897)">
                            <circle id="Oval" stroke="#84B4F1" fill="#CEE1F9" cx="6.39604266" cy="6.30889591" r="5.86112709"></circle>
                            <path d="M7.96540658,6.97200191 C7.76669077,6.26785678 7.12302437,5.78402699 6.39295978,5.78402699 C5.96960872,5.78402699 5.62401602,5.4427542 5.62401602,5.01940314 C5.62833593,4.59173217 5.96960872,4.25045938 6.39295978,4.25045938 C6.81631084,4.25045938 7.16190355,4.59605208 7.16190355,5.01940314 C7.16190355,5.25699812 7.35629944,5.45139402 7.59389442,5.45139402 C7.8314894,5.45139402 8.0258853,5.25699812 8.0258853,5.01940314 C8.0258853,4.28933856 7.54205552,3.64567215 6.83791039,3.44695635 L6.83791039,3.25256045 C6.83791039,3.01496547 6.64351449,2.82056958 6.40591951,2.82056958 C6.16832453,2.82056958 5.97392863,3.01496547 5.97392863,3.25256045 L5.97392863,3.43831653 C5.10562697,3.6715916 4.58723792,4.56581272 4.82051299,5.43411438 C5.01058898,6.14689933 5.65425538,6.64368884 6.39295978,6.64368884 C6.81631084,6.64368884 7.16190355,6.98496163 7.16190355,7.40831269 C7.16190355,7.83166375 6.82063075,8.17725645 6.39727969,8.17725645 C5.97392863,8.17725645 5.62833593,7.83598366 5.62833593,7.4126326 C5.62833593,7.17503762 5.43394004,6.98064172 5.19634505,6.98064172 C4.95875007,6.98064172 4.76435418,7.17503762 4.76435418,7.4126326 C4.76867409,8.151337 5.26114369,8.79500341 5.97392863,8.9893993 L5.97392863,9.36523136 C5.97392863,9.60282635 6.16832453,9.79722224 6.40591951,9.79722224 C6.64351449,9.79722224 6.83791039,9.60282635 6.83791039,9.36523136 L6.83791039,8.98507939 C7.70621205,8.73884459 8.21164138,7.84030357 7.96540658,6.97200191 Z" id="Path" fill="#84B4F1" fill-rule="nonzero"></path>
                        </g>
                    </g>
                    <path d="M9.8691458,14.5088374 C10.8934111,14.3175331 11.8587354,14.2218809 12.7651186,14.2218809 C13.6715017,14.2218809 14.5745172,14.3175331 15.4741649,14.5088374 L15.4741649,15.8712228 C14.6290212,15.6799184 13.725636,15.5842662 12.7640092,15.5842662 C11.8023824,15.5842662 10.837428,15.6799184 9.8691458,15.8712228 L9.8691458,14.5088374 Z" id="Rectangle" fill="#84B4F1" fill-rule="nonzero"></path>
                    <path d="M23.232062,15.8712228 C23.0712551,15.555876 22.8882868,15.2549251 22.6870625,14.9682792 L22.6870625,9.74048882 L22.0058698,9.74048882 C21.2919799,9.74048882 20.5954831,9.90052368 19.9622918,10.2010205 L19.9622918,9.05929616 L19.2810992,9.05929616 C17.4289363,9.05929616 15.7540198,10.1362618 14.9719652,11.7840668 L12.3783469,11.7840668 C9.20744044,11.7840668 6.4904354,13.763976 5.39816567,16.5524154 L4.8852276,16.5524154 C3.38278907,16.5524154 2.16045696,17.7747475 2.16045696,19.2771861 C2.16045696,20.7796246 3.38278907,22.0019567 4.8852276,22.0019567 L5.39793861,22.0019567 C5.5389909,22.3637608 5.70769962,22.7151654 5.90451888,23.0519925 C6.48448631,24.0444902 7.28906567,24.8940283 8.24582347,25.5279462 L8.24582347,28.8592962 L12.1606377,28.8592962 L12.9852441,26.7703053 L15.9494767,26.7703053 L16.7740831,28.8592962 L20.6888973,28.8592962 L20.6888973,25.5281278 C21.1394381,25.22972 21.5571455,24.8829929 21.9343446,24.4942136 L25.4118331,20.9160448 L25.4118331,15.8712228 L23.232062,15.8712228 Z" id="Path-Copy-4" fill="#FFFFFF" fill-rule="nonzero"></path>
                    <path d="M23.232062,15.8712228 C23.0712551,15.555876 22.8882868,15.2549251 22.6870625,14.9682792 L22.6870625,9.74048882 L22.0058698,9.74048882 C21.2919799,9.74048882 20.5954831,9.90052368 19.9622918,10.2010205 L19.9622918,9.05929616 L19.2810992,9.05929616 C17.4289363,9.05929616 15.7540198,10.1362618 14.9719652,11.7840668 L12.3783469,11.7840668 C9.20744044,11.7840668 6.4904354,13.763976 5.39816567,16.5524154 L4.8852276,16.5524154 C3.38278907,16.5524154 2.16045696,17.7747475 2.16045696,19.2771861 C2.16045696,20.7796246 3.38278907,22.0019567 4.8852276,22.0019567 L5.39793861,22.0019567 C5.5389909,22.3637608 5.70769962,22.7151654 5.90451888,23.0519925 C6.48448631,24.0444902 7.28906567,24.8940283 8.24582347,25.5279462 L8.24582347,28.8592962 L12.1606377,28.8592962 L12.9852441,26.7703053 L15.9494767,26.7703053 L16.7740831,28.8592962 L20.6888973,28.8592962 L20.6888973,25.5281278 C21.1394381,25.22972 21.5571455,24.8829929 21.9343446,24.4942136 L25.4118331,20.9160448 L25.4118331,15.8712228 L23.232062,15.8712228 Z" id="Path" stroke="#0C355F" fill-rule="nonzero"></path>
                    <path d="M4.8852276,20.6395714 C4.13400833,20.6395714 3.52284228,20.0284053 3.52284228,19.2771861 C3.52284228,18.5259668 4.13400833,17.9148007 4.8852276,17.9148007 L5.0097042,17.9148007 C4.92818815,18.3567585 4.8852276,18.8120223 4.8852276,19.2771861 C4.8852276,19.7360829 4.92827898,20.1920278 5.01083953,20.6395714 L4.8852276,20.6395714 Z" id="Path" stroke="#0C355F" stroke-width="0.75" fill-rule="nonzero"></path>
                    <path d="M19.9622918,11.7843847 C20.3668748,11.4805273 20.8319932,11.2717191 21.3246771,11.1714021 L21.3246771,13.4963127 C20.9069244,13.1520379 20.4513427,12.8509962 19.9622918,12.6015434 L19.9622918,11.7843847 Z" id="Path" stroke="#0C355F" stroke-width="0.75" fill-rule="nonzero"></path>
                    <rect id="Rectangle" fill="#0C355F" fill-rule="nonzero" x="18.5999065" y="15.8712228" width="1.36238532" height="1.36238532"></rect>
                </g>
            </g>
        </g>
    </g>
</svg>