<?xml version="1.0" encoding="UTF-8"?>
<svg width="21px" height="25px" viewBox="0 0 21 25" version="1.1" xmlns="http://www.w3.org/2000/svg" xmlns:xlink="http://www.w3.org/1999/xlink">
    <title>security</title>
    <g id="Page-1" stroke="none" stroke-width="1" fill="none" fill-rule="evenodd">
        <g id="Artboard-Copy-3" transform="translate(-24.000000, -147.000000)" fill-rule="nonzero">
            <g id="security" transform="translate(24.000000, 147.183712)">
                <path d="M19.5505524,3.86222975 L10.4197653,0.071229456 C10.1910298,-0.0237120949 9.93392361,-0.0237586806 9.70523466,0.071229456 L0.574447627,3.86222975 C0.226685764,4.00664525 0,4.34616146 0,4.72271325 L0,9.3311985 C0,15.6767694 3.83534983,21.3847691 9.71040567,23.7827653 C9.93606655,23.8748652 10.1888869,23.8748652 10.4145943,23.7827653 C16.289557,21.3848157 20.125,15.676816 20.125,9.3311985 L20.125,4.72271325 C20.125,4.34616146 19.8983608,4.00664525 19.5505524,3.86222975 Z" id="Path" fill="#083057"></path>
                <path d="M18.9469114,9.11444695 C18.9469114,14.9597334 15.5142979,20.3407084 10.0625,22.7426292 C4.75638628,20.404868 1.17808864,15.1181384 1.17808864,9.11444695 L1.17808864,4.79475529 L10.0625,1.10600827 L18.9469114,4.79475529 L18.9469114,9.11444695 Z" id="Path" fill="#CEE1F9"></path>
                <path d="M17.4536451,9.5867221 C17.4536451,14.4495496 14.5979754,18.9261058 10.0625,20.9243187 C5.64822258,18.9794817 2.67135491,14.5813304 2.67135491,9.5867221 L2.67135491,5.99307177 L10.0625,2.92431872 L17.4536451,5.99307177 L17.4536451,9.5867221 Z" id="Path" fill="#FFFFFF"></path>
                <path d="M9.03267766,12.4717234 L13.0373663,8.46708131 C13.4012002,8.1032474 13.9911143,8.10320081 14.3549948,8.46708131 C14.7188753,8.83096181 14.7188287,9.42087587 14.3549482,9.78470978 L9.6914919,14.4481661 C9.32756481,14.8120932 8.73765075,14.8119534 8.37386343,14.4481661 L5.77000521,11.8443079 C5.40612471,11.4804274 5.40612471,10.8905133 5.77000521,10.5266794 C6.13388571,10.1628455 6.72379977,10.1627989 7.08763368,10.5266794 L9.03267766,12.4717234 Z" id="Path" fill="#84B4F1"></path>
            </g>
        </g>
    </g>
</svg>