<?xml version="1.0" encoding="UTF-8"?>
<svg width="31px" height="35px" viewBox="0 0 31 35" version="1.1" xmlns="http://www.w3.org/2000/svg" xmlns:xlink="http://www.w3.org/1999/xlink">
    <title>visibility</title>
    <g id="Page-1" stroke="none" stroke-width="1" fill="none" fill-rule="evenodd">
        <g id="Artboard-Copy-3" transform="translate(-118.000000, -74.000000)">
            <g id="visibility" transform="translate(119.000000, 75.341856)">
                <path d="M14.7115385,8.60229808 C16.6715459,8.60229808 18.4487472,9.39980101 19.7360203,10.6870742 C21.0232703,11.9743241 21.8207788,13.7514968 21.8207788,15.7115385 C21.8207788,17.6715801 21.0232703,19.4487528 19.7360203,20.7360028 C18.4487472,22.0232759 16.6715459,22.8207788 14.7115385,22.8207788 C12.7514791,22.8207788 10.9742907,22.0232928 9.68703741,20.7360395 C8.3997841,19.4487862 7.60229808,17.6715979 7.60229808,15.7115385 C7.60229808,13.7514791 8.3997841,11.9742907 9.68703741,10.6870374 C10.9742907,9.3997841 12.7514791,8.60229808 14.7115385,8.60229808 Z" id="Path" stroke="#84B4F1" fill="#CEE1F9" fill-rule="nonzero"></path>
                <path d="M29.22675,15.1626538 C26.5525385,11.9045385 20.8907885,8.10232692 14.7115385,8.10232692 C8.51013462,8.10232692 2.84815385,11.9303846 0.196326923,15.1626538 C-0.0654807692,15.48175 -0.0654807692,15.9413269 0.196326923,16.2604231 C2.93394231,19.5973462 8.60896154,23.3208077 14.7115385,23.3208077 C21.0309808,23.3208077 26.6686154,19.3771346 29.22675,16.2604808 C29.4885577,15.9413269 29.4885577,15.48175 29.22675,15.1626538 Z" id="Path" stroke="#083057" fill-rule="nonzero"></path>
                <path d="M11.7692308,15.7115385 C11.7692308,17.3339615 13.0891154,18.6538462 14.7115385,18.6538462 C16.3339038,18.6538462 17.6538462,17.3339615 17.6538462,15.7115385 C17.6538462,14.0891154 16.3339038,12.7692308 14.7115385,12.7692308 C13.0891154,12.7692308 11.7692308,14.0891154 11.7692308,15.7115385 Z M16.5047021,14.4918297 C16.5047021,14.8258682 16.2329425,15.0975989 15.8989329,15.0975989 C15.5648944,15.0975989 15.2931637,14.8258682 15.2931637,14.4918297 C15.2931637,14.1577913 15.5648944,13.8860605 15.8989329,13.8860605 C16.2329425,13.8860605 16.5047021,14.1577913 16.5047021,14.4918297 Z M14.7115385,13.8860605 C14.7115385,14.0597366 14.5702429,14.2010171 14.3965818,14.2010171 C14.2229057,14.2010171 14.0816252,14.0597366 14.0816252,13.8860605 C14.0816252,13.7123844 14.2229057,13.5711039 14.3965818,13.5711039 C14.5702429,13.5711039 14.7115385,13.7123844 14.7115385,13.8860605 Z" id="Shape" fill="#000000" fill-rule="nonzero"></path>
                <path d="M8.48485267,5.23164315 L6.70242966,2.27090617 M20.4848527,5.23164315 L22.2672757,2.27090617 M14.4848527,4.23164315 L14.4848527,0.427722266" id="Combined-Shape" stroke="#083057" stroke-linecap="round"></path>
                <path d="M8.48485267,31.2316432 L6.70242966,28.2709062 M20.4848527,31.2316432 L22.2672757,28.2709062 M14.4848527,30.2316432 L14.4848527,26.4277223" id="Combined-Shape" stroke="#083057" stroke-linecap="round" transform="translate(14.484853, 29.073499) scale(1, -1) translate(-14.484853, -29.073499) "></path>
            </g>
        </g>
    </g>
</svg>