<svg xmlns="http://www.w3.org/2000/svg" xmlns:xlink="http://www.w3.org/1999/xlink" viewBox="0 0 261.18 261.63"><defs><style>.cls-1{fill:url(#linear-gradient);}.cls-2{fill:url(#linear-gradient-2);}.cls-3{fill:url(#linear-gradient-3);}.cls-4{fill:url(#linear-gradient-4);}.cls-5{fill:url(#linear-gradient-5);}.cls-6{fill:url(#linear-gradient-6);}.cls-7{fill:url(#linear-gradient-7);}.cls-8{fill:url(#linear-gradient-8);}.cls-9{fill:url(#linear-gradient-9);}.cls-10{fill:url(#linear-gradient-10);}.cls-11{fill:url(#linear-gradient-11);}</style><linearGradient id="linear-gradient" x1="5168.43" y1="3738.93" x2="5203.88" y2="3748.58" gradientTransform="matrix(0.71, 0.7, -0.7, 0.71, -917.91, -6180.96)" gradientUnits="userSpaceOnUse"><stop offset="0.01" stop-color="#f7ed41"/><stop offset="0.06" stop-color="#f8de3c"/><stop offset="0.21" stop-color="#f3b23a"/><stop offset="0.37" stop-color="#f28f39"/><stop offset="0.53" stop-color="#f07339"/><stop offset="0.69" stop-color="#ee5e39"/><stop offset="0.84" stop-color="#ed543a"/><stop offset="1" stop-color="#ee503a"/></linearGradient><linearGradient id="linear-gradient-2" x1="4024.44" y1="-2415.15" x2="4041.45" y2="-2410.48" gradientTransform="matrix(-0.68, -0.73, 0.73, -0.68, 4520.44, 1327.52)" xlink:href="#linear-gradient"/><linearGradient id="linear-gradient-3" x1="7731.06" y1="1082.76" x2="7748.11" y2="1087.39" gradientTransform="matrix(-0.68, 0.73, 0.73, 0.68, 4520.24, -6211.41)" xlink:href="#linear-gradient"/><linearGradient id="linear-gradient-4" x1="1630.05" y1="164.01" x2="1647.1" y2="168.67" gradientTransform="matrix(0.68, -0.73, -0.73, -0.68, -747.48, 1330.83)" xlink:href="#linear-gradient"/><linearGradient id="linear-gradient-5" x1="5393.64" y1="3675.09" x2="5410.65" y2="3679.72" gradientTransform="matrix(0.68, 0.73, -0.73, 0.68, -747.48, -6211.41)" xlink:href="#linear-gradient"/><linearGradient id="linear-gradient-6" x1="103.55" y1="1079.55" x2="157.91" y2="1173.68" gradientTransform="translate(0 -998)" xlink:href="#linear-gradient"/><linearGradient id="linear-gradient-7" x1="77.25" y1="1033.94" x2="184.24" y2="1219.25" gradientTransform="translate(0 -998)" xlink:href="#linear-gradient"/><linearGradient id="linear-gradient-8" x1="116.17" y1="1001.34" x2="145.07" y2="1051.45" gradientTransform="translate(0 -998)" xlink:href="#linear-gradient"/><linearGradient id="linear-gradient-9" x1="1022.41" y1="-9525.75" x2="984.77" y2="-9504" gradientTransform="translate(9543.22 1134.19) rotate(-90)" xlink:href="#linear-gradient"/><linearGradient id="linear-gradient-10" x1="11559.31" y1="-8616.78" x2="11530.4" y2="-8666.87" gradientTransform="translate(11675.41 -8409.03) rotate(180)" xlink:href="#linear-gradient"/><linearGradient id="linear-gradient-11" x1="10652.97" y1="1910.24" x2="10690.61" y2="1888.51" gradientTransform="translate(2132.19 -10541.23) rotate(90)" xlink:href="#linear-gradient"/></defs><title>evolve-vm-icon</title><g id="Layer_2" data-name="Layer 2"><g id="white-color-vm"><g id="Layer_1-2" data-name="Layer 1-2"><circle class="cls-1" cx="130.59" cy="128.77" r="18.59"/><circle class="cls-2" cx="9.07" cy="8.62" r="8.62"/><circle class="cls-3" cx="9.07" cy="253.01" r="8.62"/><circle class="cls-4" cx="252.11" cy="8.62" r="8.62"/><circle class="cls-5" cx="252.11" cy="253.01" r="8.62"/><path class="cls-6" d="M185,125.15A56.44,56.44,0,0,0,171.85,93a25.87,25.87,0,0,0-5-5c-9.07-7.71-20.4-12.7-32.19-13.15h-7.26A56.34,56.34,0,0,0,95.22,88a26.15,26.15,0,0,0-5,5c-7.71,9.07-12.69,20.41-13.15,32.2v7.25a53,53,0,0,0,12.7,32.19,25.64,25.64,0,0,0,5,5c9.07,7.71,20.4,12.7,32.19,13.15h7.26a56.37,56.37,0,0,0,32.19-13.15,25.92,25.92,0,0,0,5-5c7.7-9.06,12.69-20.4,13.15-32.19v-3.63A10,10,0,0,0,185,125.15Zm-54.41,50.78a47.16,47.16,0,1,1,47.15-47.16A47.12,47.12,0,0,1,130.59,175.93Z"/><path class="cls-7" d="M237.6,122h0a106.16,106.16,0,0,0-26.3-63.48,103.21,103.21,0,0,0-10-10,107.86,107.86,0,0,0-61.66-26.3h-1.82c-2.26,0-4.53-.46-6.8-.46a33.82,33.82,0,0,0-6.8.46h-1.81a105,105,0,0,0-62.12,26.3,102.09,102.09,0,0,0-10,10A103.44,103.44,0,0,0,24,122h0c0,2.27-.45,4.54-.45,6.8a34.66,34.66,0,0,0,.45,6.81l.46,3.62a107,107,0,0,0,26.29,60.31,103.21,103.21,0,0,0,10,10,107.9,107.9,0,0,0,62.12,26.3h1.81a71.8,71.8,0,0,0,14.06,0h1.81a105,105,0,0,0,61.67-26.3,102,102,0,0,0,10-10,105.66,105.66,0,0,0,26.3-60.31c0-1.36.46-2.26.46-3.62,0-2.27.45-4.54.45-6.81S237.6,124.24,237.6,122Zm-98.4,99.3a54,54,0,0,1-8.61.46,54.16,54.16,0,0,1-8.62-.46A93.16,93.16,0,0,1,38.09,139.2a79.07,79.07,0,0,1-.46-10.43,33.87,33.87,0,0,1,.46-6.8,93.14,93.14,0,0,1,84.34-85.7,55.22,55.22,0,0,1,8.61-.45,52.48,52.48,0,0,1,8.62.45c44.89,4.54,80.71,40.36,83.88,85.7,0,2.27.45,4.54.45,6.8a80.81,80.81,0,0,1-.45,10.43C218.1,182.73,183.19,217.19,139.2,221.27Z"/><rect class="cls-8" x="121.97" width="17.23" height="56.68"/><rect class="cls-9" y="121.97" width="56.68" height="17.23"/><rect class="cls-10" x="121.97" y="204.5" width="17.23" height="56.68"/><rect class="cls-11" x="204.5" y="121.97" width="56.68" height="17.23"/></g></g></g></svg>